<?xml version="1.0" encoding="utf-8"?>
<!-- Generator: Adobe Illustrator 24.1.0, SVG Export Plug-In . SVG Version: 6.00 Build 0)  -->
<svg version="1.1" id="Layer_1" xmlns="http://www.w3.org/2000/svg" xmlns:xlink="http://www.w3.org/1999/xlink" x="0px" y="0px"
	 viewBox="0 0 435.3 429.8" style="enable-background:new 0 0 435.3 429.8;" xml:space="preserve">
<style type="text/css">
	.st0{fill:#00A651;}
	.st1{fill:#ED1C24;}
</style>
<g>
	<path class="st1" d="M301.1,358.5c-2.3,0-4.6,0-6.9,0c-8.6-1.5-14.7-6.8-20.5-12.8c-17.6-18.2-35.5-36.1-53.3-54.2
		c-0.7-0.7-1.4-1.3-2.6-2.4c-0.7,1-1.2,2-2,2.7c-19.3,19-38.6,38.1-57.9,57.1c-11.6,11.4-27.9,11.4-39.3-0.1
		c-9.1-9.1-18.2-18.2-27-27.5c-2.7-2.9-5-6.4-6.4-10.1c-3.9-10.8-1.2-20.5,6.8-28.5c19.4-19.3,38.9-38.5,58.4-57.7
		c0.7-0.7,1.3-1.4,2.6-2.7c-1-0.7-2.1-1.1-2.8-1.9c-19.1-19.3-38.2-38.7-57.3-58.1C82,151,82,134.7,93.2,123.5
		c9.2-9.2,18.4-18.4,27.9-27.3c2.8-2.6,6.3-4.9,9.9-6.2c10.9-3.9,20.6-1.2,28.7,7c19.2,19.4,38.3,38.8,57.5,58.3
		c0.7,0.7,1.4,1.3,2.5,2.4c0.7-1,1.3-1.9,2-2.6c19.2-19,38.5-37.9,57.7-56.9c11.9-11.7,28.1-11.7,39.8,0.2
		c7.4,7.5,14.7,15.2,22.3,22.5c5.9,5.7,10.9,11.9,12.4,20.2c0,2.3,0,4.6,0,6.9c-1.5,8.6-6.8,14.7-12.8,20.6
		c-18.2,17.6-36.1,35.5-54.2,53.3c-0.7,0.7-1.3,1.4-2,2.1c0.8,0.8,1.4,1.5,2.1,2.2c19,19.3,38,38.6,57,57.9
		c11.7,11.9,11.7,28.1-0.2,39.8c-7.5,7.4-15.2,14.7-22.5,22.3C315.6,352,309.5,357,301.1,358.5z"/>
</g>
</svg>
