<?xml version="1.0" encoding="utf-8"?>
<!-- Generator: Adobe Illustrator 24.1.0, SVG Export Plug-In . SVG Version: 6.00 Build 0)  -->
<svg version="1.1" id="Layer_1" xmlns="http://www.w3.org/2000/svg" xmlns:xlink="http://www.w3.org/1999/xlink" x="0px" y="0px"
	 viewBox="0 0 2255.7 432" style="enable-background:new 0 0 2255.7 432;" xml:space="preserve">
<style type="text/css">
	.st0{opacity:0.25;fill:#7595B4;}
	.st1{fill:#7595B4;}
	.st2{fill:none;}
	.st3{fill:#FFFFFF;}
	.st4{font-family:'Montserrat-Bold';}
	.st5{font-size:15px;}
	.st6{font-size:14px;}
	.st7{fill:none;stroke:#7595B4;stroke-width:5;stroke-miterlimit:10;}
	.st8{fill:#7595B4;stroke:#7595B4;stroke-width:2;stroke-miterlimit:10;}
	.st9{fill:#7595B4;stroke:#7595B4;stroke-width:3.4008;stroke-miterlimit:10;}
	.st10{fill:none;stroke:#7595B4;stroke-width:4;stroke-miterlimit:10;}
</style>
<circle class="st0" cx="1440.5" cy="215.5" r="72"/>
<circle class="st1" cx="184.9" cy="212.7" r="72"/>
<rect x="135.4" y="200.4" class="st2" width="99" height="51.9"/>
<text transform="matrix(1 0 0 1 136.5578 211.5075)"><tspan x="0" y="0" class="st3 st4 st5">Click on link </tspan><tspan x="0.5" y="18" class="st3 st4 st5">to Payscape </tspan></text>
<path class="st0" d="M577.7,284.7h-161c-10.2,0-18.5-8.3-18.5-18.5v-107c0-10.2,8.3-18.5,18.5-18.5h161c10.2,0,18.5,8.3,18.5,18.5
	v107C596.3,276.4,588,284.7,577.7,284.7z"/>
<text transform="matrix(1 0 0 1 454.5871 219.9928)" class="st1 st4 st5">Login Page</text>
<circle class="st0" cx="809.6" cy="212.7" r="72"/>
<rect x="760" y="199.1" class="st2" width="99.1" height="37.9"/>
<text transform="matrix(1 0 0 1 764.4565 210.1952)"><tspan x="0" y="0" class="st1 st4 st5">User enters </tspan><tspan x="7.9" y="18" class="st1 st4 st5">login info</tspan></text>
<path class="st0" d="M1203.4,284.5h-161c-10.2,0-18.5-8.3-18.5-18.5V159c0-10.2,8.3-18.5,18.5-18.5h161c10.2,0,18.5,8.3,18.5,18.5
	v107C1221.9,276.2,1213.6,284.5,1203.4,284.5z"/>
<text transform="matrix(1 0 0 1 1087.6804 209.4858)"><tspan x="0" y="0" class="st1 st4 st5">Account </tspan><tspan x="-8.7" y="18" class="st1 st4 st5">View Page </tspan></text>
<text transform="matrix(1 0 0 1 1389.9526 205.4984)"><tspan x="0" y="0" class="st1 st4 st5">User chooses</tspan><tspan x="5.9" y="18" class="st1 st4 st5">create new </tspan><tspan x="10.8" y="36" class="st1 st4 st5">account(s)</tspan></text>
<path class="st0" d="M1857.5,285h-161c-10.2,0-18.5-8.3-18.5-18.5v-107c0-10.2,8.3-18.5,18.5-18.5h161c10.2,0,18.5,8.3,18.5,18.5
	v107C1876,276.7,1867.7,285,1857.5,285z"/>
<text transform="matrix(1 0 0 1 1723.9633 209.4857)"><tspan x="0" y="0" class="st1 st4 st5">New Account</tspan><tspan x="7.7" y="18" class="st1 st4 st5">Setup Page</tspan></text>
<circle class="st0" cx="2102.5" cy="212" r="72"/>
<rect x="2058.2" y="197.8" class="st2" width="88.7" height="57"/>
<text transform="matrix(1 0 0 1 2060.4233 208.1767)"><tspan x="0" y="0" class="st1 st4 st6">User enters </tspan><tspan x="12.2" y="16.8" class="st1 st4 st6">account </tspan><tspan x="27.9" y="33.6" class="st1 st4 st6">info</tspan></text>
<g>
	<circle class="st7" cx="271.8" cy="215.9" r="7.2"/>
	<g>
		<rect x="279" y="198" class="st2" width="103.2" height="35.9"/>
		<g>
			<polygon class="st8" points="382.2,215.9 358.8,233.8 350.6,233.8 371.9,217.5 279,217.5 279,214.3 371.9,214.3 350.6,198 
				358.8,198 			"/>
		</g>
	</g>
</g>
<g>
	<circle class="st7" cx="612.8" cy="215.7" r="7.2"/>
	<g>
		<rect x="619.9" y="197.8" class="st2" width="103.2" height="35.9"/>
		<g>
			<polygon class="st8" points="723.2,215.7 699.8,233.6 691.5,233.6 712.8,217.3 619.9,217.3 619.9,214.1 712.8,214.1 691.5,197.8 
				699.8,197.8 			"/>
		</g>
	</g>
</g>
<g>
	<circle class="st7" cx="901.1" cy="212.7" r="7.2"/>
	<g>
		<rect x="908.3" y="194.7" class="st2" width="103.2" height="35.9"/>
		<g>
			<polygon class="st8" points="1011.5,212.7 988.1,230.6 979.9,230.6 1001.2,214.3 908.3,214.3 908.3,211.1 1001.2,211.1 
				979.9,194.7 988.1,194.7 			"/>
		</g>
	</g>
</g>
<g>
	<circle class="st7" cx="1237.8" cy="214.7" r="7.2"/>
	<g>
		<rect x="1245" y="196.8" class="st2" width="103.2" height="35.9"/>
		<g>
			<polygon class="st9" points="1348.2,214.7 1324.8,232.6 1316.5,232.6 1337.8,216.3 1245,216.3 1245,213.1 1337.8,213.1 
				1316.5,196.8 1324.8,196.8 			"/>
		</g>
	</g>
</g>
<g>
	<circle class="st7" cx="1547.9" cy="214.7" r="7.2"/>
	<g>
		<rect x="1555.1" y="196.8" class="st2" width="103.2" height="35.9"/>
		<g>
			<polygon class="st9" points="1658.3,214.7 1634.9,232.6 1626.6,232.6 1647.9,216.3 1555.1,216.3 1555.1,213.1 1647.9,213.1 
				1626.6,196.8 1634.9,196.8 			"/>
		</g>
	</g>
</g>
<g>
	<circle class="st7" cx="1896.1" cy="214.7" r="7.2"/>
	<g>
		<rect x="1903.3" y="196.8" class="st2" width="103.2" height="35.9"/>
		<g>
			<polygon class="st9" points="2006.5,214.7 1983.1,232.6 1974.8,232.6 1996.1,216.3 1903.3,216.3 1903.3,213.1 1996.1,213.1 
				1974.8,196.8 1983.1,196.8 			"/>
		</g>
	</g>
</g>
</svg>
