<?xml version="1.0" encoding="utf-8"?>
<!-- Generator: Adobe Illustrator 24.1.0, SVG Export Plug-In . SVG Version: 6.00 Build 0)  -->
<svg version="1.1" id="Layer_1" xmlns="http://www.w3.org/2000/svg" xmlns:xlink="http://www.w3.org/1999/xlink" x="0px" y="0px"
	 viewBox="0 0 1954.9 720" style="enable-background:new 0 0 1954.9 720;" xml:space="preserve">
<style type="text/css">
	.st0{opacity:0.25;fill:#7595B4;}
	.st1{fill:#7595B4;}
	.st2{fill:none;stroke:#7595B4;stroke-width:5;stroke-miterlimit:10;}
	.st3{fill:none;}
	.st4{fill:#7595B4;stroke:#7595B4;stroke-width:2;stroke-miterlimit:10;}
	.st5{fill:#7595B4;stroke:#7595B4;stroke-width:3.4008;stroke-miterlimit:10;}
	.st6{fill:#FFFFFF;}
	.st7{font-family:'Montserrat-Bold';}
	.st8{font-size:15px;}
	.st9{font-size:14px;}
	.st10{font-size:13.5px;}
	.st11{fill:none;stroke:#7595B4;stroke-width:4;stroke-miterlimit:10;}
</style>
<circle class="st0" cx="1446.3" cy="216" r="72"/>
<circle class="st1" cx="184.4" cy="212.7" r="72"/>
<rect x="134.9" y="200.4" class="st3" width="99" height="51.9"/>
<text transform="matrix(1 0 0 1 136.0284 211.5075)"><tspan x="0" y="0" class="st6 st7 st8">Click on link </tspan><tspan x="0.5" y="18" class="st6 st7 st8">to Payscape </tspan></text>
<path class="st0" d="M576.2,284.7h-161c-10.2,0-18.5-8.3-18.5-18.5v-107c0-10.2,8.3-18.5,18.5-18.5h161c10.2,0,18.5,8.3,18.5,18.5
	v107C594.7,276.4,586.4,284.7,576.2,284.7z"/>
<text transform="matrix(1 0 0 1 453.0564 219.9929)" class="st1 st7 st8">Login Page</text>
<circle class="st0" cx="811" cy="212.7" r="72"/>
<rect x="761.5" y="199.1" class="st3" width="99.1" height="37.9"/>
<text transform="matrix(1 0 0 1 765.9283 210.1953)"><tspan x="0" y="0" class="st1 st7 st8">User enters </tspan><tspan x="7.9" y="18" class="st1 st7 st8">login info</tspan></text>
<path class="st0" d="M1208.9,284.5h-161c-10.2,0-18.5-8.3-18.5-18.5V159c0-10.2,8.3-18.5,18.5-18.5h161c10.2,0,18.5,8.3,18.5,18.5
	v107C1227.4,276.2,1219.1,284.5,1208.9,284.5z"/>
<text transform="matrix(1 0 0 1 1096.1589 209.4859)"><tspan x="0" y="0" class="st1 st7 st8">Account </tspan><tspan x="-8.7" y="18" class="st1 st7 st8">View Page </tspan></text>
<text transform="matrix(1 0 0 1 1390.3267 208.5007)"><tspan x="0" y="0" class="st1 st7 st8">Users chooses </tspan><tspan x="12" y="18" class="st1 st7 st8">create new </tspan><tspan x="16.9" y="36" class="st1 st7 st8">account(s)</tspan></text>
<path class="st0" d="M1849,285h-161c-10.2,0-18.5-8.3-18.5-18.5v-107c0-10.2,8.3-18.5,18.5-18.5h161c10.2,0,18.5,8.3,18.5,18.5v107
	C1867.5,276.7,1859.2,285,1849,285z"/>
<text transform="matrix(1 0 0 1 1718.4226 209.4858)"><tspan x="0" y="0" class="st1 st7 st8">New Account</tspan><tspan x="-25.5" y="18" class="st1 st7 st8">Setup Page Options</tspan></text>
<circle class="st2" cx="271.3" cy="215.9" r="7.2"/>
<g>
	<rect x="278.5" y="198" class="st3" width="103.2" height="35.9"/>
	<g>
		<polygon class="st4" points="381.7,215.9 358.3,233.8 350,233.8 371.3,217.5 278.5,217.5 278.5,214.3 371.3,214.3 350,198 
			358.3,198 		"/>
	</g>
</g>
<g>
	<circle class="st2" cx="613.2" cy="215.7" r="7.2"/>
	<g>
		<rect x="620.4" y="197.8" class="st3" width="103.2" height="35.9"/>
		<g>
			<polygon class="st4" points="723.6,215.7 700.2,233.6 692,233.6 713.3,217.3 620.4,217.3 620.4,214.1 713.3,214.1 692,197.8 
				700.2,197.8 			"/>
		</g>
	</g>
</g>
<g>
	<circle class="st2" cx="902.6" cy="215.7" r="7.2"/>
	<g>
		<rect x="909.8" y="197.7" class="st3" width="103.2" height="35.9"/>
		<g>
			<polygon class="st4" points="1013,215.7 989.6,233.6 981.3,233.6 1002.6,217.3 909.8,217.3 909.8,214.1 1002.6,214.1 
				981.3,197.7 989.6,197.7 			"/>
		</g>
	</g>
</g>
<g>
	<circle class="st2" cx="1243.3" cy="215.7" r="7.2"/>
	<g>
		<rect x="1250.4" y="197.8" class="st3" width="103.2" height="35.9"/>
		<g>
			<polygon class="st5" points="1353.6,215.7 1330.3,233.6 1322,233.6 1343.3,217.3 1250.4,217.3 1250.4,214.1 1343.3,214.1 
				1322,197.8 1330.3,197.8 			"/>
		</g>
	</g>
</g>
<g>
	<circle class="st2" cx="1537.4" cy="215.7" r="7.2"/>
	<g>
		<rect x="1544.5" y="197.8" class="st3" width="103.2" height="35.9"/>
		<g>
			<polygon class="st5" points="1647.7,215.7 1624.4,233.6 1616.1,233.6 1637.4,217.3 1544.5,217.3 1544.5,214.1 1637.4,214.1 
				1616.1,197.8 1624.4,197.8 			"/>
		</g>
	</g>
</g>
<g>
	<circle class="st2" cx="1772.5" cy="303.9" r="7.2"/>
	<g>
		<rect x="1754.5" y="311.1" class="st3" width="35.9" height="103.2"/>
		<g>
			<polygon class="st5" points="1772.5,414.3 1754.5,390.9 1754.5,382.7 1770.9,404 1770.9,311.1 1774,311.1 1774,404 1790.4,382.7 
				1790.4,390.9 			"/>
		</g>
	</g>
</g>
<circle class="st0" cx="1769" cy="506.5" r="72"/>
<rect x="1711" y="485.7" class="st3" width="121.9" height="48.2"/>
<text transform="matrix(1 0 0 1 1722.8114 496.0521)"><tspan x="0" y="0" class="st1 st7 st9">User enters # </tspan><tspan x="6.3" y="16.8" class="st1 st7 st9">of accounts </tspan><tspan x="-2.1" y="33.6" class="st1 st7 st9">being created</tspan></text>
<circle class="st0" cx="1448.8" cy="505.6" r="72"/>
<rect x="1383.1" y="480.6" class="st3" width="132.4" height="66.6"/>
<text transform="matrix(1 0 0 1 1399.7836 490.5747)"><tspan x="0" y="0" class="st1 st7 st10">User specifies </tspan><tspan x="-11.5" y="16.2" class="st1 st7 st10">type of  accounts </tspan><tspan x="0.1" y="32.4" class="st1 st7 st10">being created</tspan></text>
<g>
	<path class="st11" d="M570.5,579.4h-161c-10.2,0-18.5-8.3-18.5-18.5v-107c0-10.2,8.3-18.5,18.5-18.5h161c10.2,0,18.5,8.3,18.5,18.5
		v107C589,571.1,580.7,579.4,570.5,579.4z"/>
	<path class="st0" d="M570.5,579.4h-161c-10.2,0-18.5-8.3-18.5-18.5v-107c0-10.2,8.3-18.5,18.5-18.5h161c10.2,0,18.5,8.3,18.5,18.5
		v107C589,571.1,580.7,579.4,570.5,579.4z"/>
</g>
<text transform="matrix(1 0 0 1 434.3521 502.0886)"><tspan x="0" y="0" class="st1 st7 st8">New Account </tspan><tspan x="9.9" y="18" class="st1 st7 st8">Setup Page</tspan></text>
<circle class="st0" cx="182.2" cy="503.8" r="72"/>
<rect x="116.9" y="489.8" class="st3" width="132.4" height="33.3"/>
<text transform="matrix(1 0 0 1 142.4465 499.8188)"><tspan x="0" y="0" class="st1 st7 st10">User enters </tspan><tspan x="-3.8" y="16.2" class="st1 st7 st10">account info  </tspan></text>
<circle class="st11" cx="183.1" cy="502.7" r="72"/>
<circle class="st11" cx="1448.3" cy="503.6" r="72"/>
<circle class="st11" cx="1770.5" cy="506.7" r="72"/>
<path class="st11" d="M1852,285l-161,0c-10.2,0-18.5-8.3-18.5-18.5l0-107c0-10.2,8.3-18.5,18.5-18.5l161,0
	c10.2,0,18.5,8.3,18.5,18.5l0,107C1870.5,276.7,1862.2,285,1852,285z"/>
<g>
	<circle class="st2" cx="1647.7" cy="506.7" r="7.2"/>
	<g>
		<rect x="1537.4" y="488.8" class="st3" width="103.2" height="35.9"/>
		<g>
			<polygon class="st5" points="1537.4,506.8 1560.7,524.7 1569,524.7 1547.7,508.3 1640.6,508.3 1640.6,505.2 1547.7,505.2 
				1569,488.8 1560.7,488.8 			"/>
		</g>
	</g>
</g>
<g>
	<circle class="st2" cx="1351.6" cy="507.8" r="7.2"/>
	<g>
		<rect x="1241.2" y="489.8" class="st3" width="103.2" height="35.9"/>
		<g>
			<polygon class="st5" points="1241.2,507.8 1264.6,525.7 1272.9,525.7 1251.5,509.3 1344.4,509.3 1344.4,506.2 1251.5,506.2 
				1272.9,489.8 1264.6,489.8 			"/>
		</g>
	</g>
</g>
<path class="st0" d="M1203.1,577.8l-161,0c-10.2,0-18.5-8.3-18.5-18.5l0-107c0-10.2,8.3-18.5,18.5-18.5l161,0
	c10.2,0,18.5,8.3,18.5,18.5l0,107C1221.6,569.5,1213.3,577.8,1203.1,577.8z"/>
<path class="st11" d="M1203.1,577.8l-161,0c-10.2,0-18.5-8.3-18.5-18.5l0-107c0-10.2,8.3-18.5,18.5-18.5l161,0
	c10.2,0,18.5,8.3,18.5,18.5l0,107C1221.6,569.5,1213.3,577.8,1203.1,577.8z"/>
<text transform="matrix(1 0 0 1 1057.5134 500.764)"><tspan x="0" y="0" class="st1 st7 st8">Dashboard with </tspan><tspan x="7.9" y="18" class="st1 st7 st8">new accounts </tspan></text>
<circle class="st0" cx="811.5" cy="500.6" r="72"/>
<rect x="746.2" y="486.7" class="st3" width="132.4" height="33.3"/>
<text transform="matrix(1 0 0 1 748.0505 496.6792)"><tspan x="0" y="0" class="st1 st7 st10">User clicks on one </tspan><tspan x="5.8" y="16.2" class="st1 st7 st10">of new accounts </tspan></text>
<circle class="st11" cx="810.6" cy="501" r="72"/>
<g>
	<circle class="st2" cx="1005.2" cy="507.8" r="7.2"/>
	<g>
		<rect x="894.8" y="489.8" class="st3" width="103.2" height="35.9"/>
		<g>
			<polygon class="st5" points="894.8,507.8 918.2,525.7 926.4,525.7 905.1,509.3 998,509.3 998,506.2 905.1,506.2 926.4,489.8 
				918.2,489.8 			"/>
		</g>
	</g>
</g>
<g>
	<circle class="st2" cx="719.2" cy="507.8" r="7.2"/>
	<g>
		<rect x="608.8" y="489.8" class="st3" width="103.2" height="35.9"/>
		<g>
			<polygon class="st5" points="608.8,507.8 632.2,525.7 640.5,525.7 619.2,509.3 712,509.3 712,506.2 619.2,506.2 640.5,489.8 
				632.2,489.8 			"/>
		</g>
	</g>
</g>
<g>
	<circle class="st2" cx="374.6" cy="507.4" r="7.2"/>
	<g>
		<rect x="264.3" y="489.5" class="st3" width="103.2" height="35.9"/>
		<g>
			<polygon class="st5" points="264.3,507.4 287.6,525.4 295.9,525.4 274.6,509 367.5,509 367.5,505.8 274.6,505.8 295.9,489.5 
				287.6,489.5 			"/>
		</g>
	</g>
</g>
</svg>
