<?xml version="1.0" encoding="utf-8"?>
<!-- Generator: Adobe Illustrator 24.1.0, SVG Export Plug-In . SVG Version: 6.00 Build 0)  -->
<svg version="1.1" id="Layer_1" xmlns="http://www.w3.org/2000/svg" xmlns:xlink="http://www.w3.org/1999/xlink" x="0px" y="0px"
	 viewBox="0 0 435.3 429.8" style="enable-background:new 0 0 435.3 429.8;" xml:space="preserve">
<style type="text/css">
	.st0{fill:#00A651;}
	.st1{fill:#ED1C24;}
</style>
<g>
	<path class="st0" d="M84.7,204.7c6.9-6.2,17.8-5.6,25.3,0c1.7,1.3,3.3,2.8,4.8,4.4c35.8,35.9,21.6,21.7,57.4,57.6
		c1,1,2,1.9,3.9,3.7c1-1.4,1.6-2.9,2.7-3.9c58.5-58.6,117-117.2,175.5-175.9c6.7-6.8,14.3-9.7,23.6-7c7.8,2.3,24.8,19.7,27,27.6
		c1.9,6.7,0.6,12.9-3.4,18.5c-1,1.4-2.3,2.8-3.5,4C329.5,202.3,261,270.8,192.6,339.5c-6.9,6.9-14.8,9.6-24,6.7
		c-3.6-1.2-7.1-3.6-9.8-6.3c-13.7-13.4-27.2-27.1-40.8-40.7c-30.8-30.8-11.4-11.6-42.2-42.3l-11.1-11.1c0,0-14-9,7.1-29"/>
</g>
</svg>
