<?xml version="1.0" encoding="utf-8"?>
<!-- Generator: Adobe Illustrator 24.1.0, SVG Export Plug-In . SVG Version: 6.00 Build 0)  -->
<svg version="1.1" id="Layer_1" xmlns="http://www.w3.org/2000/svg" xmlns:xlink="http://www.w3.org/1999/xlink" x="0px" y="0px"
	 viewBox="0 0 597.6 633.6" style="enable-background:new 0 0 597.6 633.6;" xml:space="preserve">
<style type="text/css">
	.st0{fill:#F0A160;}
	.st1{fill:#F0A160;stroke:#F0A160;stroke-width:3.3187;stroke-miterlimit:10;}
	.st2{fill:#F0A160;stroke:#F0A160;stroke-width:3.6779;stroke-miterlimit:10;}
	.st3{fill:#F0A160;stroke:#F0A160;stroke-width:2;stroke-miterlimit:10;}
</style>
<g>
	<path class="st3" d="M495.9,150c-2.7,2.9-5.2,5.9-8,8.7c-59.5,59.5-119,119-178.5,178.5c-1.3,1.3-2.7,2.7-4.3,3.8
		c-3.5,2.5-7.2,2.4-10.6-0.1c-1.1-0.8-2.1-1.8-3.1-2.8c-61-60.9-121.9-121.9-182.8-182.8c-2.4-2.4-4.7-4.6-4.7-8.4
		c0-3.4,1.3-5.9,4.2-7.7c2.9-1.8,6-1.9,9-0.2c1.8,1,3.2,2.6,4.6,4c58.3,58.3,116.7,116.6,174.9,175.1c2.7,2.7,4,2.5,6.5-0.1
		c57.7-57.9,115.5-115.6,173.3-173.4c1-1,2-2,3-3c6.3-6,11.4-5.5,16.5,1.5C495.9,145.4,495.9,147.7,495.9,150z"/>
	<path class="st3" d="M495.9,303c-1.7,1.9-3.2,4-5,5.8c-60.7,60.7-121.4,121.4-182.1,182.1c-1.2,1.2-2.3,2.4-3.6,3.4
		c-3.2,2.4-6.6,2.6-10,0.4c-1.7-1.1-3.2-2.5-4.7-3.9c-60.6-60.6-121.2-121.2-181.8-181.8c-2.5-2.5-5-5.1-4.9-9.1
		c0.1-6.8,7.2-10.9,13.1-7.6c1.9,1.1,3.4,2.7,4.9,4.2c58,58,116,116,174,173.9c4.6,4.6,3.5,4.6,8.1,0.1
		c58.2-58.2,116.3-116.3,174.5-174.5c2-2,3.8-4.1,6.8-4.7c5.1-1,8.2,1.6,10.7,5.6C495.9,298.9,495.9,301,495.9,303z"/>
</g>
</svg>
