<svg id="Capa_1" enable-background="new 0 0 511.262 511.262" height="512" viewBox="0 0 511.262 511.262" width="512" xmlns="http://www.w3.org/2000/svg"><g><path d="m496.699 59.229c8.03 0 14.563-6.533 14.563-14.563v-30.08c0-8.03-6.533-14.563-14.563-14.563h-30.08c-8.03 0-14.563 6.532-14.563 14.563v7.54h-167.34c-3.33-12.703-14.906-22.103-28.638-22.103s-25.309 9.4-28.638 22.103h-51.09c-4.142 0-7.5 3.357-7.5 7.5s3.358 7.5 7.5 7.5h51.09c3.329 12.703 14.905 22.104 28.638 22.104s25.309-9.4 28.638-22.104h167.34v7.54c0 8.03 6.533 14.563 14.563 14.563h7.54v168.142c-12.954 3.154-22.602 14.849-22.602 28.76s9.648 25.605 22.602 28.76v167.142h-7.54c-8.03 0-14.563 6.533-14.563 14.563v8.54h-26.805c-4.142 0-7.5 3.357-7.5 7.5s3.358 7.5 7.5 7.5h26.805v6.54c0 8.03 6.533 14.563 14.563 14.563h30.08c8.03 0 14.563-6.532 14.563-14.563v-30.08c0-8.03-6.533-14.563-14.563-14.563h-7.54v-167.406c12.448-3.5 21.604-14.945 21.604-28.497s-9.156-24.997-21.604-28.497v-168.404zm-240.621-15c-8.052 0-14.603-6.551-14.603-14.604 0-8.052 6.551-14.603 14.603-14.603s14.603 6.551 14.603 14.603c0 8.054-6.551 14.604-14.603 14.604zm240.184 452.009h-29.206v-29.206h29.206zm-.499-240.107c0 8.053-6.551 14.604-14.603 14.604s-14.603-6.551-14.603-14.604 6.551-14.604 14.603-14.604 14.603 6.551 14.603 14.604zm-28.707-241.108h29.206v29.206h-29.206z"/><path d="m393.289 475.136h-107.608v-8.54c0-8.03-6.533-14.563-14.563-14.563h-7.121v-16.911c0-4.143-3.358-7.5-7.5-7.5s-7.5 3.357-7.5 7.5v16.911h-7.959c-8.03 0-14.563 6.533-14.563 14.563v8.54h-167.268v-8.54c0-8.03-6.533-14.563-14.563-14.563h-7.54v-166.299h8.145c7.697 0 13.958-6.262 13.958-13.959v-9.145h17.462c4.142 0 7.5-3.357 7.5-7.5s-3.358-7.5-7.5-7.5h-17.462v-7.145c0-7.697-6.262-13.959-13.958-13.959h-8.145v-167.297h7.54c8.03 0 14.563-6.533 14.563-14.563v-7.54h85.181c4.142 0 7.5-3.357 7.5-7.5s-3.358-7.5-7.5-7.5h-85.181v-7.54c0-8.03-6.533-14.563-14.563-14.563h-30.08c-8.031 0-14.564 6.533-14.564 14.563v30.08c0 8.03 6.533 14.563 14.563 14.563h7.54v167.298h-8.145c-7.696 0-13.958 6.262-13.958 13.959v31.289c0 7.697 6.262 13.959 13.958 13.959h8.145v166.298h-7.54c-8.03 0-14.563 6.533-14.563 14.564v30.08c0 8.03 6.533 14.563 14.563 14.563h30.08c8.03 0 14.563-6.532 14.563-14.563v-6.54h167.268v6.54c0 8.03 6.533 14.563 14.563 14.563h30.08c8.03 0 14.563-6.532 14.563-14.563v-6.54h107.608c4.142 0 7.5-3.357 7.5-7.5s-3.357-7.5-7.499-7.5zm-378.289-460.113h29.207v29.206h-29.207zm0 226.504h29.207v29.207h-29.207zm29.207 254.711h-29.207v-29.206h29.207zm226.474 0h-29.206v-29.206h29.206z"/><path d="m167.163 263.116h18.81c4.142 0 7.5-3.357 7.5-7.5s-3.358-7.5-7.5-7.5h-18.81c-4.142 0-7.5 3.357-7.5 7.5s3.358 7.5 7.5 7.5z"/><path d="m107.19 248.423c-4.142 0-7.5 3.357-7.5 7.5s3.358 7.5 7.5 7.5h18.81c4.142 0 7.5-3.357 7.5-7.5s-3.358-7.5-7.5-7.5z"/><path d="m256.981 353.127c4.142 0 7.5-3.357 7.5-7.5v-18.81c0-4.143-3.358-7.5-7.5-7.5s-7.5 3.357-7.5 7.5v18.81c0 4.143 3.358 7.5 7.5 7.5z"/><path d="m257.288 413.1c4.142 0 7.5-3.357 7.5-7.5v-18.81c0-4.143-3.358-7.5-7.5-7.5s-7.5 3.357-7.5 7.5v18.81c0 4.142 3.358 7.5 7.5 7.5z"/><path d="m182.151 310.415c.428-4.12-2.564-7.808-6.684-8.236-4.119-.425-7.808 2.563-8.236 6.684l-3.24 31.143c-.234 2.248.559 4.481 2.157 6.08 1.414 1.413 3.325 2.196 5.303 2.196.258 0 .517-.014.776-.04l29.815-3.102c4.12-.429 7.112-4.116 6.684-8.236-.429-4.119-4.121-7.104-8.236-6.684l-8.49.883 46.185-46.185c1.044.25 2.128.397 3.248.397h8.145v11.31c0 4.143 3.358 7.5 7.5 7.5s7.5-3.357 7.5-7.5v-11.31h8.145c7.696 0 13.958-6.262 13.958-13.959v-31.289c0-1.12-.147-2.204-.397-3.248l45.224-45.223-.883 8.488c-.429 4.12 2.564 7.808 6.684 8.236.264.027.526.041.786.041 3.793-.001 7.049-2.869 7.451-6.725l3.102-29.815c.234-2.248-.558-4.481-2.156-6.08-1.598-1.598-3.834-2.386-6.08-2.156l-31.143 3.241c-4.12.429-7.112 4.116-6.683 8.236.428 4.12 4.122 7.106 8.236 6.684l10.406-1.083-45.728 45.726c-.898-.182-1.827-.279-2.777-.279h-31.29c-7.696 0-13.958 6.262-13.958 13.958v8.145h-11.31c-4.142 0-7.5 3.357-7.5 7.5s3.358 7.5 7.5 7.5h11.31v8.145c0 .951.097 1.88.279 2.779l-46.686 46.686zm60.324-69.306h29.206v29.206h-29.206z"/></g></svg>