<?xml version="1.0" encoding="utf-8"?>
<!-- Generator: Adobe Illustrator 24.1.0, SVG Export Plug-In . SVG Version: 6.00 Build 0)  -->
<svg version="1.1" xmlns="http://www.w3.org/2000/svg" xmlns:xlink="http://www.w3.org/1999/xlink" x="0px" y="0px"
	 viewBox="0 0 1400 1024" style="enable-background:new 0 0 1400 1024;" xml:space="preserve">
<style type="text/css">
	.st0{fill:#FFFFFF;}
	.st1{fill:#6D95B7;}
	.st2{fill:none;stroke:#000000;stroke-width:0.5;stroke-miterlimit:10;}
	.st3{fill:none;stroke:#6E96B7;stroke-width:6.5211;stroke-miterlimit:10;}
	.st4{fill:#FFFFFF;stroke:#6E96B7;stroke-width:6.5211;stroke-miterlimit:10;}
	.st5{fill:none;stroke:#6E96B7;stroke-width:6.5211;stroke-linecap:round;stroke-miterlimit:10;}
</style>
<g id="Payscape">
</g>
<g id="Helpbot">
	<rect class="st0" width="1400" height="1024"/>
	<g>
		<path class="st0" d="M677.7,783.7c58,0,115.9,0,173.9,0c8.6,0,13.5-3.6,13.8-10c0.4-6.7-4.7-10.8-13.7-11.1c-1.1,0-2.2,0-3.3,0
			c-113.7,0-227.3,0-341,0c-3,0-6.9-0.7-9,0.8c-3.3,2.6-7.6,6.8-7.5,10.1c0.1,3.4,4.7,7.2,8.2,9.8c1.8,1.4,5.4,0.4,8.2,0.4
			C564,783.7,620.9,783.7,677.7,783.7z M677.9,868.8c-52.9,0-105.9,0-158.8,0c-5.9,0-11.7,0-17.6,0c-6.5,0.1-10.8,3.5-11.2,10
			c-0.4,7.1,4,10.6,10.8,11.3c1.7,0.2,3.3,0.1,5,0.1c114.2,0,228.5,0,342.7,0c2.8,0,6.4,0.6,8.1-0.8c3.3-2.7,8.1-7,7.7-10.1
			c-0.5-3.7-5.2-7.4-8.9-10.1c-1.9-1.3-5.4-0.4-8.2-0.4C791.1,868.8,734.5,868.8,677.9,868.8z M677.7,837c58,0,115.9,0,173.9,0
			c8.7,0,14.1-4.4,13.8-11c-0.2-6.3-5.3-10.2-13.6-10.4c-1.1,0-2.2,0-3.3,0c-113.7,0-227.4,0-341.1,0c-3,0-6.9-0.7-8.9,0.8
			c-3.4,2.6-7.4,6.7-7.6,10.3c-0.2,3.1,4.1,7.2,7.4,9.6c2.1,1.5,5.9,0.7,9,0.8C564,837,620.8,837,677.7,837z"/>
		<path class="st1" d="M1225.5,336.9c-0.8,2-1.7,4-2.4,6.1c-6.8,19-22.6,29.7-44.7,29.7c-60.5,0.1-121,0-181.5,0
			c-3.3,0-6.5,0-10.5,0c0,4.4,0,7.7,0,11c0,88.9,0,177.9,0,266.8c0,43-26.3,69.3-69.3,69.3c-159.5,0-318.9,0-478.4,0
			c-43.4,0-69.7-26.4-69.7-69.8c0-85,0-170.1,0-255.1c0-42.8,26.5-69.1,69.5-69.2c33.5,0,66.9,0,100.4,0c3,0,6.1,0,10.4,0
			c0-12.3,0.7-23.9-0.1-35.5c-1.8-25.7,15.4-36.4,35.6-35.5c23.9,1,47.9,0.2,71.9,0.2c3,0,6,0,9.8,0c0-10,0.4-19.2-0.3-28.3
			c-0.2-2.1-4-4.5-6.6-5.6c-18.3-8-29.2-25.2-28.3-45.1c0.9-19.3,13.8-35.9,32.2-41.5c23.2-7.1,48.1,5.1,56.6,27.7
			c8.6,23.1-2.1,49-25,58.3c-6,2.5-8,5.3-7.6,11.5c0.5,7.4,0.1,14.9,0.1,23.1c21.6,0,42.2,0,62.8,0c8.6,0,17.3-0.1,25.9,0
			c18.2,0.3,29.6,11.5,30,29.8c0.3,13.3,0,26.6,0,40.4c7.6,0,14.2,0,21.8,0c0-3.7,0-6.9,0-10.2c0-49.3,0-98.7,0-148
			c0-33.2,17.4-50.7,50.4-50.7c97.6,0,195.1,0,292.7,0c31.7,0,42.4,7.2,54.3,36.5C1225.5,214.2,1225.5,275.5,1225.5,336.9z
			 M881.8,373.3c-4.7-0.3-8.6-0.6-12.4-0.8c-14.7-0.9-26.2-7.6-33.9-20c-2.8-4.4-5.7-5.7-10.7-5.7c-129.6,0.1-259.3,0.1-388.9,0.1
			c-27.9,0-45.4,17.6-45.5,45.5c-0.1,87-0.1,174,0,261c0,27.6,17.5,44.9,44.9,44.9c161.7,0,323.4,0,485.1,0c3.9,0,7.9-0.1,11.6-1
			c20.1-4.6,32.9-20.8,33-42.6c0.2-85.3,0.1-170.6,0.1-255.9c0-1.8-0.4-3.6-0.7-6.6c-2.9,2.4-5,4.1-7,5.9
			c-18.8,16.7-37.3,33.5-56.4,49.8c-3,2.6-9.2,4.3-12.5,2.9c-3.2-1.4-5.7-7-6.5-11.1c-1.1-5.6-0.3-11.7-0.3-17.5
			C881.8,406,881.8,389.9,881.8,373.3z M902.9,417.6c3.4-2.8,5.6-4.3,7.6-6.1c15.6-13.9,32.2-26.9,46.6-41.9
			c13.4-14,28-18.6,47.3-18.2c57.7,1.2,115.3,0.5,173,0.4c17.1,0,26.7-8.4,26.8-24c0.2-55.4,0.2-110.9,0-166.3
			c0-14.4-9.3-23.5-23.7-23.5c-102.3-0.1-204.5-0.1-306.8,0c-14.3,0-24.1,9.2-24.2,23.3c-0.3,55.7-0.2,111.5,0,167.2
			c0.1,13.7,9.5,22.7,23.3,23.4c4.7,0.2,9.5,0.1,14.2,0.1c13.5,0,15.9,2.4,15.9,16.1C902.9,383.9,902.9,399.9,902.9,417.6z
			 M785.3,325.3c0-12.5,0-23.9,0-35.3c0-12.4-1-13.5-13.2-13.5c-63,0-125.9,0-188.9,0c-1.9,0-4.3-0.6-5.8,0.2
			c-2.6,1.5-6.5,3.8-6.6,6c-0.6,14.1-0.3,28.2-0.3,42.6C642.4,325.3,713.3,325.3,785.3,325.3z M676.7,203.1
			c13.7,0.2,25.2-11.1,25.1-24.7c0-13.3-11.1-24.4-24.5-24.6c-13.7-0.2-25.3,11.2-25.2,24.7C652.2,191.7,663.4,202.9,676.7,203.1z"
			/>
		<path class="st1" d="M677.7,783.7c-56.8,0-113.7,0-170.5,0c-2.8,0-6.3,0.9-8.2-0.4c-3.4-2.5-8-6.3-8.2-9.8
			c-0.1-3.4,4.2-7.6,7.5-10.1c2-1.5,5.9-0.8,9-0.8c113.7,0,227.3,0,341,0c1.1,0,2.2,0,3.3,0c9,0.3,14,4.4,13.7,11.1
			c-0.3,6.4-5.1,10-13.8,10C793.6,783.8,735.6,783.7,677.7,783.7z"/>
		<path class="st1" d="M677.9,868.8c56.6,0,113.1,0,169.7,0c2.8,0,6.3-1,8.2,0.4c3.7,2.6,8.4,6.3,8.9,10.1c0.4,3.1-4.3,7.4-7.7,10.1
			c-1.8,1.4-5.4,0.8-8.1,0.8c-114.2,0-228.5,0-342.7,0c-1.7,0-3.4,0.1-5-0.1c-6.8-0.7-11.2-4.2-10.8-11.3c0.4-6.5,4.6-9.9,11.2-10
			c5.9-0.1,11.7,0,17.6,0C572.1,868.8,625,868.8,677.9,868.8z"/>
		<path class="st1" d="M677.7,837c-56.8,0-113.7,0-170.5,0c-3,0-6.9,0.8-9-0.8c-3.3-2.3-7.5-6.4-7.4-9.6c0.2-3.6,4.2-7.7,7.6-10.3
			c2-1.5,5.9-0.8,8.9-0.8c113.7,0,227.4,0,341.1,0c1.1,0,2.2,0,3.3,0c8.4,0.2,13.4,4.1,13.6,10.4c0.2,6.6-5.1,11-13.8,11
			C793.6,837,735.6,837,677.7,837z"/>
		<path class="st0" d="M953.9,213c22,0,44,0.1,66,0c8.9,0,13.3-3.5,13.5-10.2c0.3-7.1-4.4-11.1-13.5-11.1c-44-0.1-88-0.1-132,0
			c-9.3,0-13.9,3.7-13.9,10.7c0,7,4.6,10.6,13.9,10.7C909.9,213.1,931.9,213,953.9,213z M944.6,305c-18.9,0-37.8,0-56.8,0
			c-9.3,0-13.9,3.7-13.8,10.7c0.1,6.9,4.7,10.6,14,10.6c37.6,0.1,75.1,0.1,112.7,0c8.9,0,14-4.2,14-10.9c-0.1-6.7-5-10.4-14.2-10.5
			C981.8,305,963.2,305,944.6,305z M991,269.7c18.7,0,37.3,0.1,56,0c9.2-0.1,14.3-4.9,13.1-12.2c-1.2-7.7-6.9-9.2-13.6-9.2
			c-36.8,0-73.5,0-110.3,0c-9.5,0-14.9,4.1-14.7,10.9c0.2,6.7,5.5,10.5,15.2,10.5C954.8,269.8,972.9,269.7,991,269.7z M1085.8,305
			c-13.4,0-26.7-0.1-40.1,0c-8.5,0.1-13.2,3.9-13.2,10.5c0,6.7,4.6,10.7,13.1,10.8c27,0.1,54,0.1,81.1,0c8.3,0,13.3-4.3,13.3-10.7
			c0-6.4-4.9-10.5-13.2-10.6C1113.1,305,1099.5,305,1085.8,305z M1128.5,269.7c12.5,0,25.1,0.1,37.6,0c8.7-0.1,14.1-4.5,13.8-11.1
			c-0.2-6.3-5.3-10.3-13.7-10.3c-25.1-0.1-50.2-0.1-75.2,0c-9,0-14.2,4-14.2,10.6c-0.1,6.6,5.2,10.8,14.1,10.8
			C1103.4,269.8,1116,269.7,1128.5,269.7z M1086.4,191.7c-7.5,0-15-0.1-22.6,0c-8,0.2-12.4,4-12.5,10.5c-0.1,6.6,4.3,10.7,12.1,10.8
			c14.8,0.2,29.5,0.2,44.3,0c8-0.1,12.3-3.9,12.4-10.5c0.1-6.5-4.3-10.6-12.1-10.8C1100.9,191.5,1093.7,191.7,1086.4,191.7z
			 M1157.4,213C1157.4,212.9,1157.4,212.9,1157.4,213c4.2,0,8.4,0.3,12.5-0.1c6.1-0.6,9.9-4.4,9.9-10.4c0.1-6.1-3.7-10.1-9.8-10.5
			c-8-0.5-16.2-0.5-24.2,0c-6,0.4-10,4.3-9.9,10.4c0,6.4,4,10.2,10.6,10.7C1150.1,213.2,1153.7,213,1157.4,213z M888.4,248.3
			c-9.7,0-14.6,3.7-14.4,11c0.2,6.9,4.9,10.4,14.2,10.5c9.8,0.1,14.8-3.5,14.9-10.6C903.1,251.9,898.2,248.3,888.4,248.3z
			 M1168.2,326.3c6.2,0.2,11.6-4.6,11.8-10.4c0.2-5.8-4.8-10.7-11.2-10.9c-6.6-0.1-11.5,4.2-11.7,10.2
			C1156.9,321.2,1161.8,326.1,1168.2,326.3z"/>
		<path class="st1" d="M677.8,580.6c22,0,44,0,66,0c12.6,0,15.4,3,15.1,15.2c-1.3,40.3-34,73-76.6,76.5c-38.7,3.2-76.5-25.6-84-64.2
			c-5.5-28.2,0.8-28,21.9-27.6C639.4,580.9,658.6,580.6,677.8,580.6z M736,602.5c-38.9,0-77.8,0-116.8,0c5.3,29.4,32,50.2,61.6,48.8
			C708.5,649.9,733.7,627.7,736,602.5z"/>
		<path class="st1" d="M838.1,545.2c-10.6,0-21.2,0.1-31.7,0c-10.7-0.1-14-3.5-14.1-14c-0.1-8.9-0.1-17.8,0-26.7
			c0.5-25.4,21-45.5,46.1-45.4c24.7,0.1,45.1,19.9,45.8,44.9c0.3,9.5,0.2,18.9,0,28.4c-0.1,8.9-3.7,12.6-12.7,12.8
			C860.4,545.4,849.2,545.2,838.1,545.2z M862.8,523.7c0-7.5,0.4-14.2-0.1-20.8c-0.8-11.6-9.9-21-21.2-22.3
			c-12.1-1.4-23.8,5.3-26.4,16.9c-1.9,8.4-1.2,17.3-1.7,26.2C830.6,523.7,846.1,523.7,862.8,523.7z"/>
		<path class="st1" d="M517,545.2c-10.9,0-21.7,0.2-32.6,0c-9.5-0.2-13.2-3.9-13.1-13.3c0.1-11.9-0.7-24.1,1.3-35.8
			c3.9-23.2,25.2-38.8,48.3-37c23.4,1.8,41.7,21.2,42.2,44.9c0.2,9.5,0.2,18.9,0,28.4c-0.1,8.9-3.6,12.5-12.8,12.7
			C539.2,545.4,528.1,545.2,517,545.2z M541.4,523.5c0-8.2,0.8-16-0.2-23.6c-1.5-11.3-12.1-19.4-23.7-19.5
			c-11.9-0.1-22.8,8.3-24.3,19.9c-1,7.5-0.2,15.3-0.2,23.2C509.5,523.5,525.3,523.5,541.4,523.5z"/>
		<path class="st1" d="M953.9,213c-22,0-44,0-66,0c-9.3,0-13.9-3.7-13.9-10.7c0-7,4.6-10.6,13.9-10.7c44,0,88-0.1,132,0
			c9.1,0,13.7,4,13.5,11.1c-0.3,6.7-4.6,10.2-13.5,10.2C997.9,213.1,975.9,213,953.9,213z"/>
		<path class="st1" d="M944.6,305c18.6,0,37.3,0,55.9,0c9.2,0,14.1,3.7,14.2,10.5c0.1,6.7-5,10.8-14,10.9
			c-37.6,0.1-75.1,0.1-112.7,0c-9.4,0-14-3.7-14-10.6c-0.1-7,4.5-10.6,13.8-10.7C906.7,305,925.6,305,944.6,305z"/>
		<path class="st1" d="M991,269.7c-18.1,0-36.2,0-54.3,0c-9.7,0-15-3.8-15.2-10.5c-0.2-6.8,5.3-10.9,14.7-10.9
			c36.8,0,73.5,0,110.3,0c6.7,0,12.4,1.5,13.6,9.2c1.2,7.3-3.9,12.1-13.1,12.2C1028.3,269.8,1009.6,269.7,991,269.7z"/>
		<path class="st1" d="M1085.8,305c13.6,0,27.3-0.1,40.9,0c8.3,0.1,13.3,4.2,13.2,10.6c0,6.3-5,10.6-13.3,10.7
			c-27,0.1-54,0.1-81.1,0c-8.5,0-13.1-4.1-13.1-10.8c0-6.7,4.7-10.5,13.2-10.5C1059.1,305,1072.5,305,1085.8,305z"/>
		<path class="st1" d="M1128.5,269.7c-12.5,0-25.1,0.1-37.6,0c-8.8-0.1-14.1-4.2-14.1-10.8c0.1-6.6,5.2-10.6,14.2-10.6
			c25.1-0.1,50.2-0.1,75.2,0c8.3,0,13.4,4,13.7,10.3c0.2,6.6-5.1,11-13.8,11.1C1153.6,269.8,1141.1,269.7,1128.5,269.7z"/>
		<path class="st1" d="M1086.4,191.7c7.2,0,14.5-0.2,21.7,0c7.9,0.2,12.2,4.3,12.1,10.8c-0.1,6.5-4.4,10.4-12.4,10.5
			c-14.8,0.2-29.5,0.2-44.3,0c-7.9-0.1-12.2-4.2-12.1-10.8c0.1-6.5,4.5-10.3,12.5-10.5C1071.4,191.5,1078.9,191.7,1086.4,191.7z"/>
		<path class="st1" d="M1157.4,213c-3.6,0-7.3,0.2-10.9,0c-6.5-0.5-10.5-4.2-10.6-10.7c0-6.1,3.9-10,9.9-10.4c8-0.5,16.2-0.5,24.2,0
			c6,0.4,9.9,4.5,9.8,10.5c-0.1,6-3.9,9.8-9.9,10.4C1165.7,213.3,1161.5,212.9,1157.4,213C1157.4,212.9,1157.4,212.9,1157.4,213z"/>
		<path class="st1" d="M888.4,248.3c9.8,0,14.7,3.6,14.6,10.8c-0.1,7.1-5.1,10.7-14.9,10.6c-9.3-0.1-14-3.6-14.2-10.5
			C873.8,252,878.7,248.3,888.4,248.3z"/>
		<path class="st1" d="M1168.2,326.3c-6.3-0.2-11.3-5.1-11.1-11c0.2-6,5.2-10.4,11.7-10.2c6.4,0.1,11.4,5,11.2,10.9
			C1179.8,321.7,1174.4,326.5,1168.2,326.3z"/>
	</g>
</g>
<g id="Layer_3">
</g>
</svg>
