<?xml version="1.0" encoding="utf-8"?>
<!-- Generator: Adobe Illustrator 24.1.0, SVG Export Plug-In . SVG Version: 6.00 Build 0)  -->
<svg version="1.1" id="Layer_1" xmlns="http://www.w3.org/2000/svg" xmlns:xlink="http://www.w3.org/1999/xlink" x="0px" y="0px"
	 viewBox="0 0 292.4 261.1" style="enable-background:new 0 0 292.4 261.1;" xml:space="preserve">
<style type="text/css">
	.st0{fill:#FFFFFF;}
	.st1{fill:#6D95B7;}
</style>
<g>
	<path class="st0" d="M134.6,201.2c14.5,0,29.1,0,43.6,0c2.2,0,3.4-0.9,3.5-2.5c0.1-1.7-1.2-2.7-3.4-2.8c-0.3,0-0.6,0-0.8,0
		c-28.5,0-57.1,0-85.6,0c-0.8,0-1.7-0.2-2.2,0.2c-0.8,0.6-1.9,1.7-1.9,2.5c0,0.9,1.2,1.8,2,2.4c0.5,0.3,1.4,0.1,2.1,0.1
		C106.1,201.2,120.4,201.2,134.6,201.2z M134.7,222.6c-13.3,0-26.6,0-39.9,0c-1.5,0-2.9,0-4.4,0c-1.6,0-2.7,0.9-2.8,2.5
		c-0.1,1.8,1,2.7,2.7,2.8c0.4,0,0.8,0,1.3,0c28.7,0,57.3,0,86,0c0.7,0,1.6,0.2,2-0.2c0.8-0.7,2-1.8,1.9-2.5
		c-0.1-0.9-1.3-1.9-2.2-2.5c-0.5-0.3-1.4-0.1-2.1-0.1C163.1,222.6,148.9,222.6,134.7,222.6z M134.6,214.6c14.5,0,29.1,0,43.6,0
		c2.2,0,3.5-1.1,3.5-2.8c-0.1-1.6-1.3-2.6-3.4-2.6c-0.3,0-0.6,0-0.8,0c-28.5,0-57.1,0-85.6,0c-0.8,0-1.7-0.2-2.2,0.2
		c-0.8,0.7-1.9,1.7-1.9,2.6c0,0.8,1,1.8,1.8,2.4c0.5,0.4,1.5,0.2,2.2,0.2C106.1,214.6,120.3,214.6,134.6,214.6z"/>
	<path class="st1" d="M272.1,89.1c-0.2,0.5-0.4,1-0.6,1.5c-1.7,4.8-5.7,7.5-11.2,7.5c-15.2,0-30.4,0-45.5,0c-0.8,0-1.6,0-2.6,0
		c0,1.1,0,1.9,0,2.8c0,22.3,0,44.6,0,67c0,10.8-6.6,17.4-17.4,17.4c-40,0-80,0-120.1,0c-10.9,0-17.5-6.6-17.5-17.5
		c0-21.3,0-42.7,0-64c0-10.7,6.6-17.3,17.4-17.4c8.4,0,16.8,0,25.2,0c0.8,0,1.5,0,2.6,0c0-3.1,0.2-6,0-8.9c-0.4-6.5,3.9-9.1,8.9-8.9
		c6,0.3,12,0.1,18,0.1c0.7,0,1.5,0,2.5,0c0-2.5,0.1-4.8-0.1-7.1c0-0.5-1-1.1-1.7-1.4c-4.6-2-7.3-6.3-7.1-11.3
		c0.2-4.8,3.5-9,8.1-10.4c5.8-1.8,12.1,1.3,14.2,6.9c2.2,5.8-0.5,12.3-6.3,14.6c-1.5,0.6-2,1.3-1.9,2.9c0.1,1.9,0,3.7,0,5.8
		c5.4,0,10.6,0,15.8,0c2.2,0,4.3,0,6.5,0c4.6,0.1,7.4,2.9,7.5,7.5c0.1,3.3,0,6.7,0,10.1c1.9,0,3.6,0,5.5,0c0-0.9,0-1.7,0-2.6
		c0-12.4,0-24.8,0-37.1c0-8.3,4.4-12.7,12.6-12.7c24.5,0,49,0,73.5,0c7.9,0,10.6,1.8,13.6,9.2C272.1,58.3,272.1,73.7,272.1,89.1z
		 M185.8,98.2c-1.2-0.1-2.2-0.1-3.1-0.2c-3.7-0.2-6.6-1.9-8.5-5c-0.7-1.1-1.4-1.4-2.7-1.4c-32.5,0-65.1,0-97.6,0
		c-7,0-11.4,4.4-11.4,11.4c0,21.8,0,43.7,0,65.5c0,6.9,4.4,11.3,11.3,11.3c40.6,0,81.2,0,121.7,0c1,0,2,0,2.9-0.2
		c5-1.2,8.3-5.2,8.3-10.7c0-21.4,0-42.8,0-64.2c0-0.5-0.1-0.9-0.2-1.7c-0.7,0.6-1.3,1-1.8,1.5c-4.7,4.2-9.4,8.4-14.2,12.5
		c-0.8,0.6-2.3,1.1-3.1,0.7c-0.8-0.4-1.4-1.8-1.6-2.8c-0.3-1.4-0.1-2.9-0.1-4.4C185.8,106.4,185.8,102.4,185.8,98.2z M191.1,109.3
		c0.9-0.7,1.4-1.1,1.9-1.5c3.9-3.5,8.1-6.7,11.7-10.5c3.4-3.5,7-4.7,11.9-4.6c14.5,0.3,28.9,0.1,43.4,0.1c4.3,0,6.7-2.1,6.7-6
		c0-13.9,0-27.8,0-41.7c0-3.6-2.3-5.9-6-5.9c-25.7,0-51.3,0-77,0c-3.6,0-6,2.3-6.1,5.8c-0.1,14-0.1,28,0,42c0,3.4,2.4,5.7,5.9,5.9
		c1.2,0.1,2.4,0,3.6,0c3.4,0,4,0.6,4,4C191.1,100.9,191.1,104.9,191.1,109.3z M161.6,86.2c0-3.1,0-6,0-8.9c0-3.1-0.3-3.4-3.3-3.4
		c-15.8,0-31.6,0-47.4,0c-0.5,0-1.1-0.2-1.4,0.1c-0.7,0.4-1.6,1-1.7,1.5c-0.1,3.5-0.1,7.1-0.1,10.7
		C125.8,86.2,143.6,86.2,161.6,86.2z M134.4,55.5c3.4,0,6.3-2.8,6.3-6.2c0-3.3-2.8-6.1-6.1-6.2c-3.4-0.1-6.3,2.8-6.3,6.2
		C128.2,52.7,131,55.5,134.4,55.5z"/>
	<path class="st1" d="M134.6,201.2c-14.3,0-28.5,0-42.8,0c-0.7,0-1.6,0.2-2.1-0.1c-0.9-0.6-2-1.6-2-2.4c0-0.8,1-1.9,1.9-2.5
		c0.5-0.4,1.5-0.2,2.2-0.2c28.5,0,57.1,0,85.6,0c0.3,0,0.6,0,0.8,0c2.3,0.1,3.5,1.1,3.4,2.8c-0.1,1.6-1.3,2.5-3.5,2.5
		C163.7,201.2,149.2,201.2,134.6,201.2z"/>
	<path class="st1" d="M134.7,222.6c14.2,0,28.4,0,42.6,0c0.7,0,1.6-0.2,2.1,0.1c0.9,0.7,2.1,1.6,2.2,2.5c0.1,0.8-1.1,1.9-1.9,2.5
		c-0.4,0.4-1.3,0.2-2,0.2c-28.7,0-57.3,0-86,0c-0.4,0-0.8,0-1.3,0c-1.7-0.2-2.8-1.1-2.7-2.8c0.1-1.6,1.2-2.5,2.8-2.5
		c1.5,0,2.9,0,4.4,0C108.1,222.6,121.4,222.6,134.7,222.6z"/>
	<path class="st1" d="M134.6,214.6c-14.3,0-28.5,0-42.8,0c-0.8,0-1.7,0.2-2.2-0.2c-0.8-0.6-1.9-1.6-1.8-2.4c0-0.9,1.1-1.9,1.9-2.6
		c0.5-0.4,1.5-0.2,2.2-0.2c28.5,0,57.1,0,85.6,0c0.3,0,0.6,0,0.8,0c2.1,0.1,3.4,1,3.4,2.6c0.1,1.7-1.3,2.8-3.5,2.8
		C163.7,214.6,149.2,214.6,134.6,214.6z"/>
	<path class="st0" d="M203.9,58c5.5,0,11,0,16.6,0c2.2,0,3.3-0.9,3.4-2.6c0.1-1.8-1.1-2.8-3.4-2.8c-11,0-22.1,0-33.1,0
		c-2.3,0-3.5,0.9-3.5,2.7c0,1.7,1.2,2.7,3.5,2.7C192.9,58,198.4,58,203.9,58z M201.6,81.1c-4.7,0-9.5,0-14.2,0
		c-2.3,0-3.5,0.9-3.5,2.7c0,1.7,1.2,2.7,3.5,2.7c9.4,0,18.9,0,28.3,0c2.2,0,3.5-1.1,3.5-2.7c0-1.7-1.3-2.6-3.6-2.6
		C210.9,81.1,206.3,81.1,201.6,81.1z M213.2,72.2c4.7,0,9.4,0,14,0c2.3,0,3.6-1.2,3.3-3.1c-0.3-1.9-1.7-2.3-3.4-2.3
		c-9.2,0-18.4,0-27.7,0c-2.4,0-3.7,1-3.7,2.7c0,1.7,1.4,2.6,3.8,2.6C204.2,72.2,208.7,72.2,213.2,72.2z M237,81.1
		c-3.4,0-6.7,0-10.1,0c-2.1,0-3.3,1-3.3,2.6c0,1.7,1.1,2.7,3.3,2.7c6.8,0,13.6,0,20.3,0c2.1,0,3.3-1.1,3.3-2.7
		c0-1.6-1.2-2.6-3.3-2.7C243.9,81.1,240.5,81.1,237,81.1z M247.8,72.2c3.1,0,6.3,0,9.4,0c2.2,0,3.5-1.1,3.5-2.8
		c-0.1-1.6-1.3-2.6-3.4-2.6c-6.3,0-12.6,0-18.9,0c-2.3,0-3.6,1-3.6,2.7c0,1.7,1.3,2.7,3.5,2.7C241.5,72.3,244.6,72.2,247.8,72.2z
		 M237.2,52.6c-1.9,0-3.8,0-5.7,0c-2,0-3.1,1-3.1,2.6c0,1.6,1.1,2.7,3,2.7c3.7,0,7.4,0,11.1,0c2,0,3.1-1,3.1-2.6
		c0-1.6-1.1-2.7-3-2.7C240.8,52.6,239,52.6,237.2,52.6z M255,58C255,58,255,58,255,58c1,0,2.1,0.1,3.1,0c1.5-0.2,2.5-1.1,2.5-2.6
		c0-1.5-0.9-2.5-2.5-2.6c-2-0.1-4.1-0.1-6.1,0c-1.5,0.1-2.5,1.1-2.5,2.6c0,1.6,1,2.6,2.7,2.7C253.2,58,254.1,58,255,58z M187.5,66.8
		c-2.4,0-3.7,0.9-3.6,2.8c0,1.7,1.2,2.6,3.6,2.6c2.5,0,3.7-0.9,3.7-2.7C191.2,67.8,190,66.8,187.5,66.8z M257.7,86.4
		c1.6,0,2.9-1.1,3-2.6c0-1.5-1.2-2.7-2.8-2.7c-1.6,0-2.9,1.1-2.9,2.6C254.9,85.2,256.1,86.4,257.7,86.4z"/>
	<path class="st1" d="M134.6,150.2c5.5,0,11,0,16.6,0c3.2,0,3.9,0.8,3.8,3.8c-0.3,10.1-8.5,18.3-19.2,19.2
		c-9.7,0.8-19.2-6.4-21.1-16.1c-1.4-7.1,0.2-7,5.5-6.9C125,150.3,129.8,150.2,134.6,150.2z M149.2,155.7c-9.8,0-19.5,0-29.3,0
		c1.3,7.4,8,12.6,15.5,12.2C142.3,167.6,148.7,162.1,149.2,155.7z"/>
	<path class="st1" d="M174.9,141.4c-2.7,0-5.3,0-8,0c-2.7,0-3.5-0.9-3.5-3.5c0-2.2,0-4.5,0-6.7c0.1-6.4,5.3-11.4,11.6-11.4
		c6.2,0,11.3,5,11.5,11.3c0.1,2.4,0,4.8,0,7.1c0,2.2-0.9,3.2-3.2,3.2C180.5,141.4,177.7,141.4,174.9,141.4z M181.1,136
		c0-1.9,0.1-3.6,0-5.2c-0.2-2.9-2.5-5.3-5.3-5.6c-3-0.3-6,1.3-6.6,4.2c-0.5,2.1-0.3,4.3-0.4,6.6C173,136,176.9,136,181.1,136z"/>
	<path class="st1" d="M94.3,141.4c-2.7,0-5.4,0-8.2,0c-2.4,0-3.3-1-3.3-3.3c0-3-0.2-6,0.3-9c1-5.8,6.3-9.7,12.1-9.3
		c5.9,0.5,10.5,5.3,10.6,11.3c0.1,2.4,0,4.8,0,7.1c0,2.2-0.9,3.1-3.2,3.2C99.9,141.4,97.1,141.4,94.3,141.4z M100.4,135.9
		c0-2.1,0.2-4,0-5.9c-0.4-2.8-3-4.9-6-4.9c-3,0-5.7,2.1-6.1,5c-0.2,1.9,0,3.8,0,5.8C92.4,135.9,96.4,135.9,100.4,135.9z"/>
	<path class="st1" d="M203.9,58c-5.5,0-11,0-16.6,0c-2.3,0-3.5-0.9-3.5-2.7c0-1.7,1.2-2.7,3.5-2.7c11,0,22.1,0,33.1,0
		c2.3,0,3.4,1,3.4,2.8c-0.1,1.7-1.2,2.6-3.4,2.6C215,58,209.4,58,203.9,58z"/>
	<path class="st1" d="M201.6,81.1c4.7,0,9.4,0,14,0c2.3,0,3.5,0.9,3.6,2.6c0,1.7-1.3,2.7-3.5,2.7c-9.4,0-18.9,0-28.3,0
		c-2.3,0-3.5-0.9-3.5-2.7c0-1.8,1.1-2.7,3.5-2.7C192.1,81.1,196.8,81.1,201.6,81.1z"/>
	<path class="st1" d="M213.2,72.2c-4.5,0-9.1,0-13.6,0c-2.4,0-3.8-0.9-3.8-2.6c0-1.7,1.3-2.7,3.7-2.7c9.2,0,18.4,0,27.7,0
		c1.7,0,3.1,0.4,3.4,2.3c0.3,1.8-1,3-3.3,3.1C222.6,72.3,217.9,72.2,213.2,72.2z"/>
	<path class="st1" d="M237,81.1c3.4,0,6.9,0,10.3,0c2.1,0,3.3,1,3.3,2.7c0,1.6-1.3,2.7-3.3,2.7c-6.8,0-13.6,0-20.3,0
		c-2.1,0-3.3-1-3.3-2.7c0-1.7,1.2-2.6,3.3-2.6C230.3,81.1,233.7,81.1,237,81.1z"/>
	<path class="st1" d="M247.8,72.2c-3.1,0-6.3,0-9.4,0c-2.2,0-3.5-1.1-3.5-2.7c0-1.7,1.3-2.7,3.6-2.7c6.3,0,12.6,0,18.9,0
		c2.1,0,3.4,1,3.4,2.6c0.1,1.7-1.3,2.8-3.5,2.8C254,72.3,250.9,72.2,247.8,72.2z"/>
	<path class="st1" d="M237.2,52.6c1.8,0,3.6,0,5.5,0c2,0.1,3.1,1.1,3,2.7c0,1.6-1.1,2.6-3.1,2.6c-3.7,0-7.4,0-11.1,0
		c-2,0-3.1-1.1-3-2.7c0-1.6,1.1-2.6,3.1-2.6C233.4,52.6,235.3,52.6,237.2,52.6z"/>
	<path class="st1" d="M255,58c-0.9,0-1.8,0.1-2.7,0c-1.6-0.1-2.6-1.1-2.7-2.7c0-1.5,1-2.5,2.5-2.6c2-0.1,4.1-0.1,6.1,0
		c1.5,0.1,2.5,1.1,2.5,2.6c0,1.5-1,2.5-2.5,2.6C257.1,58.1,256,58,255,58C255,58,255,58,255,58z"/>
	<path class="st1" d="M187.5,66.8c2.5,0,3.7,0.9,3.7,2.7c0,1.8-1.3,2.7-3.7,2.7c-2.3,0-3.5-0.9-3.6-2.6
		C183.8,67.8,185.1,66.9,187.5,66.8z"/>
	<path class="st1" d="M257.7,86.4c-1.6,0-2.8-1.3-2.8-2.8c0-1.5,1.3-2.6,2.9-2.6c1.6,0,2.9,1.3,2.8,2.7
		C260.6,85.3,259.3,86.5,257.7,86.4z"/>
</g>
</svg>
