<?xml version="1.0" encoding="utf-8"?>
<!-- Generator: Adobe Illustrator 24.1.0, SVG Export Plug-In . SVG Version: 6.00 Build 0)  -->
<svg version="1.1" id="Layer_1" xmlns="http://www.w3.org/2000/svg" xmlns:xlink="http://www.w3.org/1999/xlink" x="0px" y="0px"
	 viewBox="0 0 292.4 261.1" style="enable-background:new 0 0 292.4 261.1;" xml:space="preserve">
<style type="text/css">
	.st0{fill:#FFFFFF;}
	.st1{fill:#6D95B7;}
</style>
<g>
	<path class="st0" d="M-283.8,35c0,88.6,0,177.2,0,265.7c-128,0-256,0-384,0c0-128,0-256,0-384c128,0,256,0,384,0c0,12,0,24,0,35.9
		c-5.3-13.1-10.1-16.3-24.3-16.3c-43.7,0-87.3,0-131,0c-14.8,0-22.5,7.8-22.6,22.7c0,22.1,0,44.2,0,66.2c0,1.5,0,2.9,0,4.6
		c-3.4,0-6.4,0-9.8,0c0-6.1,0.1-12.1,0-18.1c-0.2-8.2-5.3-13.2-13.4-13.4c-3.9-0.1-7.7,0-11.6,0c-9.2,0-18.4,0-28.1,0
		c0-3.7,0.2-7-0.1-10.3c-0.2-2.8,0.7-4,3.4-5.1c10.2-4.2,15.1-15.8,11.2-26.1c-3.8-10.1-14.9-15.6-25.3-12.4
		c-8.2,2.5-14,9.9-14.4,18.6c-0.4,8.9,4.5,16.6,12.7,20.2c1.2,0.5,2.9,1.6,3,2.5c0.3,4.1,0.1,8.2,0.1,12.6c-1.7,0-3.1,0-4.4,0
		c-10.7,0-21.5,0.4-32.2-0.1c-9-0.4-16.7,4.4-15.9,15.9c0.4,5.2,0.1,10.4,0.1,15.9c-1.9,0-3.3,0-4.6,0c-15,0-29.9,0-44.9,0
		c-19.3,0-31.1,11.8-31.1,31c0,38,0,76.1,0,114.1c0,19.4,11.8,31.2,31.2,31.2c71.4,0,142.7,0,214.1,0c19.2,0,31-11.8,31-31
		c0-39.8,0-79.6,0-119.4c0-1.5,0-2.9,0-4.9c1.8,0,3.2,0,4.7,0c27.1,0,54.1,0,81.2,0c9.9,0,17-4.8,20-13.3
		C-284.5,36.8-284.1,35.9-283.8,35z M-528.9,235c25.9,0,51.9,0,77.8,0c3.9,0,6-1.6,6.2-4.5c0.2-3-2.1-4.8-6.1-5c-0.5,0-1,0-1.5,0
		c-50.9,0-101.7,0-152.6,0c-1.4,0-3.1-0.3-4,0.4c-1.5,1.1-3.4,3-3.4,4.5c0.1,1.5,2.1,3.2,3.6,4.4c0.8,0.6,2.4,0.2,3.7,0.2
		C-579.8,235-554.3,235-528.9,235z M-528.8,273c-23.7,0-47.4,0-71.1,0c-2.6,0-5.2,0-7.9,0c-2.9,0-4.8,1.6-5,4.5
		c-0.2,3.2,1.8,4.7,4.8,5c0.7,0.1,1.5,0,2.2,0c51.1,0,102.2,0,153.4,0c1.2,0,2.8,0.3,3.6-0.4c1.5-1.2,3.6-3.1,3.4-4.5
		c-0.2-1.7-2.3-3.3-4-4.5c-0.8-0.6-2.4-0.2-3.7-0.2C-478.2,273-503.5,273-528.8,273z M-528.9,258.8c25.9,0,51.9,0,77.8,0
		c3.9,0,6.3-2,6.2-4.9c-0.1-2.8-2.4-4.6-6.1-4.7c-0.5,0-1,0-1.5,0c-50.9,0-101.7,0-152.6,0c-1.4,0-3.1-0.3-4,0.4
		c-1.5,1.2-3.3,3-3.4,4.6c-0.1,1.4,1.8,3.2,3.3,4.3c0.9,0.7,2.6,0.3,4,0.3C-579.8,258.8-554.4,258.8-528.9,258.8z"/>
	<path class="st1" d="M-283.8,35c-0.4,0.9-0.8,1.8-1.1,2.7c-3.1,8.5-10.1,13.3-20,13.3c-27.1,0-54.1,0-81.2,0c-1.5,0-2.9,0-4.7,0
		c0,2,0,3.4,0,4.9c0,39.8,0,79.6,0,119.4c0,19.2-11.8,31-31,31c-71.4,0-142.7,0-214.1,0c-19.4,0-31.2-11.8-31.2-31.2
		c0-38,0-76.1,0-114.1c0-19.2,11.8-30.9,31.1-31c15,0,29.9,0,44.9,0c1.4,0,2.7,0,4.6,0c0-5.5,0.3-10.7-0.1-15.9
		c-0.8-11.5,6.9-16.3,15.9-15.9c10.7,0.5,21.5,0.1,32.2,0.1c1.3,0,2.7,0,4.4,0c0-4.5,0.2-8.6-0.1-12.6c-0.1-0.9-1.8-2-3-2.5
		c-8.2-3.6-13.1-11.3-12.7-20.2c0.4-8.6,6.2-16,14.4-18.6c10.4-3.2,21.5,2.3,25.3,12.4c3.9,10.3-1,21.9-11.2,26.1
		c-2.7,1.1-3.6,2.4-3.4,5.1c0.2,3.3,0.1,6.7,0.1,10.3c9.7,0,18.9,0,28.1,0c3.9,0,7.7,0,11.6,0c8.2,0.1,13.3,5.2,13.4,13.4
		c0.1,6,0,11.9,0,18.1c3.4,0,6.3,0,9.8,0c0-1.6,0-3.1,0-4.6c0-22.1,0-44.2,0-66.2c0-14.9,7.8-22.7,22.6-22.7c43.7,0,87.3,0,131,0
		c14.2,0,19,3.2,24.3,16.3C-283.8-19.9-283.8,7.6-283.8,35z M-437.6,51.3c-2.1-0.1-3.8-0.3-5.5-0.4c-6.6-0.4-11.7-3.4-15.2-8.9
		c-1.2-2-2.6-2.5-4.8-2.5c-58,0.1-116,0-174,0.1c-12.5,0-20.3,7.9-20.3,20.3c0,38.9,0,77.8,0,116.8c0,12.3,7.8,20.1,20.1,20.1
		c72.4,0,144.7,0,217.1,0c1.7,0,3.5-0.1,5.2-0.4c9-2.1,14.7-9.3,14.8-19.1c0.1-38.2,0-76.3,0-114.5c0-0.8-0.2-1.6-0.3-3
		c-1.3,1.1-2.2,1.8-3.1,2.6c-8.4,7.5-16.7,15-25.3,22.3c-1.4,1.2-4.1,1.9-5.6,1.3c-1.5-0.6-2.6-3.1-2.9-5c-0.5-2.5-0.1-5.2-0.1-7.8
		C-437.6,66-437.6,58.8-437.6,51.3z M-428.2,71.1c1.5-1.2,2.5-1.9,3.4-2.7c7-6.2,14.4-12,20.8-18.8c6-6.3,12.5-8.3,21.1-8.2
		c25.8,0.5,51.6,0.2,77.4,0.2c7.7,0,12-3.7,12-10.7c0.1-24.8,0.1-49.6,0-74.4c0-6.4-4.2-10.5-10.6-10.5c-45.8-0.1-91.5,0-137.3,0
		c-6.4,0-10.8,4.1-10.8,10.4c-0.1,24.9-0.1,49.9,0,74.8c0,6.1,4.2,10.2,10.4,10.5c2.1,0.1,4.2,0,6.4,0c6.1,0,7.1,1.1,7.1,7.2
		C-428.1,56-428.2,63.2-428.2,71.1z M-480.8,29.8c0-5.6,0-10.7,0-15.8c0-5.6-0.5-6-5.9-6c-28.2,0-56.3,0-84.5,0
		c-0.9,0-1.9-0.3-2.6,0.1c-1.2,0.7-2.9,1.7-3,2.7c-0.3,6.3-0.1,12.6-0.1,19C-544.7,29.8-513,29.8-480.8,29.8z M-529.4-24.8
		c6.1,0.1,11.3-5,11.2-11.1c0-6-4.9-10.9-10.9-11c-6.1-0.1-11.3,5-11.3,11.1C-540.3-29.9-535.3-24.9-529.4-24.8z"/>
	<path class="st1" d="M-528.9,235c-25.4,0-50.9,0-76.3,0c-1.2,0-2.8,0.4-3.7-0.2c-1.5-1.1-3.6-2.8-3.6-4.4c-0.1-1.5,1.9-3.4,3.4-4.5
		c0.9-0.7,2.6-0.4,4-0.4c50.9,0,101.7,0,152.6,0c0.5,0,1,0,1.5,0c4,0.1,6.3,2,6.1,5c-0.2,2.9-2.3,4.5-6.2,4.5
		C-477,235-503,235-528.9,235z"/>
	<path class="st1" d="M-528.8,273c25.3,0,50.6,0,75.9,0c1.2,0,2.8-0.4,3.7,0.2c1.6,1.2,3.8,2.8,4,4.5c0.2,1.4-1.9,3.3-3.4,4.5
		c-0.8,0.6-2.4,0.4-3.6,0.4c-51.1,0-102.2,0-153.4,0c-0.7,0-1.5,0-2.2,0c-3-0.3-5-1.9-4.8-5c0.2-2.9,2.1-4.4,5-4.5
		c2.6,0,5.2,0,7.9,0C-576.2,273-552.5,273-528.8,273z"/>
	<path class="st1" d="M-528.9,258.8c-25.4,0-50.9,0-76.3,0c-1.4,0-3.1,0.3-4-0.3c-1.5-1-3.4-2.9-3.3-4.3c0.1-1.6,1.9-3.4,3.4-4.6
		c0.9-0.7,2.6-0.4,4-0.4c50.9,0,101.7,0,152.6,0c0.5,0,1,0,1.5,0c3.7,0.1,6,1.8,6.1,4.7c0.1,3-2.3,4.9-6.2,4.9
		C-477.1,258.8-503,258.8-528.9,258.8z"/>
	<path class="st0" d="M-437.6,51.3c0,7.4,0,14.7,0,21.9c0,2.6-0.4,5.3,0.1,7.8c0.4,1.9,1.5,4.3,2.9,5c1.4,0.6,4.2-0.2,5.6-1.3
		c8.5-7.3,16.9-14.8,25.3-22.3c0.9-0.8,1.8-1.5,3.1-2.6c0.1,1.3,0.3,2.1,0.3,3c0,38.2,0.1,76.3,0,114.5c0,9.8-5.8,17-14.8,19.1
		c-1.7,0.4-3.5,0.4-5.2,0.4c-72.4,0-144.7,0-217.1,0c-12.3,0-20.1-7.8-20.1-20.1c0-38.9,0-77.8,0-116.8c0-12.5,7.9-20.3,20.3-20.3
		c58,0,116,0,174-0.1c2.2,0,3.5,0.5,4.8,2.5c3.5,5.5,8.6,8.5,15.2,8.9C-441.4,51.1-439.7,51.2-437.6,51.3z M-528.9,144.1
		c-8.6,0-17.2,0.1-25.8,0c-9.5-0.2-12.3-0.3-9.8,12.4c3.4,17.3,20.3,30.1,37.6,28.7c19-1.6,33.7-16.2,34.3-34.2
		c0.2-5.5-1.1-6.8-6.7-6.8C-509.2,144-519,144.1-528.9,144.1z M-457.1,128.2c5,0,10,0.1,14.9,0c4-0.1,5.6-1.7,5.7-5.7
		c0.1-4.2,0.1-8.5,0-12.7c-0.3-11.2-9.4-20-20.5-20.1c-11.2,0-20.4,9-20.6,20.3c-0.1,4,0,8,0,12c0,4.7,1.5,6.2,6.3,6.3
		C-466.6,128.3-461.9,128.2-457.1,128.2z M-600.8,128.2c5,0,10,0.1,14.9,0c4.1-0.1,5.7-1.7,5.7-5.7c0.1-4.2,0.1-8.5,0-12.7
		c-0.3-10.6-8.4-19.3-18.9-20.1c-10.3-0.8-19.9,6.1-21.6,16.5c-0.9,5.2-0.5,10.7-0.6,16c0,4.2,1.6,5.9,5.9,5.9
		C-610.5,128.3-605.7,128.2-600.8,128.2z"/>
	<path class="st0" d="M-428.2,71.1c0-7.9,0-15.1,0-22.3c0-6.1-1.1-7.2-7.1-7.2c-2.1,0-4.2,0.1-6.4,0c-6.2-0.3-10.4-4.3-10.4-10.5
		c-0.1-24.9-0.1-49.9,0-74.8c0-6.3,4.4-10.4,10.8-10.4c45.8,0,91.5,0,137.3,0c6.4,0,10.6,4.1,10.6,10.5c0.1,24.8,0.1,49.6,0,74.4
		c0,7-4.3,10.7-12,10.7c-25.8,0-51.6,0.4-77.4-0.2c-8.6-0.2-15.2,1.9-21.1,8.2c-6.4,6.7-13.8,12.6-20.8,18.8
		C-425.7,69.2-426.6,69.9-428.2,71.1z M-405.3-20.4c9.8,0,19.7,0,29.5,0c4,0,5.9-1.6,6-4.6c0.1-3.2-2-5-6-5c-19.7,0-39.4,0-59.1,0
		c-4.2,0-6.2,1.6-6.2,4.8c0,3.1,2.1,4.8,6.2,4.8C-425-20.4-415.2-20.4-405.3-20.4z M-409.5,20.8c-8.5,0-16.9,0-25.4,0
		c-4.2,0-6.2,1.6-6.2,4.8c0,3.1,2.1,4.8,6.3,4.8c16.8,0,33.6,0,50.4,0c4,0,6.3-1.9,6.2-4.9c0-3-2.2-4.7-6.3-4.7
		C-392.8,20.8-401.2,20.8-409.5,20.8z M-388.7,5c8.3,0,16.7,0,25,0c4.1,0,6.4-2.2,5.9-5.5c-0.6-3.4-3.1-4.1-6.1-4.1
		c-16.4,0-32.9,0-49.3,0c-4.2,0-6.7,1.9-6.6,4.9c0.1,3,2.5,4.7,6.8,4.7C-404.9,5-396.8,5-388.7,5z M-346.3,20.8c-6,0-12,0-17.9,0
		c-3.8,0-5.9,1.7-5.9,4.7c0,3,2,4.8,5.9,4.8c12.1,0.1,24.2,0.1,36.3,0c3.7,0,6-1.9,6-4.8c0-2.9-2.2-4.7-5.9-4.7
		C-334.1,20.7-340.2,20.8-346.3,20.8z M-327.2,5c5.6,0,11.2,0,16.8,0c3.9,0,6.3-2,6.2-4.9c-0.1-2.8-2.4-4.6-6.1-4.6
		c-11.2,0-22.4,0-33.7,0c-4,0-6.3,1.8-6.4,4.7c0,2.9,2.3,4.8,6.3,4.8C-338.4,5-332.8,5-327.2,5z M-346-30c-3.4,0-6.7-0.1-10.1,0
		c-3.6,0.1-5.5,1.8-5.6,4.7c0,2.9,1.9,4.8,5.4,4.8c6.6,0.1,13.2,0.1,19.8,0c3.6,0,5.5-1.8,5.6-4.7c0-2.9-1.9-4.7-5.4-4.8
		C-339.5-30-342.8-30-346-30z M-314.3-20.4C-314.3-20.4-314.3-20.4-314.3-20.4c1.9,0,3.8,0.1,5.6,0c2.7-0.3,4.4-2,4.4-4.7
		c0-2.7-1.7-4.5-4.4-4.7c-3.6-0.2-7.2-0.2-10.8,0c-2.7,0.2-4.5,1.9-4.4,4.6c0,2.9,1.8,4.6,4.7,4.8
		C-317.5-20.3-315.9-20.4-314.3-20.4z M-434.6-4.6c-4.4,0-6.5,1.7-6.5,4.9c0.1,3.1,2.2,4.7,6.3,4.7c4.4,0,6.6-1.6,6.6-4.8
		C-428-3-430.2-4.6-434.6-4.6z M-309.5,30.3c2.8,0.1,5.2-2,5.3-4.6c0.1-2.6-2.2-4.8-5-4.9c-2.9-0.1-5.2,1.9-5.2,4.6
		C-314.5,28-312.3,30.2-309.5,30.3z"/>
	<path class="st0" d="M-480.8,29.8c-32.2,0-63.9,0-96.1,0c0-6.4-0.1-12.7,0.1-19c0-1,1.8-2,3-2.7c0.7-0.4,1.7-0.1,2.6-0.1
		c28.2,0,56.3,0,84.5,0c5.4,0,5.9,0.5,5.9,6C-480.8,19.1-480.8,24.2-480.8,29.8z"/>
	<path class="st0" d="M-529.4-24.8c-5.9-0.1-10.9-5.1-11-11c0-6.1,5.2-11.2,11.3-11.1c6,0.1,10.9,5.1,10.9,11
		C-518.1-29.8-523.2-24.8-529.4-24.8z"/>
	<path class="st1" d="M-528.9,144.1c9.8,0,19.7,0,29.5,0c5.6,0,6.9,1.3,6.7,6.8c-0.6,18-15.2,32.6-34.3,34.2
		c-17.3,1.4-34.2-11.4-37.6-28.7c-2.5-12.6,0.4-12.6,9.8-12.4C-546.1,144.2-537.5,144.1-528.9,144.1z M-502.8,153.9
		c-17.4,0-34.8,0-52.3,0c2.4,13.2,14.3,22.5,27.6,21.8C-515.1,175.1-503.9,165.2-502.8,153.9z"/>
	<path class="st1" d="M-457.1,128.2c-4.7,0-9.5,0.1-14.2,0c-4.8-0.1-6.3-1.5-6.3-6.3c0-4-0.1-8,0-12c0.2-11.4,9.4-20.3,20.6-20.3
		c11.1,0,20.2,8.9,20.5,20.1c0.1,4.2,0.1,8.5,0,12.7c-0.1,4-1.6,5.7-5.7,5.7C-447.2,128.3-452.2,128.2-457.1,128.2z M-446.1,118.6
		c0-3.4,0.2-6.3,0-9.3c-0.3-5.2-4.4-9.4-9.5-10c-5.4-0.6-10.6,2.4-11.8,7.5c-0.8,3.7-0.5,7.7-0.8,11.7
		C-460.5,118.6-453.6,118.6-446.1,118.6z"/>
	<path class="st1" d="M-600.8,128.2c-4.9,0-9.7,0.1-14.6,0c-4.2-0.1-5.9-1.7-5.9-5.9c0-5.3-0.3-10.8,0.6-16
		c1.7-10.4,11.3-17.4,21.6-16.5c10.5,0.8,18.6,9.5,18.9,20.1c0.1,4.2,0.1,8.5,0,12.7c-0.1,4-1.6,5.6-5.7,5.7
		C-590.9,128.3-595.8,128.2-600.8,128.2z M-589.9,118.5c0-3.7,0.4-7.2-0.1-10.6c-0.7-5.1-5.4-8.7-10.6-8.7c-5.3,0-10.2,3.7-10.9,8.9
		c-0.4,3.4-0.1,6.9-0.1,10.4C-604.2,118.5-597.1,118.5-589.9,118.5z"/>
	<path class="st1" d="M-405.3-20.4c-9.8,0-19.7,0-29.5,0c-4.1,0-6.2-1.7-6.2-4.8c0-3.1,2.1-4.8,6.2-4.8c19.7,0,39.4,0,59.1,0
		c4.1,0,6.1,1.8,6,5c-0.1,3-2.1,4.6-6,4.6C-385.6-20.4-395.5-20.4-405.3-20.4z"/>
	<path class="st1" d="M-409.5,20.8c8.3,0,16.7,0,25,0c4.1,0,6.3,1.7,6.3,4.7c0,3-2.2,4.9-6.2,4.9c-16.8,0-33.6,0-50.4,0
		c-4.2,0-6.2-1.7-6.3-4.8c0-3.1,2-4.8,6.2-4.8C-426.4,20.7-418,20.8-409.5,20.8z"/>
	<path class="st1" d="M-388.7,5c-8.1,0-16.2,0-24.3,0c-4.3,0-6.7-1.7-6.8-4.7c-0.1-3,2.4-4.9,6.6-4.9c16.4,0,32.9,0,49.3,0
		c3,0,5.5,0.7,6.1,4.1c0.5,3.3-1.8,5.4-5.9,5.5C-372,5-380.4,5-388.7,5z"/>
	<path class="st1" d="M-346.3,20.8c6.1,0,12.2,0,18.3,0c3.7,0,5.9,1.9,5.9,4.7c0,2.8-2.3,4.8-6,4.8c-12.1,0.1-24.2,0.1-36.3,0
		c-3.8,0-5.9-1.8-5.9-4.8c0-3,2.1-4.7,5.9-4.7C-358.2,20.7-352.3,20.8-346.3,20.8z"/>
	<path class="st1" d="M-327.2,5c-5.6,0-11.2,0-16.8,0c-4,0-6.3-1.9-6.3-4.8c0-3,2.3-4.7,6.4-4.7c11.2,0,22.4,0,33.7,0
		c3.7,0,6,1.8,6.1,4.6c0.1,3-2.3,4.9-6.2,4.9C-316,5-321.6,5-327.2,5z"/>
	<path class="st1" d="M-346-30c3.2,0,6.5-0.1,9.7,0c3.5,0.1,5.5,1.9,5.4,4.8c0,2.9-2,4.6-5.6,4.7c-6.6,0.1-13.2,0.1-19.8,0
		c-3.5,0-5.5-1.9-5.4-4.8c0-2.9,2-4.6,5.6-4.7C-352.7-30-349.4-30-346-30z"/>
	<path class="st1" d="M-314.3-20.4c-1.6,0-3.2,0.1-4.9,0c-2.9-0.2-4.7-1.9-4.7-4.8c0-2.7,1.7-4.5,4.4-4.6c3.6-0.2,7.2-0.2,10.8,0
		c2.7,0.2,4.4,2,4.4,4.7c0,2.7-1.7,4.4-4.4,4.7C-310.5-20.3-312.4-20.4-314.3-20.4C-314.3-20.4-314.3-20.4-314.3-20.4z"/>
	<path class="st1" d="M-434.6-4.6c4.4,0,6.6,1.6,6.5,4.8c0,3.2-2.3,4.8-6.6,4.8c-4.1,0-6.3-1.6-6.3-4.7C-441.2-3-439-4.6-434.6-4.6z
		"/>
	<path class="st1" d="M-309.5,30.3c-2.8-0.1-5.1-2.3-5-4.9c0.1-2.7,2.3-4.6,5.2-4.6c2.8,0.1,5.1,2.2,5,4.9
		C-304.2,28.2-306.7,30.4-309.5,30.3z"/>
	<path class="st0" d="M-502.8,153.9c-1,11.3-12.3,21.2-24.7,21.8c-13.3,0.6-25.2-8.7-27.6-21.8
		C-537.7,153.9-520.3,153.9-502.8,153.9z"/>
	<path class="st0" d="M-446.1,118.6c-7.4,0-14.4,0-22.1,0c0.2-4-0.1-8,0.8-11.7c1.2-5.2,6.4-8.2,11.8-7.5c5,0.6,9.1,4.8,9.5,10
		C-445.9,112.3-446.1,115.3-446.1,118.6z"/>
	<path class="st0" d="M-589.9,118.5c-7.2,0-14.2,0-21.7,0c0-3.5-0.4-7,0.1-10.4c0.7-5.2,5.5-8.9,10.9-8.9c5.2,0,9.9,3.7,10.6,8.7
		C-589.5,111.4-589.9,114.9-589.9,118.5z"/>
</g>
<g>
	<path class="st0" d="M134.6,201.2c14.5,0,29.1,0,43.6,0c2.2,0,3.4-0.9,3.5-2.5c0.1-1.7-1.2-2.7-3.4-2.8c-0.3,0-0.6,0-0.8,0
		c-28.5,0-57.1,0-85.6,0c-0.8,0-1.7-0.2-2.2,0.2c-0.8,0.6-1.9,1.7-1.9,2.5c0,0.9,1.2,1.8,2,2.4c0.5,0.3,1.4,0.1,2.1,0.1
		C106.1,201.2,120.4,201.2,134.6,201.2z M134.7,222.6c-13.3,0-26.6,0-39.9,0c-1.5,0-2.9,0-4.4,0c-1.6,0-2.7,0.9-2.8,2.5
		c-0.1,1.8,1,2.7,2.7,2.8c0.4,0,0.8,0,1.3,0c28.7,0,57.3,0,86,0c0.7,0,1.6,0.2,2-0.2c0.8-0.7,2-1.8,1.9-2.5
		c-0.1-0.9-1.3-1.9-2.2-2.5c-0.5-0.3-1.4-0.1-2.1-0.1C163.1,222.6,148.9,222.6,134.7,222.6z M134.6,214.6c14.5,0,29.1,0,43.6,0
		c2.2,0,3.5-1.1,3.5-2.8c-0.1-1.6-1.3-2.6-3.4-2.6c-0.3,0-0.6,0-0.8,0c-28.5,0-57.1,0-85.6,0c-0.8,0-1.7-0.2-2.2,0.2
		c-0.8,0.7-1.9,1.7-1.9,2.6c0,0.8,1,1.8,1.8,2.4c0.5,0.4,1.5,0.2,2.2,0.2C106.1,214.6,120.3,214.6,134.6,214.6z"/>
	<path class="st1" d="M272.1,89.1c-0.2,0.5-0.4,1-0.6,1.5c-1.7,4.8-5.7,7.5-11.2,7.5c-15.2,0-30.4,0-45.5,0c-0.8,0-1.6,0-2.6,0
		c0,1.1,0,1.9,0,2.8c0,22.3,0,44.6,0,67c0,10.8-6.6,17.4-17.4,17.4c-40,0-80,0-120.1,0c-10.9,0-17.5-6.6-17.5-17.5
		c0-21.3,0-42.7,0-64c0-10.7,6.6-17.3,17.4-17.4c8.4,0,16.8,0,25.2,0c0.8,0,1.5,0,2.6,0c0-3.1,0.2-6,0-8.9c-0.4-6.5,3.9-9.1,8.9-8.9
		c6,0.3,12,0.1,18,0.1c0.7,0,1.5,0,2.5,0c0-2.5,0.1-4.8-0.1-7.1c0-0.5-1-1.1-1.7-1.4c-4.6-2-7.3-6.3-7.1-11.3
		c0.2-4.8,3.5-9,8.1-10.4c5.8-1.8,12.1,1.3,14.2,6.9c2.2,5.8-0.5,12.3-6.3,14.6c-1.5,0.6-2,1.3-1.9,2.9c0.1,1.9,0,3.7,0,5.8
		c5.4,0,10.6,0,15.8,0c2.2,0,4.3,0,6.5,0c4.6,0.1,7.4,2.9,7.5,7.5c0.1,3.3,0,6.7,0,10.1c1.9,0,3.6,0,5.5,0c0-0.9,0-1.7,0-2.6
		c0-12.4,0-24.8,0-37.1c0-8.3,4.4-12.7,12.6-12.7c24.5,0,49,0,73.5,0c7.9,0,10.6,1.8,13.6,9.2C272.1,58.3,272.1,73.7,272.1,89.1z
		 M185.8,98.2c-1.2-0.1-2.2-0.1-3.1-0.2c-3.7-0.2-6.6-1.9-8.5-5c-0.7-1.1-1.4-1.4-2.7-1.4c-32.5,0-65.1,0-97.6,0
		c-7,0-11.4,4.4-11.4,11.4c0,21.8,0,43.7,0,65.5c0,6.9,4.4,11.3,11.3,11.3c40.6,0,81.2,0,121.7,0c1,0,2,0,2.9-0.2
		c5-1.2,8.3-5.2,8.3-10.7c0-21.4,0-42.8,0-64.2c0-0.5-0.1-0.9-0.2-1.7c-0.7,0.6-1.3,1-1.8,1.5c-4.7,4.2-9.4,8.4-14.2,12.5
		c-0.8,0.6-2.3,1.1-3.1,0.7c-0.8-0.4-1.4-1.8-1.6-2.8c-0.3-1.4-0.1-2.9-0.1-4.4C185.8,106.4,185.8,102.4,185.8,98.2z M191.1,109.3
		c0.9-0.7,1.4-1.1,1.9-1.5c3.9-3.5,8.1-6.7,11.7-10.5c3.4-3.5,7-4.7,11.9-4.6c14.5,0.3,28.9,0.1,43.4,0.1c4.3,0,6.7-2.1,6.7-6
		c0-13.9,0-27.8,0-41.7c0-3.6-2.3-5.9-6-5.9c-25.7,0-51.3,0-77,0c-3.6,0-6,2.3-6.1,5.8c-0.1,14-0.1,28,0,42c0,3.4,2.4,5.7,5.9,5.9
		c1.2,0.1,2.4,0,3.6,0c3.4,0,4,0.6,4,4C191.1,100.9,191.1,104.9,191.1,109.3z M161.6,86.2c0-3.1,0-6,0-8.9c0-3.1-0.3-3.4-3.3-3.4
		c-15.8,0-31.6,0-47.4,0c-0.5,0-1.1-0.2-1.4,0.1c-0.7,0.4-1.6,1-1.7,1.5c-0.1,3.5-0.1,7.1-0.1,10.7
		C125.8,86.2,143.6,86.2,161.6,86.2z M134.4,55.5c3.4,0,6.3-2.8,6.3-6.2c0-3.3-2.8-6.1-6.1-6.2c-3.4-0.1-6.3,2.8-6.3,6.2
		C128.2,52.7,131,55.5,134.4,55.5z"/>
	<path class="st1" d="M134.6,201.2c-14.3,0-28.5,0-42.8,0c-0.7,0-1.6,0.2-2.1-0.1c-0.9-0.6-2-1.6-2-2.4c0-0.8,1-1.9,1.9-2.5
		c0.5-0.4,1.5-0.2,2.2-0.2c28.5,0,57.1,0,85.6,0c0.3,0,0.6,0,0.8,0c2.3,0.1,3.5,1.1,3.4,2.8c-0.1,1.6-1.3,2.5-3.5,2.5
		C163.7,201.2,149.2,201.2,134.6,201.2z"/>
	<path class="st1" d="M134.7,222.6c14.2,0,28.4,0,42.6,0c0.7,0,1.6-0.2,2.1,0.1c0.9,0.7,2.1,1.6,2.2,2.5c0.1,0.8-1.1,1.9-1.9,2.5
		c-0.4,0.4-1.3,0.2-2,0.2c-28.7,0-57.3,0-86,0c-0.4,0-0.8,0-1.3,0c-1.7-0.2-2.8-1.1-2.7-2.8c0.1-1.6,1.2-2.5,2.8-2.5
		c1.5,0,2.9,0,4.4,0C108.1,222.6,121.4,222.6,134.7,222.6z"/>
	<path class="st1" d="M134.6,214.6c-14.3,0-28.5,0-42.8,0c-0.8,0-1.7,0.2-2.2-0.2c-0.8-0.6-1.9-1.6-1.8-2.4c0-0.9,1.1-1.9,1.9-2.6
		c0.5-0.4,1.5-0.2,2.2-0.2c28.5,0,57.1,0,85.6,0c0.3,0,0.6,0,0.8,0c2.1,0.1,3.4,1,3.4,2.6c0.1,1.7-1.3,2.8-3.5,2.8
		C163.7,214.6,149.2,214.6,134.6,214.6z"/>
	<path class="st0" d="M203.9,58c5.5,0,11,0,16.6,0c2.2,0,3.3-0.9,3.4-2.6c0.1-1.8-1.1-2.8-3.4-2.8c-11,0-22.1,0-33.1,0
		c-2.3,0-3.5,0.9-3.5,2.7c0,1.7,1.2,2.7,3.5,2.7C192.9,58,198.4,58,203.9,58z M201.6,81.1c-4.7,0-9.5,0-14.2,0
		c-2.3,0-3.5,0.9-3.5,2.7c0,1.7,1.2,2.7,3.5,2.7c9.4,0,18.9,0,28.3,0c2.2,0,3.5-1.1,3.5-2.7c0-1.7-1.3-2.6-3.6-2.6
		C210.9,81.1,206.3,81.1,201.6,81.1z M213.2,72.2c4.7,0,9.4,0,14,0c2.3,0,3.6-1.2,3.3-3.1c-0.3-1.9-1.7-2.3-3.4-2.3
		c-9.2,0-18.4,0-27.7,0c-2.4,0-3.7,1-3.7,2.7c0,1.7,1.4,2.6,3.8,2.6C204.2,72.2,208.7,72.2,213.2,72.2z M237,81.1
		c-3.4,0-6.7,0-10.1,0c-2.1,0-3.3,1-3.3,2.6c0,1.7,1.1,2.7,3.3,2.7c6.8,0,13.6,0,20.3,0c2.1,0,3.3-1.1,3.3-2.7
		c0-1.6-1.2-2.6-3.3-2.7C243.9,81.1,240.5,81.1,237,81.1z M247.8,72.2c3.1,0,6.3,0,9.4,0c2.2,0,3.5-1.1,3.5-2.8
		c-0.1-1.6-1.3-2.6-3.4-2.6c-6.3,0-12.6,0-18.9,0c-2.3,0-3.6,1-3.6,2.7c0,1.7,1.3,2.7,3.5,2.7C241.5,72.3,244.6,72.2,247.8,72.2z
		 M237.2,52.6c-1.9,0-3.8,0-5.7,0c-2,0-3.1,1-3.1,2.6c0,1.6,1.1,2.7,3,2.7c3.7,0,7.4,0,11.1,0c2,0,3.1-1,3.1-2.6
		c0-1.6-1.1-2.7-3-2.7C240.8,52.6,239,52.6,237.2,52.6z M255,58C255,58,255,58,255,58c1,0,2.1,0.1,3.1,0c1.5-0.2,2.5-1.1,2.5-2.6
		c0-1.5-0.9-2.5-2.5-2.6c-2-0.1-4.1-0.1-6.1,0c-1.5,0.1-2.5,1.1-2.5,2.6c0,1.6,1,2.6,2.7,2.7C253.2,58,254.1,58,255,58z M187.5,66.8
		c-2.4,0-3.7,0.9-3.6,2.8c0,1.7,1.2,2.6,3.6,2.6c2.5,0,3.7-0.9,3.7-2.7C191.2,67.8,190,66.8,187.5,66.8z M257.7,86.4
		c1.6,0,2.9-1.1,3-2.6c0-1.5-1.2-2.7-2.8-2.7c-1.6,0-2.9,1.1-2.9,2.6C254.9,85.2,256.1,86.4,257.7,86.4z"/>
	<path class="st1" d="M134.6,150.2c5.5,0,11,0,16.6,0c3.2,0,3.9,0.8,3.8,3.8c-0.3,10.1-8.5,18.3-19.2,19.2
		c-9.7,0.8-19.2-6.4-21.1-16.1c-1.4-7.1,0.2-7,5.5-6.9C125,150.3,129.8,150.2,134.6,150.2z M149.2,155.7c-9.8,0-19.5,0-29.3,0
		c1.3,7.4,8,12.6,15.5,12.2C142.3,167.6,148.7,162.1,149.2,155.7z"/>
	<path class="st1" d="M174.9,141.4c-2.7,0-5.3,0-8,0c-2.7,0-3.5-0.9-3.5-3.5c0-2.2,0-4.5,0-6.7c0.1-6.4,5.3-11.4,11.6-11.4
		c6.2,0,11.3,5,11.5,11.3c0.1,2.4,0,4.8,0,7.1c0,2.2-0.9,3.2-3.2,3.2C180.5,141.4,177.7,141.4,174.9,141.4z M181.1,136
		c0-1.9,0.1-3.6,0-5.2c-0.2-2.9-2.5-5.3-5.3-5.6c-3-0.3-6,1.3-6.6,4.2c-0.5,2.1-0.3,4.3-0.4,6.6C173,136,176.9,136,181.1,136z"/>
	<path class="st1" d="M94.3,141.4c-2.7,0-5.4,0-8.2,0c-2.4,0-3.3-1-3.3-3.3c0-3-0.2-6,0.3-9c1-5.8,6.3-9.7,12.1-9.3
		c5.9,0.5,10.5,5.3,10.6,11.3c0.1,2.4,0,4.8,0,7.1c0,2.2-0.9,3.1-3.2,3.2C99.9,141.4,97.1,141.4,94.3,141.4z M100.4,135.9
		c0-2.1,0.2-4,0-5.9c-0.4-2.8-3-4.9-6-4.9c-3,0-5.7,2.1-6.1,5c-0.2,1.9,0,3.8,0,5.8C92.4,135.9,96.4,135.9,100.4,135.9z"/>
	<path class="st1" d="M203.9,58c-5.5,0-11,0-16.6,0c-2.3,0-3.5-0.9-3.5-2.7c0-1.7,1.2-2.7,3.5-2.7c11,0,22.1,0,33.1,0
		c2.3,0,3.4,1,3.4,2.8c-0.1,1.7-1.2,2.6-3.4,2.6C215,58,209.4,58,203.9,58z"/>
	<path class="st1" d="M201.6,81.1c4.7,0,9.4,0,14,0c2.3,0,3.5,0.9,3.6,2.6c0,1.7-1.3,2.7-3.5,2.7c-9.4,0-18.9,0-28.3,0
		c-2.3,0-3.5-0.9-3.5-2.7c0-1.8,1.1-2.7,3.5-2.7C192.1,81.1,196.8,81.1,201.6,81.1z"/>
	<path class="st1" d="M213.2,72.2c-4.5,0-9.1,0-13.6,0c-2.4,0-3.8-0.9-3.8-2.6c0-1.7,1.3-2.7,3.7-2.7c9.2,0,18.4,0,27.7,0
		c1.7,0,3.1,0.4,3.4,2.3c0.3,1.8-1,3-3.3,3.1C222.6,72.3,217.9,72.2,213.2,72.2z"/>
	<path class="st1" d="M237,81.1c3.4,0,6.9,0,10.3,0c2.1,0,3.3,1,3.3,2.7c0,1.6-1.3,2.7-3.3,2.7c-6.8,0-13.6,0-20.3,0
		c-2.1,0-3.3-1-3.3-2.7c0-1.7,1.2-2.6,3.3-2.6C230.3,81.1,233.7,81.1,237,81.1z"/>
	<path class="st1" d="M247.8,72.2c-3.1,0-6.3,0-9.4,0c-2.2,0-3.5-1.1-3.5-2.7c0-1.7,1.3-2.7,3.6-2.7c6.3,0,12.6,0,18.9,0
		c2.1,0,3.4,1,3.4,2.6c0.1,1.7-1.3,2.8-3.5,2.8C254,72.3,250.9,72.2,247.8,72.2z"/>
	<path class="st1" d="M237.2,52.6c1.8,0,3.6,0,5.5,0c2,0.1,3.1,1.1,3,2.7c0,1.6-1.1,2.6-3.1,2.6c-3.7,0-7.4,0-11.1,0
		c-2,0-3.1-1.1-3-2.7c0-1.6,1.1-2.6,3.1-2.6C233.4,52.6,235.3,52.6,237.2,52.6z"/>
	<path class="st1" d="M255,58c-0.9,0-1.8,0.1-2.7,0c-1.6-0.1-2.6-1.1-2.7-2.7c0-1.5,1-2.5,2.5-2.6c2-0.1,4.1-0.1,6.1,0
		c1.5,0.1,2.5,1.1,2.5,2.6c0,1.5-1,2.5-2.5,2.6C257.1,58.1,256,58,255,58C255,58,255,58,255,58z"/>
	<path class="st1" d="M187.5,66.8c2.5,0,3.7,0.9,3.7,2.7c0,1.8-1.3,2.7-3.7,2.7c-2.3,0-3.5-0.9-3.6-2.6
		C183.8,67.8,185.1,66.9,187.5,66.8z"/>
	<path class="st1" d="M257.7,86.4c-1.6,0-2.8-1.3-2.8-2.8c0-1.5,1.3-2.6,2.9-2.6c1.6,0,2.9,1.3,2.8,2.7
		C260.6,85.3,259.3,86.5,257.7,86.4z"/>
</g>
</svg>
