<?xml version="1.0" encoding="utf-8"?>
<!-- Generator: Adobe Illustrator 24.1.0, SVG Export Plug-In . SVG Version: 6.00 Build 0)  -->
<svg version="1.1" id="Layer_1" xmlns="http://www.w3.org/2000/svg" xmlns:xlink="http://www.w3.org/1999/xlink" x="0px" y="0px"
	 viewBox="0 0 792 612" style="enable-background:new 0 0 792 612;" xml:space="preserve">
<style type="text/css">
	.st0{fill:#FFFFFF;}
</style>
<g>
	<path class="st0" d="M482.2,114c6.8,0,13.5,0,20.2,0c3.4,0.5,6.9,0.9,10.3,1.5c36.4,6.4,61,26.4,71.7,62.4
		c1.4,4.9,2.4,9.9,3.5,14.8c0,11.5,0,23,0,34.5c-0.2,0.5-0.5,0.9-0.5,1.4c-3.2,26.3-11.8,50.9-23.2,74.7c-0.8,1.6-0.7,4.2,0.1,5.8
		c7.9,16.5,14.5,33.4,18.8,51.1c1.9,8.1,3.2,16.3,4.8,24.5c0,11,0,22,0,33c-0.5,2.3-1,4.6-1.4,6.9c-6.8,34.9-26.6,58.5-61,68.8
		c-7.5,2.2-15.4,3.1-23,4.5c-6.8,0-13.5,0-20.2,0c-4.4-0.6-8.9-1.2-13.3-1.9c-23.9-3.7-46.5-11.4-68.1-22.1
		c-3.1-1.5-5.6-1.4-8.7,0.1c-20.1,9.9-41.1,17.4-63.3,21.2c-6.1,1.1-12.3,1.8-18.5,2.7c-6.5,0-13,0-19.5,0c-3.3-0.5-6.6-1-9.9-1.5
		c-23.1-3.7-42.8-13.4-57.2-32.3c-13.4-17.4-18.6-37.6-19-59.2c-0.5-23.3,4.5-45.6,12.3-67.4c0.9-2.6,0.8-4-1.3-6
		c-12.8-12.1-14.7-31.7-4.7-45.8c2.2-3,6.1-5.8,6.5-9c0.4-3.5-2.3-7.5-3.5-11.3c-8-26.1-12.6-52.6-7-79.7
		c7.4-36,28.8-59.3,64.8-68.3c6.7-1.7,13.7-2.4,20.6-3.6c5.8,0,11.5,0,17.2,0c2.8,0.4,5.6,0.8,8.5,1.1c26.1,3,50.5,11.3,74,22.8
		c3.1,1.5,5.5,1.6,8.6,0.1c18.9-9.3,38.5-16.5,59.2-20.4C467.5,116.2,474.9,115.2,482.2,114z M260.9,335.5c0.6,0.9,1,1.6,1.5,2.3
		c21.7,32,47.8,59.9,77.8,84.2c16.7,13.6,34.5,25.6,53.5,35.8c1.2,0.6,3.1,1.4,4.1,0.8c7.5-4.1,14.9-8.4,22.2-12.6
		c-4.9-15.2-4.1-27.2,2-34c3,1.8,6,3.6,8.9,5.4c-5.4,15.5-2.3,26.9,9,33.6c9.9,5.8,22.4,4,30.2-4.3c8-8.6,8.8-21.6,1.9-31
		c-3.4-4.6-7.8-7.7-13.3-9.2c-7.7-2-14.8-0.5-21.4,4.1c-2.4-3-4.5-5.8-6.7-8.6c12.8-10.2,28.5-9.9,44.7,0.5c0.3-0.2,0.7-0.4,0.9-0.6
		c29-27.4,53.6-58.2,72.6-93.4c0.7-1.3,0.7-3.8-0.1-5c-9.9-15.6-19.9-31.1-30.2-46.4c-3-4.5-6.8-8.6-10.1-12.8
		c-19,10.9-35.9,4.5-45-4.4c-11.8-11.7-13.5-26.3-4.9-45.7c-0.4-0.2-0.9-0.5-1.4-0.9c-18-15-37.3-28.1-57.8-39.4
		c-2.1-1.1-3.6-0.8-5.5,0.2c-53.3,29.4-96.5,69.8-131.1,119.7c-0.6,0.9-1.2,1.8-1.7,2.7c0.3-0.2,0.7-0.4,1-0.6
		c1.8,2.2,3.6,4.5,5.4,6.8c1.7,2.3,3.3,4.6,5.2,7.2c-3.6,1.8-6.8,3.4-9.9,5c-10.6-13.1-21.4-16.5-33.2-10.6
		c-10.3,5.2-15.6,16.8-12.6,28.1c2.8,10.9,13.4,18.7,24.6,18c5.8-0.3,10.9-2.3,15.3-6.2c5.9-5.4,8.3-12.2,8.1-20.3
		c3.8-0.3,7.3-0.6,10.8-0.9C277.1,315,272.9,324.3,260.9,335.5z M517.2,235.5c13.4,19.3,26.5,38.2,39.9,57.3
		c3.4-8.8,7.2-17.7,10.2-26.9c8-24.1,12.7-48.6,8.7-74.1c-4.4-27.7-18.5-48.4-44.9-59.7c-11.7-4.9-24-6.8-36.6-6.9
		c-23.7-0.2-46.3,5.4-68.2,13.8c-5.7,2.2-11.2,4.7-16.1,6.7c19,13.2,37.9,26.4,57,39.7c14-8.6,29.5-9.3,39.1-1.5
		c-1.8,3-3.6,6.1-5.4,9.1c-14.2-5.8-26.2-2.7-33.1,8.1c-6.4,10-4.6,23,4.1,31.1c8.5,7.9,21.9,8.6,31,1.5c12.3-9.6,12.2-23.9,5-34.7
		c2.8-2.2,5.6-4.4,8.4-6.5C524.2,201.5,528.5,219.6,517.2,235.5z M384.2,146c-8.7-3.4-16.9-7-25.3-9.9c-24.8-8.5-50.1-13.3-76.5-9.4
		c-32.4,4.8-55.8,25.7-63.5,57.6c-5,20.4-3.4,40.7,1.3,60.8c2.1,9.2,5.1,18.2,7.6,27.1c3.7-0.6,6.7-1.4,9.6-1.6
		c3.1-0.2,6.4-0.4,9.3,0.4c3.3,0.9,4.6-0.4,6.3-2.8c27.8-40.9,62.1-75.5,102.7-103.8C364.7,158.1,374.2,152.4,384.2,146z
		 M384.2,465.6c-1.2-0.7-1.8-1.1-2.5-1.5c-34.3-19.7-64.5-44.5-91.4-73.4c-13.9-14.9-26.6-30.8-38-47.7c-0.7-1.1-2.3-2.5-3.2-2.4
		c-7,1.5-13.8,1-20.9-1c-9.1,25.1-14.4,50.5-11.5,77.2c4.1,37,29.7,63.4,66.5,68.5c20.8,2.9,41.1,0.3,61.1-5
		C357.9,476.8,371,471.9,384.2,465.6z M557.1,318.8c-20.6,34.8-45.5,65.2-74.3,92.4c0.7,1.5,1.3,2.7,1.9,3.9
		c6.9,15.1,2.5,33-10.7,43.1c-13.5,10.4-31.6,9.9-45-1.2c-0.9-0.8-2.8-1.5-3.6-1.1c-5.3,2.9-10.5,6.2-15.9,9.5
		c0.4,0.4,0.7,0.7,1,0.8c4.6,2,9.1,4,13.8,5.9c26.2,10.2,53,16.5,81.5,14c39.7-3.6,67.8-32.2,71-72c1.8-21.9-1.5-43.1-8.2-63.8
		C565.2,339.6,561,329.2,557.1,318.8z"/>
	<path class="st0" d="M327.1,364c7,0,13.4,0,20.2,0c0-5,0-9.8,0-15c3.9,0,7.4,0,11.3,0c0,4.9,0,9.7,0,15c4.8,0,9.2,0,13.8,0
		c0,3.9,0,7.4,0,11.1c-22.5,0-45,0-67.8,0c0-3.5,0-6.9,0-10.9c3.6,0,7.2,0,11.2,0c0-9.1-0.1-17.7,0-26.3c0-3.1,0.2-6.3,1-9.3
		c2.9-10.6,10-17.4,20.5-20.4c11-3.1,22.1-6.3,33.2-9.2c2.8-0.8,3.9-1.8,4-5c0.3-6.9-0.7-12.3-6.6-17.2c-6.6-5.4-10-13.6-10.3-22.2
		c-0.3-10.1-0.9-20.4,1-30.2c3.6-18.7,22-31.7,40.5-30.1c20.1,1.8,35.5,16.9,36.6,36.6c0.4,7.5,0.4,15,0,22.5
		c-0.6,11-5.6,20.1-14.1,27.1c-2.1,1.8-3.2,3.5-3,6.3c0.3,3.6-1,8.2,0.8,10.5c1.8,2.3,6.5,2.4,9.9,3.5c3.9,1.2,7.9,2.3,12.3,3.6
		c-1,3.5-1.9,6.9-3,10.7c-6.8-1.9-13.4-3.6-19.9-5.6c-2.4-0.7-4-0.5-6,1.2c-9.5,8.1-23.1,8-32.6-0.2c-1.7-1.5-3.1-1.8-5.3-1.2
		c-11.5,3.4-23,6.5-34.5,9.8c-8.5,2.4-13.2,8.5-13.2,17.3C327.1,345.6,327.1,354.6,327.1,364z M368.9,235.9c0,6.4-0.5,12.4,0.1,18.4
		c1.2,12.3,11.7,22.6,23.7,24c13.6,1.6,26-5.7,30.3-18c0.5-1.3,0.2-3.5-0.6-4.6c-4.2-6-8.7-11.9-13.3-17.6c-1-1.2-3-2.2-4.6-2.2
		c-10.9-0.2-21.7-0.1-32.6-0.1C370.9,235.7,369.9,235.8,368.9,235.9z M424.4,239.6c2.3-17.7-8.4-31.6-25.1-33.7
		c-12.3-1.5-27.3,8.1-28.4,18.6c12.7,0,25.5,0.1,38.2-0.1c3,0,4.8,0.9,6.5,3.3C418.2,231.5,421.1,235.2,424.4,239.6z M386.1,289.2
		c-1.4,8.9-0.7,11.8,3.2,14.3c4.7,2.9,11,2.8,15.5-0.5c5.4-3.9,1.7-9.3,2.7-13.7C400.2,289.2,393.3,289.2,386.1,289.2z"/>
	<path class="st0" d="M434.5,364.4c0-5.3,0-10.1,0-15.3c3.9,0,7.4,0,11.4,0c0,4,0.1,8,0,12c-0.1,2.4,0.7,3.3,3.2,3.2
		c4.7-0.2,9.5-0.1,14.2,0c2.4,0.1,3-0.9,3-3.1c-0.1-8.1,0-16.2-0.1-24.4c-0.1-9-4.6-14.9-13.1-17.5c-1-0.3-2.1-0.7-3.4-1.2
		c1-3.5,1.9-6.8,2.8-10.1c11.9,0.6,23.3,11.2,24.4,23.7c0.8,9.2,0.4,18.5,0.6,27.7c0,1.5,0,2.9,0,4.8c4,0,7.6,0,11.4,0
		c0,3.9,0,7.3,0,11c-34.9,0-69.7,0-104.7,0c0-3.5,0-7,0-11C400.9,364.4,417.5,364.4,434.5,364.4z"/>
	<path class="st0" d="M426.5,335.2c-5.4-1.5-10.4-3-15.8-4.5c1-3.7,2-7,3-10.8c5.3,1.5,10.3,2.9,15.8,4.4
		C428.4,328,427.5,331.4,426.5,335.2z"/>
	<path class="st0" d="M235,311.4c0-3.8,0-7.2,0-10.9c3.6,0,7.1,0,10.8,0c0,3.6,0,7.1,0,10.9C242.2,311.4,238.8,311.4,235,311.4z"/>
	<path class="st0" d="M437.3,338.2c1.1-3.8,2.1-7.1,3.1-10.8c3.6,1,7,2,10.7,3c-1,3.7-2,7.1-3,10.8
		C444.5,340.2,441.1,339.3,437.3,338.2z"/>
	<path class="st0" d="M457.7,424.7c0,3.7,0,7.1,0,10.7c-3.6,0-7.1,0-10.8,0c0-3.6,0-7,0-10.7C450.4,424.7,453.9,424.7,457.7,424.7z"
		/>
	<path class="st0" d="M493.8,208.9c0,3.6,0,7.1,0,10.7c-3.6,0-7,0-10.7,0c0-3.4,0-6.9,0-10.7C486.5,208.9,490,208.9,493.8,208.9z"/>
</g>
</svg>
