<?xml version="1.0" encoding="utf-8"?>
<!-- Generator: Adobe Illustrator 24.1.0, SVG Export Plug-In . SVG Version: 6.00 Build 0)  -->
<svg version="1.1" id="Layer_1" xmlns="http://www.w3.org/2000/svg" xmlns:xlink="http://www.w3.org/1999/xlink" x="0px" y="0px"
	 viewBox="0 0 792 612" style="enable-background:new 0 0 792 612;" xml:space="preserve">
<style type="text/css">
	.st0{fill:#F1AA6B;}
</style>
<g>
	<path class="st0" d="M482.25,114c6.75,0,13.5,0,20.25,0c3.44,0.51,6.89,0.94,10.31,1.54c36.43,6.41,61.04,26.44,71.67,62.44
		c1.43,4.85,2.36,9.85,3.52,14.77c0,11.5,0,23,0,34.5c-0.18,0.46-0.48,0.91-0.54,1.38c-3.23,26.29-11.82,50.9-23.21,74.66
		c-0.76,1.58-0.65,4.18,0.13,5.8c7.89,16.46,14.53,33.39,18.78,51.15c1.94,8.09,3.24,16.33,4.84,24.5c0,11,0,22,0,33
		c-0.48,2.31-0.99,4.61-1.44,6.93c-6.79,34.94-26.56,58.51-61.01,68.78c-7.47,2.23-15.35,3.07-23.04,4.54c-6.75,0-13.5,0-20.25,0
		c-4.42-0.63-8.85-1.2-13.27-1.89c-23.88-3.68-46.46-11.43-68.07-22.06c-3.14-1.54-5.58-1.42-8.66,0.1
		c-20.14,9.89-41.12,17.35-63.29,21.19c-6.12,1.06-12.3,1.78-18.45,2.66c-6.5,0-13,0-19.5,0c-3.31-0.5-6.62-0.99-9.92-1.51
		c-23.07-3.68-42.77-13.44-57.25-32.26c-13.4-17.42-18.55-37.63-19.02-59.22c-0.5-23.28,4.5-45.61,12.29-67.39
		c0.93-2.6,0.78-4.05-1.3-6.03c-12.77-12.12-14.71-31.66-4.7-45.77c2.17-3.05,6.06-5.75,6.46-8.95c0.45-3.55-2.3-7.47-3.46-11.28
		c-8-26.08-12.6-52.56-6.98-79.73c7.44-35.99,28.75-59.31,64.77-68.32c6.74-1.69,13.73-2.39,20.61-3.55c5.75,0,11.5,0,17.25,0
		c2.83,0.37,5.65,0.77,8.48,1.1c26.07,3.04,50.55,11.31,74.02,22.77c3.09,1.51,5.52,1.6,8.65,0.06
		c18.87-9.29,38.52-16.46,59.24-20.39C467.48,116.15,474.88,115.17,482.25,114z M260.94,335.53c0.58,0.88,1.05,1.61,1.54,2.33
		c21.74,31.95,47.83,59.88,77.82,84.21c16.72,13.56,34.48,25.6,53.48,35.77c1.2,0.64,3.12,1.35,4.06,0.84
		c7.54-4.06,14.93-8.41,22.25-12.61c-4.89-15.2-4.13-27.21,1.99-34.05c2.97,1.78,5.95,3.58,8.9,5.35
		c-5.41,15.51-2.33,26.91,8.95,33.58c9.85,5.82,22.41,4.02,30.18-4.33c7.98-8.57,8.8-21.62,1.89-31.02
		c-3.36-4.58-7.78-7.71-13.31-9.16c-7.7-2.02-14.78-0.45-21.44,4.11c-2.36-3.03-4.54-5.84-6.72-8.65
		c12.83-10.2,28.53-9.93,44.74,0.52c0.3-0.19,0.66-0.35,0.92-0.6c29.01-27.39,53.63-58.19,72.56-93.39c0.7-1.31,0.67-3.78-0.11-5.01
		c-9.92-15.57-19.94-31.07-30.17-46.44c-3.02-4.53-6.75-8.58-10.11-12.8c-18.99,10.88-35.9,4.54-44.98-4.42
		c-11.84-11.67-13.53-26.34-4.85-45.67c-0.35-0.21-0.94-0.48-1.42-0.87c-18.02-14.97-37.26-28.13-57.81-39.38
		c-2.07-1.13-3.61-0.83-5.51,0.22c-53.29,29.4-96.48,69.84-131.06,119.71c-0.61,0.89-1.16,1.82-1.74,2.73
		c0.34-0.21,0.69-0.42,1.03-0.63c1.8,2.25,3.64,4.46,5.37,6.76c1.72,2.28,3.32,4.64,5.19,7.25c-3.58,1.8-6.78,3.4-9.92,4.97
		c-10.6-13.09-21.45-16.52-33.16-10.65c-10.31,5.17-15.56,16.84-12.63,28.1c2.83,10.91,13.43,18.67,24.61,18.05
		c5.82-0.32,10.95-2.33,15.28-6.25c5.92-5.36,8.34-12.22,8.15-20.26c3.79-0.33,7.3-0.64,10.8-0.94
		C277.15,315.05,272.93,324.29,260.94,335.53z M517.17,235.52c13.41,19.29,26.54,38.16,39.86,57.31c3.36-8.75,7.17-17.7,10.25-26.89
		c8.05-24.05,12.74-48.6,8.71-74.05c-4.39-27.74-18.5-48.42-44.9-59.65c-11.65-4.95-23.98-6.85-36.57-6.95
		c-23.7-0.18-46.27,5.37-68.22,13.83c-5.66,2.18-11.2,4.66-16.13,6.72c18.96,13.21,37.86,26.38,56.99,39.71
		c13.96-8.55,29.49-9.33,39.14-1.47c-1.81,3.02-3.63,6.07-5.42,9.06c-14.21-5.76-26.21-2.71-33.1,8.13
		c-6.37,10.01-4.64,23.01,4.14,31.09c8.55,7.86,21.87,8.62,31.02,1.48c12.29-9.6,12.18-23.91,4.97-34.65
		c2.8-2.17,5.61-4.36,8.4-6.53C524.22,201.53,528.49,219.61,517.17,235.52z M384.22,145.98c-8.66-3.4-16.87-6.99-25.31-9.89
		c-24.82-8.52-50.12-13.28-76.53-9.41c-32.37,4.75-55.76,25.74-63.51,57.55c-4.96,20.38-3.38,40.69,1.33,60.84
		c2.14,9.18,5.05,18.17,7.56,27.08c3.74-0.63,6.66-1.38,9.61-1.56c3.09-0.19,6.37-0.4,9.29,0.4c3.27,0.9,4.62-0.35,6.26-2.77
		c27.85-40.92,62.13-75.53,102.74-103.81C364.74,158.09,374.25,152.39,384.22,145.98z M384.19,465.59
		c-1.18-0.71-1.81-1.11-2.45-1.48c-34.27-19.7-64.49-44.45-91.38-73.35c-13.89-14.93-26.59-30.8-38.03-47.7
		c-0.73-1.07-2.34-2.55-3.21-2.36c-6.99,1.55-13.84,1.05-20.85-1.03c-9.08,25.13-14.45,50.51-11.5,77.21
		c4.09,37.04,29.74,63.35,66.51,68.48c20.81,2.9,41.07,0.34,61.14-5.01C357.93,476.77,370.96,471.86,384.19,465.59z M557.07,318.76
		c-20.61,34.75-45.46,65.17-74.27,92.44c0.71,1.47,1.33,2.68,1.9,3.92c6.92,15.07,2.47,33.02-10.68,43.08
		c-13.54,10.36-31.62,9.85-44.99-1.16c-0.93-0.76-2.84-1.52-3.63-1.08c-5.34,2.94-10.5,6.21-15.85,9.45
		c0.41,0.35,0.66,0.68,0.98,0.82c4.58,1.97,9.13,4.04,13.78,5.85c26.22,10.19,53.05,16.55,81.53,13.97
		c39.65-3.59,67.85-32.24,71.03-71.97c1.75-21.93-1.5-43.1-8.18-63.83C565.25,339.61,560.97,329.25,557.07,318.76z"/>
	<path class="st0" d="M327.14,364.05c6.96,0,13.39,0,20.19,0c0-5.02,0-9.84,0-14.96c3.88,0,7.4,0,11.28,0c0,4.88,0,9.7,0,15.01
		c4.76,0,9.18,0,13.84,0c0,3.94,0,7.39,0,11.15c-22.49,0-45.02,0-67.82,0c0-3.46,0-6.89,0-10.89c3.57,0,7.22,0,11.25,0
		c0-9.14-0.09-17.74,0.05-26.33c0.05-3.1,0.21-6.3,1.02-9.26c2.9-10.65,9.95-17.35,20.5-20.35c11.03-3.14,22.07-6.27,33.16-9.21
		c2.82-0.75,3.88-1.84,4.03-5.01c0.32-6.86-0.71-12.29-6.63-17.2c-6.57-5.44-10.05-13.56-10.29-22.21
		c-0.28-10.06-0.85-20.4,1.01-30.18c3.56-18.73,22.02-31.7,40.54-30.09c20.15,1.75,35.45,16.85,36.61,36.57
		c0.44,7.47,0.4,15-0.01,22.47c-0.6,11.04-5.58,20.1-14.06,27.11c-2.14,1.76-3.25,3.47-2.99,6.28c0.33,3.58-0.98,8.17,0.8,10.5
		c1.77,2.33,6.49,2.43,9.93,3.47c3.94,1.18,7.89,2.31,12.28,3.6c-0.98,3.51-1.93,6.91-3,10.74c-6.82-1.9-13.41-3.62-19.92-5.61
		c-2.4-0.73-3.99-0.46-6,1.24c-9.53,8.09-23.09,7.98-32.61-0.17c-1.72-1.47-3.1-1.84-5.32-1.18c-11.48,3.39-23.04,6.53-34.55,9.82
		c-8.47,2.42-13.18,8.55-13.25,17.29C327.08,345.63,327.14,354.62,327.14,364.05z M368.87,235.91c0,6.43-0.5,12.45,0.1,18.36
		c1.25,12.33,11.67,22.56,23.69,23.98c13.57,1.6,25.96-5.66,30.29-18c0.47-1.34,0.18-3.48-0.64-4.63c-4.25-6-8.68-11.88-13.3-17.6
		c-0.98-1.22-3.01-2.21-4.58-2.24c-10.85-0.19-21.7-0.11-32.56-0.09C370.91,235.69,369.94,235.83,368.87,235.91z M424.44,239.56
		c2.34-17.69-8.41-31.64-25.12-33.72c-12.31-1.53-27.27,8.14-28.43,18.6c12.74,0,25.45,0.1,38.16-0.08c2.97-0.04,4.82,0.9,6.46,3.29
		C418.16,231.52,421.12,235.17,424.44,239.56z M386.08,289.25c-1.36,8.91-0.72,11.81,3.23,14.26c4.69,2.91,11.02,2.75,15.49-0.51
		c5.36-3.91,1.7-9.34,2.72-13.74C400.2,289.25,393.32,289.25,386.08,289.25z"/>
	<path class="st0" d="M434.53,364.35c0-5.32,0-10.15,0-15.27c3.91,0,7.43,0,11.4,0c0,4.04,0.11,8.02-0.04,11.98
		c-0.09,2.42,0.69,3.33,3.19,3.24c4.74-0.16,9.5-0.15,14.25-0.01c2.36,0.07,2.98-0.87,2.96-3.08c-0.1-8.12,0.03-16.25-0.06-24.37
		c-0.1-8.95-4.6-14.87-13.06-17.46c-1.05-0.32-2.08-0.72-3.38-1.18c0.97-3.49,1.89-6.82,2.8-10.11
		c11.91,0.57,23.28,11.22,24.38,23.66c0.81,9.18,0.42,18.47,0.56,27.71c0.02,1.46,0,2.92,0,4.79c4.04,0,7.6,0,11.35,0
		c0,3.87,0,7.32,0,11.04c-34.86,0-69.66,0-104.67,0c0-3.55,0-6.99,0-10.95C400.85,364.35,417.5,364.35,434.53,364.35z"/>
	<path class="st0" d="M426.47,335.23c-5.42-1.55-10.4-2.97-15.83-4.52c1.03-3.66,1.99-7.04,3.04-10.76
		c5.29,1.49,10.27,2.88,15.75,4.42C428.44,328,427.51,331.41,426.47,335.23z"/>
	<path class="st0" d="M234.96,311.43c0-3.75,0-7.2,0-10.86c3.63,0,7.07,0,10.8,0c0,3.61,0,7.13,0,10.86
		C242.23,311.43,238.78,311.43,234.96,311.43z"/>
	<path class="st0" d="M437.31,338.23c1.1-3.83,2.06-7.15,3.09-10.75c3.64,1.02,6.95,1.95,10.74,3.02c-1.02,3.66-1.97,7.06-3,10.79
		C444.48,340.25,441.07,339.29,437.31,338.23z"/>
	<path class="st0" d="M457.72,424.71c0,3.7,0,7.12,0,10.74c-3.65,0-7.06,0-10.75,0c0-3.57,0-6.99,0-10.74
		C450.41,424.71,453.92,424.71,457.72,424.71z"/>
	<path class="st0" d="M493.84,208.91c0,3.64,0,7.06,0,10.74c-3.56,0-6.98,0-10.73,0c0-3.44,0-6.95,0-10.74
		C486.52,208.91,489.95,208.91,493.84,208.91z"/>
</g>
</svg>
