<?xml version="1.0" encoding="utf-8"?>
<!-- Generator: Adobe Illustrator 24.1.0, SVG Export Plug-In . SVG Version: 6.00 Build 0)  -->
<svg version="1.1" id="Layer_1" xmlns="http://www.w3.org/2000/svg" xmlns:xlink="http://www.w3.org/1999/xlink" x="0px" y="0px"
	 viewBox="0 0 294.3 221.9" style="enable-background:new 0 0 294.3 221.9;" xml:space="preserve">
<style type="text/css">
	.st0{fill:#F0A160;}
	.st1{fill:#FFFFFF;}
	.st2{enable-background:new    ;}
	.st3{font-family:'Montserrat-SemiBold';}
	.st4{font-size:12px;}
	.st5{fill:none;}
	.st6{font-family:'Montserrat-Medium';}
	.st7{font-size:9px;}
</style>
<path id="Rectangle_117_4_" class="st0" d="M26.6,15.7h246c7.2,0,13,5.8,13,13v169c0,7.2-5.8,13-13,13h-246c-7.2,0-13-5.8-13-13
	v-169C13.6,21.5,19.4,15.7,26.6,15.7z"/>
<path id="Rectangle_118_4_" class="st1" d="M154,31.7h109c3.9,0,7,3.1,7,7v154c0,3.9-3.1,7-7,7H154c-3.9,0-7-3.1-7-7v-154
	C147,34.8,150.1,31.7,154,31.7z"/>
<g>
	<g id="Group_8" transform="translate(0 0.427)">
		<g id="Group_7">
			<path id="Path_65" class="st1" d="M113.9,76.3L113.9,76.3L113.9,76.3l-4.9-0.7c-0.7-0.1-1.2-0.7-1.1-1.4c0-0.3,0.2-0.6,0.5-0.8
				l4-3c0.6-0.4,0.7-1.2,0.3-1.8l-4.6-6.1c-0.4-0.6-1.2-0.7-1.8-0.3l-4,3c-0.6,0.4-1.4,0.3-1.8-0.2c-0.2-0.3-0.3-0.6-0.2-1l0.7-4.9
				c0.1-0.7-0.4-1.3-1.1-1.4l0,0l-7.5-1.1c-0.7-0.1-1.3,0.4-1.4,1.1l0,0l-0.7,4.9c-0.1,0.7-0.7,1.2-1.4,1.1c-0.3,0-0.6-0.2-0.8-0.5
				l-3-4c-0.4-0.6-1.2-0.7-1.8-0.3l-3.8,2.9c-1.7-0.2-3.5-0.2-5.2,0C62.9,63.1,54,72.1,52.9,83.4c0,0.4,0,0.7-0.1,1.1h-0.4
				c-0.6,0-1.1,0.4-1.2,1l-0.9,4.2l-3.5-2.4c-0.5-0.3-1.2-0.3-1.6,0.1l-3.8,3.8c-0.4,0.4-0.5,1.1-0.1,1.6l2.4,3.5l-4.2,0.9
				c-0.6,0.1-1,0.6-1,1.2v5.1c0,0.6,0.4,1.1,1,1.2l4.2,0.9l-2.4,3.5c-0.3,0.5-0.3,1.2,0.1,1.6l3.8,3.8c0.4,0.4,1.1,0.5,1.6,0.1
				l3.5-2.4l0.9,4.2c0.1,0.6,0.6,1,1.2,1h5.1c0.6,0,1.1-0.4,1.2-1l0.9-4.2l3.5,2.4c0.5,0.3,1.2,0.3,1.6-0.1l2-2v3.6
				c0,1.8,1,3.5,2.5,4.4v7.1c0,2.8,2.3,5.1,5.1,5.1h5.1c2.8,0,5.1-2.3,5.1-5.1v-7.1c1.6-0.9,2.5-2.6,2.5-4.4v-5
				c0-2.1,1.1-4.1,2.9-5.2c1.1-0.7,2.1-1.4,3-2.3l-1.7-1.9c-0.8,0.8-1.7,1.4-2.7,2c-2.5,1.6-4.1,4.3-4.1,7.3v5
				c0,1.4-1.1,2.5-2.5,2.5H71.8c-1.4,0-2.5-1.1-2.5-2.5v-5.1c0-2.9-1.5-5.6-4-7.2c-10.1-6.3-13.1-19.6-6.8-29.7
				c3.9-6.2,10.8-10,18.1-10.1c0,0,0,0.1,0,0.1c0,0.3,0,0.7,0.2,0.9l3,4c0.3,0.4,0.3,1,0.1,1.4c-0.3,0.4-0.8,0.7-1.3,0.6l-4.9-0.7
				c-0.7-0.1-1.3,0.4-1.4,1.1l0,0l-1.1,7.5c-0.1,0.7,0.4,1.3,1.1,1.4c0,0,0,0,0,0l0,0l4.9,0.7c0.7,0.1,1.2,0.7,1.1,1.4
				c0,0.3-0.2,0.6-0.5,0.8l-4,3c-0.6,0.4-0.7,1.2-0.3,1.8l4.6,6.1c0.4,0.6,1.2,0.7,1.8,0.3l4-3c0.6-0.4,1.4-0.3,1.8,0.3
				c0.2,0.3,0.3,0.6,0.2,0.9l-0.7,4.9c-0.1,0.7,0.4,1.3,1.1,1.4l0,0l7.5,1.1c0.1,0,0.1,0,0.2,0c0.6,0,1.2-0.5,1.3-1.1l0.7-4.9
				c0.1-0.7,0.7-1.2,1.4-1.1c0.3,0,0.6,0.2,0.8,0.5l3,4c0.4,0.6,1.2,0.7,1.8,0.3l6.1-4.6c0.6-0.4,0.7-1.2,0.3-1.8l-3-4
				c-0.3-0.4-0.3-1-0.1-1.4c0.3-0.4,0.8-0.7,1.3-0.6l4.9,0.7c0.7,0.1,1.3-0.4,1.4-1.1l0,0l1.1-7.5C115.1,77.1,114.6,76.4,113.9,76.3
				C113.9,76.3,113.9,76.3,113.9,76.3z M71.8,121.3H82v2.5H71.8V121.3z M71.8,126.4H82v1.3c0,1.4-1.1,2.5-2.5,2.5h-5.1
				c-1.4,0-2.5-1.1-2.5-2.5L71.8,126.4z M61.7,104.5c0.7,0.6,1.4,1.1,2.2,1.6c1.2,0.8,2.1,1.9,2.6,3.2l-2.7,2.7l-2.6-1.8
				c-1.2-0.8-2.7-0.5-3.5,0.6c-0.2,0.3-0.3,0.6-0.4,0.9l-0.7,3.2h-3l-0.7-3.2c-0.3-1.4-1.6-2.3-3-2c-0.3,0.1-0.6,0.2-0.9,0.4
				l-2.6,1.8l-2.3-2.3l1.8-2.6c0.8-1.2,0.5-2.7-0.6-3.5c-0.3-0.2-0.6-0.3-0.9-0.4l-3.2-0.7v-3l3.2-0.7c1.4-0.3,2.2-1.6,2-3
				c-0.1-0.3-0.2-0.6-0.4-0.9l-1.8-2.6l2.3-2.3l2.6,1.8c1.2,0.8,2.7,0.5,3.5-0.7c0.2-0.3,0.3-0.6,0.4-0.9l0.2-1.1
				c0.2,1.5,0.5,2.9,1,4.3c-4.2,0.5-7.2,4.3-6.7,8.5c0.5,4.2,4.3,7.2,8.5,6.7C58.4,108.3,60.6,106.7,61.7,104.5z M59.8,102.7
				c-0.9,2.6-3.9,4-6.5,3.1s-4-3.9-3.1-6.5c0.7-2,2.6-3.4,4.8-3.4h0C56.2,98.4,57.8,100.7,59.8,102.7z M111.6,83.7l-3.7-0.5
				c-2.1-0.3-4,1.2-4.3,3.2c-0.1,1,0.1,2,0.7,2.8l2.2,3l-4.1,3l-2.2-3c-1.3-1.7-3.6-2-5.3-0.8c-0.8,0.6-1.3,1.5-1.5,2.5l-0.5,3.7
				l-5-0.7l0.5-3.7c0.3-2.1-1.1-4-3.2-4.3c-1-0.1-2,0.1-2.8,0.7l-3,2.2l-3-4.1l3-2.2c1.7-1.3,2-3.6,0.8-5.3
				c-0.6-0.8-1.5-1.3-2.5-1.5l-3.7-0.5l0.7-5l3.7,0.5c2.1,0.3,4-1.1,4.3-3.2c0.1-1-0.1-2-0.7-2.8l-2.2-3l4.1-3l2.2,3
				c1.3,1.7,3.6,2,5.3,0.8c0.8-0.6,1.3-1.5,1.5-2.5l0.5-3.7l5,0.7l-0.5,3.7c-0.3,2.1,1.2,4,3.2,4.3c1,0.1,2-0.1,2.8-0.7l3-2.2l3,4.1
				l-3,2.2c-1.7,1.3-2,3.6-0.8,5.3c0.6,0.8,1.5,1.3,2.5,1.5l3.7,0.5L111.6,83.7z"/>
		</g>
	</g>
	<g id="Group_10" transform="translate(60.057 16.324)">
		<g id="Group_9">
			<path id="Path_66" class="st1" d="M33,52.4c-5.6,0-10.2,4.5-10.2,10.2S27.4,72.7,33,72.7c5.6,0,10.2-4.5,10.2-10.2
				C43.2,57,38.6,52.4,33,52.4C33,52.4,33,52.4,33,52.4z M33,70.2c-4.2,0-7.6-3.4-7.6-7.6s3.4-7.6,7.6-7.6c4.2,0,7.6,3.4,7.6,7.6v0
				C40.6,66.8,37.2,70.2,33,70.2z"/>
		</g>
	</g>
	<g id="Group_12" transform="translate(50.215 75.928)">
		<g id="Group_11">
			<rect id="Rectangle_19" x="25.4" y="36.9" class="st1" width="2.5" height="3.8"/>
		</g>
	</g>
	<g id="Group_14" transform="translate(27.893 19.567)">
		<g id="Group_13">
			<path id="Path_67" class="st1" d="M43.5,80.8c-7.8-3.1-11.7-11.9-8.6-19.7c1.2-3,3.3-5.6,6.1-7.4l-1.4-2.1
				c-8.3,5.2-10.8,16.2-5.6,24.5c2,3.2,5,5.7,8.6,7.1c3.1,1.2,5.2,4.2,5.2,7.6h2.5C50.3,86.3,47.6,82.4,43.5,80.8z"/>
		</g>
	</g>
	<g id="Group_16" transform="translate(84.533 63.917)">
		<g id="Group_15">
			<rect id="Rectangle_20" x="16.5" y="40" class="st1" width="8.9" height="2.5"/>
		</g>
	</g>
	<g id="Group_18" transform="translate(81.719 72.893)">
		<g id="Group_17" transform="translate(0 0)">
			
				<rect id="Rectangle_21" x="20.6" y="36.9" transform="matrix(0.6402 -0.7682 0.7682 0.6402 -24.2806 31.8469)" class="st1" width="2.5" height="9.9"/>
		</g>
	</g>
	<g id="Group_20" transform="translate(74.238 77.644)">
		<g id="Group_19">
			<rect id="Rectangle_22" x="19.2" y="36.5" class="st1" width="2.5" height="8.9"/>
		</g>
	</g>
	<g id="Group_22" transform="translate(1.752 26.217)">
		<g id="Group_21" transform="translate(0 0)">
			
				<rect id="Rectangle_23" x="38.2" y="51.1" transform="matrix(0.9701 -0.2425 0.2425 0.9701 -11.3955 12.0922)" class="st1" width="10.5" height="2.5"/>
		</g>
	</g>
	<g id="Group_24" transform="translate(4.603 9.329)">
		<g id="Group_23" transform="translate(0 0)">
			
				<rect id="Rectangle_24" x="41.2" y="53" transform="matrix(0.581 -0.8139 0.8139 0.581 -29.7598 59.0561)" class="st1" width="2.5" height="10.9"/>
		</g>
	</g>
	<g id="Group_26" transform="translate(19.305 0)">
		<g id="Group_25" transform="translate(0)">
			
				<rect id="Rectangle_25" x="34.7" y="56.8" transform="matrix(0.9688 -0.2479 0.2479 0.9688 -14.2594 10.8629)" class="st1" width="2.5" height="10.5"/>
		</g>
	</g>
</g>
<text transform="matrix(1 0 0 1 50.4632 163.3273)" class="st2"><tspan x="0" y="0" class="st1 st3 st4">Project</tspan><tspan x="-19.4" y="14.4" class="st1 st3 st4">Management</tspan></text>
<rect x="167.4" y="100.9" class="st5" width="82.1" height="29.5"/>
<text transform="matrix(1 0 0 1 196.8135 107.5919)"><tspan x="0" y="0" class="st0 st6 st7">Agile</tspan><tspan x="-25.9" y="21" class="st0 st6 st7">Design Thinking</tspan></text>
</svg>
