<?xml version="1.0" encoding="utf-8"?>
<!-- Generator: Adobe Illustrator 24.1.0, SVG Export Plug-In . SVG Version: 6.00 Build 0)  -->
<svg version="1.1" id="Layer_1" xmlns="http://www.w3.org/2000/svg" xmlns:xlink="http://www.w3.org/1999/xlink" x="0px" y="0px"
	 viewBox="0 0 294.35 221.88" style="enable-background:new 0 0 294.35 221.88;" xml:space="preserve">
<style type="text/css">
	.st0{fill:#F0A160;}
	.st1{fill:#FFFFFF;}
	.st2{enable-background:new    ;}
</style>
<path id="Rectangle_117_3_" class="st0" d="M26.61,15.72h246c7.18,0,13,5.82,13,13v169c0,7.18-5.82,13-13,13h-246
	c-7.18,0-13-5.82-13-13v-169C13.61,21.54,19.43,15.72,26.61,15.72z"/>
<path id="Rectangle_118_3_" class="st1" d="M153.98,31.65h109c3.87,0,7,3.13,7,7v154c0,3.87-3.13,7-7,7h-109c-3.87,0-7-3.13-7-7
	v-154C146.98,34.79,150.11,31.65,153.98,31.65z"/>
<g>
	<path id="Path_58" class="st1" d="M110.5,68.09c1.2,0,2.17-0.97,2.17-2.17v-4.5c0-1.2-0.97-2.17-2.17-2.17h-4.49
		c-1.2,0-2.17,0.97-2.17,2.17v1.13h-25c-0.62-2.36-3.04-3.78-5.4-3.16c-1.55,0.41-2.75,1.61-3.16,3.16h-7.63
		c-0.62,0-1.12,0.5-1.12,1.12c0,0.62,0.5,1.12,1.12,1.12h7.63c0.62,2.36,3.04,3.78,5.4,3.16c1.55-0.41,2.75-1.61,3.16-3.16h25v1.13
		c0,1.2,0.97,2.17,2.17,2.17h1.13v25.13c-2.37,0.58-3.83,2.97-3.25,5.34c0.39,1.61,1.65,2.86,3.25,3.25v24.97H106
		c-1.2,0-2.17,0.97-2.17,2.17v1.28h-4c-0.62,0-1.12,0.5-1.12,1.12s0.5,1.12,1.12,1.12l0,0h4v0.98c0,1.2,0.97,2.17,2.17,2.17h4.49
		c1.2,0,2.17-0.97,2.17-2.17v-4.49c0-1.2-0.97-2.17-2.17-2.17h-1.12v-25.02c2.35-0.66,3.72-3.1,3.06-5.45
		c-0.42-1.49-1.58-2.65-3.06-3.06V68.09H110.5z M74.55,65.85c-1.21,0-2.18-0.98-2.18-2.18s0.98-2.18,2.18-2.18
		c1.21,0,2.18,0.98,2.18,2.18v0C76.73,64.87,75.75,65.85,74.55,65.85z M110.43,133.39h-4.36v-4.36h4.36V133.39z M110.36,97.51
		c0,1.21-0.98,2.18-2.18,2.18c-1.21,0-2.18-0.98-2.18-2.18c0-1.21,0.98-2.18,2.18-2.18l0,0C109.38,95.33,110.36,96.31,110.36,97.51z
		 M106.07,61.49h4.36v4.36h-4.36V61.49z"/>
	<path id="Path_59" class="st1" d="M95.05,130.24H78.97v-1.28c0-1.2-0.97-2.17-2.17-2.17h-1.07v-2.53c0-0.62-0.5-1.12-1.12-1.12
		c-0.62,0-1.12,0.5-1.12,1.12l0,0v2.53H72.3c-1.2,0-2.17,0.97-2.17,2.17v1.28h-25v-1.28c0-1.2-0.97-2.17-2.17-2.17h-1.13v-24.85
		h1.22c1.15,0,2.09-0.94,2.09-2.09v-1.36h2.61c0.62,0,1.12-0.5,1.12-1.12c0-0.62-0.5-1.12-1.12-1.12h-2.61v-1.07
		c0-1.15-0.94-2.09-2.09-2.09h-1.21v-25h1.13c1.2,0,2.17-0.97,2.17-2.17v-1.13h12.73c0.62,0,1.12-0.5,1.12-1.12
		c0-0.62-0.5-1.12-1.12-1.12l0,0H45.13v-1.13c0-1.2-0.97-2.17-2.17-2.17h-4.5c-1.2,0-2.17,0.97-2.17,2.17v4.49
		c0,1.2,0.97,2.17,2.17,2.17h1.13v25h-1.21c-1.15,0-2.09,0.94-2.09,2.09v4.68c0,1.15,0.94,2.09,2.09,2.09h1.21v24.84h-1.13
		c-1.2,0-2.17,0.97-2.17,2.17v4.49c0,1.2,0.97,2.17,2.17,2.17h4.49c1.2,0,2.17-0.97,2.17-2.17v-0.98h25v0.98
		c0,1.2,0.97,2.17,2.17,2.17h4.49c1.2,0,2.17-0.97,2.17-2.17v-0.98h16.09c0.62,0,1.12-0.5,1.12-1.12S95.67,130.23,95.05,130.24
		L95.05,130.24z M38.52,61.49h4.36v4.36h-4.36V61.49z M38.52,95.33h4.36v4.36h-4.36V95.33z M42.89,133.39h-4.36v-4.36h4.36V133.39z
		 M76.73,133.39h-4.36v-4.36h4.36L76.73,133.39z"/>
	<path id="Path_60" class="st1" d="M61.26,98.56h2.81c0.62,0,1.12-0.5,1.12-1.12c0-0.62-0.5-1.12-1.12-1.12h-2.81
		c-0.62,0-1.12,0.5-1.12,1.12C60.14,98.05,60.64,98.56,61.26,98.56z"/>
	<path id="Path_61" class="st1" d="M52.3,96.36c-0.62,0-1.12,0.5-1.12,1.12c0,0.62,0.5,1.12,1.12,1.12h2.81
		c0.62,0,1.12-0.5,1.12-1.12c0-0.62-0.5-1.12-1.12-1.12H52.3z"/>
	<path id="Path_62" class="st1" d="M74.68,112c0.62,0,1.12-0.5,1.12-1.12l0,0v-2.81c0-0.62-0.5-1.12-1.12-1.12
		c-0.62,0-1.12,0.5-1.12,1.12v2.81C73.56,111.5,74.06,112,74.68,112C74.68,112,74.68,112,74.68,112z"/>
	<path id="Path_63" class="st1" d="M74.73,120.97c0.62,0,1.12-0.5,1.12-1.12v-2.81c0-0.62-0.5-1.12-1.12-1.12
		c-0.62,0-1.12,0.5-1.12,1.12l0,0v2.81C73.61,120.47,74.11,120.97,74.73,120.97z"/>
	<path id="Path_64" class="st1" d="M63.5,105.62c0.06-0.62-0.38-1.17-1-1.23c-0.62-0.06-1.17,0.38-1.23,1l0,0l-0.48,4.65
		c-0.06,0.62,0.38,1.17,1,1.23c0.04,0,0.08,0.01,0.12,0.01c0.04,0,0.08,0,0.12-0.01l4.46-0.46c0.62-0.06,1.06-0.62,1-1.23
		c-0.06-0.62-0.62-1.06-1.23-1l-1.27,0.13l6.9-6.9c0.16,0.04,0.32,0.06,0.49,0.06h1.22v1.69c0,0.62,0.5,1.12,1.12,1.12
		c0.62,0,1.12-0.5,1.12-1.12v-1.69h1.22c1.15,0,2.09-0.94,2.09-2.09V95.1c0-0.16-0.02-0.33-0.06-0.49l6.76-6.76l-0.13,1.27
		c-0.06,0.62,0.38,1.17,1,1.23c0,0,0,0,0,0c0.04,0,0.08,0.01,0.12,0.01c0.57,0,1.05-0.43,1.11-1l0.46-4.46
		c0.06-0.62-0.38-1.17-1-1.23c-0.08-0.01-0.16-0.01-0.23,0l-4.65,0.48c-0.62,0.06-1.06,0.62-1,1.23c0.06,0.62,0.62,1.06,1.23,1
		l1.55-0.16l-6.83,6.83c-0.14-0.03-0.28-0.04-0.42-0.04h-4.68c-1.15,0-2.09,0.94-2.09,2.09v1.22h-1.69c-0.62,0-1.12,0.5-1.12,1.12
		c0,0.62,0.5,1.12,1.12,1.12h1.69v1.22c0,0.14,0.01,0.28,0.04,0.42l-6.98,6.98L63.5,105.62z M72.52,95.27h4.36v4.36h-4.36V95.27z"/>
</g>
<g class="st2">
	<path class="st1" d="M41.01,164.57l-3.66,8.4h-1.54l-3.67-8.4h1.69l2.8,6.48l2.82-6.48H41.01z"/>
	<path class="st1" d="M45.89,167.17c0.5,0.45,0.75,1.13,0.75,2.05v3.76h-1.42v-0.78c-0.18,0.28-0.45,0.49-0.79,0.64
		c-0.34,0.15-0.75,0.22-1.23,0.22c-0.48,0-0.9-0.08-1.26-0.25s-0.64-0.39-0.83-0.68s-0.29-0.62-0.29-0.99
		c0-0.58,0.21-1.04,0.64-1.39c0.43-0.35,1.1-0.52,2.02-0.52h1.66v-0.1c0-0.45-0.13-0.79-0.4-1.03s-0.67-0.36-1.19-0.36
		c-0.36,0-0.71,0.06-1.06,0.17c-0.35,0.11-0.64,0.27-0.88,0.47l-0.59-1.09c0.34-0.26,0.74-0.45,1.21-0.59
		c0.47-0.14,0.97-0.2,1.5-0.2C44.67,166.49,45.39,166.72,45.89,167.17z M44.52,171.71c0.29-0.17,0.5-0.42,0.62-0.74v-0.74h-1.55
		c-0.86,0-1.29,0.28-1.29,0.85c0,0.27,0.11,0.49,0.32,0.65c0.21,0.16,0.52,0.24,0.9,0.24C43.89,171.96,44.23,171.88,44.52,171.71z"
		/>
	<path class="st1" d="M52.27,166.49v1.43c-0.13-0.02-0.24-0.04-0.35-0.04c-0.58,0-1.04,0.17-1.37,0.51s-0.49,0.83-0.49,1.47v3.11
		h-1.5v-6.41h1.43v0.94C50.42,166.83,51.18,166.49,52.27,166.49z"/>
	<path class="st1" d="M53.61,165.25c-0.18-0.17-0.28-0.39-0.28-0.64c0-0.26,0.09-0.47,0.28-0.64s0.41-0.26,0.68-0.26
		s0.5,0.08,0.68,0.25c0.18,0.16,0.28,0.37,0.28,0.62c0,0.26-0.09,0.49-0.27,0.67c-0.18,0.18-0.41,0.27-0.69,0.27
		C54.02,165.51,53.79,165.42,53.61,165.25z M53.54,166.56h1.5v6.41h-1.5V166.56z"/>
	<path class="st1" d="M58.13,172.63c-0.52-0.28-0.93-0.67-1.22-1.17s-0.44-1.07-0.44-1.7s0.15-1.2,0.44-1.69
		c0.29-0.5,0.7-0.88,1.22-1.16c0.52-0.28,1.1-0.42,1.75-0.42c0.66,0,1.24,0.14,1.76,0.42c0.52,0.28,0.93,0.67,1.22,1.16
		c0.29,0.5,0.44,1.06,0.44,1.69s-0.15,1.2-0.44,1.7c-0.29,0.5-0.7,0.89-1.22,1.17c-0.52,0.28-1.11,0.42-1.76,0.42
		C59.24,173.05,58.65,172.91,58.13,172.63z M61.25,171.22c0.36-0.37,0.54-0.85,0.54-1.45c0-0.6-0.18-1.08-0.54-1.45
		c-0.36-0.37-0.82-0.55-1.37-0.55c-0.55,0-1.01,0.18-1.36,0.55c-0.36,0.37-0.54,0.85-0.54,1.45c0,0.6,0.18,1.08,0.54,1.45
		c0.36,0.37,0.81,0.55,1.36,0.55C60.44,171.77,60.89,171.59,61.25,171.22z"/>
	<path class="st1" d="M70.95,166.56v6.41h-1.43v-0.82c-0.24,0.29-0.54,0.51-0.9,0.67c-0.36,0.16-0.75,0.23-1.16,0.23
		c-0.86,0-1.53-0.24-2.02-0.71c-0.49-0.48-0.74-1.18-0.74-2.12v-3.66h1.5v3.46c0,0.58,0.13,1.01,0.39,1.29
		c0.26,0.28,0.63,0.43,1.11,0.43c0.54,0,0.96-0.17,1.28-0.5c0.32-0.33,0.47-0.81,0.47-1.43v-3.24H70.95z"/>
	<path class="st1" d="M73.38,172.85c-0.5-0.14-0.89-0.31-1.19-0.52l0.58-1.14c0.29,0.19,0.63,0.35,1.04,0.46
		c0.4,0.12,0.8,0.17,1.19,0.17c0.9,0,1.34-0.24,1.34-0.71c0-0.22-0.11-0.38-0.34-0.47c-0.23-0.09-0.59-0.17-1.1-0.25
		c-0.53-0.08-0.96-0.17-1.29-0.28c-0.33-0.1-0.62-0.29-0.86-0.55s-0.37-0.62-0.37-1.09c0-0.61,0.25-1.09,0.76-1.46
		c0.51-0.36,1.19-0.55,2.06-0.55c0.44,0,0.88,0.05,1.32,0.15c0.44,0.1,0.8,0.23,1.08,0.4l-0.58,1.14c-0.54-0.32-1.16-0.48-1.84-0.48
		c-0.44,0-0.77,0.07-1,0.2s-0.34,0.31-0.34,0.52c0,0.24,0.12,0.41,0.37,0.51c0.24,0.1,0.62,0.19,1.13,0.28
		c0.51,0.08,0.93,0.17,1.26,0.28c0.33,0.1,0.61,0.28,0.85,0.53c0.24,0.25,0.35,0.6,0.35,1.06c0,0.6-0.26,1.08-0.78,1.44
		s-1.23,0.54-2.12,0.54C74.38,173.05,73.87,172.99,73.38,172.85z"/>
	<path class="st1" d="M84.26,165.89h-2.78v-1.32h7.13v1.32h-2.78v7.08h-1.56V165.89z"/>
	<path class="st1" d="M90.1,172.63c-0.52-0.28-0.93-0.67-1.22-1.17s-0.44-1.07-0.44-1.7s0.15-1.2,0.44-1.69
		c0.29-0.5,0.7-0.88,1.22-1.16c0.52-0.28,1.1-0.42,1.75-0.42c0.66,0,1.24,0.14,1.76,0.42c0.52,0.28,0.93,0.67,1.22,1.16
		c0.29,0.5,0.44,1.06,0.44,1.69s-0.15,1.2-0.44,1.7s-0.7,0.89-1.22,1.17c-0.52,0.28-1.11,0.42-1.76,0.42
		C91.21,173.05,90.62,172.91,90.1,172.63z M93.22,171.22c0.36-0.37,0.54-0.85,0.54-1.45c0-0.6-0.18-1.08-0.54-1.45
		c-0.36-0.37-0.82-0.55-1.37-0.55s-1.01,0.18-1.36,0.55c-0.36,0.37-0.53,0.85-0.53,1.45c0,0.6,0.18,1.08,0.53,1.45
		c0.36,0.37,0.81,0.55,1.36,0.55S92.86,171.59,93.22,171.22z"/>
	<path class="st1" d="M97.84,172.63c-0.52-0.28-0.93-0.67-1.22-1.17c-0.29-0.5-0.44-1.07-0.44-1.7s0.15-1.2,0.44-1.69
		c0.29-0.5,0.7-0.88,1.22-1.16c0.52-0.28,1.1-0.42,1.75-0.42c0.66,0,1.24,0.14,1.76,0.42c0.52,0.28,0.93,0.67,1.22,1.16
		c0.29,0.5,0.44,1.06,0.44,1.69s-0.15,1.2-0.44,1.7s-0.7,0.89-1.22,1.17s-1.11,0.42-1.76,0.42
		C98.95,173.05,98.36,172.91,97.84,172.63z M100.96,171.22c0.36-0.37,0.54-0.85,0.54-1.45c0-0.6-0.18-1.08-0.54-1.45
		c-0.36-0.37-0.82-0.55-1.37-0.55c-0.55,0-1.01,0.18-1.36,0.55c-0.36,0.37-0.53,0.85-0.53,1.45c0,0.6,0.18,1.08,0.53,1.45
		s0.81,0.55,1.36,0.55C100.15,171.77,100.6,171.59,100.96,171.22z"/>
	<path class="st1" d="M104.45,164.07h1.5v8.9h-1.5V164.07z"/>
	<path class="st1" d="M108.38,172.85c-0.5-0.14-0.89-0.31-1.19-0.52l0.58-1.14c0.29,0.19,0.63,0.35,1.04,0.46
		c0.4,0.12,0.8,0.17,1.19,0.17c0.9,0,1.34-0.24,1.34-0.71c0-0.22-0.11-0.38-0.34-0.47c-0.23-0.09-0.59-0.17-1.1-0.25
		c-0.53-0.08-0.96-0.17-1.29-0.28c-0.33-0.1-0.62-0.29-0.86-0.55s-0.37-0.62-0.37-1.09c0-0.61,0.25-1.09,0.76-1.46
		c0.51-0.36,1.19-0.55,2.06-0.55c0.44,0,0.88,0.05,1.32,0.15c0.44,0.1,0.8,0.23,1.08,0.4l-0.58,1.14c-0.54-0.32-1.16-0.48-1.84-0.48
		c-0.44,0-0.77,0.07-1,0.2c-0.23,0.13-0.34,0.31-0.34,0.52c0,0.24,0.12,0.41,0.37,0.51c0.24,0.1,0.62,0.19,1.13,0.28
		c0.51,0.08,0.93,0.17,1.26,0.28c0.33,0.1,0.61,0.28,0.85,0.53c0.24,0.25,0.35,0.6,0.35,1.06c0,0.6-0.26,1.08-0.78,1.44
		c-0.52,0.36-1.23,0.54-2.12,0.54C109.38,173.05,108.87,172.99,108.38,172.85z"/>
</g>
<g>
	<path class="st0" d="M194.28,79.38c-0.44-0.15-0.79-0.34-1.04-0.57l0.33-0.7c0.24,0.22,0.55,0.39,0.92,0.53s0.76,0.2,1.16,0.2
		c0.52,0,0.91-0.09,1.17-0.27c0.26-0.18,0.39-0.41,0.39-0.71c0-0.22-0.07-0.39-0.21-0.53c-0.14-0.14-0.32-0.24-0.52-0.31
		c-0.21-0.07-0.5-0.15-0.88-0.24c-0.47-0.11-0.86-0.23-1.15-0.34s-0.54-0.29-0.75-0.53c-0.21-0.24-0.31-0.56-0.31-0.96
		c0-0.34,0.09-0.64,0.26-0.91c0.18-0.27,0.45-0.49,0.81-0.65c0.36-0.16,0.81-0.24,1.34-0.24c0.37,0,0.74,0.05,1.1,0.14
		c0.36,0.1,0.67,0.23,0.93,0.41l-0.3,0.72c-0.26-0.17-0.55-0.3-0.85-0.38c-0.3-0.09-0.59-0.13-0.88-0.13
		c-0.51,0-0.89,0.09-1.15,0.28c-0.25,0.19-0.38,0.43-0.38,0.72c0,0.22,0.07,0.39,0.22,0.53c0.14,0.14,0.32,0.24,0.54,0.31
		c0.21,0.08,0.5,0.15,0.87,0.24c0.47,0.11,0.85,0.23,1.14,0.34c0.29,0.11,0.54,0.29,0.74,0.52s0.31,0.55,0.31,0.94
		c0,0.33-0.09,0.63-0.27,0.9c-0.18,0.27-0.45,0.49-0.82,0.65c-0.37,0.16-0.82,0.24-1.35,0.24C195.18,79.6,194.72,79.53,194.28,79.38
		z"/>
	<path class="st0" d="M201.13,77.31l-0.99,0.92v1.31h-0.86v-6.68h0.86v4.28l2.6-2.38h1.04l-2.01,1.97l2.21,2.8h-1.06L201.13,77.31z"
		/>
	<path class="st0" d="M208.92,77.43h-3.87c0.05,0.42,0.24,0.76,0.55,1.01c0.31,0.25,0.71,0.38,1.17,0.38c0.57,0,1.03-0.19,1.38-0.58
		l0.48,0.56c-0.22,0.25-0.48,0.44-0.81,0.58c-0.32,0.13-0.68,0.2-1.08,0.2c-0.5,0-0.95-0.1-1.34-0.31c-0.39-0.21-0.69-0.5-0.9-0.87
		s-0.32-0.79-0.32-1.26c0-0.46,0.1-0.88,0.31-1.25c0.21-0.37,0.49-0.66,0.86-0.87c0.36-0.21,0.77-0.31,1.23-0.31
		c0.46,0,0.86,0.1,1.22,0.31c0.36,0.21,0.64,0.5,0.84,0.87c0.2,0.37,0.3,0.8,0.3,1.28C208.94,77.24,208.93,77.33,208.92,77.43z
		 M205.54,75.82c-0.28,0.25-0.44,0.58-0.49,0.99h3.06c-0.05-0.4-0.21-0.73-0.49-0.99c-0.28-0.25-0.63-0.38-1.04-0.38
		C206.17,75.45,205.82,75.57,205.54,75.82z"/>
	<path class="st0" d="M212.82,79.25c-0.13,0.11-0.28,0.19-0.47,0.25c-0.19,0.06-0.38,0.09-0.58,0.09c-0.48,0-0.85-0.13-1.12-0.39
		s-0.4-0.63-0.4-1.11v-2.62h-0.81v-0.71h0.81v-1.04h0.86v1.04h1.37v0.71h-1.37v2.58c0,0.26,0.06,0.46,0.19,0.59
		c0.13,0.14,0.31,0.21,0.55,0.21c0.26,0,0.49-0.08,0.68-0.23L212.82,79.25z"/>
	<path class="st0" d="M214.48,79.27c-0.38-0.21-0.68-0.5-0.9-0.87c-0.22-0.37-0.32-0.79-0.32-1.26c0-0.47,0.11-0.89,0.32-1.26
		c0.22-0.37,0.51-0.66,0.9-0.86s0.81-0.31,1.3-0.31c0.43,0,0.82,0.09,1.16,0.26c0.34,0.17,0.6,0.43,0.79,0.76l-0.66,0.42
		c-0.15-0.23-0.34-0.4-0.56-0.51c-0.22-0.11-0.47-0.17-0.74-0.17c-0.31,0-0.59,0.07-0.84,0.21c-0.25,0.14-0.44,0.33-0.58,0.59
		c-0.14,0.26-0.21,0.55-0.21,0.88c0,0.34,0.07,0.63,0.21,0.89c0.14,0.26,0.34,0.45,0.58,0.59c0.25,0.14,0.53,0.21,0.84,0.21
		c0.27,0,0.52-0.06,0.74-0.17c0.22-0.11,0.41-0.28,0.56-0.51l0.66,0.41c-0.19,0.33-0.45,0.58-0.79,0.76s-0.72,0.27-1.16,0.27
		C215.29,79.59,214.86,79.48,214.48,79.27z"/>
	<path class="st0" d="M222.76,75.24c0.36,0.35,0.54,0.87,0.54,1.54v2.75h-0.86v-2.65c0-0.46-0.11-0.81-0.33-1.04
		c-0.22-0.23-0.54-0.35-0.95-0.35c-0.47,0-0.84,0.14-1.11,0.41c-0.27,0.27-0.41,0.66-0.41,1.17v2.46h-0.86v-6.68h0.86v2.58
		c0.18-0.23,0.42-0.4,0.71-0.53s0.62-0.19,0.98-0.19C221.93,74.72,222.41,74.89,222.76,75.24z"/>
	<path class="st0" d="M195.7,89.01v2.2h3.16v0.77h-3.16v2.55h-0.9v-6.3h4.45v0.78H195.7z"/>
	<path class="st0" d="M200.31,88.68c-0.11-0.11-0.17-0.24-0.17-0.4c0-0.16,0.06-0.29,0.17-0.4c0.11-0.11,0.25-0.17,0.42-0.17
		s0.31,0.05,0.42,0.16c0.11,0.1,0.17,0.24,0.17,0.39c0,0.16-0.06,0.3-0.17,0.41c-0.11,0.11-0.25,0.17-0.42,0.17
		S200.43,88.79,200.31,88.68z M200.3,89.76h0.86v4.77h-0.86V89.76z"/>
	<path class="st0" d="M207.38,89.76v4.12c0,0.83-0.21,1.45-0.62,1.85c-0.41,0.4-1.03,0.6-1.85,0.6c-0.45,0-0.88-0.06-1.29-0.18
		c-0.41-0.12-0.74-0.3-0.99-0.53l0.41-0.67c0.22,0.19,0.5,0.34,0.82,0.45s0.67,0.17,1.01,0.17c0.56,0,0.97-0.13,1.24-0.4
		c0.27-0.26,0.4-0.67,0.4-1.21V93.6c-0.2,0.25-0.45,0.43-0.75,0.55s-0.62,0.18-0.97,0.18c-0.46,0-0.87-0.1-1.24-0.29
		c-0.37-0.19-0.66-0.47-0.87-0.82c-0.21-0.35-0.32-0.75-0.32-1.2c0-0.45,0.1-0.85,0.32-1.2c0.21-0.35,0.5-0.62,0.87-0.81
		s0.78-0.29,1.24-0.29c0.36,0,0.69,0.07,1,0.2c0.31,0.13,0.56,0.33,0.76,0.58v-0.74H207.38z M205.73,93.38
		c0.25-0.13,0.44-0.32,0.58-0.55c0.14-0.24,0.21-0.51,0.21-0.81c0-0.46-0.15-0.84-0.46-1.12c-0.31-0.29-0.7-0.43-1.18-0.43
		c-0.49,0-0.88,0.14-1.19,0.43c-0.31,0.28-0.46,0.66-0.46,1.12c0,0.3,0.07,0.57,0.21,0.81c0.14,0.24,0.34,0.42,0.58,0.55
		s0.53,0.2,0.85,0.2C205.2,93.58,205.48,93.51,205.73,93.38z"/>
	<path class="st0" d="M216.42,90.24c0.35,0.35,0.53,0.86,0.53,1.55v2.75h-0.86v-2.65c0-0.46-0.11-0.81-0.32-1.04
		s-0.52-0.35-0.91-0.35c-0.44,0-0.79,0.14-1.04,0.41s-0.39,0.66-0.39,1.17v2.46h-0.86v-2.65c0-0.46-0.11-0.81-0.32-1.04
		s-0.52-0.35-0.91-0.35c-0.44,0-0.79,0.14-1.04,0.41c-0.26,0.27-0.39,0.66-0.39,1.17v2.46h-0.86v-4.77h0.83v0.71
		c0.17-0.25,0.4-0.43,0.68-0.56c0.28-0.13,0.6-0.19,0.96-0.19c0.37,0,0.7,0.08,0.99,0.23s0.51,0.37,0.67,0.66
		c0.18-0.28,0.43-0.49,0.75-0.65c0.32-0.16,0.68-0.23,1.08-0.23C215.59,89.72,216.06,89.89,216.42,90.24z"/>
	<path class="st0" d="M221.79,90.2c0.35,0.32,0.53,0.81,0.53,1.45v2.88h-0.82V93.9c-0.14,0.22-0.35,0.39-0.62,0.51
		c-0.27,0.12-0.58,0.18-0.95,0.18c-0.53,0-0.96-0.13-1.28-0.39c-0.32-0.26-0.48-0.6-0.48-1.02s0.15-0.76,0.46-1.01
		c0.31-0.26,0.79-0.38,1.46-0.38h1.37v-0.17c0-0.37-0.11-0.66-0.32-0.85c-0.22-0.2-0.53-0.3-0.95-0.3c-0.28,0-0.56,0.05-0.83,0.14
		c-0.27,0.09-0.5,0.22-0.68,0.37l-0.36-0.65c0.25-0.2,0.54-0.35,0.88-0.45c0.34-0.1,0.71-0.16,1.09-0.16
		C220.93,89.72,221.44,89.88,221.79,90.2z M220.93,93.7c0.24-0.15,0.41-0.36,0.52-0.63v-0.67h-1.33c-0.73,0-1.1,0.25-1.1,0.74
		c0,0.24,0.09,0.43,0.28,0.57s0.44,0.21,0.77,0.21C220.4,93.92,220.69,93.85,220.93,93.7z"/>
	<path class="st0" d="M191.81,103.23h0.9v6.3h-0.9V103.23z"/>
	<path class="st0" d="M198.46,105.24c0.36,0.35,0.54,0.87,0.54,1.54v2.75h-0.86v-2.65c0-0.46-0.11-0.81-0.33-1.04
		c-0.22-0.23-0.54-0.35-0.95-0.35c-0.47,0-0.84,0.14-1.11,0.41c-0.27,0.27-0.41,0.66-0.41,1.17v2.46h-0.86v-4.77h0.83v0.72
		c0.17-0.25,0.41-0.44,0.71-0.57c0.3-0.13,0.63-0.2,1.01-0.2C197.62,104.72,198.1,104.89,198.46,105.24z"/>
	<path class="st0" d="M204.73,104.76l-2.09,4.77h-0.88l-2.09-4.77h0.9l1.64,3.83l1.67-3.83H204.73z"/>
	<path class="st0" d="M205.55,103.68c-0.11-0.11-0.17-0.24-0.17-0.4c0-0.16,0.06-0.29,0.17-0.4c0.11-0.11,0.25-0.17,0.42-0.17
		s0.31,0.05,0.42,0.16c0.11,0.1,0.17,0.24,0.17,0.39c0,0.16-0.06,0.3-0.17,0.41c-0.11,0.11-0.25,0.17-0.42,0.17
		S205.66,103.79,205.55,103.68z M205.54,104.76h0.86v4.77h-0.86V104.76z"/>
	<path class="st0" d="M208.29,109.43c-0.36-0.1-0.64-0.24-0.85-0.4l0.36-0.68c0.21,0.15,0.46,0.27,0.76,0.36
		c0.3,0.09,0.6,0.14,0.91,0.14c0.76,0,1.13-0.22,1.13-0.65c0-0.14-0.05-0.26-0.15-0.34c-0.1-0.08-0.23-0.15-0.38-0.18
		c-0.15-0.04-0.37-0.08-0.65-0.13c-0.38-0.06-0.7-0.13-0.94-0.21c-0.24-0.08-0.45-0.21-0.63-0.4s-0.26-0.45-0.26-0.78
		c0-0.43,0.18-0.78,0.54-1.04c0.36-0.26,0.84-0.39,1.45-0.39c0.32,0,0.64,0.04,0.95,0.12c0.32,0.08,0.58,0.18,0.78,0.32l-0.37,0.68
		c-0.39-0.25-0.85-0.38-1.38-0.38c-0.37,0-0.64,0.06-0.84,0.18c-0.19,0.12-0.29,0.28-0.29,0.48c0,0.16,0.05,0.28,0.16,0.37
		c0.11,0.09,0.24,0.16,0.4,0.2c0.16,0.04,0.38,0.09,0.67,0.14c0.38,0.07,0.69,0.14,0.93,0.21c0.24,0.08,0.44,0.2,0.61,0.38
		c0.17,0.18,0.25,0.43,0.25,0.76c0,0.43-0.18,0.78-0.55,1.03c-0.37,0.26-0.87,0.38-1.51,0.38
		C209.03,109.59,208.65,109.53,208.29,109.43z"/>
	<path class="st0" d="M212.57,103.68c-0.11-0.11-0.17-0.24-0.17-0.4c0-0.16,0.06-0.29,0.17-0.4c0.11-0.11,0.25-0.17,0.42-0.17
		s0.31,0.05,0.42,0.16c0.11,0.1,0.17,0.24,0.17,0.39c0,0.16-0.06,0.3-0.17,0.41c-0.11,0.11-0.25,0.17-0.42,0.17
		S212.68,103.79,212.57,103.68z M212.56,104.76h0.86v4.77h-0.86V104.76z"/>
	<path class="st0" d="M215.83,109.27c-0.38-0.21-0.67-0.5-0.89-0.87c-0.21-0.37-0.32-0.79-0.32-1.26c0-0.47,0.11-0.89,0.32-1.26
		c0.21-0.37,0.51-0.66,0.89-0.86s0.8-0.31,1.28-0.31c0.47,0,0.9,0.1,1.27,0.31s0.67,0.5,0.88,0.86c0.21,0.37,0.32,0.79,0.32,1.26
		c0,0.47-0.11,0.89-0.32,1.26c-0.21,0.37-0.51,0.66-0.88,0.87c-0.38,0.21-0.8,0.32-1.27,0.32
		C216.64,109.59,216.21,109.48,215.83,109.27z M217.94,108.62c0.24-0.14,0.43-0.34,0.57-0.59c0.14-0.26,0.21-0.55,0.21-0.88
		c0-0.33-0.07-0.62-0.21-0.88c-0.14-0.25-0.33-0.45-0.57-0.59c-0.24-0.14-0.52-0.21-0.82-0.21c-0.31,0-0.58,0.07-0.82,0.21
		c-0.24,0.14-0.43,0.33-0.58,0.59c-0.14,0.26-0.21,0.55-0.21,0.88c0,0.33,0.07,0.62,0.21,0.88c0.14,0.25,0.33,0.45,0.58,0.59
		c0.24,0.14,0.52,0.21,0.82,0.21C217.42,108.83,217.69,108.76,217.94,108.62z"/>
	<path class="st0" d="M224.78,105.24c0.36,0.35,0.54,0.87,0.54,1.54v2.75h-0.86v-2.65c0-0.46-0.11-0.81-0.33-1.04
		c-0.22-0.23-0.54-0.35-0.95-0.35c-0.47,0-0.84,0.14-1.11,0.41c-0.27,0.27-0.41,0.66-0.41,1.17v2.46h-0.86v-4.77h0.83v0.72
		c0.17-0.25,0.41-0.44,0.71-0.57c0.3-0.13,0.63-0.2,1.01-0.2C223.94,104.72,224.42,104.89,224.78,105.24z"/>
	<path class="st0" d="M190.56,122.96h-3.35l-0.69,1.58h-0.93l2.85-6.3h0.89l2.86,6.3h-0.94L190.56,122.96z M190.25,122.24
		l-1.36-3.09l-1.36,3.09H190.25z"/>
	<path class="st0" d="M197.47,117.85v6.68h-0.83v-0.76c-0.19,0.26-0.44,0.46-0.73,0.6c-0.29,0.14-0.62,0.21-0.97,0.21
		c-0.46,0-0.88-0.1-1.24-0.31s-0.65-0.49-0.86-0.86s-0.31-0.79-0.31-1.27c0-0.48,0.1-0.9,0.31-1.27c0.21-0.37,0.49-0.65,0.86-0.86
		s0.78-0.31,1.24-0.31c0.34,0,0.66,0.06,0.95,0.19s0.53,0.32,0.72,0.57v-2.63H197.47z M195.83,123.62c0.25-0.14,0.44-0.34,0.58-0.59
		c0.14-0.26,0.21-0.55,0.21-0.88s-0.07-0.62-0.21-0.88c-0.14-0.25-0.33-0.45-0.58-0.59s-0.52-0.21-0.82-0.21
		c-0.31,0-0.58,0.07-0.82,0.21c-0.24,0.14-0.43,0.33-0.58,0.59c-0.14,0.26-0.21,0.55-0.21,0.88s0.07,0.62,0.21,0.88
		c0.14,0.25,0.33,0.45,0.58,0.59c0.24,0.14,0.52,0.21,0.82,0.21C195.31,123.83,195.58,123.76,195.83,123.62z"/>
	<path class="st0" d="M199.87,124.27c-0.38-0.21-0.67-0.5-0.89-0.87c-0.21-0.37-0.32-0.79-0.32-1.26s0.11-0.89,0.32-1.26
		c0.21-0.37,0.51-0.66,0.89-0.86s0.8-0.31,1.28-0.31c0.47,0,0.9,0.1,1.27,0.31s0.67,0.5,0.88,0.86c0.21,0.37,0.32,0.79,0.32,1.26
		s-0.11,0.89-0.32,1.26c-0.21,0.37-0.51,0.66-0.88,0.87s-0.8,0.32-1.27,0.32C200.67,124.59,200.25,124.48,199.87,124.27z
		 M201.97,123.62c0.24-0.14,0.43-0.34,0.57-0.59c0.14-0.26,0.21-0.55,0.21-0.88s-0.07-0.62-0.21-0.88
		c-0.14-0.25-0.33-0.45-0.57-0.59s-0.52-0.21-0.82-0.21c-0.31,0-0.58,0.07-0.82,0.21c-0.24,0.14-0.43,0.33-0.58,0.59
		c-0.14,0.26-0.21,0.55-0.21,0.88s0.07,0.62,0.21,0.88c0.14,0.25,0.33,0.45,0.58,0.59c0.24,0.14,0.52,0.21,0.82,0.21
		C201.45,123.83,201.73,123.76,201.97,123.62z"/>
	<path class="st0" d="M208.59,120.02c0.37,0.2,0.65,0.49,0.86,0.86c0.21,0.37,0.31,0.79,0.31,1.27c0,0.48-0.1,0.9-0.31,1.27
		s-0.49,0.66-0.86,0.86s-0.78,0.31-1.24,0.31c-0.35,0-0.68-0.07-0.97-0.21c-0.29-0.14-0.54-0.34-0.73-0.6v0.76h-0.83v-6.68h0.86
		v2.63c0.19-0.25,0.43-0.44,0.72-0.57s0.6-0.19,0.94-0.19C207.81,119.72,208.22,119.82,208.59,120.02z M208.1,123.62
		c0.24-0.14,0.43-0.34,0.58-0.59c0.14-0.26,0.21-0.55,0.21-0.88s-0.07-0.62-0.21-0.88c-0.14-0.25-0.33-0.45-0.58-0.59
		s-0.52-0.21-0.82-0.21c-0.3,0-0.57,0.07-0.82,0.21s-0.44,0.33-0.58,0.59c-0.14,0.26-0.21,0.55-0.21,0.88s0.07,0.62,0.21,0.88
		c0.14,0.25,0.33,0.45,0.58,0.59s0.52,0.21,0.82,0.21C207.58,123.83,207.86,123.76,208.1,123.62z"/>
	<path class="st0" d="M215.25,122.43h-3.87c0.05,0.42,0.24,0.76,0.55,1.01c0.31,0.25,0.71,0.38,1.17,0.38
		c0.57,0,1.03-0.19,1.38-0.58l0.48,0.56c-0.22,0.25-0.48,0.44-0.81,0.58s-0.68,0.2-1.08,0.2c-0.5,0-0.95-0.1-1.34-0.31
		c-0.39-0.21-0.69-0.5-0.9-0.87s-0.32-0.79-0.32-1.26c0-0.46,0.1-0.88,0.31-1.25s0.49-0.66,0.86-0.87c0.36-0.21,0.77-0.31,1.23-0.31
		c0.46,0,0.86,0.1,1.22,0.31c0.36,0.21,0.64,0.5,0.84,0.87s0.3,0.8,0.3,1.28C215.27,122.24,215.26,122.33,215.25,122.43z
		 M211.87,120.82c-0.28,0.25-0.44,0.58-0.49,0.99h3.06c-0.05-0.4-0.21-0.73-0.49-0.99s-0.63-0.38-1.04-0.38
		C212.5,120.45,212.15,120.57,211.87,120.82z"/>
	<path class="st0" d="M222.97,124.53l-1.89-2.6l-1.86,2.6h-1.04l2.37-3.23l-2.22-3.07h1.03l1.76,2.42l1.75-2.42h0.98l-2.22,3.04
		l2.39,3.26H222.97z"/>
	<path class="st0" d="M224.86,118.23h2.65c0.67,0,1.26,0.13,1.77,0.4c0.52,0.26,0.92,0.63,1.2,1.11c0.29,0.48,0.43,1.02,0.43,1.64
		s-0.14,1.17-0.43,1.64c-0.29,0.48-0.69,0.85-1.2,1.11c-0.52,0.26-1.11,0.4-1.77,0.4h-2.65V118.23z M227.46,123.75
		c0.51,0,0.96-0.1,1.35-0.3c0.39-0.2,0.69-0.48,0.9-0.83c0.21-0.36,0.31-0.77,0.31-1.24c0-0.47-0.1-0.88-0.31-1.24
		c-0.21-0.36-0.51-0.63-0.9-0.83s-0.84-0.3-1.35-0.3h-1.7v4.73H227.46z"/>
	<path class="st0" d="M187.37,133.23h0.9v6.3h-0.9V133.23z"/>
	<path class="st0" d="M190.03,132.85h0.86v6.68h-0.86V132.85z"/>
	<path class="st0" d="M192.54,132.85h0.86v6.68h-0.86V132.85z"/>
	<path class="st0" d="M199.5,134.76v4.77h-0.82v-0.72c-0.17,0.25-0.4,0.44-0.69,0.57c-0.29,0.13-0.6,0.2-0.93,0.2
		c-0.64,0-1.14-0.18-1.5-0.53c-0.37-0.35-0.55-0.87-0.55-1.55v-2.75h0.86v2.65c0,0.46,0.11,0.81,0.33,1.05
		c0.22,0.24,0.54,0.36,0.95,0.36c0.46,0,0.82-0.14,1.08-0.41c0.26-0.28,0.4-0.67,0.4-1.17v-2.47H199.5z"/>
	<path class="st0" d="M201.39,139.43c-0.36-0.1-0.64-0.24-0.85-0.4l0.36-0.68c0.21,0.15,0.46,0.27,0.76,0.36
		c0.3,0.09,0.6,0.14,0.91,0.14c0.76,0,1.13-0.22,1.13-0.65c0-0.14-0.05-0.26-0.15-0.34c-0.1-0.08-0.23-0.15-0.38-0.18
		s-0.37-0.08-0.65-0.13c-0.38-0.06-0.7-0.13-0.94-0.21c-0.24-0.08-0.45-0.21-0.63-0.4c-0.17-0.19-0.26-0.45-0.26-0.78
		c0-0.43,0.18-0.78,0.54-1.04c0.36-0.26,0.84-0.39,1.45-0.39c0.32,0,0.64,0.04,0.95,0.12c0.32,0.08,0.58,0.18,0.78,0.32l-0.37,0.68
		c-0.39-0.25-0.85-0.38-1.38-0.38c-0.37,0-0.64,0.06-0.84,0.18c-0.19,0.12-0.29,0.28-0.29,0.48c0,0.16,0.05,0.28,0.16,0.37
		c0.11,0.09,0.24,0.16,0.4,0.2c0.16,0.04,0.38,0.09,0.67,0.14c0.38,0.07,0.69,0.14,0.93,0.21c0.24,0.08,0.44,0.2,0.61,0.38
		c0.17,0.18,0.25,0.43,0.25,0.76c0,0.43-0.18,0.78-0.55,1.03s-0.87,0.38-1.51,0.38C202.13,139.59,201.75,139.53,201.39,139.43z"/>
	<path class="st0" d="M208.34,139.25c-0.13,0.11-0.28,0.19-0.47,0.25c-0.19,0.06-0.38,0.09-0.58,0.09c-0.48,0-0.85-0.13-1.12-0.39
		s-0.4-0.63-0.4-1.11v-2.62h-0.81v-0.71h0.81v-1.04h0.86v1.04h1.37v0.71h-1.37v2.58c0,0.26,0.06,0.46,0.19,0.59
		c0.13,0.14,0.31,0.21,0.55,0.21c0.26,0,0.49-0.08,0.68-0.22L208.34,139.25z"/>
	<path class="st0" d="M210.88,134.93c0.29-0.14,0.65-0.22,1.07-0.22v0.84c-0.05-0.01-0.11-0.01-0.2-0.01c-0.47,0-0.83,0.14-1.1,0.42
		c-0.27,0.28-0.4,0.68-0.4,1.19v2.38h-0.86v-4.77h0.83v0.8C210.36,135.29,210.58,135.08,210.88,134.93z"/>
	<path class="st0" d="M216.25,135.2c0.35,0.32,0.53,0.81,0.53,1.45v2.88h-0.82v-0.63c-0.14,0.22-0.35,0.39-0.62,0.51
		c-0.27,0.12-0.58,0.18-0.95,0.18c-0.53,0-0.96-0.13-1.28-0.39c-0.32-0.26-0.48-0.6-0.48-1.02s0.15-0.76,0.46-1.01
		c0.31-0.25,0.79-0.38,1.46-0.38h1.37v-0.17c0-0.37-0.11-0.66-0.32-0.85c-0.22-0.2-0.53-0.3-0.95-0.3c-0.28,0-0.56,0.05-0.83,0.14
		c-0.27,0.09-0.5,0.22-0.68,0.37l-0.36-0.65c0.25-0.2,0.54-0.35,0.88-0.45c0.34-0.1,0.71-0.16,1.09-0.16
		C215.4,134.72,215.9,134.88,216.25,135.2z M215.39,138.7c0.24-0.15,0.41-0.36,0.52-0.63v-0.67h-1.33c-0.73,0-1.1,0.25-1.1,0.74
		c0,0.24,0.09,0.43,0.28,0.57c0.19,0.14,0.44,0.21,0.77,0.21C214.87,138.92,215.15,138.85,215.39,138.7z"/>
	<path class="st0" d="M221.06,139.25c-0.13,0.11-0.28,0.19-0.47,0.25c-0.19,0.06-0.38,0.09-0.58,0.09c-0.48,0-0.85-0.13-1.12-0.39
		s-0.4-0.63-0.4-1.11v-2.62h-0.81v-0.71h0.81v-1.04h0.86v1.04h1.37v0.71h-1.37v2.58c0,0.26,0.06,0.46,0.19,0.59
		c0.13,0.14,0.31,0.21,0.55,0.21c0.26,0,0.49-0.08,0.68-0.22L221.06,139.25z"/>
	<path class="st0" d="M222.71,139.27c-0.38-0.21-0.67-0.5-0.89-0.87c-0.21-0.37-0.32-0.79-0.32-1.26s0.11-0.89,0.32-1.26
		c0.21-0.37,0.51-0.66,0.89-0.86s0.8-0.31,1.28-0.31c0.47,0,0.9,0.1,1.27,0.31s0.67,0.5,0.88,0.86c0.21,0.37,0.32,0.79,0.32,1.26
		s-0.11,0.89-0.32,1.26c-0.21,0.37-0.51,0.66-0.88,0.87s-0.8,0.32-1.27,0.32C223.51,139.59,223.09,139.48,222.71,139.27z
		 M224.81,138.62c0.24-0.14,0.43-0.34,0.57-0.59c0.14-0.26,0.21-0.55,0.21-0.88s-0.07-0.62-0.21-0.88
		c-0.14-0.25-0.33-0.45-0.57-0.59s-0.52-0.21-0.82-0.21c-0.31,0-0.58,0.07-0.82,0.21c-0.24,0.14-0.43,0.33-0.58,0.59
		c-0.14,0.26-0.21,0.55-0.21,0.88s0.07,0.62,0.21,0.88c0.14,0.25,0.33,0.45,0.58,0.59c0.24,0.14,0.52,0.21,0.82,0.21
		C224.29,138.83,224.57,138.76,224.81,138.62z"/>
	<path class="st0" d="M229.15,134.93c0.29-0.14,0.65-0.22,1.07-0.22v0.84c-0.05-0.01-0.11-0.01-0.2-0.01c-0.47,0-0.83,0.14-1.1,0.42
		c-0.27,0.28-0.4,0.68-0.4,1.19v2.38h-0.86v-4.77h0.83v0.8C228.64,135.29,228.86,135.08,229.15,134.93z"/>
	<path class="st0" d="M188.72,148.82c0.47,0.39,0.7,0.93,0.7,1.61c0,0.68-0.23,1.22-0.7,1.61c-0.47,0.39-1.11,0.58-1.93,0.58h-1.56
		v1.91h-0.9v-6.3h2.46C187.61,148.23,188.26,148.43,188.72,148.82z M188.08,151.48c0.3-0.24,0.45-0.59,0.45-1.05
		c0-0.46-0.15-0.81-0.45-1.05s-0.73-0.36-1.3-0.36h-1.53v2.83h1.53C187.34,151.84,187.78,151.72,188.08,151.48z"/>
	<path class="st0" d="M194.7,150.24c0.36,0.35,0.54,0.87,0.54,1.54v2.75h-0.86v-2.65c0-0.46-0.11-0.81-0.33-1.04
		c-0.22-0.23-0.54-0.35-0.95-0.35c-0.47,0-0.84,0.14-1.11,0.41c-0.27,0.27-0.41,0.67-0.41,1.17v2.46h-0.86v-6.68h0.86v2.58
		c0.18-0.23,0.42-0.41,0.71-0.53s0.62-0.19,0.98-0.19C193.87,149.72,194.35,149.89,194.7,150.24z"/>
	<path class="st0" d="M197.63,154.27c-0.38-0.21-0.67-0.5-0.89-0.87c-0.21-0.37-0.32-0.79-0.32-1.25s0.11-0.89,0.32-1.26
		s0.51-0.66,0.89-0.86s0.8-0.31,1.28-0.31c0.47,0,0.9,0.1,1.27,0.31s0.67,0.5,0.88,0.86s0.32,0.79,0.32,1.26s-0.11,0.89-0.32,1.25
		c-0.21,0.37-0.51,0.66-0.88,0.87s-0.8,0.31-1.27,0.31C198.44,154.59,198.01,154.48,197.63,154.27z M199.74,153.62
		c0.24-0.14,0.43-0.34,0.57-0.59c0.14-0.25,0.21-0.55,0.21-0.88s-0.07-0.62-0.21-0.88s-0.33-0.45-0.57-0.59
		c-0.24-0.14-0.52-0.21-0.82-0.21c-0.31,0-0.58,0.07-0.82,0.21c-0.24,0.14-0.43,0.33-0.58,0.59c-0.14,0.25-0.21,0.55-0.21,0.88
		s0.07,0.62,0.21,0.88c0.14,0.26,0.33,0.45,0.58,0.59c0.24,0.14,0.52,0.21,0.82,0.21C199.22,153.83,199.49,153.76,199.74,153.62z"/>
	<path class="st0" d="M205.27,154.25c-0.13,0.11-0.28,0.19-0.47,0.25c-0.19,0.06-0.38,0.08-0.58,0.08c-0.48,0-0.85-0.13-1.12-0.39
		s-0.4-0.63-0.4-1.11v-2.62h-0.81v-0.71h0.81v-1.04h0.86v1.04h1.37v0.71h-1.37v2.58c0,0.26,0.06,0.46,0.19,0.59
		c0.13,0.14,0.31,0.21,0.55,0.21c0.26,0,0.49-0.08,0.68-0.23L205.27,154.25z"/>
	<path class="st0" d="M206.91,154.27c-0.38-0.21-0.67-0.5-0.89-0.87c-0.21-0.37-0.32-0.79-0.32-1.25s0.11-0.89,0.32-1.26
		s0.51-0.66,0.89-0.86s0.8-0.31,1.28-0.31c0.47,0,0.9,0.1,1.27,0.31s0.67,0.5,0.88,0.86s0.32,0.79,0.32,1.26s-0.11,0.89-0.32,1.25
		c-0.21,0.37-0.51,0.66-0.88,0.87s-0.8,0.31-1.27,0.31C207.72,154.59,207.29,154.48,206.91,154.27z M209.01,153.62
		c0.24-0.14,0.43-0.34,0.57-0.59c0.14-0.25,0.21-0.55,0.21-0.88s-0.07-0.62-0.21-0.88s-0.33-0.45-0.57-0.59
		c-0.24-0.14-0.52-0.21-0.82-0.21c-0.31,0-0.58,0.07-0.82,0.21c-0.24,0.14-0.43,0.33-0.58,0.59c-0.14,0.25-0.21,0.55-0.21,0.88
		s0.07,0.62,0.21,0.88c0.14,0.26,0.33,0.45,0.58,0.59c0.24,0.14,0.52,0.21,0.82,0.21C208.5,153.83,208.77,153.76,209.01,153.62z"/>
	<path class="st0" d="M212.1,154.43c-0.36-0.1-0.64-0.24-0.85-0.4l0.36-0.68c0.21,0.15,0.46,0.27,0.76,0.36s0.6,0.13,0.91,0.13
		c0.76,0,1.13-0.22,1.13-0.65c0-0.14-0.05-0.26-0.15-0.34c-0.1-0.08-0.23-0.15-0.38-0.18s-0.37-0.08-0.65-0.13
		c-0.38-0.06-0.7-0.13-0.94-0.21c-0.24-0.08-0.45-0.21-0.63-0.4c-0.17-0.19-0.26-0.45-0.26-0.78c0-0.43,0.18-0.78,0.54-1.04
		c0.36-0.26,0.84-0.39,1.45-0.39c0.32,0,0.64,0.04,0.95,0.12c0.32,0.08,0.58,0.18,0.78,0.32l-0.37,0.68
		c-0.39-0.25-0.85-0.38-1.38-0.38c-0.37,0-0.64,0.06-0.84,0.18c-0.19,0.12-0.29,0.28-0.29,0.48c0,0.16,0.05,0.28,0.16,0.37
		c0.11,0.09,0.24,0.16,0.4,0.2c0.16,0.04,0.38,0.09,0.67,0.14c0.38,0.07,0.69,0.14,0.93,0.21c0.24,0.07,0.44,0.2,0.61,0.38
		c0.17,0.18,0.25,0.43,0.25,0.76c0,0.43-0.18,0.78-0.55,1.03s-0.87,0.38-1.51,0.38C212.84,154.59,212.46,154.53,212.1,154.43z"/>
	<path class="st0" d="M220.36,150.24c0.36,0.35,0.54,0.87,0.54,1.54v2.75h-0.86v-2.65c0-0.46-0.11-0.81-0.33-1.04
		c-0.22-0.23-0.54-0.35-0.95-0.35c-0.47,0-0.84,0.14-1.11,0.41c-0.27,0.27-0.41,0.67-0.41,1.17v2.46h-0.86v-6.68h0.86v2.58
		c0.18-0.23,0.42-0.41,0.71-0.53s0.62-0.19,0.98-0.19C219.52,149.72,220,149.89,220.36,150.24z"/>
	<path class="st0" d="M223.29,154.27c-0.38-0.21-0.67-0.5-0.89-0.87c-0.21-0.37-0.32-0.79-0.32-1.25s0.11-0.89,0.32-1.26
		s0.51-0.66,0.89-0.86s0.8-0.31,1.28-0.31c0.47,0,0.9,0.1,1.27,0.31s0.67,0.5,0.88,0.86s0.32,0.79,0.32,1.26s-0.11,0.89-0.32,1.25
		c-0.21,0.37-0.51,0.66-0.88,0.87s-0.8,0.31-1.27,0.31C224.09,154.59,223.67,154.48,223.29,154.27z M225.39,153.62
		c0.24-0.14,0.43-0.34,0.57-0.59c0.14-0.25,0.21-0.55,0.21-0.88s-0.07-0.62-0.21-0.88s-0.33-0.45-0.57-0.59
		c-0.24-0.14-0.52-0.21-0.82-0.21c-0.31,0-0.58,0.07-0.82,0.21c-0.24,0.14-0.43,0.33-0.58,0.59c-0.14,0.25-0.21,0.55-0.21,0.88
		s0.07,0.62,0.21,0.88c0.14,0.26,0.33,0.45,0.58,0.59c0.24,0.14,0.52,0.21,0.82,0.21C224.88,153.83,225.15,153.76,225.39,153.62z"/>
	<path class="st0" d="M232.01,150.02c0.37,0.2,0.65,0.49,0.86,0.85c0.21,0.37,0.31,0.79,0.31,1.27c0,0.48-0.1,0.9-0.31,1.27
		s-0.49,0.66-0.86,0.86s-0.78,0.31-1.24,0.31c-0.34,0-0.66-0.07-0.94-0.2c-0.29-0.13-0.53-0.32-0.72-0.58v2.47h-0.86v-6.52h0.83
		v0.76c0.19-0.26,0.43-0.46,0.73-0.6s0.62-0.2,0.97-0.2C231.23,149.72,231.65,149.82,232.01,150.02z M231.52,153.62
		c0.24-0.14,0.43-0.34,0.58-0.59c0.14-0.25,0.21-0.55,0.21-0.88s-0.07-0.62-0.21-0.88c-0.14-0.25-0.33-0.45-0.58-0.59
		c-0.24-0.14-0.52-0.21-0.82-0.21c-0.3,0-0.57,0.07-0.81,0.21c-0.24,0.14-0.44,0.34-0.58,0.59c-0.14,0.25-0.21,0.54-0.21,0.87
		s0.07,0.62,0.21,0.88c0.14,0.26,0.33,0.45,0.58,0.59c0.25,0.14,0.52,0.21,0.82,0.21C231,153.83,231.28,153.76,231.52,153.62z"/>
</g>
</svg>
