<?xml version="1.0" encoding="utf-8"?>
<!-- Generator: Adobe Illustrator 24.1.0, SVG Export Plug-In . SVG Version: 6.00 Build 0)  -->
<svg version="1.1" id="Layer_1" xmlns="http://www.w3.org/2000/svg" xmlns:xlink="http://www.w3.org/1999/xlink" x="0px" y="0px"
	 viewBox="0 0 294.3 221.9" style="enable-background:new 0 0 294.3 221.9;" xml:space="preserve">
<style type="text/css">
	.st0{fill:#F0A160;}
	.st1{fill:#FFFFFF;}
	.st2{font-family:'Montserrat-SemiBold';}
	.st3{font-size:12px;}
	.st4{fill:none;}
	.st5{font-family:'Montserrat-Medium';}
	.st6{font-size:9px;}
</style>
<path id="Rectangle_117_3_" class="st0" d="M26.6,15.7h246c7.2,0,13,5.8,13,13v169c0,7.2-5.8,13-13,13h-246c-7.2,0-13-5.8-13-13
	v-169C13.6,21.5,19.4,15.7,26.6,15.7z"/>
<path id="Rectangle_118_3_" class="st1" d="M154,31.7h109c3.9,0,7,3.1,7,7v154c0,3.9-3.1,7-7,7H154c-3.9,0-7-3.1-7-7v-154
	C147,34.8,150.1,31.7,154,31.7z"/>
<g>
	<path id="Path_58" class="st1" d="M110.5,68.1c1.2,0,2.2-1,2.2-2.2v-4.5c0-1.2-1-2.2-2.2-2.2H106c-1.2,0-2.2,1-2.2,2.2v1.1h-25
		c-0.6-2.4-3-3.8-5.4-3.2c-1.5,0.4-2.8,1.6-3.2,3.2h-7.6c-0.6,0-1.1,0.5-1.1,1.1c0,0.6,0.5,1.1,1.1,1.1h7.6c0.6,2.4,3,3.8,5.4,3.2
		c1.5-0.4,2.8-1.6,3.2-3.2h25v1.1c0,1.2,1,2.2,2.2,2.2h1.1v25.1c-2.4,0.6-3.8,3-3.3,5.3c0.4,1.6,1.6,2.9,3.3,3.3v25H106
		c-1.2,0-2.2,1-2.2,2.2v1.3h-4c-0.6,0-1.1,0.5-1.1,1.1s0.5,1.1,1.1,1.1l0,0h4v1c0,1.2,1,2.2,2.2,2.2h4.5c1.2,0,2.2-1,2.2-2.2V129
		c0-1.2-1-2.2-2.2-2.2h-1.1v-25c2.4-0.7,3.7-3.1,3.1-5.5c-0.4-1.5-1.6-2.6-3.1-3.1V68.1H110.5z M74.5,65.8c-1.2,0-2.2-1-2.2-2.2
		s1-2.2,2.2-2.2c1.2,0,2.2,1,2.2,2.2v0C76.7,64.9,75.8,65.8,74.5,65.8z M110.4,133.4h-4.4V129h4.4V133.4z M110.4,97.5
		c0,1.2-1,2.2-2.2,2.2c-1.2,0-2.2-1-2.2-2.2c0-1.2,1-2.2,2.2-2.2l0,0C109.4,95.3,110.4,96.3,110.4,97.5z M106.1,61.5h4.4v4.4h-4.4
		V61.5z"/>
	<path id="Path_59" class="st1" d="M95,130.2H79V129c0-1.2-1-2.2-2.2-2.2h-1.1v-2.5c0-0.6-0.5-1.1-1.1-1.1c-0.6,0-1.1,0.5-1.1,1.1
		l0,0v2.5h-1.2c-1.2,0-2.2,1-2.2,2.2v1.3h-25V129c0-1.2-1-2.2-2.2-2.2h-1.1v-24.9H43c1.2,0,2.1-0.9,2.1-2.1v-1.4h2.6
		c0.6,0,1.1-0.5,1.1-1.1c0-0.6-0.5-1.1-1.1-1.1h-2.6v-1.1c0-1.2-0.9-2.1-2.1-2.1h-1.2v-25H43c1.2,0,2.2-1,2.2-2.2v-1.1h12.7
		c0.6,0,1.1-0.5,1.1-1.1c0-0.6-0.5-1.1-1.1-1.1l0,0H45.1v-1.1c0-1.2-1-2.2-2.2-2.2h-4.5c-1.2,0-2.2,1-2.2,2.2v4.5
		c0,1.2,1,2.2,2.2,2.2h1.1v25h-1.2c-1.2,0-2.1,0.9-2.1,2.1v4.7c0,1.2,0.9,2.1,2.1,2.1h1.2v24.8h-1.1c-1.2,0-2.2,1-2.2,2.2v4.5
		c0,1.2,1,2.2,2.2,2.2h4.5c1.2,0,2.2-1,2.2-2.2v-1h25v1c0,1.2,1,2.2,2.2,2.2h4.5c1.2,0,2.2-1,2.2-2.2v-1H95c0.6,0,1.1-0.5,1.1-1.1
		S95.7,130.2,95,130.2L95,130.2z M38.5,61.5h4.4v4.4h-4.4V61.5z M38.5,95.3h4.4v4.4h-4.4V95.3z M42.9,133.4h-4.4V129h4.4V133.4z
		 M76.7,133.4h-4.4V129h4.4L76.7,133.4z"/>
	<path id="Path_60" class="st1" d="M61.3,98.6h2.8c0.6,0,1.1-0.5,1.1-1.1c0-0.6-0.5-1.1-1.1-1.1h-2.8c-0.6,0-1.1,0.5-1.1,1.1
		C60.1,98.1,60.6,98.6,61.3,98.6z"/>
	<path id="Path_61" class="st1" d="M52.3,96.4c-0.6,0-1.1,0.5-1.1,1.1c0,0.6,0.5,1.1,1.1,1.1h2.8c0.6,0,1.1-0.5,1.1-1.1
		c0-0.6-0.5-1.1-1.1-1.1H52.3z"/>
	<path id="Path_62" class="st1" d="M74.7,112c0.6,0,1.1-0.5,1.1-1.1l0,0v-2.8c0-0.6-0.5-1.1-1.1-1.1c-0.6,0-1.1,0.5-1.1,1.1v2.8
		C73.6,111.5,74.1,112,74.7,112C74.7,112,74.7,112,74.7,112z"/>
	<path id="Path_63" class="st1" d="M74.7,121c0.6,0,1.1-0.5,1.1-1.1V117c0-0.6-0.5-1.1-1.1-1.1c-0.6,0-1.1,0.5-1.1,1.1l0,0v2.8
		C73.6,120.5,74.1,121,74.7,121z"/>
	<path id="Path_64" class="st1" d="M63.5,105.6c0.1-0.6-0.4-1.2-1-1.2c-0.6-0.1-1.2,0.4-1.2,1l0,0l-0.5,4.7c-0.1,0.6,0.4,1.2,1,1.2
		c0,0,0.1,0,0.1,0c0,0,0.1,0,0.1,0l4.5-0.5c0.6-0.1,1.1-0.6,1-1.2c-0.1-0.6-0.6-1.1-1.2-1l-1.3,0.1l6.9-6.9c0.2,0,0.3,0.1,0.5,0.1
		h1.2v1.7c0,0.6,0.5,1.1,1.1,1.1c0.6,0,1.1-0.5,1.1-1.1v-1.7H77c1.2,0,2.1-0.9,2.1-2.1v-4.7c0-0.2,0-0.3-0.1-0.5l6.8-6.8l-0.1,1.3
		c-0.1,0.6,0.4,1.2,1,1.2c0,0,0,0,0,0c0,0,0.1,0,0.1,0c0.6,0,1.1-0.4,1.1-1l0.5-4.5c0.1-0.6-0.4-1.2-1-1.2c-0.1,0-0.2,0-0.2,0
		l-4.7,0.5c-0.6,0.1-1.1,0.6-1,1.2c0.1,0.6,0.6,1.1,1.2,1l1.6-0.2l-6.8,6.8c-0.1,0-0.3,0-0.4,0h-4.7c-1.2,0-2.1,0.9-2.1,2.1v1.2
		h-1.7c-0.6,0-1.1,0.5-1.1,1.1c0,0.6,0.5,1.1,1.1,1.1h1.7v1.2c0,0.1,0,0.3,0,0.4l-7,7L63.5,105.6z M72.5,95.3h4.4v4.4h-4.4V95.3z"/>
</g>
<text transform="matrix(1 0 0 1 32.2027 172.9702)" class="st1 st2 st3">Various Tools</text>
<rect x="167.4" y="72.9" class="st4" width="82.1" height="84.7"/>
<text transform="matrix(1 0 0 1 192.6612 79.5313)"><tspan x="0" y="0" class="st0 st5 st6">Sketch</tspan><tspan x="1.2" y="15" class="st0 st5 st6">Figma</tspan><tspan x="-1.8" y="30" class="st0 st5 st6">Invision</tspan><tspan x="-7.2" y="45" class="st0 st5 st6">Adobe XD</tspan><tspan x="-6.4" y="60" class="st0 st5 st6">Illustrator</tspan><tspan x="-9.3" y="75" class="st0 st5 st6">Photoshop</tspan></text>
</svg>
