<?xml version="1.0" encoding="utf-8"?>
<!-- Generator: Adobe Illustrator 24.1.0, SVG Export Plug-In . SVG Version: 6.00 Build 0)  -->
<svg version="1.1" id="Layer_1" xmlns="http://www.w3.org/2000/svg" xmlns:xlink="http://www.w3.org/1999/xlink" x="0px" y="0px"
	 viewBox="0 0 294.3 221.9" style="enable-background:new 0 0 294.3 221.9;" xml:space="preserve">
<style type="text/css">
	.st0{fill:#F0A160;}
	.st1{fill:#FFFFFF;}
	.st2{font-family:'Montserrat-SemiBold';}
	.st3{font-size:12px;}
	.st4{fill:none;}
	.st5{font-family:'Montserrat-Medium';}
	.st6{font-size:9px;}
</style>
<path id="Rectangle_117_1_" class="st0" d="M26.6,15.7h246c7.2,0,13,5.8,13,13v169c0,7.2-5.8,13-13,13h-246c-7.2,0-13-5.8-13-13
	v-169C13.6,21.5,19.4,15.7,26.6,15.7z"/>
<text transform="matrix(1 0 0 1 28.851 172.9703)" class="st1 st2 st3">User Research</text>
<path id="Rectangle_118_1_" class="st1" d="M154,31.7h109c3.9,0,7,3.1,7,7v154c0,3.9-3.1,7-7,7H154c-3.9,0-7-3.1-7-7v-154
	C147,34.8,150.1,31.7,154,31.7z"/>
<g>
	<ellipse id="Ellipse_1" class="st1" cx="91.8" cy="77.7" rx="1.6" ry="0.8"/>
	<ellipse id="Ellipse_2" class="st1" cx="101.9" cy="77.7" rx="1.2" ry="0.8"/>
	<path id="Path_13" class="st1" d="M93.1,88.8h5c2.7,0,5-2.2,5-5h-2.5c0,1.4-1.1,2.5-2.5,2.5h-5V88.8z"/>
	<path id="Path_14" class="st1" d="M102.8,94l-0.3-0.8c2.9-1.1,5-3.8,5.4-6.8h0.1c2.7,0,5-2.2,5-5c0-1-0.3-2-0.9-2.8l0.6-3.2
		c1.5-7.4-3.3-14.6-10.7-16.1c-0.9-0.2-1.8-0.3-2.7-0.3h-4.9c-4.1,0-7.9,1.8-10.5,5H43.5c-1.4,0-2.5,1.1-2.5,2.5v21.8
		c-3.3,5.7-3.3,12.8,0,18.5v26.7c0,1.4,1.1,2.5,2.5,2.5h72v-26.1C115.4,102.3,110.2,95.7,102.8,94z M112.9,108.7h-11.5l-2.1-6.2
		l0.6-1.7l4,2.4l1.2-5.8C109.5,99.5,112.5,103.8,112.9,108.7z M94.9,108.7l1.7-5h0.7l1.7,5H94.9z M94.3,97.6l-2.8,1.7L91,96.5
		c0.2-0.1,0.5-0.1,0.8-0.2L94.3,97.6z M102,96.3c0.3,0.1,0.5,0.1,0.8,0.2l-0.5,2.7l-2.8-1.7L102,96.3z M97.2,101.2h-0.7l-0.6-1.7
		l0.9-0.6l0.9,0.6L97.2,101.2z M88.6,97.4l1.2,5.8l4-2.4l0.6,1.7l-2.1,6.2H80.8C81.2,103.8,84.2,99.5,88.6,97.4L88.6,97.4z
		 M100.3,94.4l-3.4,1.7l-3.4-1.7l0.2-0.6c0.2,0,0.5,0,0.7,0h5c0.3,0,0.5,0,0.7,0L100.3,94.4z M108,83.9v-5c1.4,0,2.5,1.1,2.5,2.5
		C110.5,82.8,109.4,83.9,108,83.9C108,83.9,108,83.9,108,83.9z M94.4,61.5h4.9c6.2,0,11.2,5,11.2,11.2c0,0.7-0.1,1.5-0.2,2.2
		l-0.4,1.9c-0.6-0.2-1.2-0.4-1.9-0.4v-2.5h-2.5v11.2c0,3.4-2.8,6.2-6.2,6.2h-5c-3.4,0-6.2-2.8-6.2-6.2V73.9c0-1.4,1.1-2.5,2.5-2.5
		V69c-2.7,0-5,2.2-5,5v2.5c-0.6,0-1.3,0.1-1.9,0.4l-0.4-1.9c-1.2-6.1,2.7-11.9,8.8-13.2C92.9,61.6,93.7,61.5,94.4,61.5z M85.7,83.9
		c-1.4,0-2.5-1.1-2.5-2.5c0-1.4,1.1-2.5,2.5-2.5l0,0V83.9z M82.2,66.5c-1,1.9-1.5,4.1-1.5,6.2c0,0.4,0,0.8,0.1,1.2H43.5v-7.4H82.2z
		 M55.9,81.5v15.4l-13.3,7.7c-3.9-8-0.5-17.6,7.5-21.5C51.9,82.1,53.9,81.6,55.9,81.5z M57.2,99l13.3,7.7c-5,7.3-15,9.2-22.4,4.2
		c-1.7-1.1-3.1-2.6-4.2-4.2L57.2,99z M71.7,104.5l-13.3-7.7V81.5c8.9,0.7,15.5,8.4,14.8,17.2C73.1,100.7,72.6,102.7,71.7,104.5z
		 M43.5,133.5v-23.4c7,7.6,18.7,8,26.3,1.1c7.6-7,8-18.7,1.1-26.3c-7-7.6-18.7-8-26.3-1.1c-0.4,0.3-0.7,0.7-1.1,1.1v-8.5h37.7
		l0.4,2.1c-1.6,2.2-1,5.3,1.2,6.9c0.8,0.6,1.8,0.9,2.9,0.9h0.1c0.5,3.1,2.5,5.7,5.4,6.8L90.9,94c-7.4,1.7-12.7,8.3-12.7,15.9v1.2
		h17.4v2.5h-9.9v7.4H108v-7.4h-9.9v-2.5H113v22.3H43.5z M105.5,116.1v2.5H88.2v-2.5H105.5z"/>
	<path id="Path_15" class="st1" d="M92,67.1l2.2-1.1l3.7,7.4l-2.2,1.1L92,67.1z"/>
	<path id="Path_16" class="st1" d="M98.2,67.1l2.2-1.1l3.7,7.4l-2.2,1.1L98.2,67.1z"/>
	<path id="Path_17" class="st1" d="M46,69h2.5v2.5H46V69z"/>
	<path id="Path_18" class="st1" d="M50.9,69h2.5v2.5h-2.5V69z"/>
	<path id="Path_19" class="st1" d="M55.9,69h2.5v2.5h-2.5V69z"/>
	<path id="Path_20" class="st1" d="M85.7,131H108v-7.4H85.7V131z M88.2,126.1h17.4v2.5H88.2V126.1z"/>
	<path id="Path_21" class="st1" d="M48.5,128.5h2.5v2.5h-2.5V128.5z"/>
	<path id="Path_22" class="st1" d="M53.4,128.5h19.9v2.5H53.4V128.5z"/>
	<path id="Path_23" class="st1" d="M48.5,123.6h2.5v2.5h-2.5V123.6z"/>
	<path id="Path_24" class="st1" d="M53.4,123.6h24.8v2.5H53.4V123.6z"/>
	<path id="Path_25" class="st1" d="M48.5,118.6h2.5v2.5h-2.5V118.6z"/>
	<path id="Path_26" class="st1" d="M53.4,118.6h7.4v2.5h-7.4V118.6z"/>
	<path id="Path_27" class="st1" d="M63.4,118.6h7.4v2.5h-7.4V118.6z"/>
</g>
<rect x="167.4" y="88.7" class="st4" width="82.1" height="59.8"/>
<text transform="matrix(1 0 0 1 170.6114 95.3638)"><tspan x="0" y="0" class="st0 st5 st6">Usability Testing</tspan><tspan x="2.6" y="15" class="st0 st5 st6">User interviews</tspan><tspan x="5.5" y="30" class="st0 st5 st6">User personas</tspan><tspan x="6" y="45" class="st0 st5 st6">Screener QNS</tspan></text>
</svg>
