<?xml version="1.0" encoding="utf-8"?>
<!-- Generator: Adobe Illustrator 24.1.0, SVG Export Plug-In . SVG Version: 6.00 Build 0)  -->
<svg version="1.1" id="Layer_1" xmlns="http://www.w3.org/2000/svg" xmlns:xlink="http://www.w3.org/1999/xlink" x="0px" y="0px"
	 viewBox="0 0 294.35 221.88" style="enable-background:new 0 0 294.35 221.88;" xml:space="preserve">
<style type="text/css">
	.st0{fill:#F0A160;}
	.st1{fill:#FFFFFF;}
	.st2{enable-background:new    ;}
</style>
<path id="Rectangle_117_2_" class="st0" d="M26.61,15.72h246c7.18,0,13,5.82,13,13v169c0,7.18-5.82,13-13,13h-246
	c-7.18,0-13-5.82-13-13v-169C13.61,21.54,19.43,15.72,26.61,15.72z"/>
<g class="st2">
	<path class="st1" d="M52.93,163.89l-2.78,8.4h-1.66l-2.08-6.22l-2.11,6.22h-1.67l-2.78-8.4h1.62l2.09,6.38l2.17-6.38h1.44
		l2.12,6.42l2.15-6.42H52.93z"/>
	<path class="st1" d="M59.58,169.57h-5.03c0.09,0.47,0.32,0.85,0.69,1.12c0.37,0.28,0.83,0.41,1.39,0.41c0.7,0,1.28-0.23,1.74-0.7
		l0.8,0.92c-0.29,0.34-0.65,0.6-1.09,0.78c-0.44,0.18-0.94,0.26-1.49,0.26c-0.7,0-1.32-0.14-1.86-0.42
		c-0.54-0.28-0.95-0.67-1.24-1.17s-0.44-1.07-0.44-1.7c0-0.62,0.14-1.19,0.43-1.69c0.28-0.5,0.68-0.89,1.18-1.17
		c0.5-0.28,1.07-0.42,1.7-0.42c0.62,0,1.18,0.14,1.67,0.41c0.49,0.28,0.88,0.66,1.15,1.16c0.28,0.5,0.41,1.08,0.41,1.73
		C59.6,169.23,59.59,169.38,59.58,169.57z M55.14,167.44c-0.33,0.28-0.53,0.66-0.61,1.13h3.64c-0.06-0.46-0.26-0.84-0.59-1.13
		s-0.74-0.43-1.22-0.43C55.88,167.01,55.47,167.15,55.14,167.44z"/>
	<path class="st1" d="M66.26,166.22c0.49,0.27,0.88,0.66,1.16,1.15s0.42,1.07,0.42,1.72c0,0.65-0.14,1.22-0.42,1.72
		c-0.28,0.5-0.67,0.89-1.16,1.16c-0.49,0.27-1.05,0.41-1.67,0.41c-0.44,0-0.84-0.08-1.21-0.23c-0.36-0.15-0.67-0.38-0.92-0.68v0.83
		h-1.43v-8.9h1.5v3.28c0.26-0.28,0.56-0.49,0.91-0.64c0.35-0.14,0.73-0.22,1.15-0.22C65.21,165.81,65.77,165.95,66.26,166.22z
		 M65.79,170.54c0.36-0.37,0.53-0.85,0.53-1.45c0-0.6-0.18-1.08-0.53-1.45c-0.36-0.37-0.81-0.55-1.36-0.55
		c-0.36,0-0.68,0.08-0.97,0.25s-0.52,0.4-0.68,0.7s-0.25,0.66-0.25,1.06c0,0.4,0.08,0.75,0.25,1.06c0.17,0.3,0.4,0.54,0.68,0.7
		s0.61,0.25,0.97,0.25C64.97,171.09,65.43,170.91,65.79,170.54z"/>
	<path class="st1" d="M72.73,163.89h3.67c0.9,0,1.69,0.17,2.39,0.52c0.7,0.35,1.24,0.84,1.62,1.48c0.38,0.64,0.58,1.37,0.58,2.2
		s-0.19,1.57-0.58,2.2c-0.38,0.64-0.92,1.13-1.62,1.48c-0.7,0.35-1.49,0.52-2.39,0.52h-3.67V163.89z M76.33,170.97
		c0.62,0,1.16-0.12,1.63-0.35s0.83-0.57,1.08-1.01c0.25-0.44,0.38-0.94,0.38-1.52s-0.13-1.08-0.38-1.52
		c-0.25-0.44-0.61-0.77-1.08-1.01c-0.47-0.24-1.01-0.35-1.63-0.35h-2.04v5.76H76.33z"/>
	<path class="st1" d="M88.49,169.57h-5.03c0.09,0.47,0.32,0.85,0.69,1.12c0.37,0.28,0.83,0.41,1.39,0.41c0.7,0,1.28-0.23,1.74-0.7
		l0.8,0.92c-0.29,0.34-0.65,0.6-1.09,0.78c-0.44,0.18-0.94,0.26-1.49,0.26c-0.7,0-1.32-0.14-1.86-0.42
		c-0.54-0.28-0.95-0.67-1.24-1.17s-0.44-1.07-0.44-1.7c0-0.62,0.14-1.19,0.43-1.69c0.28-0.5,0.68-0.89,1.18-1.17
		c0.5-0.28,1.07-0.42,1.7-0.42c0.62,0,1.18,0.14,1.67,0.41c0.49,0.28,0.88,0.66,1.15,1.16c0.28,0.5,0.41,1.08,0.41,1.73
		C88.52,169.23,88.51,169.38,88.49,169.57z M84.06,167.44c-0.33,0.28-0.53,0.66-0.61,1.13h3.64c-0.06-0.46-0.26-0.84-0.59-1.13
		s-0.74-0.43-1.22-0.43C84.8,167.01,84.39,167.15,84.06,167.44z"/>
	<path class="st1" d="M90.41,172.17c-0.5-0.14-0.89-0.31-1.19-0.52l0.58-1.14c0.29,0.19,0.63,0.35,1.04,0.46
		c0.4,0.12,0.8,0.17,1.19,0.17c0.9,0,1.34-0.24,1.34-0.71c0-0.22-0.11-0.38-0.34-0.47c-0.23-0.09-0.59-0.17-1.1-0.25
		c-0.53-0.08-0.96-0.17-1.29-0.28c-0.33-0.1-0.62-0.29-0.86-0.55c-0.24-0.26-0.37-0.62-0.37-1.09c0-0.61,0.25-1.09,0.76-1.46
		c0.51-0.36,1.19-0.55,2.06-0.55c0.44,0,0.88,0.05,1.32,0.15c0.44,0.1,0.8,0.23,1.08,0.4l-0.58,1.14c-0.54-0.32-1.16-0.48-1.84-0.48
		c-0.44,0-0.77,0.07-1,0.2c-0.23,0.13-0.34,0.31-0.34,0.52c0,0.24,0.12,0.41,0.37,0.51c0.24,0.1,0.62,0.19,1.13,0.28
		c0.51,0.08,0.93,0.17,1.26,0.28c0.33,0.1,0.61,0.28,0.85,0.53c0.24,0.25,0.35,0.6,0.35,1.06c0,0.6-0.26,1.08-0.78,1.44
		c-0.52,0.36-1.23,0.54-2.12,0.54C91.42,172.38,90.91,172.31,90.41,172.17z"/>
	<path class="st1" d="M96.21,164.57c-0.18-0.17-0.28-0.39-0.28-0.64c0-0.26,0.09-0.47,0.28-0.64c0.18-0.17,0.41-0.26,0.68-0.26
		c0.27,0,0.5,0.08,0.68,0.25c0.18,0.16,0.28,0.37,0.28,0.62c0,0.26-0.09,0.49-0.27,0.67c-0.18,0.18-0.41,0.27-0.69,0.27
		C96.62,164.83,96.39,164.74,96.21,164.57z M96.14,165.88h1.5v6.41h-1.5V165.88z"/>
	<path class="st1" d="M105.97,165.88v5.44c0,2.26-1.15,3.38-3.46,3.38c-0.62,0-1.2-0.08-1.75-0.23c-0.55-0.16-1.01-0.38-1.37-0.68
		l0.67-1.13c0.28,0.23,0.63,0.42,1.06,0.56c0.43,0.14,0.86,0.21,1.3,0.21c0.7,0,1.22-0.16,1.55-0.48c0.33-0.32,0.49-0.81,0.49-1.46
		v-0.34c-0.26,0.28-0.57,0.49-0.94,0.64c-0.37,0.14-0.77,0.22-1.21,0.22c-0.61,0-1.16-0.13-1.65-0.39c-0.49-0.26-0.88-0.63-1.16-1.1
		c-0.28-0.47-0.43-1.01-0.43-1.62c0-0.61,0.14-1.15,0.43-1.61c0.28-0.47,0.67-0.83,1.16-1.09c0.49-0.26,1.04-0.38,1.65-0.38
		c0.46,0,0.89,0.08,1.27,0.23s0.7,0.38,0.95,0.7v-0.85H105.97z M103.94,170.22c0.36-0.34,0.55-0.78,0.55-1.33
		c0-0.54-0.18-0.97-0.55-1.31s-0.83-0.5-1.4-0.5c-0.58,0-1.05,0.17-1.41,0.5c-0.36,0.34-0.55,0.77-0.55,1.31
		c0,0.54,0.18,0.99,0.55,1.33c0.36,0.34,0.83,0.51,1.41,0.51C103.11,170.73,103.58,170.56,103.94,170.22z"/>
	<path class="st1" d="M113.51,166.52c0.49,0.47,0.73,1.17,0.73,2.1v3.67h-1.5v-3.48c0-0.56-0.13-0.98-0.4-1.27s-0.64-0.43-1.13-0.43
		c-0.55,0-0.99,0.17-1.31,0.5c-0.32,0.33-0.48,0.81-0.48,1.43v3.24h-1.5v-6.41h1.43v0.83c0.25-0.3,0.56-0.52,0.94-0.67
		c0.38-0.15,0.8-0.23,1.27-0.23C112.38,165.81,113.03,166.05,113.51,166.52z"/>
</g>
<path id="Rectangle_118_2_" class="st1" d="M153.98,31.65h109c3.87,0,7,3.13,7,7v154c0,3.87-3.13,7-7,7h-109c-3.87,0-7-3.13-7-7
	v-154C146.98,34.79,150.11,31.65,153.98,31.65z"/>
<g>
	<path id="Path_28" class="st1" d="M47.6,90.47c0.46,0.46,1.2,0.46,1.65,0c0.46-0.46,0.46-1.2,0-1.65l-2.84-2.84l2.84-2.84
		c0.46-0.46,0.46-1.2,0-1.65c-0.46-0.46-1.2-0.46-1.65,0l-3.66,3.66c-0.46,0.46-0.46,1.2,0,1.65c0,0,0,0,0,0L47.6,90.47z"/>
	<path id="Path_29" class="st1" d="M59.19,85.98l-2.84,2.84c-0.46,0.46-0.46,1.2,0,1.65c0.46,0.46,1.2,0.46,1.65,0l0,0l3.66-3.66
		c0.46-0.46,0.46-1.2,0-1.65l-3.66-3.66c-0.47-0.45-1.21-0.43-1.65,0.03c-0.43,0.45-0.43,1.17,0,1.62L59.19,85.98z"/>
	<path id="Path_30" class="st1" d="M51.06,90.73c0.6,0.24,1.28-0.06,1.51-0.66l2.88-7.33c0.25-0.59-0.03-1.28-0.62-1.53
		c-0.59-0.25-1.28,0.03-1.53,0.62c-0.01,0.02-0.02,0.04-0.02,0.06l-2.88,7.33C50.16,89.81,50.46,90.49,51.06,90.73z"/>
	<path id="Path_31" class="st1" d="M45.42,97.66h7.87c0.65,0,1.17-0.52,1.17-1.17c0-0.65-0.52-1.17-1.17-1.17h-7.87
		c-0.65,0-1.17,0.52-1.17,1.17C44.25,97.14,44.78,97.66,45.42,97.66z"/>
	<path id="Path_32" class="st1" d="M71.42,95.32H57.58c-0.65,0-1.17,0.52-1.17,1.17c0,0.65,0.52,1.17,1.17,1.17h13.84
		c0.65,0,1.17-0.52,1.17-1.17C72.59,95.85,72.06,95.32,71.42,95.32z"/>
	<path id="Path_33" class="st1" d="M45.42,102.59h3.35c0.65,0,1.17-0.52,1.17-1.17c0-0.65-0.52-1.17-1.17-1.17h-3.35
		c-0.65,0-1.17,0.52-1.17,1.17C44.25,102.07,44.78,102.59,45.42,102.59z"/>
	<path id="Path_34" class="st1" d="M67.14,100.25c-0.65,0-1.17,0.52-1.17,1.17c0,0.65,0.52,1.17,1.17,1.17h2.04
		c0.65,0,1.17-0.52,1.17-1.17c0-0.65-0.52-1.17-1.17-1.17H67.14z"/>
	<path id="Path_35" class="st1" d="M64.07,101.42c0-0.65-0.52-1.17-1.17-1.17H52.87c-0.65,0-1.17,0.52-1.17,1.17
		c0,0.65,0.52,1.17,1.17,1.17H62.9C63.55,102.59,64.07,102.07,64.07,101.42C64.07,101.42,64.07,101.42,64.07,101.42z"/>
	<path id="Path_36" class="st1" d="M71.72,101.42c0,0.65,0.52,1.17,1.17,1.17h3.82c0.65,0,1.17-0.52,1.17-1.17
		c0-0.65-0.52-1.17-1.17-1.17h-3.82C72.24,100.25,71.72,100.77,71.72,101.42L71.72,101.42z"/>
	<path id="Path_37" class="st1" d="M65.36,86.91h4.03c0.65,0,1.17-0.52,1.17-1.17c0-0.65-0.52-1.17-1.17-1.17h-4.03
		c-0.65,0-1.17,0.52-1.17,1.17C64.19,86.39,64.72,86.91,65.36,86.91z"/>
	<path id="Path_38" class="st1" d="M73.91,86.91h24.61c0.65,0,1.17-0.52,1.17-1.17c0-0.65-0.52-1.17-1.17-1.17H73.91
		c-0.65,0-1.17,0.52-1.17,1.17C72.74,86.39,73.27,86.91,73.91,86.91z"/>
	<path id="Path_39" class="st1" d="M94.78,89.72h-9.97c-0.65,0-1.17,0.52-1.17,1.17c0,0.65,0.52,1.17,1.17,1.17h9.97
		c0.65,0,1.17-0.52,1.17-1.17C95.95,90.24,95.43,89.72,94.78,89.72L94.78,89.72z"/>
	<path id="Path_40" class="st1" d="M81.08,89.72h-3.43c-0.65,0-1.17,0.52-1.17,1.17c0,0.65,0.52,1.17,1.17,1.17h3.43
		c0.65,0,1.17-0.52,1.17-1.17C82.24,90.24,81.72,89.72,81.08,89.72L81.08,89.72z"/>
	<path id="Path_41" class="st1" d="M65.36,92.05h8.4c0.65,0,1.17-0.52,1.17-1.17c0-0.65-0.52-1.17-1.17-1.17h-8.4
		c-0.65,0-1.17,0.52-1.17,1.17C64.19,91.53,64.72,92.05,65.36,92.05z"/>
	<path id="Path_42" class="st1" d="M62.92,105.14h-7.87c-0.65,0-1.17,0.52-1.17,1.16c0,0.65,0.52,1.17,1.16,1.17c0,0,0,0,0.01,0
		h7.87c0.65,0,1.17-0.53,1.16-1.17C64.08,105.66,63.56,105.14,62.92,105.14z"/>
	<path id="Path_43" class="st1" d="M51.47,105.14h-6.05c-0.65,0-1.17,0.53-1.16,1.17c0,0.64,0.52,1.16,1.16,1.16h6.05
		c0.65,0,1.17-0.53,1.16-1.17C52.63,105.66,52.11,105.14,51.47,105.14z"/>
	<path id="Path_44" class="st1" d="M77.18,105.14H66.9c-0.65,0-1.17,0.53-1.16,1.17c0,0.64,0.52,1.16,1.16,1.16h10.28
		c0.65,0,1.17-0.53,1.16-1.17C78.35,105.66,77.83,105.14,77.18,105.14z"/>
	<path id="Path_45" class="st1" d="M91.09,99.14h-5.62c-0.65,0-1.17,0.52-1.17,1.17c0,0.65,0.52,1.17,1.17,1.17h5.62
		c0.65,0,1.17-0.52,1.17-1.17C92.25,99.66,91.73,99.14,91.09,99.14z"/>
	<path id="Path_46" class="st1" d="M100.84,101.47h7.94c0.65,0,1.17-0.52,1.17-1.17c0-0.65-0.52-1.17-1.17-1.17h-7.94
		c-0.65,0-1.17,0.52-1.17,1.17C99.67,100.95,100.19,101.47,100.84,101.47L100.84,101.47z"/>
	<path id="Path_47" class="st1" d="M96.87,99.14h-1.82c-0.65,0-1.17,0.52-1.17,1.17c0,0.65,0.52,1.17,1.17,1.17l0,0h1.82
		c0.65,0,1.17-0.52,1.17-1.17C98.04,99.66,97.52,99.14,96.87,99.14z"/>
	<path id="Path_48" class="st1" d="M85.46,114.2h5.62c0.65,0,1.17-0.52,1.17-1.16c0-0.65-0.52-1.17-1.16-1.17c0,0,0,0-0.01,0h-5.62
		c-0.65,0-1.17,0.53-1.16,1.17C84.3,113.68,84.82,114.2,85.46,114.2z"/>
	<path id="Path_49" class="st1" d="M100.84,114.2h7.94c0.65,0,1.17-0.52,1.17-1.16c0-0.65-0.52-1.17-1.16-1.17c0,0,0,0-0.01,0h-7.94
		c-0.65,0-1.17,0.52-1.17,1.16C99.67,113.68,100.19,114.2,100.84,114.2C100.84,114.2,100.84,114.2,100.84,114.2z"/>
	<path id="Path_50" class="st1" d="M95.05,114.2h1.82c0.65,0,1.17-0.52,1.17-1.16c0-0.65-0.52-1.17-1.16-1.17c0,0,0,0-0.01,0h-1.82
		c-0.65,0-1.17,0.52-1.17,1.16C93.88,113.68,94.4,114.2,95.05,114.2C95.05,114.2,95.05,114.2,95.05,114.2z"/>
	<path id="Path_51" class="st1" d="M91.09,124.6h-5.62c-0.65,0-1.17,0.53-1.16,1.17c0,0.64,0.52,1.16,1.16,1.16h5.62
		c0.65,0,1.17-0.53,1.16-1.17C92.25,125.12,91.73,124.6,91.09,124.6z"/>
	<path id="Path_52" class="st1" d="M108.78,124.6h-7.94c-0.65,0-1.17,0.53-1.16,1.17c0,0.64,0.52,1.16,1.16,1.16h7.94
		c0.65,0,1.17-0.52,1.17-1.16C109.95,125.13,109.43,124.6,108.78,124.6C108.78,124.6,108.78,124.6,108.78,124.6z"/>
	<path id="Path_53" class="st1" d="M96.87,124.6h-1.82c-0.65,0-1.17,0.52-1.17,1.16c0,0.65,0.52,1.17,1.16,1.17c0,0,0,0,0.01,0h1.82
		c0.65,0,1.17-0.53,1.16-1.17C98.03,125.12,97.51,124.6,96.87,124.6z"/>
	<path id="Path_54" class="st1" d="M113.09,61.38H43.55c-2.84,0-5.14,2.3-5.14,5.14v56.53c0,2.84,2.3,5.14,5.14,5.14h4.4
		c0.65,0,1.17-0.52,1.17-1.17s-0.52-1.17-1.17-1.17h-4.4c-1.55,0-2.8-1.26-2.8-2.8v-4.43H83.3v2.02h-0.93c-1.27,0-2.3,1.03-2.3,2.3
		v2.93H55.04c-0.65,0-1.17,0.52-1.17,1.17s0.52,1.17,1.17,1.17h11.24v4.19h-3.53c-2.36,0-4.26,1.91-4.27,4.27v2.52
		c0,1.07,0.87,1.95,1.95,1.95h35.68c1.07,0,1.95-0.87,1.95-1.95v-2.53c0-2.36-1.91-4.26-4.27-4.27h-3.53v-1.48h21.6
		c1.27,0,2.3-1.03,2.3-2.3v-0.55c2.33-0.54,3.98-2.62,3.98-5.01l0.09-56.53C118.23,63.68,115.93,61.38,113.09,61.38z M82.42,115.84
		v-5.6h29.41v5.6H82.42z M85.64,107.9v-2.45h22.96v2.46L85.64,107.9z M108.6,118.17v2.46H85.64v-2.46H108.6z M68.62,128.19h11.46
		v0.42c0,1.27,1.03,2.3,2.3,2.3h5.55v1.48H68.62L68.62,128.19z M93.79,134.72c1.07,0,1.93,0.86,1.93,1.93v2.13h-34.9v-2.13
		c0-1.07,0.87-1.93,1.93-1.93H93.79z M111.82,128.57h-29.4v-5.6h29.41L111.82,128.57z M115.8,123.05c0,1.1-0.64,2.09-1.64,2.55
		v-2.67c0-1.27-1.03-2.29-2.29-2.29h-0.93v-2.02h4.87L115.8,123.05z M115.8,116.28h-1.68c0.02-0.13,0.04-6.08,0.04-6.08
		c0-1.27-1.03-2.3-2.3-2.3h-0.93v-2.45h0.93c1.27,0,2.3-1.03,2.3-2.3v-5.67c0-1.27-1.03-2.3-2.3-2.3h-6.6
		c-0.65,0-1.17,0.52-1.17,1.17c0,0.64,0.52,1.17,1.17,1.17h6.56v5.6H82.42v-5.6h15.58c0.65,0,1.17-0.52,1.17-1.17
		c0-0.64-0.52-1.17-1.17-1.17H82.38c-1.27,0-2.3,1.03-2.3,2.3v5.67c0,1.27,1.03,2.3,2.3,2.3h0.93v2.46h-0.93
		c-1.27,0-2.3,1.03-2.3,2.3c0,0,0.02,5.95,0.04,6.08H40.74V77.27h75.06L115.8,116.28z M115.8,74.94H40.83v-8.41
		c0-1.55,1.26-2.8,2.81-2.8H113c1.55,0,2.8,1.26,2.8,2.8L115.8,74.94z"/>
	<path id="Path_55" class="st1" d="M47.02,65.87c-1.89,0-3.43,1.53-3.43,3.43c0,1.89,1.53,3.43,3.43,3.43
		c1.89,0,3.43-1.53,3.43-3.43l0,0C50.45,67.4,48.91,65.87,47.02,65.87z M47.02,70.39c-0.6,0-1.09-0.49-1.09-1.09
		c0-0.6,0.49-1.09,1.09-1.09c0.6,0,1.09,0.49,1.09,1.09l0,0C48.11,69.9,47.62,70.38,47.02,70.39z"/>
	<path id="Path_56" class="st1" d="M55.75,65.87c-1.89,0-3.43,1.53-3.43,3.43c0,1.89,1.53,3.43,3.43,3.43
		c1.89,0,3.43-1.53,3.43-3.43C59.18,67.4,57.64,65.87,55.75,65.87z M55.75,70.39c-0.6,0-1.09-0.49-1.09-1.09
		c0-0.6,0.49-1.09,1.09-1.09c0.6,0,1.09,0.49,1.09,1.09l0,0C56.84,69.9,56.35,70.38,55.75,70.39z"/>
	<path id="Path_57" class="st1" d="M64.48,65.87c-1.89,0-3.43,1.53-3.43,3.43c0,1.89,1.53,3.43,3.43,3.43
		c1.89,0,3.43-1.53,3.43-3.43C67.9,67.4,66.37,65.87,64.48,65.87z M64.48,70.39c-0.6,0-1.09-0.49-1.09-1.09
		c0-0.6,0.49-1.09,1.09-1.09c0.6,0,1.09,0.49,1.09,1.09l0,0C65.57,69.9,65.08,70.38,64.48,70.39z"/>
</g>
<g>
	<path class="st0" d="M201.58,85.44v6.3h-0.9v-2.81h-3.62v2.81h-0.9v-6.3h0.9v2.71h3.62v-2.71H201.58z"/>
	<path class="st0" d="M204.72,86.22h-2.16v-0.78h5.21v0.78h-2.16v5.52h-0.89V86.22z"/>
	<path class="st0" d="M214.59,91.74l-0.01-4.59l-2.28,3.82h-0.41l-2.28-3.8v4.56h-0.86v-6.3h0.74l2.63,4.43l2.59-4.43h0.74l0.01,6.3
		H214.59z"/>
	<path class="st0" d="M217.34,85.44h0.9v5.52h3.41v0.78h-4.31V85.44z"/>
	<path class="st0" d="M201.71,106.39c-0.51-0.28-0.9-0.66-1.19-1.15c-0.29-0.49-0.43-1.04-0.43-1.65c0-0.61,0.14-1.16,0.43-1.65
		c0.29-0.49,0.69-0.87,1.2-1.15c0.51-0.28,1.08-0.42,1.71-0.42c0.49,0,0.94,0.08,1.35,0.25s0.76,0.41,1.04,0.73l-0.58,0.57
		c-0.47-0.5-1.07-0.75-1.77-0.75c-0.47,0-0.89,0.1-1.27,0.31s-0.67,0.5-0.89,0.87c-0.21,0.37-0.32,0.78-0.32,1.24
		s0.11,0.87,0.32,1.24s0.51,0.66,0.89,0.87s0.8,0.31,1.27,0.31c0.7,0,1.29-0.25,1.77-0.76l0.58,0.57c-0.29,0.32-0.64,0.57-1.05,0.74
		c-0.41,0.17-0.86,0.25-1.35,0.25C202.78,106.81,202.21,106.67,201.71,106.39z"/>
	<path class="st0" d="M207.54,106.59c-0.44-0.15-0.79-0.34-1.04-0.57l0.33-0.7c0.24,0.22,0.55,0.39,0.92,0.53s0.76,0.2,1.16,0.2
		c0.52,0,0.91-0.09,1.17-0.27c0.26-0.18,0.39-0.41,0.39-0.71c0-0.22-0.07-0.39-0.21-0.53c-0.14-0.14-0.32-0.24-0.52-0.31
		c-0.21-0.07-0.5-0.15-0.88-0.24c-0.47-0.11-0.86-0.23-1.15-0.34s-0.54-0.29-0.75-0.53c-0.21-0.24-0.31-0.56-0.31-0.96
		c0-0.34,0.09-0.64,0.26-0.91c0.18-0.27,0.45-0.49,0.81-0.65c0.36-0.16,0.81-0.24,1.34-0.24c0.37,0,0.74,0.05,1.1,0.14
		c0.36,0.1,0.67,0.23,0.93,0.41l-0.3,0.72c-0.26-0.17-0.55-0.3-0.85-0.38c-0.3-0.09-0.59-0.13-0.88-0.13
		c-0.51,0-0.89,0.09-1.15,0.28c-0.25,0.19-0.38,0.43-0.38,0.72c0,0.22,0.07,0.39,0.22,0.53c0.14,0.14,0.32,0.24,0.54,0.31
		c0.21,0.08,0.5,0.15,0.87,0.24c0.47,0.11,0.85,0.23,1.14,0.34c0.29,0.11,0.54,0.29,0.74,0.52s0.31,0.55,0.31,0.94
		c0,0.33-0.09,0.63-0.27,0.9c-0.18,0.27-0.45,0.49-0.82,0.65c-0.37,0.16-0.82,0.24-1.35,0.24
		C208.44,106.81,207.98,106.74,207.54,106.59z"/>
	<path class="st0" d="M213.13,106.59c-0.44-0.15-0.79-0.34-1.04-0.57l0.33-0.7c0.24,0.22,0.55,0.39,0.92,0.53s0.76,0.2,1.16,0.2
		c0.52,0,0.91-0.09,1.17-0.27c0.26-0.18,0.39-0.41,0.39-0.71c0-0.22-0.07-0.39-0.21-0.53c-0.14-0.14-0.32-0.24-0.52-0.31
		c-0.21-0.07-0.5-0.15-0.88-0.24c-0.47-0.11-0.86-0.23-1.15-0.34s-0.54-0.29-0.75-0.53c-0.21-0.24-0.31-0.56-0.31-0.96
		c0-0.34,0.09-0.64,0.26-0.91c0.18-0.27,0.45-0.49,0.81-0.65c0.36-0.16,0.81-0.24,1.34-0.24c0.37,0,0.74,0.05,1.1,0.14
		c0.36,0.1,0.67,0.23,0.93,0.41l-0.3,0.72c-0.26-0.17-0.55-0.3-0.85-0.38c-0.3-0.09-0.59-0.13-0.88-0.13
		c-0.51,0-0.89,0.09-1.15,0.28c-0.25,0.19-0.38,0.43-0.38,0.72c0,0.22,0.07,0.39,0.22,0.53c0.14,0.14,0.32,0.24,0.54,0.31
		c0.21,0.08,0.5,0.15,0.87,0.24c0.47,0.11,0.85,0.23,1.14,0.34c0.29,0.11,0.54,0.29,0.74,0.52s0.31,0.55,0.31,0.94
		c0,0.33-0.09,0.63-0.27,0.9c-0.18,0.27-0.45,0.49-0.82,0.65c-0.37,0.16-0.82,0.24-1.35,0.24
		C214.02,106.81,213.57,106.74,213.13,106.59z"/>
	<path class="st0" d="M185.73,121.57c-0.32-0.16-0.58-0.38-0.78-0.67l0.52-0.61c0.35,0.5,0.79,0.75,1.31,0.75
		c0.35,0,0.62-0.11,0.81-0.32c0.18-0.22,0.27-0.54,0.27-0.96v-3.54h-2.28v-0.78h3.17v4.27c0,0.7-0.17,1.22-0.5,1.57
		c-0.33,0.35-0.82,0.53-1.47,0.53C186.41,121.81,186.06,121.73,185.73,121.57z"/>
	<path class="st0" d="M193.72,117.41c0.35,0.32,0.53,0.81,0.53,1.45v2.88h-0.82v-0.63c-0.14,0.22-0.35,0.39-0.62,0.51
		c-0.27,0.12-0.58,0.18-0.95,0.18c-0.53,0-0.96-0.13-1.28-0.39c-0.32-0.26-0.48-0.6-0.48-1.02s0.15-0.76,0.46-1.01
		c0.31-0.25,0.79-0.38,1.46-0.38h1.37v-0.17c0-0.37-0.11-0.66-0.32-0.86c-0.22-0.2-0.53-0.3-0.95-0.3c-0.28,0-0.56,0.05-0.83,0.14
		c-0.27,0.09-0.5,0.22-0.68,0.37l-0.36-0.65c0.25-0.2,0.54-0.35,0.88-0.46c0.34-0.1,0.71-0.16,1.09-0.16
		C192.86,116.92,193.37,117.09,193.72,117.41z M192.86,120.91c0.24-0.15,0.41-0.36,0.52-0.63v-0.67h-1.33c-0.73,0-1.1,0.25-1.1,0.74
		c0,0.24,0.09,0.43,0.28,0.57c0.19,0.14,0.44,0.21,0.77,0.21C192.33,121.13,192.62,121.05,192.86,120.91z"/>
	<path class="st0" d="M199.98,116.97l-2.09,4.77h-0.88l-2.09-4.77h0.9l1.64,3.82l1.67-3.82H199.98z"/>
	<path class="st0" d="M203.89,117.41c0.35,0.32,0.53,0.81,0.53,1.45v2.88h-0.82v-0.63c-0.14,0.22-0.35,0.39-0.62,0.51
		c-0.27,0.12-0.58,0.18-0.95,0.18c-0.53,0-0.96-0.13-1.28-0.39c-0.32-0.26-0.48-0.6-0.48-1.02s0.15-0.76,0.46-1.01
		c0.31-0.25,0.79-0.38,1.46-0.38h1.37v-0.17c0-0.37-0.11-0.66-0.32-0.86c-0.22-0.2-0.53-0.3-0.95-0.3c-0.28,0-0.56,0.05-0.83,0.14
		c-0.27,0.09-0.5,0.22-0.68,0.37l-0.36-0.65c0.25-0.2,0.54-0.35,0.88-0.46c0.34-0.1,0.71-0.16,1.09-0.16
		C203.03,116.92,203.54,117.09,203.89,117.41z M203.03,120.91c0.24-0.15,0.41-0.36,0.52-0.63v-0.67h-1.33c-0.73,0-1.1,0.25-1.1,0.74
		c0,0.24,0.09,0.43,0.28,0.57c0.19,0.14,0.44,0.21,0.77,0.21C202.5,121.13,202.79,121.05,203.03,120.91z"/>
	<path class="st0" d="M206.61,121.59c-0.44-0.15-0.79-0.34-1.04-0.57l0.33-0.7c0.24,0.22,0.55,0.39,0.92,0.53s0.76,0.2,1.16,0.2
		c0.52,0,0.91-0.09,1.17-0.27c0.26-0.18,0.39-0.41,0.39-0.71c0-0.22-0.07-0.39-0.21-0.53c-0.14-0.13-0.32-0.24-0.52-0.31
		s-0.5-0.15-0.88-0.24c-0.47-0.11-0.86-0.23-1.15-0.34s-0.54-0.29-0.75-0.53c-0.21-0.24-0.31-0.56-0.31-0.96
		c0-0.34,0.09-0.64,0.26-0.91c0.18-0.27,0.45-0.49,0.81-0.65c0.36-0.16,0.81-0.24,1.34-0.24c0.37,0,0.74,0.05,1.1,0.14
		c0.36,0.1,0.67,0.23,0.93,0.41l-0.3,0.72c-0.26-0.17-0.55-0.3-0.85-0.38c-0.3-0.09-0.59-0.13-0.88-0.13
		c-0.51,0-0.89,0.09-1.15,0.28s-0.38,0.43-0.38,0.72c0,0.21,0.07,0.39,0.22,0.53c0.14,0.14,0.32,0.24,0.54,0.32s0.5,0.16,0.87,0.24
		c0.47,0.11,0.85,0.23,1.14,0.34c0.29,0.11,0.54,0.29,0.74,0.52s0.31,0.55,0.31,0.95c0,0.33-0.09,0.63-0.27,0.9
		c-0.18,0.27-0.45,0.49-0.82,0.65c-0.37,0.16-0.82,0.24-1.35,0.24C207.5,121.81,207.05,121.74,206.61,121.59z"/>
	<path class="st0" d="M212.38,121.48c-0.38-0.21-0.68-0.5-0.9-0.87c-0.22-0.37-0.32-0.79-0.32-1.26c0-0.47,0.11-0.89,0.32-1.26
		s0.51-0.66,0.9-0.86s0.81-0.31,1.3-0.31c0.43,0,0.82,0.09,1.16,0.26c0.34,0.17,0.6,0.43,0.79,0.76l-0.66,0.42
		c-0.15-0.23-0.34-0.4-0.56-0.51c-0.22-0.11-0.47-0.17-0.74-0.17c-0.31,0-0.59,0.07-0.84,0.21c-0.25,0.14-0.44,0.33-0.58,0.59
		c-0.14,0.25-0.21,0.55-0.21,0.88c0,0.34,0.07,0.63,0.21,0.89c0.14,0.25,0.34,0.45,0.58,0.59s0.53,0.21,0.84,0.21
		c0.27,0,0.52-0.06,0.74-0.17c0.22-0.11,0.41-0.29,0.56-0.51l0.66,0.41c-0.19,0.33-0.45,0.58-0.79,0.76
		c-0.34,0.18-0.72,0.27-1.16,0.27C213.2,121.79,212.77,121.69,212.38,121.48z"/>
	<path class="st0" d="M218.24,117.14c0.29-0.14,0.65-0.21,1.07-0.21v0.84c-0.05-0.01-0.11-0.01-0.2-0.01c-0.47,0-0.83,0.14-1.1,0.42
		c-0.27,0.28-0.4,0.68-0.4,1.19v2.38h-0.86v-4.77h0.83v0.8C217.72,117.49,217.94,117.28,218.24,117.14z"/>
	<path class="st0" d="M220.38,115.89c-0.11-0.11-0.17-0.24-0.17-0.4s0.06-0.29,0.17-0.4c0.11-0.11,0.25-0.17,0.42-0.17
		s0.31,0.05,0.42,0.16c0.11,0.1,0.17,0.24,0.17,0.39c0,0.16-0.06,0.3-0.17,0.41c-0.11,0.11-0.25,0.17-0.42,0.17
		S220.5,116,220.38,115.89z M220.37,116.97h0.86v4.77h-0.86V116.97z"/>
	<path class="st0" d="M226.65,117.23c0.37,0.2,0.65,0.49,0.86,0.85c0.21,0.37,0.31,0.79,0.31,1.27s-0.1,0.9-0.31,1.27
		s-0.49,0.66-0.86,0.86s-0.78,0.31-1.24,0.31c-0.34,0-0.66-0.07-0.94-0.2c-0.29-0.13-0.53-0.32-0.72-0.58v2.47h-0.86v-6.52h0.83
		v0.76c0.19-0.26,0.43-0.46,0.73-0.6c0.29-0.14,0.62-0.2,0.97-0.2C225.87,116.92,226.29,117.03,226.65,117.23z M226.16,120.83
		c0.24-0.14,0.43-0.34,0.58-0.59c0.14-0.25,0.21-0.55,0.21-0.88s-0.07-0.62-0.21-0.88c-0.14-0.25-0.33-0.45-0.58-0.59
		c-0.24-0.14-0.52-0.21-0.82-0.21c-0.3,0-0.57,0.07-0.81,0.21c-0.24,0.14-0.44,0.34-0.58,0.59c-0.14,0.25-0.21,0.54-0.21,0.87
		s0.07,0.62,0.21,0.88c0.14,0.26,0.33,0.45,0.58,0.59c0.25,0.14,0.52,0.21,0.82,0.21C225.65,121.04,225.92,120.97,226.16,120.83z"/>
	<path class="st0" d="M231.7,121.46c-0.13,0.11-0.28,0.19-0.47,0.25c-0.19,0.06-0.38,0.09-0.58,0.09c-0.48,0-0.85-0.13-1.12-0.39
		s-0.4-0.63-0.4-1.11v-2.62h-0.81v-0.71h0.81v-1.04h0.86v1.04h1.37v0.71h-1.37v2.58c0,0.26,0.06,0.46,0.19,0.59
		c0.13,0.14,0.31,0.21,0.55,0.21c0.26,0,0.49-0.08,0.68-0.23L231.7,121.46z"/>
	<path class="st0" d="M191.86,134.03c0.21,0.27,0.32,0.6,0.32,1.01c0,0.55-0.21,0.97-0.62,1.26c-0.41,0.29-1.01,0.44-1.79,0.44
		h-3.01v-6.3h2.83c0.72,0,1.28,0.14,1.67,0.43s0.59,0.69,0.59,1.2c0,0.33-0.08,0.62-0.23,0.85c-0.15,0.24-0.36,0.42-0.62,0.55
		C191.36,133.57,191.65,133.76,191.86,134.03z M187.65,131.17v2.02h1.85c0.46,0,0.82-0.09,1.07-0.26s0.37-0.42,0.37-0.75
		s-0.12-0.58-0.37-0.75s-0.6-0.26-1.07-0.26H187.65z M190.87,135.76c0.26-0.17,0.39-0.43,0.39-0.79c0-0.7-0.51-1.05-1.54-1.05h-2.07
		v2.1h2.07C190.23,136.01,190.62,135.93,190.87,135.76z"/>
	<path class="st0" d="M194.2,136.48c-0.38-0.21-0.67-0.5-0.89-0.87c-0.21-0.37-0.32-0.79-0.32-1.26c0-0.47,0.11-0.89,0.32-1.26
		s0.51-0.66,0.89-0.86s0.8-0.31,1.28-0.31c0.47,0,0.9,0.1,1.27,0.31s0.67,0.49,0.88,0.86s0.32,0.79,0.32,1.26
		c0,0.47-0.11,0.89-0.32,1.26c-0.21,0.37-0.51,0.66-0.88,0.87c-0.38,0.21-0.8,0.32-1.27,0.32
		C195.01,136.79,194.58,136.69,194.2,136.48z M196.31,135.83c0.24-0.14,0.43-0.34,0.57-0.59c0.14-0.25,0.21-0.55,0.21-0.88
		s-0.07-0.62-0.21-0.88s-0.33-0.45-0.57-0.59c-0.24-0.14-0.52-0.21-0.82-0.21c-0.31,0-0.58,0.07-0.82,0.21
		c-0.24,0.14-0.43,0.33-0.58,0.59c-0.14,0.25-0.21,0.55-0.21,0.88s0.07,0.62,0.21,0.88c0.14,0.26,0.33,0.45,0.58,0.59
		c0.24,0.14,0.52,0.21,0.82,0.21C195.79,136.04,196.06,135.97,196.31,135.83z"/>
	<path class="st0" d="M199.92,136.48c-0.38-0.21-0.67-0.5-0.89-0.87c-0.21-0.37-0.32-0.79-0.32-1.26c0-0.47,0.11-0.89,0.32-1.26
		s0.51-0.66,0.89-0.86s0.8-0.31,1.28-0.31c0.47,0,0.9,0.1,1.27,0.31s0.67,0.49,0.88,0.86s0.32,0.79,0.32,1.26
		c0,0.47-0.11,0.89-0.32,1.26c-0.21,0.37-0.51,0.66-0.88,0.87c-0.38,0.21-0.8,0.32-1.27,0.32
		C200.72,136.79,200.3,136.69,199.92,136.48z M202.02,135.83c0.24-0.14,0.43-0.34,0.57-0.59c0.14-0.25,0.21-0.55,0.21-0.88
		s-0.07-0.62-0.21-0.88s-0.33-0.45-0.57-0.59c-0.24-0.14-0.52-0.21-0.82-0.21c-0.31,0-0.58,0.07-0.82,0.21
		c-0.24,0.14-0.43,0.33-0.58,0.59c-0.14,0.25-0.21,0.55-0.21,0.88s0.07,0.62,0.21,0.88c0.14,0.26,0.33,0.45,0.58,0.59
		c0.24,0.14,0.52,0.21,0.82,0.21C201.5,136.04,201.78,135.97,202.02,135.83z"/>
	<path class="st0" d="M207.55,136.46c-0.13,0.11-0.28,0.19-0.47,0.25c-0.19,0.06-0.38,0.09-0.58,0.09c-0.48,0-0.85-0.13-1.12-0.39
		s-0.4-0.63-0.4-1.11v-2.62h-0.81v-0.71H205v-1.04h0.86v1.04h1.37v0.71h-1.37v2.58c0,0.26,0.06,0.46,0.19,0.59
		c0.13,0.14,0.31,0.21,0.55,0.21c0.26,0,0.49-0.08,0.68-0.23L207.55,136.46z"/>
	<path class="st0" d="M208.84,136.64c-0.36-0.11-0.64-0.24-0.85-0.4l0.36-0.68c0.21,0.15,0.46,0.27,0.76,0.36s0.6,0.13,0.91,0.13
		c0.76,0,1.13-0.22,1.13-0.65c0-0.14-0.05-0.26-0.15-0.34c-0.1-0.08-0.23-0.14-0.38-0.18s-0.37-0.08-0.65-0.13
		c-0.38-0.06-0.7-0.13-0.94-0.21c-0.24-0.08-0.45-0.21-0.63-0.4c-0.17-0.19-0.26-0.45-0.26-0.78c0-0.43,0.18-0.78,0.54-1.04
		c0.36-0.26,0.84-0.39,1.45-0.39c0.32,0,0.64,0.04,0.95,0.12c0.32,0.08,0.58,0.18,0.78,0.32l-0.37,0.68
		c-0.39-0.25-0.85-0.38-1.38-0.38c-0.37,0-0.64,0.06-0.84,0.18c-0.19,0.12-0.29,0.28-0.29,0.48c0,0.16,0.05,0.28,0.16,0.37
		c0.11,0.09,0.24,0.16,0.4,0.2c0.16,0.04,0.38,0.09,0.67,0.14c0.38,0.07,0.69,0.14,0.93,0.21c0.24,0.08,0.44,0.2,0.61,0.38
		s0.25,0.43,0.25,0.76c0,0.43-0.18,0.78-0.55,1.03c-0.37,0.25-0.87,0.38-1.51,0.38C209.57,136.79,209.2,136.74,208.84,136.64z"/>
	<path class="st0" d="M215.79,136.46c-0.13,0.11-0.28,0.19-0.47,0.25c-0.19,0.06-0.38,0.09-0.58,0.09c-0.48,0-0.85-0.13-1.12-0.39
		s-0.4-0.63-0.4-1.11v-2.62h-0.81v-0.71h0.81v-1.04h0.86v1.04h1.37v0.71h-1.37v2.58c0,0.26,0.06,0.46,0.19,0.59
		c0.13,0.14,0.31,0.21,0.55,0.21c0.26,0,0.49-0.08,0.68-0.23L215.79,136.46z"/>
	<path class="st0" d="M218.32,132.14c0.29-0.14,0.65-0.21,1.07-0.21v0.84c-0.05-0.01-0.11-0.01-0.2-0.01c-0.47,0-0.83,0.14-1.1,0.42
		c-0.27,0.28-0.4,0.68-0.4,1.19v2.38h-0.86v-4.77h0.83v0.8C217.81,132.49,218.03,132.28,218.32,132.14z"/>
	<path class="st0" d="M223.7,132.41c0.35,0.32,0.53,0.81,0.53,1.45v2.88h-0.82v-0.63c-0.14,0.22-0.35,0.39-0.62,0.51
		c-0.27,0.12-0.58,0.18-0.95,0.18c-0.53,0-0.96-0.13-1.28-0.39c-0.32-0.26-0.48-0.6-0.48-1.02s0.15-0.76,0.46-1.01
		c0.31-0.25,0.79-0.38,1.46-0.38h1.37v-0.17c0-0.37-0.11-0.66-0.32-0.86c-0.22-0.2-0.53-0.3-0.95-0.3c-0.28,0-0.56,0.05-0.83,0.14
		c-0.27,0.09-0.5,0.22-0.68,0.37l-0.36-0.65c0.25-0.2,0.54-0.35,0.88-0.46c0.34-0.1,0.71-0.16,1.09-0.16
		C222.84,131.92,223.35,132.09,223.7,132.41z M222.84,135.91c0.24-0.15,0.41-0.36,0.52-0.63v-0.67h-1.33c-0.73,0-1.1,0.25-1.1,0.74
		c0,0.24,0.09,0.43,0.28,0.57c0.19,0.14,0.44,0.21,0.77,0.21C222.31,136.13,222.6,136.05,222.84,135.91z"/>
	<path class="st0" d="M229.6,132.23c0.37,0.2,0.65,0.49,0.86,0.85c0.21,0.37,0.31,0.79,0.31,1.27s-0.1,0.9-0.31,1.27
		s-0.49,0.66-0.86,0.86s-0.78,0.31-1.24,0.31c-0.34,0-0.66-0.07-0.94-0.2c-0.29-0.13-0.53-0.32-0.72-0.58v2.47h-0.86v-6.52h0.83
		v0.76c0.19-0.26,0.43-0.46,0.73-0.6c0.29-0.14,0.62-0.2,0.97-0.2C228.82,131.92,229.23,132.03,229.6,132.23z M229.11,135.83
		c0.24-0.14,0.43-0.34,0.58-0.59c0.14-0.25,0.21-0.55,0.21-0.88s-0.07-0.62-0.21-0.88c-0.14-0.25-0.33-0.45-0.58-0.59
		c-0.24-0.14-0.52-0.21-0.82-0.21c-0.3,0-0.57,0.07-0.81,0.21c-0.24,0.14-0.44,0.34-0.58,0.59c-0.14,0.25-0.21,0.54-0.21,0.87
		s0.07,0.62,0.21,0.88c0.14,0.26,0.33,0.45,0.58,0.59c0.25,0.14,0.52,0.21,0.82,0.21C228.59,136.04,228.87,135.97,229.11,135.83z"/>
</g>
</svg>
