<?xml version="1.0" encoding="utf-8"?>
<!-- Generator: Adobe Illustrator 24.1.0, SVG Export Plug-In . SVG Version: 6.00 Build 0)  -->
<svg version="1.1" id="Layer_1" xmlns="http://www.w3.org/2000/svg" xmlns:xlink="http://www.w3.org/1999/xlink" x="0px" y="0px"
	 viewBox="0 0 294.3 221.9" style="enable-background:new 0 0 294.3 221.9;" xml:space="preserve">
<style type="text/css">
	.st0{fill:#F0A160;}
	.st1{fill:#FFFFFF;}
	.st2{font-family:'Montserrat-SemiBold';}
	.st3{font-size:12px;}
	.st4{fill:none;}
	.st5{font-family:'Montserrat-Medium';}
	.st6{font-size:9px;}
</style>
<path id="Rectangle_117_2_" class="st0" d="M26.6,15.7h246c7.2,0,13,5.8,13,13v169c0,7.2-5.8,13-13,13h-246c-7.2,0-13-5.8-13-13
	v-169C13.6,21.5,19.4,15.7,26.6,15.7z"/>
<text transform="matrix(1 0 0 1 37.9083 172.9703)" class="st1 st2 st3">Web Design </text>
<path id="Rectangle_118_2_" class="st1" d="M154,31.7h109c3.9,0,7,3.1,7,7v154c0,3.9-3.1,7-7,7H154c-3.9,0-7-3.1-7-7v-154
	C147,34.8,150.1,31.7,154,31.7z"/>
<g>
	<path id="Path_28" class="st1" d="M47.6,90.5c0.5,0.5,1.2,0.5,1.7,0c0.5-0.5,0.5-1.2,0-1.7L46.4,86l2.8-2.8c0.5-0.5,0.5-1.2,0-1.7
		c-0.5-0.5-1.2-0.5-1.7,0l-3.7,3.7c-0.5,0.5-0.5,1.2,0,1.7c0,0,0,0,0,0L47.6,90.5z"/>
	<path id="Path_29" class="st1" d="M59.2,86l-2.8,2.8c-0.5,0.5-0.5,1.2,0,1.7c0.5,0.5,1.2,0.5,1.7,0l0,0l3.7-3.7
		c0.5-0.5,0.5-1.2,0-1.7L58,81.5c-0.5-0.4-1.2-0.4-1.7,0c-0.4,0.5-0.4,1.2,0,1.6L59.2,86z"/>
	<path id="Path_30" class="st1" d="M51.1,90.7c0.6,0.2,1.3-0.1,1.5-0.7l2.9-7.3c0.3-0.6,0-1.3-0.6-1.5c-0.6-0.3-1.3,0-1.5,0.6
		c0,0,0,0,0,0.1l-2.9,7.3C50.2,89.8,50.5,90.5,51.1,90.7z"/>
	<path id="Path_31" class="st1" d="M45.4,97.7h7.9c0.6,0,1.2-0.5,1.2-1.2c0-0.6-0.5-1.2-1.2-1.2h-7.9c-0.6,0-1.2,0.5-1.2,1.2
		C44.3,97.1,44.8,97.7,45.4,97.7z"/>
	<path id="Path_32" class="st1" d="M71.4,95.3H57.6c-0.6,0-1.2,0.5-1.2,1.2c0,0.6,0.5,1.2,1.2,1.2h13.8c0.6,0,1.2-0.5,1.2-1.2
		C72.6,95.8,72.1,95.3,71.4,95.3z"/>
	<path id="Path_33" class="st1" d="M45.4,102.6h3.4c0.6,0,1.2-0.5,1.2-1.2c0-0.6-0.5-1.2-1.2-1.2h-3.4c-0.6,0-1.2,0.5-1.2,1.2
		C44.3,102.1,44.8,102.6,45.4,102.6z"/>
	<path id="Path_34" class="st1" d="M67.1,100.3c-0.6,0-1.2,0.5-1.2,1.2c0,0.6,0.5,1.2,1.2,1.2h2c0.6,0,1.2-0.5,1.2-1.2
		c0-0.6-0.5-1.2-1.2-1.2H67.1z"/>
	<path id="Path_35" class="st1" d="M64.1,101.4c0-0.6-0.5-1.2-1.2-1.2h-10c-0.6,0-1.2,0.5-1.2,1.2c0,0.6,0.5,1.2,1.2,1.2h10
		C63.5,102.6,64.1,102.1,64.1,101.4C64.1,101.4,64.1,101.4,64.1,101.4z"/>
	<path id="Path_36" class="st1" d="M71.7,101.4c0,0.6,0.5,1.2,1.2,1.2h3.8c0.6,0,1.2-0.5,1.2-1.2c0-0.6-0.5-1.2-1.2-1.2h-3.8
		C72.2,100.3,71.7,100.8,71.7,101.4L71.7,101.4z"/>
	<path id="Path_37" class="st1" d="M65.4,86.9h4c0.6,0,1.2-0.5,1.2-1.2c0-0.6-0.5-1.2-1.2-1.2h-4c-0.6,0-1.2,0.5-1.2,1.2
		C64.2,86.4,64.7,86.9,65.4,86.9z"/>
	<path id="Path_38" class="st1" d="M73.9,86.9h24.6c0.6,0,1.2-0.5,1.2-1.2c0-0.6-0.5-1.2-1.2-1.2H73.9c-0.6,0-1.2,0.5-1.2,1.2
		C72.7,86.4,73.3,86.9,73.9,86.9z"/>
	<path id="Path_39" class="st1" d="M94.8,89.7h-10c-0.6,0-1.2,0.5-1.2,1.2c0,0.6,0.5,1.2,1.2,1.2h10c0.6,0,1.2-0.5,1.2-1.2
		C96,90.2,95.4,89.7,94.8,89.7L94.8,89.7z"/>
	<path id="Path_40" class="st1" d="M81.1,89.7h-3.4c-0.6,0-1.2,0.5-1.2,1.2c0,0.6,0.5,1.2,1.2,1.2h3.4c0.6,0,1.2-0.5,1.2-1.2
		C82.2,90.2,81.7,89.7,81.1,89.7L81.1,89.7z"/>
	<path id="Path_41" class="st1" d="M65.4,92.1h8.4c0.6,0,1.2-0.5,1.2-1.2c0-0.6-0.5-1.2-1.2-1.2h-8.4c-0.6,0-1.2,0.5-1.2,1.2
		C64.2,91.5,64.7,92.1,65.4,92.1z"/>
	<path id="Path_42" class="st1" d="M62.9,105.1H55c-0.6,0-1.2,0.5-1.2,1.2c0,0.6,0.5,1.2,1.2,1.2c0,0,0,0,0,0h7.9
		c0.6,0,1.2-0.5,1.2-1.2C64.1,105.7,63.6,105.1,62.9,105.1z"/>
	<path id="Path_43" class="st1" d="M51.5,105.1h-6c-0.6,0-1.2,0.5-1.2,1.2c0,0.6,0.5,1.2,1.2,1.2h6c0.6,0,1.2-0.5,1.2-1.2
		C52.6,105.7,52.1,105.1,51.5,105.1z"/>
	<path id="Path_44" class="st1" d="M77.2,105.1H66.9c-0.6,0-1.2,0.5-1.2,1.2c0,0.6,0.5,1.2,1.2,1.2h10.3c0.6,0,1.2-0.5,1.2-1.2
		C78.3,105.7,77.8,105.1,77.2,105.1z"/>
	<path id="Path_45" class="st1" d="M91.1,99.1h-5.6c-0.6,0-1.2,0.5-1.2,1.2c0,0.6,0.5,1.2,1.2,1.2h5.6c0.6,0,1.2-0.5,1.2-1.2
		C92.3,99.7,91.7,99.1,91.1,99.1z"/>
	<path id="Path_46" class="st1" d="M100.8,101.5h7.9c0.6,0,1.2-0.5,1.2-1.2c0-0.6-0.5-1.2-1.2-1.2h-7.9c-0.6,0-1.2,0.5-1.2,1.2
		C99.7,101,100.2,101.5,100.8,101.5L100.8,101.5z"/>
	<path id="Path_47" class="st1" d="M96.9,99.1h-1.8c-0.6,0-1.2,0.5-1.2,1.2c0,0.6,0.5,1.2,1.2,1.2l0,0h1.8c0.6,0,1.2-0.5,1.2-1.2
		C98,99.7,97.5,99.1,96.9,99.1z"/>
	<path id="Path_48" class="st1" d="M85.5,114.2h5.6c0.6,0,1.2-0.5,1.2-1.2c0-0.6-0.5-1.2-1.2-1.2c0,0,0,0,0,0h-5.6
		c-0.6,0-1.2,0.5-1.2,1.2C84.3,113.7,84.8,114.2,85.5,114.2z"/>
	<path id="Path_49" class="st1" d="M100.8,114.2h7.9c0.6,0,1.2-0.5,1.2-1.2c0-0.6-0.5-1.2-1.2-1.2c0,0,0,0,0,0h-7.9
		c-0.6,0-1.2,0.5-1.2,1.2C99.7,113.7,100.2,114.2,100.8,114.2C100.8,114.2,100.8,114.2,100.8,114.2z"/>
	<path id="Path_50" class="st1" d="M95.1,114.2h1.8c0.6,0,1.2-0.5,1.2-1.2c0-0.6-0.5-1.2-1.2-1.2c0,0,0,0,0,0h-1.8
		c-0.6,0-1.2,0.5-1.2,1.2C93.9,113.7,94.4,114.2,95.1,114.2C95,114.2,95.1,114.2,95.1,114.2z"/>
	<path id="Path_51" class="st1" d="M91.1,124.6h-5.6c-0.6,0-1.2,0.5-1.2,1.2c0,0.6,0.5,1.2,1.2,1.2h5.6c0.6,0,1.2-0.5,1.2-1.2
		C92.2,125.1,91.7,124.6,91.1,124.6z"/>
	<path id="Path_52" class="st1" d="M108.8,124.6h-7.9c-0.6,0-1.2,0.5-1.2,1.2c0,0.6,0.5,1.2,1.2,1.2h7.9c0.6,0,1.2-0.5,1.2-1.2
		C109.9,125.1,109.4,124.6,108.8,124.6C108.8,124.6,108.8,124.6,108.8,124.6z"/>
	<path id="Path_53" class="st1" d="M96.9,124.6h-1.8c-0.6,0-1.2,0.5-1.2,1.2c0,0.6,0.5,1.2,1.2,1.2c0,0,0,0,0,0h1.8
		c0.6,0,1.2-0.5,1.2-1.2C98,125.1,97.5,124.6,96.9,124.6z"/>
	<path id="Path_54" class="st1" d="M113.1,61.4H43.5c-2.8,0-5.1,2.3-5.1,5.1V123c0,2.8,2.3,5.1,5.1,5.1h4.4c0.6,0,1.2-0.5,1.2-1.2
		s-0.5-1.2-1.2-1.2h-4.4c-1.5,0-2.8-1.3-2.8-2.8v-4.4h42.6v2h-0.9c-1.3,0-2.3,1-2.3,2.3v2.9H55c-0.6,0-1.2,0.5-1.2,1.2
		s0.5,1.2,1.2,1.2h11.2v4.2h-3.5c-2.4,0-4.3,1.9-4.3,4.3v2.5c0,1.1,0.9,1.9,1.9,1.9h35.7c1.1,0,1.9-0.9,1.9-1.9v-2.5
		c0-2.4-1.9-4.3-4.3-4.3h-3.5v-1.5h21.6c1.3,0,2.3-1,2.3-2.3v-0.5c2.3-0.5,4-2.6,4-5l0.1-56.5C118.2,63.7,115.9,61.4,113.1,61.4z
		 M82.4,115.8v-5.6h29.4v5.6H82.4z M85.6,107.9v-2.5h23v2.5L85.6,107.9z M108.6,118.2v2.5h-23v-2.5H108.6z M68.6,128.2h11.5v0.4
		c0,1.3,1,2.3,2.3,2.3h5.6v1.5H68.6L68.6,128.2z M93.8,134.7c1.1,0,1.9,0.9,1.9,1.9v2.1H60.8v-2.1c0-1.1,0.9-1.9,1.9-1.9H93.8z
		 M111.8,128.6H82.4V123h29.4L111.8,128.6z M115.8,123c0,1.1-0.6,2.1-1.6,2.5v-2.7c0-1.3-1-2.3-2.3-2.3h-0.9v-2h4.9L115.8,123z
		 M115.8,116.3h-1.7c0-0.1,0-6.1,0-6.1c0-1.3-1-2.3-2.3-2.3h-0.9v-2.5h0.9c1.3,0,2.3-1,2.3-2.3v-5.7c0-1.3-1-2.3-2.3-2.3h-6.6
		c-0.6,0-1.2,0.5-1.2,1.2c0,0.6,0.5,1.2,1.2,1.2h6.6v5.6H82.4v-5.6H98c0.6,0,1.2-0.5,1.2-1.2c0-0.6-0.5-1.2-1.2-1.2H82.4
		c-1.3,0-2.3,1-2.3,2.3v5.7c0,1.3,1,2.3,2.3,2.3h0.9v2.5h-0.9c-1.3,0-2.3,1-2.3,2.3c0,0,0,6,0,6.1H40.7v-39h75.1L115.8,116.3z
		 M115.8,74.9h-75v-8.4c0-1.5,1.3-2.8,2.8-2.8H113c1.5,0,2.8,1.3,2.8,2.8L115.8,74.9z"/>
	<path id="Path_55" class="st1" d="M47,65.9c-1.9,0-3.4,1.5-3.4,3.4c0,1.9,1.5,3.4,3.4,3.4c1.9,0,3.4-1.5,3.4-3.4l0,0
		C50.4,67.4,48.9,65.9,47,65.9z M47,70.4c-0.6,0-1.1-0.5-1.1-1.1c0-0.6,0.5-1.1,1.1-1.1c0.6,0,1.1,0.5,1.1,1.1c0,0,0,0,0,0
		C48.1,69.9,47.6,70.4,47,70.4z"/>
	<path id="Path_56" class="st1" d="M55.7,65.9c-1.9,0-3.4,1.5-3.4,3.4c0,1.9,1.5,3.4,3.4,3.4c1.9,0,3.4-1.5,3.4-3.4
		C59.2,67.4,57.6,65.9,55.7,65.9z M55.7,70.4c-0.6,0-1.1-0.5-1.1-1.1c0-0.6,0.5-1.1,1.1-1.1c0.6,0,1.1,0.5,1.1,1.1c0,0,0,0,0,0
		C56.8,69.9,56.4,70.4,55.7,70.4z"/>
	<path id="Path_57" class="st1" d="M64.5,65.9c-1.9,0-3.4,1.5-3.4,3.4c0,1.9,1.5,3.4,3.4,3.4c1.9,0,3.4-1.5,3.4-3.4
		C67.9,67.4,66.4,65.9,64.5,65.9z M64.5,70.4c-0.6,0-1.1-0.5-1.1-1.1c0-0.6,0.5-1.1,1.1-1.1c0.6,0,1.1,0.5,1.1,1.1c0,0,0,0,0,0
		C65.6,69.9,65.1,70.4,64.5,70.4z"/>
</g>
<rect x="167.4" y="85.1" class="st4" width="82.1" height="59.8"/>
<text transform="matrix(1 0 0 1 195.212 91.7392)"><tspan x="0" y="0" class="st0 st5 st6">HTML</tspan><tspan x="4.4" y="15" class="st0 st5 st6">CSS</tspan><tspan x="-10.3" y="30" class="st0 st5 st6">JavaScript</tspan><tspan x="-9.4" y="45" class="st0 st5 st6">Bootstrap</tspan></text>
</svg>
