<?xml version="1.0" encoding="utf-8"?>
<!-- Generator: Adobe Illustrator 24.1.0, SVG Export Plug-In . SVG Version: 6.00 Build 0)  -->
<svg version="1.1" id="Layer_1" xmlns="http://www.w3.org/2000/svg" xmlns:xlink="http://www.w3.org/1999/xlink" x="0px" y="0px"
	 viewBox="0 0 294.35 221.88" style="enable-background:new 0 0 294.35 221.88;" xml:space="preserve">
<style type="text/css">
	.st0{fill:#F0A160;}
	.st1{fill:#FFFFFF;}
	.st2{enable-background:new    ;}
</style>
<path id="Rectangle_117_1_" class="st0" d="M26.61,15.72h246c7.18,0,13,5.82,13,13v169c0,7.18-5.82,13-13,13h-246
	c-7.18,0-13-5.82-13-13v-169C13.61,21.54,19.43,15.72,26.61,15.72z"/>
<g class="st2">
	<path class="st1" d="M35.22,171.79c-0.65-0.65-0.97-1.59-0.97-2.8v-4.74h1.56v4.68c0,1.65,0.71,2.47,2.14,2.47
		c1.42,0,2.12-0.82,2.12-2.47v-4.68h1.54v4.74c0,1.22-0.32,2.15-0.97,2.8c-0.64,0.65-1.55,0.98-2.71,0.98S35.86,172.45,35.22,171.79
		z"/>
	<path class="st1" d="M44.1,172.53c-0.5-0.14-0.89-0.31-1.19-0.52l0.58-1.14c0.29,0.19,0.63,0.35,1.04,0.46
		c0.4,0.12,0.8,0.17,1.19,0.17c0.9,0,1.34-0.24,1.34-0.71c0-0.22-0.11-0.38-0.34-0.47c-0.23-0.09-0.59-0.17-1.1-0.25
		c-0.53-0.08-0.96-0.17-1.29-0.28c-0.33-0.1-0.62-0.29-0.86-0.55c-0.24-0.26-0.37-0.62-0.37-1.09c0-0.61,0.25-1.09,0.76-1.46
		c0.51-0.36,1.19-0.55,2.06-0.55c0.44,0,0.88,0.05,1.32,0.15c0.44,0.1,0.8,0.23,1.08,0.4l-0.58,1.14c-0.54-0.32-1.16-0.48-1.84-0.48
		c-0.44,0-0.77,0.07-1,0.2c-0.23,0.13-0.34,0.31-0.34,0.52c0,0.24,0.12,0.41,0.37,0.51c0.24,0.1,0.62,0.19,1.13,0.28
		c0.51,0.08,0.93,0.17,1.26,0.28c0.33,0.1,0.61,0.28,0.85,0.53c0.24,0.25,0.35,0.6,0.35,1.06c0,0.6-0.26,1.08-0.78,1.44
		c-0.52,0.36-1.23,0.54-2.12,0.54C45.1,172.74,44.59,172.67,44.1,172.53z"/>
	<path class="st1" d="M55.82,169.93h-5.03c0.09,0.47,0.32,0.85,0.69,1.12c0.37,0.28,0.83,0.41,1.39,0.41c0.7,0,1.28-0.23,1.74-0.7
		l0.8,0.92c-0.29,0.34-0.65,0.6-1.09,0.78c-0.44,0.18-0.94,0.26-1.49,0.26c-0.7,0-1.32-0.14-1.86-0.42s-0.95-0.67-1.24-1.17
		s-0.44-1.07-0.44-1.7c0-0.62,0.14-1.19,0.43-1.69s0.68-0.89,1.18-1.17c0.5-0.28,1.07-0.42,1.7-0.42c0.62,0,1.18,0.14,1.67,0.41
		c0.49,0.28,0.88,0.66,1.15,1.16s0.41,1.08,0.41,1.73C55.84,169.59,55.84,169.74,55.82,169.93z M51.39,167.8
		c-0.33,0.28-0.53,0.66-0.61,1.13h3.64c-0.06-0.46-0.26-0.84-0.59-1.13c-0.33-0.29-0.74-0.43-1.22-0.43
		C52.12,167.37,51.72,167.51,51.39,167.8z"/>
	<path class="st1" d="M60.99,166.17v1.43c-0.13-0.02-0.24-0.04-0.35-0.04c-0.58,0-1.04,0.17-1.37,0.51s-0.49,0.83-0.49,1.47v3.11
		h-1.5v-6.41h1.43v0.94C59.14,166.51,59.9,166.17,60.99,166.17z"/>
	<path class="st1" d="M71.28,172.65l-1.72-2.46c-0.07,0.01-0.18,0.01-0.32,0.01h-1.9v2.45h-1.56v-8.4h3.46
		c0.73,0,1.36,0.12,1.9,0.36s0.95,0.58,1.24,1.03s0.43,0.98,0.43,1.6c0,0.63-0.15,1.18-0.46,1.63s-0.75,0.8-1.33,1.02l1.93,2.76
		H71.28z M70.71,166c-0.35-0.29-0.87-0.43-1.55-0.43h-1.82v3.35h1.82c0.68,0,1.2-0.15,1.55-0.44c0.35-0.29,0.53-0.71,0.53-1.24
		S71.06,166.29,70.71,166z"/>
	<path class="st1" d="M80.41,169.93h-5.03c0.09,0.47,0.32,0.85,0.69,1.12c0.37,0.28,0.83,0.41,1.39,0.41c0.7,0,1.28-0.23,1.74-0.7
		l0.8,0.92c-0.29,0.34-0.65,0.6-1.09,0.78c-0.44,0.18-0.94,0.26-1.49,0.26c-0.7,0-1.32-0.14-1.86-0.42s-0.95-0.67-1.24-1.17
		s-0.44-1.07-0.44-1.7c0-0.62,0.14-1.19,0.43-1.69s0.68-0.89,1.18-1.17c0.5-0.28,1.07-0.42,1.7-0.42c0.62,0,1.18,0.14,1.67,0.41
		c0.49,0.28,0.88,0.66,1.15,1.16s0.41,1.08,0.41,1.73C80.43,169.59,80.42,169.74,80.41,169.93z M75.97,167.8
		c-0.33,0.28-0.53,0.66-0.61,1.13H79c-0.06-0.46-0.26-0.84-0.59-1.13c-0.33-0.29-0.74-0.43-1.22-0.43
		C76.71,167.37,76.31,167.51,75.97,167.8z"/>
	<path class="st1" d="M82.33,172.53c-0.5-0.14-0.89-0.31-1.19-0.52l0.58-1.14c0.29,0.19,0.63,0.35,1.04,0.46
		c0.4,0.12,0.8,0.17,1.19,0.17c0.9,0,1.34-0.24,1.34-0.71c0-0.22-0.11-0.38-0.34-0.47c-0.23-0.09-0.59-0.17-1.1-0.25
		c-0.53-0.08-0.96-0.17-1.29-0.28c-0.33-0.1-0.62-0.29-0.86-0.55s-0.37-0.62-0.37-1.09c0-0.61,0.25-1.09,0.76-1.46
		c0.51-0.36,1.19-0.55,2.06-0.55c0.44,0,0.88,0.05,1.32,0.15c0.44,0.1,0.8,0.23,1.08,0.4l-0.58,1.14c-0.54-0.32-1.16-0.48-1.84-0.48
		c-0.44,0-0.77,0.07-1,0.2c-0.23,0.13-0.34,0.31-0.34,0.52c0,0.24,0.12,0.41,0.37,0.51c0.24,0.1,0.62,0.19,1.13,0.28
		c0.51,0.08,0.93,0.17,1.26,0.28c0.33,0.1,0.61,0.28,0.85,0.53s0.35,0.6,0.35,1.06c0,0.6-0.26,1.08-0.78,1.44
		c-0.52,0.36-1.23,0.54-2.12,0.54C83.33,172.74,82.82,172.67,82.33,172.53z"/>
	<path class="st1" d="M94.05,169.93h-5.03c0.09,0.47,0.32,0.85,0.69,1.12c0.37,0.28,0.83,0.41,1.39,0.41c0.7,0,1.28-0.23,1.74-0.7
		l0.8,0.92c-0.29,0.34-0.65,0.6-1.09,0.78c-0.44,0.18-0.94,0.26-1.49,0.26c-0.7,0-1.32-0.14-1.86-0.42
		c-0.54-0.28-0.95-0.67-1.24-1.17s-0.44-1.07-0.44-1.7c0-0.62,0.14-1.19,0.43-1.69c0.28-0.5,0.68-0.89,1.18-1.17
		c0.5-0.28,1.07-0.42,1.7-0.42c0.62,0,1.18,0.14,1.67,0.41c0.49,0.28,0.88,0.66,1.15,1.16c0.28,0.5,0.41,1.08,0.41,1.73
		C94.08,169.59,94.07,169.74,94.05,169.93z M89.62,167.8c-0.33,0.28-0.53,0.66-0.61,1.13h3.64c-0.06-0.46-0.26-0.84-0.59-1.13
		s-0.74-0.43-1.22-0.43C90.36,167.37,89.95,167.51,89.62,167.8z"/>
	<path class="st1" d="M99.95,166.85c0.5,0.45,0.75,1.13,0.75,2.05v3.76h-1.42v-0.78c-0.18,0.28-0.45,0.49-0.79,0.64
		c-0.34,0.15-0.75,0.22-1.23,0.22c-0.48,0-0.9-0.08-1.26-0.25c-0.36-0.16-0.64-0.39-0.83-0.68c-0.2-0.29-0.29-0.62-0.29-0.99
		c0-0.58,0.21-1.04,0.64-1.39c0.43-0.35,1.1-0.52,2.02-0.52h1.66v-0.1c0-0.45-0.13-0.79-0.4-1.03c-0.27-0.24-0.67-0.36-1.19-0.36
		c-0.36,0-0.71,0.06-1.06,0.17c-0.35,0.11-0.64,0.27-0.88,0.47l-0.59-1.09c0.34-0.26,0.74-0.45,1.21-0.59
		c0.47-0.14,0.97-0.2,1.5-0.2C98.73,166.17,99.45,166.4,99.95,166.85z M98.58,171.39c0.29-0.17,0.5-0.42,0.62-0.74v-0.74h-1.55
		c-0.86,0-1.3,0.28-1.3,0.85c0,0.27,0.11,0.49,0.32,0.65c0.22,0.16,0.52,0.24,0.9,0.24C97.96,171.64,98.29,171.56,98.58,171.39z"/>
	<path class="st1" d="M106.33,166.17v1.43c-0.13-0.02-0.24-0.04-0.35-0.04c-0.58,0-1.04,0.17-1.37,0.51
		c-0.33,0.34-0.49,0.83-0.49,1.47v3.11h-1.5v-6.41h1.43v0.94C104.48,166.51,105.24,166.17,106.33,166.17z"/>
	<path class="st1" d="M108.69,172.32c-0.53-0.28-0.94-0.67-1.24-1.17s-0.44-1.07-0.44-1.7s0.15-1.2,0.44-1.69
		c0.3-0.5,0.71-0.88,1.23-1.16c0.52-0.28,1.12-0.42,1.79-0.42c0.63,0,1.19,0.13,1.66,0.38c0.48,0.26,0.83,0.62,1.07,1.1l-1.15,0.67
		c-0.18-0.3-0.41-0.52-0.69-0.67c-0.28-0.15-0.58-0.22-0.91-0.22c-0.56,0-1.02,0.18-1.39,0.55s-0.55,0.85-0.55,1.46
		c0,0.61,0.18,1.09,0.55,1.46s0.83,0.55,1.4,0.55c0.33,0,0.63-0.07,0.91-0.22c0.28-0.15,0.51-0.37,0.69-0.67l1.15,0.67
		c-0.25,0.48-0.61,0.85-1.09,1.11c-0.48,0.26-1.03,0.39-1.65,0.39C109.82,172.74,109.22,172.6,108.69,172.32z"/>
	<path class="st1" d="M120.03,166.88c0.49,0.47,0.73,1.17,0.73,2.1v3.67h-1.5v-3.48c0-0.56-0.13-0.98-0.4-1.27s-0.64-0.43-1.13-0.43
		c-0.55,0-0.99,0.17-1.31,0.5c-0.32,0.33-0.48,0.81-0.48,1.43v3.24h-1.5v-8.9h1.5v3.24c0.25-0.26,0.55-0.47,0.92-0.61
		c0.36-0.14,0.77-0.21,1.22-0.21C118.9,166.17,119.54,166.41,120.03,166.88z"/>
</g>
<path id="Rectangle_118_1_" class="st1" d="M153.98,31.65h109c3.87,0,7,3.13,7,7v154c0,3.87-3.13,7-7,7h-109c-3.87,0-7-3.13-7-7
	v-154C146.98,34.79,150.11,31.65,153.98,31.65z"/>
<g>
	<ellipse id="Ellipse_1" class="st1" cx="91.76" cy="77.68" rx="1.62" ry="0.81"/>
	<ellipse id="Ellipse_2" class="st1" cx="101.89" cy="77.68" rx="1.22" ry="0.81"/>
	<path id="Path_13" class="st1" d="M93.13,88.83h4.96c2.74,0,4.96-2.22,4.96-4.96h-2.48c0,1.37-1.11,2.48-2.48,2.48h-4.96V88.83z"/>
	<path id="Path_14" class="st1" d="M102.77,93.99l-0.27-0.8c2.9-1.14,4.96-3.75,5.41-6.83h0.1c2.74,0,4.96-2.22,4.96-4.96
		c0-1.01-0.31-2-0.9-2.83l0.63-3.16c1.48-7.4-3.32-14.59-10.71-16.07c-0.88-0.18-1.78-0.27-2.68-0.27h-4.94
		c-4.07,0-7.93,1.82-10.53,4.96H43.5c-1.37,0-2.48,1.11-2.48,2.48v21.77c-3.31,5.72-3.31,12.77,0,18.49v26.73
		c0,1.37,1.11,2.48,2.48,2.48h71.96v-26.05C115.44,102.31,110.19,95.71,102.77,93.99z M112.93,108.68h-11.46l-2.07-6.2l0.55-1.65
		l3.97,2.38l1.16-5.81C109.5,99.53,112.48,103.81,112.93,108.68z M94.85,108.68l1.65-4.96h0.69l1.65,4.96H94.85z M94.28,97.62
		l-2.76,1.65l-0.55-2.74c0.25-0.07,0.5-0.13,0.75-0.18L94.28,97.62z M101.98,96.34c0.25,0.05,0.51,0.12,0.75,0.19l-0.55,2.74
		l-2.76-1.65L101.98,96.34z M97.2,101.24H96.5l-0.57-1.72l0.92-0.55l0.92,0.55L97.2,101.24z M88.62,97.4l1.16,5.81l3.97-2.38
		l0.55,1.65l-2.07,6.2H80.78C81.23,103.81,84.21,99.52,88.62,97.4L88.62,97.4z M100.3,94.41l-3.45,1.72l-3.45-1.72l0.22-0.65
		c0.24,0.02,0.49,0.04,0.75,0.04h4.96c0.25,0,0.5-0.02,0.75-0.04L100.3,94.41z M108.02,83.87v-4.96c1.37,0,2.48,1.11,2.48,2.48
		C110.5,82.76,109.39,83.87,108.02,83.87C108.02,83.87,108.02,83.87,108.02,83.87z M94.38,61.54h4.94c6.17,0,11.18,5,11.18,11.18
		c0,0.74-0.07,1.47-0.22,2.19l-0.38,1.9c-0.6-0.25-1.24-0.38-1.88-0.38v-2.48h-2.48v11.17c0,3.42-2.78,6.2-6.2,6.2h-4.96
		c-3.42,0-6.2-2.78-6.2-6.2V73.95c0-1.37,1.11-2.48,2.48-2.48v-2.48c-2.74,0-4.96,2.22-4.96,4.96v2.48c-0.65,0-1.29,0.13-1.89,0.38
		l-0.38-1.9c-1.21-6.06,2.72-11.95,8.78-13.15C92.92,61.61,93.65,61.54,94.38,61.54z M85.69,83.87c-1.37,0-2.48-1.11-2.48-2.48
		c0-1.37,1.11-2.48,2.48-2.48l0,0V83.87z M82.24,66.5c-0.99,1.92-1.51,4.05-1.51,6.21c0,0.41,0.02,0.82,0.06,1.23H43.5V66.5H82.24z
		 M55.91,81.45V96.8l-13.29,7.67c-3.86-7.99-0.51-17.6,7.48-21.47C51.93,82.13,53.9,81.6,55.91,81.45z M57.15,98.95l13.3,7.68
		c-5.02,7.34-15.04,9.23-22.38,4.21c-1.65-1.13-3.08-2.56-4.21-4.21L57.15,98.95z M71.68,104.47L58.39,96.8V81.45
		c8.85,0.65,15.5,8.36,14.85,17.22C73.09,100.68,72.56,102.65,71.68,104.47z M43.5,133.49v-23.37c6.96,7.56,18.74,8.04,26.3,1.08
		c7.56-6.96,8.04-18.74,1.08-26.3c-6.96-7.56-18.74-8.04-26.3-1.08c-0.37,0.34-0.73,0.7-1.08,1.08v-8.48h37.69l0.43,2.13
		c-1.57,2.24-1.03,5.33,1.21,6.9c0.84,0.59,1.83,0.9,2.85,0.9h0.1c0.45,3.08,2.51,5.69,5.41,6.83l-0.27,0.8
		c-7.41,1.73-12.67,8.33-12.69,15.94v1.24h17.37v2.48h-9.93v7.44h22.33v-7.44h-9.93v-2.48h14.88v22.33H43.5z M105.54,116.13v2.48
		H88.17v-2.48H105.54z"/>
	<path id="Path_15" class="st1" d="M92,67.06l2.22-1.11l3.72,7.44l-2.22,1.11L92,67.06z"/>
	<path id="Path_16" class="st1" d="M98.2,67.07l2.22-1.11l3.72,7.44l-2.22,1.11L98.2,67.07z"/>
	<path id="Path_17" class="st1" d="M45.99,68.98h2.48v2.48h-2.48V68.98z"/>
	<path id="Path_18" class="st1" d="M50.95,68.98h2.48v2.48h-2.48V68.98z"/>
	<path id="Path_19" class="st1" d="M55.91,68.98h2.48v2.48h-2.48V68.98z"/>
	<path id="Path_20" class="st1" d="M85.69,131.02h22.33v-7.44H85.69V131.02z M88.17,126.05h17.37v2.48H88.17V126.05z"/>
	<path id="Path_21" class="st1" d="M48.47,128.54h2.48v2.48h-2.48V128.54z"/>
	<path id="Path_22" class="st1" d="M53.43,128.54h19.85v2.48H53.43V128.54z"/>
	<path id="Path_23" class="st1" d="M48.47,123.57h2.48v2.48h-2.48V123.57z"/>
	<path id="Path_24" class="st1" d="M53.43,123.57h24.81v2.48H53.43V123.57z"/>
	<path id="Path_25" class="st1" d="M48.47,118.61h2.48v2.48h-2.48V118.61z"/>
	<path id="Path_26" class="st1" d="M53.43,118.61h7.44v2.48h-7.44V118.61z"/>
	<path id="Path_27" class="st1" d="M63.36,118.61h7.44v2.48h-7.44V118.61z"/>
</g>
<g>
	<path class="st0" d="M172.48,94.72c-0.47-0.48-0.7-1.17-0.7-2.07v-3.58h0.9v3.55c0,1.35,0.59,2.02,1.77,2.02
		c0.58,0,1.02-0.17,1.32-0.5c0.31-0.33,0.46-0.84,0.46-1.53v-3.55h0.87v3.58c0,0.91-0.23,1.6-0.7,2.07
		c-0.47,0.48-1.12,0.72-1.96,0.72S172.95,95.2,172.48,94.72z"/>
	<path class="st0" d="M179.07,95.26c-0.36-0.1-0.64-0.24-0.85-0.4l0.36-0.68c0.21,0.15,0.46,0.27,0.76,0.36
		c0.3,0.09,0.6,0.14,0.91,0.14c0.76,0,1.13-0.22,1.13-0.65c0-0.14-0.05-0.26-0.15-0.34c-0.1-0.08-0.23-0.15-0.38-0.18
		c-0.15-0.04-0.37-0.08-0.65-0.13c-0.38-0.06-0.7-0.13-0.94-0.21c-0.24-0.08-0.45-0.21-0.63-0.4s-0.26-0.45-0.26-0.78
		c0-0.43,0.18-0.78,0.54-1.04c0.36-0.26,0.84-0.39,1.45-0.39c0.32,0,0.64,0.04,0.95,0.12c0.32,0.08,0.58,0.18,0.78,0.32l-0.37,0.68
		c-0.39-0.25-0.85-0.38-1.38-0.38c-0.37,0-0.64,0.06-0.84,0.18c-0.19,0.12-0.29,0.28-0.29,0.48c0,0.16,0.05,0.28,0.16,0.37
		c0.11,0.09,0.24,0.16,0.4,0.2c0.16,0.04,0.38,0.09,0.67,0.14c0.38,0.07,0.69,0.14,0.93,0.21c0.24,0.08,0.44,0.2,0.61,0.38
		c0.17,0.18,0.25,0.43,0.25,0.76c0,0.43-0.18,0.78-0.55,1.03c-0.37,0.26-0.87,0.38-1.51,0.38
		C179.81,95.42,179.43,95.37,179.07,95.26z"/>
	<path class="st0" d="M186.59,91.03c0.35,0.32,0.53,0.81,0.53,1.45v2.88h-0.82v-0.63c-0.14,0.22-0.35,0.39-0.62,0.51
		c-0.27,0.12-0.58,0.18-0.95,0.18c-0.53,0-0.96-0.13-1.28-0.39c-0.32-0.26-0.48-0.6-0.48-1.02s0.15-0.76,0.46-1.01
		c0.31-0.26,0.79-0.38,1.46-0.38h1.37v-0.17c0-0.37-0.11-0.66-0.32-0.85c-0.22-0.2-0.53-0.3-0.95-0.3c-0.28,0-0.56,0.05-0.83,0.14
		c-0.27,0.09-0.5,0.22-0.68,0.37l-0.36-0.65c0.25-0.2,0.54-0.35,0.88-0.45c0.34-0.1,0.71-0.16,1.09-0.16
		C185.73,90.55,186.24,90.71,186.59,91.03z M185.73,94.53c0.24-0.15,0.41-0.36,0.52-0.63v-0.67h-1.33c-0.73,0-1.1,0.25-1.1,0.74
		c0,0.24,0.09,0.43,0.28,0.57s0.44,0.21,0.77,0.21C185.21,94.75,185.49,94.68,185.73,94.53z"/>
	<path class="st0" d="M192.49,90.85c0.37,0.2,0.65,0.49,0.86,0.85c0.21,0.37,0.31,0.79,0.31,1.27s-0.1,0.9-0.31,1.27
		c-0.21,0.37-0.49,0.66-0.86,0.86s-0.78,0.31-1.24,0.31c-0.35,0-0.68-0.07-0.97-0.21c-0.29-0.14-0.54-0.34-0.73-0.6v0.76h-0.83
		v-6.68h0.86v2.63c0.19-0.25,0.43-0.44,0.72-0.57c0.29-0.13,0.6-0.19,0.94-0.19C191.71,90.55,192.12,90.65,192.49,90.85z M192,94.45
		c0.24-0.14,0.43-0.34,0.58-0.59c0.14-0.26,0.21-0.55,0.21-0.88c0-0.33-0.07-0.62-0.21-0.88c-0.14-0.25-0.33-0.45-0.58-0.59
		c-0.24-0.14-0.52-0.21-0.82-0.21c-0.3,0-0.57,0.07-0.82,0.21c-0.25,0.14-0.44,0.33-0.58,0.59c-0.14,0.26-0.21,0.55-0.21,0.88
		c0,0.33,0.07,0.62,0.21,0.88c0.14,0.25,0.33,0.45,0.58,0.59c0.25,0.14,0.52,0.21,0.82,0.21C191.48,94.66,191.76,94.59,192,94.45z"
		/>
	<path class="st0" d="M194.87,89.51c-0.11-0.11-0.17-0.24-0.17-0.4c0-0.16,0.06-0.29,0.17-0.4c0.11-0.11,0.25-0.17,0.42-0.17
		s0.31,0.05,0.42,0.16c0.11,0.1,0.17,0.24,0.17,0.39c0,0.16-0.06,0.3-0.17,0.41c-0.11,0.11-0.25,0.17-0.42,0.17
		S194.98,89.62,194.87,89.51z M194.86,90.59h0.86v4.77h-0.86V90.59z"/>
	<path class="st0" d="M197.37,88.69h0.86v6.68h-0.86V88.69z"/>
	<path class="st0" d="M199.89,89.51c-0.11-0.11-0.17-0.24-0.17-0.4c0-0.16,0.06-0.29,0.17-0.4c0.11-0.11,0.25-0.17,0.42-0.17
		s0.31,0.05,0.42,0.16c0.11,0.1,0.17,0.24,0.17,0.39c0,0.16-0.06,0.3-0.17,0.41c-0.11,0.11-0.25,0.17-0.42,0.17
		S200,89.62,199.89,89.51z M199.88,90.59h0.86v4.77h-0.86V90.59z"/>
	<path class="st0" d="M205.07,95.08c-0.13,0.11-0.28,0.19-0.47,0.25c-0.19,0.06-0.38,0.09-0.58,0.09c-0.48,0-0.85-0.13-1.12-0.39
		s-0.4-0.63-0.4-1.11V91.3h-0.81v-0.71h0.81v-1.04h0.86v1.04h1.37v0.71h-1.37v2.58c0,0.26,0.06,0.46,0.19,0.59
		c0.13,0.14,0.31,0.21,0.55,0.21c0.26,0,0.49-0.08,0.68-0.23L205.07,95.08z"/>
	<path class="st0" d="M210.25,90.59l-2.31,5.25c-0.2,0.49-0.44,0.83-0.71,1.03c-0.27,0.2-0.6,0.3-0.99,0.3
		c-0.23,0-0.46-0.04-0.68-0.11c-0.22-0.08-0.4-0.18-0.54-0.33l0.37-0.65c0.25,0.23,0.53,0.35,0.86,0.35c0.21,0,0.38-0.06,0.53-0.17
		c0.14-0.11,0.27-0.3,0.38-0.57l0.15-0.33l-2.11-4.76h0.9l1.67,3.82l1.65-3.82H210.25z"/>
	<path class="st0" d="M214.85,89.85h-2.16v-0.78h5.21v0.78h-2.16v5.52h-0.89V89.85z"/>
	<path class="st0" d="M222.56,93.27h-3.87c0.05,0.42,0.24,0.76,0.55,1.01c0.31,0.25,0.71,0.38,1.17,0.38c0.57,0,1.03-0.19,1.38-0.58
		l0.48,0.56c-0.22,0.25-0.48,0.44-0.81,0.58c-0.32,0.13-0.68,0.2-1.08,0.2c-0.5,0-0.95-0.1-1.34-0.31c-0.39-0.21-0.69-0.5-0.9-0.87
		s-0.32-0.79-0.32-1.26c0-0.46,0.1-0.88,0.31-1.25c0.21-0.37,0.49-0.66,0.86-0.87c0.36-0.21,0.77-0.31,1.23-0.31
		c0.46,0,0.86,0.1,1.22,0.31c0.36,0.21,0.64,0.5,0.84,0.87c0.2,0.37,0.3,0.8,0.3,1.28C222.58,93.07,222.57,93.16,222.56,93.27z
		 M219.18,91.66c-0.28,0.25-0.44,0.58-0.49,0.99h3.06c-0.05-0.4-0.21-0.73-0.49-0.99c-0.28-0.25-0.63-0.38-1.04-0.38
		C219.8,91.28,219.46,91.4,219.18,91.66z"/>
	<path class="st0" d="M224.02,95.26c-0.36-0.1-0.64-0.24-0.85-0.4l0.36-0.68c0.21,0.15,0.46,0.27,0.76,0.36
		c0.3,0.09,0.6,0.14,0.91,0.14c0.76,0,1.13-0.22,1.13-0.65c0-0.14-0.05-0.26-0.15-0.34c-0.1-0.08-0.23-0.15-0.38-0.18
		c-0.15-0.04-0.37-0.08-0.65-0.13c-0.38-0.06-0.7-0.13-0.94-0.21c-0.24-0.08-0.45-0.21-0.63-0.4s-0.26-0.45-0.26-0.78
		c0-0.43,0.18-0.78,0.54-1.04c0.36-0.26,0.84-0.39,1.45-0.39c0.32,0,0.64,0.04,0.95,0.12c0.32,0.08,0.58,0.18,0.78,0.32l-0.37,0.68
		c-0.39-0.25-0.85-0.38-1.38-0.38c-0.37,0-0.64,0.06-0.84,0.18c-0.19,0.12-0.29,0.28-0.29,0.48c0,0.16,0.05,0.28,0.16,0.37
		c0.11,0.09,0.24,0.16,0.4,0.2c0.16,0.04,0.38,0.09,0.67,0.14c0.38,0.07,0.69,0.14,0.93,0.21c0.24,0.08,0.44,0.2,0.61,0.38
		c0.17,0.18,0.25,0.43,0.25,0.76c0,0.43-0.18,0.78-0.55,1.03c-0.37,0.26-0.87,0.38-1.51,0.38
		C224.75,95.42,224.38,95.37,224.02,95.26z"/>
	<path class="st0" d="M230.96,95.08c-0.13,0.11-0.28,0.19-0.47,0.25c-0.19,0.06-0.38,0.09-0.58,0.09c-0.48,0-0.85-0.13-1.12-0.39
		s-0.4-0.63-0.4-1.11V91.3h-0.81v-0.71h0.81v-1.04h0.86v1.04h1.37v0.71h-1.37v2.58c0,0.26,0.06,0.46,0.19,0.59
		c0.13,0.14,0.31,0.21,0.55,0.21c0.26,0,0.49-0.08,0.68-0.23L230.96,95.08z"/>
	<path class="st0" d="M232.02,89.51c-0.11-0.11-0.17-0.24-0.17-0.4c0-0.16,0.06-0.29,0.17-0.4c0.11-0.11,0.25-0.17,0.42-0.17
		s0.31,0.05,0.42,0.16c0.11,0.1,0.17,0.24,0.17,0.39c0,0.16-0.06,0.3-0.17,0.41c-0.11,0.11-0.25,0.17-0.42,0.17
		S232.13,89.62,232.02,89.51z M232.01,90.59h0.86v4.77h-0.86V90.59z"/>
	<path class="st0" d="M238.51,91.08c0.36,0.35,0.54,0.87,0.54,1.54v2.75h-0.86v-2.65c0-0.46-0.11-0.81-0.33-1.04
		c-0.22-0.23-0.54-0.35-0.95-0.35c-0.47,0-0.84,0.14-1.11,0.41c-0.27,0.27-0.41,0.66-0.41,1.17v2.46h-0.86v-4.77h0.83v0.72
		c0.17-0.25,0.41-0.44,0.71-0.57c0.3-0.13,0.63-0.2,1.01-0.2C237.67,90.55,238.15,90.72,238.51,91.08z"/>
	<path class="st0" d="M245.24,90.59v4.12c0,0.83-0.21,1.45-0.62,1.85c-0.41,0.4-1.03,0.6-1.85,0.6c-0.45,0-0.88-0.06-1.29-0.18
		c-0.41-0.12-0.74-0.3-0.99-0.53l0.41-0.67c0.22,0.19,0.5,0.34,0.82,0.45s0.67,0.17,1.01,0.17c0.56,0,0.97-0.13,1.24-0.4
		c0.27-0.26,0.4-0.67,0.4-1.21v-0.38c-0.2,0.25-0.45,0.43-0.75,0.55s-0.62,0.18-0.97,0.18c-0.46,0-0.87-0.1-1.24-0.29
		c-0.37-0.19-0.66-0.47-0.87-0.82c-0.21-0.35-0.32-0.75-0.32-1.2c0-0.45,0.1-0.85,0.32-1.2c0.21-0.35,0.5-0.62,0.87-0.81
		s0.78-0.29,1.24-0.29c0.36,0,0.69,0.07,1,0.2c0.31,0.13,0.56,0.33,0.76,0.58v-0.74H245.24z M243.59,94.21
		c0.25-0.13,0.44-0.32,0.58-0.55c0.14-0.24,0.21-0.51,0.21-0.81c0-0.46-0.15-0.84-0.46-1.12c-0.31-0.29-0.7-0.43-1.18-0.43
		c-0.49,0-0.88,0.14-1.19,0.43c-0.31,0.28-0.46,0.66-0.46,1.12c0,0.3,0.07,0.57,0.21,0.81c0.14,0.24,0.34,0.42,0.58,0.55
		s0.53,0.2,0.85,0.2C243.07,94.41,243.35,94.34,243.59,94.21z"/>
	<path class="st0" d="M174.93,109.72c-0.47-0.48-0.7-1.17-0.7-2.07v-3.58h0.9v3.55c0,1.35,0.59,2.02,1.77,2.02
		c0.58,0,1.02-0.17,1.32-0.5c0.31-0.33,0.46-0.84,0.46-1.53v-3.55h0.87v3.58c0,0.91-0.23,1.6-0.7,2.07
		c-0.47,0.48-1.12,0.72-1.96,0.72S175.4,110.2,174.93,109.72z"/>
	<path class="st0" d="M181.52,110.26c-0.36-0.1-0.64-0.24-0.85-0.4l0.36-0.68c0.21,0.15,0.46,0.27,0.76,0.36
		c0.3,0.09,0.6,0.14,0.91,0.14c0.76,0,1.13-0.22,1.13-0.65c0-0.14-0.05-0.26-0.15-0.34c-0.1-0.08-0.23-0.15-0.38-0.18
		c-0.15-0.04-0.37-0.08-0.65-0.13c-0.38-0.06-0.7-0.13-0.94-0.21c-0.24-0.08-0.45-0.21-0.63-0.4s-0.26-0.45-0.26-0.78
		c0-0.43,0.18-0.78,0.54-1.04c0.36-0.26,0.84-0.39,1.45-0.39c0.32,0,0.64,0.04,0.95,0.12c0.32,0.08,0.58,0.18,0.78,0.32l-0.37,0.68
		c-0.39-0.25-0.85-0.38-1.38-0.38c-0.37,0-0.64,0.06-0.84,0.18c-0.19,0.12-0.29,0.28-0.29,0.48c0,0.16,0.05,0.28,0.16,0.37
		c0.11,0.09,0.24,0.16,0.4,0.2c0.16,0.04,0.38,0.09,0.67,0.14c0.38,0.07,0.69,0.14,0.93,0.21c0.24,0.08,0.44,0.2,0.61,0.38
		c0.17,0.18,0.25,0.43,0.25,0.76c0,0.43-0.18,0.78-0.55,1.03c-0.37,0.26-0.87,0.38-1.51,0.38
		C182.25,110.42,181.88,110.37,181.52,110.26z"/>
	<path class="st0" d="M190.08,108.27h-3.87c0.05,0.42,0.24,0.76,0.55,1.01c0.31,0.25,0.71,0.38,1.17,0.38
		c0.57,0,1.03-0.19,1.38-0.58l0.48,0.56c-0.22,0.25-0.48,0.44-0.81,0.58c-0.32,0.13-0.68,0.2-1.08,0.2c-0.5,0-0.95-0.1-1.34-0.31
		c-0.39-0.21-0.69-0.5-0.9-0.87s-0.32-0.79-0.32-1.26c0-0.46,0.1-0.88,0.31-1.25c0.21-0.37,0.49-0.66,0.86-0.87
		c0.36-0.21,0.77-0.31,1.23-0.31c0.46,0,0.86,0.1,1.22,0.31c0.36,0.21,0.64,0.5,0.84,0.87c0.2,0.37,0.3,0.8,0.3,1.28
		C190.1,108.07,190.09,108.16,190.08,108.27z M186.7,106.66c-0.28,0.25-0.44,0.58-0.49,0.99h3.06c-0.05-0.4-0.21-0.73-0.49-0.99
		c-0.28-0.25-0.63-0.38-1.04-0.38C187.32,106.28,186.98,106.4,186.7,106.66z"/>
	<path class="st0" d="M192.79,105.76c0.29-0.14,0.65-0.22,1.07-0.22v0.84c-0.05-0.01-0.11-0.01-0.2-0.01c-0.47,0-0.83,0.14-1.1,0.42
		c-0.27,0.28-0.4,0.68-0.4,1.19v2.38h-0.86v-4.77h0.83v0.8C192.27,106.12,192.49,105.91,192.79,105.76z"/>
	<path class="st0" d="M197.42,104.51c-0.11-0.11-0.17-0.24-0.17-0.4c0-0.16,0.06-0.29,0.17-0.4c0.11-0.11,0.25-0.17,0.42-0.17
		s0.31,0.05,0.42,0.16c0.11,0.1,0.17,0.24,0.17,0.39c0,0.16-0.06,0.3-0.17,0.41c-0.11,0.11-0.25,0.17-0.42,0.17
		S197.53,104.62,197.42,104.51z M197.4,105.59h0.86v4.77h-0.86V105.59z"/>
	<path class="st0" d="M203.91,106.08c0.36,0.35,0.54,0.87,0.54,1.54v2.75h-0.86v-2.65c0-0.46-0.11-0.81-0.33-1.04
		c-0.22-0.23-0.54-0.35-0.95-0.35c-0.47,0-0.84,0.14-1.11,0.41c-0.27,0.27-0.41,0.66-0.41,1.17v2.46h-0.86v-4.77h0.83v0.72
		c0.17-0.25,0.41-0.44,0.71-0.57c0.3-0.13,0.63-0.2,1.01-0.2C203.07,105.55,203.55,105.72,203.91,106.08z"/>
	<path class="st0" d="M208.72,110.08c-0.13,0.11-0.28,0.19-0.47,0.25c-0.19,0.06-0.38,0.09-0.58,0.09c-0.48,0-0.85-0.13-1.12-0.39
		s-0.4-0.63-0.4-1.11v-2.62h-0.81v-0.71h0.81v-1.04h0.86v1.04h1.37v0.71h-1.37v2.58c0,0.26,0.06,0.46,0.19,0.59
		c0.13,0.14,0.31,0.21,0.55,0.21c0.26,0,0.49-0.08,0.68-0.23L208.72,110.08z"/>
	<path class="st0" d="M213.9,108.27h-3.87c0.05,0.42,0.24,0.76,0.55,1.01c0.31,0.25,0.71,0.38,1.17,0.38c0.57,0,1.03-0.19,1.38-0.58
		l0.48,0.56c-0.22,0.25-0.48,0.44-0.81,0.58c-0.32,0.13-0.68,0.2-1.08,0.2c-0.5,0-0.95-0.1-1.34-0.31c-0.39-0.21-0.69-0.5-0.9-0.87
		s-0.32-0.79-0.32-1.26c0-0.46,0.1-0.88,0.31-1.25c0.21-0.37,0.49-0.66,0.86-0.87c0.36-0.21,0.77-0.31,1.23-0.31
		c0.46,0,0.86,0.1,1.22,0.31c0.36,0.21,0.64,0.5,0.84,0.87c0.2,0.37,0.3,0.8,0.3,1.28C213.92,108.07,213.91,108.16,213.9,108.27z
		 M210.52,106.66c-0.28,0.25-0.44,0.58-0.49,0.99h3.06c-0.05-0.4-0.21-0.73-0.49-0.99c-0.28-0.25-0.63-0.38-1.04-0.38
		C211.15,106.28,210.8,106.4,210.52,106.66z"/>
	<path class="st0" d="M216.61,105.76c0.29-0.14,0.65-0.22,1.07-0.22v0.84c-0.05-0.01-0.11-0.01-0.2-0.01c-0.47,0-0.83,0.14-1.1,0.42
		c-0.27,0.28-0.4,0.68-0.4,1.19v2.38h-0.86v-4.77h0.83v0.8C216.09,106.12,216.31,105.91,216.61,105.76z"/>
	<path class="st0" d="M223.16,105.59l-2.09,4.77h-0.88l-2.09-4.77h0.9l1.64,3.83l1.67-3.83H223.16z"/>
	<path class="st0" d="M223.98,104.51c-0.11-0.11-0.17-0.24-0.17-0.4c0-0.16,0.06-0.29,0.17-0.4c0.11-0.11,0.25-0.17,0.42-0.17
		s0.31,0.05,0.42,0.16c0.11,0.1,0.17,0.24,0.17,0.39c0,0.16-0.06,0.3-0.17,0.41c-0.11,0.11-0.25,0.17-0.42,0.17
		S224.09,104.62,223.98,104.51z M223.97,105.59h0.86v4.77h-0.86V105.59z"/>
	<path class="st0" d="M230.77,108.27h-3.87c0.05,0.42,0.24,0.76,0.55,1.01c0.31,0.25,0.71,0.38,1.17,0.38
		c0.57,0,1.03-0.19,1.38-0.58l0.48,0.56c-0.22,0.25-0.48,0.44-0.81,0.58c-0.32,0.13-0.68,0.2-1.08,0.2c-0.5,0-0.95-0.1-1.34-0.31
		c-0.39-0.21-0.69-0.5-0.9-0.87s-0.32-0.79-0.32-1.26c0-0.46,0.1-0.88,0.31-1.25c0.21-0.37,0.49-0.66,0.86-0.87
		c0.36-0.21,0.77-0.31,1.23-0.31c0.46,0,0.86,0.1,1.22,0.31c0.36,0.21,0.64,0.5,0.84,0.87c0.2,0.37,0.3,0.8,0.3,1.28
		C230.79,108.07,230.78,108.16,230.77,108.27z M227.39,106.66c-0.28,0.25-0.44,0.58-0.49,0.99h3.06c-0.05-0.4-0.21-0.73-0.49-0.99
		c-0.28-0.25-0.63-0.38-1.04-0.38C228.02,106.28,227.67,106.4,227.39,106.66z"/>
	<path class="st0" d="M239.12,105.59l-1.78,4.77h-0.83l-1.38-3.62l-1.39,3.62h-0.83l-1.77-4.77h0.82l1.39,3.8l1.44-3.8h0.73
		l1.41,3.82l1.42-3.82H239.12z"/>
	<path class="st0" d="M240.17,110.26c-0.36-0.1-0.64-0.24-0.85-0.4l0.36-0.68c0.21,0.15,0.46,0.27,0.76,0.36
		c0.3,0.09,0.6,0.14,0.91,0.14c0.76,0,1.13-0.22,1.13-0.65c0-0.14-0.05-0.26-0.15-0.34c-0.1-0.08-0.23-0.15-0.38-0.18
		c-0.15-0.04-0.37-0.08-0.65-0.13c-0.38-0.06-0.7-0.13-0.94-0.21c-0.24-0.08-0.45-0.21-0.63-0.4s-0.26-0.45-0.26-0.78
		c0-0.43,0.18-0.78,0.54-1.04c0.36-0.26,0.84-0.39,1.45-0.39c0.32,0,0.64,0.04,0.95,0.12c0.32,0.08,0.58,0.18,0.78,0.32l-0.37,0.68
		c-0.39-0.25-0.85-0.38-1.38-0.38c-0.37,0-0.64,0.06-0.84,0.18c-0.19,0.12-0.29,0.28-0.29,0.48c0,0.16,0.05,0.28,0.16,0.37
		c0.11,0.09,0.24,0.16,0.4,0.2c0.16,0.04,0.38,0.09,0.67,0.14c0.38,0.07,0.69,0.14,0.93,0.21c0.24,0.08,0.44,0.2,0.61,0.38
		c0.17,0.18,0.25,0.43,0.25,0.76c0,0.43-0.18,0.78-0.55,1.03c-0.37,0.26-0.87,0.38-1.51,0.38
		C240.9,110.42,240.53,110.37,240.17,110.26z"/>
	<path class="st0" d="M177.67,124.72c-0.47-0.48-0.7-1.17-0.7-2.07v-3.58h0.9v3.55c0,1.35,0.59,2.02,1.77,2.02
		c0.58,0,1.02-0.17,1.32-0.5c0.31-0.33,0.46-0.84,0.46-1.53v-3.55h0.87v3.58c0,0.91-0.23,1.6-0.7,2.07
		c-0.47,0.48-1.12,0.71-1.96,0.71S178.14,125.2,177.67,124.72z"/>
	<path class="st0" d="M184.26,125.26c-0.36-0.11-0.64-0.24-0.85-0.4l0.36-0.68c0.21,0.15,0.46,0.27,0.76,0.36s0.6,0.13,0.91,0.13
		c0.76,0,1.13-0.22,1.13-0.65c0-0.14-0.05-0.26-0.15-0.34c-0.1-0.08-0.23-0.15-0.38-0.18c-0.15-0.04-0.37-0.08-0.65-0.13
		c-0.38-0.06-0.7-0.13-0.94-0.21c-0.24-0.08-0.45-0.21-0.63-0.4c-0.17-0.19-0.26-0.45-0.26-0.78c0-0.43,0.18-0.78,0.54-1.04
		c0.36-0.26,0.84-0.39,1.45-0.39c0.32,0,0.64,0.04,0.95,0.12c0.32,0.08,0.58,0.18,0.78,0.32l-0.37,0.68
		c-0.39-0.25-0.85-0.38-1.38-0.38c-0.37,0-0.64,0.06-0.84,0.18c-0.19,0.12-0.29,0.28-0.29,0.48c0,0.16,0.05,0.28,0.16,0.37
		c0.11,0.09,0.24,0.16,0.4,0.2c0.16,0.04,0.38,0.09,0.67,0.14c0.38,0.07,0.69,0.14,0.93,0.21c0.24,0.08,0.44,0.2,0.61,0.38
		s0.25,0.43,0.25,0.76c0,0.43-0.18,0.78-0.55,1.03c-0.37,0.26-0.87,0.38-1.51,0.38C184.99,125.42,184.62,125.37,184.26,125.26z"/>
	<path class="st0" d="M192.82,123.27h-3.87c0.05,0.42,0.24,0.76,0.55,1.01c0.31,0.25,0.71,0.38,1.17,0.38
		c0.57,0,1.03-0.19,1.38-0.58l0.48,0.56c-0.22,0.25-0.48,0.44-0.81,0.58c-0.32,0.13-0.68,0.2-1.08,0.2c-0.5,0-0.95-0.1-1.34-0.31
		c-0.39-0.21-0.69-0.5-0.9-0.87s-0.32-0.79-0.32-1.26c0-0.46,0.1-0.88,0.31-1.25c0.21-0.37,0.49-0.66,0.86-0.87
		c0.36-0.21,0.77-0.31,1.23-0.31c0.46,0,0.86,0.1,1.22,0.31c0.36,0.21,0.64,0.5,0.84,0.87c0.2,0.37,0.3,0.8,0.3,1.28
		C192.84,123.07,192.83,123.16,192.82,123.27z M189.44,121.66c-0.28,0.25-0.44,0.58-0.49,0.99h3.06c-0.05-0.4-0.21-0.73-0.49-0.99
		c-0.28-0.25-0.63-0.38-1.04-0.38C190.06,121.28,189.72,121.4,189.44,121.66z"/>
	<path class="st0" d="M195.53,120.76c0.29-0.14,0.65-0.22,1.07-0.22v0.84c-0.05-0.01-0.11-0.01-0.2-0.01c-0.47,0-0.83,0.14-1.1,0.42
		c-0.27,0.28-0.4,0.68-0.4,1.19v2.38h-0.86v-4.77h0.83v0.8C195.01,121.12,195.23,120.91,195.53,120.76z"/>
	<path class="st0" d="M203.91,120.86c0.37,0.2,0.65,0.49,0.86,0.85s0.31,0.79,0.31,1.27c0,0.48-0.1,0.9-0.31,1.27
		c-0.21,0.37-0.49,0.66-0.86,0.86s-0.78,0.31-1.24,0.31c-0.34,0-0.66-0.07-0.94-0.2c-0.29-0.13-0.53-0.32-0.72-0.58v2.47h-0.86
		v-6.52h0.83v0.76c0.19-0.26,0.43-0.46,0.73-0.6c0.29-0.14,0.62-0.2,0.97-0.2C203.13,120.55,203.55,120.65,203.91,120.86z
		 M203.42,124.45c0.24-0.14,0.43-0.34,0.58-0.59c0.14-0.25,0.21-0.55,0.21-0.88c0-0.33-0.07-0.62-0.21-0.88
		c-0.14-0.25-0.33-0.45-0.58-0.59c-0.24-0.14-0.52-0.21-0.82-0.21c-0.3,0-0.57,0.07-0.81,0.21c-0.24,0.14-0.44,0.34-0.58,0.59
		c-0.14,0.25-0.21,0.54-0.21,0.87c0,0.33,0.07,0.62,0.21,0.88s0.33,0.45,0.58,0.59c0.25,0.14,0.52,0.21,0.82,0.21
		C202.91,124.66,203.18,124.59,203.42,124.45z"/>
	<path class="st0" d="M210.57,123.27h-3.87c0.05,0.42,0.24,0.76,0.55,1.01c0.31,0.25,0.71,0.38,1.17,0.38
		c0.57,0,1.03-0.19,1.38-0.58l0.48,0.56c-0.22,0.25-0.48,0.44-0.81,0.58c-0.32,0.13-0.68,0.2-1.08,0.2c-0.5,0-0.95-0.1-1.34-0.31
		c-0.39-0.21-0.69-0.5-0.9-0.87s-0.32-0.79-0.32-1.26c0-0.46,0.1-0.88,0.31-1.25c0.21-0.37,0.49-0.66,0.86-0.87
		c0.36-0.21,0.77-0.31,1.23-0.31c0.46,0,0.86,0.1,1.22,0.31c0.36,0.21,0.64,0.5,0.84,0.87c0.2,0.37,0.3,0.8,0.3,1.28
		C210.59,123.07,210.59,123.16,210.57,123.27z M207.19,121.66c-0.28,0.25-0.44,0.58-0.49,0.99h3.06c-0.05-0.4-0.21-0.73-0.49-0.99
		c-0.28-0.25-0.63-0.38-1.04-0.38C207.82,121.28,207.47,121.4,207.19,121.66z"/>
	<path class="st0" d="M213.28,120.76c0.29-0.14,0.65-0.22,1.07-0.22v0.84c-0.05-0.01-0.11-0.01-0.2-0.01c-0.47,0-0.83,0.14-1.1,0.42
		c-0.27,0.28-0.4,0.68-0.4,1.19v2.38h-0.86v-4.77h0.83v0.8C212.77,121.12,212.99,120.91,213.28,120.76z"/>
	<path class="st0" d="M215.69,125.26c-0.36-0.11-0.64-0.24-0.85-0.4l0.36-0.68c0.21,0.15,0.46,0.27,0.76,0.36s0.6,0.13,0.91,0.13
		c0.76,0,1.13-0.22,1.13-0.65c0-0.14-0.05-0.26-0.15-0.34c-0.1-0.08-0.23-0.15-0.38-0.18c-0.15-0.04-0.37-0.08-0.65-0.13
		c-0.38-0.06-0.7-0.13-0.94-0.21c-0.24-0.08-0.45-0.21-0.63-0.4c-0.17-0.19-0.26-0.45-0.26-0.78c0-0.43,0.18-0.78,0.54-1.04
		c0.36-0.26,0.84-0.39,1.45-0.39c0.32,0,0.64,0.04,0.95,0.12c0.32,0.08,0.58,0.18,0.78,0.32l-0.37,0.68
		c-0.39-0.25-0.85-0.38-1.38-0.38c-0.37,0-0.64,0.06-0.84,0.18c-0.19,0.12-0.29,0.28-0.29,0.48c0,0.16,0.05,0.28,0.16,0.37
		c0.11,0.09,0.24,0.16,0.4,0.2c0.16,0.04,0.38,0.09,0.67,0.14c0.38,0.07,0.69,0.14,0.93,0.21c0.24,0.08,0.44,0.2,0.61,0.38
		s0.25,0.43,0.25,0.76c0,0.43-0.18,0.78-0.55,1.03c-0.37,0.26-0.87,0.38-1.51,0.38C216.43,125.42,216.05,125.37,215.69,125.26z"/>
	<path class="st0" d="M220.72,125.1c-0.38-0.21-0.67-0.5-0.89-0.87s-0.32-0.79-0.32-1.25c0-0.47,0.11-0.89,0.32-1.26
		s0.51-0.66,0.89-0.86s0.8-0.31,1.28-0.31c0.47,0,0.9,0.1,1.27,0.31s0.67,0.5,0.88,0.86s0.32,0.79,0.32,1.26
		c0,0.47-0.11,0.89-0.32,1.25s-0.51,0.66-0.88,0.87c-0.38,0.21-0.8,0.32-1.27,0.32C221.53,125.42,221.1,125.31,220.72,125.1z
		 M222.83,124.45c0.24-0.14,0.43-0.34,0.57-0.59s0.21-0.55,0.21-0.88c0-0.33-0.07-0.62-0.21-0.88s-0.33-0.45-0.57-0.59
		c-0.24-0.14-0.52-0.21-0.82-0.21c-0.31,0-0.58,0.07-0.82,0.21c-0.24,0.14-0.43,0.33-0.58,0.59c-0.14,0.25-0.21,0.55-0.21,0.88
		c0,0.33,0.07,0.62,0.21,0.88c0.14,0.25,0.33,0.45,0.58,0.59c0.24,0.14,0.52,0.21,0.82,0.21
		C222.31,124.66,222.58,124.59,222.83,124.45z"/>
	<path class="st0" d="M229.67,121.08c0.36,0.35,0.54,0.87,0.54,1.54v2.75h-0.86v-2.65c0-0.46-0.11-0.81-0.33-1.04
		c-0.22-0.23-0.54-0.35-0.95-0.35c-0.47,0-0.84,0.14-1.11,0.41c-0.27,0.27-0.41,0.67-0.41,1.17v2.46h-0.86v-4.77h0.83v0.72
		c0.17-0.25,0.41-0.44,0.71-0.57s0.63-0.2,1.01-0.2C228.83,120.55,229.31,120.72,229.67,121.08z"/>
	<path class="st0" d="M235.06,121.04c0.35,0.32,0.53,0.81,0.53,1.45v2.88h-0.82v-0.63c-0.14,0.22-0.35,0.39-0.62,0.51
		c-0.27,0.12-0.58,0.18-0.95,0.18c-0.53,0-0.96-0.13-1.28-0.39c-0.32-0.26-0.48-0.6-0.48-1.02s0.15-0.76,0.46-1.01
		c0.31-0.26,0.79-0.38,1.46-0.38h1.37v-0.17c0-0.37-0.11-0.66-0.32-0.86s-0.53-0.3-0.95-0.3c-0.28,0-0.56,0.05-0.83,0.14
		c-0.27,0.09-0.5,0.22-0.68,0.37l-0.36-0.65c0.25-0.2,0.54-0.35,0.88-0.46c0.34-0.1,0.71-0.16,1.09-0.16
		C234.2,120.55,234.71,120.71,235.06,121.04z M234.2,124.53c0.24-0.15,0.41-0.36,0.52-0.62v-0.67h-1.33c-0.73,0-1.1,0.25-1.1,0.74
		c0,0.24,0.09,0.43,0.28,0.57c0.19,0.14,0.44,0.21,0.77,0.21C233.67,124.75,233.96,124.68,234.2,124.53z"/>
	<path class="st0" d="M237.43,125.26c-0.36-0.11-0.64-0.24-0.85-0.4l0.36-0.68c0.21,0.15,0.46,0.27,0.76,0.36s0.6,0.13,0.91,0.13
		c0.76,0,1.13-0.22,1.13-0.65c0-0.14-0.05-0.26-0.15-0.34c-0.1-0.08-0.23-0.15-0.38-0.18c-0.15-0.04-0.37-0.08-0.65-0.13
		c-0.38-0.06-0.7-0.13-0.94-0.21c-0.24-0.08-0.45-0.21-0.63-0.4c-0.17-0.19-0.26-0.45-0.26-0.78c0-0.43,0.18-0.78,0.54-1.04
		c0.36-0.26,0.84-0.39,1.45-0.39c0.32,0,0.64,0.04,0.95,0.12c0.32,0.08,0.58,0.18,0.78,0.32l-0.37,0.68
		c-0.39-0.25-0.85-0.38-1.38-0.38c-0.37,0-0.64,0.06-0.84,0.18c-0.19,0.12-0.29,0.28-0.29,0.48c0,0.16,0.05,0.28,0.16,0.37
		c0.11,0.09,0.24,0.16,0.4,0.2c0.16,0.04,0.38,0.09,0.67,0.14c0.38,0.07,0.69,0.14,0.93,0.21c0.24,0.08,0.44,0.2,0.61,0.38
		s0.25,0.43,0.25,0.76c0,0.43-0.18,0.78-0.55,1.03c-0.37,0.26-0.87,0.38-1.51,0.38C238.16,125.42,237.79,125.37,237.43,125.26z"/>
	<path class="st0" d="M178.11,140.22c-0.44-0.15-0.79-0.34-1.04-0.57l0.33-0.7c0.24,0.22,0.55,0.39,0.92,0.53s0.76,0.2,1.16,0.2
		c0.52,0,0.91-0.09,1.17-0.27c0.26-0.18,0.39-0.41,0.39-0.71c0-0.22-0.07-0.39-0.21-0.53c-0.14-0.14-0.32-0.24-0.52-0.31
		c-0.21-0.07-0.5-0.15-0.88-0.24c-0.47-0.11-0.86-0.23-1.15-0.34c-0.29-0.11-0.54-0.29-0.75-0.53c-0.21-0.24-0.31-0.56-0.31-0.96
		c0-0.34,0.09-0.64,0.26-0.91c0.18-0.27,0.45-0.49,0.81-0.65c0.36-0.16,0.81-0.24,1.34-0.24c0.37,0,0.74,0.05,1.1,0.14
		c0.36,0.1,0.67,0.23,0.93,0.41l-0.3,0.72c-0.26-0.17-0.55-0.29-0.85-0.38c-0.3-0.09-0.59-0.13-0.88-0.13
		c-0.51,0-0.89,0.09-1.15,0.28s-0.38,0.43-0.38,0.72c0,0.22,0.07,0.39,0.22,0.53c0.14,0.14,0.32,0.24,0.54,0.32s0.5,0.15,0.87,0.24
		c0.47,0.11,0.85,0.23,1.14,0.34c0.29,0.11,0.54,0.29,0.74,0.52c0.21,0.23,0.31,0.55,0.31,0.94c0,0.33-0.09,0.63-0.27,0.91
		c-0.18,0.27-0.45,0.49-0.82,0.65c-0.37,0.16-0.82,0.24-1.35,0.24C179.01,140.44,178.55,140.36,178.11,140.22z"/>
	<path class="st0" d="M183.89,140.1c-0.38-0.21-0.68-0.5-0.9-0.87s-0.32-0.79-0.32-1.25c0-0.47,0.11-0.89,0.32-1.26
		s0.51-0.66,0.9-0.86s0.81-0.31,1.3-0.31c0.43,0,0.82,0.09,1.16,0.26c0.34,0.17,0.6,0.43,0.79,0.76l-0.66,0.42
		c-0.15-0.23-0.34-0.4-0.56-0.51c-0.22-0.11-0.47-0.17-0.74-0.17c-0.31,0-0.59,0.07-0.84,0.21c-0.25,0.14-0.44,0.33-0.58,0.59
		c-0.14,0.25-0.21,0.55-0.21,0.88c0,0.34,0.07,0.63,0.21,0.89c0.14,0.26,0.34,0.45,0.58,0.59s0.53,0.21,0.84,0.21
		c0.27,0,0.52-0.06,0.74-0.17s0.41-0.29,0.56-0.51l0.66,0.41c-0.19,0.33-0.45,0.58-0.79,0.76s-0.72,0.27-1.16,0.27
		C184.7,140.42,184.27,140.31,183.89,140.1z"/>
	<path class="st0" d="M189.74,135.76c0.29-0.14,0.65-0.22,1.07-0.22v0.84c-0.05-0.01-0.11-0.01-0.2-0.01c-0.47,0-0.83,0.14-1.1,0.42
		c-0.27,0.28-0.4,0.68-0.4,1.19v2.38h-0.86v-4.77h0.83v0.8C189.22,136.12,189.45,135.91,189.74,135.76z"/>
	<path class="st0" d="M196.12,138.27h-3.87c0.05,0.42,0.24,0.76,0.55,1.01c0.31,0.25,0.71,0.38,1.17,0.38
		c0.57,0,1.03-0.19,1.38-0.58l0.48,0.56c-0.22,0.25-0.48,0.44-0.81,0.58c-0.32,0.13-0.68,0.2-1.08,0.2c-0.5,0-0.95-0.1-1.34-0.31
		c-0.39-0.21-0.69-0.5-0.9-0.87s-0.32-0.79-0.32-1.26c0-0.46,0.1-0.88,0.31-1.25c0.21-0.37,0.49-0.66,0.86-0.87
		c0.36-0.21,0.77-0.31,1.23-0.31c0.46,0,0.86,0.1,1.22,0.31c0.36,0.21,0.64,0.5,0.84,0.87c0.2,0.37,0.3,0.8,0.3,1.28
		C196.14,138.07,196.13,138.16,196.12,138.27z M192.74,136.66c-0.28,0.25-0.44,0.58-0.49,0.99h3.06c-0.05-0.4-0.21-0.73-0.49-0.99
		c-0.28-0.25-0.63-0.38-1.04-0.38C193.37,136.28,193.02,136.4,192.74,136.66z"/>
	<path class="st0" d="M201.63,138.27h-3.87c0.05,0.42,0.24,0.76,0.55,1.01c0.31,0.25,0.71,0.38,1.17,0.38
		c0.57,0,1.03-0.19,1.38-0.58l0.48,0.56c-0.22,0.25-0.48,0.44-0.81,0.58c-0.32,0.13-0.68,0.2-1.08,0.2c-0.5,0-0.95-0.1-1.34-0.31
		c-0.39-0.21-0.69-0.5-0.9-0.87s-0.32-0.79-0.32-1.26c0-0.46,0.1-0.88,0.31-1.25c0.21-0.37,0.49-0.66,0.86-0.87
		c0.36-0.21,0.77-0.31,1.23-0.31c0.46,0,0.86,0.1,1.22,0.31c0.36,0.21,0.64,0.5,0.84,0.87c0.2,0.37,0.3,0.8,0.3,1.28
		C201.65,138.07,201.64,138.16,201.63,138.27z M198.25,136.66c-0.28,0.25-0.44,0.58-0.49,0.99h3.06c-0.05-0.4-0.21-0.73-0.49-0.99
		c-0.28-0.25-0.63-0.38-1.04-0.38C198.87,136.28,198.53,136.4,198.25,136.66z"/>
	<path class="st0" d="M206.83,136.08c0.36,0.35,0.54,0.87,0.54,1.54v2.75h-0.86v-2.65c0-0.46-0.11-0.81-0.33-1.04
		c-0.22-0.23-0.54-0.35-0.95-0.35c-0.47,0-0.84,0.14-1.11,0.41c-0.27,0.27-0.41,0.67-0.41,1.17v2.46h-0.86v-4.77h0.83v0.72
		c0.17-0.25,0.41-0.44,0.71-0.57s0.63-0.2,1.01-0.2C205.99,135.55,206.48,135.72,206.83,136.08z"/>
	<path class="st0" d="M213.29,138.27h-3.87c0.05,0.42,0.24,0.76,0.55,1.01c0.31,0.25,0.71,0.38,1.17,0.38
		c0.57,0,1.03-0.19,1.38-0.58l0.48,0.56c-0.22,0.25-0.48,0.44-0.81,0.58c-0.32,0.13-0.68,0.2-1.08,0.2c-0.5,0-0.95-0.1-1.34-0.31
		c-0.39-0.21-0.69-0.5-0.9-0.87s-0.32-0.79-0.32-1.26c0-0.46,0.1-0.88,0.31-1.25c0.21-0.37,0.49-0.66,0.86-0.87
		c0.36-0.21,0.77-0.31,1.23-0.31c0.46,0,0.86,0.1,1.22,0.31c0.36,0.21,0.64,0.5,0.84,0.87c0.2,0.37,0.3,0.8,0.3,1.28
		C213.31,138.07,213.3,138.16,213.29,138.27z M209.91,136.66c-0.28,0.25-0.44,0.58-0.49,0.99h3.06c-0.05-0.4-0.21-0.73-0.49-0.99
		c-0.28-0.25-0.63-0.38-1.04-0.38C210.54,136.28,210.19,136.4,209.91,136.66z"/>
	<path class="st0" d="M216,135.76c0.29-0.14,0.65-0.22,1.07-0.22v0.84c-0.05-0.01-0.11-0.01-0.2-0.01c-0.47,0-0.83,0.14-1.1,0.42
		c-0.27,0.28-0.4,0.68-0.4,1.19v2.38h-0.86v-4.77h0.83v0.8C215.48,136.12,215.71,135.91,216,135.76z"/>
	<path class="st0" d="M227.23,140.94c-0.2,0.24-0.44,0.42-0.71,0.55c-0.27,0.13-0.56,0.19-0.87,0.19c-0.4,0-0.77-0.09-1.11-0.28
		s-0.74-0.51-1.18-0.97c-0.59-0.03-1.13-0.19-1.61-0.48c-0.48-0.29-0.85-0.67-1.12-1.15c-0.27-0.48-0.4-1.01-0.4-1.59
		c0-0.61,0.15-1.16,0.44-1.65c0.29-0.49,0.69-0.88,1.2-1.16c0.51-0.28,1.08-0.42,1.72-0.42c0.63,0,1.2,0.14,1.71,0.42
		c0.51,0.28,0.91,0.66,1.2,1.15s0.43,1.04,0.43,1.65c0,0.52-0.1,0.99-0.31,1.42c-0.21,0.43-0.5,0.79-0.87,1.09
		c-0.38,0.29-0.81,0.5-1.29,0.61c0.21,0.22,0.41,0.38,0.61,0.48c0.19,0.1,0.39,0.15,0.6,0.15c0.44,0,0.83-0.18,1.15-0.54
		L227.23,140.94z M221.45,138.45c0.21,0.37,0.51,0.66,0.88,0.87s0.79,0.31,1.26,0.31c0.46,0,0.87-0.1,1.24-0.31s0.66-0.5,0.88-0.87
		s0.32-0.78,0.32-1.24s-0.11-0.87-0.32-1.24s-0.5-0.66-0.88-0.87s-0.79-0.32-1.24-0.32c-0.46,0-0.88,0.11-1.26,0.32
		s-0.67,0.5-0.88,0.87s-0.32,0.78-0.32,1.24S221.24,138.08,221.45,138.45z"/>
	<path class="st0" d="M233.72,134.06v6.3h-0.74l-3.78-4.7v4.7h-0.9v-6.3h0.74l3.78,4.7v-4.7H233.72z"/>
	<path class="st0" d="M236.07,140.22c-0.44-0.15-0.79-0.34-1.04-0.57l0.33-0.7c0.24,0.22,0.55,0.39,0.92,0.53s0.76,0.2,1.16,0.2
		c0.52,0,0.91-0.09,1.17-0.27c0.26-0.18,0.39-0.41,0.39-0.71c0-0.22-0.07-0.39-0.21-0.53c-0.14-0.14-0.32-0.24-0.52-0.31
		c-0.21-0.07-0.5-0.15-0.88-0.24c-0.47-0.11-0.86-0.23-1.15-0.34c-0.29-0.11-0.54-0.29-0.75-0.53c-0.21-0.24-0.31-0.56-0.31-0.96
		c0-0.34,0.09-0.64,0.26-0.91c0.18-0.27,0.45-0.49,0.81-0.65c0.36-0.16,0.81-0.24,1.34-0.24c0.37,0,0.74,0.05,1.1,0.14
		c0.36,0.1,0.67,0.23,0.93,0.41l-0.3,0.72c-0.26-0.17-0.55-0.29-0.85-0.38c-0.3-0.09-0.59-0.13-0.88-0.13
		c-0.51,0-0.89,0.09-1.15,0.28s-0.38,0.43-0.38,0.72c0,0.22,0.07,0.39,0.22,0.53c0.14,0.14,0.32,0.24,0.54,0.32s0.5,0.15,0.87,0.24
		c0.47,0.11,0.85,0.23,1.14,0.34c0.29,0.11,0.54,0.29,0.74,0.52c0.21,0.23,0.31,0.55,0.31,0.94c0,0.33-0.09,0.63-0.27,0.91
		c-0.18,0.27-0.45,0.49-0.82,0.65c-0.37,0.16-0.82,0.24-1.35,0.24C236.97,140.44,236.51,140.36,236.07,140.22z"/>
</g>
</svg>
