<?xml version="1.0" encoding="utf-8"?>
<!-- Generator: Adobe Illustrator 24.1.0, SVG Export Plug-In . SVG Version: 6.00 Build 0)  -->
<svg version="1.1" id="Layer_1" xmlns="http://www.w3.org/2000/svg" xmlns:xlink="http://www.w3.org/1999/xlink" x="0px" y="0px"
	 viewBox="0 0 294.35 221.88" style="enable-background:new 0 0 294.35 221.88;" xml:space="preserve">
<style type="text/css">
	.st0{fill:#F0A160;}
	.st1{fill:#FFFFFF;}
	.st2{enable-background:new    ;}
</style>
<path id="Rectangle_117_4_" class="st0" d="M26.61,15.72h246c7.18,0,13,5.82,13,13v169c0,7.18-5.82,13-13,13h-246
	c-7.18,0-13-5.82-13-13v-169C13.61,21.54,19.43,15.72,26.61,15.72z"/>
<path id="Rectangle_118_4_" class="st1" d="M153.98,31.65h109c3.87,0,7,3.13,7,7v154c0,3.87-3.13,7-7,7h-109c-3.87,0-7-3.13-7-7
	v-154C146.98,34.79,150.11,31.65,153.98,31.65z"/>
<g>
	<g id="Group_8" transform="translate(0 0.427)">
		<g id="Group_7">
			<path id="Path_65" class="st1" d="M113.92,76.31L113.92,76.31L113.92,76.31l-4.94-0.7c-0.69-0.1-1.18-0.74-1.08-1.44
				c0.05-0.33,0.23-0.64,0.5-0.84l3.99-2.99c0.56-0.42,0.67-1.22,0.25-1.78l-4.57-6.09c-0.42-0.56-1.22-0.67-1.78-0.25l-3.99,2.99
				c-0.56,0.43-1.35,0.32-1.78-0.23c-0.21-0.27-0.3-0.62-0.25-0.97l0.71-4.94c0.1-0.69-0.38-1.34-1.08-1.44l0,0l-7.54-1.08
				c-0.69-0.1-1.34,0.38-1.44,1.08l0,0l-0.71,4.94c-0.1,0.69-0.74,1.18-1.44,1.08c-0.33-0.05-0.64-0.23-0.84-0.5l-2.99-3.99
				c-0.42-0.56-1.22-0.67-1.78-0.25l-3.82,2.86c-1.73-0.18-3.47-0.18-5.19,0C62.87,63.06,54,72.08,52.9,83.4
				c-0.03,0.36-0.05,0.72-0.07,1.07h-0.38c-0.6,0-1.12,0.43-1.24,1.02l-0.88,4.17l-3.51-2.42c-0.5-0.35-1.19-0.29-1.62,0.15
				l-3.81,3.81c-0.43,0.43-0.5,1.11-0.15,1.62l2.41,3.51l-4.17,0.88c-0.58,0.13-1,0.65-1,1.25v5.08c0,0.6,0.42,1.12,1.01,1.24
				l4.17,0.88l-2.41,3.51c-0.35,0.5-0.28,1.18,0.15,1.62l3.81,3.81c0.43,0.43,1.11,0.5,1.62,0.15l3.51-2.42l0.88,4.17
				c0.12,0.59,0.64,1.01,1.24,1.02h5.08c0.6,0,1.12-0.42,1.24-1.01l0.88-4.17l3.51,2.41c0.5,0.35,1.18,0.28,1.62-0.15l1.97-1.98
				v3.62c0.01,1.81,0.97,3.47,2.54,4.37v7.05c0,2.81,2.27,5.08,5.08,5.08h5.08c2.81,0,5.08-2.27,5.08-5.08v-7.05
				c1.57-0.9,2.53-2.57,2.54-4.37v-5.03c0.04-2.11,1.14-4.06,2.94-5.18c1.05-0.68,2.05-1.45,2.99-2.29l-1.69-1.89
				c-0.84,0.75-1.73,1.43-2.67,2.05c-2.52,1.58-4.06,4.34-4.1,7.31v5.03c0,1.4-1.14,2.54-2.54,2.54H71.84
				c-1.4,0-2.54-1.14-2.54-2.54v-5.13c-0.03-2.92-1.55-5.62-4.03-7.17c-10.06-6.32-13.1-19.61-6.77-29.67
				C62.42,68,69.27,64.2,76.64,64.18c-0.02,0.05-0.04,0.09-0.05,0.14c-0.05,0.33,0.04,0.67,0.24,0.94l2.99,3.99
				c0.31,0.41,0.34,0.97,0.07,1.41c-0.26,0.44-0.76,0.68-1.27,0.61l-4.94-0.71c-0.69-0.1-1.34,0.38-1.44,1.08l0,0l-1.08,7.55
				c-0.1,0.69,0.38,1.34,1.07,1.44c0,0,0,0,0,0l0,0l4.94,0.71c0.69,0.1,1.18,0.74,1.08,1.44c-0.05,0.33-0.23,0.64-0.5,0.84
				l-3.99,2.99c-0.56,0.42-0.67,1.22-0.25,1.78l4.57,6.09c0.42,0.56,1.22,0.67,1.78,0.25l3.99-3c0.56-0.42,1.36-0.31,1.78,0.26
				c0.2,0.27,0.29,0.61,0.24,0.94l-0.7,4.94c-0.1,0.69,0.38,1.34,1.08,1.44l0,0l7.54,1.08c0.06,0.01,0.12,0.01,0.18,0.01
				c0.63,0,1.17-0.46,1.26-1.09l0.7-4.94c0.1-0.69,0.74-1.18,1.44-1.08c0.33,0.05,0.64,0.23,0.84,0.5l2.99,3.99
				c0.42,0.56,1.22,0.67,1.78,0.25l6.09-4.57c0.56-0.42,0.67-1.22,0.25-1.78l-2.99-3.99c-0.31-0.41-0.34-0.97-0.07-1.41
				c0.25-0.45,0.76-0.69,1.27-0.61l4.94,0.7c0.69,0.1,1.34-0.38,1.44-1.08l0,0l1.08-7.54C115.1,77.05,114.62,76.41,113.92,76.31
				C113.92,76.31,113.92,76.31,113.92,76.31z M71.84,121.29h10.16v2.54H71.84V121.29z M71.84,126.37h10.16v1.27
				c0,1.4-1.14,2.54-2.54,2.54h-5.08c-1.4,0-2.54-1.14-2.54-2.54L71.84,126.37z M61.73,104.48c0.69,0.57,1.42,1.09,2.17,1.58
				c1.2,0.76,2.1,1.9,2.56,3.25l-2.72,2.72l-2.64-1.82c-1.15-0.8-2.74-0.5-3.53,0.65c-0.19,0.28-0.32,0.59-0.39,0.92l-0.67,3.17
				h-3.02l-0.67-3.17c-0.29-1.37-1.64-2.25-3.01-1.96c-0.33,0.07-0.64,0.2-0.92,0.39l-2.64,1.81l-2.31-2.31l1.82-2.64
				c0.8-1.15,0.51-2.74-0.65-3.53c-0.28-0.19-0.59-0.33-0.92-0.39l-3.17-0.67v-3.02l3.17-0.67c1.37-0.29,2.25-1.64,1.96-3.01
				c-0.07-0.33-0.2-0.64-0.39-0.91l-1.82-2.64l2.31-2.31l2.64,1.82c1.16,0.79,2.74,0.5,3.53-0.66c0.19-0.28,0.32-0.59,0.39-0.91
				l0.22-1.06c0.2,1.46,0.54,2.9,1.01,4.31c-4.18,0.5-7.17,4.29-6.67,8.47c0.5,4.18,4.29,7.17,8.47,6.67
				C58.37,108.27,60.57,106.73,61.73,104.48z M59.76,102.69c-0.95,2.64-3.85,4-6.49,3.05s-4-3.85-3.05-6.49
				c0.73-2.02,2.64-3.36,4.78-3.35h0.05C56.21,98.42,57.81,100.71,59.76,102.69z M111.58,83.67l-3.68-0.53
				c-2.08-0.3-4.01,1.15-4.31,3.23c-0.14,1,0.12,2.02,0.72,2.82l2.23,2.97l-4.06,3.05l-2.23-2.97c-1.26-1.68-3.65-2.02-5.33-0.76
				c-0.81,0.61-1.34,1.51-1.49,2.51l-0.51,3.69l-5.03-0.72l0.53-3.68c0.3-2.08-1.15-4.01-3.23-4.31c-1-0.14-2.02,0.12-2.82,0.72
				l-2.97,2.23l-3.05-4.06l2.97-2.23c1.68-1.26,2.02-3.65,0.76-5.33c-0.61-0.81-1.51-1.34-2.51-1.49l-3.68-0.53l0.72-5.03l3.68,0.53
				c2.08,0.3,4.01-1.15,4.31-3.23c0.14-1-0.12-2.02-0.72-2.82l-2.23-2.98l4.06-3.05l2.23,2.97c1.26,1.68,3.65,2.02,5.33,0.76
				c0.81-0.61,1.34-1.51,1.49-2.51l0.53-3.68l5.03,0.72l-0.53,3.68c-0.3,2.08,1.15,4.01,3.23,4.31c1,0.14,2.01-0.12,2.82-0.72
				L106.8,65l3.05,4.06l-2.98,2.23c-1.68,1.26-2.02,3.65-0.76,5.33c0.61,0.81,1.51,1.34,2.51,1.49l3.68,0.53L111.58,83.67z"/>
		</g>
	</g>
	<g id="Group_10" transform="translate(60.057 16.324)">
		<g id="Group_9">
			<path id="Path_66" class="st1" d="M33.03,52.41c-5.61,0-10.16,4.55-10.16,10.16s4.55,10.16,10.16,10.16
				c5.61,0,10.16-4.55,10.16-10.16C43.19,56.95,38.64,52.41,33.03,52.41C33.03,52.41,33.03,52.41,33.03,52.41z M33.03,70.18
				c-4.21,0-7.62-3.41-7.62-7.62s3.41-7.62,7.62-7.62c4.21,0,7.62,3.41,7.62,7.62v0C40.65,66.77,37.24,70.18,33.03,70.18z"/>
		</g>
	</g>
	<g id="Group_12" transform="translate(50.215 75.928)">
		<g id="Group_11">
			<rect id="Rectangle_19" x="25.43" y="36.91" class="st1" width="2.54" height="3.81"/>
		</g>
	</g>
	<g id="Group_14" transform="translate(27.893 19.567)">
		<g id="Group_13">
			<path id="Path_67" class="st1" d="M43.47,80.8c-7.84-3.06-11.71-11.9-8.65-19.74c1.19-3.04,3.32-5.61,6.08-7.35l-1.36-2.15
				c-8.31,5.23-10.8,16.21-5.56,24.52c2.03,3.22,5.03,5.7,8.57,7.08c3.13,1.2,5.2,4.21,5.21,7.57h2.54
				C50.3,86.32,47.58,82.37,43.47,80.8z"/>
		</g>
	</g>
	<g id="Group_16" transform="translate(84.533 63.917)">
		<g id="Group_15">
			<rect id="Rectangle_20" x="16.5" y="40.03" class="st1" width="8.89" height="2.54"/>
		</g>
	</g>
	<g id="Group_18" transform="translate(81.719 72.893)">
		<g id="Group_17" transform="translate(0 0)">
			
				<rect id="Rectangle_21" x="20.59" y="36.89" transform="matrix(0.6402 -0.7682 0.7682 0.6402 -24.2806 31.8469)" class="st1" width="2.54" height="9.91"/>
		</g>
	</g>
	<g id="Group_20" transform="translate(74.238 77.644)">
		<g id="Group_19">
			<rect id="Rectangle_22" x="19.18" y="36.46" class="st1" width="2.54" height="8.89"/>
		</g>
	</g>
	<g id="Group_22" transform="translate(1.752 26.217)">
		<g id="Group_21" transform="translate(0 0)">
			
				<rect id="Rectangle_23" x="38.18" y="51.06" transform="matrix(0.9701 -0.2425 0.2425 0.9701 -11.3955 12.0922)" class="st1" width="10.47" height="2.54"/>
		</g>
	</g>
	<g id="Group_24" transform="translate(4.603 9.329)">
		<g id="Group_23" transform="translate(0 0)">
			
				<rect id="Rectangle_24" x="41.2" y="52.97" transform="matrix(0.581 -0.8139 0.8139 0.581 -29.7598 59.0561)" class="st1" width="2.54" height="10.92"/>
		</g>
	</g>
	<g id="Group_26" transform="translate(19.305 0)">
		<g id="Group_25" transform="translate(0)">
			
				<rect id="Rectangle_25" x="34.73" y="56.8" transform="matrix(0.9688 -0.2479 0.2479 0.9688 -14.2594 10.8629)" class="st1" width="2.54" height="10.49"/>
		</g>
	</g>
</g>
<g class="st2">
	<path class="st1" d="M57.06,155.29c0.54,0.24,0.95,0.58,1.24,1.03s0.43,0.98,0.43,1.6c0,0.61-0.14,1.14-0.43,1.59
		c-0.29,0.45-0.7,0.8-1.24,1.04s-1.17,0.36-1.9,0.36h-1.9v2.42H51.7v-8.4h3.46C55.88,154.93,56.52,155.05,57.06,155.29z
		 M56.63,159.15c0.35-0.29,0.53-0.7,0.53-1.24s-0.18-0.95-0.53-1.24c-0.35-0.29-0.87-0.43-1.55-0.43h-1.82v3.34h1.82
		C55.76,159.58,56.28,159.44,56.63,159.15z"/>
	<path class="st1" d="M63.8,156.85v1.43c-0.13-0.02-0.24-0.04-0.35-0.04c-0.58,0-1.04,0.17-1.37,0.51
		c-0.33,0.34-0.49,0.83-0.49,1.47v3.11h-1.5v-6.41h1.43v0.94C61.95,157.18,62.71,156.85,63.8,156.85z"/>
	<path class="st1" d="M66.13,162.99c-0.52-0.28-0.93-0.67-1.22-1.17s-0.44-1.07-0.44-1.7s0.15-1.2,0.44-1.69
		c0.29-0.5,0.7-0.88,1.22-1.16c0.52-0.28,1.1-0.42,1.75-0.42c0.66,0,1.24,0.14,1.76,0.42c0.52,0.28,0.93,0.67,1.22,1.16
		c0.29,0.5,0.44,1.06,0.44,1.69s-0.15,1.2-0.44,1.7s-0.7,0.89-1.22,1.17c-0.52,0.28-1.11,0.42-1.76,0.42
		C67.24,163.41,66.66,163.27,66.13,162.99z M69.26,161.58c0.36-0.37,0.54-0.85,0.54-1.45c0-0.6-0.18-1.08-0.54-1.45
		c-0.36-0.37-0.82-0.55-1.37-0.55c-0.55,0-1.01,0.18-1.36,0.55c-0.36,0.37-0.53,0.85-0.53,1.45c0,0.6,0.18,1.08,0.53,1.45
		c0.36,0.37,0.81,0.55,1.36,0.55C68.44,162.13,68.9,161.94,69.26,161.58z"/>
	<path class="st1" d="M70.65,165.37l0.43-1.12c0.22,0.17,0.52,0.25,0.88,0.25c0.28,0,0.49-0.09,0.64-0.26
		c0.15-0.17,0.22-0.43,0.22-0.76v-6.56h1.5v6.53c0,0.71-0.2,1.27-0.59,1.68c-0.39,0.41-0.94,0.61-1.64,0.61
		C71.46,165.74,70.97,165.62,70.65,165.37z M72.88,155.61c-0.18-0.17-0.28-0.39-0.28-0.64c0-0.26,0.09-0.47,0.28-0.64
		c0.18-0.17,0.41-0.26,0.68-0.26c0.27,0,0.5,0.08,0.68,0.25c0.18,0.16,0.28,0.37,0.28,0.62c0,0.26-0.09,0.49-0.27,0.67
		c-0.18,0.18-0.41,0.27-0.69,0.27C73.29,155.86,73.06,155.78,72.88,155.61z"/>
	<path class="st1" d="M82.29,160.6h-5.03c0.09,0.47,0.32,0.85,0.69,1.12c0.37,0.28,0.83,0.41,1.39,0.41c0.7,0,1.28-0.23,1.74-0.7
		l0.8,0.92c-0.29,0.34-0.65,0.6-1.09,0.78c-0.44,0.18-0.94,0.26-1.49,0.26c-0.7,0-1.32-0.14-1.86-0.42
		c-0.54-0.28-0.95-0.67-1.24-1.17s-0.44-1.07-0.44-1.7c0-0.62,0.14-1.19,0.43-1.69c0.28-0.5,0.68-0.89,1.18-1.17
		c0.5-0.28,1.07-0.42,1.7-0.42c0.62,0,1.18,0.14,1.67,0.41c0.49,0.28,0.88,0.66,1.15,1.16c0.28,0.5,0.41,1.08,0.41,1.73
		C82.31,160.26,82.3,160.41,82.29,160.6z M77.85,158.47c-0.33,0.28-0.53,0.66-0.61,1.13h3.64c-0.06-0.46-0.26-0.84-0.59-1.13
		s-0.74-0.43-1.22-0.43C78.59,158.05,78.18,158.19,77.85,158.47z"/>
	<path class="st1" d="M84.9,162.99c-0.53-0.28-0.94-0.67-1.24-1.17s-0.44-1.07-0.44-1.7s0.15-1.2,0.44-1.69
		c0.3-0.5,0.71-0.88,1.23-1.16c0.52-0.28,1.12-0.42,1.79-0.42c0.63,0,1.19,0.13,1.66,0.38c0.48,0.26,0.83,0.62,1.07,1.1l-1.15,0.67
		c-0.18-0.3-0.41-0.52-0.69-0.67c-0.28-0.15-0.58-0.22-0.91-0.22c-0.56,0-1.02,0.18-1.39,0.55c-0.37,0.36-0.55,0.85-0.55,1.46
		c0,0.61,0.18,1.09,0.55,1.46c0.36,0.36,0.83,0.55,1.4,0.55c0.33,0,0.63-0.07,0.91-0.22s0.51-0.37,0.69-0.67l1.15,0.67
		c-0.25,0.48-0.61,0.85-1.09,1.11s-1.03,0.39-1.65,0.39C86.03,163.41,85.43,163.27,84.9,162.99z"/>
	<path class="st1" d="M94.66,162.98c-0.18,0.14-0.39,0.25-0.64,0.32c-0.25,0.07-0.52,0.11-0.8,0.11c-0.7,0-1.25-0.18-1.63-0.55
		s-0.58-0.9-0.58-1.61v-3.08h-1.06v-1.2h1.06v-1.46h1.5v1.46h1.72v1.2h-1.72v3.05c0,0.31,0.08,0.55,0.23,0.71
		c0.15,0.16,0.37,0.25,0.66,0.25c0.34,0,0.62-0.09,0.84-0.26L94.66,162.98z"/>
	<path class="st1" d="M39.8,177.73l-0.01-5.57l-2.76,4.61h-0.7l-2.76-4.54v5.5h-1.49v-8.4h1.28l3.34,5.57l3.28-5.57h1.28l0.01,8.4
		H39.8z"/>
	<path class="st1" d="M48.02,171.93c0.5,0.45,0.75,1.13,0.75,2.05v3.76h-1.42v-0.78c-0.18,0.28-0.45,0.49-0.79,0.64
		c-0.34,0.15-0.75,0.22-1.23,0.22c-0.48,0-0.9-0.08-1.26-0.25s-0.64-0.39-0.83-0.68s-0.29-0.62-0.29-0.99
		c0-0.58,0.21-1.04,0.64-1.39c0.43-0.35,1.1-0.52,2.02-0.52h1.66v-0.1c0-0.45-0.13-0.79-0.4-1.03c-0.27-0.24-0.67-0.36-1.19-0.36
		c-0.36,0-0.71,0.06-1.06,0.17c-0.35,0.11-0.64,0.27-0.88,0.47l-0.59-1.09c0.34-0.26,0.74-0.45,1.21-0.59
		c0.47-0.14,0.97-0.2,1.5-0.2C46.79,171.25,47.52,171.47,48.02,171.93z M46.65,176.46c0.29-0.17,0.5-0.42,0.62-0.74v-0.74h-1.55
		c-0.86,0-1.3,0.28-1.3,0.85c0,0.27,0.11,0.49,0.32,0.65s0.52,0.24,0.9,0.24C46.02,176.72,46.36,176.63,46.65,176.46z"/>
	<path class="st1" d="M56.26,171.96c0.49,0.47,0.73,1.17,0.73,2.1v3.67h-1.5v-3.48c0-0.56-0.13-0.98-0.4-1.27
		c-0.26-0.28-0.64-0.43-1.13-0.43c-0.55,0-0.99,0.17-1.31,0.5c-0.32,0.33-0.48,0.81-0.48,1.43v3.24h-1.5v-6.41h1.43v0.83
		c0.25-0.3,0.56-0.52,0.94-0.67s0.8-0.23,1.27-0.23C55.13,171.25,55.78,171.48,56.26,171.96z"/>
	<path class="st1" d="M63.52,171.93c0.5,0.45,0.75,1.13,0.75,2.05v3.76h-1.42v-0.78c-0.18,0.28-0.45,0.49-0.79,0.64
		c-0.34,0.15-0.75,0.22-1.23,0.22c-0.48,0-0.9-0.08-1.26-0.25c-0.36-0.16-0.64-0.39-0.83-0.68c-0.2-0.29-0.29-0.62-0.29-0.99
		c0-0.58,0.21-1.04,0.64-1.39c0.43-0.35,1.1-0.52,2.02-0.52h1.66v-0.1c0-0.45-0.13-0.79-0.4-1.03c-0.27-0.24-0.67-0.36-1.19-0.36
		c-0.36,0-0.71,0.06-1.06,0.17c-0.35,0.11-0.64,0.27-0.88,0.47l-0.59-1.09c0.34-0.26,0.74-0.45,1.21-0.59
		c0.47-0.14,0.97-0.2,1.5-0.2C62.3,171.25,63.02,171.47,63.52,171.93z M62.15,176.46c0.29-0.17,0.5-0.42,0.62-0.74v-0.74h-1.55
		c-0.86,0-1.3,0.28-1.3,0.85c0,0.27,0.11,0.49,0.32,0.65c0.22,0.16,0.52,0.24,0.9,0.24C61.52,176.72,61.86,176.63,62.15,176.46z"/>
	<path class="st1" d="M72.61,171.32v5.44c0,2.26-1.15,3.38-3.46,3.38c-0.62,0-1.2-0.08-1.75-0.23c-0.55-0.16-1.01-0.38-1.37-0.68
		l0.67-1.13c0.28,0.23,0.63,0.42,1.06,0.56c0.43,0.14,0.86,0.21,1.3,0.21c0.7,0,1.22-0.16,1.55-0.48c0.33-0.32,0.49-0.81,0.49-1.46
		v-0.34c-0.26,0.28-0.57,0.49-0.94,0.64c-0.37,0.14-0.77,0.22-1.21,0.22c-0.61,0-1.16-0.13-1.65-0.39c-0.49-0.26-0.88-0.63-1.16-1.1
		c-0.28-0.47-0.43-1.01-0.43-1.62c0-0.61,0.14-1.15,0.43-1.61c0.28-0.47,0.67-0.83,1.16-1.09c0.49-0.26,1.04-0.38,1.65-0.38
		c0.46,0,0.89,0.08,1.27,0.23s0.7,0.38,0.95,0.7v-0.85H72.61z M70.59,175.66c0.36-0.34,0.55-0.78,0.55-1.33
		c0-0.54-0.18-0.97-0.55-1.31s-0.83-0.5-1.4-0.5c-0.58,0-1.05,0.17-1.41,0.5c-0.36,0.34-0.55,0.77-0.55,1.31
		c0,0.54,0.18,0.99,0.55,1.33c0.36,0.34,0.83,0.51,1.41,0.51C69.76,176.17,70.22,176,70.59,175.66z"/>
	<path class="st1" d="M80.58,175h-5.03c0.09,0.47,0.32,0.85,0.69,1.12c0.37,0.28,0.83,0.41,1.39,0.41c0.7,0,1.28-0.23,1.74-0.7
		l0.8,0.92c-0.29,0.34-0.65,0.6-1.09,0.78c-0.44,0.18-0.94,0.26-1.49,0.26c-0.7,0-1.32-0.14-1.86-0.42s-0.95-0.67-1.24-1.17
		s-0.44-1.07-0.44-1.7c0-0.62,0.14-1.19,0.43-1.69s0.68-0.89,1.18-1.17c0.5-0.28,1.07-0.42,1.7-0.42c0.62,0,1.18,0.14,1.67,0.41
		c0.49,0.28,0.88,0.66,1.15,1.16s0.41,1.08,0.41,1.73C80.6,174.66,80.59,174.81,80.58,175z M76.14,172.87
		c-0.33,0.28-0.53,0.66-0.61,1.13h3.64c-0.06-0.46-0.26-0.84-0.59-1.13c-0.33-0.29-0.74-0.43-1.22-0.43
		C76.88,172.45,76.47,172.59,76.14,172.87z"/>
	<path class="st1" d="M92.05,171.95c0.47,0.47,0.71,1.17,0.71,2.11v3.67h-1.5v-3.48c0-0.56-0.12-0.98-0.37-1.27
		c-0.25-0.28-0.6-0.43-1.07-0.43c-0.5,0-0.91,0.17-1.21,0.5c-0.3,0.33-0.46,0.81-0.46,1.42v3.25h-1.5v-3.48
		c0-0.56-0.12-0.98-0.37-1.27s-0.6-0.43-1.07-0.43c-0.51,0-0.92,0.16-1.22,0.49s-0.45,0.8-0.45,1.43v3.25h-1.5v-6.41h1.43v0.82
		c0.24-0.29,0.54-0.51,0.9-0.66c0.36-0.15,0.76-0.23,1.2-0.23c0.48,0,0.91,0.09,1.28,0.27s0.67,0.45,0.88,0.8
		c0.26-0.34,0.6-0.6,1.02-0.79c0.42-0.19,0.88-0.28,1.38-0.28C90.94,171.25,91.58,171.48,92.05,171.95z"/>
	<path class="st1" d="M100.74,175h-5.03c0.09,0.47,0.32,0.85,0.69,1.12c0.37,0.28,0.83,0.41,1.39,0.41c0.7,0,1.28-0.23,1.74-0.7
		l0.8,0.92c-0.29,0.34-0.65,0.6-1.09,0.78c-0.44,0.18-0.94,0.26-1.49,0.26c-0.7,0-1.32-0.14-1.86-0.42s-0.95-0.67-1.24-1.17
		s-0.44-1.07-0.44-1.7c0-0.62,0.14-1.19,0.43-1.69s0.68-0.89,1.18-1.17c0.5-0.28,1.07-0.42,1.7-0.42c0.62,0,1.18,0.14,1.67,0.41
		c0.49,0.28,0.88,0.66,1.15,1.16s0.41,1.08,0.41,1.73C100.76,174.66,100.75,174.81,100.74,175z M96.3,172.87
		c-0.33,0.28-0.53,0.66-0.61,1.13h3.64c-0.06-0.46-0.26-0.84-0.59-1.13c-0.33-0.29-0.74-0.43-1.22-0.43
		C97.04,172.45,96.63,172.59,96.3,172.87z"/>
	<path class="st1" d="M107.78,171.96c0.49,0.47,0.73,1.17,0.73,2.1v3.67h-1.5v-3.48c0-0.56-0.13-0.98-0.4-1.27
		c-0.26-0.28-0.64-0.43-1.13-0.43c-0.55,0-0.99,0.17-1.31,0.5c-0.32,0.33-0.48,0.81-0.48,1.43v3.24h-1.5v-6.41h1.43v0.83
		c0.25-0.3,0.56-0.52,0.94-0.67s0.8-0.23,1.27-0.23C106.64,171.25,107.29,171.48,107.78,171.96z"/>
	<path class="st1" d="M114.27,177.38c-0.18,0.14-0.39,0.25-0.64,0.32c-0.25,0.07-0.52,0.11-0.8,0.11c-0.7,0-1.25-0.18-1.63-0.55
		c-0.38-0.37-0.58-0.9-0.58-1.61v-3.08h-1.06v-1.2h1.06v-1.46h1.5v1.46h1.72v1.2h-1.72v3.05c0,0.31,0.08,0.55,0.23,0.71
		c0.15,0.16,0.37,0.25,0.66,0.25c0.34,0,0.62-0.09,0.84-0.26L114.27,177.38z"/>
</g>
<g>
	<path class="st0" d="M201.8,106.02h-3.35l-0.69,1.58h-0.93l2.85-6.3h0.89l2.86,6.3h-0.94L201.8,106.02z M201.48,105.3l-1.36-3.09
		l-1.36,3.09H201.48z"/>
	<path class="st0" d="M208.76,102.82v4.12c0,0.83-0.21,1.45-0.62,1.85c-0.41,0.4-1.03,0.6-1.85,0.6c-0.45,0-0.88-0.06-1.29-0.18
		c-0.41-0.12-0.74-0.3-0.99-0.53l0.41-0.67c0.22,0.19,0.5,0.34,0.82,0.45s0.67,0.17,1.01,0.17c0.56,0,0.97-0.13,1.24-0.4
		c0.27-0.26,0.4-0.67,0.4-1.21v-0.38c-0.2,0.25-0.45,0.43-0.75,0.55s-0.62,0.18-0.97,0.18c-0.46,0-0.87-0.1-1.24-0.29
		c-0.37-0.19-0.66-0.47-0.87-0.82c-0.21-0.35-0.32-0.75-0.32-1.2c0-0.45,0.1-0.85,0.32-1.2c0.21-0.35,0.5-0.62,0.87-0.81
		s0.78-0.29,1.24-0.29c0.36,0,0.69,0.07,1,0.2c0.31,0.13,0.56,0.33,0.76,0.58v-0.74H208.76z M207.12,106.44
		c0.25-0.13,0.44-0.32,0.58-0.55c0.14-0.24,0.21-0.51,0.21-0.81c0-0.46-0.15-0.84-0.46-1.12c-0.31-0.29-0.7-0.43-1.18-0.43
		c-0.49,0-0.88,0.14-1.19,0.43c-0.31,0.28-0.46,0.66-0.46,1.12c0,0.3,0.07,0.57,0.21,0.81c0.14,0.24,0.34,0.42,0.58,0.55
		s0.53,0.2,0.85,0.2C206.59,106.64,206.87,106.57,207.12,106.44z"/>
	<path class="st0" d="M210.42,101.74c-0.11-0.11-0.17-0.24-0.17-0.4c0-0.16,0.06-0.29,0.17-0.4c0.11-0.11,0.25-0.17,0.42-0.17
		s0.31,0.05,0.42,0.16c0.11,0.1,0.17,0.24,0.17,0.39c0,0.16-0.06,0.3-0.17,0.41c-0.11,0.11-0.25,0.17-0.42,0.17
		S210.53,101.85,210.42,101.74z M210.41,102.82h0.86v4.77h-0.86V102.82z"/>
	<path class="st0" d="M212.92,100.91h0.86v6.68h-0.86V100.91z"/>
	<path class="st0" d="M219.72,105.49h-3.87c0.05,0.42,0.24,0.76,0.55,1.01c0.31,0.25,0.71,0.38,1.17,0.38
		c0.57,0,1.03-0.19,1.38-0.58l0.48,0.56c-0.22,0.25-0.48,0.44-0.81,0.58c-0.32,0.13-0.68,0.2-1.08,0.2c-0.5,0-0.95-0.1-1.34-0.31
		c-0.39-0.21-0.69-0.5-0.9-0.87s-0.32-0.79-0.32-1.26c0-0.46,0.1-0.88,0.31-1.25c0.21-0.37,0.49-0.66,0.86-0.87
		c0.36-0.21,0.77-0.31,1.23-0.31c0.46,0,0.86,0.1,1.22,0.31c0.36,0.21,0.64,0.5,0.84,0.87c0.2,0.37,0.3,0.8,0.3,1.28
		C219.74,105.3,219.73,105.39,219.72,105.49z M216.34,103.88c-0.28,0.25-0.44,0.58-0.49,0.99h3.06c-0.05-0.4-0.21-0.73-0.49-0.99
		c-0.28-0.25-0.63-0.38-1.04-0.38C216.97,103.51,216.62,103.63,216.34,103.88z"/>
	<path class="st0" d="M171.86,122.29h2.65c0.67,0,1.26,0.13,1.77,0.4c0.52,0.26,0.92,0.63,1.2,1.11c0.29,0.48,0.43,1.02,0.43,1.64
		s-0.14,1.17-0.43,1.64c-0.29,0.48-0.69,0.85-1.2,1.11c-0.52,0.26-1.11,0.4-1.77,0.4h-2.65V122.29z M174.46,127.81
		c0.51,0,0.96-0.1,1.35-0.3c0.39-0.2,0.69-0.48,0.9-0.83c0.21-0.36,0.31-0.77,0.31-1.24c0-0.47-0.1-0.88-0.31-1.24
		c-0.21-0.36-0.51-0.63-0.9-0.83s-0.84-0.3-1.35-0.3h-1.7v4.73H174.46z"/>
	<path class="st0" d="M183.46,126.5h-3.87c0.05,0.42,0.24,0.76,0.55,1.01c0.31,0.25,0.71,0.38,1.17,0.38c0.57,0,1.03-0.19,1.38-0.58
		l0.48,0.56c-0.22,0.25-0.48,0.44-0.81,0.58s-0.68,0.2-1.08,0.2c-0.5,0-0.95-0.1-1.34-0.31c-0.39-0.21-0.69-0.5-0.9-0.87
		s-0.32-0.79-0.32-1.26c0-0.46,0.1-0.88,0.31-1.25s0.49-0.66,0.86-0.87c0.36-0.21,0.77-0.31,1.23-0.31c0.46,0,0.86,0.1,1.22,0.31
		c0.36,0.21,0.64,0.5,0.84,0.87s0.3,0.8,0.3,1.28C183.47,126.3,183.47,126.39,183.46,126.5z M180.08,124.88
		c-0.28,0.25-0.44,0.58-0.49,0.99h3.06c-0.05-0.4-0.21-0.73-0.49-0.99s-0.63-0.38-1.04-0.38
		C180.7,124.51,180.36,124.63,180.08,124.88z"/>
	<path class="st0" d="M184.91,128.49c-0.36-0.1-0.64-0.24-0.85-0.4l0.36-0.68c0.21,0.15,0.46,0.27,0.76,0.36
		c0.3,0.09,0.6,0.14,0.91,0.14c0.76,0,1.13-0.22,1.13-0.65c0-0.14-0.05-0.26-0.15-0.34c-0.1-0.08-0.23-0.15-0.38-0.18
		s-0.37-0.08-0.65-0.13c-0.38-0.06-0.7-0.13-0.94-0.21c-0.24-0.08-0.45-0.21-0.63-0.4c-0.17-0.19-0.26-0.45-0.26-0.78
		c0-0.43,0.18-0.78,0.54-1.04c0.36-0.26,0.84-0.39,1.45-0.39c0.32,0,0.64,0.04,0.95,0.12c0.32,0.08,0.58,0.18,0.78,0.32l-0.37,0.68
		c-0.39-0.25-0.85-0.38-1.38-0.38c-0.37,0-0.64,0.06-0.84,0.18c-0.19,0.12-0.29,0.28-0.29,0.48c0,0.16,0.05,0.28,0.16,0.37
		c0.11,0.09,0.24,0.16,0.4,0.2c0.16,0.04,0.38,0.09,0.67,0.14c0.38,0.07,0.69,0.14,0.93,0.21c0.24,0.08,0.44,0.2,0.61,0.38
		c0.17,0.18,0.25,0.43,0.25,0.76c0,0.43-0.18,0.78-0.55,1.03s-0.87,0.38-1.51,0.38C185.65,128.65,185.27,128.59,184.91,128.49z"/>
	<path class="st0" d="M189.19,122.74c-0.11-0.11-0.17-0.24-0.17-0.4c0-0.16,0.06-0.29,0.17-0.4c0.11-0.11,0.25-0.17,0.42-0.17
		s0.31,0.05,0.42,0.16c0.11,0.11,0.17,0.24,0.17,0.39c0,0.16-0.06,0.3-0.17,0.41c-0.11,0.11-0.25,0.17-0.42,0.17
		S189.3,122.85,189.19,122.74z M189.18,123.82h0.86v4.77h-0.86V123.82z"/>
	<path class="st0" d="M196.25,123.82v4.12c0,0.83-0.21,1.45-0.62,1.85c-0.41,0.4-1.03,0.6-1.85,0.6c-0.45,0-0.88-0.06-1.29-0.18
		c-0.41-0.12-0.74-0.3-0.99-0.53l0.41-0.67c0.22,0.19,0.5,0.34,0.82,0.46c0.33,0.11,0.67,0.17,1.01,0.17c0.56,0,0.97-0.13,1.24-0.4
		c0.27-0.26,0.4-0.67,0.4-1.21v-0.38c-0.2,0.25-0.45,0.43-0.75,0.55s-0.62,0.18-0.97,0.18c-0.46,0-0.87-0.1-1.24-0.29
		c-0.37-0.2-0.66-0.47-0.87-0.82c-0.21-0.35-0.32-0.75-0.32-1.2s0.1-0.85,0.32-1.2c0.21-0.35,0.5-0.62,0.87-0.81
		c0.37-0.19,0.78-0.29,1.24-0.29c0.36,0,0.69,0.07,1,0.2c0.31,0.13,0.56,0.33,0.76,0.58v-0.74H196.25z M194.61,127.44
		c0.25-0.13,0.44-0.32,0.58-0.55c0.14-0.24,0.21-0.51,0.21-0.81c0-0.46-0.15-0.84-0.46-1.12c-0.31-0.29-0.7-0.43-1.18-0.43
		c-0.49,0-0.88,0.14-1.19,0.43c-0.31,0.28-0.46,0.66-0.46,1.12c0,0.3,0.07,0.57,0.21,0.81c0.14,0.24,0.34,0.42,0.58,0.55
		s0.53,0.2,0.85,0.2C194.08,127.64,194.36,127.57,194.61,127.44z"/>
	<path class="st0" d="M201.89,124.3c0.36,0.35,0.54,0.87,0.54,1.54v2.75h-0.86v-2.65c0-0.46-0.11-0.81-0.33-1.04
		c-0.22-0.23-0.54-0.35-0.95-0.35c-0.47,0-0.84,0.14-1.11,0.41c-0.27,0.27-0.41,0.66-0.41,1.17v2.46h-0.86v-4.77h0.83v0.72
		c0.17-0.25,0.41-0.43,0.71-0.57c0.3-0.13,0.63-0.2,1.01-0.2C201.05,123.78,201.54,123.95,201.89,124.3z"/>
	<path class="st0" d="M207.83,123.08h-2.16v-0.78h5.21v0.78h-2.16v5.52h-0.89V123.08z"/>
	<path class="st0" d="M215.73,124.3c0.36,0.35,0.54,0.87,0.54,1.54v2.75h-0.86v-2.65c0-0.46-0.11-0.81-0.33-1.04
		c-0.22-0.23-0.54-0.35-0.95-0.35c-0.47,0-0.84,0.14-1.11,0.41c-0.27,0.27-0.41,0.66-0.41,1.17v2.46h-0.86v-6.68h0.86v2.58
		c0.18-0.23,0.42-0.41,0.71-0.53s0.62-0.19,0.98-0.19C214.89,123.78,215.37,123.95,215.73,124.3z"/>
	<path class="st0" d="M217.88,122.74c-0.11-0.11-0.17-0.24-0.17-0.4c0-0.16,0.06-0.29,0.17-0.4c0.11-0.11,0.25-0.17,0.42-0.17
		s0.31,0.05,0.42,0.16c0.11,0.11,0.17,0.24,0.17,0.39c0,0.16-0.06,0.3-0.17,0.41c-0.11,0.11-0.25,0.17-0.42,0.17
		S217.99,122.85,217.88,122.74z M217.86,123.82h0.86v4.77h-0.86V123.82z"/>
	<path class="st0" d="M224.37,124.3c0.36,0.35,0.54,0.87,0.54,1.54v2.75h-0.86v-2.65c0-0.46-0.11-0.81-0.33-1.04
		c-0.22-0.23-0.54-0.35-0.95-0.35c-0.47,0-0.84,0.14-1.11,0.41c-0.27,0.27-0.41,0.66-0.41,1.17v2.46h-0.86v-4.77h0.83v0.72
		c0.17-0.25,0.41-0.43,0.71-0.57c0.3-0.13,0.63-0.2,1.01-0.2C223.53,123.78,224.01,123.95,224.37,124.3z"/>
	<path class="st0" d="M228.36,126.37l-0.99,0.92v1.3h-0.86v-6.68h0.86v4.28l2.6-2.38h1.04l-2.01,1.97l2.21,2.8h-1.06L228.36,126.37z
		"/>
	<path class="st0" d="M232,122.74c-0.11-0.11-0.17-0.24-0.17-0.4c0-0.16,0.06-0.29,0.17-0.4c0.11-0.11,0.25-0.17,0.42-0.17
		s0.31,0.05,0.42,0.16c0.11,0.11,0.17,0.24,0.17,0.39c0,0.16-0.06,0.3-0.17,0.41c-0.11,0.11-0.25,0.17-0.42,0.17
		S232.11,122.85,232,122.74z M231.98,123.82h0.86v4.77h-0.86V123.82z"/>
	<path class="st0" d="M238.49,124.3c0.36,0.35,0.54,0.87,0.54,1.54v2.75h-0.86v-2.65c0-0.46-0.11-0.81-0.33-1.04
		c-0.22-0.23-0.54-0.35-0.95-0.35c-0.47,0-0.84,0.14-1.11,0.41c-0.27,0.27-0.41,0.66-0.41,1.17v2.46h-0.86v-4.77h0.83v0.72
		c0.17-0.25,0.41-0.43,0.71-0.57c0.3-0.13,0.63-0.2,1.01-0.2C237.65,123.78,238.13,123.95,238.49,124.3z"/>
	<path class="st0" d="M245.21,123.82v4.12c0,0.83-0.21,1.45-0.62,1.85c-0.41,0.4-1.03,0.6-1.85,0.6c-0.45,0-0.88-0.06-1.29-0.18
		c-0.41-0.12-0.74-0.3-0.99-0.53l0.41-0.67c0.22,0.19,0.5,0.34,0.82,0.46c0.33,0.11,0.67,0.17,1.01,0.17c0.56,0,0.97-0.13,1.24-0.4
		c0.27-0.26,0.4-0.67,0.4-1.21v-0.38c-0.2,0.25-0.45,0.43-0.75,0.55s-0.62,0.18-0.97,0.18c-0.46,0-0.87-0.1-1.24-0.29
		c-0.37-0.2-0.66-0.47-0.87-0.82c-0.21-0.35-0.32-0.75-0.32-1.2s0.1-0.85,0.32-1.2c0.21-0.35,0.5-0.62,0.87-0.81
		c0.37-0.19,0.78-0.29,1.24-0.29c0.36,0,0.69,0.07,1,0.2c0.31,0.13,0.56,0.33,0.76,0.58v-0.74H245.21z M243.57,127.44
		c0.25-0.13,0.44-0.32,0.58-0.55c0.14-0.24,0.21-0.51,0.21-0.81c0-0.46-0.15-0.84-0.46-1.12c-0.31-0.29-0.7-0.43-1.18-0.43
		c-0.49,0-0.88,0.14-1.19,0.43c-0.31,0.28-0.46,0.66-0.46,1.12c0,0.3,0.07,0.57,0.21,0.81c0.14,0.24,0.34,0.42,0.58,0.55
		s0.53,0.2,0.85,0.2C243.04,127.64,243.32,127.57,243.57,127.44z"/>
</g>
</svg>
