<?xml version="1.0" encoding="utf-8"?>
<!-- Generator: Adobe Illustrator 24.1.0, SVG Export Plug-In . SVG Version: 6.00 Build 0)  -->
<svg version="1.1" id="Layer_1" xmlns="http://www.w3.org/2000/svg" xmlns:xlink="http://www.w3.org/1999/xlink" x="0px" y="0px"
	 viewBox="0 0 294.35 221.88" style="enable-background:new 0 0 294.35 221.88;" xml:space="preserve">
<style type="text/css">
	.st0{fill:#F0A160;}
	.st1{fill:#FFFFFF;}
	.st2{enable-background:new    ;}
</style>
<path id="Rectangle_117" class="st0" d="M26.61,15.72h246c7.18,0,13,5.82,13,13v169c0,7.18-5.82,13-13,13h-246
	c-7.18,0-13-5.82-13-13v-169C13.61,21.54,19.43,15.72,26.61,15.72z"/>
<g id="experience" transform="translate(5.221 28.107)">
	<path id="Path_5" class="st1" d="M97.39,62.44c1.39-2.74,2.51-5.61,3.35-8.57c2.46-8.88,1.27-16.32-3.35-20.94
		s-12.06-5.81-20.94-3.35c-2.96,0.84-5.83,1.96-8.57,3.35c-3.35-1.71-6.89-3-10.56-3.84c-7.98-1.75-14.7-0.38-18.93,3.85
		c-2.83,2.99-4.46,6.92-4.56,11.04c-0.14,4.61,0.67,9.2,2.37,13.49c-2.75,2.16-3.22,6.14-1.06,8.88c0.31,0.39,0.67,0.75,1.06,1.06
		c-1.71,4.29-2.51,8.88-2.37,13.49c0.1,4.12,1.73,8.05,4.56,11.04c3.03,3.03,7.29,4.6,12.43,4.6c1.07,0,2.14-0.07,3.2-0.19
		c4.84-0.65,9.54-2.14,13.87-4.4c2.74,1.39,5.61,2.51,8.57,3.35c2.77,0.8,5.63,1.22,8.51,1.25c5.1,0,9.38-1.56,12.43-4.6
		c4.23-4.23,5.6-10.96,3.85-18.93C100.4,69.34,99.11,65.79,97.39,62.44z M76.99,31.51c8.15-2.26,14.9-1.25,18.99,2.84
		s5.1,10.83,2.84,18.99c-0.67,2.37-1.53,4.68-2.58,6.91c-2.03-3.61-4.4-7.03-7.08-10.19c1.79-2.29,1.8-5.5,0.02-7.79l-1.58,1.23
		c0.59,0.76,0.91,1.7,0.91,2.66c0,2.39-1.94,4.33-4.34,4.33c-2.39,0-4.33-1.94-4.33-4.34c0-2.39,1.94-4.33,4.34-4.33
		c0.78,0,1.54,0.21,2.21,0.61l1.02-1.72c-2.25-1.33-5.08-1.15-7.14,0.46c-3.17-2.68-6.58-5.04-10.19-7.08
		C72.3,33.04,74.61,32.18,76.99,31.51z M39.8,34.35c5.41-5.41,15.33-5.21,25.89-0.26c-5.44,3.08-10.42,6.9-14.82,11.34
		c-3.35,3.33-6.35,6.99-8.96,10.93c-0.58-0.17-1.18-0.25-1.78-0.25c-0.74,0-1.47,0.13-2.16,0.38C34.51,47.02,35.16,39,39.8,34.35z
		 M50.87,94.52c-4.53,0-8.38-1.32-11.06-4c-4.65-4.65-5.3-12.67-1.83-22.12c1.27,0.46,2.65,0.5,3.94,0.12
		c2.61,3.94,5.61,7.6,8.96,10.93c4.4,4.44,9.38,8.25,14.82,11.33C61.08,93.08,56.02,94.36,50.87,94.52z M67.88,89.69
		c-5.75-3.09-11-7.02-15.59-11.66c-3.19-3.17-6.05-6.65-8.55-10.39c1.71-1.18,2.73-3.13,2.73-5.21c0-0.19-0.01-0.38-0.02-0.56
		l-1.99,0.18c0.01,0.13,0.02,0.26,0.02,0.39c0,2.39-1.95,4.33-4.34,4.33s-4.33-1.95-4.33-4.34c0-2.39,1.95-4.33,4.34-4.33
		c1.64,0,3.14,0.93,3.87,2.4l1.79-0.9c-0.48-0.95-1.18-1.77-2.06-2.38c2.5-3.73,5.36-7.21,8.55-10.37
		c4.59-4.65,9.85-8.58,15.6-11.66c3.92,2.09,7.62,4.59,11.01,7.46c-1.95,2.91-1.17,6.84,1.74,8.79c2.13,1.43,4.91,1.43,7.05,0
		c2.87,3.4,5.37,7.09,7.46,11.01c-3.09,5.75-7.02,11.01-11.67,15.59c-0.53,0.53-1.08,1.06-1.63,1.58c-2.28-1.93-5.61-2-7.98-0.17
		l1.23,1.58c0.76-0.59,1.7-0.91,2.66-0.91c2.39,0,4.33,1.94,4.33,4.34c0,2.39-1.94,4.33-4.34,4.33c-2.39,0-4.33-1.94-4.33-4.34
		c0-0.78,0.21-1.54,0.61-2.21l-1.72-1.02c-1.09,1.84-1.18,4.11-0.23,6.03C70.68,88.14,69.28,88.96,67.88,89.69z M95.97,90.52
		c-4.09,4.09-10.83,5.1-18.99,2.84c-2.37-0.67-4.68-1.53-6.91-2.58c1.05-0.59,2.11-1.22,3.16-1.9c2.44,2.51,6.45,2.56,8.96,0.12
		c2.13-2.07,2.53-5.35,0.96-7.87c0.59-0.55,1.17-1.12,1.74-1.68c4.44-4.4,8.25-9.38,11.34-14.82
		C101.18,75.18,101.39,85.11,95.97,90.52z"/>
	<path id="Path_6" class="st1" d="M84.3,72.78h-2.07v-5.04c-0.01-2.24-1.49-4.2-3.65-4.82l-0.75-0.21l-0.54,1.93l0.75,0.21
		c1.29,0.37,2.18,1.55,2.19,2.89v5.04h-3.6v-2.74h-2v2.74h-9.01v2H84.3L84.3,72.78z"/>
	<path id="Path_7" class="st1" d="M71.2,62.91l4.17,1.18l0.54-1.93l-4.09-1.15v-2.66c1.92-1.3,3.07-3.47,3.07-5.79v-2.94
		c0-3.87-3.13-7.01-7-7.01c-3.87,0-7.01,3.13-7.01,7c0,0,0,0.01,0,0.01v2.94c0,2.32,1.15,4.49,3.07,5.79v2.66l-6.76,1.91
		c-2.15,0.61-3.64,2.58-3.65,4.82v5.04h-2.07v2h12.14v-2h-2.47v-2.74h-2v2.74h-3.6v-5.04c0-1.34,0.9-2.52,2.19-2.89l6.85-1.93
		c1.67,1.83,4.51,1.95,6.34,0.28C71.02,63.1,71.11,63.01,71.2,62.91L71.2,62.91z M67.89,44.62c2.76,0.01,4.99,2.24,5,5v1.11
		l-2.1-2.78h-7.62C63.88,45.95,65.77,44.62,67.89,44.62L67.89,44.62z M62.89,52.56v-2.6h6.91l2.93,3.88
		c-0.69,2.67-3.41,4.28-6.09,3.6C64.42,56.86,62.88,54.85,62.89,52.56L62.89,52.56z M65.96,61.44v-2.15c1.26,0.37,2.61,0.37,3.87,0
		v2.15c-0.86,1.07-2.43,1.23-3.5,0.37C66.19,61.7,66.07,61.58,65.96,61.44z"/>
	<path id="Path_8" class="st1" d="M73.18,67.63l-2.82-0.8l0.54-1.93l2.82,0.8L73.18,67.63z"/>
	<path id="Path_9" class="st1" d="M77.57,66.79l-0.54,1.93l-1.93-0.54l0.54-1.93L77.57,66.79z"/>
	<path id="Path_10" class="st1" d="M83.17,45.15h2v2h-2V45.15z"/>
	<path id="Path_11" class="st1" d="M76.76,83.45h2v2h-2V83.45z"/>
	<path id="Path_12" class="st1" d="M39.13,61.43h2v2h-2V61.43z"/>
</g>
<g class="st2">
	<path class="st1" d="M37.9,154.93h1.56v8.4H37.9V154.93z"/>
	<path class="st1" d="M47.16,157.55c0.49,0.47,0.73,1.17,0.73,2.1v3.67h-1.5v-3.48c0-0.56-0.13-0.98-0.4-1.27
		c-0.26-0.28-0.64-0.43-1.13-0.43c-0.55,0-0.99,0.17-1.31,0.5s-0.48,0.81-0.48,1.43v3.24h-1.5v-6.41h1.43v0.83
		c0.25-0.3,0.56-0.52,0.94-0.67c0.38-0.15,0.8-0.23,1.27-0.23C46.03,156.85,46.68,157.08,47.16,157.55z"/>
	<path class="st1" d="M53.66,162.98c-0.18,0.14-0.39,0.25-0.64,0.32c-0.25,0.07-0.52,0.11-0.8,0.11c-0.7,0-1.25-0.18-1.63-0.55
		c-0.38-0.37-0.58-0.9-0.58-1.61v-3.08h-1.06v-1.2h1.06v-1.46h1.5v1.46h1.72v1.2h-1.72v3.05c0,0.31,0.08,0.55,0.23,0.71
		c0.15,0.16,0.37,0.25,0.66,0.25c0.34,0,0.62-0.09,0.84-0.26L53.66,162.98z"/>
	<path class="st1" d="M60.68,160.6h-5.03c0.09,0.47,0.32,0.85,0.69,1.12c0.37,0.28,0.83,0.41,1.39,0.41c0.7,0,1.28-0.23,1.74-0.7
		l0.8,0.92c-0.29,0.34-0.65,0.6-1.09,0.78s-0.94,0.26-1.49,0.26c-0.7,0-1.32-0.14-1.86-0.42c-0.54-0.28-0.95-0.67-1.24-1.17
		s-0.44-1.07-0.44-1.7c0-0.62,0.14-1.19,0.43-1.69c0.28-0.5,0.68-0.89,1.18-1.17c0.5-0.28,1.07-0.42,1.7-0.42
		c0.62,0,1.18,0.14,1.67,0.41c0.49,0.28,0.88,0.66,1.15,1.16c0.28,0.5,0.41,1.08,0.41,1.73C60.7,160.26,60.69,160.41,60.68,160.6z
		 M56.24,158.47c-0.33,0.28-0.53,0.66-0.61,1.13h3.64c-0.06-0.46-0.26-0.84-0.59-1.13c-0.33-0.29-0.74-0.43-1.22-0.43
		C56.98,158.05,56.57,158.19,56.24,158.47z"/>
	<path class="st1" d="M65.85,156.85v1.43c-0.13-0.02-0.24-0.04-0.35-0.04c-0.58,0-1.04,0.17-1.37,0.51
		c-0.33,0.34-0.49,0.83-0.49,1.47v3.11h-1.5v-6.41h1.43v0.94C64,157.18,64.76,156.85,65.85,156.85z"/>
	<path class="st1" d="M71.7,157.53c0.5,0.45,0.75,1.13,0.75,2.05v3.76h-1.42v-0.78c-0.18,0.28-0.45,0.49-0.79,0.64
		c-0.34,0.15-0.75,0.22-1.23,0.22s-0.9-0.08-1.26-0.25c-0.36-0.16-0.64-0.39-0.83-0.68c-0.2-0.29-0.29-0.62-0.29-0.99
		c0-0.58,0.21-1.04,0.64-1.39c0.43-0.35,1.1-0.52,2.02-0.52h1.66v-0.1c0-0.45-0.13-0.79-0.4-1.03s-0.67-0.36-1.19-0.36
		c-0.36,0-0.71,0.06-1.06,0.17c-0.35,0.11-0.64,0.27-0.88,0.47l-0.59-1.09c0.34-0.26,0.74-0.45,1.21-0.59
		c0.47-0.14,0.97-0.2,1.5-0.2C70.48,156.85,71.2,157.07,71.7,157.53z M70.33,162.06c0.29-0.17,0.5-0.42,0.62-0.74v-0.74H69.4
		c-0.86,0-1.3,0.28-1.3,0.85c0,0.27,0.11,0.49,0.32,0.65c0.22,0.16,0.52,0.24,0.9,0.24C69.7,162.32,70.04,162.23,70.33,162.06z"/>
	<path class="st1" d="M75.58,162.99c-0.53-0.28-0.94-0.67-1.24-1.17s-0.44-1.07-0.44-1.7s0.15-1.2,0.44-1.69
		c0.3-0.5,0.71-0.88,1.23-1.16c0.52-0.28,1.12-0.42,1.79-0.42c0.63,0,1.19,0.13,1.66,0.38s0.83,0.62,1.07,1.1l-1.15,0.67
		c-0.18-0.3-0.41-0.52-0.69-0.67c-0.28-0.15-0.58-0.22-0.91-0.22c-0.56,0-1.02,0.18-1.39,0.55c-0.37,0.36-0.55,0.85-0.55,1.46
		c0,0.61,0.18,1.09,0.55,1.46c0.36,0.36,0.83,0.55,1.4,0.55c0.33,0,0.63-0.07,0.91-0.22c0.28-0.15,0.51-0.37,0.69-0.67l1.15,0.67
		c-0.25,0.48-0.61,0.85-1.09,1.11c-0.48,0.26-1.03,0.39-1.65,0.39C76.7,163.41,76.11,163.27,75.58,162.99z"/>
	<path class="st1" d="M85.34,162.98c-0.18,0.14-0.39,0.25-0.64,0.32c-0.25,0.07-0.52,0.11-0.8,0.11c-0.7,0-1.25-0.18-1.63-0.55
		c-0.38-0.37-0.58-0.9-0.58-1.61v-3.08h-1.06v-1.2h1.06v-1.46h1.5v1.46h1.72v1.2h-1.72v3.05c0,0.31,0.08,0.55,0.23,0.71
		c0.15,0.16,0.37,0.25,0.66,0.25c0.34,0,0.62-0.09,0.84-0.26L85.34,162.98z"/>
	<path class="st1" d="M86.64,155.61c-0.18-0.17-0.28-0.39-0.28-0.64c0-0.26,0.09-0.47,0.28-0.64c0.18-0.17,0.41-0.26,0.68-0.26
		c0.27,0,0.5,0.08,0.68,0.25s0.28,0.37,0.28,0.62c0,0.26-0.09,0.49-0.27,0.67c-0.18,0.18-0.41,0.27-0.69,0.27
		C87.05,155.86,86.83,155.78,86.64,155.61z M86.57,156.92h1.5v6.41h-1.5V156.92z"/>
	<path class="st1" d="M91.17,162.99c-0.52-0.28-0.93-0.67-1.22-1.17s-0.44-1.07-0.44-1.7s0.15-1.2,0.44-1.69
		c0.29-0.5,0.7-0.88,1.22-1.16c0.52-0.28,1.1-0.42,1.75-0.42c0.66,0,1.24,0.14,1.76,0.42c0.52,0.28,0.93,0.67,1.22,1.16
		c0.29,0.5,0.44,1.06,0.44,1.69s-0.15,1.2-0.44,1.7c-0.29,0.5-0.7,0.89-1.22,1.17s-1.11,0.42-1.76,0.42
		C92.27,163.41,91.69,163.27,91.17,162.99z M94.29,161.58c0.36-0.37,0.54-0.85,0.54-1.45c0-0.6-0.18-1.08-0.54-1.45
		c-0.36-0.37-0.82-0.55-1.37-0.55c-0.55,0-1.01,0.18-1.36,0.55c-0.36,0.37-0.53,0.85-0.53,1.45c0,0.6,0.18,1.08,0.53,1.45
		s0.81,0.55,1.36,0.55C93.47,162.13,93.93,161.94,94.29,161.58z"/>
	<path class="st1" d="M103.36,157.55c0.49,0.47,0.73,1.17,0.73,2.1v3.67h-1.5v-3.48c0-0.56-0.13-0.98-0.4-1.27
		c-0.26-0.28-0.64-0.43-1.13-0.43c-0.55,0-0.99,0.17-1.31,0.5s-0.48,0.81-0.48,1.43v3.24h-1.5v-6.41h1.43v0.83
		c0.25-0.3,0.56-0.52,0.94-0.67c0.38-0.15,0.8-0.23,1.27-0.23C102.22,156.85,102.87,157.08,103.36,157.55z"/>
</g>
<g class="st2">
	<path class="st1" d="M53.06,170.93h3.67c0.9,0,1.69,0.17,2.39,0.52s1.24,0.84,1.62,1.48c0.38,0.64,0.58,1.37,0.58,2.2
		s-0.19,1.57-0.58,2.2c-0.38,0.64-0.92,1.13-1.62,1.48c-0.7,0.35-1.49,0.52-2.39,0.52h-3.67V170.93z M56.66,178.01
		c0.62,0,1.16-0.12,1.63-0.35s0.83-0.57,1.08-1.01c0.25-0.44,0.38-0.94,0.38-1.52s-0.13-1.08-0.38-1.52
		c-0.25-0.44-0.61-0.77-1.08-1.01c-0.47-0.24-1.01-0.35-1.63-0.35h-2.04v5.76H56.66z"/>
	<path class="st1" d="M68.83,176.6H63.8c0.09,0.47,0.32,0.85,0.69,1.12c0.37,0.28,0.83,0.41,1.39,0.41c0.7,0,1.28-0.23,1.74-0.7
		l0.8,0.92c-0.29,0.34-0.65,0.6-1.09,0.78s-0.94,0.26-1.49,0.26c-0.7,0-1.32-0.14-1.86-0.42c-0.54-0.28-0.95-0.67-1.24-1.17
		s-0.44-1.07-0.44-1.7c0-0.62,0.14-1.19,0.43-1.69c0.28-0.5,0.68-0.89,1.18-1.17c0.5-0.28,1.07-0.42,1.7-0.42
		c0.62,0,1.18,0.14,1.67,0.41c0.49,0.28,0.88,0.66,1.15,1.16c0.28,0.5,0.41,1.08,0.41,1.73C68.85,176.26,68.84,176.41,68.83,176.6z
		 M64.39,174.47c-0.33,0.28-0.53,0.66-0.61,1.13h3.64c-0.06-0.46-0.26-0.84-0.59-1.13c-0.33-0.29-0.74-0.43-1.22-0.43
		C65.13,174.05,64.72,174.19,64.39,174.47z"/>
	<path class="st1" d="M70.75,179.21c-0.5-0.14-0.89-0.31-1.19-0.52l0.58-1.14c0.29,0.19,0.63,0.35,1.04,0.46
		c0.4,0.12,0.8,0.17,1.19,0.17c0.9,0,1.34-0.24,1.34-0.71c0-0.22-0.11-0.38-0.34-0.47c-0.23-0.09-0.59-0.17-1.1-0.25
		c-0.53-0.08-0.96-0.17-1.29-0.28c-0.33-0.1-0.62-0.29-0.86-0.55c-0.24-0.26-0.37-0.62-0.37-1.09c0-0.61,0.25-1.09,0.76-1.46
		c0.51-0.36,1.19-0.55,2.06-0.55c0.44,0,0.88,0.05,1.32,0.15c0.44,0.1,0.8,0.23,1.08,0.4l-0.58,1.14c-0.54-0.32-1.16-0.48-1.84-0.48
		c-0.44,0-0.77,0.07-1,0.2s-0.34,0.31-0.34,0.52c0,0.24,0.12,0.41,0.37,0.51c0.24,0.1,0.62,0.19,1.13,0.28
		c0.51,0.08,0.93,0.17,1.26,0.28c0.33,0.1,0.61,0.28,0.85,0.53c0.24,0.25,0.35,0.6,0.35,1.06c0,0.6-0.26,1.08-0.78,1.44
		s-1.23,0.54-2.12,0.54C71.75,179.41,71.24,179.34,70.75,179.21z"/>
	<path class="st1" d="M76.54,171.61c-0.18-0.17-0.28-0.39-0.28-0.64c0-0.26,0.09-0.47,0.28-0.64c0.18-0.17,0.41-0.26,0.68-0.26
		c0.27,0,0.5,0.08,0.68,0.25s0.28,0.37,0.28,0.62c0,0.26-0.09,0.49-0.27,0.67c-0.18,0.18-0.41,0.27-0.69,0.27
		C76.95,171.86,76.73,171.78,76.54,171.61z M76.47,172.92h1.5v6.41h-1.5V172.92z"/>
	<path class="st1" d="M86.3,172.92v5.44c0,2.26-1.15,3.38-3.46,3.38c-0.62,0-1.2-0.08-1.75-0.23c-0.55-0.16-1.01-0.38-1.37-0.68
		l0.67-1.13c0.28,0.23,0.63,0.42,1.06,0.56c0.43,0.14,0.86,0.21,1.3,0.21c0.7,0,1.22-0.16,1.55-0.48c0.33-0.32,0.49-0.81,0.49-1.46
		v-0.34c-0.26,0.28-0.57,0.49-0.94,0.64c-0.37,0.14-0.77,0.22-1.21,0.22c-0.61,0-1.16-0.13-1.65-0.39c-0.49-0.26-0.88-0.63-1.16-1.1
		c-0.28-0.47-0.43-1.01-0.43-1.62c0-0.61,0.14-1.15,0.43-1.61c0.28-0.47,0.67-0.83,1.16-1.09c0.49-0.26,1.04-0.38,1.65-0.38
		c0.46,0,0.89,0.08,1.27,0.23s0.7,0.38,0.95,0.7v-0.85H86.3z M84.28,177.26c0.36-0.34,0.55-0.78,0.55-1.33
		c0-0.54-0.18-0.97-0.55-1.31c-0.36-0.34-0.83-0.5-1.4-0.5c-0.58,0-1.05,0.17-1.41,0.5c-0.36,0.34-0.55,0.77-0.55,1.31
		c0,0.54,0.18,0.99,0.55,1.33c0.36,0.34,0.83,0.51,1.41,0.51C83.45,177.77,83.91,177.6,84.28,177.26z"/>
	<path class="st1" d="M93.85,173.55c0.49,0.47,0.73,1.17,0.73,2.1v3.67h-1.5v-3.48c0-0.56-0.13-0.98-0.4-1.27
		c-0.26-0.28-0.64-0.43-1.13-0.43c-0.55,0-0.99,0.17-1.31,0.5s-0.48,0.81-0.48,1.43v3.24h-1.5v-6.41h1.43v0.83
		c0.25-0.3,0.56-0.52,0.94-0.67c0.38-0.15,0.8-0.23,1.27-0.23C92.71,172.85,93.36,173.08,93.85,173.55z"/>
</g>
<path id="Rectangle_118" class="st1" d="M153.98,31.65h109c3.87,0,7,3.13,7,7v154c0,3.87-3.13,7-7,7h-109c-3.87,0-7-3.13-7-7v-154
	C146.98,34.79,150.11,31.65,153.98,31.65z"/>
<g class="st2">
	<path class="st0" d="M178.31,94.98c-0.44-0.15-0.79-0.34-1.04-0.57l0.33-0.7c0.24,0.22,0.55,0.39,0.92,0.53s0.76,0.2,1.16,0.2
		c0.52,0,0.91-0.09,1.17-0.27c0.26-0.18,0.39-0.41,0.39-0.71c0-0.22-0.07-0.39-0.21-0.53c-0.14-0.13-0.31-0.24-0.52-0.31
		s-0.5-0.15-0.88-0.24c-0.47-0.11-0.86-0.23-1.15-0.34s-0.54-0.29-0.75-0.53s-0.31-0.56-0.31-0.96c0-0.34,0.09-0.64,0.27-0.91
		c0.18-0.27,0.45-0.49,0.81-0.65s0.81-0.24,1.34-0.24c0.37,0,0.74,0.05,1.1,0.14c0.36,0.1,0.67,0.23,0.93,0.41l-0.3,0.72
		c-0.26-0.17-0.55-0.3-0.85-0.38s-0.59-0.13-0.88-0.13c-0.51,0-0.89,0.09-1.15,0.28c-0.25,0.19-0.38,0.43-0.38,0.72
		c0,0.22,0.07,0.39,0.22,0.53c0.14,0.13,0.32,0.24,0.54,0.31s0.5,0.15,0.87,0.24c0.47,0.11,0.86,0.23,1.14,0.34
		c0.29,0.11,0.54,0.29,0.74,0.52s0.31,0.55,0.31,0.95c0,0.33-0.09,0.63-0.27,0.9c-0.18,0.27-0.45,0.49-0.82,0.65
		c-0.37,0.16-0.82,0.24-1.35,0.24C179.21,95.2,178.75,95.13,178.31,94.98z"/>
	<path class="st0" d="M183.33,89.28c-0.11-0.11-0.17-0.24-0.17-0.4s0.05-0.29,0.17-0.4s0.25-0.17,0.42-0.17s0.31,0.05,0.42,0.16
		c0.11,0.1,0.17,0.24,0.17,0.39c0,0.16-0.06,0.3-0.17,0.41c-0.11,0.11-0.25,0.17-0.42,0.17S183.44,89.38,183.33,89.28z
		 M183.31,90.36h0.86v4.77h-0.86V90.36z"/>
	<path class="st0" d="M188.51,94.85c-0.13,0.11-0.28,0.19-0.47,0.25c-0.19,0.06-0.38,0.08-0.58,0.08c-0.48,0-0.85-0.13-1.12-0.39
		s-0.4-0.63-0.4-1.11v-2.62h-0.81v-0.71h0.81v-1.04h0.86v1.04h1.37v0.71h-1.37v2.58c0,0.26,0.06,0.46,0.19,0.59s0.31,0.21,0.55,0.21
		c0.26,0,0.49-0.08,0.67-0.23L188.51,94.85z"/>
	<path class="st0" d="M193.68,93.03h-3.87c0.05,0.42,0.24,0.76,0.55,1.01c0.31,0.26,0.71,0.38,1.17,0.38c0.57,0,1.03-0.19,1.38-0.58
		l0.48,0.56c-0.22,0.25-0.48,0.44-0.81,0.58c-0.32,0.13-0.68,0.2-1.08,0.2c-0.5,0-0.95-0.1-1.34-0.31c-0.39-0.21-0.69-0.5-0.91-0.87
		c-0.21-0.37-0.32-0.79-0.32-1.26c0-0.46,0.1-0.88,0.31-1.25s0.49-0.66,0.86-0.87c0.36-0.21,0.77-0.31,1.23-0.31s0.86,0.1,1.22,0.31
		c0.36,0.21,0.64,0.5,0.84,0.87c0.2,0.37,0.3,0.8,0.3,1.28C193.7,92.83,193.69,92.92,193.68,93.03z M190.3,91.42
		c-0.28,0.25-0.44,0.58-0.49,0.99h3.06c-0.05-0.4-0.21-0.73-0.49-0.99c-0.28-0.25-0.62-0.38-1.04-0.38S190.58,91.17,190.3,91.42z"/>
	<path class="st0" d="M194.68,92.28h2.42v0.75h-2.42V92.28z"/>
	<path class="st0" d="M205.83,90.83c0.35,0.35,0.53,0.86,0.53,1.55v2.75h-0.86v-2.65c0-0.46-0.11-0.81-0.32-1.04
		c-0.21-0.23-0.52-0.35-0.91-0.35c-0.44,0-0.79,0.14-1.04,0.41c-0.26,0.27-0.39,0.67-0.39,1.17v2.46h-0.86v-2.65
		c0-0.46-0.11-0.81-0.32-1.04c-0.21-0.23-0.52-0.35-0.91-0.35c-0.44,0-0.79,0.14-1.04,0.41c-0.26,0.27-0.39,0.67-0.39,1.17v2.46
		h-0.86v-4.77h0.83v0.71c0.17-0.25,0.4-0.43,0.68-0.56s0.6-0.19,0.96-0.19c0.37,0,0.7,0.08,0.99,0.23c0.29,0.15,0.51,0.37,0.67,0.66
		c0.18-0.28,0.43-0.49,0.75-0.65c0.32-0.16,0.68-0.23,1.08-0.23C205,90.31,205.47,90.49,205.83,90.83z"/>
	<path class="st0" d="M211.2,90.8c0.35,0.32,0.53,0.81,0.53,1.45v2.88h-0.82V94.5c-0.14,0.22-0.35,0.39-0.62,0.51
		c-0.27,0.12-0.58,0.17-0.95,0.17c-0.53,0-0.96-0.13-1.28-0.39s-0.48-0.6-0.48-1.02s0.15-0.76,0.46-1.01s0.79-0.38,1.46-0.38h1.37
		v-0.17c0-0.37-0.11-0.66-0.32-0.86c-0.22-0.2-0.53-0.3-0.95-0.3c-0.28,0-0.56,0.05-0.83,0.14c-0.27,0.09-0.5,0.22-0.68,0.37
		l-0.36-0.65c0.25-0.2,0.54-0.35,0.88-0.45c0.34-0.11,0.71-0.16,1.09-0.16C210.34,90.31,210.85,90.47,211.2,90.8z M210.34,94.29
		c0.24-0.15,0.41-0.36,0.52-0.63V93h-1.33c-0.73,0-1.1,0.25-1.1,0.74c0,0.24,0.09,0.43,0.28,0.57c0.19,0.14,0.44,0.21,0.77,0.21
		S210.1,94.44,210.34,94.29z"/>
	<path class="st0" d="M217.1,90.62c0.37,0.2,0.65,0.49,0.86,0.85c0.21,0.37,0.31,0.79,0.31,1.27c0,0.48-0.1,0.9-0.31,1.27
		s-0.49,0.66-0.86,0.86c-0.37,0.2-0.78,0.31-1.24,0.31c-0.34,0-0.66-0.07-0.94-0.2c-0.29-0.13-0.53-0.32-0.72-0.58v2.47h-0.86v-6.52
		h0.83v0.76c0.19-0.26,0.43-0.46,0.73-0.6s0.62-0.2,0.97-0.2C216.32,90.31,216.73,90.41,217.1,90.62z M216.61,94.21
		c0.24-0.14,0.44-0.34,0.58-0.59c0.14-0.25,0.21-0.55,0.21-0.88s-0.07-0.62-0.21-0.88s-0.33-0.45-0.58-0.59
		c-0.24-0.14-0.52-0.21-0.82-0.21c-0.3,0-0.57,0.07-0.81,0.21c-0.24,0.14-0.44,0.34-0.58,0.59s-0.21,0.54-0.21,0.87
		s0.07,0.62,0.21,0.88c0.14,0.26,0.33,0.45,0.58,0.59c0.25,0.14,0.52,0.21,0.82,0.21C216.09,94.42,216.36,94.35,216.61,94.21z"/>
	<path class="st0" d="M223.23,90.62c0.37,0.2,0.65,0.49,0.86,0.85c0.21,0.37,0.31,0.79,0.31,1.27c0,0.48-0.1,0.9-0.31,1.27
		s-0.49,0.66-0.86,0.86c-0.37,0.2-0.78,0.31-1.24,0.31c-0.34,0-0.66-0.07-0.94-0.2c-0.29-0.13-0.53-0.32-0.72-0.58v2.47h-0.86v-6.52
		h0.83v0.76c0.19-0.26,0.43-0.46,0.73-0.6s0.62-0.2,0.97-0.2C222.46,90.31,222.87,90.41,223.23,90.62z M222.74,94.21
		c0.24-0.14,0.44-0.34,0.58-0.59c0.14-0.25,0.21-0.55,0.21-0.88s-0.07-0.62-0.21-0.88s-0.33-0.45-0.58-0.59
		c-0.24-0.14-0.52-0.21-0.82-0.21c-0.3,0-0.57,0.07-0.81,0.21c-0.24,0.14-0.44,0.34-0.58,0.59s-0.21,0.54-0.21,0.87
		s0.07,0.62,0.21,0.88c0.14,0.26,0.33,0.45,0.58,0.59c0.25,0.14,0.52,0.21,0.82,0.21C222.23,94.42,222.5,94.35,222.74,94.21z"/>
	<path class="st0" d="M225.62,89.28c-0.11-0.11-0.17-0.24-0.17-0.4s0.06-0.29,0.17-0.4c0.11-0.11,0.25-0.17,0.42-0.17
		s0.31,0.05,0.42,0.16c0.11,0.1,0.17,0.24,0.17,0.39c0,0.16-0.06,0.3-0.17,0.41c-0.11,0.11-0.25,0.17-0.42,0.17
		S225.73,89.38,225.62,89.28z M225.6,90.36h0.86v4.77h-0.86V90.36z"/>
	<path class="st0" d="M232.1,90.84c0.36,0.35,0.54,0.87,0.54,1.54v2.75h-0.86v-2.65c0-0.46-0.11-0.81-0.33-1.04
		c-0.22-0.23-0.54-0.35-0.95-0.35c-0.47,0-0.84,0.14-1.11,0.41c-0.27,0.27-0.4,0.67-0.4,1.17v2.46h-0.86v-4.77h0.83v0.72
		c0.17-0.25,0.41-0.44,0.71-0.57s0.63-0.2,1.01-0.2C231.27,90.31,231.75,90.49,232.1,90.84z"/>
	<path class="st0" d="M238.83,90.36v4.12c0,0.83-0.21,1.45-0.62,1.85c-0.41,0.4-1.03,0.6-1.85,0.6c-0.45,0-0.88-0.06-1.29-0.18
		c-0.41-0.12-0.74-0.3-0.99-0.53l0.41-0.67c0.22,0.19,0.5,0.34,0.82,0.46c0.33,0.11,0.66,0.17,1.01,0.17c0.56,0,0.97-0.13,1.24-0.4
		c0.27-0.26,0.4-0.67,0.4-1.21v-0.38c-0.2,0.25-0.45,0.43-0.75,0.55s-0.62,0.18-0.97,0.18c-0.46,0-0.87-0.1-1.24-0.29
		c-0.37-0.2-0.66-0.47-0.87-0.82s-0.31-0.75-0.31-1.2s0.1-0.85,0.31-1.2c0.21-0.35,0.5-0.62,0.87-0.81
		c0.37-0.19,0.78-0.29,1.24-0.29c0.36,0,0.69,0.07,1,0.2c0.31,0.13,0.56,0.33,0.76,0.58v-0.74H238.83z M237.19,93.97
		c0.25-0.13,0.44-0.32,0.58-0.55c0.14-0.24,0.21-0.51,0.21-0.81c0-0.46-0.15-0.84-0.46-1.12c-0.31-0.28-0.7-0.43-1.18-0.43
		c-0.49,0-0.88,0.14-1.19,0.43c-0.31,0.29-0.46,0.66-0.46,1.12c0,0.3,0.07,0.57,0.21,0.81c0.14,0.24,0.34,0.42,0.58,0.55
		c0.25,0.13,0.53,0.2,0.85,0.2C236.66,94.17,236.94,94.11,237.19,93.97z"/>
</g>
<g class="st2">
	<path class="st0" d="M188.54,103.83l-2.11,6.3h-0.95l-1.72-5.03l-1.72,5.03h-0.96l-2.11-6.3h0.93l1.7,5.12l1.77-5.12h0.83
		l1.74,5.15l1.74-5.15H188.54z"/>
	<path class="st0" d="M189.53,104.28c-0.11-0.11-0.17-0.24-0.17-0.4s0.06-0.29,0.17-0.4c0.11-0.11,0.25-0.17,0.42-0.17
		s0.31,0.05,0.42,0.16c0.11,0.1,0.17,0.24,0.17,0.39c0,0.16-0.06,0.3-0.17,0.41c-0.11,0.11-0.25,0.17-0.42,0.17
		S189.64,104.38,189.53,104.28z M189.52,105.36h0.86v4.77h-0.86V105.36z"/>
	<path class="st0" d="M193.52,105.53c0.29-0.14,0.65-0.22,1.07-0.22v0.84c-0.05-0.01-0.11-0.01-0.2-0.01c-0.47,0-0.84,0.14-1.1,0.42
		c-0.27,0.28-0.4,0.68-0.4,1.19v2.38h-0.86v-4.77h0.83v0.8C193.01,105.88,193.23,105.67,193.52,105.53z"/>
	<path class="st0" d="M199.9,108.03h-3.87c0.05,0.42,0.24,0.76,0.55,1.01c0.31,0.26,0.71,0.38,1.17,0.38c0.57,0,1.03-0.19,1.38-0.58
		l0.48,0.56c-0.22,0.25-0.48,0.44-0.81,0.58c-0.32,0.13-0.68,0.2-1.08,0.2c-0.5,0-0.95-0.1-1.34-0.31c-0.39-0.21-0.69-0.5-0.91-0.87
		c-0.21-0.37-0.32-0.79-0.32-1.26c0-0.46,0.1-0.88,0.31-1.25s0.49-0.66,0.86-0.87c0.36-0.21,0.77-0.31,1.23-0.31s0.86,0.1,1.22,0.31
		c0.36,0.21,0.64,0.5,0.84,0.87c0.2,0.37,0.3,0.8,0.3,1.28C199.92,107.83,199.92,107.92,199.9,108.03z M196.52,106.42
		c-0.28,0.25-0.44,0.58-0.49,0.99h3.06c-0.05-0.4-0.21-0.73-0.49-0.99c-0.28-0.25-0.62-0.38-1.04-0.38S196.8,106.17,196.52,106.42z"
		/>
	<path class="st0" d="M202.09,104.94v0.41h1.39v0.71h-1.37v4.06h-0.86v-4.06h-0.81v-0.71h0.81v-0.42c0-0.47,0.14-0.85,0.41-1.12
		c0.28-0.28,0.66-0.41,1.16-0.41c0.19,0,0.37,0.02,0.54,0.07s0.31,0.12,0.43,0.21l-0.26,0.66c-0.2-0.15-0.42-0.23-0.67-0.23
		C202.35,104.1,202.09,104.38,202.09,104.94z"/>
	<path class="st0" d="M206.51,105.53c0.29-0.14,0.65-0.22,1.07-0.22v0.84c-0.05-0.01-0.11-0.01-0.2-0.01c-0.47,0-0.84,0.14-1.1,0.42
		c-0.27,0.28-0.4,0.68-0.4,1.19v2.38h-0.86v-4.77h0.83v0.8C205.99,105.88,206.22,105.67,206.51,105.53z"/>
	<path class="st0" d="M211.89,105.8c0.35,0.32,0.53,0.81,0.53,1.45v2.88h-0.82v-0.63c-0.14,0.22-0.35,0.39-0.62,0.51
		c-0.27,0.12-0.58,0.17-0.95,0.17c-0.53,0-0.96-0.13-1.28-0.39s-0.48-0.6-0.48-1.02s0.15-0.76,0.46-1.01s0.79-0.38,1.46-0.38h1.37
		v-0.17c0-0.37-0.11-0.66-0.32-0.86c-0.22-0.2-0.53-0.3-0.95-0.3c-0.28,0-0.56,0.05-0.83,0.14c-0.27,0.09-0.5,0.22-0.68,0.37
		l-0.36-0.65c0.25-0.2,0.54-0.35,0.88-0.45c0.34-0.11,0.71-0.16,1.09-0.16C211.03,105.31,211.54,105.47,211.89,105.8z
		 M211.03,109.29c0.24-0.15,0.41-0.36,0.52-0.63V108h-1.33c-0.73,0-1.1,0.25-1.1,0.74c0,0.24,0.09,0.43,0.28,0.57
		c0.19,0.14,0.44,0.21,0.77,0.21S210.79,109.44,211.03,109.29z"/>
	<path class="st0" d="M221.41,105.83c0.35,0.35,0.53,0.86,0.53,1.55v2.75h-0.86v-2.65c0-0.46-0.11-0.81-0.32-1.04
		c-0.21-0.23-0.52-0.35-0.91-0.35c-0.44,0-0.79,0.14-1.04,0.41c-0.26,0.27-0.39,0.67-0.39,1.17v2.46h-0.86v-2.65
		c0-0.46-0.11-0.81-0.32-1.04c-0.21-0.23-0.52-0.35-0.91-0.35c-0.44,0-0.79,0.14-1.04,0.41c-0.26,0.27-0.39,0.67-0.39,1.17v2.46
		h-0.86v-4.77h0.83v0.71c0.17-0.25,0.4-0.43,0.68-0.56s0.6-0.19,0.96-0.19c0.37,0,0.7,0.08,0.99,0.23c0.29,0.15,0.51,0.37,0.67,0.66
		c0.18-0.28,0.43-0.49,0.75-0.65c0.32-0.16,0.68-0.23,1.08-0.23C220.58,105.31,221.06,105.49,221.41,105.83z"/>
	<path class="st0" d="M223.54,104.28c-0.11-0.11-0.17-0.24-0.17-0.4s0.06-0.29,0.17-0.4c0.11-0.11,0.25-0.17,0.42-0.17
		s0.31,0.05,0.42,0.16c0.11,0.1,0.17,0.24,0.17,0.39c0,0.16-0.06,0.3-0.17,0.41c-0.11,0.11-0.25,0.17-0.42,0.17
		S223.65,104.38,223.54,104.28z M223.53,105.36h0.86v4.77h-0.86V105.36z"/>
	<path class="st0" d="M230.03,105.84c0.36,0.35,0.54,0.87,0.54,1.54v2.75h-0.86v-2.65c0-0.46-0.11-0.81-0.33-1.04
		c-0.22-0.23-0.54-0.35-0.95-0.35c-0.47,0-0.84,0.14-1.11,0.41c-0.27,0.27-0.4,0.67-0.4,1.17v2.46h-0.86v-4.77h0.83v0.72
		c0.17-0.25,0.41-0.44,0.71-0.57s0.63-0.2,1.01-0.2C229.19,105.31,229.67,105.49,230.03,105.84z"/>
	<path class="st0" d="M236.76,105.36v4.12c0,0.83-0.21,1.45-0.62,1.85c-0.41,0.4-1.03,0.6-1.85,0.6c-0.45,0-0.88-0.06-1.29-0.18
		c-0.41-0.12-0.74-0.3-0.99-0.53l0.41-0.67c0.22,0.19,0.5,0.34,0.82,0.46c0.33,0.11,0.66,0.17,1.01,0.17c0.56,0,0.97-0.13,1.24-0.4
		c0.27-0.26,0.4-0.67,0.4-1.21v-0.38c-0.2,0.25-0.45,0.43-0.75,0.55s-0.62,0.18-0.97,0.18c-0.46,0-0.87-0.1-1.24-0.29
		c-0.37-0.2-0.66-0.47-0.87-0.82s-0.31-0.75-0.31-1.2s0.1-0.85,0.31-1.2c0.21-0.35,0.5-0.62,0.87-0.81
		c0.37-0.19,0.78-0.29,1.24-0.29c0.36,0,0.69,0.07,1,0.2c0.31,0.13,0.56,0.33,0.76,0.58v-0.74H236.76z M235.11,108.97
		c0.25-0.13,0.44-0.32,0.58-0.55c0.14-0.24,0.21-0.51,0.21-0.81c0-0.46-0.15-0.84-0.46-1.12c-0.31-0.28-0.7-0.43-1.18-0.43
		c-0.49,0-0.88,0.14-1.19,0.43c-0.31,0.29-0.46,0.66-0.46,1.12c0,0.3,0.07,0.57,0.21,0.81c0.14,0.24,0.34,0.42,0.58,0.55
		c0.25,0.13,0.53,0.2,0.85,0.2C234.59,109.17,234.87,109.11,235.11,108.97z"/>
</g>
<g class="st2">
	<path class="st0" d="M185.69,124.48c-0.47-0.48-0.7-1.17-0.7-2.07v-3.58h0.9v3.55c0,1.35,0.59,2.03,1.77,2.03
		c0.58,0,1.02-0.17,1.32-0.5c0.31-0.33,0.46-0.84,0.46-1.53v-3.55h0.87v3.58c0,0.91-0.23,1.6-0.7,2.07
		c-0.47,0.48-1.12,0.72-1.96,0.72C186.81,125.2,186.16,124.96,185.69,124.48z"/>
	<path class="st0" d="M192.28,125.02c-0.36-0.1-0.64-0.24-0.85-0.4l0.36-0.68c0.21,0.15,0.46,0.27,0.76,0.36s0.6,0.13,0.91,0.13
		c0.76,0,1.13-0.22,1.13-0.65c0-0.14-0.05-0.26-0.15-0.34c-0.1-0.08-0.23-0.15-0.38-0.18c-0.15-0.04-0.37-0.08-0.65-0.13
		c-0.38-0.06-0.7-0.13-0.94-0.21c-0.24-0.08-0.45-0.21-0.62-0.4c-0.17-0.19-0.26-0.45-0.26-0.78c0-0.43,0.18-0.78,0.54-1.04
		c0.36-0.26,0.84-0.39,1.45-0.39c0.32,0,0.64,0.04,0.95,0.12c0.32,0.08,0.58,0.18,0.78,0.32l-0.37,0.68
		c-0.39-0.25-0.85-0.38-1.38-0.38c-0.37,0-0.64,0.06-0.84,0.18c-0.19,0.12-0.29,0.28-0.29,0.48c0,0.16,0.05,0.28,0.16,0.37
		s0.24,0.16,0.4,0.2s0.38,0.09,0.67,0.14c0.38,0.07,0.69,0.14,0.93,0.21c0.24,0.07,0.44,0.2,0.61,0.38
		c0.17,0.18,0.25,0.43,0.25,0.76c0,0.43-0.18,0.78-0.55,1.03s-0.87,0.38-1.51,0.38C193.01,125.18,192.64,125.13,192.28,125.02z"/>
	<path class="st0" d="M200.83,123.03h-3.87c0.05,0.42,0.24,0.76,0.55,1.01c0.32,0.26,0.71,0.38,1.17,0.38
		c0.57,0,1.03-0.19,1.38-0.58l0.48,0.56c-0.22,0.25-0.49,0.44-0.81,0.58c-0.32,0.13-0.68,0.2-1.08,0.2c-0.5,0-0.95-0.1-1.34-0.31
		c-0.39-0.21-0.69-0.5-0.9-0.87s-0.32-0.79-0.32-1.26c0-0.46,0.1-0.88,0.31-1.25s0.49-0.66,0.85-0.87s0.77-0.31,1.23-0.31
		s0.86,0.1,1.22,0.31s0.64,0.5,0.84,0.87s0.3,0.8,0.3,1.28C200.85,122.83,200.85,122.92,200.83,123.03z M197.46,121.42
		c-0.28,0.25-0.44,0.58-0.49,0.99h3.06c-0.05-0.4-0.21-0.73-0.49-0.99c-0.28-0.25-0.63-0.38-1.04-0.38S197.73,121.17,197.46,121.42z
		"/>
	<path class="st0" d="M203.54,120.53c0.29-0.14,0.65-0.22,1.07-0.22v0.84c-0.05-0.01-0.11-0.01-0.2-0.01c-0.47,0-0.83,0.14-1.1,0.42
		c-0.27,0.28-0.4,0.68-0.4,1.19v2.38h-0.86v-4.77h0.83v0.8C203.03,120.88,203.25,120.67,203.54,120.53z"/>
	<path class="st0" d="M205.35,122.28h2.42v0.75h-2.42V122.28z"/>
	<path class="st0" d="M210.17,119.94v0.41h1.39v0.71h-1.37v4.06h-0.86v-4.06h-0.81v-0.71h0.81v-0.42c0-0.47,0.14-0.85,0.41-1.12
		c0.28-0.28,0.66-0.41,1.16-0.41c0.19,0,0.37,0.02,0.54,0.07s0.31,0.12,0.43,0.21l-0.26,0.66c-0.2-0.15-0.42-0.23-0.67-0.23
		C210.43,119.11,210.17,119.38,210.17,119.94z M212.37,118.45h0.86v6.68h-0.86V118.45z"/>
	<path class="st0" d="M215.65,124.87c-0.38-0.21-0.67-0.5-0.89-0.87c-0.21-0.37-0.32-0.79-0.32-1.25s0.11-0.89,0.32-1.26
		s0.51-0.66,0.89-0.86s0.8-0.31,1.28-0.31c0.47,0,0.9,0.1,1.27,0.31c0.37,0.21,0.67,0.5,0.88,0.86s0.32,0.79,0.32,1.26
		s-0.11,0.89-0.32,1.25c-0.21,0.37-0.51,0.66-0.88,0.87c-0.38,0.21-0.8,0.31-1.27,0.31C216.45,125.18,216.03,125.08,215.65,124.87z
		 M217.75,124.21c0.24-0.14,0.43-0.34,0.57-0.59c0.14-0.25,0.21-0.55,0.21-0.88s-0.07-0.62-0.21-0.88s-0.33-0.45-0.57-0.59
		c-0.24-0.14-0.52-0.21-0.82-0.21c-0.31,0-0.58,0.07-0.82,0.21c-0.24,0.14-0.43,0.33-0.58,0.59c-0.14,0.25-0.21,0.55-0.21,0.88
		s0.07,0.62,0.21,0.88c0.14,0.26,0.33,0.45,0.58,0.59c0.24,0.14,0.52,0.21,0.82,0.21C217.23,124.42,217.51,124.35,217.75,124.21z"/>
	<path class="st0" d="M227.68,120.36l-1.78,4.77h-0.83l-1.38-3.62l-1.39,3.62h-0.83l-1.77-4.77h0.82l1.39,3.8l1.44-3.8h0.73
		l1.41,3.82l1.42-3.82H227.68z"/>
	<path class="st0" d="M228.73,125.02c-0.36-0.1-0.64-0.24-0.85-0.4l0.36-0.68c0.21,0.15,0.46,0.27,0.76,0.36s0.6,0.13,0.91,0.13
		c0.76,0,1.13-0.22,1.13-0.65c0-0.14-0.05-0.26-0.15-0.34c-0.1-0.08-0.23-0.15-0.38-0.18c-0.15-0.04-0.37-0.08-0.65-0.13
		c-0.38-0.06-0.7-0.13-0.94-0.21c-0.24-0.08-0.45-0.21-0.62-0.4c-0.17-0.19-0.26-0.45-0.26-0.78c0-0.43,0.18-0.78,0.54-1.04
		c0.36-0.26,0.84-0.39,1.45-0.39c0.32,0,0.64,0.04,0.95,0.12c0.32,0.08,0.58,0.18,0.78,0.32l-0.37,0.68
		c-0.39-0.25-0.85-0.38-1.38-0.38c-0.37,0-0.64,0.06-0.84,0.18c-0.19,0.12-0.29,0.28-0.29,0.48c0,0.16,0.05,0.28,0.16,0.37
		s0.24,0.16,0.4,0.2s0.38,0.09,0.67,0.14c0.38,0.07,0.69,0.14,0.93,0.21c0.24,0.07,0.44,0.2,0.61,0.38
		c0.17,0.18,0.25,0.43,0.25,0.76c0,0.43-0.18,0.78-0.55,1.03s-0.87,0.38-1.51,0.38C229.47,125.18,229.09,125.13,228.73,125.02z"/>
</g>
<g class="st2">
	<path class="st0" d="M186.18,134.41c0.47,0.39,0.7,0.93,0.7,1.61c0,0.68-0.23,1.22-0.7,1.61c-0.47,0.39-1.11,0.58-1.93,0.58h-1.56
		v1.91h-0.9v-6.3h2.46C185.07,133.83,185.72,134.02,186.18,134.41z M185.54,137.07c0.3-0.24,0.45-0.59,0.45-1.05
		c0-0.46-0.15-0.81-0.45-1.05c-0.3-0.24-0.74-0.36-1.31-0.36h-1.53v2.83h1.53C184.8,137.44,185.23,137.31,185.54,137.07z"/>
	<path class="st0" d="M189.5,135.53c0.29-0.14,0.65-0.22,1.07-0.22v0.84c-0.05-0.01-0.11-0.01-0.2-0.01c-0.47,0-0.84,0.14-1.1,0.42
		c-0.27,0.28-0.4,0.68-0.4,1.19v2.38H188v-4.77h0.83v0.8C188.98,135.88,189.2,135.67,189.5,135.53z"/>
	<path class="st0" d="M192.35,139.87c-0.38-0.21-0.67-0.5-0.89-0.87c-0.21-0.37-0.32-0.79-0.32-1.25s0.11-0.89,0.32-1.26
		c0.21-0.37,0.51-0.66,0.89-0.86s0.8-0.31,1.28-0.31s0.9,0.1,1.27,0.31s0.67,0.5,0.88,0.86s0.32,0.79,0.32,1.26
		s-0.11,0.89-0.32,1.25c-0.21,0.37-0.51,0.66-0.88,0.87s-0.8,0.31-1.27,0.31S192.73,140.08,192.35,139.87z M194.45,139.21
		c0.24-0.14,0.43-0.34,0.57-0.59c0.14-0.25,0.21-0.55,0.21-0.88s-0.07-0.62-0.21-0.88c-0.14-0.25-0.33-0.45-0.57-0.59
		c-0.24-0.14-0.52-0.21-0.82-0.21s-0.58,0.07-0.82,0.21c-0.24,0.14-0.44,0.33-0.58,0.59c-0.14,0.25-0.21,0.55-0.21,0.88
		s0.07,0.62,0.21,0.88c0.14,0.26,0.33,0.45,0.58,0.59c0.24,0.14,0.52,0.21,0.82,0.21S194.21,139.35,194.45,139.21z"/>
	<path class="st0" d="M199.98,139.85c-0.13,0.11-0.28,0.19-0.47,0.25c-0.19,0.06-0.38,0.08-0.58,0.08c-0.48,0-0.85-0.13-1.12-0.39
		c-0.26-0.26-0.4-0.63-0.4-1.11v-2.62h-0.81v-0.71h0.81v-1.04h0.86v1.04h1.37v0.71h-1.37v2.58c0,0.26,0.06,0.46,0.19,0.59
		s0.31,0.21,0.55,0.21c0.26,0,0.49-0.08,0.67-0.23L199.98,139.85z"/>
	<path class="st0" d="M201.63,139.87c-0.38-0.21-0.67-0.5-0.89-0.87c-0.21-0.37-0.32-0.79-0.32-1.25s0.11-0.89,0.32-1.26
		s0.51-0.66,0.89-0.86s0.8-0.31,1.28-0.31c0.47,0,0.9,0.1,1.27,0.31c0.37,0.21,0.67,0.5,0.88,0.86s0.32,0.79,0.32,1.26
		s-0.11,0.89-0.32,1.25c-0.21,0.37-0.51,0.66-0.88,0.87c-0.38,0.21-0.8,0.31-1.27,0.31C202.43,140.18,202.01,140.08,201.63,139.87z
		 M203.73,139.21c0.24-0.14,0.43-0.34,0.57-0.59c0.14-0.25,0.21-0.55,0.21-0.88s-0.07-0.62-0.21-0.88s-0.33-0.45-0.57-0.59
		c-0.24-0.14-0.52-0.21-0.82-0.21c-0.31,0-0.58,0.07-0.82,0.21c-0.24,0.14-0.43,0.33-0.58,0.59c-0.14,0.25-0.21,0.55-0.21,0.88
		s0.07,0.62,0.21,0.88c0.14,0.26,0.33,0.45,0.58,0.59c0.24,0.14,0.52,0.21,0.82,0.21C203.21,139.42,203.49,139.35,203.73,139.21z"/>
	<path class="st0" d="M209.26,139.85c-0.13,0.11-0.28,0.19-0.47,0.25c-0.19,0.06-0.38,0.08-0.58,0.08c-0.48,0-0.85-0.13-1.12-0.39
		s-0.4-0.63-0.4-1.11v-2.62h-0.81v-0.71h0.81v-1.04h0.86v1.04h1.37v0.71h-1.37v2.58c0,0.26,0.06,0.46,0.19,0.59s0.31,0.21,0.55,0.21
		c0.26,0,0.49-0.08,0.67-0.23L209.26,139.85z"/>
	<path class="st0" d="M214.43,135.36l-2.31,5.25c-0.2,0.49-0.44,0.83-0.72,1.03s-0.6,0.3-0.99,0.3c-0.23,0-0.46-0.04-0.68-0.11
		s-0.4-0.18-0.54-0.33l0.37-0.65c0.25,0.23,0.53,0.35,0.86,0.35c0.21,0,0.39-0.05,0.53-0.17s0.27-0.3,0.38-0.57l0.15-0.33
		l-2.11-4.76h0.9l1.67,3.82l1.65-3.82H214.43z"/>
	<path class="st0" d="M219.02,135.62c0.37,0.2,0.65,0.49,0.86,0.85c0.21,0.37,0.31,0.79,0.31,1.27c0,0.48-0.1,0.9-0.31,1.27
		s-0.49,0.66-0.86,0.86s-0.78,0.31-1.24,0.31c-0.34,0-0.66-0.07-0.94-0.2c-0.29-0.13-0.53-0.32-0.72-0.58v2.47h-0.86v-6.52h0.83
		v0.76c0.19-0.26,0.44-0.46,0.73-0.6s0.62-0.2,0.97-0.2C218.23,135.31,218.65,135.41,219.02,135.62z M218.53,139.21
		c0.24-0.14,0.43-0.34,0.58-0.59c0.14-0.25,0.21-0.55,0.21-0.88s-0.07-0.62-0.21-0.88c-0.14-0.25-0.33-0.45-0.58-0.59
		c-0.24-0.14-0.52-0.21-0.82-0.21c-0.3,0-0.57,0.07-0.81,0.21c-0.24,0.14-0.43,0.34-0.58,0.59c-0.14,0.25-0.21,0.54-0.21,0.87
		s0.07,0.62,0.21,0.88c0.14,0.26,0.33,0.45,0.58,0.59c0.25,0.14,0.52,0.21,0.82,0.21C218.01,139.42,218.28,139.35,218.53,139.21z"/>
	<path class="st0" d="M221.4,134.28c-0.11-0.11-0.17-0.24-0.17-0.4s0.05-0.29,0.17-0.4s0.25-0.17,0.42-0.17s0.31,0.05,0.42,0.16
		c0.11,0.1,0.17,0.24,0.17,0.39c0,0.16-0.06,0.3-0.17,0.41c-0.11,0.11-0.25,0.17-0.42,0.17S221.51,134.38,221.4,134.28z
		 M221.38,135.36h0.86v4.77h-0.86V135.36z"/>
	<path class="st0" d="M227.88,135.84c0.36,0.35,0.54,0.87,0.54,1.54v2.75h-0.86v-2.65c0-0.46-0.11-0.81-0.33-1.04
		c-0.22-0.23-0.54-0.35-0.95-0.35c-0.47,0-0.84,0.14-1.11,0.41c-0.27,0.27-0.41,0.67-0.41,1.17v2.46h-0.86v-4.77h0.83v0.72
		c0.17-0.25,0.41-0.44,0.71-0.57s0.63-0.2,1.01-0.2C227.05,135.31,227.53,135.49,227.88,135.84z"/>
	<path class="st0" d="M234.61,135.36v4.12c0,0.83-0.21,1.45-0.62,1.85c-0.41,0.4-1.03,0.6-1.85,0.6c-0.45,0-0.88-0.06-1.29-0.18
		s-0.74-0.3-0.99-0.53l0.41-0.67c0.22,0.19,0.5,0.34,0.82,0.46c0.33,0.11,0.66,0.17,1.01,0.17c0.56,0,0.97-0.13,1.24-0.4
		c0.27-0.26,0.4-0.67,0.4-1.21v-0.38c-0.2,0.25-0.46,0.43-0.75,0.55s-0.62,0.18-0.97,0.18c-0.46,0-0.87-0.1-1.24-0.29
		c-0.37-0.2-0.66-0.47-0.87-0.82s-0.32-0.75-0.32-1.2s0.11-0.85,0.32-1.2c0.21-0.35,0.5-0.62,0.87-0.81
		c0.37-0.19,0.78-0.29,1.24-0.29c0.36,0,0.69,0.07,1,0.2c0.31,0.13,0.56,0.33,0.76,0.58v-0.74H234.61z M232.97,138.97
		c0.25-0.13,0.44-0.32,0.59-0.55c0.14-0.24,0.21-0.51,0.21-0.81c0-0.46-0.15-0.84-0.46-1.12c-0.31-0.28-0.7-0.43-1.18-0.43
		c-0.49,0-0.88,0.14-1.19,0.43c-0.31,0.29-0.46,0.66-0.46,1.12c0,0.3,0.07,0.57,0.21,0.81c0.14,0.24,0.34,0.42,0.58,0.55
		c0.25,0.13,0.53,0.2,0.85,0.2C232.44,139.17,232.72,139.11,232.97,138.97z"/>
</g>
</svg>
