<svg id="Layer_1" data-name="Layer 1" xmlns="http://www.w3.org/2000/svg" viewBox="0 0 294.35 221.88"><defs><style>.cls-1,.cls-9{fill:#f0a160;}.cls-2,.cls-4{fill:#fff;}.cls-3,.cls-4,.cls-9{isolation:isolate;}.cls-4{font-size:12px;font-family:Montserrat-SemiBold, Montserrat;font-weight:600;}.cls-5{letter-spacing:-0.02em;}.cls-6{letter-spacing:-0.01em;}.cls-7{letter-spacing:0.01em;}.cls-8{letter-spacing:0.01em;}.cls-9{font-size:9px;font-family:Montserrat-Medium, Montserrat;font-weight:500;}.cls-10{letter-spacing:-0.02em;}.cls-11{letter-spacing:0.01em;}.cls-12{letter-spacing:0em;}.cls-13{letter-spacing:0em;}.cls-14{letter-spacing:-0.01em;}.cls-15{letter-spacing:0em;}.cls-16{letter-spacing:-0.01em;}.cls-17{letter-spacing:0.08em;}.cls-18{letter-spacing:-0.01em;}.cls-19{letter-spacing:-0.01em;}.cls-20{letter-spacing:-0.01em;}.cls-21{letter-spacing:-0.01em;}.cls-22{letter-spacing:-0.02em;}.cls-23{letter-spacing:-0.01em;}</style></defs><rect id="Rectangle_117" data-name="Rectangle 117" class="cls-1" x="13.61" y="15.72" width="272" height="195" rx="13"/><g id="experience"><path id="Path_5" data-name="Path 5" class="cls-2" d="M102.61,90.55A46.31,46.31,0,0,0,106,82c2.46-8.88,1.27-16.32-3.35-20.94s-12.06-5.81-20.94-3.35A46.31,46.31,0,0,0,73.1,61a45.15,45.15,0,0,0-10.56-3.85c-8-1.75-14.7-.38-18.93,3.85a16.7,16.7,0,0,0-4.56,11,33.67,33.67,0,0,0,2.38,13.49,6.32,6.32,0,0,0-1.06,8.88,5.91,5.91,0,0,0,1.06,1.06A33.68,33.68,0,0,0,39.05,109a16.69,16.69,0,0,0,4.56,11c3,3,7.29,4.6,12.43,4.6a26.3,26.3,0,0,0,3.2-.19,42,42,0,0,0,13.87-4.4,47.76,47.76,0,0,0,8.57,3.35,32.2,32.2,0,0,0,8.51,1.25c5.1,0,9.38-1.56,12.42-4.6,4.24-4.23,5.6-11,3.86-18.94A45.8,45.8,0,0,0,102.61,90.55ZM82.21,59.62c8.15-2.26,14.9-1.25,19,2.84s5.1,10.83,2.84,19a43.59,43.59,0,0,1-2.58,6.92,65.21,65.21,0,0,0-7.07-10.19,6.35,6.35,0,0,0,0-7.8L92.81,71.6a4.22,4.22,0,0,1,.91,2.66,4.34,4.34,0,1,1-2.12-3.73l1-1.72a6.33,6.33,0,0,0-7.14.46A65.21,65.21,0,0,0,75.29,62.2,43.59,43.59,0,0,1,82.21,59.62ZM45,62.46c5.42-5.42,15.34-5.21,25.89-.27A68.06,68.06,0,0,0,56.1,73.53a69.61,69.61,0,0,0-9,10.93,6.28,6.28,0,0,0-3.94.12C39.73,75.13,40.38,67.1,45,62.46Zm11.07,60.17c-4.53,0-8.38-1.32-11.07-4C40.38,114,39.72,106,43.2,96.51a6.29,6.29,0,0,0,3.93.12,71.18,71.18,0,0,0,9,10.93,68.33,68.33,0,0,0,14.81,11.33A35.7,35.7,0,0,1,56.09,122.63Zm17-4.83a65.62,65.62,0,0,1-15.59-11.66A69.17,69.17,0,0,1,49,95.75a6.34,6.34,0,0,0,2.73-5.21,5.43,5.43,0,0,0,0-.57l-2,.18c0,.13,0,.26,0,.39a4.31,4.31,0,1,1-.45-2l1.78-.9A6.26,6.26,0,0,0,49,85.32a68.53,68.53,0,0,1,8.54-10.38,65.67,65.67,0,0,1,15.6-11.66,62.77,62.77,0,0,1,11,7.46,6.33,6.33,0,0,0,8.78,8.79,63.07,63.07,0,0,1,7.46,11,65.4,65.4,0,0,1-11.66,15.6c-.53.53-1.08,1.06-1.64,1.58a6.31,6.31,0,0,0-8-.17l1.23,1.58a4.33,4.33,0,1,1-1.68,3.42,4.39,4.39,0,0,1,.6-2.21l-1.72-1a6.33,6.33,0,0,0-.23,6Q75.2,116.7,73.1,117.8Zm28.09.83c-4.08,4.09-10.83,5.1-19,2.84a44.86,44.86,0,0,1-6.91-2.58c1-.59,2.11-1.22,3.16-1.9a6.33,6.33,0,0,0,9.92-7.75c.59-.56,1.18-1.12,1.74-1.69a68.06,68.06,0,0,0,11.34-14.81C106.4,103.29,106.61,113.21,101.19,118.63Z"/><path id="Path_6" data-name="Path 6" class="cls-2" d="M89.52,100.88H87.46v-5A5,5,0,0,0,83.81,91l-.75-.21-.54,1.93.75.21a3,3,0,0,1,2.18,2.89v5h-3.6V98.15h-2v2.73h-9v2H89.52Z"/><path id="Path_7" data-name="Path 7" class="cls-2" d="M76.42,91l4.17,1.18.55-1.93-4.09-1.15V86.46a7,7,0,0,0,3.07-5.79V77.73a7,7,0,0,0-14,0h0v2.94a7,7,0,0,0,3.07,5.79v2.66L62.41,91a5,5,0,0,0-3.65,4.82v5H56.7v2H68.84v-2H66.37V98.15h-2v2.73h-3.6v-5A3,3,0,0,1,63,93L69.8,91a4.49,4.49,0,0,0,6.34.28,3.7,3.7,0,0,0,.28-.28ZM73.11,72.73a5,5,0,0,1,5,5v1.11L76,76.06H68.39a5,5,0,0,1,4.72-3.33Zm-5,7.94v-2.6H75L78,82a5,5,0,0,1-9.84-1.28Zm3.07,8.88V87.4a7.07,7.07,0,0,0,3.87,0v2.15a2.48,2.48,0,0,1-3.5.37A2.16,2.16,0,0,1,71.18,89.55Z"/><path id="Path_8" data-name="Path 8" class="cls-2" d="M78.4,95.74l-2.82-.8L76.12,93l2.82.8Z"/><path id="Path_9" data-name="Path 9" class="cls-2" d="M82.79,94.89l-.54,1.93-1.93-.54.54-1.93Z"/><path id="Path_10" data-name="Path 10" class="cls-2" d="M88.39,73.26h2v2h-2Z"/><path id="Path_11" data-name="Path 11" class="cls-2" d="M82,111.56h2v2H82Z"/><path id="Path_12" data-name="Path 12" class="cls-2" d="M44.35,89.54h2v2h-2Z"/></g><g id="Interaction_Design" data-name="Interaction Design" class="cls-3"><text class="cls-4" transform="translate(36.77 163.33)">In<tspan class="cls-5" x="12.05" y="0">t</tspan><tspan x="16.92" y="0">e</tspan><tspan class="cls-6" x="24.38" y="0">r</tspan><tspan class="cls-7" x="29.33" y="0">a</tspan><tspan class="cls-8" x="36.67" y="0">c</tspan><tspan x="43.73" y="0">tion </tspan></text><text class="cls-4" transform="translate(51.93 179.33)">Design</text></g><rect id="Rectangle_118" data-name="Rectangle 118" class="cls-2" x="146.98" y="31.65" width="123" height="168" rx="7"/><g id="Site-mapping_Wireframing_User-flows_Prototyping_" data-name="Site-mapping Wireframing User-flows Prototyping " class="cls-3"><text class="cls-9" transform="translate(176.9 95.13)">Si<tspan class="cls-10" x="8.1" y="0">t</tspan><tspan class="cls-11" x="11.66" y="0">e</tspan><tspan x="17.26" y="0">-mappi</tspan><tspan class="cls-12" x="50.39" y="0">n</tspan><tspan class="cls-13" x="56.55" y="0">g</tspan></text><text class="cls-9" transform="translate(178.69 110.13)"><tspan class="cls-14">W</tspan><tspan class="cls-15" x="10.01" y="0">i</tspan><tspan class="cls-16" x="12.52" y="0">r</tspan><tspan x="16.1" y="0">e</tspan><tspan class="cls-17" x="21.61" y="0">f</tspan><tspan class="cls-18" x="25.51" y="0">r</tspan><tspan x="29.12" y="0">ami</tspan><tspan class="cls-12" x="46.53" y="0">n</tspan><tspan class="cls-13" x="52.69" y="0">g</tspan></text><text class="cls-9" transform="translate(184.1 125.13)">Use<tspan class="cls-19" x="17.14" y="0">r</tspan><tspan class="cls-11" x="20.74" y="0">-</tspan><tspan x="24.28" y="0">fl</tspan><tspan class="cls-20" x="29.97" y="0">o</tspan><tspan class="cls-21" x="35.55" y="0">w</tspan><tspan x="43.58" y="0">s</tspan></text><text class="cls-9" transform="translate(180.86 140.13)"><tspan class="cls-22">P</tspan><tspan class="cls-16" x="6.33" y="0">r</tspan><tspan class="cls-15" x="9.91" y="0">o</tspan><tspan class="cls-10" x="15.62" y="0">t</tspan><tspan x="19.19" y="0">o</tspan><tspan class="cls-23" x="24.9" y="0">t</tspan><tspan x="28.54" y="0">ypi</tspan><tspan class="cls-12" x="42.22" y="0">n</tspan><tspan class="cls-13" x="48.37" y="0">g</tspan></text></g></svg>