<?xml version="1.0" encoding="utf-8"?>
<!-- Generator: Adobe Illustrator 24.1.0, SVG Export Plug-In . SVG Version: 6.00 Build 0)  -->
<svg version="1.1" id="Layer_1" xmlns="http://www.w3.org/2000/svg" xmlns:xlink="http://www.w3.org/1999/xlink" x="0px" y="0px"
	 viewBox="0 0 792 612" style="enable-background:new 0 0 792 612;" xml:space="preserve">
<style type="text/css">
	.st0{fill:#F1AA6B;}
	.st1{fill:#FFFFFF;}
</style>
<g>
	<path class="st0" d="M355.5,196.6c-1.8-2.9-3.9-6.2-6.2-9.8c-1.2,0.8-2.3,1.4-3.3,2.1c-31.1,21.1-45.6,61.2-35,97.4
		c8.2,27.9,25.9,47.5,52.6,58.6c14,5.8,22.8,15.7,26.1,30.5c0.5,2.5,0.7,5.1,1,7.6c4.3,0,8.2,0,12.8,0c-0.7-4.5-1-8.7-2-12.8
		c-4.9-18.7-17.1-30.5-34.7-37.9c-46.8-19.7-61.4-78.9-29.3-118.1C342.6,207.9,349.1,202.7,355.5,196.6z M545.7,426.4
		c2.8-3.4,5.4-6.5,8.1-9.8c-12.9-10.7-25.5-21.2-38.2-31.8c-2.8,3.5-5.4,6.6-8,9.9C520.4,405.3,532.8,415.6,545.7,426.4z
		 M492.1,446.8c0-14.8,0-29.5,0-44.1c-4.2,0-8.2,0-12.2,0c0,14.9,0,29.4,0,44.1C484.1,446.8,488.1,446.8,492.1,446.8z M518.1,363.9
		c14.9,0,29.5,0,44.1,0c0-4.2,0-8.2,0-12.2c-14.8,0-29.3,0-44.1,0C518.1,355.8,518.1,359.8,518.1,363.9z M403,414.9
		c0-6.5,0-12.5,0-18.6c-4.3,0-8.3,0-12.2,0c0,6.4,0,12.4,0,18.6C394.9,414.9,398.7,414.9,403,414.9z"/>
	<path class="st1" d="M588,224.2c-1.2,7.9-2.5,15.7-3.7,23.6c-0.6,3.8-1,7.7-1.6,11.5c-0.7,4.3-3.7,6.5-8,5.9
		c-7.4-1-14.8-2.1-22.2-3.2c-3.3-0.5-6.3-0.3-8.2,2.9c-1.8,3.1-0.7,5.7,1.3,8.3c4.5,5.9,8.9,11.8,13.3,17.7
		c3.3,4.5,2.8,7.5-1.6,10.9c-9.4,7.1-18.8,14.1-28.2,21.1c-4.5,3.4-7.7,2.9-11.1-1.6c-4.4-5.9-8.9-11.8-13.2-17.7
		c-1.9-2.5-4.1-4.1-7.3-3.3c-3.4,0.8-4.7,3.4-5.1,6.6c-1,7.3-2.1,14.6-3.1,21.9c-0.8,5.4-3.2,7.4-8.7,6.7
		c-11.6-1.5-23.3-3.2-34.9-4.9c-6-0.9-7.6-3.2-6.8-9.3c0.9-6.6,1.8-13.1,2.8-19.7c0.1-0.7,0.2-1.5,0.3-2.2c0.4-3-0.1-5.8-3-7.5
		c-2.9-1.6-5.5-0.8-8,1.1c-5.9,4.5-11.8,8.9-17.7,13.3c-4.7,3.5-7.7,3.1-11.2-1.5c-7.1-9.4-14.1-18.8-21.1-28.2
		c-3.4-4.6-2.9-7.6,1.8-11.1c5.9-4.5,11.8-8.9,17.7-13.3c2.6-1.9,4-4.2,3.2-7.4c-0.8-3.2-3.2-4.5-6.3-4.9c-7.1-0.9-14.1-2-21.1-3
		c-6.7-0.9-8.5-3.2-7.6-9.8c1.6-11.5,3.3-23,5-34.5c0.8-5.4,3.4-7.2,8.9-6.5c7.3,1,14.6,2,21.9,3.2c3.1,0.5,5.8,0,7.6-2.7
		c1.9-2.9,1.1-5.6-0.9-8.3c-4.1-5.4-8.2-10.7-12.1-16.2c-1.7-2.4-2.9-5-4.6-8.1c-13,0.1-26.4,2.7-39.2,8.1
		c-43.5,18.3-70.1,60.6-66.5,107.6c2.6,34.9,18.9,62.5,48,82.1c10.3,6.9,18.1,15.3,21,27.5c0.8,3.5,1.2,7.1,1.3,10.7
		c0.2,8.1,0,16.2,0.1,24.4c0.1,8,5.2,13.3,13.1,13.3c16.8,0.1,33.5,0.1,50.2,0c8.1-0.1,13-5.4,13.1-13.7c0.1-10.1-0.2-20.3,0.7-30.3
		c1-11.3,6.8-20.5,15.7-27.6c5.6-4.5,11.7-8.5,17.8-13c2.6,2.8,5.2,5.8,8.5,9.4c-5.4,4-10.4,7.9-15.7,11.5
		c-6.5,4.5-11.1,10.4-13.1,18.1c-0.7,2.9-1.1,5.9-1.1,8.9c-0.1,8,0,16-0.1,24c-0.1,8.4-3.6,15.2-10.3,20.3c-1.8,1.4-2.5,2.7-2.5,4.9
		c0.1,10.1,0.1,20.2,0,30.4c0,14.2-7,23.2-20.8,26.8c-0.4,0.1-0.6,0.4-1,0.5c-11,0-22,0-33,0c-0.2-0.1-0.4-0.4-0.6-0.4
		c-14.5-4.1-21.1-12.7-21.1-27.8c0-10,0-20-0.1-30c0-1.3-0.6-3-1.6-3.7c-8-6-11.4-13.9-11.1-23.7c0.1-4.8,0-9.6,0-14.4
		c-3.7,2.6-6.5,5.6-9.4,8.4c-3,2.9-5.6,3.1-9.1,0.9c-4.3-2.8-8.4-5.8-12.7-8.7c-1.4-0.9-2.8-1.8-4.5-2.9c-1.5,7-2.8,13.3-4.2,19.7
		c-1,4.5-3,6.1-7.5,6.1c-7.6,0-15.2,0-22.9,0c-5,0-6.9-1.5-8-6.5c-1.4-6.3-2.7-12.6-4.2-19.4c-5.8,4-11.1,7.6-16.4,11.2
		c-4.2,2.9-6.7,2.6-10.2-0.9c-5.3-5.3-10.6-10.6-15.9-15.9c-5.2-5.2-5.4-6.8-1.2-12.8c3.4-4.9,6.7-9.8,10.3-15.1
		c-6.7-1.4-12.8-2.9-18.9-4c-3.2-0.6-5.6-2-7.1-4.8c0-9.8,0-19.5,0-29.2c1.6-2.8,3.9-4.2,7.1-4.8c6.1-1.1,12.1-2.5,18.8-4
		c-3.9-5.6-7.4-10.8-11-16.1c-3.2-4.6-3-6.9,0.9-10.8c5.2-5.2,10.4-10.4,15.6-15.6c5.3-5.3,6.9-5.4,13.1-1.1
		c4.8,3.3,9.6,6.6,14.8,10.2c1.3-6.1,2.6-11.5,3.5-17c0.9-5.2,2.5-9.6,7.9-9.2c2.4-10.8,3.9-21.2,7.1-31.1
		c17.2-53.1,67.7-86.8,123.4-83c2.2,0.1,4.9-0.8,6.8-2c5.2-3.5,10-7.4,15.1-11.1c4.5-3.3,7.5-2.9,10.9,1.5
		c4.3,5.7,8.6,11.4,12.8,17.1c1.9,2.6,4,5,7.7,4.2c4-0.8,5-4,5.5-7.6c1-7.2,2-14.4,3.1-21.5c0.8-5.2,3.5-7,8.6-6.2
		c11.4,1.6,22.7,3.3,34.1,4.8c6.5,0.9,8.4,3.4,7.5,9.9c-1,7-1.9,14.1-3.1,21.1c-0.5,3.1-0.1,5.8,2.7,7.6c3,1.9,5.7,1,8.3-1
		c5.9-4.5,11.8-8.9,17.7-13.3c4.6-3.4,7.7-3.1,11.2,1.5c7,9.3,14,18.6,20.9,27.9c3.7,5,3.3,7.8-1.8,11.6c-6,4.5-12,9-18,13.5
		c-2.3,1.7-3.4,3.9-2.7,6.9c0.8,3.1,3,4.5,5.9,4.9c7.2,1.1,14.3,2.2,21.5,3c3.5,0.4,6.2,1.6,8,4.6C588,220.8,588,222.5,588,224.2z
		 M574.4,226.6c-3.7-0.6-7.1-1.1-10.6-1.6c-3-0.4-6-0.8-8.9-1.4c-7.7-1.6-12.8-6.3-14.7-13.8c-2-7.8,0.3-14.6,6.6-19.8
		c4.9-4,10.1-7.7,15.3-11.6c-5.2-7-10.2-13.6-15.3-20.3c-5.5,4.1-10.5,8.1-15.8,11.6c-6.6,4.4-13.7,4.7-20.5,0.5
		c-6.9-4.2-10-10.7-9-18.8c0.7-6.2,1.6-12.3,2.5-18.7c-8.5-1.2-16.8-2.3-25.1-3.5c-0.9,6.1-1.8,11.6-2.5,17.2
		c-1.1,8.7-5.8,14.6-14.2,17c-8,2.3-15.4-0.7-21-8c-3.4-4.6-6.9-9.1-10.4-13.9c-6.9,5.2-13.6,10.2-20.4,15.3
		c4,5.4,7.9,10.3,11.5,15.4c4.7,6.8,5,14.1,0.5,21.1c-4.4,7-11,9.8-19.3,8.7c-5.9-0.8-11.8-1.6-18-2.5c-1.2,8.5-2.4,16.7-3.6,25.1
		c6.1,0.9,11.8,1.8,17.5,2.5c5.3,0.7,9.8,2.9,13.2,7.1c6.7,8.4,5.3,20.2-3.2,27.1c-4.9,3.9-9.9,7.5-15,11.4
		c2.7,3.6,5.1,6.9,7.6,10.2c2.5,3.4,5,6.7,7.7,10.2c5.2-3.9,10-7.5,14.8-11c4.7-3.5,9.9-4.8,15.6-3.5c10.6,2.3,16.5,11.7,14.7,23.4
		c-0.8,5.4-1.5,10.8-2.4,16.5c8.6,1.2,16.7,2.4,25.1,3.6c1-6.8,1.7-13.2,3-19.6c1.4-7.4,6-12.2,13.2-14.4c7.7-2.4,15.5,0.2,20.7,6.8
		c3.8,4.9,7.5,9.9,11.3,14.9c7-5.2,13.5-10.2,20.3-15.3c-3.6-4.8-7-9.3-10.4-13.9c-5.5-7.4-6.1-15.3-1.8-22.4
		c4.2-7,11.8-10.1,20.7-8.8c5.5,0.9,11,1.6,16.5,2.3c0.3-1.1,0.5-1.6,0.5-2.2C572.2,242,573.2,234.6,574.4,226.6z M243.4,393.8
		c4-2.8,8.1-5.6,12.2-8.4c8.6-5.7,18.2-1.9,20.5,8.2c1.1,5,2.1,9.9,3.2,14.8c5.3,0,10.2,0,15.2,0c1.1-5,2.1-9.8,3.1-14.5
		c2.5-10.9,11.9-14.5,21.1-8.2c4,2.7,8,5.5,12.3,8.4c3.6-3.8,6.8-7.5,10.4-10.7c2.9-2.5,2.6-4.6,1.1-7.6
		c-4.8-9.4-14.2-13.3-21.7-19.5c-11,18.7-29.2,23.2-44.2,19.2c-15.6-4.1-26.8-17.9-28-34.6c-0.6-7.8,1.3-15.1,5.4-21.8
		c6.4-10.6,16.1-16.4,27.9-18.4c-1.6-6.7-3.1-13.1-4.8-19.8c-0.4,0.9-0.6,1.5-0.8,2c-3,11.7-11.8,15-21.8,8.2
		c-3.8-2.6-7.6-5.2-11.9-8.1c-1.9,2.1-3.5,4.2-5.4,6c-2,1.9-4.2,3.5-6.2,5.1c3.5,5.1,6.3,9,9,13.1c5.9,8.9,2.2,18.3-8.2,20.7
		c-4.9,1.1-9.9,2.2-14.8,3.2c0,5.2,0,10.1,0,15.1c4.9,1.1,9.6,2.1,14.3,3.1c11.1,2.5,14.7,11.9,8.3,21.3c-2.7,3.9-5.3,7.8-7.8,11.4
		C235.6,386,239.3,389.7,243.4,393.8z M288.4,364c8.5-0.4,16-4.9,21-13.7c1.1-2,1.2-3.4-0.6-5.2c-8.3-8.6-15.1-18.3-20.2-29.1
		c-1.1-2.4-2.5-2.9-5-2.6c-12.6,1.3-22.8,13.1-22.3,25.9C261.9,353.3,273,364,288.4,364z M422.2,466.4c-17.2,0-34,0-50.9,0
		c0,2.5-0.1,4.6,0,6.7c0.5,6.8,5.6,12,12.4,12.1c8.7,0.2,17.5,0.2,26.2,0c6.5-0.1,11.7-5.2,12.2-11.5
		C422.4,471.4,422.2,469,422.2,466.4z M371.5,453.1c17,0,33.7,0,50.6,0c0-4.2,0-8.1,0-12.2c-17,0-33.7,0-50.6,0
		C371.5,445,371.5,449,371.5,453.1z"/>
	<path class="st0" d="M273.1,180.5c-15-10.7-29.7-21.2-44.6-31.8c-2.6,3.6-4.9,6.9-7.4,10.3c15,10.7,29.7,21.2,44.6,31.8
		C268.3,187.2,270.6,184,273.1,180.5z M213.6,236.5c17.2-4.3,33.9-8.5,50.9-12.7c-1.1-4.3-2-8.2-3.1-12.3c-8.7,2.1-17,4.2-25.4,6.3
		c-8.4,2.1-16.9,4.3-25.5,6.4C211.6,228.4,212.6,232.2,213.6,236.5z"/>
	<path class="st1" d="M288,114c4.3,16.9,8.6,33.7,13,51c-4.1,1.1-7.9,2.1-12.3,3.2c-4.4-17-8.7-33.8-13-50.7
		c3.8-1.2,7.2-2.4,10.7-3.5C287,114,287.5,114,288,114z"/>
	<path class="st1" d="M355.5,196.6c-6.3,6.1-12.8,11.3-18,17.6c-32.1,39.2-17.4,98.4,29.3,118.1c17.6,7.4,29.8,19.2,34.7,37.9
		c1,4,1.3,8.3,2,12.8c-4.6,0-8.5,0-12.8,0c-0.3-2.5-0.5-5.1-1-7.6c-3.2-14.8-12.1-24.7-26.1-30.5c-26.8-11.2-44.5-30.8-52.6-58.6
		c-10.6-36.2,4-76.2,35-97.4c1-0.7,2.1-1.3,3.3-2.1C351.5,190.3,353.6,193.7,355.5,196.6z"/>
	<path class="st1" d="M545.7,426.4c-12.9-10.7-25.3-21.1-38.1-31.8c2.6-3.2,5.2-6.4,8-9.9c12.7,10.6,25.3,21.1,38.2,31.8
		C551.1,419.8,548.5,422.9,545.7,426.4z"/>
	<path class="st1" d="M492.1,446.8c-4.1,0-8,0-12.2,0c0-14.7,0-29.3,0-44.1c4,0,7.9,0,12.2,0C492.1,417.3,492.1,432,492.1,446.8z"/>
	<path class="st1" d="M518.1,363.9c0-4.1,0-8,0-12.2c14.8,0,29.3,0,44.1,0c0,4,0,7.9,0,12.2C547.7,363.9,533,363.9,518.1,363.9z"/>
	<path class="st1" d="M403,414.9c-4.3,0-8.1,0-12.2,0c0-6.2,0-12.3,0-18.6c4,0,8,0,12.2,0C403,402.4,403,408.5,403,414.9z"/>
	<path class="st1" d="M273.1,180.5c-2.5,3.5-4.8,6.7-7.4,10.4c-14.9-10.6-29.6-21.1-44.6-31.8c2.5-3.5,4.8-6.7,7.4-10.3
		C243.4,159.3,258.1,169.9,273.1,180.5z"/>
	<path class="st1" d="M213.6,236.5c-1.1-4.3-2-8.1-3.1-12.3c8.7-2.2,17.1-4.3,25.5-6.4c8.3-2.1,16.7-4.1,25.4-6.3
		c1,4.1,2,8,3.1,12.3C247.5,228,230.8,232.2,213.6,236.5z"/>
	<path class="st1" d="M528.9,225.9c-0.1,28.2-23,51-51.2,50.8c-27.9-0.1-50.7-23.1-50.7-51c0-28.3,23-51,51.5-50.9
		C506.4,174.9,529,197.7,528.9,225.9z M516.1,225.7c0-21.1-16.9-38.2-38-38.3c-21.2-0.1-38.5,17.2-38.4,38.3
		c0.1,21,17.3,38.2,38.2,38.2C499,263.9,516.1,246.8,516.1,225.7z"/>
</g>
</svg>
