<?xml version="1.0" encoding="utf-8"?>
<!-- Generator: Adobe Illustrator 24.1.0, SVG Export Plug-In . SVG Version: 6.00 Build 0)  -->
<svg version="1.1" id="Layer_1" xmlns="http://www.w3.org/2000/svg" xmlns:xlink="http://www.w3.org/1999/xlink" x="0px" y="0px"
	 viewBox="0 0 792 612" style="enable-background:new 0 0 792 612;" xml:space="preserve">
<style type="text/css">
	.st0{fill:#F1AA6B;}
</style>
<g>
	<path class="st0" d="M355.45,196.58c-1.82-2.89-3.94-6.25-6.16-9.76c-1.23,0.77-2.28,1.39-3.29,2.08
		c-31.08,21.15-45.63,61.23-35.04,97.4c8.16,27.86,25.86,47.45,52.64,58.63c13.95,5.83,22.82,15.74,26.06,30.54
		c0.55,2.5,0.71,5.09,1.04,7.57c4.3,0,8.25,0,12.8,0c-0.68-4.46-0.95-8.7-2.01-12.75c-4.88-18.71-17.1-30.5-34.72-37.92
		c-46.76-19.69-61.43-78.91-29.33-118.14C342.61,207.91,349.13,202.71,355.45,196.58z M545.68,426.35c2.82-3.41,5.4-6.52,8.12-9.81
		c-12.91-10.74-25.51-21.23-38.24-31.82c-2.85,3.51-5.4,6.65-8.02,9.86C520.37,405.26,532.82,415.63,545.68,426.35z M492.12,446.8
		c0-14.83,0-29.48,0-44.15c-4.24,0-8.16,0-12.18,0c0,14.86,0,29.41,0,44.15C484.12,446.8,488.06,446.8,492.12,446.8z M518.14,363.85
		c14.87,0,29.51,0,44.12,0c0-4.25,0-8.2,0-12.18c-14.79,0-29.35,0-44.12,0C518.14,355.84,518.14,359.77,518.14,363.85z
		 M403.04,414.92c0-6.45,0-12.5,0-18.64c-4.26,0-8.29,0-12.24,0c0,6.35,0,12.42,0,18.64C394.91,414.92,398.74,414.92,403.04,414.92z
		"/>
	<path class="st0" d="M588,224.25c-1.25,7.86-2.52,15.72-3.74,23.58c-0.59,3.82-1,7.68-1.64,11.5c-0.72,4.34-3.7,6.49-8.03,5.88
		c-7.42-1.05-14.83-2.12-22.24-3.25c-3.31-0.51-6.3-0.31-8.19,2.93c-1.79,3.07-0.68,5.7,1.28,8.26c4.47,5.86,8.9,11.76,13.28,17.68
		c3.29,4.45,2.84,7.5-1.6,10.85c-9.37,7.08-18.77,14.12-28.19,21.14c-4.55,3.39-7.7,2.91-11.14-1.63
		c-4.44-5.88-8.88-11.77-13.25-17.7c-1.86-2.52-4.13-4.1-7.34-3.34c-3.39,0.8-4.68,3.42-5.12,6.64c-1.01,7.3-2.06,14.59-3.08,21.89
		c-0.76,5.42-3.17,7.41-8.68,6.67c-11.63-1.55-23.26-3.18-34.87-4.91c-6-0.89-7.6-3.16-6.8-9.26c0.86-6.56,1.84-13.11,2.76-19.66
		c0.1-0.74,0.2-1.49,0.3-2.23c0.4-3.05-0.08-5.78-3.01-7.46c-2.9-1.65-5.48-0.79-7.96,1.1c-5.87,4.46-11.77,8.88-17.69,13.27
		c-4.68,3.46-7.7,3.08-11.16-1.5c-7.09-9.37-14.13-18.77-21.13-28.19c-3.39-4.56-2.88-7.59,1.75-11.1
		c5.88-4.45,11.75-8.9,17.7-13.26c2.56-1.88,3.99-4.2,3.22-7.38c-0.78-3.21-3.16-4.5-6.32-4.91c-7.06-0.91-14.09-2-21.14-2.99
		c-6.66-0.94-8.54-3.21-7.64-9.75c1.59-11.5,3.28-22.99,5.01-34.48c0.82-5.41,3.43-7.25,8.86-6.47c7.29,1.04,14.6,2.02,21.87,3.2
		c3.14,0.51,5.79,0.01,7.56-2.73c1.88-2.92,1.07-5.65-0.94-8.28c-4.11-5.35-8.2-10.72-12.12-16.21c-1.67-2.35-2.89-5.02-4.62-8.11
		c-13.03,0.05-26.42,2.71-39.2,8.08c-43.52,18.27-70.06,60.55-66.53,107.62c2.61,34.85,18.86,62.47,47.95,82.06
		c10.26,6.91,18.1,15.3,21.02,27.54c0.83,3.49,1.22,7.15,1.3,10.74c0.19,8.12,0,16.25,0.08,24.37c0.08,7.95,5.16,13.26,13.11,13.33
		c16.75,0.14,33.5,0.14,50.25,0c8.14-0.07,12.99-5.37,13.12-13.66c0.15-10.11-0.2-20.28,0.73-30.32
		c1.04-11.31,6.84-20.53,15.71-27.58c5.65-4.49,11.67-8.54,17.77-12.97c2.58,2.84,5.24,5.77,8.49,9.36
		c-5.36,3.96-10.42,7.9-15.7,11.54c-6.54,4.52-11.12,10.39-13.09,18.1c-0.73,2.87-1.08,5.91-1.13,8.88c-0.15,8,0.02,16-0.08,24
		c-0.11,8.4-3.56,15.25-10.3,20.26c-1.82,1.35-2.49,2.7-2.46,4.93c0.11,10.12,0.06,20.25,0.05,30.37
		c-0.03,14.22-7.04,23.22-20.81,26.79c-0.35,0.09-0.65,0.35-0.97,0.53c-11,0-22,0-33,0c-0.19-0.15-0.37-0.38-0.58-0.44
		c-14.52-4.09-21.09-12.73-21.1-27.75c-0.01-9.99,0.05-19.99-0.07-29.98c-0.02-1.28-0.62-3.02-1.57-3.73
		c-7.99-5.95-11.38-13.93-11.13-23.72c0.12-4.8,0.02-9.6,0.02-14.4c-3.7,2.56-6.47,5.56-9.39,8.39c-2.99,2.9-5.61,3.15-9.08,0.85
		c-4.27-2.83-8.44-5.8-12.67-8.69c-1.37-0.93-2.79-1.78-4.46-2.85c-1.49,6.99-2.81,13.33-4.19,19.66c-0.97,4.46-2.98,6.11-7.55,6.13
		c-7.62,0.04-15.24,0.03-22.86,0c-5.05-0.02-6.89-1.52-7.98-6.51c-1.38-6.29-2.72-12.59-4.19-19.42
		c-5.78,3.95-11.08,7.63-16.42,11.23c-4.24,2.86-6.66,2.63-10.25-0.92c-5.33-5.27-10.61-10.59-15.91-15.89
		c-5.2-5.21-5.36-6.84-1.25-12.84c3.35-4.88,6.7-9.77,10.34-15.08c-6.73-1.44-12.77-2.88-18.87-3.97c-3.21-0.58-5.55-2.01-7.08-4.84
		c0-9.75,0-19.5,0-29.25c1.57-2.79,3.9-4.23,7.11-4.8c6.1-1.08,12.13-2.54,18.79-3.97c-3.87-5.64-7.45-10.84-11-16.06
		c-3.16-4.64-2.97-6.93,0.91-10.84c5.2-5.23,10.42-10.44,15.64-15.65c5.29-5.29,6.86-5.42,13.15-1.09c4.79,3.3,9.57,6.6,14.84,10.23
		c1.29-6.11,2.61-11.54,3.54-17.03c0.89-5.25,2.45-9.56,7.87-9.18c2.4-10.75,3.87-21.21,7.08-31.1
		c17.23-53.1,67.74-86.8,123.4-82.99c2.22,0.15,4.88-0.75,6.76-2.02c5.18-3.48,10.04-7.43,15.06-11.15
		c4.45-3.29,7.51-2.87,10.86,1.53c4.31,5.67,8.59,11.36,12.81,17.1c1.94,2.63,4.01,4.96,7.67,4.21c4.03-0.83,5.01-4.01,5.5-7.55
		c0.98-7.17,1.98-14.35,3.1-21.5c0.81-5.15,3.51-6.98,8.64-6.24c11.37,1.64,22.74,3.26,34.12,4.84c6.51,0.9,8.41,3.37,7.47,9.87
		c-1.01,7.04-1.94,14.1-3.06,21.13c-0.5,3.12-0.06,5.77,2.7,7.58c2.96,1.94,5.67,1.01,8.27-0.97c5.87-4.46,11.77-8.87,17.69-13.28
		c4.61-3.44,7.73-3.05,11.16,1.49c7.01,9.27,13.97,18.57,20.91,27.89c3.71,4.98,3.26,7.79-1.83,11.64
		c-5.98,4.52-12,8.99-17.97,13.52c-2.27,1.72-3.4,3.95-2.68,6.86c0.77,3.09,2.98,4.5,5.92,4.93c7.17,1.05,14.32,2.18,21.52,3.01
		c3.46,0.4,6.2,1.58,8.04,4.58C588,220.75,588,222.5,588,224.25z M574.4,226.59c-3.71-0.55-7.14-1.06-10.58-1.58
		c-2.96-0.45-5.95-0.77-8.88-1.37c-7.7-1.59-12.77-6.32-14.73-13.82c-2.05-7.83,0.28-14.64,6.6-19.77
		c4.91-3.98,10.06-7.68,15.26-11.61c-5.24-6.97-10.23-13.61-15.26-20.31c-5.51,4.09-10.48,8.1-15.76,11.64
		c-6.61,4.43-13.68,4.67-20.49,0.5c-6.93-4.24-9.96-10.66-9.01-18.76c0.72-6.16,1.64-12.29,2.52-18.74
		c-8.55-1.19-16.76-2.33-25.14-3.5c-0.9,6.1-1.8,11.63-2.53,17.18c-1.14,8.7-5.76,14.56-14.21,16.96
		c-8.05,2.29-15.41-0.69-20.96-8.02c-3.44-4.55-6.86-9.13-10.4-13.85c-6.94,5.22-13.59,10.21-20.36,15.29
		c4.02,5.38,7.94,10.26,11.45,15.4c4.67,6.83,4.96,14.14,0.55,21.13c-4.4,6.99-11.05,9.82-19.29,8.7c-5.91-0.81-11.81-1.63-18-2.49
		c-1.21,8.53-2.37,16.74-3.56,25.13c6.13,0.9,11.79,1.77,17.46,2.54c5.31,0.72,9.79,2.91,13.16,7.12c6.7,8.38,5.32,20.24-3.24,27.05
		c-4.85,3.86-9.88,7.51-15.04,11.41c2.68,3.6,5.13,6.89,7.59,10.18c2.51,3.35,5.03,6.68,7.66,10.17c5.17-3.86,9.96-7.46,14.77-11.03
		c4.67-3.46,9.89-4.75,15.58-3.5c10.63,2.33,16.49,11.73,14.73,23.36c-0.81,5.39-1.54,10.79-2.35,16.48
		c8.58,1.22,16.68,2.37,25.1,3.56c1.01-6.81,1.74-13.24,2.97-19.58c1.43-7.37,6.04-12.22,13.18-14.44
		c7.71-2.4,15.54,0.22,20.69,6.82c3.81,4.88,7.48,9.87,11.27,14.88c6.95-5.22,13.53-10.16,20.34-15.28
		c-3.57-4.77-7.02-9.34-10.42-13.94c-5.45-7.35-6.06-15.32-1.77-22.39c4.23-6.98,11.85-10.15,20.72-8.76
		c5.5,0.86,11.02,1.55,16.55,2.32c0.26-1.05,0.46-1.64,0.55-2.25C572.19,242.01,573.25,234.6,574.4,226.59z M243.37,393.82
		c4.01-2.76,8.08-5.63,12.23-8.39c8.62-5.73,18.21-1.86,20.46,8.22c1.11,4.96,2.15,9.93,3.21,14.84c5.26,0,10.2,0,15.16,0
		c1.08-4.99,2.06-9.75,3.14-14.49c2.45-10.85,11.86-14.49,21.13-8.2c3.99,2.71,7.96,5.47,12.28,8.44
		c3.61-3.76,6.75-7.54,10.43-10.69c2.94-2.51,2.61-4.61,1.07-7.65c-4.77-9.36-14.2-13.31-21.72-19.55
		c-11.03,18.7-29.24,23.17-44.23,19.22c-15.64-4.12-26.83-17.91-28.04-34.65c-0.56-7.81,1.34-15.13,5.39-21.84
		c6.39-10.59,16.06-16.38,27.91-18.44c-1.62-6.71-3.15-13.06-4.78-19.82c-0.35,0.9-0.62,1.45-0.77,2.02
		c-3.03,11.71-11.84,15.03-21.8,8.21c-3.79-2.59-7.58-5.17-11.86-8.09c-1.9,2.12-3.53,4.19-5.42,5.98
		c-1.98,1.87-4.21,3.47-6.25,5.12c3.49,5.07,6.28,9.05,8.99,13.1c5.92,8.85,2.16,18.34-8.19,20.7c-4.94,1.12-9.9,2.17-14.77,3.24
		c0,5.25,0,10.09,0,15.08c4.87,1.06,9.61,2.07,14.33,3.13c11.05,2.47,14.71,11.91,8.27,21.34c-2.66,3.9-5.33,7.78-7.82,11.41
		C235.64,386.04,239.32,389.74,243.37,393.82z M288.41,363.99c8.53-0.35,16.03-4.9,20.98-13.71c1.11-1.98,1.17-3.38-0.59-5.2
		c-8.31-8.59-15.09-18.3-20.25-29.09c-1.13-2.37-2.51-2.88-4.96-2.62c-12.57,1.3-22.77,13.09-22.26,25.94
		C261.89,353.28,273.01,364.04,288.41,363.99z M422.24,466.41c-17.23,0-33.98,0-50.91,0c0,2.45-0.12,4.57,0.02,6.67
		c0.45,6.78,5.63,11.95,12.44,12.09c8.73,0.18,17.47,0.18,26.2-0.01c6.51-0.14,11.72-5.18,12.21-11.47
		C422.39,471.35,422.24,468.98,422.24,466.41z M371.52,453.06c16.97,0,33.71,0,50.58,0c0-4.21,0-8.14,0-12.23
		c-16.97,0-33.74,0-50.58,0C371.52,445.03,371.52,448.97,371.52,453.06z"/>
	<path class="st0" d="M273.09,180.53c-14.96-10.68-29.69-21.2-44.58-31.82c-2.61,3.65-4.91,6.87-7.39,10.34
		c14.97,10.69,29.71,21.21,44.59,31.83C268.3,187.24,270.6,184.02,273.09,180.53z M213.63,236.51c17.21-4.31,33.87-8.48,50.89-12.74
		c-1.06-4.27-2.05-8.2-3.07-12.31c-8.68,2.15-17.03,4.2-25.37,6.29c-8.43,2.11-16.85,4.26-25.54,6.45
		C211.6,228.42,212.56,232.24,213.63,236.51z"/>
	<path class="st0" d="M288,114c4.31,16.87,8.63,33.73,13.04,50.98c-4.13,1.08-7.94,2.08-12.29,3.23
		c-4.35-16.97-8.66-33.79-12.98-50.68c3.77-1.24,7.25-2.38,10.73-3.53C287,114,287.5,114,288,114z"/>
	<path class="st0" d="M355.45,196.58c-6.33,6.14-12.84,11.34-18,17.64c-32.1,39.22-17.43,98.45,29.33,118.14
		c17.62,7.42,29.84,19.21,34.72,37.92c1.05,4.04,1.33,8.29,2.01,12.75c-4.56,0-8.51,0-12.8,0c-0.33-2.47-0.49-5.06-1.04-7.57
		c-3.24-14.8-12.11-24.71-26.06-30.54c-26.78-11.18-44.48-30.77-52.64-58.63c-10.59-36.17,3.96-76.25,35.04-97.4
		c1.01-0.69,2.06-1.3,3.29-2.08C351.51,190.33,353.63,193.68,355.45,196.58z"/>
	<path class="st0" d="M545.68,426.35c-12.86-10.72-25.31-21.1-38.13-31.78c2.61-3.21,5.16-6.35,8.02-9.86
		c12.73,10.59,25.33,21.08,38.24,31.82C551.08,419.83,548.5,422.94,545.68,426.35z"/>
	<path class="st0" d="M492.12,446.8c-4.07,0-8.01,0-12.18,0c0-14.73,0-29.29,0-44.15c4.02,0,7.94,0,12.18,0
		C492.12,417.32,492.12,431.98,492.12,446.8z"/>
	<path class="st0" d="M518.14,363.85c0-4.08,0-8.01,0-12.18c14.77,0,29.33,0,44.12,0c0,3.98,0,7.93,0,12.18
		C547.65,363.85,533.01,363.85,518.14,363.85z"/>
	<path class="st0" d="M403.04,414.92c-4.3,0-8.13,0-12.24,0c0-6.22,0-12.29,0-18.64c3.95,0,7.98,0,12.24,0
		C403.04,402.42,403.04,408.48,403.04,414.92z"/>
	<path class="st0" d="M273.09,180.53c-2.49,3.49-4.78,6.71-7.38,10.35c-14.88-10.62-29.62-21.14-44.59-31.83
		c2.48-3.47,4.78-6.69,7.39-10.34C243.39,159.34,258.13,169.85,273.09,180.53z"/>
	<path class="st0" d="M213.63,236.51c-1.07-4.27-2.03-8.09-3.08-12.31c8.69-2.2,17.11-4.34,25.54-6.45
		c8.34-2.09,16.69-4.14,25.37-6.29c1.02,4.11,2,8.04,3.07,12.31C247.49,228.03,230.84,232.2,213.63,236.51z"/>
	<path class="st0" d="M528.87,225.85c-0.07,28.17-23.04,50.95-51.2,50.8c-27.91-0.15-50.71-23.1-50.7-51.03
		c0.01-28.27,23.04-51.04,51.49-50.9C506.41,174.86,528.95,197.72,528.87,225.85z M516.13,225.73c0.04-21.15-16.87-38.2-37.96-38.27
		c-21.2-0.07-38.53,17.18-38.44,38.28c0.09,20.97,17.33,38.17,38.25,38.17C498.98,263.9,516.09,246.78,516.13,225.73z"/>
</g>
</svg>
