<?xml version="1.0" encoding="utf-8"?>
<!-- Generator: Adobe Illustrator 24.1.0, SVG Export Plug-In . SVG Version: 6.00 Build 0)  -->
<svg version="1.1" id="Layer_1" xmlns="http://www.w3.org/2000/svg" xmlns:xlink="http://www.w3.org/1999/xlink" x="0px" y="0px"
	 viewBox="0 0 792 612" style="enable-background:new 0 0 792 612;" xml:space="preserve">
<style type="text/css">
	.st0{fill:#FFFFFF;}
</style>
<g>
	<path class="st0" d="M241.1,119.5c7.4,2.8,9.4,8.7,8.2,16.4c1.8,0.1,3.1,0.2,4.4,0.2c19.1,0,38.3,0,57.4,0c1.5,0,3,0.1,4.4,0.5
		c2.7,0.9,4.3,3.2,3.4,5.8c-0.7,1.9-2.8,3.5-4.5,4.7c-0.8,0.6-2.4,0.2-3.7,0.2c-18.9,0-37.8,0-56.6,0c-1.4,0-2.7,0-3.1,0
		c-1.6,4.8-2,10.1-4.8,12.9c-2.8,2.9-8,3.4-12.9,5.2c0,40.4,0,82,0,123c4.4,1.4,9.7,1.6,12.7,4.3c2.8,2.6,3.3,7.8,5.2,12.7
		c2.5,0,6.3,0,10.2,0c4.5,0,6.9,2,7,5.5c0,3.6-2.4,5.6-6.8,5.7c-3.8,0-7.7,0-10.6,0c-1.5,5.1-1.9,9.9-4.2,13.8
		c-2.8,4.7-8.4,3.4-13.4,3.6c0,41.5,0,82.9,0,124.8c4.6,0.3,10.4-1,13.2,3.8c2.3,3.8,2.9,8.7,4.4,13.5c40.7,0,82.3,0,124.4,0
		c-1.3-12,3.3-18.7,16.8-17c0-4.4-0.1-8.3,0-12.3c0.2-4.9,4.4-7.9,8-5.5c1.6,1,2.8,3.5,3,5.5c0.5,3.8,0.1,7.7,0.1,12.1
		c12.8-1.3,17.8,5,16.2,17.4c2,0,3.4,0,4.9,0c24.4,0,48.8,0,73.1,0c1.2,0,2.5-0.1,3.7,0.1c2.8,0.5,4.5,2.1,4.7,5
		c0.2,2.9-1.1,4.9-3.8,5.7c-1.4,0.4-3,0.4-4.4,0.4c-24.4,0-48.8,0-73.1,0c-1.5,0-3,0-5,0c0.8,7.2-1.2,13-8.3,15.8
		c-9.2,0-18.5,0-27.8,0c-7.2-2.8-9.1-8.5-8.4-15.5c-42.1,0-83.8,0-125.4,0c-1.2,11.2-1.6,11.9-8.7,15.5c-9.2,0-18.5,0-27.8,0
		c-3.8-1.7-6.6-4.4-8.2-8.2c0-9.2,0-18.5,0-27.8c2.8-7.8,9.1-9.1,16.3-8.4c0-41.9,0-83.3,0-125.2c-7.1,1-13.1-0.4-16.3-7.4
		c0-9.8,0-19.5,0-29.2c3.2-7.3,9.6-8.1,16.3-7.6c0-42.2,0-83.8,0-125.9c-7.6,1.2-13.4-0.8-16.3-8.2c0-9.2,0-18.5,0-27.8
		c1.6-3.9,4.4-6.6,8.2-8.2C222.6,119.5,231.9,119.5,241.1,119.5z M238.1,131c-7.4,0-14.4,0-21.5,0c0,7.3,0,14.3,0,21.4
		c7.3,0,14.3,0,21.5,0C238.1,145.2,238.1,138.3,238.1,131z M216.7,301.1c0,7.4,0,14.5,0,21.5c7.3,0,14.3,0,21.4,0
		c0-7.3,0-14.3,0-21.5C230.8,301.1,223.9,301.1,216.7,301.1z M238.1,492c0-7.2,0-14.3,0-21.5c-7.2,0-14.3,0-21.5,0
		c0,7.2,0,14.3,0,21.5C223.9,492,230.9,492,238.1,492z M408.2,492.1c0-7.3,0-14.4,0-21.5c-7.3,0-14.3,0-21.4,0c0,7.3,0,14.3,0,21.5
		C394,492.1,400.9,492.1,408.2,492.1z"/>
	<path class="st0" d="M553.2,503.5c-7-2.8-9.5-8-8.1-15.8c-4.3,0-8.2,0-12,0c-2.9,0-5.8,0.1-8.6-0.1c-3.2-0.2-5.5-2.6-5.5-5.6
		c0-3.1,2.3-5.5,5.8-5.6c6.5-0.1,13,0,20,0c-1.3-12.2,3.2-19.1,16.6-17.2c0-1.9,0-3.1,0-4.3c0-39.2,0-78.5,0-117.8
		c0-2,0.3-3.6-2.4-4.6c-9.3-3.5-14.8-11.7-14.7-21c0.2-9.2,5.8-17,14.8-20.6c0.7-0.3,1.4-0.6,2.1-0.9c0-41.9,0-83.7,0-124.8
		c-4.6-1.5-9.3-2.2-13-4.6c-4.4-2.8-3.5-8.1-3.5-13.1c-42,0-83.8,0-125.6,0c-3.9,10.1-10.8,16.4-22.2,16.1
		c-10.8-0.2-17.4-6.4-21.2-16.5c-11.1,0-22.4,0-33.6,0c-1.5,0-3,0.1-4.5,0c-3.3-0.2-5.5-2.4-5.7-5.3c-0.1-3.1,2.2-5.6,5.6-5.8
		c3.2-0.2,6.5-0.1,9.8-0.1c9.5,0,19,0,28.6,0c2.7-9,9-13.9,17.5-16.6c2.8,0,5.5,0,8.2,0c8.4,2.8,14.8,7.6,17.3,16.3
		c42,0,83.8,0,126,0c-1-7.5,0.8-13.4,8.2-16.3c9.2,0,18.5,0,27.8,0c3.8,1.7,6.6,4.4,8.2,8.2c0,9.2,0,18.5,0,27.7
		c-2.8,7.7-9,9.2-16.4,8.4c0,42.5,0,84.4,0,126.5c9.8,3.7,15.8,10.6,15.9,21.3c0.1,10.9-6,17.9-15.8,21.7c0,41.9,0,83.7,0,125.9
		c7.5-1,13.5,0.8,16.3,8.3c0,9.2,0,18.5,0,27.8c-1.7,3.9-4.4,6.6-8.2,8.2C571.7,503.5,562.4,503.5,553.2,503.5z M577.7,152.5
		c0-7.4,0-14.4,0-21.5c-7.3,0-14.3,0-21.4,0c0,7.3,0,14.3,0,21.5C563.5,152.5,570.4,152.5,577.7,152.5z M556.2,492
		c7.5,0,14.5,0,21.5,0c0-7.3,0-14.4,0-21.3c-7.3,0-14.3,0-21.5,0C556.2,477.9,556.2,484.8,556.2,492z M397.5,152.6
		c6.1,0,10.9-4.8,11-10.9c0-6-4.9-11-10.9-11c-6,0-10.9,4.9-10.9,10.9C386.6,147.8,391.4,152.6,397.5,152.6z M577.5,312
		c0-6-4.8-10.9-10.8-11c-6-0.1-11,4.9-11.1,10.8c-0.1,5.9,4.9,11,10.9,11C572.5,322.9,577.4,318,577.5,312z"/>
	<path class="st0" d="M589.2,127.8c-1.7-3.8-4.4-6.6-8.2-8.2c2.8,0,5.5,0,8.2,0C589.2,122.3,589.2,125,589.2,127.8z"/>
	<path class="st0" d="M580.9,503.5c3.8-1.7,6.6-4.4,8.2-8.2c0,2.8,0,5.5,0,8.2C586.4,503.5,583.7,503.5,580.9,503.5z"/>
	<path class="st0" d="M213.4,119.5c-3.8,1.7-6.6,4.4-8.2,8.2c0-2.8,0-5.5,0-8.2C207.9,119.5,210.6,119.5,213.4,119.5z"/>
	<path class="st0" d="M205.1,495.3c1.7,3.8,4.4,6.6,8.2,8.2c-2.8,0-5.5,0-8.2,0C205.1,500.8,205.1,498,205.1,495.3z"/>
	<path class="st0" d="M342.2,359.5c2.3-2.4,4.6-4.8,7-7.1c7.6-7.6,15-15.4,22.9-22.7c3.8-3.5,4.6-7.2,3.5-12.5c-2.3,0-4.8,0.1-7.2,0
		c-4.1-0.2-6.5-2.3-6.5-5.7c0-3.4,2.4-5.4,6.6-5.5c2.1,0,4.2-0.1,6.4-0.1c0.2,0,0.5-0.2,1.2-0.5c0-1.5,0-3.2,0-4.9
		c0.1-6.8,4.1-11,10.9-11.1c7.6-0.2,15.2,0,22.9-0.1c1.2,0,2.8-0.4,3.6-1.3c10.5-10.4,20.9-20.8,31.3-31.2c0.3-0.3,0.5-0.8,1-1.5
		c-2.8,0.2-5.1,0.6-7.4,0.6c-3.3,0.1-5.6-2.1-5.9-5c-0.3-3.1,1.9-5.7,5.3-6.1c7.3-0.8,14.6-1.6,22-2.3c5.4-0.4,7.6,1.9,7.2,7.3
		c-0.6,7-1.4,13.9-2.2,20.9c-0.4,3.4-3.1,5.6-6.1,5.2c-3.1-0.4-5.2-2.9-5-6.4c0.1-1.7,0.3-3.5,0.6-5.8c-1.2,1.1-2.1,1.8-2.8,2.5
		c-9.5,9.5-19.2,19-28.6,28.7c-1.3,1.3-2.1,3.6-2.1,5.5c-0.2,7.1-0.1,14.2-0.1,21.4c0,7.9-4.1,11.9-12,12c-1.4,0-2.7,0-4.5,0
		c0,2.9,0.1,5.4,0,8c-0.1,3.7-2.5,6.1-5.8,6c-3.1-0.1-5.3-2.4-5.4-6c-0.1-2.5,0-5,0-7.8c-4.9-0.4-9-0.9-12.9,3.4
		c-8.6,9.4-17.9,18.1-26.9,27.2c-0.8,0.9-1.6,1.8-3,3.2c2.6-0.1,4.4-0.3,6.2-0.3c3.2,0,5.3,1.6,5.7,4.8c0.4,3.1-1.1,5.6-4.2,6.1
		c-7.9,1.1-15.9,2-23.8,2.5c-3.3,0.2-5.7-2.8-5.4-6.3c0.7-7.6,1.5-15.2,2.4-22.7c0.5-3.9,3-5.8,6.3-5.4c3.3,0.4,5,2.8,4.8,6.8
		c-0.1,1.9-0.2,3.7-0.4,5.6C341.7,359.2,342,359.4,342.2,359.5z M387.5,322.4c7.4,0,14.3,0,21.5,0c0-7.2,0-14.3,0-21.5
		c-7.2,0-14.3,0-21.5,0C387.5,308.2,387.5,315.2,387.5,322.4z"/>
	<path class="st0" d="M392.6,371.8c0-2.4-0.1-4.8,0-7.1c0.2-3.2,2-5.1,5.3-5.2c3.3-0.2,5.5,1.7,5.7,4.7c0.4,5.2,0.4,10.5,0,15.7
		c-0.2,3.1-2.6,4.9-5.8,4.7c-3.1-0.2-5.1-2.1-5.2-5.3C392.5,376.8,392.6,374.3,392.6,371.8z"/>
	<path class="st0" d="M292.5,317.4c-2.2,0-4.5,0.1-6.7,0c-3.5-0.2-5.7-2.5-5.6-5.7c0.1-3.2,2.3-5.4,5.9-5.4c4.5-0.1,9-0.1,13.5,0
		c3.5,0.1,5.9,2.4,5.9,5.5c0,3-2.3,5.4-5.8,5.7c-0.2,0-0.5,0-0.8,0C296.8,317.4,294.6,317.4,292.5,317.4
		C292.5,317.4,292.5,317.4,292.5,317.4z"/>
	<path class="st0" d="M404,417.3c0,2.2,0.1,4.5,0,6.8c-0.2,3.3-2.3,5.6-5.3,5.7c-2.9,0.2-5.7-2-5.8-5.2c-0.2-5-0.2-10,0-15
		c0.2-3.2,2.8-5.2,5.8-5.1c3,0.1,5.1,2.3,5.3,5.7C404,412.5,404,414.9,404,417.3z"/>
	<path class="st0" d="M337.8,317c-2.5,0-5,0.1-7.5,0c-3.2-0.2-5.1-2.1-5.1-5.3c-0.1-3.2,1.7-5.4,4.9-5.6c5.1-0.3,10.2-0.3,15.3,0
		c3.2,0.1,4.9,2.4,5,5.5c0.1,2.9-2.2,5.3-5.5,5.5C342.6,317.2,340.2,317,337.8,317C337.8,317,337.8,317,337.8,317z"/>
</g>
</svg>
