<?xml version="1.0" encoding="utf-8"?>
<!-- Generator: Adobe Illustrator 24.1.0, SVG Export Plug-In . SVG Version: 6.00 Build 0)  -->
<svg version="1.1" id="Layer_2" xmlns="http://www.w3.org/2000/svg" xmlns:xlink="http://www.w3.org/1999/xlink" x="0px" y="0px"
	 viewBox="0 0 357 443.7" style="enable-background:new 0 0 357 443.7;" xml:space="preserve">
<style type="text/css">
	.st0{fill:none;stroke:#888889;stroke-width:3;stroke-miterlimit:10;}
	.st1{fill:#FFFFFF;stroke:#888889;stroke-width:3;stroke-miterlimit:10;}
	.st2{fill:none;stroke:#888889;stroke-width:3;stroke-linecap:round;stroke-miterlimit:10;}
</style>
<g>
	<path class="st0" d="M106.6,404.9c0,0,28,16.5,92.7,13.4c0,0,51.3-1.5,55.6-13c0,0,2.4-12.3-3.6-16.3c0,0-3,9.7-21.8,10.6
		c0,0-39.1,5.4-92.4-1.2c0,0-19.1-4.9-22.4-6.7c-3.2-1.8-4.2-2.4-4.1-5.4c0,0-4,1.7-4.4,8.2C106.4,394.5,105.8,400.1,106.6,404.9z"
		/>
	<path class="st0" d="M251.3,389v-22.3v-7c0,0-15.1,9.2-40,8.8c0,0-56,1.1-78.9-3.3c-23-4.4-20.4-7.6-18.6-10.3c0,0-2.2-1.7-2.3,9.9
		c-0.2,11.7-0.7,21.6-0.7,21.6"/>
	<path class="st0" d="M251.3,359.7c0,0-0.4-3.4-6-5c-5.7-1.6-12.7-7.5-13.6-13c-0.9-5.5-1.6-9-1.2-9.4c0.4-0.4,6.7-2.4,6.8-6.7
		c0,0-14,8.9-55.3,5.1c0,0-24.3-0.3-50.9-9.8c0,0,12.3,22.3-17.4,33.9"/>
	<path class="st0" d="M237.4,325.6c0,0,26.8-18.6,17-51.4c-1.6-5.4-4.6-10.4-8.3-14.6c-2.3-2.6-4.7-5.1-7.6-6.9
		c-3.2-2-6.6-2.3-10.2-2.9c-5.5-0.9-11-1.4-16.6-1.5c0,0-43.3-2.8-60.4,0c-17.1,2.8-26.2,10.5-31.2,29.1c0,0-4.7,13.6,2,25.3
		c6.6,11.7,7.6,17.5,9.1,18.1"/>
	<path class="st0" d="M162.3,250c3.8,0.1,7.5,1,11.2,2.2c4.6,1.6,9.1,3.8,12.9,7c4.5,3.8,7.9,8.8,9.6,14.4
		c1.5,4.9,1.8,10.1,1.4,15.2c-3,36.8-38.2,35.1-38.2,35.1s-23.7,2.7-31.8-25c-0.1-0.2-2.3-10.3-2.6-16.3c-0.1-1.4,0.2-3,0.5-4.4
		c0.7-3.5,1.9-6.9,3.7-10.1c2.4-4.4,5.9-8.1,10-10.9c5.8-4,12.7-6,19.6-7C159.7,250.1,161,250,162.3,250z"/>
	<path class="st0" d="M187.5,312.9c0,0,20.4,33.2,54.8,4.9c0,0,17.5-15.1,8.4-39c-9.1-23.9-34.3-22.7-36.8-22.7
		c-2.5,0-10.7-0.3-22.1,8.8"/>
	<ellipse class="st0" cx="162.5" cy="287.4" rx="21.1" ry="20.4"/>
	<ellipse class="st0" cx="163.5" cy="288.3" rx="8.1" ry="8.6"/>
	<path class="st1" d="M157.3,307.2c0,0-3.8-0.8-8,1.9s-26.7,16.5-26.7,16.5L93.1,345c0,0-35.1,21-37.3,21.8s-17.4,9.3-17.4,9.3
		s-9.7,5.1-14.7-3s5.6-14.2,5.6-14.2l34.9-25.4l43.5-26.5l0.9-0.9c0,0,0.7-1.8,2.8-1.8l8-6.4c0,0,0.1-1.5-0.3-2"/>
	<line class="st2" x1="141.7" y1="290.8" x2="42.1" y2="352"/>
	<path class="st0" d="M236.2,251.6c0,0-7.6-8.1-6.6-15.7c0.1-0.9,0.7-1.8,1.2-2.6c0.6-1,1.4-1.9,2.2-2.7c0.5-0.6,1.1-1.1,1.7-1.6
		c0.8-0.7,1.4-1.2,1.8-2.2c0.4-1.2,0.6-2.5,0.5-3.7c0,0,0-3.2-1.1-3.8c-1.1-0.6-51.3,0-51.3,0c-0.9-0.1-1.8-0.1-2.7-0.2
		c-2.4-0.2-4.7-0.3-7.1-0.5c-3.3-0.2-6.6-0.5-9.8-0.7c-3.6-0.3-7.3-0.6-10.9-0.9c-3.5-0.3-6.9-0.6-10.4-0.9
		c-2.7-0.3-5.5-0.6-8.2-0.9c-0.9-0.1-1.9-0.3-2.8-0.4c-0.2,0-0.5-0.1-0.7-0.1c-0.4,0-0.2-0.1-0.3,0.3c-0.1,0.5,0,1,0,1.5
		c0,1.9,0.1,3.9,0.3,5.8c0.2,2.1,0.3,3.5,1.8,5c3.5,3.5,6.6,7.8,4.7,13.1c-1.1,3-9.9,14.4-12.3,15.2c0,0-10.6,9.1-9.7,25
		c0,0,0.3,9.2,2.3,13.2"/>
	<path class="st0" d="M235.9,219.3l1.1-23.4v-0.8c0,0-27.2-1.9-38.4-1.7c0,0-17.7-0.5-24.4-0.7c-6.7-0.2-24.6-0.2-27.9,0
		c-3.3,0.2-12.9,0.6-12.9,0.6l-0.4,18.1c0,0-1,0-1.3,3.1"/>
	<path class="st0" d="M237,195.1c8.1-5.3,0.3-11,0.3-11s-43.5-1.7-53.8-1.7s-21.2-0.7-27.6-0.7c-5.3,0-10.7,0.1-16,0.1
		c-2.4,0-4.7-0.1-7.1-0.1c-0.7,0-1.3,1.1-1.6,1.6c-0.5,0.7-0.9,1.6-1.1,2.4c-0.7,2.5,0.3,4.8,2.1,6.6c0.4,0.4,0.8,0.7,1.2,1.1"/>
	<path class="st0" d="M238.3,179.3c-0.4,0.1-0.9,0.1-1.3,0.1c-6.5,0-13-0.5-19.5-0.8c-6.6-0.3-13.2-0.5-19.7-0.8
		c-6.4-0.3-12.8-0.7-19.2-0.7c-6.6,0-13.2-0.1-19.8-0.1c-8.6,0-17.3-0.1-25.9-0.1c-0.4,0-0.8,0-1.2-0.2c-0.4-0.2-0.6-0.6-0.8-0.9
		c-1.8-3.5,1.1-7.5,1.6-11.4c34.6-1.8,69.3-0.9,103.7,2.9c0.6,0.1,1.3,0.1,1.8,0.5c0.5,0.3,0.8,0.8,1,1.4c1.3,2.7,1.5,5.9,0.4,8.7
		c-0.2,0.5-0.4,1-0.8,1.2C238.5,179.2,238.4,179.3,238.3,179.3z"/>
	<path class="st0" d="M238.3,179.3c0,0-1.3,1.9-1.2,2.4s0.3,2.4,0.3,2.4"/>
	<path class="st0" d="M131.7,176.8c0.1,0.3,0.2,0.6,0.4,0.9c0.2,0.3,0.5,0.5,0.7,0.9c0.2,0.4,0.2,0.7,0.2,1.1c0,0.7,0,1.4,0,2"/>
	<path class="st0" d="M237.9,167.8c0,0-3.5-6.4-8.2-13.8c-4.8-7.4-11.1-28.8-11.1-34.9c-0.1-6.1-1-41-1-41s0.1-1.8-3.3-2.5
		c0,0-12.3-4.3-27.1-4c-7.6,0.2-15.3,0.6-22.8,1.9c-1.4,0.2-3,0.4-4.4,0.8c-1.2,0.2-2.3,0.7-3.4,1.1c-0.7,0.3-0.9,0.2-0.5,0.9
		c0.2,0.5,0.4,0.9,0.4,1.4c-0.1,1.3-1.7,33.7-2.1,36.7c-0.4,3-4.6,25.9-11.6,35.6c-6.9,9.7-10.5,14.5-10.5,14.5"/>
	<path class="st0" d="M217.5,78c0,0,12-2.6,10.3-13.7c-1.7-11.1-6.2-11.6-6.2-11.6l-1.6-3.8c0,0-1.5-3.3-8.5-4.9
		c-7-1.6-26.1-2-31.4-1.9s-18.7,1-23.4,3.1l-3.3,3.5v2.4c0,0-11.6,5.9-5.1,19.3c0,0,2.2,4.4,7.6,5.7"/>
</g>
</svg>
