<?xml version="1.0" encoding="utf-8"?>
<!-- Generator: Adobe Illustrator 24.1.0, SVG Export Plug-In . SVG Version: 6.00 Build 0)  -->
<svg version="1.1" xmlns="http://www.w3.org/2000/svg" xmlns:xlink="http://www.w3.org/1999/xlink" x="0px" y="0px"
	 viewBox="0 0 1400 1024" style="enable-background:new 0 0 1400 1024;" xml:space="preserve">
<style type="text/css">
	.st0{fill:#FFFFFF;}
	.st1{fill:#6D95B7;}
	.st2{fill:none;stroke:#000000;stroke-width:0.5;stroke-miterlimit:10;}
	.st3{fill:none;stroke:#6E96B7;stroke-width:6.5211;stroke-miterlimit:10;}
	.st4{fill:#FFFFFF;stroke:#6E96B7;stroke-width:6.5211;stroke-miterlimit:10;}
	.st5{fill:none;stroke:#6E96B7;stroke-width:6.5211;stroke-linecap:round;stroke-miterlimit:10;}
</style>
<g id="Payscape">
</g>
<g id="Helpbot">
</g>
<g id="Layer_3">
	<rect x="0" y="2.5" class="st0" width="1400" height="1024"/>
	<g>
		<path class="st3" d="M576.2,881.3c0,0,60.8,35.8,201.5,29.2c0,0,111.5-3.4,120.8-28.3c0,0,5.2-26.6-7.9-35.5c0,0-6.6,21.2-47.3,23
			c0,0-85,11.8-200.8-2.6c0,0-41.6-10.6-48.6-14.6c-7-4-9.1-5.2-8.9-11.7c0,0-8.7,3.7-9.5,17.7C575.7,858.6,574.5,870.8,576.2,881.3
			z"/>
		<path class="st3" d="M890.7,846.7v-48.5v-15.2c0,0-32.8,20-87,19c0,0-121.7,2.3-171.6-7.2s-44.3-16.5-40.5-22.4
			c0,0-4.7-3.8-5,21.6c-0.3,25.4-1.4,46.9-1.4,46.9"/>
		<path class="st3" d="M890.7,782.9c0,0-0.8-7.4-13.1-10.8s-27.5-16.3-29.5-28.2c-2-12-3.4-19.6-2.5-20.5
			c0.9-0.9,14.5-5.2,14.9-14.6c0,0-30.4,19.3-120.2,11.2c0,0-52.8-0.7-110.7-21.3c0,0,26.7,48.6-37.9,73.7"/>
		<path class="st3" d="M860.5,708.8c0,0,58.2-40.5,37-111.7c-3.5-11.7-10-22.5-18.1-31.7c-4.9-5.6-10.2-11-16.6-15
			c-7-4.3-14.3-5-22.3-6.3c-11.9-1.9-24-3-36-3.2c0,0-94-6.1-131.2,0c-37.2,6.1-56.9,22.9-67.9,63.3c0,0-10.2,29.6,4.3,55.1
			c14.5,25.4,16.4,38,19.9,39.2"/>
		<path class="st3" d="M697.2,544.6c8.3,0.2,16.4,2.1,24.4,4.8c10.1,3.4,19.8,8.4,28,15.2c9.9,8.2,17.2,19.1,20.9,31.4
			c3.3,10.6,3.9,21.9,3,32.9c-6.6,80-83,76.4-83,76.4s-51.4,5.8-69.2-54.4c-0.2-0.5-5-22.4-5.7-35.5c-0.2-3.1,0.5-6.5,1.1-9.5
			c1.5-7.6,4.1-15.1,7.9-21.9c5.3-9.5,12.8-17.6,21.8-23.7C659,551.5,674,547,689,545C691.7,544.7,694.5,544.5,697.2,544.6z"/>
		<path class="st3" d="M752,681.3c0,0,44.3,72.3,119.1,10.7c0,0,38.1-32.8,18.2-84.7c-19.9-51.9-74.5-49.2-80-49.2
			s-23.2-0.7-48.1,19.1"/>
		<ellipse class="st3" cx="697.8" cy="625.9" rx="45.9" ry="44.3"/>
		<ellipse class="st3" cx="700" cy="627.7" rx="17.6" ry="18.6"/>
		<path class="st4" d="M686.4,668.9c0,0-8.3-1.7-17.3,4.1c-9,5.8-58.1,35.8-58.1,35.8l-64,42.3c0,0-76.4,45.6-81,47.4
			c-4.6,1.9-37.7,20.2-37.7,20.2s-21,11.1-31.9-6.4c-10.9-17.6,12.2-30.9,12.2-30.9l75.8-55.2l94.5-57.6l2-2c0,0,1.4-3.8,6-3.8
			l17.5-14c0,0,0.2-3.3-0.6-4.2"/>
		<line class="st5" x1="652.5" y1="633.3" x2="436.1" y2="766.4"/>
		<path class="st3" d="M858.1,548.1c0,0-16.6-17.7-14.4-34.1c0.3-2,1.5-4,2.5-5.6c1.4-2.1,3-4.1,4.8-5.9c1.2-1.2,2.4-2.3,3.7-3.4
			c1.8-1.5,3-2.6,3.9-4.9c1-2.6,1.4-5.4,1.1-8.1c0,0,0-6.9-2.4-8.3s-111.6,0-111.6,0c-2-0.1-4-0.3-5.9-0.4
			c-5.1-0.4-10.3-0.7-15.4-1.1c-7.1-0.5-14.3-1.1-21.4-1.6c-7.9-0.6-15.9-1.3-23.8-1.9c-7.5-0.6-15.1-1.3-22.6-2
			c-6-0.6-12-1.2-17.9-2c-2-0.3-4-0.6-6-0.9c-0.4-0.1-1-0.3-1.5-0.3c-0.8,0.1-0.5-0.1-0.6,0.7c-0.1,1,0,2.2,0,3.2
			c0.1,4.2,0.3,8.5,0.7,12.7c0.4,4.5,0.7,7.6,4,10.9c7.6,7.5,14.3,17,10.3,28.4c-2.3,6.4-21.5,31.3-26.6,33.1
			c0,0-22.9,19.7-21.1,54.3c0,0,0.6,20.1,5,28.7"/>
		<path class="st3" d="M857.3,477.8l2.5-50.9v-1.7c0,0-59.1-4-83.4-3.8c0,0-38.4-1.2-53-1.6s-53.5-0.4-60.7,0
			c-7.2,0.4-28,1.4-28,1.4l-0.8,39.4c0,0-2.2,0.1-2.7,6.8"/>
		<path class="st3" d="M859.8,425.2c17.5-11.4,0.7-23.9,0.7-23.9s-94.6-3.7-116.9-3.7c-22.3,0-46-1.5-60.1-1.5
			c-11.6,0-23.2,0.1-34.8,0.1c-5.1,0-10.3-0.1-15.4-0.2c-1.4,0-2.8,2.3-3.5,3.4c-1.1,1.6-2,3.4-2.5,5.2c-1.5,5.4,0.7,10.5,4.6,14.3
			c0.9,0.8,1.8,1.6,2.7,2.3"/>
		<path class="st3" d="M862.5,390.8c-0.9,0.3-1.9,0.3-2.8,0.3c-14.1,0-28.3-1.1-42.5-1.7c-14.3-0.6-28.6-1.1-42.9-1.7
			c-13.9-0.6-27.8-1.5-41.7-1.5c-14.3-0.1-28.7-0.1-43-0.2c-18.8-0.1-37.6-0.2-56.3-0.2c-0.9,0-1.7,0-2.5-0.4
			c-0.8-0.4-1.4-1.2-1.8-2.1c-3.9-7.6,2.3-16.3,3.5-24.8c75.1-4,150.6-1.9,225.4,6.3c1.3,0.1,2.7,0.3,3.8,1.1c1,0.7,1.7,1.8,2.2,3
			c2.8,5.9,3.2,12.9,1,19c-0.4,1-0.9,2.1-1.8,2.7C862.9,390.7,862.7,390.8,862.5,390.8z"/>
		<path class="st3" d="M862.5,390.8c0,0-2.9,4.1-2.7,5.2c0.2,1.1,0.7,5.2,0.7,5.2"/>
		<path class="st3" d="M630.7,385.4c0.2,0.7,0.5,1.4,0.8,2c0.4,0.7,1.1,1.2,1.5,1.9c0.5,0.8,0.4,1.5,0.3,2.4c0,1.5,0,3-0.1,4.4"/>
		<path class="st3" d="M861.7,365.9c0,0-7.5-14-17.9-30c-10.4-16-24.1-62.6-24.2-75.9c-0.2-13.3-2.1-89.2-2.1-89.2s0.2-3.9-7.1-5.4
			c0,0-26.7-9.4-58.8-8.7c-16.5,0.3-33.2,1.3-49.5,4c-3.1,0.5-6.4,1-9.6,1.6c-2.5,0.5-5,1.5-7.3,2.4c-1.5,0.6-1.9,0.5-1.1,2
			c0.5,1,0.9,1.9,0.9,3.1c-0.1,2.8-3.7,73.2-4.5,79.7s-10.1,56.2-25.1,77.4c-15.1,21.2-22.7,31.6-22.7,31.6"/>
		<path class="st3" d="M817.4,170.8c0,0,26.2-5.7,22.5-29.8c-3.7-24.1-13.5-25.1-13.5-25.1l-3.4-8.2c0,0-3.2-7.2-18.5-10.7
			c-15.3-3.5-56.8-4.4-68.2-4.2c-11.4,0.2-40.6,2.1-50.8,6.7l-7.2,7.6v5.1c0,0-25.3,12.8-11,42.1c0,0,4.8,9.6,16.6,12.5"/>
	</g>
</g>
</svg>
