<?xml version="1.0" encoding="utf-8"?>
<!-- Generator: Adobe Illustrator 24.1.0, SVG Export Plug-In . SVG Version: 6.00 Build 0)  -->
<svg version="1.1" id="Layer_1" xmlns="http://www.w3.org/2000/svg" xmlns:xlink="http://www.w3.org/1999/xlink" x="0px" y="0px"
	 viewBox="0 0 792 612" style="enable-background:new 0 0 792 612;" xml:space="preserve">
<style type="text/css">
	.st0{fill:#F1AA6B;}
</style>
<g>
	<path class="st0" d="M545.72,252.04c-4.36,17.04-8.33,22.07-25.99,33.16c-0.04,2.57,1.19,3.71,3.81,4.43
		c34.61,9.51,58.34,40.51,58.43,76.44c0.1,40.76,0.02,81.52,0.02,122.29c0,1.09,0,2.18,0,3.64c-1.69,0-3.03,0-4.37,0
		c-113.77,0-227.54,0-341.31,0c-9.99,0-14.39-4.41-14.39-14.41c0-41.14,0.02-82.27-0.07-123.41c0-2.13-0.57-4.46-1.53-6.37
		c-13.93-27.85-13.97-55.66-0.11-83.55c1-2.02,1.62-4.47,1.63-6.72c0.1-33.13,0.07-66.27,0.07-99.4c0-9.69,4.54-14.25,14.17-14.25
		c62.89,0,125.77-0.02,188.66,0.06c2.97,0,4.97-0.76,7.07-2.99c12.79-13.56,28.6-20.76,47.26-20.99c11.48-0.14,23.06-0.4,34.45,0.8
		c27.86,2.92,52.1,27.66,55.81,55.42c1.53,11.43-0.37,22.4-2.8,33.4c-0.6,2.73-0.52,5.08,0.87,7.8c7.57,14.8-2.13,32.27-18.88,34.42
		C547.66,251.91,546.79,251.95,545.72,252.04z M234.09,244.44c37.31-38.51,93.97-36.27,127.84-3.67
		c34.14,32.86,37.55,85.28,7.91,121.72c-14.74,18.12-33.78,29.23-56.89,32.46c-30.62,4.28-56.73-5.54-78.76-27.48
		c0,37.8,0,75.07,0,112.22c112.08,0,223.88,0,335.6,0c0-36.01,0-71.72,0-107.49c-24,0-47.79,0-71.52,0c0,4.05,0,7.84,0,11.9
		c16,0,31.7,0,47.46,0c0,12.07,0,23.86,0,35.57c-36.05,0-71.84,0-107.54,0c0-12.01,0-23.71,0-35.82c16.01,0,31.8,0,47.49,0
		c0-4.21,0-8.01,0-12.06c-28.01,0-55.72,0-83.33,0c-0.17-0.5-0.31-0.72-0.32-0.95c-2.14-37.49,22.11-71.25,58.48-81.24
		c2.66-0.73,3.8-1.93,3.27-4.06c-5.81-4.34-11.65-8.61-16.58-13.75c-5.17-5.38-7.47-12.52-8.82-19.76c-1.22-0.1-2.1-0.13-2.96-0.25
		c-15.96-2.07-26.06-18.33-19.49-32.68c2.52-5.51,1.39-9.98,0.17-15.02c-60.66,0-121.24,0-181.99,0
		C234.09,217.46,234.09,230.65,234.09,244.44z M461.85,179.49c-9.27,2.46-11.88,5.87-11.88,15.4c0,17.13-0.1,34.26,0.04,51.38
		c0.12,14.44,10.26,26.92,24.52,28.87c9.09,1.24,18.44,0.72,27.68,0.75c19,0.06,31.76-12.72,31.78-31.7c0.02-16,0.01-32,0.01-48.01
		c0-1.33,0-2.67,0-4.04c4.22,0,8.01,0,12.04,0c0,3.98,0,7.69,0,11.41c3.12,0.61,5.98,1.18,9.09,1.79c0.62-2.98,1.21-5.77,1.77-8.57
		c6.19-30.46-14.54-60.3-45.24-64.14c-10.35-1.29-20.95-0.76-31.44-0.75c-16.41,0.03-30.25,6.24-40.95,18.65
		c-13.95,16.17-16.09,34.73-10.25,54.79c3.03-0.61,5.8-1.17,8.87-1.79c0.48-7.99-1.29-16.47,3.49-23.94
		c4.76-7.45,11.45-11.34,20.48-11.7C461.85,172.08,461.85,175.8,461.85,179.49z M420.42,156.14c-61.98,0-124.14,0-186.2,0
		c0,12.06,0,23.85,0,35.48c60.11,0,119.91,0,179.28,0c0.59-6.26,0.7-12.3,1.84-18.13C416.48,167.68,418.64,162.06,420.42,156.14z
		 M229.46,339.38c0.88-0.33,1.25-0.41,1.57-0.6c20.32-11.71,40.66-23.4,60.9-35.26c1.11-0.65,1.91-2.77,1.92-4.21
		c0.12-22.49,0.09-44.97,0.08-67.46c0-1.1-0.1-2.19-0.18-3.72c-26.82,2.99-47.51,15.48-61.05,38.51
		C218.96,290.02,218.5,314.4,229.46,339.38z M306.26,228.47c-0.15,0.52-0.28,0.75-0.28,0.98c-0.02,23.61-0.07,47.22,0.06,70.82
		c0.01,1.2,1.29,2.85,2.43,3.53c11.71,6.92,23.5,13.69,35.28,20.49c8.73,5.04,17.46,10.07,26.21,15.12
		C394.23,291.39,360.63,232.3,306.26,228.47z M235.51,350.06c17.29,23.01,39.61,34.86,67.9,33.71
		c25.52-1.04,45.57-12.84,60.72-33.53c-0.72-0.57-1.07-0.91-1.48-1.15c-20.2-11.67-40.39-23.37-60.67-34.9
		c-1.15-0.66-3.38-0.42-4.64,0.27c-7.65,4.21-15.16,8.67-22.72,13.04C261.77,334.91,248.92,342.33,235.51,350.06z M414.15,359.95
		c18.34,0,36.06,0.04,53.79-0.11c0.86-0.01,2.13-1.46,2.49-2.49c2.65-7.53,4.84-15.23,7.76-22.65c1.83-4.64,0.62-8.4-1.5-12.56
		c-6.32,3.77-12.47,7.44-18.9,11.26c-1.96-9.64-3.79-18.66-5.71-28.12C429.94,317.12,417.41,334.95,414.15,359.95z M569.49,359.95
		c-1.76-26.57-21.29-47.72-37.72-54.15c-1.84,9.04-3.67,18.04-5.61,27.58c-6.49-3.87-12.63-7.54-18.78-11.21
		c-3.15,5.77-3.29,7.12-1.46,12.59c2.49,7.45,5.05,14.88,7.39,22.37c0.68,2.17,1.66,2.9,3.94,2.87c8.99-0.14,17.98-0.06,26.97-0.06
		C552.57,359.95,560.91,359.95,569.49,359.95z M450.14,407.72c28.06,0,55.84,0,83.55,0c0-4.05,0-7.84,0-11.57
		c-27.99,0-55.68,0-83.55,0C450.14,400.03,450.14,403.73,450.14,407.72z M501.57,359.78c-2.56-7.71-4.95-15.05-7.48-22.35
		c-0.23-0.67-1.44-1.39-2.17-1.37c-0.73,0.02-1.85,0.8-2.09,1.5c-2.53,7.29-4.92,14.62-7.44,22.22
		C488.86,359.78,494.94,359.78,501.57,359.78z M508.39,291.01c-0.08-2.6-1.17-3.2-3.35-3.17c-8.72,0.12-17.44,0.12-26.15,0
		c-2.18-0.03-3.28,0.57-3.25,3.19c4.97,2.48,10.04,5.07,15.19,7.5c0.73,0.35,1.95,0.23,2.71-0.14
		C498.47,296.04,503.33,293.54,508.39,291.01z M437.87,216.1c-7.64-0.2-12.41,6.94-11.9,12.73c0.56,6.25,5.94,11.17,11.9,10.6
		C437.87,231.75,437.87,224.06,437.87,216.1z M546.15,239.71c7.19-0.31,12.29-5.86,11.81-12.68c-0.44-6.25-5.79-11.13-11.81-10.71
		C546.15,224.11,546.15,231.91,546.15,239.71z M504.11,306.22c4.91,2.93,9.09,5.42,13.68,8.16c0.92-4.74,1.73-8.91,2.6-13.4
		C513.83,299.69,510.01,304.65,504.11,306.22z M463.52,301.06c0.94,4.66,1.77,8.73,2.7,13.31c4.58-2.73,8.73-5.21,13.7-8.17
		C473.87,304.62,470.07,299.55,463.52,301.06z M487.7,315.96c0.64,1.97,1.18,4.14,2.08,6.15c0.35,0.79,1.51,1.71,2.27,1.69
		c0.77-0.03,1.82-1.01,2.18-1.83c0.88-2,1.44-4.15,2.07-6.04C493.26,312.74,490.54,312.67,487.7,315.96z"/>
	<path class="st0" d="M474.14,263.83c8.94,0,17.56,0.45,26.12-0.11c12.3-0.8,22.4-12.3,21.35-23.63c-3.81,0-7.63,0-11.42,0
		c-1.8,8.57-5.77,11.82-14.31,11.83c-7.2,0.01-14.4,0-21.75,0C474.14,256.03,474.14,259.72,474.14,263.83z M498.5,158.65
		c6.08,12.15,11.97,23.91,18,35.96c3.74-1.9,7.11-3.6,10.67-5.41c-6.08-12.16-11.97-23.93-17.97-35.9
		C505.53,155.14,502.21,156.79,498.5,158.65z M479.22,153.27c-3.78,1.9-7.09,3.57-10.7,5.39c6.03,12.04,11.96,23.88,17.99,35.93
		c3.79-1.9,7.1-3.57,10.68-5.37C491.19,177.23,485.3,165.44,479.22,153.27z M515.96,203.93c-3.26,0.01-5.96,2.72-5.94,5.99
		c0.01,3.25,2.74,5.96,5.98,5.95c3.24-0.01,5.96-2.75,5.95-5.99C521.94,206.62,519.21,203.92,515.96,203.93z M473.94,210.05
		c0.09-3.24-2.56-6.03-5.81-6.12c-3.25-0.09-6.03,2.55-6.12,5.81c-0.09,3.25,2.56,6.04,5.81,6.13
		C471.05,215.96,473.85,213.3,473.94,210.05z"/>
	<path class="st0" d="M305.78,168.08c-4.12,0-7.81,0-11.62,0c0,3.97,0,7.75,0,11.55c4,0,7.78,0,11.62,0
		C305.78,175.69,305.78,172,305.78,168.08z M281.76,168.15c-4.07,0-7.84,0-11.53,0c0,4.05,0,7.83,0,11.54c3.99,0,7.68,0,11.53,0
		C281.76,175.81,281.76,172.12,281.76,168.15z M246.08,179.7c4.11,0,7.81,0,11.62,0c0-3.97,0-7.75,0-11.55c-4,0-7.78,0-11.62,0
		C246.08,172.09,246.08,175.78,246.08,179.7z"/>
	<path class="st0" d="M438.24,432.14c35.96,0,71.65,0,107.54,0c0,11.86,0,23.56,0,35.55c-35.71,0-71.49,0-107.54,0
		C438.24,456.01,438.24,444.23,438.24,432.14z M533.81,444.23c-28.06,0-55.84,0-83.55,0c0,4.05,0,7.84,0,11.57
		c27.99,0,55.68,0,83.55,0C533.81,451.92,533.81,448.22,533.81,444.23z"/>
	<path class="st0" d="M282.1,443.71c0-3.93,0-7.63,0-11.53c39.94,0,79.72,0,119.68,0c0,3.86,0,7.56,0,11.53
		C361.99,443.71,322.21,443.71,282.1,443.71z"/>
	<path class="st0" d="M377.78,456.25c0,3.95,0,7.65,0,11.54c-31.85,0-63.54,0-95.54,0c0-3.69,0-7.48,0-11.54
		C313.91,456.25,345.69,456.25,377.78,456.25z"/>
	<path class="st0" d="M317.77,408.23c0,3.95,0,7.65,0,11.54c-11.85,0-23.54,0-35.53,0c0-3.69,0-7.48,0-11.54
		C293.91,408.23,305.68,408.23,317.77,408.23z"/>
	<path class="st0" d="M330.03,419.66c0-3.92,0-7.53,0-11.41c11.86,0,23.63,0,35.66,0c0,3.73,0,7.51,0,11.41
		C353.78,419.66,341.91,419.66,330.03,419.66z"/>
	<path class="st0" d="M258.08,419.69c0-3.92,0-7.61,0-11.51c3.93,0,7.71,0,11.67,0c0,3.84,0,7.53,0,11.51
		C265.99,419.69,262.2,419.69,258.08,419.69z"/>
	<path class="st0" d="M258.07,443.69c0-3.88,0-7.57,0-11.49c3.92,0,7.69,0,11.67,0c0,3.81,0,7.5,0,11.49
		C266.01,443.69,262.23,443.69,258.07,443.69z"/>
	<path class="st0" d="M269.75,456.2c0,3.85,0,7.54,0,11.51c-3.77,0-7.55,0-11.58,0c0-3.74,0-7.52,0-11.51
		C261.92,456.2,265.61,456.2,269.75,456.2z"/>
	<path class="st0" d="M474.14,263.83c0-4.1,0-7.8,0-11.91c7.35,0,14.55,0.01,21.75,0c8.54-0.01,12.51-3.26,14.31-11.83
		c3.78,0,7.61,0,11.42,0c1.04,11.34-9.06,22.83-21.35,23.63C491.7,264.28,483.07,263.83,474.14,263.83z"/>
	<path class="st0" d="M498.5,158.65c3.71-1.86,7.03-3.51,10.71-5.35c5.99,11.98,11.88,23.75,17.97,35.9
		c-3.56,1.81-6.93,3.51-10.67,5.41C510.47,182.56,504.58,170.8,498.5,158.65z"/>
	<path class="st0" d="M479.22,153.27c6.08,12.17,11.97,23.95,17.97,35.95c-3.58,1.8-6.89,3.47-10.68,5.37
		c-6.03-12.05-11.96-23.89-17.99-35.93C472.12,156.84,475.44,155.17,479.22,153.27z"/>
	<path class="st0" d="M515.96,203.93c3.25-0.01,5.98,2.69,5.99,5.95c0.01,3.24-2.71,5.98-5.95,5.99c-3.25,0.01-5.97-2.7-5.98-5.95
		C510,206.65,512.7,203.94,515.96,203.93z"/>
	<path class="st0" d="M473.94,210.05c-0.09,3.24-2.89,5.91-6.13,5.82c-3.25-0.09-5.9-2.88-5.81-6.13c0.09-3.26,2.87-5.9,6.12-5.81
		C471.38,204.02,474.03,206.81,473.94,210.05z"/>
	<path class="st0" d="M305.78,168.08c0,3.92,0,7.61,0,11.55c-3.84,0-7.62,0-11.62,0c0-3.81,0-7.59,0-11.55
		C297.97,168.08,301.66,168.08,305.78,168.08z"/>
	<path class="st0" d="M281.76,168.15c0,3.97,0,7.66,0,11.54c-3.85,0-7.55,0-11.53,0c0-3.72,0-7.5,0-11.54
		C273.91,168.15,277.69,168.15,281.76,168.15z"/>
	<path class="st0" d="M246.08,179.7c0-3.92,0-7.61,0-11.55c3.84,0,7.62,0,11.62,0c0,3.81,0,7.59,0,11.55
		C253.89,179.7,250.2,179.7,246.08,179.7z"/>
</g>
</svg>
