<?xml version="1.0" encoding="utf-8"?>
<!-- Generator: Adobe Illustrator 24.1.0, SVG Export Plug-In . SVG Version: 6.00 Build 0)  -->
<svg version="1.1" id="Layer_1" xmlns="http://www.w3.org/2000/svg" xmlns:xlink="http://www.w3.org/1999/xlink" x="0px" y="0px"
	 viewBox="0 0 792 612" style="enable-background:new 0 0 792 612;" xml:space="preserve">
<style type="text/css">
	.st0{fill:#FFFFFF;}
</style>
<g>
	<path class="st0" d="M545.7,252c-4.4,17-8.3,22.1-26,33.2c0,2.6,1.2,3.7,3.8,4.4c34.6,9.5,58.3,40.5,58.4,76.4
		c0.1,40.8,0,81.5,0,122.3c0,1.1,0,2.2,0,3.6c-1.7,0-3,0-4.4,0c-113.8,0-227.5,0-341.3,0c-10,0-14.4-4.4-14.4-14.4
		c0-41.1,0-82.3-0.1-123.4c0-2.1-0.6-4.5-1.5-6.4c-13.9-27.9-14-55.7-0.1-83.5c1-2,1.6-4.5,1.6-6.7c0.1-33.1,0.1-66.3,0.1-99.4
		c0-9.7,4.5-14.2,14.2-14.2c62.9,0,125.8,0,188.7,0.1c3,0,5-0.8,7.1-3c12.8-13.6,28.6-20.8,47.3-21c11.5-0.1,23.1-0.4,34.5,0.8
		c27.9,2.9,52.1,27.7,55.8,55.4c1.5,11.4-0.4,22.4-2.8,33.4c-0.6,2.7-0.5,5.1,0.9,7.8c7.6,14.8-2.1,32.3-18.9,34.4
		C547.7,251.9,546.8,251.9,545.7,252z M234.1,244.4c37.3-38.5,94-36.3,127.8-3.7c34.1,32.9,37.5,85.3,7.9,121.7
		c-14.7,18.1-33.8,29.2-56.9,32.5c-30.6,4.3-56.7-5.5-78.8-27.5c0,37.8,0,75.1,0,112.2c112.1,0,223.9,0,335.6,0c0-36,0-71.7,0-107.5
		c-24,0-47.8,0-71.5,0c0,4,0,7.8,0,11.9c16,0,31.7,0,47.5,0c0,12.1,0,23.9,0,35.6c-36,0-71.8,0-107.5,0c0-12,0-23.7,0-35.8
		c16,0,31.8,0,47.5,0c0-4.2,0-8,0-12.1c-28,0-55.7,0-83.3,0c-0.2-0.5-0.3-0.7-0.3-1c-2.1-37.5,22.1-71.2,58.5-81.2
		c2.7-0.7,3.8-1.9,3.3-4.1c-5.8-4.3-11.6-8.6-16.6-13.8c-5.2-5.4-7.5-12.5-8.8-19.8c-1.2-0.1-2.1-0.1-3-0.2
		c-16-2.1-26.1-18.3-19.5-32.7c2.5-5.5,1.4-10,0.2-15c-60.7,0-121.2,0-182,0C234.1,217.5,234.1,230.6,234.1,244.4z M461.9,179.5
		c-9.3,2.5-11.9,5.9-11.9,15.4c0,17.1-0.1,34.3,0,51.4c0.1,14.4,10.3,26.9,24.5,28.9c9.1,1.2,18.4,0.7,27.7,0.8
		c19,0.1,31.8-12.7,31.8-31.7c0-16,0-32,0-48c0-1.3,0-2.7,0-4c4.2,0,8,0,12,0c0,4,0,7.7,0,11.4c3.1,0.6,6,1.2,9.1,1.8
		c0.6-3,1.2-5.8,1.8-8.6c6.2-30.5-14.5-60.3-45.2-64.1c-10.4-1.3-21-0.8-31.4-0.8c-16.4,0-30.2,6.2-41,18.6
		c-14,16.2-16.1,34.7-10.2,54.8c3-0.6,5.8-1.2,8.9-1.8c0.5-8-1.3-16.5,3.5-23.9c4.8-7.4,11.5-11.3,20.5-11.7
		C461.9,172.1,461.9,175.8,461.9,179.5z M420.4,156.1c-62,0-124.1,0-186.2,0c0,12.1,0,23.9,0,35.5c60.1,0,119.9,0,179.3,0
		c0.6-6.3,0.7-12.3,1.8-18.1C416.5,167.7,418.6,162.1,420.4,156.1z M229.5,339.4c0.9-0.3,1.2-0.4,1.6-0.6
		c20.3-11.7,40.7-23.4,60.9-35.3c1.1-0.6,1.9-2.8,1.9-4.2c0.1-22.5,0.1-45,0.1-67.5c0-1.1-0.1-2.2-0.2-3.7
		c-26.8,3-47.5,15.5-61.1,38.5C219,290,218.5,314.4,229.5,339.4z M306.3,228.5c-0.1,0.5-0.3,0.8-0.3,1c0,23.6-0.1,47.2,0.1,70.8
		c0,1.2,1.3,2.9,2.4,3.5c11.7,6.9,23.5,13.7,35.3,20.5c8.7,5,17.5,10.1,26.2,15.1C394.2,291.4,360.6,232.3,306.3,228.5z
		 M235.5,350.1c17.3,23,39.6,34.9,67.9,33.7c25.5-1,45.6-12.8,60.7-33.5c-0.7-0.6-1.1-0.9-1.5-1.1c-20.2-11.7-40.4-23.4-60.7-34.9
		c-1.1-0.7-3.4-0.4-4.6,0.3c-7.6,4.2-15.2,8.7-22.7,13C261.8,334.9,248.9,342.3,235.5,350.1z M414.1,360c18.3,0,36.1,0,53.8-0.1
		c0.9,0,2.1-1.5,2.5-2.5c2.6-7.5,4.8-15.2,7.8-22.6c1.8-4.6,0.6-8.4-1.5-12.6c-6.3,3.8-12.5,7.4-18.9,11.3c-2-9.6-3.8-18.7-5.7-28.1
		C429.9,317.1,417.4,335,414.1,360z M569.5,360c-1.8-26.6-21.3-47.7-37.7-54.1c-1.8,9-3.7,18-5.6,27.6c-6.5-3.9-12.6-7.5-18.8-11.2
		c-3.1,5.8-3.3,7.1-1.5,12.6c2.5,7.5,5,14.9,7.4,22.4c0.7,2.2,1.7,2.9,3.9,2.9c9-0.1,18-0.1,27-0.1C552.6,360,560.9,360,569.5,360z
		 M450.1,407.7c28.1,0,55.8,0,83.5,0c0-4,0-7.8,0-11.6c-28,0-55.7,0-83.5,0C450.1,400,450.1,403.7,450.1,407.7z M501.6,359.8
		c-2.6-7.7-5-15-7.5-22.4c-0.2-0.7-1.4-1.4-2.2-1.4c-0.7,0-1.9,0.8-2.1,1.5c-2.5,7.3-4.9,14.6-7.4,22.2
		C488.9,359.8,494.9,359.8,501.6,359.8z M508.4,291c-0.1-2.6-1.2-3.2-3.4-3.2c-8.7,0.1-17.4,0.1-26.1,0c-2.2,0-3.3,0.6-3.2,3.2
		c5,2.5,10,5.1,15.2,7.5c0.7,0.4,2,0.2,2.7-0.1C498.5,296,503.3,293.5,508.4,291z M437.9,216.1c-7.6-0.2-12.4,6.9-11.9,12.7
		c0.6,6.2,5.9,11.2,11.9,10.6C437.9,231.8,437.9,224.1,437.9,216.1z M546.2,239.7c7.2-0.3,12.3-5.9,11.8-12.7
		c-0.4-6.2-5.8-11.1-11.8-10.7C546.2,224.1,546.2,231.9,546.2,239.7z M504.1,306.2c4.9,2.9,9.1,5.4,13.7,8.2
		c0.9-4.7,1.7-8.9,2.6-13.4C513.8,299.7,510,304.6,504.1,306.2z M463.5,301.1c0.9,4.7,1.8,8.7,2.7,13.3c4.6-2.7,8.7-5.2,13.7-8.2
		C473.9,304.6,470.1,299.5,463.5,301.1z M487.7,316c0.6,2,1.2,4.1,2.1,6.1c0.4,0.8,1.5,1.7,2.3,1.7c0.8,0,1.8-1,2.2-1.8
		c0.9-2,1.4-4.1,2.1-6C493.3,312.7,490.5,312.7,487.7,316z"/>
	<path class="st0" d="M474.1,263.8c8.9,0,17.6,0.5,26.1-0.1c12.3-0.8,22.4-12.3,21.3-23.6c-3.8,0-7.6,0-11.4,0
		c-1.8,8.6-5.8,11.8-14.3,11.8c-7.2,0-14.4,0-21.8,0C474.1,256,474.1,259.7,474.1,263.8z M498.5,158.6c6.1,12.1,12,23.9,18,36
		c3.7-1.9,7.1-3.6,10.7-5.4c-6.1-12.2-12-23.9-18-35.9C505.5,155.1,502.2,156.8,498.5,158.6z M479.2,153.3
		c-3.8,1.9-7.1,3.6-10.7,5.4c6,12,12,23.9,18,35.9c3.8-1.9,7.1-3.6,10.7-5.4C491.2,177.2,485.3,165.4,479.2,153.3z M516,203.9
		c-3.3,0-6,2.7-5.9,6c0,3.2,2.7,6,6,5.9c3.2,0,6-2.8,6-6C521.9,206.6,519.2,203.9,516,203.9z M473.9,210.1c0.1-3.2-2.6-6-5.8-6.1
		s-6,2.6-6.1,5.8c-0.1,3.2,2.6,6,5.8,6.1C471,216,473.9,213.3,473.9,210.1z"/>
	<path class="st0" d="M305.8,168.1c-4.1,0-7.8,0-11.6,0c0,4,0,7.8,0,11.6c4,0,7.8,0,11.6,0C305.8,175.7,305.8,172,305.8,168.1z
		 M281.8,168.1c-4.1,0-7.8,0-11.5,0c0,4.1,0,7.8,0,11.5c4,0,7.7,0,11.5,0C281.8,175.8,281.8,172.1,281.8,168.1z M246.1,179.7
		c4.1,0,7.8,0,11.6,0c0-4,0-7.8,0-11.6c-4,0-7.8,0-11.6,0C246.1,172.1,246.1,175.8,246.1,179.7z"/>
	<path class="st0" d="M438.2,432.1c36,0,71.6,0,107.5,0c0,11.9,0,23.6,0,35.5c-35.7,0-71.5,0-107.5,0
		C438.2,456,438.2,444.2,438.2,432.1z M533.8,444.2c-28.1,0-55.8,0-83.5,0c0,4,0,7.8,0,11.6c28,0,55.7,0,83.5,0
		C533.8,451.9,533.8,448.2,533.8,444.2z"/>
	<path class="st0" d="M282.1,443.7c0-3.9,0-7.6,0-11.5c39.9,0,79.7,0,119.7,0c0,3.9,0,7.6,0,11.5C362,443.7,322.2,443.7,282.1,443.7
		z"/>
	<path class="st0" d="M377.8,456.2c0,4,0,7.6,0,11.5c-31.9,0-63.5,0-95.5,0c0-3.7,0-7.5,0-11.5C313.9,456.2,345.7,456.2,377.8,456.2
		z"/>
	<path class="st0" d="M317.8,408.2c0,4,0,7.6,0,11.5c-11.9,0-23.5,0-35.5,0c0-3.7,0-7.5,0-11.5C293.9,408.2,305.7,408.2,317.8,408.2
		z"/>
	<path class="st0" d="M330,419.7c0-3.9,0-7.5,0-11.4c11.9,0,23.6,0,35.7,0c0,3.7,0,7.5,0,11.4C353.8,419.7,341.9,419.7,330,419.7z"
		/>
	<path class="st0" d="M258.1,419.7c0-3.9,0-7.6,0-11.5c3.9,0,7.7,0,11.7,0c0,3.8,0,7.5,0,11.5C266,419.7,262.2,419.7,258.1,419.7z"
		/>
	<path class="st0" d="M258.1,443.7c0-3.9,0-7.6,0-11.5c3.9,0,7.7,0,11.7,0c0,3.8,0,7.5,0,11.5C266,443.7,262.2,443.7,258.1,443.7z"
		/>
	<path class="st0" d="M269.8,456.2c0,3.9,0,7.5,0,11.5c-3.8,0-7.5,0-11.6,0c0-3.7,0-7.5,0-11.5C261.9,456.2,265.6,456.2,269.8,456.2
		z"/>
	<path class="st0" d="M474.1,263.8c0-4.1,0-7.8,0-11.9c7.4,0,14.5,0,21.8,0c8.5,0,12.5-3.3,14.3-11.8c3.8,0,7.6,0,11.4,0
		c1,11.3-9.1,22.8-21.4,23.6C491.7,264.3,483.1,263.8,474.1,263.8z"/>
	<path class="st0" d="M498.5,158.6c3.7-1.9,7-3.5,10.7-5.4c6,12,11.9,23.8,18,35.9c-3.6,1.8-6.9,3.5-10.7,5.4
		C510.5,182.6,504.6,170.8,498.5,158.6z"/>
	<path class="st0" d="M479.2,153.3c6.1,12.2,12,23.9,18,35.9c-3.6,1.8-6.9,3.5-10.7,5.4c-6-12.1-12-23.9-18-35.9
		C472.1,156.8,475.4,155.2,479.2,153.3z"/>
	<path class="st0" d="M516,203.9c3.2,0,6,2.7,6,5.9c0,3.2-2.7,6-6,6c-3.2,0-6-2.7-6-5.9C510,206.6,512.7,203.9,516,203.9z"/>
	<path class="st0" d="M473.9,210.1c-0.1,3.2-2.9,5.9-6.1,5.8c-3.2-0.1-5.9-2.9-5.8-6.1c0.1-3.3,2.9-5.9,6.1-5.8
		C471.4,204,474,206.8,473.9,210.1z"/>
	<path class="st0" d="M305.8,168.1c0,3.9,0,7.6,0,11.6c-3.8,0-7.6,0-11.6,0c0-3.8,0-7.6,0-11.6C298,168.1,301.7,168.1,305.8,168.1z"
		/>
	<path class="st0" d="M281.8,168.1c0,4,0,7.7,0,11.5c-3.9,0-7.5,0-11.5,0c0-3.7,0-7.5,0-11.5C273.9,168.1,277.7,168.1,281.8,168.1z"
		/>
	<path class="st0" d="M246.1,179.7c0-3.9,0-7.6,0-11.6c3.8,0,7.6,0,11.6,0c0,3.8,0,7.6,0,11.6C253.9,179.7,250.2,179.7,246.1,179.7z
		"/>
</g>
</svg>
