<?xml version="1.0" encoding="utf-8"?>
<!-- Generator: Adobe Illustrator 24.1.0, SVG Export Plug-In . SVG Version: 6.00 Build 0)  -->
<svg version="1.1" id="Layer_1" xmlns="http://www.w3.org/2000/svg" xmlns:xlink="http://www.w3.org/1999/xlink" x="0px" y="0px"
	 viewBox="0 0 792 612" style="enable-background:new 0 0 792 612;" xml:space="preserve">
<style type="text/css">
	.st0{fill:#FFFFFF;}
</style>
<g>
	<path class="st0" d="M215.1,411.6c0-93.5,0-187,0-280.5c4.7-15.4,15.5-20.5,31-20.4c104.1,0.3,208.1,0.2,312.2,0.2
		c5.5,0,11-0.1,16.5,0c10.5,0.2,19.5,6.8,22.9,16.8c0.4,1.1,0.9,2.3,1.3,3.4c0,81.5,0,163,0,244.5c-0.2,10.1-0.3,20.2-0.5,30.3
		c-0.2,12.5-5.5,20.4-17,25.1c-0.8,0.3-1.8,1.3-2,2.1c-1.7,9.7-4.6,12.2-14.5,12.2c-32,0-64,0-96,0c-1.4,0-2.9,0-4.2,0
		c0,2.6,0,4.7,0,7c5.3,0,10.2,0,15.2,0c13.3,0.1,21.8,8.6,22,21.8c0,2.5-0.1,5,0,7.5c0.4,5.3-1.3,9.5-5.8,12.4
		c-59.5,0-119,0-178.5,0c-2-2.3-5.4-4.5-5.6-6.9c-0.7-6.4-0.8-13.1,0.4-19.4c1.8-9.5,10-15.2,20.4-15.4c5.3-0.1,10.6,0,16,0
		c0-7,0-13.4,0-20.1c-1.9,0-3.5,0-5.1,0c-15.9,0-31.7,0-47.6,0c-4.1,0-6.6-2.3-6.6-5.6c0-3.3,2.5-5.5,6.6-5.6c1.1,0,2.2,0,3.4,0
		c37,0,74,0,111,0c1.6,0,3.1,0,5,0c0-4.5,0-8.5,0-12.5c0.1-8.2,4.4-12.5,12.4-12.7c1,0,1.9-0.1,2.8-0.1c0-3.3,0-6.4,0-9.4
		c-68.2,0-136.2,0-204.4,0c0,6.7,0,13.1,0,19.6c0,9.5,5.3,14.9,14.8,15c6.4,0.1,12.8,0,19.1,0c3.9,0.1,6.3,2.3,6.3,5.5
		s-2.4,5.6-6.1,5.7c-7.6,0.1-15.3,0.2-22.9-0.2c-10.2-0.6-18.6-7.7-21.5-17.6C215.7,413.5,215.4,412.5,215.1,411.6z M587.1,187.6
		c-120.4,0-240.5,0-360.6,0c0,62.6,0,124.9,0,187.1c63.1,0,125.9,0,189.1,0c0-1.5,0-2.9,0-4.2c-0.1-8-0.2-16-0.2-24
		c0-7.2,4.5-11.6,11.7-11.9c1.2,0,2.4-0.1,3.6-0.2c0-4,0-7.6,0-11.4c-0.7-0.1-1.2-0.2-1.7-0.2c-10-0.4-13.6-4.2-13.6-14.2
		c0-7.5,0-15,0-22.5c0-8.4,4.3-12.7,12.7-12.7c19.1,0,38.2,0,57.4,0c5.4,0,10.8-0.1,16.1,0c3.3,0.1,5.7,2.3,5.6,5.3
		c0,3.2-1.8,5.1-4.9,5.7c-1.3,0.2-2.7,0.2-4.1,0.2c-22.2,0-44.5,0-66.7,0c-1.5,0-2.9,0-4.7,0c-0.1,1.6-0.2,2.8-0.2,4
		c0,7.5,0,14.9,0,22.6c47.4,0,94.3,0,141.4,0c0-8.9,0-17.6,0-26.6c-1.5,0-2.9,0-4.2,0c-8.6,0-17.2,0-25.9,0c-4.3,0-7-2.3-6.9-5.7
		c0-3.5,2.5-5.5,7-5.5c9.8,0,19.5,0,29.2,0c7.7,0,12.1,4.4,12.2,12.1c0,7.2,0,14.5,0,21.8c0,11.9-2.5,14.6-14.5,15.6
		c-0.2,0-0.5,0.2-0.9,0.4c0,3.6,0,7.3,0,11c0.9,0.1,1.7,0.2,2.4,0.3c9,0.3,13,4.4,13,13.3c0,5.8,0,11.5-0.1,17.2c0,3.2,0,6.4,0,9.5
		c2.9,0,5.3,0,7.7,0C587.1,312.1,587.1,249.9,587.1,187.6z M587.3,175.9c0-13.3,0-26.1,0-39c0-9.5-5.4-14.8-15-14.8
		c-110.2,0-220.4,0-330.6,0c-9.6,0-15,5.2-15,14.7c-0.1,12,0,24,0,36c0,1,0.2,1.9,0.3,3.1C347.1,175.9,467,175.9,587.3,175.9z
		 M323,483.2c2.1,0,3.7,0,5.3,0c51.9,0,103.7,0,155.6,0c7,0,7,0,7-6.9c0-9.7-3-12.7-12.8-12.7c-47.6,0-95.2,0-142.8,0
		c-1.7,0-3.5,0-5.2,0.4c-3.9,0.8-6.7,3.9-7,7.8C322.8,475.4,323,479,323,483.2z M568.2,407.3c-47.3,0-94.2,0-141.2,0
		c0,9,0,17.8,0,26.5c47.2,0,94.1,0,141.2,0C568.2,424.9,568.2,416.3,568.2,407.3z M568,372.5c0-9,0-17.7,0-26.5
		c-47.1,0-94,0-141.1,0c0,8.9,0,17.6,0,26.5C474,372.5,520.9,372.5,568,372.5z M415.1,432.6c-18.3,0-36.3,0-54.4,0
		c0,6.7,0,13.1,0,19.6c30.9,0,61.6,0,92.5,0c0-2.3,0-4.3,0-6.8c-7.8,0-15.4,0-22.9,0C420,445.3,416.8,442.7,415.1,432.6z
		 M442.5,384.2c0,4.1,0,7.8,0,11.5c36.8,0,73.3,0,109.8,0c0-4,0-7.7,0-11.5C515.6,384.2,479.2,384.2,442.5,384.2z M442.5,334.4
		c36.8,0,73.3,0,110,0c0-3.9,0-7.6,0-11.3c-36.8,0-73.3,0-110,0C442.5,326.9,442.5,330.5,442.5,334.4z M564.1,395.7
		c0.9,0.1,1.6,0.2,2.3,0.2c9.1,0.2,13,4.3,13,13.4c0,3.3,0,6.6,0,10.3c4.1-2,6.9-4.8,7.2-8.4c0.5-8.2,0.2-16.5,0.2-24.8
		c-7.6,0-15.1,0-22.7,0C564.1,389.7,564.1,392.6,564.1,395.7z"/>
	<path class="st0" d="M445,222.5c-19.4,0-38.7,0-58.1,0c-4.1,0-6.6,2.2-6.6,5.5c0,3.3,2.6,5.5,6.6,5.7c0.6,0,1.2,0,1.9,0
		c37.6,0,75.2,0,112.8,0c1.5,0,3,0,4.4-0.4c3.3-1,4.7-4.5,3.3-7.5c-1.3-2.8-3.8-3.2-6.6-3.2C483.5,222.6,464.2,222.5,445,222.5z
		 M340.5,274.2c-10.6,0-21.2,0-31.8,0c-4.5,0-6.9,2-6.9,5.5c0,3.5,2.5,5.7,6.9,5.7c21.2,0,42.4,0,63.6,0c4.7,0,7.2-2.2,7-5.9
		c-0.1-3.5-2.4-5.3-7.1-5.3C361.7,274.2,351.1,274.2,340.5,274.2z M253.2,229.1c5-4.9,9.6-9.1,13.9-13.6c2.5-2.6,2.2-5.8-0.1-8
		c-2.1-2-5.4-2.1-7.8,0.2c-5.9,5.7-11.7,11.6-17.5,17.4c-2.3,2.4-2.6,5.3-0.3,7.7c5.9,6.1,11.9,12.1,18,18c2.6,2.5,6.2,2,8.2-0.7
		c2-2.8,1.4-5.4-0.9-7.7C262.4,238.1,258.1,233.8,253.2,229.1z M376.8,321.4c-7.7,0-15.5,0-23.2,0c-4.5,0-7,2-7.1,5.4
		c-0.1,3.4,2.6,5.8,6.8,5.8c15.7,0.1,31.4,0.1,47.1,0c4.4,0,6.8-2.3,6.6-5.9c-0.1-3.4-2.4-5.3-6.8-5.3
		C392.5,321.4,384.6,321.4,376.8,321.4z M314.8,228.7c-0.2,0.7-0.2,0.9-0.3,0.9c-4.1,4.2-8.3,8.3-12.4,12.5
		c-2.9,2.9-3.1,6.2-0.7,8.6c2.4,2.4,5.6,2.3,8.6-0.6c5.4-5.3,10.8-10.7,16.2-16.1c3.2-3.3,3.2-6.2,0.1-9.4
		c-5.3-5.4-10.7-10.8-16.1-16.1c-2.9-2.9-6.2-3.1-8.6-0.8c-2.5,2.5-2.3,5.7,0.8,8.8C306.4,220.5,310.6,224.6,314.8,228.7z
		 M308.4,309c7.6,0,15.2,0,22.9,0c4.7,0,7.3-2.1,7.2-5.7c-0.1-3.4-2.7-5.5-7.1-5.5c-15.1,0-30.2,0-45.3,0c-4.4,0-7,2.2-7,5.6
		c0,3.4,2.5,5.6,6.9,5.6C293.4,309.1,300.9,309,308.4,309z M462.4,247.2c-7.6,0-15.2,0-22.8,0c-4.3,0-6.9,2.2-6.9,5.6
		c0.1,3.3,2.6,5.6,6.7,5.6c15.3,0,30.7,0.1,46,0c4.1,0,6.5-2.3,6.4-5.7c0-3.4-2.4-5.4-6.6-5.5C477.6,247.2,470,247.2,462.4,247.2z
		 M364.9,247.2c-6.4,0-12.7,0-19.1,0c-4.2,0-6.6,2.1-6.7,5.4c-0.1,3.4,2.4,5.8,6.4,5.8c12.9,0.1,25.7,0.1,38.6,0
		c4.1,0,6.5-2.3,6.5-5.7c0-3.5-2.3-5.5-6.6-5.5C377.7,247.2,371.3,247.2,364.9,247.2z M534.6,303.7c6,0,12,0,17.9,0
		c4.1,0,6.6-2.1,6.7-5.5c0.1-3.3-2.5-5.7-6.5-5.7c-12.2-0.1-24.4-0.1-36.6,0c-3.8,0-6.2,2.3-6.3,5.5c-0.1,3.4,2.4,5.6,6.4,5.7
		C522.3,303.7,528.5,303.7,534.6,303.7z M314,321.4c-6,0-12,0-18,0c-4.1,0-6.6,2.2-6.6,5.5c0,3.3,2.6,5.6,6.6,5.7
		c12,0.1,23.9,0.1,35.9,0c4,0,6.6-2.4,6.6-5.6c0-3.3-2.5-5.5-6.6-5.5C326,321.4,320,321.4,314,321.4z M279.4,252.4
		c1-1.1,3.2-2.6,4.1-4.7c4.6-10.9,8.8-22,13.1-33c1.5-3.8,0.5-6.9-2.6-8.2c-3.3-1.4-6.2,0.1-7.8,4.1c-2.5,6.1-4.9,12.3-7.3,18.4
		c-2,5.1-4.1,10.2-6,15.3C271.4,248.5,274,252.4,279.4,252.4z M268,274.2c-6.2,0-12.5-0.1-18.7,0c-3.7,0-5.9,2-6,5.2
		c-0.1,3.3,2.1,5.8,5.9,5.9c12.3,0.1,24.7,0.1,37,0c3.8,0,6.1-2.5,6.1-5.8c-0.1-3.2-2.5-5.4-6.3-5.4C280,274.2,274,274.2,268,274.2z
		 M263.3,321.4c-4.6,0-9.2-0.1-13.8,0c-4,0.1-6.2,2.1-6.2,5.4c0,3.3,2.2,5.7,6,5.7c9.3,0.1,18.7,0.1,28,0c3.9-0.1,6.1-2.4,6-5.7
		c0-3.4-2.2-5.4-6.2-5.4C272.6,321.4,268,321.4,263.3,321.4z M454.7,303.7c4.4,0,8.7,0,13.1,0c3.9-0.1,6.1-2.2,6.1-5.5
		c0-3.3-2.3-5.6-6.1-5.6c-8.6-0.1-17.2-0.1-25.8,0c-3.7,0-6.2,2.4-6.2,5.6c0,3.2,2.4,5.5,6.2,5.6
		C446.2,303.7,450.5,303.7,454.7,303.7z M354.6,222.5c-3.2,0-6.5-0.1-9.7,0c-3.4,0.1-5.6,2.2-5.7,5.2c-0.2,3.1,2.1,5.8,5.5,5.9
		c6.5,0.2,13,0.2,19.5,0c3.5-0.1,5.6-2.6,5.5-5.9c-0.1-3.1-2.3-5.1-5.7-5.2C360.9,222.4,357.7,222.5,354.6,222.5z M390.2,309
		c3.1,0,6.2,0.1,9.3,0c3.2-0.2,5-2,5.3-5.2c0.3-3.1-1.7-5.7-5-5.8c-6.5-0.2-13-0.2-19.4,0c-3.3,0.1-5.2,2.8-4.9,5.9
		c0.3,3.2,2.2,5,5.4,5.1C383.9,309.1,387.1,309,390.2,309z M412.1,247.3c-2.7,0-5.5-0.1-8.2,0c-3.3,0.1-5.5,2.3-5.7,5.3
		c-0.1,2.9,2.1,5.6,5.2,5.8c5.7,0.2,11.5,0.2,17.2,0c3.3-0.1,5.3-2.6,5.2-5.7s-2.2-5.2-5.5-5.4C417.6,247.2,414.9,247.3,412.1,247.3
		z M257,309C257,309,257,309,257,309c2.4,0,4.7,0,7.1,0c0.2,0,0.5,0,0.8,0c3.3-0.3,5.5-2.3,5.7-5.3c0.1-3.1-2-5.7-5.5-5.8
		c-5.5-0.2-11-0.2-16.4,0c-3.3,0.1-5.3,2.6-5.3,5.6c0.1,3.1,2.1,5.2,5.5,5.4C251.5,309.1,254.2,309,257,309z M357.9,309
		C357.9,309,357.9,309,357.9,309c1.9,0,3.8,0.1,5.6,0c3.2-0.3,5-2.3,5.1-5.4c0.1-3-1.6-5.2-4.6-5.5c-4-0.4-8-0.4-11.9,0
		c-3,0.3-4.5,2.6-4.4,5.6c0.2,3,1.9,4.9,4.9,5.2C354.4,309.1,356.2,309,357.9,309z M491.8,303.6L491.8,303.6c1.6,0,3.3,0.1,4.9,0
		c3-0.3,4.8-2,5.1-5c0.3-3.2-1.4-5.5-4.5-5.9c-3.4-0.4-7-0.4-10.5,0c-3.1,0.3-4.9,2.5-4.7,5.7c0.2,3.2,2.1,5,5.3,5.3
		C488.8,303.8,490.3,303.6,491.8,303.6z"/>
	<path class="st0" d="M534.4,426.2c6,0,12,0,18,0c4.2,0,6.7-2.1,6.8-5.4c0.1-3.4-2.5-5.8-6.8-5.8c-12-0.1-24-0.1-36,0
		c-4.2,0-6.6,2.2-6.6,5.6c0,3.4,2.4,5.5,6.6,5.6C522.4,426.2,528.4,426.2,534.4,426.2z M454.7,426.2c4.5,0,9,0.1,13.5,0
		c3.7-0.1,5.8-2.2,5.8-5.5c0-3.2-2-5.6-5.7-5.6c-8.9-0.2-17.7-0.1-26.5,0c-3.6,0-5.9,2.4-5.9,5.5c-0.1,3.2,2.3,5.5,6.1,5.6
		C446.2,426.3,450.4,426.2,454.7,426.2z M492,426.1c1.6,0,3.3,0.1,4.9,0c3.2-0.4,5-2.3,5-5.5c0-3-1.6-5.1-4.7-5.4
		c-3.5-0.3-7-0.3-10.5,0c-3,0.3-4.6,2.4-4.6,5.4c0,3.2,1.9,5.1,5,5.4C488.7,426.2,490.3,426.1,492,426.1z"/>
	<path class="st0" d="M534.4,353.8c-6,0-12,0-17.9,0c-4.1,0-6.6,2.1-6.7,5.5c-0.1,3.4,2.4,5.7,6.4,5.8c12.2,0.1,24.4,0.1,36.6,0
		c3.8,0,6.2-2.3,6.3-5.5c0.1-3.3-2.5-5.6-6.5-5.7C546.6,353.7,540.5,353.8,534.4,353.8z M455.2,353.8c-4.4,0-8.7-0.1-13.1,0
		c-3.8,0.1-6.2,2.3-6.2,5.5c0,3.2,2.4,5.6,6.1,5.7c8.6,0.1,17.2,0.1,25.8,0c3.8,0,6.1-2.3,6.2-5.6c0-3.4-2.2-5.5-6.1-5.6
		C463.7,353.7,459.4,353.8,455.2,353.8z M492.1,353.8C492.1,353.8,492.1,353.8,492.1,353.8c-1.5,0-3-0.1-4.5,0
		c-3.3,0.2-5.5,2.4-5.5,5.4c0,3.3,1.8,5.3,4.9,5.6c3.3,0.4,6.8,0.4,10.1,0c3.1-0.4,4.9-2.5,4.8-5.7c-0.2-3.2-2-5-5.2-5.3
		C495.1,353.7,493.6,353.8,492.1,353.8z"/>
	<path class="st0" d="M445,222.5c19.2,0,38.5,0,57.7,0c2.8,0,5.2,0.4,6.6,3.2c1.4,3,0,6.5-3.3,7.5c-1.4,0.4-3,0.4-4.4,0.4
		c-37.6,0-75.2,0-112.8,0c-0.6,0-1.2,0-1.9,0c-4-0.1-6.6-2.4-6.6-5.7c0-3.3,2.5-5.5,6.6-5.5C406.2,222.5,425.6,222.5,445,222.5z"/>
	<path class="st0" d="M340.5,274.2c10.6,0,21.2,0,31.8,0c4.6,0,7,1.8,7.1,5.3c0.1,3.7-2.4,5.9-7,5.9c-21.2,0-42.4,0-63.6,0
		c-4.4,0-6.9-2.2-6.9-5.7c0-3.5,2.4-5.5,6.9-5.5C319.3,274.2,329.9,274.2,340.5,274.2z"/>
	<path class="st0" d="M253.2,229.1c4.8,4.8,9.2,9,13.5,13.3c2.3,2.3,2.9,4.9,0.9,7.7c-2,2.8-5.6,3.2-8.2,0.7
		c-6.1-5.9-12.1-11.9-18-18c-2.3-2.4-2-5.4,0.3-7.7c5.8-5.9,11.6-11.7,17.5-17.4c2.4-2.3,5.6-2.2,7.8-0.2c2.4,2.2,2.6,5.4,0.1,8
		C262.8,220,258.2,224.2,253.2,229.1z"/>
	<path class="st0" d="M376.8,321.4c7.9,0,15.7,0,23.6,0c4.3,0,6.6,1.9,6.8,5.3c0.1,3.6-2.2,5.9-6.6,5.9c-15.7,0.1-31.4,0.1-47.1,0
		c-4.3,0-6.9-2.4-6.8-5.8c0.1-3.4,2.6-5.4,7.1-5.4C361.3,321.4,369.1,321.4,376.8,321.4z"/>
	<path class="st0" d="M314.8,228.7c-4.2-4.1-8.4-8.1-12.5-12.3c-3.1-3.1-3.3-6.4-0.8-8.8c2.4-2.3,5.6-2.1,8.6,0.8
		c5.4,5.3,10.8,10.7,16.1,16.1c3.2,3.2,3.1,6.1-0.1,9.4c-5.3,5.4-10.7,10.8-16.2,16.1c-3,2.9-6.1,3.1-8.6,0.6
		c-2.4-2.4-2.2-5.6,0.7-8.6c4.1-4.2,8.2-8.3,12.4-12.5C314.6,229.6,314.6,229.4,314.8,228.7z"/>
	<path class="st0" d="M308.4,309c-7.5,0-15,0-22.5,0c-4.4,0-7-2.2-6.9-5.6c0-3.4,2.7-5.6,7-5.6c15.1,0,30.2,0,45.3,0
		c4.4,0,7,2.1,7.1,5.5c0.1,3.6-2.5,5.7-7.2,5.7C323.6,309.1,316,309,308.4,309z"/>
	<path class="st0" d="M462.4,247.2c7.6,0,15.2,0,22.8,0c4.2,0,6.6,2.1,6.6,5.5c0,3.4-2.4,5.7-6.4,5.7c-15.3,0.1-30.7,0.1-46,0
		c-4.1,0-6.6-2.3-6.7-5.6c-0.1-3.4,2.5-5.6,6.9-5.6C447.2,247.2,454.8,247.2,462.4,247.2z"/>
	<path class="st0" d="M364.9,247.2c6.4,0,12.7,0,19.1,0c4.2,0,6.5,2,6.6,5.5c0,3.4-2.3,5.7-6.5,5.7c-12.9,0.1-25.7,0.1-38.6,0
		c-4,0-6.5-2.4-6.4-5.8c0.1-3.4,2.5-5.4,6.7-5.4C352.2,247.2,358.6,247.2,364.9,247.2z"/>
	<path class="st0" d="M534.6,303.7c-6.1,0-12.2,0-18.3,0c-4,0-6.5-2.3-6.4-5.7c0.1-3.2,2.5-5.5,6.3-5.5c12.2-0.1,24.4-0.1,36.6,0
		c4,0,6.5,2.4,6.5,5.7c-0.1,3.3-2.6,5.4-6.7,5.5C546.5,303.7,540.5,303.7,534.6,303.7z"/>
	<path class="st0" d="M314,321.4c6,0,12,0,18,0c4.1,0,6.6,2.2,6.6,5.5c0,3.3-2.6,5.6-6.6,5.6c-12,0.1-23.9,0.1-35.9,0
		c-4,0-6.6-2.4-6.6-5.7c0-3.3,2.5-5.5,6.6-5.5C302.1,321.4,308,321.4,314,321.4z"/>
	<path class="st0" d="M279.4,252.4c-5.5,0-8-3.9-6.5-8.1c1.9-5.2,4-10.2,6-15.3c2.4-6.1,4.8-12.3,7.3-18.4c1.6-4.1,4.6-5.6,7.8-4.1
		c3,1.3,4.1,4.4,2.6,8.2c-4.3,11-8.5,22.1-13.1,33C282.6,249.8,280.4,251.4,279.4,252.4z"/>
	<path class="st0" d="M268,274.2c6,0,12,0,18,0c3.8,0,6.2,2.2,6.3,5.4c0.1,3.2-2.3,5.7-6.1,5.8c-12.3,0.1-24.7,0.1-37,0
		c-3.8,0-6-2.6-5.9-5.9c0.1-3.2,2.3-5.2,6-5.2C255.5,274.2,261.8,274.2,268,274.2z"/>
	<path class="st0" d="M263.3,321.4c4.6,0,9.2-0.1,13.8,0c4,0.1,6.2,2.1,6.2,5.4c0,3.3-2.1,5.7-6,5.7c-9.3,0.1-18.7,0.1-28,0
		c-3.8,0-6.1-2.4-6-5.7c0-3.4,2.2-5.4,6.2-5.4C254.1,321.4,258.7,321.4,263.3,321.4z"/>
	<path class="st0" d="M454.7,303.7c-4.2,0-8.5,0-12.7,0c-3.8-0.1-6.2-2.3-6.2-5.6c0-3.2,2.5-5.6,6.2-5.6c8.6-0.1,17.2-0.1,25.8,0
		c3.8,0,6.1,2.3,6.1,5.6c0,3.4-2.3,5.5-6.1,5.5C463.5,303.7,459.1,303.7,454.7,303.7z"/>
	<path class="st0" d="M354.6,222.5c3.1,0,6.2-0.1,9.4,0c3.4,0.1,5.5,2.2,5.7,5.2c0.1,3.2-2,5.8-5.5,5.9c-6.5,0.2-13,0.2-19.5,0
		c-3.4-0.1-5.7-2.8-5.5-5.9c0.1-3,2.4-5.1,5.7-5.2C348.1,222.4,351.4,222.5,354.6,222.5z"/>
	<path class="st0" d="M390.2,309c-3.1,0-6.2,0.1-9.3,0c-3.2-0.1-5.1-1.9-5.4-5.1c-0.3-3.1,1.7-5.8,4.9-5.9c6.5-0.3,13-0.3,19.4,0
		c3.3,0.1,5.3,2.8,5,5.8c-0.3,3.2-2.1,5-5.3,5.2C396.4,309.1,393.3,309,390.2,309z"/>
	<path class="st0" d="M412.1,247.3c2.7,0,5.5-0.1,8.2,0c3.3,0.2,5.5,2.3,5.5,5.4c0.1,3.1-1.9,5.5-5.2,5.7c-5.7,0.2-11.5,0.2-17.2,0
		c-3.2-0.1-5.4-2.9-5.2-5.8c0.1-2.9,2.4-5.1,5.7-5.3C406.6,247.2,409.4,247.3,412.1,247.3z"/>
	<path class="st0" d="M257,309c-2.7,0-5.5,0.1-8.2,0c-3.4-0.2-5.4-2.3-5.5-5.4c-0.1-3,2-5.5,5.3-5.6c5.5-0.2,10.9-0.2,16.4,0
		c3.5,0.1,5.7,2.7,5.5,5.8c-0.1,3-2.4,5-5.7,5.3c-0.2,0-0.5,0-0.8,0C261.7,309,259.3,309,257,309C257,309,257,309,257,309z"/>
	<path class="st0" d="M357.9,309c-1.8,0-3.5,0.2-5.2,0c-3-0.3-4.7-2.2-4.9-5.2c-0.2-3,1.4-5.3,4.4-5.6c3.9-0.4,8-0.4,11.9,0
		c2.9,0.3,4.7,2.5,4.6,5.5c-0.1,3.1-1.9,5.1-5.1,5.4C361.7,309.1,359.8,309,357.9,309L357.9,309z"/>
	<path class="st0" d="M491.8,303.6c-1.5,0-3,0.1-4.5,0c-3.2-0.3-5.1-2.1-5.3-5.3c-0.2-3.2,1.7-5.4,4.7-5.7c3.5-0.4,7-0.4,10.5,0
		c3.1,0.4,4.8,2.7,4.5,5.9c-0.2,3-2,4.8-5.1,5C495.1,303.8,493.4,303.6,491.8,303.6C491.8,303.6,491.8,303.6,491.8,303.6z"/>
	<path class="st0" d="M256.5,132.5c9.1,0,16.4,7.2,16.4,16.3c0,9.1-7.2,16.5-16.2,16.6c-9,0.1-16.8-7.6-16.7-16.6
		C240.1,139.8,247.4,132.5,256.5,132.5z M256.5,154.2c2.8,0,5.1-2.4,5.2-5.2c0-3-2.2-5.2-5.2-5.1c-2.9,0-5.3,2.4-5.2,5.2
		C251.2,151.7,253.7,154.2,256.5,154.2z"/>
	<path class="st0" d="M340.7,132.5c9.1,0.1,16.2,7.4,16.2,16.5c0,9-7.5,16.4-16.4,16.4c-8.9,0-16.4-7.5-16.5-16.5
		C323.9,139.9,331.4,132.4,340.7,132.5z M345.6,148.9c0-2.9-2.2-5.1-5.2-5.1c-2.9,0-5.2,2.4-5.2,5.2c0,2.8,2.5,5.2,5.3,5.2
		C343.3,154.2,345.6,151.8,345.6,148.9z"/>
	<path class="st0" d="M314.9,149.1c-0.1,9-7.5,16.4-16.5,16.3c-9-0.1-16.4-7.6-16.4-16.5c0-9.1,7.5-16.5,16.8-16.4
		C307.9,132.6,315,139.9,314.9,149.1z M298.4,143.8c-2.9,0.1-5.2,2.4-5.1,5.2c0.1,2.8,2.6,5.2,5.3,5.2c2.8-0.1,5.1-2.5,5.1-5.4
		C303.6,145.9,301.3,143.7,298.4,143.8z"/>
	<path class="st0" d="M534.4,426.2c-6,0-12,0.1-18,0c-4.2-0.1-6.6-2.2-6.6-5.6c0-3.4,2.4-5.6,6.6-5.6c12-0.1,24-0.1,36,0
		c4.3,0,6.9,2.4,6.8,5.8c-0.1,3.3-2.7,5.3-6.8,5.4C546.4,426.2,540.4,426.2,534.4,426.2z"/>
	<path class="st0" d="M454.7,426.2c-4.2,0-8.5,0.1-12.7,0c-3.8-0.1-6.2-2.4-6.1-5.6c0-3.1,2.3-5.4,5.9-5.5c8.9-0.1,17.7-0.1,26.5,0
		c3.7,0.1,5.7,2.4,5.7,5.6c0,3.3-2.1,5.3-5.8,5.5C463.6,426.3,459.1,426.2,454.7,426.2z"/>
	<path class="st0" d="M492,426.1c-1.6,0-3.3,0.1-4.9,0c-3.2-0.3-5-2.2-5-5.4c0-3,1.6-5.1,4.6-5.4c3.5-0.3,7-0.3,10.5,0
		c3,0.2,4.7,2.3,4.7,5.4c0,3.2-1.7,5.1-5,5.5C495.2,426.2,493.6,426.1,492,426.1z"/>
	<path class="st0" d="M534.4,353.8c6.1,0,12.2,0,18.3,0c4,0,6.5,2.4,6.5,5.7c-0.1,3.2-2.6,5.5-6.3,5.5c-12.2,0.1-24.4,0.1-36.6,0
		c-4,0-6.5-2.4-6.4-5.8c0.1-3.3,2.5-5.4,6.7-5.5C522.5,353.7,528.4,353.8,534.4,353.8z"/>
	<path class="st0" d="M455.2,353.8c4.2,0,8.5-0.1,12.7,0c3.9,0.1,6.1,2.2,6.1,5.6c0,3.3-2.3,5.5-6.2,5.6c-8.6,0.1-17.2,0.1-25.8,0
		c-3.7,0-6.2-2.5-6.1-5.7c0-3.2,2.5-5.4,6.2-5.5C446.4,353.7,450.8,353.8,455.2,353.8z"/>
	<path class="st0" d="M492.1,353.8c1.5,0,3-0.1,4.5,0c3.2,0.3,5.1,2.1,5.2,5.3c0.2,3.2-1.7,5.4-4.8,5.7c-3.3,0.4-6.8,0.4-10.1,0
		c-3.1-0.3-4.9-2.4-4.9-5.6c0-3,2.2-5.2,5.5-5.4C489,353.7,490.6,353.8,492.1,353.8C492.1,353.8,492.1,353.8,492.1,353.8z"/>
	<path class="st0" d="M345.6,154.2c0,0-2.4,0-5.1,0c-2.8,0-5.2,0-5.3,0c0,0,2.4,0,5.2,0C343.4,154.2,345.6,154.2,345.6,154.2z"/>
</g>
</svg>
