<?xml version="1.0" encoding="utf-8"?>
<!-- Generator: Adobe Illustrator 24.1.0, SVG Export Plug-In . SVG Version: 6.00 Build 0)  -->
<svg version="1.1" id="Layer_1" xmlns="http://www.w3.org/2000/svg" xmlns:xlink="http://www.w3.org/1999/xlink" x="0px" y="0px"
	 viewBox="0 0 792 612" style="enable-background:new 0 0 792 612;" xml:space="preserve">
<style type="text/css">
	.st0{fill:#F1AA6B;}
</style>
<g>
	<path class="st0" d="M215.05,411.62c0-93.5,0-187.01,0-280.51c4.72-15.37,15.48-20.46,31.03-20.41
		c104.07,0.32,208.13,0.16,312.2,0.17c5.5,0,11-0.08,16.49,0.03c10.55,0.21,19.51,6.85,22.94,16.83c0.39,1.15,0.89,2.26,1.34,3.39
		c0,81.5,0,163,0,244.51c-0.16,10.1-0.34,20.21-0.46,30.31c-0.15,12.53-5.47,20.37-17.01,25.14c-0.83,0.34-1.85,1.3-1.99,2.11
		c-1.7,9.68-4.59,12.16-14.5,12.16c-32,0-63.99,0-95.99,0c-1.44,0-2.88,0-4.22,0c0,2.65,0,4.7,0,7.04c5.27,0,10.25-0.04,15.23,0.01
		c13.28,0.14,21.79,8.61,21.96,21.82c0.03,2.5-0.15,5.01,0.04,7.5c0.41,5.28-1.26,9.51-5.82,12.42c-59.5,0-119,0-178.5,0
		c-1.96-2.3-5.35-4.45-5.62-6.93c-0.68-6.38-0.8-13.07,0.37-19.35c1.78-9.53,10.01-15.24,20.35-15.44
		c5.32-0.1,10.65-0.02,15.99-0.02c0-6.98,0-13.38,0-20.09c-1.92,0-3.53,0-5.14,0c-15.87,0-31.74,0.03-47.62-0.04
		c-4.1-0.02-6.62-2.3-6.65-5.58c-0.02-3.29,2.51-5.45,6.59-5.61c1.12-0.04,2.25-0.01,3.37-0.01c36.99,0,73.99,0,110.98,0
		c1.58,0,3.15,0,5.03,0c0-4.53-0.03-8.51,0.01-12.5c0.06-8.18,4.37-12.54,12.44-12.66c0.96-0.01,1.91-0.1,2.84-0.15
		c0-3.33,0-6.36,0-9.36c-68.24,0-136.17,0-204.45,0c0,6.68-0.01,13.15,0,19.62c0.02,9.5,5.32,14.92,14.78,15.03
		c6.37,0.07,12.75-0.05,19.12,0.05c3.86,0.06,6.27,2.27,6.33,5.46c0.06,3.19-2.35,5.64-6.14,5.68c-7.62,0.08-15.26,0.25-22.86-0.23
		c-10.24-0.65-18.56-7.74-21.52-17.6C215.73,413.45,215.37,412.54,215.05,411.62z M587.14,187.59c-120.35,0-240.49,0-360.57,0
		c0,62.55,0,124.85,0,187.14c63.09,0,125.9,0,189.11,0c0-1.52,0.01-2.86,0-4.2c-0.06-8-0.23-16-0.17-23.99
		c0.05-7.21,4.5-11.63,11.68-11.92c1.2-0.05,2.4-0.14,3.63-0.21c0-3.97,0-7.65,0-11.35c-0.73-0.08-1.23-0.16-1.72-0.18
		c-9.95-0.36-13.61-4.17-13.61-14.18c0-7.5-0.03-15,0.01-22.5c0.04-8.43,4.3-12.71,12.67-12.72c19.12-0.02,38.24-0.01,57.36-0.01
		c5.37,0,10.75-0.07,16.12,0.04c3.31,0.07,5.68,2.32,5.65,5.3c-0.03,3.16-1.78,5.14-4.88,5.72c-1.34,0.25-2.74,0.18-4.11,0.18
		c-22.25,0.01-44.49,0.01-66.74,0.01c-1.47,0-2.94,0-4.67,0c-0.07,1.59-0.17,2.81-0.18,4.03c-0.01,7.46-0.01,14.92-0.01,22.62
		c47.35,0,94.27,0,141.38,0c0-8.88,0-17.56,0-26.65c-1.52,0-2.86,0-4.2,0c-8.62,0-17.25,0.04-25.87-0.02
		c-4.32-0.03-6.95-2.31-6.92-5.73c0.03-3.46,2.55-5.47,7.01-5.48c9.75-0.03,19.5-0.04,29.24,0c7.7,0.03,12.09,4.41,12.15,12.08
		c0.05,7.25,0.01,14.5,0.01,21.75c0,11.86-2.52,14.58-14.45,15.63c-0.24,0.02-0.47,0.17-0.93,0.35c0,3.59,0,7.27,0,11.05
		c0.93,0.11,1.66,0.24,2.4,0.27c9.01,0.33,12.97,4.36,12.97,13.26c0,5.75-0.04,11.5-0.06,17.25c-0.01,3.19,0,6.38,0,9.49
		c2.91,0,5.31,0,7.7,0C587.14,312.1,587.14,249.9,587.14,187.59z M587.35,175.89c0-13.27,0.05-26.13-0.02-38.99
		c-0.05-9.53-5.42-14.79-14.96-14.79c-110.21-0.01-220.41-0.01-330.62,0c-9.58,0-14.96,5.23-15.02,14.73
		c-0.08,12-0.02,23.99-0.01,35.99c0,0.96,0.16,1.93,0.26,3.07C347.07,175.89,466.96,175.89,587.35,175.89z M323.02,483.2
		c2.08,0,3.69,0,5.3,0c51.86,0,103.71,0,155.57,0c6.97,0,6.97,0,6.96-6.87c-0.01-9.7-3.03-12.72-12.8-12.72
		c-47.61,0-95.22-0.01-142.82,0.01c-1.74,0-3.52,0.05-5.21,0.4c-3.85,0.8-6.72,3.92-6.96,7.81
		C322.84,475.44,323.02,479.05,323.02,483.2z M568.17,407.34c-47.27,0-94.19,0-141.16,0c0,9.01,0,17.79,0,26.46
		c47.23,0,94.15,0,141.16,0C568.17,424.9,568.17,416.3,568.17,407.34z M568.03,372.52c0-9.01,0-17.69,0-26.48
		c-47.13,0-94.01,0-141.11,0c0,8.91,0,17.58,0,26.48C473.99,372.52,520.88,372.52,568.03,372.52z M415.12,432.56
		c-18.3,0-36.33,0-54.43,0c0,6.69,0,13.11,0,19.58c30.92,0,61.58,0,92.45,0c0-2.29,0-4.34,0-6.8c-7.77,0-15.35,0-22.93,0
		C420.01,445.34,416.82,442.68,415.12,432.56z M442.51,384.16c0,4.09,0,7.78,0,11.54c36.75,0,73.26,0,109.82,0
		c0-3.96,0-7.72,0-11.54C515.6,384.16,479.19,384.16,442.51,384.16z M442.45,334.38c36.83,0,73.34,0,109.95,0c0-3.9,0-7.57,0-11.29
		c-36.77,0-73.28,0-109.95,0C442.45,326.9,442.45,330.47,442.45,334.38z M564.11,395.69c0.91,0.08,1.63,0.18,2.35,0.2
		c9.13,0.24,13.04,4.26,13.05,13.44c0,3.28,0,6.56,0,10.28c4.14-1.96,6.94-4.78,7.17-8.35c0.53-8.24,0.17-16.53,0.17-24.82
		c-7.62,0-15.14,0-22.74,0C564.11,389.66,564.11,392.6,564.11,395.69z"/>
	<path class="st0" d="M444.96,222.52c-19.37,0-38.74-0.01-58.11,0.01c-4.07,0.01-6.62,2.2-6.62,5.52c0,3.3,2.57,5.51,6.61,5.66
		c0.62,0.02,1.25,0.01,1.87,0.01c37.61,0,75.23,0,112.84-0.02c1.48,0,3.04-0.01,4.43-0.44c3.28-1,4.73-4.53,3.29-7.53
		c-1.34-2.8-3.77-3.24-6.58-3.24C483.45,222.55,464.2,222.52,444.96,222.52z M340.48,274.23c-10.61,0-21.21-0.02-31.82,0.01
		c-4.49,0.01-6.89,1.99-6.88,5.55c0.01,3.49,2.5,5.66,6.9,5.67c21.21,0.04,42.42,0.04,63.63,0c4.69-0.01,7.16-2.17,7.05-5.88
		c-0.1-3.53-2.44-5.33-7.07-5.34C361.69,274.22,351.09,274.23,340.48,274.23z M253.23,229.09c5.02-4.87,9.59-9.12,13.92-13.6
		c2.47-2.56,2.24-5.81-0.11-8.01c-2.15-2.01-5.39-2.1-7.75,0.19c-5.91,5.73-11.73,11.56-17.48,17.45c-2.32,2.37-2.63,5.29-0.29,7.72
		c5.87,6.12,11.86,12.13,17.98,18c2.6,2.5,6.24,2.02,8.19-0.74c1.98-2.8,1.4-5.42-0.93-7.72
		C262.42,238.09,258.06,233.84,253.23,229.09z M376.79,321.43c-7.73,0-15.46-0.02-23.19,0.01c-4.46,0.02-7,2.01-7.08,5.42
		c-0.08,3.39,2.57,5.77,6.84,5.79c15.71,0.06,31.41,0.06,47.12-0.01c4.39-0.02,6.76-2.3,6.62-5.91c-0.13-3.41-2.43-5.26-6.75-5.29
		C392.5,321.4,384.64,321.43,376.79,321.43z M314.81,228.7c-0.25,0.71-0.25,0.86-0.33,0.94c-4.12,4.17-8.27,8.31-12.36,12.52
		c-2.86,2.94-3.08,6.18-0.7,8.57c2.44,2.45,5.59,2.3,8.58-0.63c5.44-5.33,10.82-10.71,16.16-16.14c3.21-3.27,3.24-6.2,0.08-9.42
		c-5.33-5.44-10.73-10.81-16.15-16.15c-2.94-2.9-6.16-3.15-8.57-0.81c-2.54,2.46-2.31,5.74,0.77,8.83
		C306.42,220.54,310.64,224.61,314.81,228.7z M308.41,309.05c7.62,0,15.23,0.03,22.85-0.01c4.72-0.02,7.29-2.09,7.21-5.68
		c-0.07-3.41-2.68-5.52-7.07-5.53c-15.11-0.04-30.21-0.04-45.32,0c-4.36,0.01-7,2.18-7.04,5.58c-0.05,3.43,2.53,5.6,6.9,5.63
		C293.43,309.08,300.92,309.04,308.41,309.05z M462.37,247.23c-7.61,0-15.21-0.03-22.82,0.01c-4.33,0.02-6.94,2.23-6.88,5.64
		c0.06,3.29,2.62,5.55,6.68,5.56c15.34,0.05,30.68,0.06,46.01-0.01c4.07-0.02,6.48-2.32,6.44-5.73c-0.04-3.38-2.44-5.43-6.61-5.46
		C477.59,247.2,469.98,247.23,462.37,247.23z M364.94,247.23c-6.37,0-12.74-0.04-19.1,0.01c-4.2,0.03-6.62,2.05-6.69,5.41
		c-0.08,3.35,2.42,5.76,6.43,5.78c12.86,0.07,25.72,0.07,38.58,0c4.12-0.02,6.48-2.26,6.46-5.7c-0.02-3.46-2.34-5.46-6.57-5.5
		C377.68,247.19,371.31,247.23,364.94,247.23z M534.57,303.67c5.98,0,11.96,0.03,17.94-0.01c4.08-0.03,6.61-2.14,6.68-5.45
		c0.07-3.3-2.5-5.7-6.47-5.72c-12.21-0.06-24.42-0.06-36.64,0.01c-3.81,0.02-6.21,2.27-6.28,5.5c-0.07,3.36,2.44,5.63,6.43,5.66
		C522.35,303.71,528.46,303.67,534.57,303.67z M314.04,321.44c-5.98,0-11.97-0.04-17.95,0.01c-4.08,0.04-6.6,2.22-6.6,5.52
		c0,3.26,2.56,5.64,6.58,5.67c11.97,0.08,23.94,0.08,35.9,0c4.04-0.03,6.59-2.38,6.6-5.65c0.01-3.31-2.51-5.5-6.58-5.54
		C326,321.39,320.02,321.44,314.04,321.44z M279.43,252.43c0.96-1.07,3.21-2.61,4.09-4.71c4.57-10.92,8.81-21.98,13.11-33.01
		c1.49-3.83,0.45-6.94-2.58-8.25c-3.26-1.41-6.2,0.09-7.84,4.15c-2.48,6.12-4.88,12.28-7.3,18.43c-2.01,5.1-4.11,10.17-5.97,15.33
		C271.43,248.53,273.96,252.4,279.43,252.43z M268.01,274.24c-6.23,0-12.47-0.06-18.7,0.02c-3.7,0.05-5.87,2.05-6.01,5.25
		c-0.14,3.32,2.08,5.84,5.86,5.88c12.34,0.13,24.68,0.13,37.02,0.02c3.75-0.03,6.13-2.54,6.07-5.75c-0.06-3.2-2.48-5.37-6.3-5.41
		C279.97,274.19,273.99,274.24,268.01,274.24z M263.34,321.44c-4.61,0-9.22-0.06-13.83,0.02c-3.97,0.07-6.17,2.08-6.21,5.44
		c-0.04,3.3,2.2,5.66,6.04,5.71c9.34,0.13,18.69,0.14,28.04,0c3.87-0.06,6.06-2.38,6.02-5.72c-0.05-3.36-2.25-5.36-6.22-5.43
		C272.56,321.38,267.95,321.44,263.34,321.44z M454.73,303.67c4.37,0,8.73,0.05,13.1-0.02c3.86-0.06,6.12-2.17,6.14-5.53
		c0.02-3.32-2.28-5.59-6.1-5.63c-8.61-0.09-17.21-0.08-25.82,0c-3.74,0.04-6.21,2.4-6.22,5.59c-0.01,3.24,2.42,5.5,6.18,5.56
		C446.25,303.72,450.49,303.66,454.73,303.67z M354.6,222.53c-3.25,0-6.49-0.08-9.74,0.02c-3.35,0.11-5.56,2.22-5.71,5.23
		c-0.16,3.1,2.11,5.77,5.53,5.86c6.49,0.18,12.99,0.18,19.47,0c3.5-0.1,5.61-2.63,5.47-5.86c-0.13-3.06-2.26-5.12-5.66-5.23
		C360.85,222.45,357.72,222.53,354.6,222.53z M390.17,309c3.11,0,6.23,0.12,9.34-0.03c3.17-0.16,5.05-1.95,5.32-5.16
		c0.26-3.07-1.74-5.71-5.01-5.83c-6.46-0.25-12.95-0.25-19.42,0.01c-3.26,0.13-5.21,2.79-4.94,5.89c0.28,3.22,2.19,4.96,5.36,5.1
		C383.94,309.11,387.06,309,390.17,309z M412.11,247.26c-2.74,0-5.48-0.1-8.21,0.02c-3.29,0.15-5.54,2.34-5.67,5.29
		c-0.13,2.87,2.06,5.63,5.23,5.76c5.71,0.24,11.45,0.24,17.17,0c3.3-0.14,5.29-2.64,5.22-5.69c-0.07-3.05-2.19-5.21-5.52-5.36
		C417.59,247.16,414.85,247.26,412.11,247.26z M256.98,309c0,0.01,0,0.02,0,0.03c2.36,0,4.73,0,7.09,0c0.25,0,0.5-0.01,0.75-0.03
		c3.32-0.26,5.54-2.33,5.68-5.28c0.15-3.11-2.05-5.7-5.53-5.83c-5.47-0.2-10.96-0.2-16.42,0.03c-3.3,0.14-5.32,2.6-5.26,5.65
		c0.06,3.09,2.1,5.22,5.48,5.4C251.5,309.12,254.25,309,256.98,309z M357.93,308.96c0,0.01,0,0.01,0,0.02
		c1.87,0,3.75,0.13,5.61-0.03c3.22-0.28,5.03-2.26,5.13-5.38c0.1-2.98-1.63-5.21-4.57-5.48c-3.95-0.35-7.98-0.35-11.92,0.05
		c-2.95,0.3-4.53,2.56-4.37,5.6c0.16,3.01,1.89,4.85,4.89,5.19C354.42,309.12,356.18,308.96,357.93,308.96z M491.82,303.65
		c0,0,0-0.01,0-0.01c1.62,0,3.26,0.12,4.87-0.03c3.02-0.27,4.83-2.02,5.08-5.03c0.26-3.22-1.43-5.5-4.51-5.89
		c-3.44-0.43-7.01-0.43-10.46-0.05c-3.07,0.34-4.92,2.48-4.73,5.73c0.18,3.2,2.08,4.99,5.26,5.26
		C488.81,303.75,490.32,303.65,491.82,303.65z"/>
	<path class="st0" d="M534.38,426.18c6,0,12,0.05,17.99-0.02c4.17-0.04,6.68-2.1,6.81-5.37c0.13-3.38-2.51-5.79-6.79-5.81
		c-11.99-0.07-23.99-0.07-35.99,0.01c-4.19,0.03-6.58,2.22-6.59,5.59c-0.01,3.4,2.37,5.52,6.57,5.58
		C522.39,426.24,528.38,426.18,534.38,426.18z M454.66,426.16c4.49,0,8.98,0.11,13.46-0.03c3.73-0.12,5.79-2.19,5.84-5.45
		c0.04-3.24-2-5.57-5.66-5.63c-8.85-0.16-17.7-0.15-26.55-0.02c-3.58,0.05-5.87,2.41-5.92,5.48c-0.06,3.2,2.34,5.53,6.12,5.63
		C446.18,426.26,450.43,426.17,454.66,426.16z M491.96,426.09c1.62,0,3.26,0.14,4.86-0.03c3.22-0.35,4.96-2.3,4.96-5.5
		c0-3.02-1.65-5.11-4.67-5.35c-3.46-0.28-6.99-0.3-10.45,0.02c-3,0.28-4.65,2.38-4.61,5.4c0.04,3.21,1.86,5.09,5.04,5.43
		C488.7,426.23,490.34,426.09,491.96,426.09z"/>
	<path class="st0" d="M534.42,353.78c-5.98,0-11.96-0.04-17.94,0.01c-4.14,0.04-6.59,2.11-6.66,5.45c-0.07,3.37,2.4,5.73,6.42,5.75
		c12.21,0.07,24.42,0.07,36.63,0c3.77-0.02,6.25-2.34,6.33-5.51c0.09-3.32-2.46-5.64-6.46-5.68
		C546.63,353.73,540.53,353.78,534.42,353.78z M455.17,353.78c-4.37,0-8.73-0.06-13.1,0.02c-3.79,0.07-6.22,2.29-6.25,5.5
		c-0.03,3.2,2.42,5.63,6.15,5.67c8.61,0.1,17.21,0.1,25.82,0.01c3.84-0.04,6.15-2.28,6.17-5.58c0.02-3.36-2.22-5.52-6.08-5.6
		C463.66,353.71,459.41,353.78,455.17,353.78z M492.06,353.82c0-0.01,0-0.01,0-0.02c-1.5,0-3-0.08-4.5,0.02
		c-3.3,0.22-5.53,2.39-5.53,5.41c0,3.26,1.82,5.3,4.89,5.62c3.33,0.35,6.76,0.36,10.09-0.02c3.08-0.35,4.92-2.48,4.76-5.71
		c-0.16-3.19-2.01-5.02-5.22-5.28C495.07,353.72,493.56,353.82,492.06,353.82z"/>
	<path class="st0" d="M444.96,222.52c19.24,0,38.49,0.02,57.73-0.03c2.81-0.01,5.24,0.44,6.58,3.24c1.44,3-0.01,6.53-3.29,7.53
		c-1.39,0.43-2.95,0.44-4.43,0.44c-37.61,0.02-75.23,0.02-112.84,0.02c-0.62,0-1.25,0.02-1.87-0.01c-4.03-0.14-6.61-2.35-6.61-5.66
		c0-3.32,2.55-5.52,6.62-5.52C406.22,222.51,425.59,222.52,444.96,222.52z"/>
	<path class="st0" d="M340.48,274.23c10.61,0,21.21-0.02,31.82,0.01c4.64,0.01,6.97,1.81,7.07,5.34c0.11,3.71-2.36,5.87-7.05,5.88
		c-21.21,0.04-42.42,0.04-63.63,0c-4.4-0.01-6.89-2.17-6.9-5.67c-0.01-3.55,2.39-5.53,6.88-5.55
		C319.27,274.21,329.87,274.23,340.48,274.23z"/>
	<path class="st0" d="M253.23,229.09c4.83,4.75,9.19,9,13.52,13.29c2.32,2.31,2.91,4.92,0.93,7.72c-1.95,2.76-5.59,3.24-8.19,0.74
		c-6.11-5.87-12.11-11.88-17.98-18c-2.33-2.44-2.03-5.35,0.29-7.72c5.75-5.89,11.57-11.72,17.48-17.45c2.36-2.29,5.6-2.2,7.75-0.19
		c2.35,2.2,2.59,5.45,0.11,8.01C262.81,219.97,258.24,224.22,253.23,229.09z"/>
	<path class="st0" d="M376.79,321.43c7.85,0,15.71-0.03,23.56,0.01c4.33,0.02,6.62,1.88,6.75,5.29c0.14,3.61-2.23,5.89-6.62,5.91
		c-15.71,0.07-31.41,0.06-47.12,0.01c-4.27-0.02-6.91-2.39-6.84-5.79c0.08-3.41,2.62-5.4,7.08-5.42
		C361.33,321.41,369.06,321.43,376.79,321.43z"/>
	<path class="st0" d="M314.81,228.7c-4.17-4.09-8.39-8.15-12.52-12.3c-3.08-3.09-3.31-6.36-0.77-8.83c2.41-2.34,5.63-2.09,8.57,0.81
		c5.42,5.34,10.82,10.72,16.15,16.15c3.16,3.22,3.14,6.15-0.08,9.42c-5.33,5.43-10.72,10.81-16.16,16.14
		c-2.99,2.93-6.15,3.08-8.58,0.63c-2.38-2.39-2.16-5.63,0.7-8.57c4.09-4.2,8.24-8.34,12.36-12.52
		C314.56,229.56,314.56,229.41,314.81,228.7z"/>
	<path class="st0" d="M308.41,309.05c-7.49,0-14.98,0.04-22.47-0.01c-4.37-0.03-6.95-2.2-6.9-5.63c0.05-3.4,2.68-5.56,7.04-5.58
		c15.11-0.04,30.21-0.04,45.32,0c4.4,0.01,7,2.12,7.07,5.53c0.08,3.59-2.49,5.66-7.21,5.68
		C323.65,309.07,316.03,309.05,308.41,309.05z"/>
	<path class="st0" d="M462.37,247.23c7.61,0,15.21-0.03,22.82,0.01c4.17,0.03,6.57,2.08,6.61,5.46c0.04,3.41-2.36,5.71-6.44,5.73
		c-15.34,0.07-30.68,0.06-46.01,0.01c-4.06-0.01-6.62-2.28-6.68-5.56c-0.07-3.42,2.55-5.62,6.88-5.64
		C447.16,247.2,454.77,247.23,462.37,247.23z"/>
	<path class="st0" d="M364.94,247.23c6.37,0,12.74-0.04,19.1,0.01c4.23,0.04,6.54,2.04,6.57,5.5c0.02,3.44-2.34,5.68-6.46,5.7
		c-12.86,0.07-25.72,0.07-38.58,0c-4.01-0.02-6.51-2.43-6.43-5.78c0.08-3.37,2.5-5.38,6.69-5.41
		C352.21,247.2,358.58,247.23,364.94,247.23z"/>
	<path class="st0" d="M534.57,303.67c-6.11,0-12.21,0.04-18.32-0.01c-4-0.03-6.5-2.31-6.43-5.66c0.07-3.23,2.47-5.48,6.28-5.5
		c12.21-0.07,24.42-0.06,36.64-0.01c3.96,0.02,6.54,2.42,6.47,5.72c-0.07,3.31-2.6,5.42-6.68,5.45
		C546.53,303.7,540.55,303.67,534.57,303.67z"/>
	<path class="st0" d="M314.04,321.44c5.98,0,11.97-0.04,17.95,0.02c4.07,0.04,6.59,2.23,6.58,5.54c-0.01,3.27-2.56,5.62-6.6,5.65
		c-11.97,0.08-23.94,0.08-35.9,0c-4.02-0.03-6.58-2.4-6.58-5.67c0-3.3,2.52-5.48,6.6-5.52
		C302.07,321.39,308.05,321.44,314.04,321.44z"/>
	<path class="st0" d="M279.43,252.43c-5.47-0.03-8-3.9-6.49-8.07c1.86-5.16,3.96-10.23,5.97-15.33c2.42-6.15,4.82-12.3,7.3-18.43
		c1.64-4.06,4.58-5.56,7.84-4.15c3.03,1.31,4.07,4.42,2.58,8.25c-4.3,11.03-8.54,22.09-13.11,33.01
		C282.64,249.82,280.39,251.36,279.43,252.43z"/>
	<path class="st0" d="M268.01,274.24c5.98,0,11.97-0.05,17.95,0.02c3.81,0.04,6.24,2.21,6.3,5.41c0.06,3.21-2.32,5.71-6.07,5.75
		c-12.34,0.11-24.68,0.12-37.02-0.02c-3.78-0.04-6-2.56-5.86-5.88c0.14-3.2,2.31-5.21,6.01-5.25
		C255.54,274.18,261.77,274.24,268.01,274.24z"/>
	<path class="st0" d="M263.34,321.44c4.61,0,9.22-0.06,13.83,0.02c3.97,0.07,6.17,2.07,6.22,5.43c0.05,3.34-2.14,5.67-6.02,5.72
		c-9.34,0.14-18.69,0.13-28.04,0c-3.84-0.05-6.08-2.41-6.04-5.71c0.04-3.36,2.25-5.37,6.21-5.44
		C254.12,321.38,258.73,321.44,263.34,321.44z"/>
	<path class="st0" d="M454.73,303.66c-4.24,0-8.48,0.05-12.72-0.02c-3.77-0.06-6.19-2.32-6.18-5.56c0.01-3.19,2.48-5.56,6.22-5.59
		c8.61-0.08,17.22-0.09,25.82,0c3.82,0.04,6.12,2.3,6.1,5.63c-0.02,3.36-2.28,5.47-6.14,5.53
		C463.46,303.72,459.1,303.67,454.73,303.66z"/>
	<path class="st0" d="M354.6,222.53c3.12,0,6.25-0.08,9.36,0.02c3.4,0.11,5.53,2.17,5.66,5.23c0.14,3.22-1.98,5.76-5.47,5.86
		c-6.49,0.18-12.99,0.18-19.47,0c-3.42-0.09-5.69-2.76-5.53-5.86c0.15-3.01,2.36-5.12,5.71-5.23
		C348.11,222.45,351.35,222.53,354.6,222.53z"/>
	<path class="st0" d="M390.17,309c-3.11,0-6.23,0.11-9.34-0.03c-3.17-0.14-5.08-1.89-5.36-5.1c-0.27-3.1,1.68-5.76,4.94-5.89
		c6.46-0.26,12.95-0.26,19.42-0.01c3.27,0.13,5.26,2.76,5.01,5.83c-0.27,3.21-2.15,5-5.32,5.16C396.4,309.12,393.28,309,390.17,309z
		"/>
	<path class="st0" d="M412.11,247.26c2.74,0,5.48-0.1,8.21,0.03c3.33,0.16,5.45,2.32,5.52,5.36c0.07,3.05-1.92,5.55-5.22,5.69
		c-5.72,0.23-11.45,0.23-17.17,0c-3.17-0.13-5.36-2.9-5.23-5.76c0.13-2.95,2.38-5.14,5.67-5.29
		C406.63,247.16,409.37,247.26,412.11,247.26z"/>
	<path class="st0" d="M256.98,309c-2.74,0-5.48,0.12-8.21-0.03c-3.37-0.18-5.42-2.31-5.48-5.4c-0.05-3.05,1.96-5.51,5.26-5.65
		c5.47-0.23,10.95-0.23,16.42-0.03c3.48,0.13,5.68,2.72,5.53,5.83c-0.14,2.95-2.36,5.01-5.68,5.28c-0.25,0.02-0.5,0.03-0.75,0.03
		c-2.36,0-4.73,0-7.09,0C256.98,309.03,256.98,309.02,256.98,309z"/>
	<path class="st0" d="M357.93,308.96c-1.75,0-3.51,0.16-5.23-0.04c-3.01-0.34-4.73-2.17-4.89-5.19c-0.16-3.04,1.42-5.29,4.37-5.6
		c3.94-0.41,7.98-0.41,11.92-0.05c2.94,0.26,4.67,2.5,4.57,5.48c-0.1,3.12-1.91,5.1-5.13,5.38c-1.86,0.16-3.74,0.03-5.61,0.03
		C357.93,308.97,357.93,308.96,357.93,308.96z"/>
	<path class="st0" d="M491.82,303.65c-1.5,0-3.01,0.1-4.5-0.02c-3.18-0.27-5.08-2.06-5.26-5.26c-0.19-3.25,1.66-5.39,4.73-5.73
		c3.45-0.38,7.02-0.39,10.46,0.05c3.09,0.39,4.78,2.67,4.51,5.89c-0.25,3.01-2.05,4.76-5.08,5.03c-1.61,0.14-3.25,0.03-4.87,0.03
		C491.82,303.64,491.82,303.64,491.82,303.65z"/>
	<path class="st0" d="M256.51,132.52c9.15,0.01,16.37,7.2,16.39,16.33c0.02,9.08-7.21,16.47-16.24,16.6
		c-9,0.13-16.77-7.62-16.69-16.64C240.05,139.8,247.44,132.51,256.51,132.52z M256.48,154.18c2.8,0.01,5.15-2.39,5.16-5.25
		c0-2.96-2.19-5.16-5.16-5.15c-2.87,0-5.26,2.35-5.25,5.16C251.24,151.71,253.7,154.17,256.48,154.18z"/>
	<path class="st0" d="M340.68,132.52c9.11,0.07,16.25,7.35,16.2,16.52c-0.05,9.04-7.45,16.42-16.44,16.41
		c-8.92-0.02-16.44-7.52-16.49-16.46C323.9,139.86,331.43,132.45,340.68,132.52z M345.62,148.91c0-2.95-2.21-5.15-5.17-5.14
		c-2.86,0.01-5.25,2.36-5.24,5.17c0.01,2.78,2.48,5.24,5.26,5.24C343.28,154.18,345.62,151.78,345.62,148.91z"/>
	<path class="st0" d="M314.89,149.12c-0.08,9.03-7.55,16.41-16.52,16.32c-8.95-0.09-16.42-7.62-16.41-16.54
		c0.01-9.14,7.55-16.49,16.81-16.39C307.86,132.63,314.97,139.94,314.89,149.12z M298.38,143.77c-2.86,0.05-5.22,2.45-5.15,5.25
		c0.06,2.79,2.57,5.21,5.34,5.16c2.8-0.05,5.11-2.49,5.07-5.35C303.59,145.89,301.34,143.73,298.38,143.77z"/>
	<path class="st0" d="M534.38,426.18c-6,0-12,0.06-17.99-0.02c-4.19-0.06-6.58-2.18-6.57-5.58c0.01-3.37,2.4-5.57,6.59-5.59
		c11.99-0.08,23.99-0.08,35.99-0.01c4.29,0.03,6.93,2.43,6.79,5.81c-0.13,3.27-2.65,5.33-6.81,5.37
		C546.38,426.23,540.38,426.18,534.38,426.18z"/>
	<path class="st0" d="M454.66,426.17c-4.24,0-8.48,0.1-12.71-0.02c-3.77-0.11-6.17-2.43-6.12-5.63c0.05-3.06,2.34-5.42,5.92-5.48
		c8.85-0.13,17.7-0.14,26.55,0.02c3.66,0.07,5.7,2.39,5.66,5.63c-0.04,3.26-2.11,5.33-5.84,5.45
		C463.64,426.27,459.15,426.16,454.66,426.17z"/>
	<path class="st0" d="M491.96,426.09c-1.62,0-3.26,0.14-4.86-0.03c-3.18-0.34-5-2.22-5.04-5.43c-0.04-3.02,1.61-5.13,4.61-5.4
		c3.46-0.32,6.98-0.31,10.45-0.02c3.02,0.25,4.67,2.34,4.67,5.35c0,3.19-1.74,5.15-4.96,5.5
		C495.22,426.23,493.58,426.09,491.96,426.09z"/>
	<path class="st0" d="M534.42,353.78c6.11,0,12.21-0.05,18.32,0.02c4,0.04,6.54,2.36,6.46,5.68c-0.08,3.17-2.56,5.48-6.33,5.51
		c-12.21,0.07-24.42,0.07-36.63,0c-4.01-0.02-6.48-2.38-6.42-5.75c0.07-3.34,2.52-5.41,6.66-5.45
		C522.46,353.74,528.44,353.78,534.42,353.78z"/>
	<path class="st0" d="M455.17,353.78c4.24,0,8.48-0.07,12.72,0.02c3.85,0.08,6.1,2.24,6.08,5.6c-0.02,3.3-2.33,5.54-6.17,5.58
		c-8.61,0.09-17.21,0.09-25.82-0.01c-3.73-0.04-6.18-2.47-6.15-5.67c0.03-3.22,2.46-5.44,6.25-5.5
		C446.44,353.72,450.81,353.78,455.17,353.78z"/>
	<path class="st0" d="M492.06,353.82c1.5,0,3.01-0.1,4.49,0.02c3.21,0.26,5.07,2.09,5.22,5.28c0.16,3.23-1.68,5.36-4.76,5.71
		c-3.33,0.37-6.76,0.36-10.09,0.02c-3.08-0.32-4.9-2.36-4.89-5.62c0-3.02,2.23-5.19,5.53-5.41c1.49-0.1,3-0.02,4.5-0.02
		C492.06,353.81,492.06,353.82,492.06,353.82z"/>
	<path class="st0" d="M345.62,154.18c0,0-2.35,0-5.15,0c-2.78,0-5.24,0-5.26,0c-0.01,0,2.38,0,5.24,0
		C343.41,154.18,345.62,154.18,345.62,154.18z"/>
</g>
</svg>
