<?xml version="1.0" encoding="utf-8"?>
<!-- Generator: Adobe Illustrator 24.1.0, SVG Export Plug-In . SVG Version: 6.00 Build 0)  -->
<svg version="1.1" id="Layer_1" xmlns="http://www.w3.org/2000/svg" xmlns:xlink="http://www.w3.org/1999/xlink" x="0px" y="0px"
	 viewBox="0 0 597.6 633.6" style="enable-background:new 0 0 597.6 633.6;" xml:space="preserve">
<style type="text/css">
	.st0{fill:#F0A160;}
	.st1{fill:#F0A160;stroke:#F0A160;stroke-width:3.3187;stroke-miterlimit:10;}
	.st2{fill:#F0A160;stroke:#F0A160;stroke-width:3.6779;stroke-miterlimit:10;}
</style>
<g>
	<path class="st1" d="M79,328.1c2.4-5.6,6.9-7.4,12.7-7.4c19.9,0.1,39.8,0,59.7,0c1.7,0,3.4,0,5.5,0c4.9-62.2,32.1-111.5,84.7-145.4
		c37.3-24,78.6-32.6,122.6-26.2c90.8,13.4,158.5,93.9,154.3,187.1c-3.9,86.1-69.2,159.1-156.1,170.9c-51.6,7-98.2-6.2-138.5-39.2
		c-40.2-32.8-61.7-75.9-66.4-127.9c-1.8,0-3.3,0-4.8,0c-20,0-40.1-0.1-60.1,0.1c-6,0.1-10.6-1.4-13.5-6.9
		C79,331.5,79,329.8,79,328.1z M177.1,340.3c4.8,79,73.7,152.9,167.6,149.1c89.5-3.6,162.1-80.8,153.9-175.9
		c-7.8-90.2-91.8-161.7-189.8-144.3c-81.6,14.5-131.5,87.9-131.5,151c67.5,0,134.9,0,202.4,0c0.2-0.4,0.4-0.7,0.6-1.1
		c-1.2-1-2.6-1.8-3.7-2.9c-26.3-26.3-52.6-52.6-78.9-78.9c-1.4-1.4-2.9-2.9-3.9-4.5c-3.5-5.4-0.9-12.1,5.2-14.1
		c5.1-1.6,8.4,1.2,11.7,4.4c34.6,34.6,69.2,69.2,103.8,103.8c1.1,1.1,2.1,2.2,3.2,3.4c-0.7,0.8-1.1,1.3-1.6,1.8
		c-35.4,35.4-70.8,70.8-106.2,106.2c-0.9,0.9-1.9,1.7-3,2.4c-5.2,3.4-11.9,1.1-14-4.7c-1.9-5.2,0.8-8.7,4.2-12.1
		c26.7-26.7,53.4-53.4,80.1-80.1c1.1-1.1,2-2.2,3.4-3.7C312.2,340.3,244.6,340.3,177.1,340.3z"/>
</g>
</svg>
