<svg xmlns="http://www.w3.org/2000/svg" viewBox="0 0 216 216"><defs><style>.cls-1{fill:#fff;}</style></defs><g id="Layer_2" data-name="Layer 2"><path class="cls-1" d="M119.54,180.26c1.42-1,2.59-2.09,2-4.1a3.9,3.9,0,0,0-1-1.59Q87.68,141.78,54.86,109c-1-1-.74-1.35.06-2.15Q87.6,74.26,120.23,41.6c1.85-1.84,1.77-3.31.67-4.66s-3.39-1.39-4.94-.1c-.25.21-.47.46-.7.69Q81.61,71.18,48,104.8c-2,2-2.05,4.29,0,6.32q32.9,32.79,65.71,65.66a23.47,23.47,0,0,0,3.91,3.48Z"/><path class="cls-1" d="M176,180.26c2.13-1.44,2.72-2.77,2-4.49a6.32,6.32,0,0,0-1.56-1.78q-30.53-30.56-61.08-61.09-1.78-1.8-3.59-3.59c-1.34-1.35-1.34-1.35,0-2.66l64.58-64.57a16.76,16.76,0,0,0,1.17-1.22,3.14,3.14,0,0,0,0-4.15,3.29,3.29,0,0,0-4.14-.44,10.32,10.32,0,0,0-1.49,1.24l-67.37,67.36c-2.19,2.19-2.19,4,0,6.21l34,34q11.88,11.88,23.76,23.75c3.54,3.53,7.15,7,10.7,10.51a15.68,15.68,0,0,0,1.35.89Z"/></g></svg>