<?xml version="1.0" encoding="utf-8"?>
<!-- Generator: Adobe Illustrator 24.1.0, SVG Export Plug-In . SVG Version: 6.00 Build 0)  -->
<svg version="1.1" id="Capa_1" xmlns="http://www.w3.org/2000/svg" xmlns:xlink="http://www.w3.org/1999/xlink" x="0px" y="0px"
	 viewBox="0 0 583.5 520.1" style="enable-background:new 0 0 583.5 520.1;" xml:space="preserve">
<style type="text/css">
	.st0{fill:#6D95B7;}
	.st1{fill:#FEFEFE;}
	.st2{fill:none;stroke:#F0A160;stroke-width:17.7633;stroke-miterlimit:10;}
	.st3{fill:#F0A160;}
	.st4{fill:none;stroke:#F0A160;stroke-width:17.3377;stroke-miterlimit:10;}
	.st5{fill:none;stroke:#F0A160;stroke-width:17.9052;stroke-miterlimit:10;}
	.st6{fill:none;stroke:#F0A160;stroke-width:13.9263;stroke-miterlimit:10;}
	.st7{fill:#3B3B3B;}
</style>
<g>
	<path class="st7" d="M14.8,99c0.3-0.1,0.6-0.2,0.9-0.3c0.3,1.9,0.6,3.8-0.9,5.5C14.8,102.4,14.8,100.7,14.8,99z"/>
	<g>
		<path class="st3" d="M14.8,418.5c0-104.5,0-209,0-313.5c1.1-2,0.3-4.2,0.6-6.3c0.3-15.8,9.5-26.5,21.8-34.9
			c8.8-6.1,19-8.8,29.9-8.8c148.7,0,297.4-0.1,446.1,0.1c22.7,0,39.1,10.9,49.1,30.9c3,6,3.6,12.4,3.6,18.9
			c0,102.4-0.2,204.7,0.2,307.1c0.1,27.6-24.1,49.1-49.8,50.2c-1.4,0.1-2.9,0-4.3,0c-148,0-295.9,0-443.9,0
			c-22.9,0-39.5-10.5-49.9-30.5C15.9,427.4,16,422.8,14.8,418.5z"/>
		<path class="st1" d="M49.2,127.1c42.2,35.8,83.5,70.8,124.8,105.8c34.4,29.2,68.8,58.3,103.1,87.5c8.9,7.5,16.9,7.5,25.9-0.1
			c74.3-63,148.6-126,222.9-189c1.3-1.1,2.7-2.2,4.1-3.4c1.5,1.4,0.8,3.1,0.8,4.5c0,91.7,0,183.4,0,275.1c0,12.9-6.6,19.5-19.7,19.5
			c-147.5,0-294.9,0-442.4,0c-12.6,0-19.6-6.6-19.6-18.6c0-92.2,0-184.4,0-276.6C49.2,130.5,49.2,129.3,49.2,127.1z"/>
		<path class="st1" d="M520.1,91.7c-17.2,14.6-34,28.9-50.8,43.1c-58.3,49.5-116.7,98.9-175,148.5c-3,2.6-4.8,3.4-8.3,0.4
			C211.6,220.2,137,157,62.4,93.7c-0.7-0.6-1.3-1.1-2-1.8C65,89.8,513,89.3,520.1,91.7z"/>
	</g>
</g>
</svg>
