<?xml version="1.0" encoding="utf-8"?>
<!-- Generator: Adobe Illustrator 24.1.0, SVG Export Plug-In . SVG Version: 6.00 Build 0)  -->
<svg version="1.1" id="Layer_1" xmlns="http://www.w3.org/2000/svg" xmlns:xlink="http://www.w3.org/1999/xlink" x="0px" y="0px"
	 viewBox="0 0 30 30" style="enable-background:new 0 0 30 30;" xml:space="preserve">
<style type="text/css">
	.st0{fill:#FFFFFF;}
</style>
<path class="st0" d="M27.56,8.75H2.45c-1.07,0-1.93-0.86-1.93-1.93v0c0-1.07,0.86-1.93,1.93-1.93h25.11c1.07,0,1.93,0.86,1.93,1.93
	v0C29.49,7.89,28.62,8.75,27.56,8.75z"/>
<path class="st0" d="M27.55,16.34H2.45c-1.07,0-1.93-0.86-1.93-1.93v0c0-1.07,0.86-1.93,1.93-1.93h25.11c1.07,0,1.93,0.86,1.93,1.93
	v0C29.49,15.48,28.62,16.34,27.55,16.34z"/>
<path class="st0" d="M27.56,24.44H2.45c-1.07,0-1.93-0.86-1.93-1.93v0c0-1.07,0.86-1.93,1.93-1.93h25.11c1.07,0,1.93,0.86,1.93,1.93
	v0C29.49,23.58,28.62,24.44,27.56,24.44z"/>
</svg>
