<?xml version="1.0" encoding="utf-8"?>
<!-- Generator: Adobe Illustrator 24.1.0, SVG Export Plug-In . SVG Version: 6.00 Build 0)  -->
<svg version="1.1" id="Layer_1" xmlns="http://www.w3.org/2000/svg" xmlns:xlink="http://www.w3.org/1999/xlink" x="0px" y="0px"
	 viewBox="0 0 72 72" style="enable-background:new 0 0 72 72;" xml:space="preserve">
<style type="text/css">
	.st0{fill:#FFFFFF;}
</style>
<g>
	<path class="st0" d="M2.34,23.94c0.3-1.68,0.54-3.36,1.13-4.98c2.38-6.56,6.81-10.98,13.7-12.5C23.8,5,29.49,6.97,34.15,11.89
		c0.48,0.51,0.94,1.04,1.36,1.6c0.35,0.47,0.58,0.45,0.93,0c1.58-2.07,3.48-3.81,5.73-5.14c3.49-2.05,7.27-2.7,11.25-2.15
		c4.15,0.58,7.71,2.38,10.61,5.41c2.98,3.11,4.69,6.86,5.35,11.11c0.64,4.1,0.19,8.07-1.38,11.9c-1.43,3.48-3.59,6.5-6.07,9.3
		c-3.79,4.27-8.11,7.98-12.41,11.7c-3.57,3.09-7.17,6.16-10.76,9.24c-1.71,1.47-3.74,1.57-5.43,0.1
		c-6.94-6.02-14.13-11.75-20.67-18.23c-2.84-2.81-5.42-5.83-7.38-9.34c-1.47-2.63-2.45-5.41-2.83-8.4c-0.02-0.15-0.07-0.3-0.1-0.45
		C2.34,27,2.34,25.47,2.34,23.94z M65.54,25.69c-0.05-0.83-0.13-2.29-0.46-3.73c-1.6-6.99-7.52-12.45-15.5-11.79
		c-2.75,0.23-5.15,1.29-7.26,3.05c-1.65,1.37-2.94,3.04-4.12,4.82c-1.19,1.81-3.25,1.79-4.48,0.02c-0.51-0.74-0.99-1.5-1.55-2.2
		c-3.09-3.84-6.94-6.05-12.03-5.71c-2.35,0.16-4.53,0.78-6.5,2.04c-5.15,3.31-7.2,8.28-7.28,14.18c-0.05,3.92,1.31,7.45,3.48,10.69
		c2.64,3.95,5.99,7.24,9.49,10.4c5.3,4.78,10.78,9.34,16.17,14.02c0.36,0.31,0.56,0.33,0.92,0.01c5.96-5.21,12.11-10.22,17.9-15.62
		c2.93-2.74,5.7-5.63,7.9-9.01C64.31,33.66,65.59,30.19,65.54,25.69z"/>
</g>
</svg>
