<?xml version="1.0" encoding="utf-8"?>
<!-- Generator: Adobe Illustrator 24.1.0, SVG Export Plug-In . SVG Version: 6.00 Build 0)  -->
<svg version="1.1" id="Capa_1" xmlns="http://www.w3.org/2000/svg" xmlns:xlink="http://www.w3.org/1999/xlink" x="0px" y="0px"
	 viewBox="0 0 583.5 520.1" style="enable-background:new 0 0 583.5 520.1;" xml:space="preserve">
<style type="text/css">
	.st0{fill:#6D95B7;}
	.st1{fill:#FEFEFE;}
	.st2{fill:none;stroke:#F0A160;stroke-width:17.7633;stroke-miterlimit:10;}
	.st3{fill:#F0A160;}
	.st4{fill:none;stroke:#F0A160;stroke-width:17.3377;stroke-miterlimit:10;}
	.st5{fill:none;stroke:#F0A160;stroke-width:17.9052;stroke-miterlimit:10;}
	.st6{fill:none;stroke:#F0A160;stroke-width:13.9263;stroke-miterlimit:10;}
	.st7{fill:#3B3B3B;}
</style>
<g>
	<path class="st0" d="M460.7,463.8c-112.6,0-225.3,0-337.9,0c-14.4-1.7-24.1-9.9-30.9-22.2c-2.7-4.9-3.7-10.2-3.7-15.7
		c0-110.5-0.1-221,0-331.4c0-20.2,17.9-38.1,38.1-38.2c110.5-0.1,221-0.1,331.4,0c19.2,0,35.6,15.4,37.5,34.6c0,0.2,0.2,0.5,0.4,0.7
		c0,112.6,0,225.3,0,337.9C494.3,446.1,477.8,463,460.7,463.8z"/>
	<path class="st1" d="M312.5,243.8c10.2-13.9,22.7-22.5,38-26.4c19.6-5,37.6-0.1,53.7,11.5c20.2,14.6,30.4,34.7,30.3,59.8
		c0,36.7,0,73.4,0.1,110.1c0,3-0.7,3.9-3.8,3.9c-17.9-0.2-35.8-0.2-53.7,0c-3,0-3.7-0.8-3.7-3.8c0.1-33.9,0.1-67.8,0.1-101.8
		c0-15.6-8.2-27.1-22.3-31.5c-17-5.4-36.8,7.8-38.3,25.6c-0.2,2.5-0.3,5-0.3,7.5c0,33.3-0.1,66.5,0.1,99.8c0,3.3-0.8,4.1-4.1,4.1
		c-17.8-0.2-35.5-0.1-53.3,0c-2.7,0-3.8-0.3-3.8-3.5c0.1-58.7,0.1-117.4,0-176.1c0-3.2,1-3.6,3.8-3.6c17.9,0.1,35.8,0.1,53.7,0
		c2.9,0,3.9,0.6,3.8,3.7C312.3,229.7,312.5,236.1,312.5,243.8z"/>
	<path class="st1" d="M149.7,311.1c0-29.1,0.1-58.3-0.1-87.4c0-3.7,1.1-4.2,4.4-4.2c17.7,0.2,35.5,0.1,53.2,0c2.6,0,3.6,0.5,3.6,3.4
		c-0.1,58.8-0.1,117.6,0,176.4c0,2.5-0.5,3.4-3.2,3.4c-18.3-0.1-36.5-0.1-54.8,0c-2.9,0-3.1-1.1-3.1-3.4
		C149.7,369.9,149.7,340.5,149.7,311.1z"/>
	<path class="st1" d="M216.7,148.4c-0.1,20.3-16.4,36.5-36.6,36.5c-20.2-0.1-36.7-16.6-36.5-36.6c0.1-20.1,16.8-36.7,36.7-36.6
		C200.4,111.8,216.8,128.3,216.7,148.4z"/>
</g>
</svg>
