<?xml version="1.0" encoding="utf-8"?>
<!-- Generator: Adobe Illustrator 24.1.0, SVG Export Plug-In . SVG Version: 6.00 Build 0)  -->
<svg version="1.1" xmlns="http://www.w3.org/2000/svg" xmlns:xlink="http://www.w3.org/1999/xlink" x="0px" y="0px"
	 viewBox="0 0 395.53 177.16" style="enable-background:new 0 0 395.53 177.16;" xml:space="preserve">
<style type="text/css">
	.st0{fill:none;stroke:#000000;stroke-width:1.8745;stroke-miterlimit:10;}
	.st1{display:none;fill:none;stroke:#000000;stroke-width:2;stroke-miterlimit:10;}
	.st2{stroke:#000000;stroke-width:2;stroke-miterlimit:10;}
	.st3{display:none;fill:#FFFFFF;stroke:#000000;stroke-width:0.7482;stroke-miterlimit:10;}
	.st4{fill:#FCEE21;}
	.st5{display:none;fill:none;stroke:#000000;stroke-width:1.9973;stroke-miterlimit:10;}
	.st6{fill:none;stroke:#00A651;stroke-width:1.9973;stroke-miterlimit:10;}
	.st7{fill:none;stroke:#00A651;stroke-width:1.6504;stroke-miterlimit:10;}
	.st8{display:none;fill:none;stroke:#00A651;stroke-width:1.9973;stroke-miterlimit:10;}
	.st9{fill:#00A651;}
	.st10{display:none;fill:#00A651;}
	.st11{display:none;fill:none;stroke:#00A651;stroke-miterlimit:10;}
	.st12{fill:none;stroke:#000000;stroke-miterlimit:10;}
	.st13{fill:none;stroke:#000000;stroke-width:1.0597;stroke-miterlimit:10;}
	.st14{fill:none;stroke:#000000;stroke-width:0.8285;stroke-miterlimit:10;}
	.st15{fill:none;stroke:#000000;stroke-width:0.8829;stroke-miterlimit:10;}
	.st16{fill:none;stroke:#000000;stroke-width:0.8203;stroke-miterlimit:10;}
	.st17{display:none;fill:none;stroke:#000000;stroke-miterlimit:10;}
	.st18{fill:none;stroke:#000000;stroke-width:0.9339;stroke-miterlimit:10;}
	.st19{display:none;fill:none;stroke:#000000;stroke-width:0.9339;stroke-miterlimit:10;}
	.st20{fill:none;stroke:#000000;stroke-width:0.75;stroke-miterlimit:10;}
	.st21{display:none;fill:none;stroke:#000000;stroke-width:0.25;stroke-miterlimit:10;}
	.st22{stroke:#000000;stroke-miterlimit:10;}
	.st23{fill:#FFFFFF;stroke:#000000;stroke-width:1.1821;stroke-miterlimit:10;}
	.st24{display:none;fill:#FFFFFF;stroke:#000000;stroke-width:1.0855;stroke-miterlimit:10;}
	.st25{fill:#FFFFFF;stroke:#000000;stroke-width:1.1643;stroke-miterlimit:10;}
	.st26{stroke:#000000;stroke-width:1.5186;stroke-miterlimit:10;}
	.st27{fill:none;stroke:#000000;stroke-width:2.445;stroke-miterlimit:10;}
	.st28{fill:#FFFFFF;stroke:#000000;stroke-miterlimit:10;}
	.st29{fill:#EC008C;}
	.st30{fill:#FBB040;}
	.st31{fill:#F9ED32;}
	.st32{fill:#7A9FBF;}
	.st33{fill:#F1BA52;}
	.st34{fill:#F1AA6B;}
	.st35{fill:#F2784B;}
	.st36{fill:#C05050;}
	.st37{fill:#F0A160;}
	.st38{fill:#F9A86A;}
	.st39{fill:#EFAA75;}
	.st40{fill:#A7A9AC;}
	.st41{fill:#91BBDB;}
	.st42{fill:#D15E5E;}
	.st43{fill:#F8A17D;}
	.st44{fill:#FAF4A2;}
	.st45{fill:#FFFFFF;}
	.st46{fill:#E8A1C7;}
	.st47{enable-background:new    ;}
	.st48{fill:#BA4748;}
	.st49{fill:none;stroke:#FFFFFF;stroke-width:0.5;}
</style>
<g id="Layer_1">
</g>
<g id="Layer_2">
	<g class="st47">
		<path class="st48" d="M158.7,98.03c-1.69-0.93-3.02-2.21-3.98-3.84c-0.96-1.63-1.44-3.46-1.44-5.5s0.48-3.88,1.44-5.5
			s2.29-2.91,3.99-3.84c1.7-0.93,3.6-1.4,5.7-1.4c1.64,0,3.14,0.28,4.5,0.83c1.36,0.55,2.52,1.37,3.48,2.45l-1.95,1.89
			c-1.58-1.66-3.55-2.49-5.91-2.49c-1.56,0-2.97,0.35-4.23,1.05c-1.26,0.7-2.25,1.66-2.96,2.89s-1.06,2.61-1.06,4.12
			c0,1.52,0.35,2.89,1.06,4.12s1.7,2.2,2.96,2.89c1.26,0.7,2.67,1.05,4.23,1.05c2.34,0,4.31-0.84,5.91-2.52l1.95,1.89
			c-0.96,1.08-2.12,1.9-3.49,2.46c-1.37,0.56-2.88,0.84-4.52,0.84C162.29,99.42,160.39,98.96,158.7,98.03z"/>
		<path class="st48" d="M178.16,98.31c-1.26-0.7-2.25-1.67-2.95-2.89c-0.71-1.23-1.07-2.62-1.07-4.19c0-1.56,0.35-2.96,1.07-4.18
			c0.71-1.23,1.69-2.19,2.95-2.88c1.26-0.69,2.68-1.04,4.26-1.04c1.58,0,2.99,0.34,4.25,1.04c1.25,0.69,2.23,1.65,2.94,2.88
			c0.71,1.23,1.06,2.62,1.06,4.18c0,1.56-0.36,2.96-1.06,4.19c-0.71,1.23-1.69,2.19-2.94,2.89c-1.25,0.7-2.67,1.05-4.25,1.05
			C180.84,99.36,179.42,99.01,178.16,98.31z M185.16,96.14c0.81-0.47,1.44-1.13,1.9-1.98c0.46-0.85,0.69-1.82,0.69-2.92
			c0-1.1-0.23-2.07-0.69-2.92c-0.46-0.85-1.09-1.5-1.9-1.96s-1.73-0.69-2.75-0.69s-1.94,0.23-2.75,0.69s-1.45,1.12-1.92,1.96
			c-0.47,0.85-0.71,1.83-0.71,2.92c0,1.1,0.23,2.08,0.71,2.92c0.47,0.85,1.11,1.51,1.92,1.98s1.73,0.71,2.75,0.71
			S184.35,96.61,185.16,96.14z"/>
		<path class="st48" d="M209.48,83.28v15.9h-2.73v-2.4c-0.58,0.82-1.35,1.46-2.29,1.91c-0.95,0.45-1.98,0.67-3.1,0.67
			c-2.12,0-3.79-0.58-5.01-1.75c-1.22-1.17-1.83-2.89-1.83-5.17v-9.15h2.88v8.82c0,1.54,0.37,2.71,1.11,3.5s1.8,1.18,3.18,1.18
			c1.52,0,2.72-0.46,3.6-1.38c0.88-0.92,1.32-2.22,1.32-3.9v-8.22H209.48z"/>
		<path class="st48" d="M219.95,83.85c0.98-0.48,2.17-0.72,3.57-0.72v2.79c-0.16-0.02-0.38-0.03-0.66-0.03
			c-1.56,0-2.79,0.46-3.68,1.4c-0.89,0.93-1.33,2.25-1.33,3.97v7.92h-2.88v-15.9h2.76v2.67C218.23,85.03,218.97,84.33,219.95,83.85z
			"/>
		<path class="st48" d="M236.66,98.25c-0.42,0.36-0.94,0.63-1.56,0.82c-0.62,0.19-1.26,0.29-1.92,0.29c-1.6,0-2.84-0.43-3.72-1.29
			c-0.88-0.86-1.32-2.09-1.32-3.69v-8.73h-2.7v-2.37h2.7V79.8h2.88v3.48h4.56v2.37h-4.56v8.61c0,0.86,0.21,1.52,0.65,1.98
			c0.43,0.46,1.04,0.69,1.85,0.69c0.88,0,1.63-0.25,2.25-0.75L236.66,98.25z"/>
		<path class="st48" d="M253.44,84.89c1.19,1.17,1.78,2.88,1.78,5.14v9.15h-2.88v-8.82c0-1.54-0.37-2.7-1.11-3.48
			c-0.74-0.78-1.8-1.17-3.18-1.17c-1.56,0-2.79,0.46-3.69,1.36c-0.9,0.91-1.35,2.22-1.35,3.92v8.19h-2.88v-15.9h2.76v2.4
			c0.58-0.82,1.36-1.45,2.35-1.89c0.99-0.44,2.11-0.66,3.38-0.66C250.65,83.13,252.25,83.72,253.44,84.89z"/>
		<path class="st48" d="M274.97,92.19h-12.9c0.18,1.4,0.79,2.53,1.84,3.38c1.05,0.85,2.35,1.28,3.92,1.28c1.9,0,3.43-0.64,4.59-1.92
			l1.59,1.86c-0.72,0.84-1.62,1.48-2.69,1.92c-1.07,0.44-2.27,0.66-3.58,0.66c-1.68,0-3.17-0.34-4.47-1.04
			c-1.3-0.69-2.31-1.65-3.01-2.89c-0.71-1.24-1.07-2.64-1.07-4.2c0-1.54,0.35-2.93,1.04-4.17c0.69-1.24,1.64-2.21,2.85-2.89
			c1.21-0.69,2.57-1.04,4.1-1.04c1.52,0,2.87,0.34,4.06,1.04c1.19,0.69,2.12,1.66,2.79,2.89c0.67,1.24,1,2.66,1,4.26
			C275.03,91.54,275.01,91.83,274.97,92.19z M263.7,86.82c-0.93,0.84-1.48,1.94-1.63,3.3h10.2c-0.16-1.34-0.71-2.44-1.63-3.29
			c-0.93-0.85-2.08-1.28-3.46-1.28C265.79,85.56,264.63,85.98,263.7,86.82z"/>
		<path class="st48" d="M292.79,83.28l-7.71,17.49c-0.68,1.62-1.48,2.76-2.38,3.42c-0.91,0.66-2.01,0.99-3.29,0.99
			c-0.78,0-1.54-0.12-2.27-0.38s-1.33-0.62-1.81-1.09l1.23-2.16c0.82,0.78,1.77,1.17,2.85,1.17c0.7,0,1.29-0.19,1.75-0.55
			c0.47-0.37,0.9-1,1.28-1.91l0.51-1.11l-7.02-15.87h3L284.48,96l5.49-12.72H292.79z"/>
		<path class="st48" d="M303.98,78.18h3v18.39h11.37v2.61h-14.37V78.18z"/>
		<path class="st48" d="M335.48,92.19h-12.9c0.18,1.4,0.79,2.53,1.84,3.38c1.05,0.85,2.35,1.28,3.92,1.28c1.9,0,3.43-0.64,4.59-1.92
			l1.59,1.86c-0.72,0.84-1.62,1.48-2.69,1.92c-1.07,0.44-2.27,0.66-3.58,0.66c-1.68,0-3.17-0.34-4.47-1.04
			c-1.3-0.69-2.31-1.65-3.01-2.89c-0.71-1.24-1.07-2.64-1.07-4.2c0-1.54,0.35-2.93,1.04-4.17c0.69-1.24,1.64-2.21,2.85-2.89
			c1.21-0.69,2.57-1.04,4.1-1.04c1.52,0,2.87,0.34,4.06,1.04c1.19,0.69,2.12,1.66,2.79,2.89c0.67,1.24,1,2.66,1,4.26
			C335.54,91.54,335.52,91.83,335.48,92.19z M324.21,86.82c-0.93,0.84-1.48,1.94-1.63,3.3h10.2c-0.16-1.34-0.71-2.44-1.63-3.29
			c-0.93-0.85-2.08-1.28-3.46-1.28C326.3,85.56,325.14,85.98,324.21,86.82z"/>
		<path class="st48" d="M353.84,92.19h-12.9c0.18,1.4,0.79,2.53,1.84,3.38c1.05,0.85,2.35,1.28,3.92,1.28c1.9,0,3.43-0.64,4.59-1.92
			l1.59,1.86c-0.72,0.84-1.62,1.48-2.69,1.92c-1.07,0.44-2.27,0.66-3.58,0.66c-1.68,0-3.17-0.34-4.47-1.04
			c-1.3-0.69-2.31-1.65-3.01-2.89c-0.71-1.24-1.07-2.64-1.07-4.2c0-1.54,0.35-2.93,1.04-4.17c0.69-1.24,1.64-2.21,2.85-2.89
			c1.21-0.69,2.57-1.04,4.1-1.04c1.52,0,2.87,0.34,4.06,1.04c1.19,0.69,2.12,1.66,2.79,2.89c0.67,1.24,1,2.66,1,4.26
			C353.9,91.54,353.88,91.83,353.84,92.19z M342.57,86.82c-0.93,0.84-1.48,1.94-1.63,3.3h10.2c-0.16-1.34-0.71-2.44-1.63-3.29
			c-0.93-0.85-2.08-1.28-3.46-1.28C344.66,85.56,343.5,85.98,342.57,86.82z"/>
	</g>
	<g class="st47">
		<path class="st45" d="M155.7,96.03c-1.69-0.93-3.02-2.21-3.98-3.84c-0.96-1.63-1.44-3.46-1.44-5.5s0.48-3.88,1.44-5.5
			s2.29-2.91,3.99-3.84c1.7-0.93,3.6-1.4,5.7-1.4c1.64,0,3.14,0.28,4.5,0.83c1.36,0.55,2.52,1.37,3.48,2.45l-1.95,1.89
			c-1.58-1.66-3.55-2.49-5.91-2.49c-1.56,0-2.97,0.35-4.23,1.05c-1.26,0.7-2.25,1.66-2.96,2.89s-1.06,2.61-1.06,4.12
			c0,1.52,0.35,2.89,1.06,4.12s1.7,2.2,2.96,2.89c1.26,0.7,2.67,1.05,4.23,1.05c2.34,0,4.31-0.84,5.91-2.52l1.95,1.89
			c-0.96,1.08-2.12,1.9-3.49,2.46c-1.37,0.56-2.88,0.84-4.52,0.84C159.29,97.42,157.39,96.96,155.7,96.03z"/>
		<path class="st45" d="M175.16,96.31c-1.26-0.7-2.25-1.67-2.95-2.89c-0.71-1.23-1.07-2.62-1.07-4.19c0-1.56,0.35-2.96,1.07-4.18
			c0.71-1.23,1.69-2.19,2.95-2.88c1.26-0.69,2.68-1.04,4.26-1.04c1.58,0,2.99,0.34,4.25,1.04c1.25,0.69,2.23,1.65,2.94,2.88
			c0.71,1.23,1.06,2.62,1.06,4.18c0,1.56-0.36,2.96-1.06,4.19c-0.71,1.23-1.69,2.19-2.94,2.89c-1.25,0.7-2.67,1.05-4.25,1.05
			C177.84,97.36,176.42,97.01,175.16,96.31z M182.16,94.14c0.81-0.47,1.44-1.13,1.9-1.98c0.46-0.85,0.69-1.82,0.69-2.92
			c0-1.1-0.23-2.07-0.69-2.92c-0.46-0.85-1.09-1.5-1.9-1.96s-1.73-0.69-2.75-0.69s-1.94,0.23-2.75,0.69s-1.45,1.12-1.92,1.96
			c-0.47,0.85-0.71,1.83-0.71,2.92c0,1.1,0.23,2.08,0.71,2.92c0.47,0.85,1.11,1.51,1.92,1.98s1.73,0.71,2.75,0.71
			S181.35,94.61,182.16,94.14z"/>
		<path class="st45" d="M206.48,81.28v15.9h-2.73v-2.4c-0.58,0.82-1.35,1.46-2.29,1.91c-0.95,0.45-1.98,0.67-3.1,0.67
			c-2.12,0-3.79-0.58-5.01-1.75c-1.22-1.17-1.83-2.89-1.83-5.17v-9.15h2.88v8.82c0,1.54,0.37,2.71,1.11,3.5s1.8,1.18,3.18,1.18
			c1.52,0,2.72-0.46,3.6-1.38c0.88-0.92,1.32-2.22,1.32-3.9v-8.22H206.48z"/>
		<path class="st45" d="M216.95,81.85c0.98-0.48,2.17-0.72,3.57-0.72v2.79c-0.16-0.02-0.38-0.03-0.66-0.03
			c-1.56,0-2.79,0.46-3.68,1.4c-0.89,0.93-1.33,2.25-1.33,3.97v7.92h-2.88v-15.9h2.76v2.67C215.23,83.03,215.97,82.33,216.95,81.85z
			"/>
		<path class="st45" d="M233.66,96.25c-0.42,0.36-0.94,0.63-1.56,0.82c-0.62,0.19-1.26,0.29-1.92,0.29c-1.6,0-2.84-0.43-3.72-1.29
			c-0.88-0.86-1.32-2.09-1.32-3.69v-8.73h-2.7v-2.37h2.7V77.8h2.88v3.48h4.56v2.37h-4.56v8.61c0,0.86,0.21,1.52,0.65,1.98
			c0.43,0.46,1.04,0.69,1.85,0.69c0.88,0,1.63-0.25,2.25-0.75L233.66,96.25z"/>
		<path class="st45" d="M250.44,82.89c1.19,1.17,1.78,2.88,1.78,5.14v9.15h-2.88v-8.82c0-1.54-0.37-2.7-1.11-3.48
			c-0.74-0.78-1.8-1.17-3.18-1.17c-1.56,0-2.79,0.46-3.69,1.36c-0.9,0.91-1.35,2.22-1.35,3.92v8.19h-2.88v-15.9h2.76v2.4
			c0.58-0.82,1.36-1.45,2.35-1.89c0.99-0.44,2.11-0.66,3.38-0.66C247.65,81.13,249.25,81.72,250.44,82.89z"/>
		<path class="st45" d="M271.97,90.19h-12.9c0.18,1.4,0.79,2.53,1.84,3.38c1.05,0.85,2.35,1.28,3.92,1.28c1.9,0,3.43-0.64,4.59-1.92
			l1.59,1.86c-0.72,0.84-1.62,1.48-2.69,1.92c-1.07,0.44-2.27,0.66-3.58,0.66c-1.68,0-3.17-0.34-4.47-1.04
			c-1.3-0.69-2.31-1.65-3.01-2.89c-0.71-1.24-1.07-2.64-1.07-4.2c0-1.54,0.35-2.93,1.04-4.17c0.69-1.24,1.64-2.21,2.85-2.89
			c1.21-0.69,2.57-1.04,4.1-1.04c1.52,0,2.87,0.34,4.06,1.04c1.19,0.69,2.12,1.66,2.79,2.89c0.67,1.24,1,2.66,1,4.26
			C272.03,89.54,272.01,89.83,271.97,90.19z M260.7,84.82c-0.93,0.84-1.48,1.94-1.63,3.3h10.2c-0.16-1.34-0.71-2.44-1.63-3.29
			c-0.93-0.85-2.08-1.28-3.46-1.28C262.79,83.56,261.63,83.98,260.7,84.82z"/>
		<path class="st45" d="M289.79,81.28l-7.71,17.49c-0.68,1.62-1.48,2.76-2.38,3.42c-0.91,0.66-2.01,0.99-3.29,0.99
			c-0.78,0-1.54-0.12-2.27-0.38s-1.33-0.62-1.81-1.09l1.23-2.16c0.82,0.78,1.77,1.17,2.85,1.17c0.7,0,1.29-0.19,1.75-0.55
			c0.47-0.37,0.9-1,1.28-1.91l0.51-1.11l-7.02-15.87h3L281.48,94l5.49-12.72H289.79z"/>
		<path class="st45" d="M300.98,76.18h3v18.39h11.37v2.61h-14.37V76.18z"/>
		<path class="st45" d="M332.48,90.19h-12.9c0.18,1.4,0.79,2.53,1.84,3.38c1.05,0.85,2.35,1.28,3.92,1.28c1.9,0,3.43-0.64,4.59-1.92
			l1.59,1.86c-0.72,0.84-1.62,1.48-2.69,1.92c-1.07,0.44-2.27,0.66-3.58,0.66c-1.68,0-3.17-0.34-4.47-1.04
			c-1.3-0.69-2.31-1.65-3.01-2.89c-0.71-1.24-1.07-2.64-1.07-4.2c0-1.54,0.35-2.93,1.04-4.17c0.69-1.24,1.64-2.21,2.85-2.89
			c1.21-0.69,2.57-1.04,4.1-1.04c1.52,0,2.87,0.34,4.06,1.04c1.19,0.69,2.12,1.66,2.79,2.89c0.67,1.24,1,2.66,1,4.26
			C332.54,89.54,332.52,89.83,332.48,90.19z M321.21,84.82c-0.93,0.84-1.48,1.94-1.63,3.3h10.2c-0.16-1.34-0.71-2.44-1.63-3.29
			c-0.93-0.85-2.08-1.28-3.46-1.28C323.3,83.56,322.14,83.98,321.21,84.82z"/>
		<path class="st45" d="M350.84,90.19h-12.9c0.18,1.4,0.79,2.53,1.84,3.38c1.05,0.85,2.35,1.28,3.92,1.28c1.9,0,3.43-0.64,4.59-1.92
			l1.59,1.86c-0.72,0.84-1.62,1.48-2.69,1.92c-1.07,0.44-2.27,0.66-3.58,0.66c-1.68,0-3.17-0.34-4.47-1.04
			c-1.3-0.69-2.31-1.65-3.01-2.89c-0.71-1.24-1.07-2.64-1.07-4.2c0-1.54,0.35-2.93,1.04-4.17c0.69-1.24,1.64-2.21,2.85-2.89
			c1.21-0.69,2.57-1.04,4.1-1.04c1.52,0,2.87,0.34,4.06,1.04c1.19,0.69,2.12,1.66,2.79,2.89c0.67,1.24,1,2.66,1,4.26
			C350.9,89.54,350.88,89.83,350.84,90.19z M339.57,84.82c-0.93,0.84-1.48,1.94-1.63,3.3h10.2c-0.16-1.34-0.71-2.44-1.63-3.29
			c-0.93-0.85-2.08-1.28-3.46-1.28C341.66,83.56,340.5,83.98,339.57,84.82z"/>
	</g>
	<g class="st47">
		<path class="st49" d="M155.7,96.03c-1.69-0.93-3.02-2.21-3.98-3.84c-0.96-1.63-1.44-3.46-1.44-5.5s0.48-3.88,1.44-5.5
			s2.29-2.91,3.99-3.84c1.7-0.93,3.6-1.4,5.7-1.4c1.64,0,3.14,0.28,4.5,0.83c1.36,0.55,2.52,1.37,3.48,2.45l-1.95,1.89
			c-1.58-1.66-3.55-2.49-5.91-2.49c-1.56,0-2.97,0.35-4.23,1.05c-1.26,0.7-2.25,1.66-2.96,2.89s-1.06,2.61-1.06,4.12
			c0,1.52,0.35,2.89,1.06,4.12s1.7,2.2,2.96,2.89c1.26,0.7,2.67,1.05,4.23,1.05c2.34,0,4.31-0.84,5.91-2.52l1.95,1.89
			c-0.96,1.08-2.12,1.9-3.49,2.46c-1.37,0.56-2.88,0.84-4.52,0.84C159.29,97.42,157.39,96.96,155.7,96.03z"/>
		<path class="st49" d="M175.16,96.31c-1.26-0.7-2.25-1.67-2.95-2.89c-0.71-1.23-1.07-2.62-1.07-4.19c0-1.56,0.35-2.96,1.07-4.18
			c0.71-1.23,1.69-2.19,2.95-2.88c1.26-0.69,2.68-1.04,4.26-1.04c1.58,0,2.99,0.34,4.25,1.04c1.25,0.69,2.23,1.65,2.94,2.88
			c0.71,1.23,1.06,2.62,1.06,4.18c0,1.56-0.36,2.96-1.06,4.19c-0.71,1.23-1.69,2.19-2.94,2.89c-1.25,0.7-2.67,1.05-4.25,1.05
			C177.84,97.36,176.42,97.01,175.16,96.31z M182.16,94.14c0.81-0.47,1.44-1.13,1.9-1.98c0.46-0.85,0.69-1.82,0.69-2.92
			c0-1.1-0.23-2.07-0.69-2.92c-0.46-0.85-1.09-1.5-1.9-1.96s-1.73-0.69-2.75-0.69s-1.94,0.23-2.75,0.69s-1.45,1.12-1.92,1.96
			c-0.47,0.85-0.71,1.83-0.71,2.92c0,1.1,0.23,2.08,0.71,2.92c0.47,0.85,1.11,1.51,1.92,1.98s1.73,0.71,2.75,0.71
			S181.35,94.61,182.16,94.14z"/>
		<path class="st49" d="M206.48,81.28v15.9h-2.73v-2.4c-0.58,0.82-1.35,1.46-2.29,1.91c-0.95,0.45-1.98,0.67-3.1,0.67
			c-2.12,0-3.79-0.58-5.01-1.75c-1.22-1.17-1.83-2.89-1.83-5.17v-9.15h2.88v8.82c0,1.54,0.37,2.71,1.11,3.5s1.8,1.18,3.18,1.18
			c1.52,0,2.72-0.46,3.6-1.38c0.88-0.92,1.32-2.22,1.32-3.9v-8.22H206.48z"/>
		<path class="st49" d="M216.95,81.85c0.98-0.48,2.17-0.72,3.57-0.72v2.79c-0.16-0.02-0.38-0.03-0.66-0.03
			c-1.56,0-2.79,0.46-3.68,1.4c-0.89,0.93-1.33,2.25-1.33,3.97v7.92h-2.88v-15.9h2.76v2.67C215.23,83.03,215.97,82.33,216.95,81.85z
			"/>
		<path class="st49" d="M233.66,96.25c-0.42,0.36-0.94,0.63-1.56,0.82c-0.62,0.19-1.26,0.29-1.92,0.29c-1.6,0-2.84-0.43-3.72-1.29
			c-0.88-0.86-1.32-2.09-1.32-3.69v-8.73h-2.7v-2.37h2.7V77.8h2.88v3.48h4.56v2.37h-4.56v8.61c0,0.86,0.21,1.52,0.65,1.98
			c0.43,0.46,1.04,0.69,1.85,0.69c0.88,0,1.63-0.25,2.25-0.75L233.66,96.25z"/>
		<path class="st49" d="M250.44,82.89c1.19,1.17,1.78,2.88,1.78,5.14v9.15h-2.88v-8.82c0-1.54-0.37-2.7-1.11-3.48
			c-0.74-0.78-1.8-1.17-3.18-1.17c-1.56,0-2.79,0.46-3.69,1.36c-0.9,0.91-1.35,2.22-1.35,3.92v8.19h-2.88v-15.9h2.76v2.4
			c0.58-0.82,1.36-1.45,2.35-1.89c0.99-0.44,2.11-0.66,3.38-0.66C247.65,81.13,249.25,81.72,250.44,82.89z"/>
		<path class="st49" d="M271.97,90.19h-12.9c0.18,1.4,0.79,2.53,1.84,3.38c1.05,0.85,2.35,1.28,3.92,1.28c1.9,0,3.43-0.64,4.59-1.92
			l1.59,1.86c-0.72,0.84-1.62,1.48-2.69,1.92c-1.07,0.44-2.27,0.66-3.58,0.66c-1.68,0-3.17-0.34-4.47-1.04
			c-1.3-0.69-2.31-1.65-3.01-2.89c-0.71-1.24-1.07-2.64-1.07-4.2c0-1.54,0.35-2.93,1.04-4.17c0.69-1.24,1.64-2.21,2.85-2.89
			c1.21-0.69,2.57-1.04,4.1-1.04c1.52,0,2.87,0.34,4.06,1.04c1.19,0.69,2.12,1.66,2.79,2.89c0.67,1.24,1,2.66,1,4.26
			C272.03,89.54,272.01,89.83,271.97,90.19z M260.7,84.82c-0.93,0.84-1.48,1.94-1.63,3.3h10.2c-0.16-1.34-0.71-2.44-1.63-3.29
			c-0.93-0.85-2.08-1.28-3.46-1.28C262.79,83.56,261.63,83.98,260.7,84.82z"/>
		<path class="st49" d="M289.79,81.28l-7.71,17.49c-0.68,1.62-1.48,2.76-2.38,3.42c-0.91,0.66-2.01,0.99-3.29,0.99
			c-0.78,0-1.54-0.12-2.27-0.38s-1.33-0.62-1.81-1.09l1.23-2.16c0.82,0.78,1.77,1.17,2.85,1.17c0.7,0,1.29-0.19,1.75-0.55
			c0.47-0.37,0.9-1,1.28-1.91l0.51-1.11l-7.02-15.87h3L281.48,94l5.49-12.72H289.79z"/>
		<path class="st49" d="M300.98,76.18h3v18.39h11.37v2.61h-14.37V76.18z"/>
		<path class="st49" d="M332.48,90.19h-12.9c0.18,1.4,0.79,2.53,1.84,3.38c1.05,0.85,2.35,1.28,3.92,1.28c1.9,0,3.43-0.64,4.59-1.92
			l1.59,1.86c-0.72,0.84-1.62,1.48-2.69,1.92c-1.07,0.44-2.27,0.66-3.58,0.66c-1.68,0-3.17-0.34-4.47-1.04
			c-1.3-0.69-2.31-1.65-3.01-2.89c-0.71-1.24-1.07-2.64-1.07-4.2c0-1.54,0.35-2.93,1.04-4.17c0.69-1.24,1.64-2.21,2.85-2.89
			c1.21-0.69,2.57-1.04,4.1-1.04c1.52,0,2.87,0.34,4.06,1.04c1.19,0.69,2.12,1.66,2.79,2.89c0.67,1.24,1,2.66,1,4.26
			C332.54,89.54,332.52,89.83,332.48,90.19z M321.21,84.82c-0.93,0.84-1.48,1.94-1.63,3.3h10.2c-0.16-1.34-0.71-2.44-1.63-3.29
			c-0.93-0.85-2.08-1.28-3.46-1.28C323.3,83.56,322.14,83.98,321.21,84.82z"/>
		<path class="st49" d="M350.84,90.19h-12.9c0.18,1.4,0.79,2.53,1.84,3.38c1.05,0.85,2.35,1.28,3.92,1.28c1.9,0,3.43-0.64,4.59-1.92
			l1.59,1.86c-0.72,0.84-1.62,1.48-2.69,1.92c-1.07,0.44-2.27,0.66-3.58,0.66c-1.68,0-3.17-0.34-4.47-1.04
			c-1.3-0.69-2.31-1.65-3.01-2.89c-0.71-1.24-1.07-2.64-1.07-4.2c0-1.54,0.35-2.93,1.04-4.17c0.69-1.24,1.64-2.21,2.85-2.89
			c1.21-0.69,2.57-1.04,4.1-1.04c1.52,0,2.87,0.34,4.06,1.04c1.19,0.69,2.12,1.66,2.79,2.89c0.67,1.24,1,2.66,1,4.26
			C350.9,89.54,350.88,89.83,350.84,90.19z M339.57,84.82c-0.93,0.84-1.48,1.94-1.63,3.3h10.2c-0.16-1.34-0.71-2.44-1.63-3.29
			c-0.93-0.85-2.08-1.28-3.46-1.28C341.66,83.56,340.5,83.98,339.57,84.82z"/>
	</g>
	<g>
		<g>
			<path class="st36" d="M108.5,130.97c-23.47-0.41-41.95-20.95-39.22-44.85c2.39-20.89,20.97-36.51,41.97-35.45
				c2.52,0.13,5.03,0.49,7.48,1.09c1.24,0.3,2.47,0.66,3.67,1.08c0.76,0.27,2.43,0.44,2.74,1.34c0.27,0.76-0.44,1.54-0.8,2.14
				c-0.49,0.82-0.82,1.74-1.2,2.61c-0.31,0.7-0.39,1.57-0.88,2.19c-0.71,0.9-1.75-0.15-2.56-0.44c-3.25-1.14-6.69-1.73-10.13-1.77
				c-16.26-0.2-30.32,12.19-32.08,28.35c-2.05,18.88,12.58,35.09,31.14,35.41c3.45,0.06,6.91-0.43,10.2-1.47
				c3.05-0.97,5.78-2.74,8.57-4.27c0.1-0.05,0.2-0.11,0.31-0.1c0.13,0.02,0.23,0.13,0.32,0.23c0.99,1.17,1.86,2.42,2.79,3.64
				c0.53,0.69,1.79,1.86,1.68,2.82c-0.14,1.24-4.79,2.82-5.78,3.28c-1.67,0.77-3.38,1.65-5.14,2.22
				C117.37,130.4,112.93,131.05,108.5,130.97z"/>
			<path class="st36" d="M60.06,122.13l-0.22-0.31c-0.31-0.43-0.2-1.03,0.23-1.34l9-6.38c0.43-0.31,1.03-0.2,1.34,0.23l0.22,0.31
				c0.31,0.43,0.2,1.03-0.23,1.34l-9,6.38C60.96,122.67,60.36,122.56,60.06,122.13z"/>
			<path class="st36" d="M63.98,54.94l0.21-0.32c0.29-0.45,0.88-0.57,1.33-0.29l9.27,5.98c0.45,0.29,0.57,0.88,0.29,1.33l-0.21,0.32
				c-0.29,0.45-0.88,0.57-1.33,0.29l-9.27-5.98C63.82,55.98,63.69,55.39,63.98,54.94z"/>
			<path class="st36" d="M92.72,37.03l0.35-0.15c0.49-0.2,1.05,0.03,1.25,0.52l4.2,10.2c0.2,0.49-0.03,1.05-0.52,1.25l-0.35,0.15
				c-0.49,0.2-1.05-0.03-1.25-0.52l-4.2-10.2C92,37.79,92.23,37.23,92.72,37.03z"/>
			<path class="st36" d="M128.66,36.91L128.66,36.91c0.59,0.23,0.88,0.9,0.65,1.49l-3.86,9.93c-0.23,0.59-0.9,0.88-1.49,0.65v0
				c-0.59-0.23-0.88-0.9-0.65-1.49l3.86-9.93C127.4,36.97,128.07,36.68,128.66,36.91z"/>
			<path class="st36" d="M120.42,109.35c-0.31-0.49-0.85-0.48-1.47-0.5c-0.4-0.01-0.9,0.03-1.29,0.05c-0.47,0.02-0.93,0.04-1.4,0.07
				c-1.41,0.07-2.81,0.13-4.22,0.2c-1.64,0.08-3.28,0.16-4.92,0.24c-1.39,0.07-2.78,0.13-4.17,0.2c-0.66,0.03-0.97,0.05-1.65,0.08
				l17.18-44.29c0.23-0.59-0.26-1.47-0.85-1.7c-0.59-0.23-1.53,0.01-1.76,0.6l-17.61,45.98c-0.09,0.24-0.08,0.49-0.02,0.72
				c0,0.05-0.02,0.09-0.02,0.14c0.03,0.72,0.65,1.28,1.37,1.24c0.42-0.02,0.85-0.04,1.27-0.06c1.06-0.05,2.13-0.1,3.19-0.15
				c1.4-0.07,2.81-0.13,4.21-0.2c1.44-0.07,2.88-0.14,4.31-0.21c1.12-0.06,2.25-0.14,3.37-0.2c0.76-0.04,1.66-0.03,2.41-0.01
				c0.75,0.02,1.67,0.12,2.1-0.73C120.71,110.3,120.83,109.99,120.42,109.35z"/>
			<path class="st36" d="M91.39,131.44L91.39,131.44c0.59,0.23,0.88,0.9,0.65,1.49l-3.86,9.93c-0.23,0.59-0.9,0.88-1.49,0.65h0
				c-0.59-0.23-0.88-0.9-0.65-1.49l3.86-9.93C90.13,131.5,90.8,131.21,91.39,131.44z"/>
			<path class="st36" d="M129.72,144.55l-0.35,0.15c-0.49,0.2-1.05-0.03-1.25-0.52l-4.2-10.2c-0.2-0.49,0.03-1.05,0.52-1.25
				l0.35-0.15c0.49-0.2,1.05,0.03,1.25,0.52l4.2,10.2C130.45,143.79,130.21,144.35,129.72,144.55z"/>
			<path class="st36" d="M51.47,89.83v-0.38c0-0.53,0.43-0.96,0.96-0.96h11.03c0.53,0,0.96,0.43,0.96,0.96v0.38
				c0,0.53-0.43,0.96-0.96,0.96H52.43C51.9,90.79,51.47,90.36,51.47,89.83z"/>
		</g>
		<g>
			<path class="st45" d="M116.7,106.09c-0.31-0.49-0.85-0.48-1.47-0.5c-0.4-0.01-0.9,0.03-1.29,0.05c-0.47,0.02-0.93,0.04-1.4,0.07
				c-1.41,0.07-2.81,0.13-4.22,0.2c-1.64,0.08-3.28,0.16-4.92,0.24c-1.39,0.07-2.78,0.13-4.17,0.2c-0.66,0.03-0.97,0.05-1.65,0.08
				l17.18-44.29c0.23-0.59-0.26-1.47-0.85-1.7c-0.59-0.23-1.53,0.01-1.76,0.6l-17.61,45.98c-0.09,0.24-0.08,0.49-0.02,0.72
				c0,0.05-0.02,0.09-0.02,0.14c0.03,0.72,0.65,1.28,1.37,1.24c0.42-0.02,0.85-0.04,1.27-0.06c1.06-0.05,2.13-0.1,3.19-0.15
				c1.4-0.07,2.81-0.13,4.21-0.2c1.44-0.07,2.88-0.14,4.31-0.21c1.12-0.06,2.25-0.14,3.37-0.2c0.76-0.04,1.66-0.03,2.41-0.01
				c0.75,0.02,1.67,0.12,2.1-0.73C116.98,107.04,117.1,106.73,116.7,106.09z"/>
			<g>
				<path class="st45" d="M88.99,33.76l0.35-0.15c0.49-0.2,1.05,0.03,1.25,0.52l4.2,10.2c0.2,0.49-0.03,1.05-0.52,1.25l-0.35,0.15
					c-0.49,0.2-1.05-0.03-1.25-0.52l-4.2-10.2C88.27,34.53,88.5,33.96,88.99,33.76z"/>
				<g>
					<path class="st45" d="M124.93,33.64L124.93,33.64c0.59,0.23,0.88,0.9,0.65,1.49l-3.86,9.93c-0.23,0.59-0.9,0.88-1.49,0.65l0,0
						c-0.59-0.23-0.88-0.9-0.65-1.49l3.86-9.93C123.68,33.71,124.34,33.41,124.93,33.64z"/>
					<g>
						<path class="st45" d="M126,141.29l-0.35,0.15c-0.49,0.2-1.05-0.03-1.25-0.52l-4.2-10.2c-0.2-0.49,0.03-1.05,0.52-1.25
							l0.35-0.15c0.49-0.2,1.05,0.03,1.25,0.52l4.2,10.2C126.72,140.52,126.49,141.08,126,141.29z"/>
						<g>
							<path class="st45" d="M87.67,128.18L87.67,128.18c0.59,0.23,0.88,0.9,0.65,1.49l-3.86,9.93c-0.23,0.59-0.9,0.88-1.49,0.65
								l0,0c-0.59-0.23-0.88-0.9-0.65-1.49l3.86-9.93C86.41,128.24,87.07,127.94,87.67,128.18z"/>
							<g>
								<path class="st45" d="M56.33,118.87l-0.22-0.31c-0.31-0.43-0.2-1.03,0.23-1.34l9-6.38c0.43-0.31,1.03-0.2,1.34,0.23
									l0.22,0.31c0.31,0.43,0.2,1.03-0.23,1.34l-9,6.38C57.24,119.4,56.64,119.3,56.33,118.87z"/>
								<g>
									<g>
										<path class="st45" d="M60.25,51.68l0.21-0.32c0.29-0.45,0.88-0.57,1.33-0.29l9.27,5.98c0.45,0.29,0.57,0.88,0.29,1.33
											l-0.21,0.32c-0.29,0.45-0.88,0.57-1.33,0.29L60.53,53C60.09,52.72,59.96,52.12,60.25,51.68z"/>
										<path class="st45" d="M104.77,127.71c-23.47-0.41-41.95-20.95-39.22-44.85c2.39-20.89,20.97-36.51,41.97-35.45
											c2.52,0.13,5.03,0.49,7.48,1.09c1.24,0.3,2.47,0.66,3.67,1.08c0.76,0.27,2.43,0.44,2.74,1.34
											c0.27,0.76-0.44,1.54-0.8,2.14c-0.49,0.82-0.82,1.74-1.2,2.61c-0.31,0.7-0.39,1.57-0.88,2.19
											c-0.71,0.9-1.75-0.15-2.56-0.44c-3.25-1.14-6.69-1.73-10.13-1.77C89.59,55.45,75.53,67.84,73.77,84
											c-2.05,18.88,12.58,35.09,31.14,35.41c3.45,0.06,6.91-0.43,10.2-1.47c3.05-0.97,5.78-2.74,8.57-4.27
											c0.1-0.05,0.2-0.11,0.31-0.1c0.13,0.02,0.23,0.13,0.32,0.23c0.99,1.17,1.86,2.42,2.79,3.64c0.53,0.69,1.79,1.86,1.68,2.82
											c-0.14,1.24-4.79,2.82-5.78,3.28c-1.67,0.77-3.38,1.65-5.14,2.22C113.64,127.14,109.2,127.78,104.77,127.71z"/>
									</g>
									<path class="st45" d="M47.74,86.57v-0.38c0-0.53,0.43-0.96,0.96-0.96h11.03c0.53,0,0.96,0.43,0.96,0.96v0.38
										c0,0.53-0.43,0.96-0.96,0.96H48.7C48.17,87.53,47.74,87.1,47.74,86.57z"/>
								</g>
							</g>
						</g>
					</g>
				</g>
			</g>
		</g>
	</g>
</g>
</svg>
