<?xml version="1.0" encoding="utf-8"?>
<!-- Generator: Adobe Illustrator 24.1.0, SVG Export Plug-In . SVG Version: 6.00 Build 0)  -->
<svg version="1.1" xmlns="http://www.w3.org/2000/svg" xmlns:xlink="http://www.w3.org/1999/xlink" x="0px" y="0px"
	 viewBox="0 0 395.53 177.16" style="enable-background:new 0 0 395.53 177.16;" xml:space="preserve">
<style type="text/css">
	.st0{fill:none;stroke:#000000;stroke-width:1.8745;stroke-miterlimit:10;}
	.st1{display:none;fill:none;stroke:#000000;stroke-width:2;stroke-miterlimit:10;}
	.st2{stroke:#000000;stroke-width:2;stroke-miterlimit:10;}
	.st3{display:none;fill:#FFFFFF;stroke:#000000;stroke-width:0.7482;stroke-miterlimit:10;}
	.st4{fill:#FCEE21;}
	.st5{display:none;fill:none;stroke:#000000;stroke-width:1.9973;stroke-miterlimit:10;}
	.st6{fill:none;stroke:#00A651;stroke-width:1.9973;stroke-miterlimit:10;}
	.st7{fill:none;stroke:#00A651;stroke-width:1.6504;stroke-miterlimit:10;}
	.st8{display:none;fill:none;stroke:#00A651;stroke-width:1.9973;stroke-miterlimit:10;}
	.st9{fill:#00A651;}
	.st10{display:none;fill:#00A651;}
	.st11{display:none;fill:none;stroke:#00A651;stroke-miterlimit:10;}
	.st12{fill:none;stroke:#000000;stroke-miterlimit:10;}
	.st13{fill:none;stroke:#000000;stroke-width:1.0597;stroke-miterlimit:10;}
	.st14{fill:none;stroke:#000000;stroke-width:0.8285;stroke-miterlimit:10;}
	.st15{fill:none;stroke:#000000;stroke-width:0.8829;stroke-miterlimit:10;}
	.st16{fill:none;stroke:#000000;stroke-width:0.8203;stroke-miterlimit:10;}
	.st17{display:none;fill:none;stroke:#000000;stroke-miterlimit:10;}
	.st18{fill:none;stroke:#000000;stroke-width:0.9339;stroke-miterlimit:10;}
	.st19{display:none;fill:none;stroke:#000000;stroke-width:0.9339;stroke-miterlimit:10;}
	.st20{fill:none;stroke:#000000;stroke-width:0.75;stroke-miterlimit:10;}
	.st21{display:none;fill:none;stroke:#000000;stroke-width:0.25;stroke-miterlimit:10;}
	.st22{stroke:#000000;stroke-miterlimit:10;}
	.st23{fill:#FFFFFF;stroke:#000000;stroke-width:1.1821;stroke-miterlimit:10;}
	.st24{display:none;fill:#FFFFFF;stroke:#000000;stroke-width:1.0855;stroke-miterlimit:10;}
	.st25{fill:#FFFFFF;stroke:#000000;stroke-width:1.1643;stroke-miterlimit:10;}
	.st26{stroke:#000000;stroke-width:1.5186;stroke-miterlimit:10;}
	.st27{fill:none;stroke:#000000;stroke-width:2.445;stroke-miterlimit:10;}
	.st28{fill:#FFFFFF;stroke:#000000;stroke-miterlimit:10;}
	.st29{fill:#EC008C;}
	.st30{fill:#FBB040;}
	.st31{fill:#F9ED32;}
	.st32{fill:#7A9FBF;}
	.st33{fill:#F1BA52;}
	.st34{fill:#F1AA6B;}
	.st35{fill:#F2784B;}
	.st36{fill:#C05050;}
	.st37{fill:#F8A17D;}
	.st38{fill:#FAF4A2;}
	.st39{fill:#FFFFFF;}
	.st40{fill:#E8A1C7;}
	.st41{fill:#BA4748;}
	.st42{font-family:'Montserrat-Medium';}
	.st43{font-size:30px;}
	.st44{fill:none;stroke:#FFFFFF;stroke-width:0.5;}
</style>
<g id="Layer_1">
</g>
<g id="Layer_2">
	<g>
		<g>
			<path class="st36" d="M103.03,133.8c-26.57-0.42-47.5-21.48-44.41-45.96c2.7-21.41,23.75-37.42,47.52-36.34
				c2.85,0.13,5.7,0.5,8.47,1.11c1.4,0.31,2.79,0.68,4.16,1.11c0.87,0.27,2.75,0.46,3.11,1.37c0.3,0.78-0.5,1.58-0.91,2.19
				c-0.56,0.84-0.93,1.78-1.36,2.68c-0.35,0.71-0.44,1.61-0.99,2.24c-0.81,0.93-1.99-0.16-2.9-0.45c-3.68-1.17-7.57-1.77-11.47-1.81
				c-18.41-0.2-34.33,12.49-36.32,29.06c-2.33,19.36,14.24,35.96,35.26,36.29c3.91,0.06,7.82-0.44,11.55-1.51
				c3.45-0.99,6.55-2.81,9.7-4.37c0.11-0.05,0.23-0.11,0.36-0.1c0.15,0.02,0.26,0.13,0.36,0.23c1.12,1.2,2.11,2.48,3.16,3.73
				c0.6,0.71,2.02,1.91,1.9,2.89c-0.16,1.28-5.42,2.89-6.55,3.37c-1.9,0.79-3.83,1.69-5.82,2.28
				C113.08,133.22,108.05,133.88,103.03,133.8z"/>
			<path class="st36" d="M48.18,124.74l-0.25-0.32c-0.35-0.44-0.23-1.06,0.26-1.37l10.2-6.54c0.49-0.31,1.17-0.21,1.51,0.23
				l0.25,0.32c0.35,0.44,0.23,1.06-0.26,1.37l-10.2,6.54C49.2,125.29,48.53,125.18,48.18,124.74z"/>
			<path class="st36" d="M52.61,55.87l0.23-0.33c0.33-0.46,1-0.59,1.5-0.29l10.5,6.13c0.5,0.29,0.65,0.9,0.32,1.36l-0.23,0.33
				c-0.33,0.46-1,0.59-1.5,0.29l-10.5-6.13C52.43,56.94,52.29,56.33,52.61,55.87z"/>
			<path class="st36" d="M85.16,37.51l0.4-0.15c0.55-0.21,1.19,0.03,1.42,0.54l4.76,10.46c0.23,0.5-0.04,1.08-0.59,1.28l-0.4,0.15
				c-0.55,0.21-1.19-0.03-1.42-0.54L84.57,38.8C84.34,38.29,84.61,37.72,85.16,37.51z"/>
			<path class="st36" d="M125.86,37.39L125.86,37.39c0.67,0.24,1,0.92,0.74,1.53l-4.38,10.17c-0.26,0.61-1.02,0.91-1.69,0.67l0,0
				c-0.67-0.24-1-0.92-0.74-1.53l4.38-10.17C124.44,37.46,125.19,37.15,125.86,37.39z"/>
			<path class="st36" d="M116.53,111.64c-0.35-0.51-0.96-0.49-1.66-0.51c-0.45-0.01-1.02,0.04-1.46,0.05
				c-0.53,0.02-1.06,0.05-1.59,0.07c-1.59,0.07-3.19,0.14-4.78,0.21c-1.86,0.08-3.71,0.16-5.57,0.24c-1.57,0.07-3.15,0.14-4.72,0.2
				c-0.75,0.03-1.1,0.05-1.87,0.08l19.45-45.4c0.26-0.61-0.29-1.5-0.96-1.74c-0.67-0.24-1.73,0.01-1.99,0.62L91.44,112.6
				c-0.11,0.25-0.09,0.5-0.02,0.74c0,0.05-0.03,0.09-0.02,0.14c0.04,0.74,0.73,1.31,1.55,1.27c0.48-0.02,0.96-0.04,1.44-0.06
				c1.21-0.05,2.41-0.1,3.62-0.16c1.59-0.07,3.18-0.14,4.77-0.21c1.63-0.07,3.26-0.14,4.89-0.21c1.27-0.07,2.54-0.15,3.81-0.2
				c0.86-0.04,1.88-0.03,2.72-0.01c0.85,0.02,1.89,0.12,2.37-0.75C116.86,112.61,117,112.3,116.53,111.64z"/>
			<path class="st36" d="M83.66,134.28L83.66,134.28c0.67,0.24,1,0.92,0.74,1.53l-4.38,10.17c-0.26,0.61-1.02,0.91-1.69,0.67l0,0
				c-0.67-0.24-1-0.92-0.74-1.53l4.38-10.17C82.24,134.35,82.99,134.04,83.66,134.28z"/>
			<path class="st36" d="M127.07,147.72l-0.4,0.15c-0.55,0.21-1.19-0.03-1.42-0.54l-4.76-10.46c-0.23-0.5,0.04-1.08,0.59-1.28
				l0.4-0.15c0.55-0.21,1.19,0.03,1.42,0.54l4.76,10.46C127.89,146.94,127.62,147.51,127.07,147.72z"/>
			<path class="st36" d="M38.45,91.58v-0.29c0-0.57,0.46-1.03,1.03-1.03h12.6c0.57,0,1.03,0.46,1.03,1.03v0.29
				c0,0.57-0.46,1.03-1.03,1.03h-12.6C38.92,92.62,38.45,92.16,38.45,91.58z"/>
		</g>
		<g>
			<path class="st39" d="M98.81,130.45c-26.57-0.42-47.5-21.48-44.41-45.96c2.7-21.41,23.75-37.42,47.52-36.34
				c2.85,0.13,5.7,0.5,8.47,1.11c1.4,0.31,2.79,0.68,4.16,1.11c0.87,0.27,2.75,0.46,3.11,1.37c0.3,0.78-0.5,1.58-0.91,2.19
				c-0.56,0.84-0.93,1.78-1.36,2.68c-0.35,0.71-0.44,1.61-0.99,2.24c-0.81,0.93-1.99-0.16-2.9-0.45c-3.68-1.17-7.57-1.77-11.47-1.81
				C81.62,56.4,65.7,69.09,63.71,85.66c-2.33,19.36,14.24,35.96,35.26,36.29c3.91,0.06,7.82-0.44,11.55-1.51
				c3.45-0.99,6.55-2.81,9.7-4.37c0.11-0.05,0.23-0.11,0.36-0.1c0.15,0.02,0.26,0.13,0.36,0.23c1.12,1.2,2.11,2.48,3.16,3.73
				c0.6,0.71,2.02,1.91,1.9,2.89c-0.16,1.28-5.42,2.89-6.55,3.37c-1.9,0.79-3.83,1.69-5.82,2.28
				C108.86,129.87,103.83,130.53,98.81,130.45z"/>
			<path class="st39" d="M43.96,121.39l-0.25-0.32c-0.35-0.44-0.23-1.06,0.26-1.37l10.2-6.54c0.49-0.31,1.17-0.21,1.51,0.23
				l0.25,0.32c0.35,0.44,0.23,1.06-0.26,1.37l-10.2,6.54C44.98,121.94,44.31,121.83,43.96,121.39z"/>
			<path class="st39" d="M48.4,52.53l0.23-0.33c0.33-0.46,1-0.59,1.5-0.29l10.5,6.13c0.5,0.29,0.65,0.9,0.32,1.36l-0.23,0.33
				c-0.33,0.46-1,0.59-1.5,0.29l-10.5-6.13C48.21,53.59,48.07,52.98,48.4,52.53z"/>
			<path class="st39" d="M80.94,34.17l0.4-0.15c0.55-0.21,1.19,0.03,1.42,0.54l4.76,10.46c0.23,0.5-0.04,1.08-0.59,1.28l-0.4,0.15
				c-0.55,0.21-1.19-0.03-1.42-0.54l-4.76-10.46C80.13,34.95,80.39,34.37,80.94,34.17z"/>
			<path class="st39" d="M121.64,34.04L121.64,34.04c0.67,0.24,1,0.92,0.74,1.53l-4.38,10.17c-0.26,0.61-1.02,0.91-1.69,0.67v0
				c-0.67-0.24-1-0.92-0.74-1.53l4.38-10.17C120.22,34.11,120.97,33.81,121.64,34.04z"/>
			<path class="st39" d="M112.32,108.29c-0.35-0.51-0.96-0.49-1.66-0.51c-0.45-0.01-1.02,0.04-1.46,0.05
				c-0.53,0.02-1.06,0.05-1.59,0.07c-1.59,0.07-3.19,0.14-4.78,0.21c-1.86,0.08-3.71,0.16-5.57,0.24c-1.57,0.07-3.15,0.14-4.72,0.2
				c-0.75,0.03-1.1,0.05-1.87,0.08l19.45-45.4c0.26-0.61-0.29-1.5-0.96-1.74c-0.67-0.24-1.73,0.01-1.99,0.62l-19.94,47.13
				c-0.11,0.25-0.09,0.5-0.02,0.74c0,0.05-0.03,0.09-0.02,0.14c0.04,0.74,0.73,1.31,1.55,1.27c0.48-0.02,0.96-0.04,1.44-0.06
				c1.21-0.05,2.41-0.1,3.62-0.16c1.59-0.07,3.18-0.14,4.77-0.21c1.63-0.07,3.26-0.14,4.89-0.21c1.27-0.07,2.54-0.15,3.81-0.2
				c0.86-0.04,1.88-0.03,2.72-0.01c0.85,0.02,1.89,0.12,2.37-0.75C112.64,109.27,112.78,108.95,112.32,108.29z"/>
			<path class="st39" d="M79.44,130.93L79.44,130.93c0.67,0.24,1,0.92,0.74,1.53l-4.38,10.17c-0.26,0.61-1.02,0.91-1.69,0.67l0,0
				c-0.67-0.24-1-0.92-0.74-1.53l4.38-10.17C78.02,131,78.77,130.7,79.44,130.93z"/>
			<path class="st39" d="M122.85,144.37l-0.4,0.15c-0.55,0.21-1.19-0.03-1.42-0.54l-4.76-10.46c-0.23-0.5,0.04-1.08,0.59-1.28
				l0.4-0.15c0.55-0.21,1.19,0.03,1.42,0.54l4.76,10.46C123.67,143.59,123.4,144.17,122.85,144.37z"/>
			<path class="st39" d="M34.23,88.24v-0.29c0-0.57,0.46-1.03,1.03-1.03h12.6c0.57,0,1.03,0.46,1.03,1.03v0.29
				c0,0.57-0.46,1.03-1.03,1.03h-12.6C34.7,89.27,34.23,88.81,34.23,88.24z"/>
		</g>
	</g>
	<text transform="matrix(1 0 0 1 151.8481 99.1823)" class="st41 st42 st43">Courtney Lee</text>
	<text transform="matrix(1 0 0 1 148.8481 97.1823)" class="st39 st42 st43">Courtney Lee</text>
	<text transform="matrix(1 0 0 1 148.8481 97.1823)" class="st44 st42 st43">Courtney Lee</text>
</g>
</svg>
