<?xml version="1.0" encoding="utf-8"?>
<!-- Generator: Adobe Illustrator 24.1.0, SVG Export Plug-In . SVG Version: 6.00 Build 0)  -->
<svg version="1.1" xmlns="http://www.w3.org/2000/svg" xmlns:xlink="http://www.w3.org/1999/xlink" x="0px" y="0px"
	 viewBox="0 0 395.53 177.16" style="enable-background:new 0 0 395.53 177.16;" xml:space="preserve">
<style type="text/css">
	.st0{fill:none;stroke:#000000;stroke-width:1.8745;stroke-miterlimit:10;}
	.st1{display:none;fill:none;stroke:#000000;stroke-width:2;stroke-miterlimit:10;}
	.st2{stroke:#000000;stroke-width:2;stroke-miterlimit:10;}
	.st3{display:none;fill:#FFFFFF;stroke:#000000;stroke-width:0.7482;stroke-miterlimit:10;}
	.st4{fill:#FCEE21;}
	.st5{display:none;fill:none;stroke:#000000;stroke-width:1.9973;stroke-miterlimit:10;}
	.st6{fill:none;stroke:#00A651;stroke-width:1.9973;stroke-miterlimit:10;}
	.st7{fill:none;stroke:#00A651;stroke-width:1.6504;stroke-miterlimit:10;}
	.st8{display:none;fill:none;stroke:#00A651;stroke-width:1.9973;stroke-miterlimit:10;}
	.st9{fill:#00A651;}
	.st10{display:none;fill:#00A651;}
	.st11{display:none;fill:none;stroke:#00A651;stroke-miterlimit:10;}
	.st12{fill:none;stroke:#000000;stroke-miterlimit:10;}
	.st13{fill:none;stroke:#000000;stroke-width:1.0597;stroke-miterlimit:10;}
	.st14{fill:none;stroke:#000000;stroke-width:0.8285;stroke-miterlimit:10;}
	.st15{fill:none;stroke:#000000;stroke-width:0.8829;stroke-miterlimit:10;}
	.st16{fill:none;stroke:#000000;stroke-width:0.8203;stroke-miterlimit:10;}
	.st17{display:none;fill:none;stroke:#000000;stroke-miterlimit:10;}
	.st18{fill:none;stroke:#000000;stroke-width:0.9339;stroke-miterlimit:10;}
	.st19{display:none;fill:none;stroke:#000000;stroke-width:0.9339;stroke-miterlimit:10;}
	.st20{fill:none;stroke:#000000;stroke-width:0.75;stroke-miterlimit:10;}
	.st21{display:none;fill:none;stroke:#000000;stroke-width:0.25;stroke-miterlimit:10;}
	.st22{stroke:#000000;stroke-miterlimit:10;}
	.st23{fill:#FFFFFF;stroke:#000000;stroke-width:1.1821;stroke-miterlimit:10;}
	.st24{display:none;fill:#FFFFFF;stroke:#000000;stroke-width:1.0855;stroke-miterlimit:10;}
	.st25{fill:#FFFFFF;stroke:#000000;stroke-width:1.1643;stroke-miterlimit:10;}
	.st26{stroke:#000000;stroke-width:1.5186;stroke-miterlimit:10;}
	.st27{fill:none;stroke:#000000;stroke-width:2.445;stroke-miterlimit:10;}
	.st28{fill:#FFFFFF;stroke:#000000;stroke-miterlimit:10;}
	.st29{fill:#EC008C;}
	.st30{fill:#FBB040;}
	.st31{fill:#F9ED32;}
	.st32{fill:#7A9FBF;}
	.st33{fill:#F1BA52;}
	.st34{fill:#F1AA6B;}
	.st35{fill:#F2784B;}
	.st36{fill:#C05050;}
	.st37{fill:#F0A160;}
	.st38{fill:#F9A86A;}
	.st39{fill:#EFAA75;}
	.st40{fill:#A7A9AC;}
	.st41{fill:#91BBDB;}
	.st42{fill:#D15E5E;}
	.st43{fill:#F8A17D;}
	.st44{fill:#FAF4A2;}
	.st45{fill:#FFFFFF;}
	.st46{fill:#E8A1C7;}
	.st47{enable-background:new    ;}
	.st48{fill:#BA4748;}
	.st49{fill:none;stroke:#FFFFFF;stroke-width:0.5;}
</style>
<g id="Layer_1">
</g>
<g id="Layer_2">
	<g>
		<g>
			<path class="st36" d="M103.03,133.8c-26.57-0.42-47.5-21.48-44.41-45.96c2.7-21.41,23.75-37.42,47.52-36.34
				c2.85,0.13,5.7,0.5,8.47,1.11c1.4,0.31,2.79,0.68,4.16,1.11c0.87,0.27,2.75,0.46,3.11,1.37c0.3,0.78-0.5,1.58-0.91,2.19
				c-0.56,0.84-0.93,1.78-1.36,2.68c-0.35,0.71-0.44,1.61-0.99,2.24c-0.81,0.93-1.99-0.16-2.9-0.45c-3.68-1.17-7.57-1.77-11.47-1.81
				c-18.41-0.2-34.33,12.49-36.32,29.06c-2.33,19.36,14.24,35.96,35.26,36.29c3.91,0.06,7.82-0.44,11.55-1.51
				c3.45-0.99,6.55-2.81,9.7-4.37c0.11-0.05,0.23-0.11,0.36-0.1c0.15,0.02,0.26,0.13,0.36,0.23c1.12,1.2,2.11,2.48,3.16,3.73
				c0.6,0.71,2.02,1.91,1.9,2.89c-0.16,1.28-5.42,2.89-6.55,3.37c-1.9,0.79-3.83,1.69-5.82,2.28
				C113.08,133.22,108.05,133.88,103.03,133.8z"/>
			<path class="st36" d="M48.18,124.74l-0.25-0.32c-0.35-0.44-0.23-1.06,0.26-1.37l10.2-6.54c0.49-0.31,1.17-0.21,1.51,0.23
				l0.25,0.32c0.35,0.44,0.23,1.06-0.26,1.37l-10.2,6.54C49.2,125.29,48.53,125.18,48.18,124.74z"/>
			<path class="st36" d="M52.61,55.87l0.23-0.33c0.33-0.46,1-0.59,1.5-0.29l10.5,6.13c0.5,0.29,0.65,0.9,0.32,1.36l-0.23,0.33
				c-0.33,0.46-1,0.59-1.5,0.29l-10.5-6.13C52.43,56.94,52.29,56.33,52.61,55.87z"/>
			<path class="st36" d="M85.16,37.51l0.4-0.15c0.55-0.21,1.19,0.03,1.42,0.54l4.76,10.46c0.23,0.5-0.04,1.08-0.59,1.28l-0.4,0.15
				c-0.55,0.21-1.19-0.03-1.42-0.54L84.57,38.8C84.34,38.29,84.61,37.72,85.16,37.51z"/>
			<path class="st36" d="M125.86,37.39L125.86,37.39c0.67,0.24,1,0.92,0.74,1.53l-4.38,10.17c-0.26,0.61-1.02,0.91-1.69,0.67l0,0
				c-0.67-0.24-1-0.92-0.74-1.53l4.38-10.17C124.44,37.46,125.19,37.15,125.86,37.39z"/>
			<path class="st36" d="M116.53,111.64c-0.35-0.51-0.96-0.49-1.66-0.51c-0.45-0.01-1.02,0.04-1.46,0.05
				c-0.53,0.02-1.06,0.05-1.59,0.07c-1.59,0.07-3.19,0.14-4.78,0.21c-1.86,0.08-3.71,0.16-5.57,0.24c-1.57,0.07-3.15,0.14-4.72,0.2
				c-0.75,0.03-1.1,0.05-1.87,0.08l19.45-45.4c0.26-0.61-0.29-1.5-0.96-1.74c-0.67-0.24-1.73,0.01-1.99,0.62L91.44,112.6
				c-0.11,0.25-0.09,0.5-0.02,0.74c0,0.05-0.03,0.09-0.02,0.14c0.04,0.74,0.73,1.31,1.55,1.27c0.48-0.02,0.96-0.04,1.44-0.06
				c1.21-0.05,2.41-0.1,3.62-0.16c1.59-0.07,3.18-0.14,4.77-0.21c1.63-0.07,3.26-0.14,4.89-0.21c1.27-0.07,2.54-0.15,3.81-0.2
				c0.86-0.04,1.88-0.03,2.72-0.01c0.85,0.02,1.89,0.12,2.37-0.75C116.86,112.61,117,112.3,116.53,111.64z"/>
			<path class="st36" d="M83.66,134.28L83.66,134.28c0.67,0.24,1,0.92,0.74,1.53l-4.38,10.17c-0.26,0.61-1.02,0.91-1.69,0.67l0,0
				c-0.67-0.24-1-0.92-0.74-1.53l4.38-10.17C82.24,134.35,82.99,134.04,83.66,134.28z"/>
			<path class="st36" d="M127.07,147.72l-0.4,0.15c-0.55,0.21-1.19-0.03-1.42-0.54l-4.76-10.46c-0.23-0.5,0.04-1.08,0.59-1.28
				l0.4-0.15c0.55-0.21,1.19,0.03,1.42,0.54l4.76,10.46C127.89,146.94,127.62,147.51,127.07,147.72z"/>
			<path class="st36" d="M38.45,91.58v-0.29c0-0.57,0.46-1.03,1.03-1.03h12.6c0.57,0,1.03,0.46,1.03,1.03v0.29
				c0,0.57-0.46,1.03-1.03,1.03h-12.6C38.92,92.62,38.45,92.16,38.45,91.58z"/>
		</g>
		<g>
			<path class="st45" d="M98.81,130.45c-26.57-0.42-47.5-21.48-44.41-45.96c2.7-21.41,23.75-37.42,47.52-36.34
				c2.85,0.13,5.7,0.5,8.47,1.11c1.4,0.31,2.79,0.68,4.16,1.11c0.87,0.27,2.75,0.46,3.11,1.37c0.3,0.78-0.5,1.58-0.91,2.19
				c-0.56,0.84-0.93,1.78-1.36,2.68c-0.35,0.71-0.44,1.61-0.99,2.24c-0.81,0.93-1.99-0.16-2.9-0.45c-3.68-1.17-7.57-1.77-11.47-1.81
				C81.62,56.4,65.7,69.09,63.71,85.66c-2.33,19.36,14.24,35.96,35.26,36.29c3.91,0.06,7.82-0.44,11.55-1.51
				c3.45-0.99,6.55-2.81,9.7-4.37c0.11-0.05,0.23-0.11,0.36-0.1c0.15,0.02,0.26,0.13,0.36,0.23c1.12,1.2,2.11,2.48,3.16,3.73
				c0.6,0.71,2.02,1.91,1.9,2.89c-0.16,1.28-5.42,2.89-6.55,3.37c-1.9,0.79-3.83,1.69-5.82,2.28
				C108.86,129.87,103.83,130.53,98.81,130.45z"/>
			<path class="st45" d="M43.96,121.39l-0.25-0.32c-0.35-0.44-0.23-1.06,0.26-1.37l10.2-6.54c0.49-0.31,1.17-0.21,1.51,0.23
				l0.25,0.32c0.35,0.44,0.23,1.06-0.26,1.37l-10.2,6.54C44.98,121.94,44.31,121.83,43.96,121.39z"/>
			<path class="st45" d="M48.4,52.53l0.23-0.33c0.33-0.46,1-0.59,1.5-0.29l10.5,6.13c0.5,0.29,0.65,0.9,0.32,1.36l-0.23,0.33
				c-0.33,0.46-1,0.59-1.5,0.29l-10.5-6.13C48.21,53.59,48.07,52.98,48.4,52.53z"/>
			<path class="st45" d="M80.94,34.17l0.4-0.15c0.55-0.21,1.19,0.03,1.42,0.54l4.76,10.46c0.23,0.5-0.04,1.08-0.59,1.28l-0.4,0.15
				c-0.55,0.21-1.19-0.03-1.42-0.54l-4.76-10.46C80.13,34.95,80.39,34.37,80.94,34.17z"/>
			<path class="st45" d="M121.64,34.04L121.64,34.04c0.67,0.24,1,0.92,0.74,1.53l-4.38,10.17c-0.26,0.61-1.02,0.91-1.69,0.67v0
				c-0.67-0.24-1-0.92-0.74-1.53l4.38-10.17C120.22,34.11,120.97,33.81,121.64,34.04z"/>
			<path class="st45" d="M112.32,108.29c-0.35-0.51-0.96-0.49-1.66-0.51c-0.45-0.01-1.02,0.04-1.46,0.05
				c-0.53,0.02-1.06,0.05-1.59,0.07c-1.59,0.07-3.19,0.14-4.78,0.21c-1.86,0.08-3.71,0.16-5.57,0.24c-1.57,0.07-3.15,0.14-4.72,0.2
				c-0.75,0.03-1.1,0.05-1.87,0.08l19.45-45.4c0.26-0.61-0.29-1.5-0.96-1.74c-0.67-0.24-1.73,0.01-1.99,0.62l-19.94,47.13
				c-0.11,0.25-0.09,0.5-0.02,0.74c0,0.05-0.03,0.09-0.02,0.14c0.04,0.74,0.73,1.31,1.55,1.27c0.48-0.02,0.96-0.04,1.44-0.06
				c1.21-0.05,2.41-0.1,3.62-0.16c1.59-0.07,3.18-0.14,4.77-0.21c1.63-0.07,3.26-0.14,4.89-0.21c1.27-0.07,2.54-0.15,3.81-0.2
				c0.86-0.04,1.88-0.03,2.72-0.01c0.85,0.02,1.89,0.12,2.37-0.75C112.64,109.27,112.78,108.95,112.32,108.29z"/>
			<path class="st45" d="M79.44,130.93L79.44,130.93c0.67,0.24,1,0.92,0.74,1.53l-4.38,10.17c-0.26,0.61-1.02,0.91-1.69,0.67l0,0
				c-0.67-0.24-1-0.92-0.74-1.53l4.38-10.17C78.02,131,78.77,130.7,79.44,130.93z"/>
			<path class="st45" d="M122.85,144.37l-0.4,0.15c-0.55,0.21-1.19-0.03-1.42-0.54l-4.76-10.46c-0.23-0.5,0.04-1.08,0.59-1.28
				l0.4-0.15c0.55-0.21,1.19,0.03,1.42,0.54l4.76,10.46C123.67,143.59,123.4,144.17,122.85,144.37z"/>
			<path class="st45" d="M34.23,88.24v-0.29c0-0.57,0.46-1.03,1.03-1.03h12.6c0.57,0,1.03,0.46,1.03,1.03v0.29
				c0,0.57-0.46,1.03-1.03,1.03h-12.6C34.7,89.27,34.23,88.81,34.23,88.24z"/>
		</g>
	</g>
	<g class="st47">
		<path class="st48" d="M158.7,98.03c-1.69-0.93-3.02-2.21-3.98-3.84c-0.96-1.63-1.44-3.46-1.44-5.5s0.48-3.88,1.44-5.5
			s2.29-2.91,3.99-3.84c1.7-0.93,3.6-1.4,5.7-1.4c1.64,0,3.14,0.28,4.5,0.83c1.36,0.55,2.52,1.37,3.48,2.45l-1.95,1.89
			c-1.58-1.66-3.55-2.49-5.91-2.49c-1.56,0-2.97,0.35-4.23,1.05c-1.26,0.7-2.25,1.66-2.96,2.89s-1.06,2.61-1.06,4.12
			c0,1.52,0.35,2.89,1.06,4.12s1.7,2.2,2.96,2.89c1.26,0.7,2.67,1.05,4.23,1.05c2.34,0,4.31-0.84,5.91-2.52l1.95,1.89
			c-0.96,1.08-2.12,1.9-3.49,2.46c-1.37,0.56-2.88,0.84-4.52,0.84C162.29,99.42,160.39,98.96,158.7,98.03z"/>
		<path class="st48" d="M178.16,98.31c-1.26-0.7-2.25-1.67-2.95-2.89c-0.71-1.23-1.07-2.62-1.07-4.19c0-1.56,0.35-2.96,1.07-4.18
			c0.71-1.23,1.69-2.19,2.95-2.88c1.26-0.69,2.68-1.04,4.26-1.04c1.58,0,2.99,0.34,4.25,1.04c1.25,0.69,2.23,1.65,2.94,2.88
			c0.71,1.23,1.06,2.62,1.06,4.18c0,1.56-0.36,2.96-1.06,4.19c-0.71,1.23-1.69,2.19-2.94,2.89c-1.25,0.7-2.67,1.05-4.25,1.05
			C180.84,99.36,179.42,99.01,178.16,98.31z M185.16,96.14c0.81-0.47,1.44-1.13,1.9-1.98c0.46-0.85,0.69-1.82,0.69-2.92
			c0-1.1-0.23-2.07-0.69-2.92c-0.46-0.85-1.09-1.5-1.9-1.96s-1.73-0.69-2.75-0.69s-1.94,0.23-2.75,0.69s-1.45,1.12-1.92,1.96
			c-0.47,0.85-0.71,1.83-0.71,2.92c0,1.1,0.23,2.08,0.71,2.92c0.47,0.85,1.11,1.51,1.92,1.98s1.73,0.71,2.75,0.71
			S184.35,96.61,185.16,96.14z"/>
		<path class="st48" d="M209.48,83.28v15.9h-2.73v-2.4c-0.58,0.82-1.35,1.46-2.29,1.91c-0.95,0.45-1.98,0.67-3.1,0.67
			c-2.12,0-3.79-0.58-5.01-1.75c-1.22-1.17-1.83-2.89-1.83-5.17v-9.15h2.88v8.82c0,1.54,0.37,2.71,1.11,3.5s1.8,1.18,3.18,1.18
			c1.52,0,2.72-0.46,3.6-1.38c0.88-0.92,1.32-2.22,1.32-3.9v-8.22H209.48z"/>
		<path class="st48" d="M219.95,83.85c0.98-0.48,2.17-0.72,3.57-0.72v2.79c-0.16-0.02-0.38-0.03-0.66-0.03
			c-1.56,0-2.79,0.46-3.68,1.4c-0.89,0.93-1.33,2.25-1.33,3.97v7.92h-2.88v-15.9h2.76v2.67C218.23,85.03,218.97,84.33,219.95,83.85z
			"/>
		<path class="st48" d="M236.66,98.25c-0.42,0.36-0.94,0.63-1.56,0.82c-0.62,0.19-1.26,0.29-1.92,0.29c-1.6,0-2.84-0.43-3.72-1.29
			c-0.88-0.86-1.32-2.09-1.32-3.69v-8.73h-2.7v-2.37h2.7V79.8h2.88v3.48h4.56v2.37h-4.56v8.61c0,0.86,0.21,1.52,0.65,1.98
			c0.43,0.46,1.04,0.69,1.85,0.69c0.88,0,1.63-0.25,2.25-0.75L236.66,98.25z"/>
		<path class="st48" d="M253.44,84.89c1.19,1.17,1.78,2.88,1.78,5.14v9.15h-2.88v-8.82c0-1.54-0.37-2.7-1.11-3.48
			c-0.74-0.78-1.8-1.17-3.18-1.17c-1.56,0-2.79,0.46-3.69,1.36c-0.9,0.91-1.35,2.22-1.35,3.92v8.19h-2.88v-15.9h2.76v2.4
			c0.58-0.82,1.36-1.45,2.35-1.89c0.99-0.44,2.11-0.66,3.38-0.66C250.65,83.13,252.25,83.72,253.44,84.89z"/>
		<path class="st48" d="M274.97,92.19h-12.9c0.18,1.4,0.79,2.53,1.84,3.38c1.05,0.85,2.35,1.28,3.92,1.28c1.9,0,3.43-0.64,4.59-1.92
			l1.59,1.86c-0.72,0.84-1.62,1.48-2.69,1.92c-1.07,0.44-2.27,0.66-3.58,0.66c-1.68,0-3.17-0.34-4.47-1.04
			c-1.3-0.69-2.31-1.65-3.01-2.89c-0.71-1.24-1.07-2.64-1.07-4.2c0-1.54,0.35-2.93,1.04-4.17c0.69-1.24,1.64-2.21,2.85-2.89
			c1.21-0.69,2.57-1.04,4.1-1.04c1.52,0,2.87,0.34,4.06,1.04c1.19,0.69,2.12,1.66,2.79,2.89c0.67,1.24,1,2.66,1,4.26
			C275.03,91.54,275.01,91.83,274.97,92.19z M263.7,86.82c-0.93,0.84-1.48,1.94-1.63,3.3h10.2c-0.16-1.34-0.71-2.44-1.63-3.29
			c-0.93-0.85-2.08-1.28-3.46-1.28C265.79,85.56,264.63,85.98,263.7,86.82z"/>
		<path class="st48" d="M292.79,83.28l-7.71,17.49c-0.68,1.62-1.48,2.76-2.38,3.42c-0.91,0.66-2.01,0.99-3.29,0.99
			c-0.78,0-1.54-0.12-2.27-0.38s-1.33-0.62-1.81-1.09l1.23-2.16c0.82,0.78,1.77,1.17,2.85,1.17c0.7,0,1.29-0.19,1.75-0.55
			c0.47-0.37,0.9-1,1.28-1.91l0.51-1.11l-7.02-15.87h3L284.48,96l5.49-12.72H292.79z"/>
		<path class="st48" d="M303.98,78.18h3v18.39h11.37v2.61h-14.37V78.18z"/>
		<path class="st48" d="M335.48,92.19h-12.9c0.18,1.4,0.79,2.53,1.84,3.38c1.05,0.85,2.35,1.28,3.92,1.28c1.9,0,3.43-0.64,4.59-1.92
			l1.59,1.86c-0.72,0.84-1.62,1.48-2.69,1.92c-1.07,0.44-2.27,0.66-3.58,0.66c-1.68,0-3.17-0.34-4.47-1.04
			c-1.3-0.69-2.31-1.65-3.01-2.89c-0.71-1.24-1.07-2.64-1.07-4.2c0-1.54,0.35-2.93,1.04-4.17c0.69-1.24,1.64-2.21,2.85-2.89
			c1.21-0.69,2.57-1.04,4.1-1.04c1.52,0,2.87,0.34,4.06,1.04c1.19,0.69,2.12,1.66,2.79,2.89c0.67,1.24,1,2.66,1,4.26
			C335.54,91.54,335.52,91.83,335.48,92.19z M324.21,86.82c-0.93,0.84-1.48,1.94-1.63,3.3h10.2c-0.16-1.34-0.71-2.44-1.63-3.29
			c-0.93-0.85-2.08-1.28-3.46-1.28C326.3,85.56,325.14,85.98,324.21,86.82z"/>
		<path class="st48" d="M353.84,92.19h-12.9c0.18,1.4,0.79,2.53,1.84,3.38c1.05,0.85,2.35,1.28,3.92,1.28c1.9,0,3.43-0.64,4.59-1.92
			l1.59,1.86c-0.72,0.84-1.62,1.48-2.69,1.92c-1.07,0.44-2.27,0.66-3.58,0.66c-1.68,0-3.17-0.34-4.47-1.04
			c-1.3-0.69-2.31-1.65-3.01-2.89c-0.71-1.24-1.07-2.64-1.07-4.2c0-1.54,0.35-2.93,1.04-4.17c0.69-1.24,1.64-2.21,2.85-2.89
			c1.21-0.69,2.57-1.04,4.1-1.04c1.52,0,2.87,0.34,4.06,1.04c1.19,0.69,2.12,1.66,2.79,2.89c0.67,1.24,1,2.66,1,4.26
			C353.9,91.54,353.88,91.83,353.84,92.19z M342.57,86.82c-0.93,0.84-1.48,1.94-1.63,3.3h10.2c-0.16-1.34-0.71-2.44-1.63-3.29
			c-0.93-0.85-2.08-1.28-3.46-1.28C344.66,85.56,343.5,85.98,342.57,86.82z"/>
	</g>
	<g class="st47">
		<path class="st45" d="M155.7,96.03c-1.69-0.93-3.02-2.21-3.98-3.84c-0.96-1.63-1.44-3.46-1.44-5.5s0.48-3.88,1.44-5.5
			s2.29-2.91,3.99-3.84c1.7-0.93,3.6-1.4,5.7-1.4c1.64,0,3.14,0.28,4.5,0.83c1.36,0.55,2.52,1.37,3.48,2.45l-1.95,1.89
			c-1.58-1.66-3.55-2.49-5.91-2.49c-1.56,0-2.97,0.35-4.23,1.05c-1.26,0.7-2.25,1.66-2.96,2.89s-1.06,2.61-1.06,4.12
			c0,1.52,0.35,2.89,1.06,4.12s1.7,2.2,2.96,2.89c1.26,0.7,2.67,1.05,4.23,1.05c2.34,0,4.31-0.84,5.91-2.52l1.95,1.89
			c-0.96,1.08-2.12,1.9-3.49,2.46c-1.37,0.56-2.88,0.84-4.52,0.84C159.29,97.42,157.39,96.96,155.7,96.03z"/>
		<path class="st45" d="M175.16,96.31c-1.26-0.7-2.25-1.67-2.95-2.89c-0.71-1.23-1.07-2.62-1.07-4.19c0-1.56,0.35-2.96,1.07-4.18
			c0.71-1.23,1.69-2.19,2.95-2.88c1.26-0.69,2.68-1.04,4.26-1.04c1.58,0,2.99,0.34,4.25,1.04c1.25,0.69,2.23,1.65,2.94,2.88
			c0.71,1.23,1.06,2.62,1.06,4.18c0,1.56-0.36,2.96-1.06,4.19c-0.71,1.23-1.69,2.19-2.94,2.89c-1.25,0.7-2.67,1.05-4.25,1.05
			C177.84,97.36,176.42,97.01,175.16,96.31z M182.16,94.14c0.81-0.47,1.44-1.13,1.9-1.98c0.46-0.85,0.69-1.82,0.69-2.92
			c0-1.1-0.23-2.07-0.69-2.92c-0.46-0.85-1.09-1.5-1.9-1.96s-1.73-0.69-2.75-0.69s-1.94,0.23-2.75,0.69s-1.45,1.12-1.92,1.96
			c-0.47,0.85-0.71,1.83-0.71,2.92c0,1.1,0.23,2.08,0.71,2.92c0.47,0.85,1.11,1.51,1.92,1.98s1.73,0.71,2.75,0.71
			S181.35,94.61,182.16,94.14z"/>
		<path class="st45" d="M206.48,81.28v15.9h-2.73v-2.4c-0.58,0.82-1.35,1.46-2.29,1.91c-0.95,0.45-1.98,0.67-3.1,0.67
			c-2.12,0-3.79-0.58-5.01-1.75c-1.22-1.17-1.83-2.89-1.83-5.17v-9.15h2.88v8.82c0,1.54,0.37,2.71,1.11,3.5s1.8,1.18,3.18,1.18
			c1.52,0,2.72-0.46,3.6-1.38c0.88-0.92,1.32-2.22,1.32-3.9v-8.22H206.48z"/>
		<path class="st45" d="M216.95,81.85c0.98-0.48,2.17-0.72,3.57-0.72v2.79c-0.16-0.02-0.38-0.03-0.66-0.03
			c-1.56,0-2.79,0.46-3.68,1.4c-0.89,0.93-1.33,2.25-1.33,3.97v7.92h-2.88v-15.9h2.76v2.67C215.23,83.03,215.97,82.33,216.95,81.85z
			"/>
		<path class="st45" d="M233.66,96.25c-0.42,0.36-0.94,0.63-1.56,0.82c-0.62,0.19-1.26,0.29-1.92,0.29c-1.6,0-2.84-0.43-3.72-1.29
			c-0.88-0.86-1.32-2.09-1.32-3.69v-8.73h-2.7v-2.37h2.7V77.8h2.88v3.48h4.56v2.37h-4.56v8.61c0,0.86,0.21,1.52,0.65,1.98
			c0.43,0.46,1.04,0.69,1.85,0.69c0.88,0,1.63-0.25,2.25-0.75L233.66,96.25z"/>
		<path class="st45" d="M250.44,82.89c1.19,1.17,1.78,2.88,1.78,5.14v9.15h-2.88v-8.82c0-1.54-0.37-2.7-1.11-3.48
			c-0.74-0.78-1.8-1.17-3.18-1.17c-1.56,0-2.79,0.46-3.69,1.36c-0.9,0.91-1.35,2.22-1.35,3.92v8.19h-2.88v-15.9h2.76v2.4
			c0.58-0.82,1.36-1.45,2.35-1.89c0.99-0.44,2.11-0.66,3.38-0.66C247.65,81.13,249.25,81.72,250.44,82.89z"/>
		<path class="st45" d="M271.97,90.19h-12.9c0.18,1.4,0.79,2.53,1.84,3.38c1.05,0.85,2.35,1.28,3.92,1.28c1.9,0,3.43-0.64,4.59-1.92
			l1.59,1.86c-0.72,0.84-1.62,1.48-2.69,1.92c-1.07,0.44-2.27,0.66-3.58,0.66c-1.68,0-3.17-0.34-4.47-1.04
			c-1.3-0.69-2.31-1.65-3.01-2.89c-0.71-1.24-1.07-2.64-1.07-4.2c0-1.54,0.35-2.93,1.04-4.17c0.69-1.24,1.64-2.21,2.85-2.89
			c1.21-0.69,2.57-1.04,4.1-1.04c1.52,0,2.87,0.34,4.06,1.04c1.19,0.69,2.12,1.66,2.79,2.89c0.67,1.24,1,2.66,1,4.26
			C272.03,89.54,272.01,89.83,271.97,90.19z M260.7,84.82c-0.93,0.84-1.48,1.94-1.63,3.3h10.2c-0.16-1.34-0.71-2.44-1.63-3.29
			c-0.93-0.85-2.08-1.28-3.46-1.28C262.79,83.56,261.63,83.98,260.7,84.82z"/>
		<path class="st45" d="M289.79,81.28l-7.71,17.49c-0.68,1.62-1.48,2.76-2.38,3.42c-0.91,0.66-2.01,0.99-3.29,0.99
			c-0.78,0-1.54-0.12-2.27-0.38s-1.33-0.62-1.81-1.09l1.23-2.16c0.82,0.78,1.77,1.17,2.85,1.17c0.7,0,1.29-0.19,1.75-0.55
			c0.47-0.37,0.9-1,1.28-1.91l0.51-1.11l-7.02-15.87h3L281.48,94l5.49-12.72H289.79z"/>
		<path class="st45" d="M300.98,76.18h3v18.39h11.37v2.61h-14.37V76.18z"/>
		<path class="st45" d="M332.48,90.19h-12.9c0.18,1.4,0.79,2.53,1.84,3.38c1.05,0.85,2.35,1.28,3.92,1.28c1.9,0,3.43-0.64,4.59-1.92
			l1.59,1.86c-0.72,0.84-1.62,1.48-2.69,1.92c-1.07,0.44-2.27,0.66-3.58,0.66c-1.68,0-3.17-0.34-4.47-1.04
			c-1.3-0.69-2.31-1.65-3.01-2.89c-0.71-1.24-1.07-2.64-1.07-4.2c0-1.54,0.35-2.93,1.04-4.17c0.69-1.24,1.64-2.21,2.85-2.89
			c1.21-0.69,2.57-1.04,4.1-1.04c1.52,0,2.87,0.34,4.06,1.04c1.19,0.69,2.12,1.66,2.79,2.89c0.67,1.24,1,2.66,1,4.26
			C332.54,89.54,332.52,89.83,332.48,90.19z M321.21,84.82c-0.93,0.84-1.48,1.94-1.63,3.3h10.2c-0.16-1.34-0.71-2.44-1.63-3.29
			c-0.93-0.85-2.08-1.28-3.46-1.28C323.3,83.56,322.14,83.98,321.21,84.82z"/>
		<path class="st45" d="M350.84,90.19h-12.9c0.18,1.4,0.79,2.53,1.84,3.38c1.05,0.85,2.35,1.28,3.92,1.28c1.9,0,3.43-0.64,4.59-1.92
			l1.59,1.86c-0.72,0.84-1.62,1.48-2.69,1.92c-1.07,0.44-2.27,0.66-3.58,0.66c-1.68,0-3.17-0.34-4.47-1.04
			c-1.3-0.69-2.31-1.65-3.01-2.89c-0.71-1.24-1.07-2.64-1.07-4.2c0-1.54,0.35-2.93,1.04-4.17c0.69-1.24,1.64-2.21,2.85-2.89
			c1.21-0.69,2.57-1.04,4.1-1.04c1.52,0,2.87,0.34,4.06,1.04c1.19,0.69,2.12,1.66,2.79,2.89c0.67,1.24,1,2.66,1,4.26
			C350.9,89.54,350.88,89.83,350.84,90.19z M339.57,84.82c-0.93,0.84-1.48,1.94-1.63,3.3h10.2c-0.16-1.34-0.71-2.44-1.63-3.29
			c-0.93-0.85-2.08-1.28-3.46-1.28C341.66,83.56,340.5,83.98,339.57,84.82z"/>
	</g>
	<g class="st47">
		<path class="st49" d="M155.7,96.03c-1.69-0.93-3.02-2.21-3.98-3.84c-0.96-1.63-1.44-3.46-1.44-5.5s0.48-3.88,1.44-5.5
			s2.29-2.91,3.99-3.84c1.7-0.93,3.6-1.4,5.7-1.4c1.64,0,3.14,0.28,4.5,0.83c1.36,0.55,2.52,1.37,3.48,2.45l-1.95,1.89
			c-1.58-1.66-3.55-2.49-5.91-2.49c-1.56,0-2.97,0.35-4.23,1.05c-1.26,0.7-2.25,1.66-2.96,2.89s-1.06,2.61-1.06,4.12
			c0,1.52,0.35,2.89,1.06,4.12s1.7,2.2,2.96,2.89c1.26,0.7,2.67,1.05,4.23,1.05c2.34,0,4.31-0.84,5.91-2.52l1.95,1.89
			c-0.96,1.08-2.12,1.9-3.49,2.46c-1.37,0.56-2.88,0.84-4.52,0.84C159.29,97.42,157.39,96.96,155.7,96.03z"/>
		<path class="st49" d="M175.16,96.31c-1.26-0.7-2.25-1.67-2.95-2.89c-0.71-1.23-1.07-2.62-1.07-4.19c0-1.56,0.35-2.96,1.07-4.18
			c0.71-1.23,1.69-2.19,2.95-2.88c1.26-0.69,2.68-1.04,4.26-1.04c1.58,0,2.99,0.34,4.25,1.04c1.25,0.69,2.23,1.65,2.94,2.88
			c0.71,1.23,1.06,2.62,1.06,4.18c0,1.56-0.36,2.96-1.06,4.19c-0.71,1.23-1.69,2.19-2.94,2.89c-1.25,0.7-2.67,1.05-4.25,1.05
			C177.84,97.36,176.42,97.01,175.16,96.31z M182.16,94.14c0.81-0.47,1.44-1.13,1.9-1.98c0.46-0.85,0.69-1.82,0.69-2.92
			c0-1.1-0.23-2.07-0.69-2.92c-0.46-0.85-1.09-1.5-1.9-1.96s-1.73-0.69-2.75-0.69s-1.94,0.23-2.75,0.69s-1.45,1.12-1.92,1.96
			c-0.47,0.85-0.71,1.83-0.71,2.92c0,1.1,0.23,2.08,0.71,2.92c0.47,0.85,1.11,1.51,1.92,1.98s1.73,0.71,2.75,0.71
			S181.35,94.61,182.16,94.14z"/>
		<path class="st49" d="M206.48,81.28v15.9h-2.73v-2.4c-0.58,0.82-1.35,1.46-2.29,1.91c-0.95,0.45-1.98,0.67-3.1,0.67
			c-2.12,0-3.79-0.58-5.01-1.75c-1.22-1.17-1.83-2.89-1.83-5.17v-9.15h2.88v8.82c0,1.54,0.37,2.71,1.11,3.5s1.8,1.18,3.18,1.18
			c1.52,0,2.72-0.46,3.6-1.38c0.88-0.92,1.32-2.22,1.32-3.9v-8.22H206.48z"/>
		<path class="st49" d="M216.95,81.85c0.98-0.48,2.17-0.72,3.57-0.72v2.79c-0.16-0.02-0.38-0.03-0.66-0.03
			c-1.56,0-2.79,0.46-3.68,1.4c-0.89,0.93-1.33,2.25-1.33,3.97v7.92h-2.88v-15.9h2.76v2.67C215.23,83.03,215.97,82.33,216.95,81.85z
			"/>
		<path class="st49" d="M233.66,96.25c-0.42,0.36-0.94,0.63-1.56,0.82c-0.62,0.19-1.26,0.29-1.92,0.29c-1.6,0-2.84-0.43-3.72-1.29
			c-0.88-0.86-1.32-2.09-1.32-3.69v-8.73h-2.7v-2.37h2.7V77.8h2.88v3.48h4.56v2.37h-4.56v8.61c0,0.86,0.21,1.52,0.65,1.98
			c0.43,0.46,1.04,0.69,1.85,0.69c0.88,0,1.63-0.25,2.25-0.75L233.66,96.25z"/>
		<path class="st49" d="M250.44,82.89c1.19,1.17,1.78,2.88,1.78,5.14v9.15h-2.88v-8.82c0-1.54-0.37-2.7-1.11-3.48
			c-0.74-0.78-1.8-1.17-3.18-1.17c-1.56,0-2.79,0.46-3.69,1.36c-0.9,0.91-1.35,2.22-1.35,3.92v8.19h-2.88v-15.9h2.76v2.4
			c0.58-0.82,1.36-1.45,2.35-1.89c0.99-0.44,2.11-0.66,3.38-0.66C247.65,81.13,249.25,81.72,250.44,82.89z"/>
		<path class="st49" d="M271.97,90.19h-12.9c0.18,1.4,0.79,2.53,1.84,3.38c1.05,0.85,2.35,1.28,3.92,1.28c1.9,0,3.43-0.64,4.59-1.92
			l1.59,1.86c-0.72,0.84-1.62,1.48-2.69,1.92c-1.07,0.44-2.27,0.66-3.58,0.66c-1.68,0-3.17-0.34-4.47-1.04
			c-1.3-0.69-2.31-1.65-3.01-2.89c-0.71-1.24-1.07-2.64-1.07-4.2c0-1.54,0.35-2.93,1.04-4.17c0.69-1.24,1.64-2.21,2.85-2.89
			c1.21-0.69,2.57-1.04,4.1-1.04c1.52,0,2.87,0.34,4.06,1.04c1.19,0.69,2.12,1.66,2.79,2.89c0.67,1.24,1,2.66,1,4.26
			C272.03,89.54,272.01,89.83,271.97,90.19z M260.7,84.82c-0.93,0.84-1.48,1.94-1.63,3.3h10.2c-0.16-1.34-0.71-2.44-1.63-3.29
			c-0.93-0.85-2.08-1.28-3.46-1.28C262.79,83.56,261.63,83.98,260.7,84.82z"/>
		<path class="st49" d="M289.79,81.28l-7.71,17.49c-0.68,1.62-1.48,2.76-2.38,3.42c-0.91,0.66-2.01,0.99-3.29,0.99
			c-0.78,0-1.54-0.12-2.27-0.38s-1.33-0.62-1.81-1.09l1.23-2.16c0.82,0.78,1.77,1.17,2.85,1.17c0.7,0,1.29-0.19,1.75-0.55
			c0.47-0.37,0.9-1,1.28-1.91l0.51-1.11l-7.02-15.87h3L281.48,94l5.49-12.72H289.79z"/>
		<path class="st49" d="M300.98,76.18h3v18.39h11.37v2.61h-14.37V76.18z"/>
		<path class="st49" d="M332.48,90.19h-12.9c0.18,1.4,0.79,2.53,1.84,3.38c1.05,0.85,2.35,1.28,3.92,1.28c1.9,0,3.43-0.64,4.59-1.92
			l1.59,1.86c-0.72,0.84-1.62,1.48-2.69,1.92c-1.07,0.44-2.27,0.66-3.58,0.66c-1.68,0-3.17-0.34-4.47-1.04
			c-1.3-0.69-2.31-1.65-3.01-2.89c-0.71-1.24-1.07-2.64-1.07-4.2c0-1.54,0.35-2.93,1.04-4.17c0.69-1.24,1.64-2.21,2.85-2.89
			c1.21-0.69,2.57-1.04,4.1-1.04c1.52,0,2.87,0.34,4.06,1.04c1.19,0.69,2.12,1.66,2.79,2.89c0.67,1.24,1,2.66,1,4.26
			C332.54,89.54,332.52,89.83,332.48,90.19z M321.21,84.82c-0.93,0.84-1.48,1.94-1.63,3.3h10.2c-0.16-1.34-0.71-2.44-1.63-3.29
			c-0.93-0.85-2.08-1.28-3.46-1.28C323.3,83.56,322.14,83.98,321.21,84.82z"/>
		<path class="st49" d="M350.84,90.19h-12.9c0.18,1.4,0.79,2.53,1.84,3.38c1.05,0.85,2.35,1.28,3.92,1.28c1.9,0,3.43-0.64,4.59-1.92
			l1.59,1.86c-0.72,0.84-1.62,1.48-2.69,1.92c-1.07,0.44-2.27,0.66-3.58,0.66c-1.68,0-3.17-0.34-4.47-1.04
			c-1.3-0.69-2.31-1.65-3.01-2.89c-0.71-1.24-1.07-2.64-1.07-4.2c0-1.54,0.35-2.93,1.04-4.17c0.69-1.24,1.64-2.21,2.85-2.89
			c1.21-0.69,2.57-1.04,4.1-1.04c1.52,0,2.87,0.34,4.06,1.04c1.19,0.69,2.12,1.66,2.79,2.89c0.67,1.24,1,2.66,1,4.26
			C350.9,89.54,350.88,89.83,350.84,90.19z M339.57,84.82c-0.93,0.84-1.48,1.94-1.63,3.3h10.2c-0.16-1.34-0.71-2.44-1.63-3.29
			c-0.93-0.85-2.08-1.28-3.46-1.28C341.66,83.56,340.5,83.98,339.57,84.82z"/>
	</g>
</g>
</svg>
