<?xml version="1.0" encoding="utf-8"?>
<!-- Generator: Adobe Illustrator 24.1.0, SVG Export Plug-In . SVG Version: 6.00 Build 0)  -->
<svg version="1.1" id="Capa_1" xmlns="http://www.w3.org/2000/svg" xmlns:xlink="http://www.w3.org/1999/xlink" x="0px" y="0px"
	 viewBox="0 0 318.7 50.8" style="enable-background:new 0 0 318.7 50.8;" xml:space="preserve">
<style type="text/css">
	.st0{display:none;fill:#F0A160;}
	.st1{fill:#6D95B7;}
	.st2{fill:#FEFEFE;}
	.st3{fill:none;stroke:#F0A160;stroke-width:17.7633;stroke-miterlimit:10;}
	.st4{fill:#F0A160;}
	.st5{fill:none;stroke:#F0A160;stroke-width:17.3377;stroke-miterlimit:10;}
	.st6{fill:none;stroke:#F0A160;stroke-width:17.9052;stroke-miterlimit:10;}
	.st7{fill:none;stroke:#F0A160;stroke-width:13.9263;stroke-miterlimit:10;}
	.st8{fill:#3B3B3B;}
	.st9{enable-background:new    ;}
	.st10{fill:#FFFFFF;}
	.st11{fill:#FFFFFF;stroke:#FFFFFF;stroke-miterlimit:10;}
</style>
<rect class="st0" width="318.7" height="50.8"/>
<g class="st9">
	<path class="st10" d="M28.1,20.4h4.6c1.1,0,2.1,0.2,3,0.7c0.9,0.4,1.5,1,2,1.8c0.5,0.8,0.7,1.7,0.7,2.8s-0.2,2-0.7,2.8
		c-0.5,0.8-1.2,1.4-2,1.8c-0.9,0.4-1.9,0.7-3,0.7h-4.6V20.4z M32.6,29.3c0.8,0,1.4-0.1,2-0.4s1-0.7,1.4-1.3s0.5-1.2,0.5-1.9
		s-0.2-1.4-0.5-1.9s-0.8-1-1.4-1.3s-1.3-0.4-2-0.4H30v7.2H32.6z"/>
	<path class="st10" d="M47.8,27.5h-6.3c0.1,0.6,0.4,1.1,0.9,1.4c0.5,0.3,1,0.5,1.7,0.5c0.9,0,1.6-0.3,2.2-0.9l1,1.2
		c-0.4,0.4-0.8,0.8-1.4,1C45.3,30.9,44.7,31,44,31c-0.9,0-1.7-0.2-2.3-0.5s-1.2-0.8-1.6-1.5c-0.4-0.6-0.5-1.3-0.5-2.1
		c0-0.8,0.2-1.5,0.5-2.1s0.8-1.1,1.5-1.5c0.6-0.3,1.3-0.5,2.1-0.5c0.8,0,1.5,0.2,2.1,0.5c0.6,0.3,1.1,0.8,1.4,1.5
		c0.3,0.6,0.5,1.3,0.5,2.2C47.8,27.1,47.8,27.3,47.8,27.5z M42.2,24.9c-0.4,0.4-0.7,0.8-0.8,1.4H46c-0.1-0.6-0.3-1-0.7-1.4
		c-0.4-0.4-0.9-0.5-1.5-0.5C43.2,24.3,42.6,24.5,42.2,24.9z"/>
	<path class="st10" d="M50.2,30.8c-0.6-0.2-1.1-0.4-1.5-0.6l0.7-1.4c0.4,0.2,0.8,0.4,1.3,0.6c0.5,0.1,1,0.2,1.5,0.2
		c1.1,0,1.7-0.3,1.7-0.9c0-0.3-0.1-0.5-0.4-0.6c-0.3-0.1-0.7-0.2-1.4-0.3c-0.7-0.1-1.2-0.2-1.6-0.3s-0.8-0.4-1.1-0.7
		c-0.3-0.3-0.5-0.8-0.5-1.4c0-0.8,0.3-1.4,1-1.8c0.6-0.5,1.5-0.7,2.6-0.7c0.5,0,1.1,0.1,1.6,0.2c0.5,0.1,1,0.3,1.4,0.5l-0.7,1.4
		c-0.7-0.4-1.4-0.6-2.3-0.6c-0.5,0-1,0.1-1.3,0.2s-0.4,0.4-0.4,0.7c0,0.3,0.2,0.5,0.5,0.6c0.3,0.1,0.8,0.2,1.4,0.4
		c0.6,0.1,1.2,0.2,1.6,0.3s0.8,0.3,1.1,0.7c0.3,0.3,0.4,0.8,0.4,1.3c0,0.8-0.3,1.4-1,1.8c-0.6,0.5-1.5,0.7-2.7,0.7
		C51.4,31,50.8,30.9,50.2,30.8z"/>
	<path class="st10" d="M57.4,21.3c-0.2-0.2-0.3-0.5-0.3-0.8s0.1-0.6,0.3-0.8c0.2-0.2,0.5-0.3,0.9-0.3s0.6,0.1,0.9,0.3
		s0.3,0.5,0.3,0.8c0,0.3-0.1,0.6-0.3,0.8c-0.2,0.2-0.5,0.3-0.9,0.3C57.9,21.6,57.6,21.5,57.4,21.3z M57.3,22.9h1.9v8h-1.9V22.9z"/>
	<path class="st10" d="M69.6,22.9v6.8c0,2.8-1.4,4.2-4.3,4.2c-0.8,0-1.5-0.1-2.2-0.3s-1.3-0.5-1.7-0.8l0.8-1.4
		c0.4,0.3,0.8,0.5,1.3,0.7c0.5,0.2,1.1,0.3,1.6,0.3c0.9,0,1.5-0.2,1.9-0.6c0.4-0.4,0.6-1,0.6-1.8v-0.4c-0.3,0.3-0.7,0.6-1.2,0.8
		s-1,0.3-1.5,0.3c-0.8,0-1.4-0.2-2.1-0.5c-0.6-0.3-1.1-0.8-1.5-1.4s-0.5-1.3-0.5-2s0.2-1.4,0.5-2s0.8-1,1.5-1.4
		c0.6-0.3,1.3-0.5,2.1-0.5c0.6,0,1.1,0.1,1.6,0.3c0.5,0.2,0.9,0.5,1.2,0.9v-1.1H69.6z M67.1,28.3c0.5-0.4,0.7-1,0.7-1.7
		c0-0.7-0.2-1.2-0.7-1.6s-1-0.6-1.7-0.6c-0.7,0-1.3,0.2-1.8,0.6c-0.5,0.4-0.7,1-0.7,1.6c0,0.7,0.2,1.2,0.7,1.7
		c0.5,0.4,1,0.6,1.8,0.6C66,29,66.6,28.8,67.1,28.3z"/>
	<path class="st10" d="M79,23.7c0.6,0.6,0.9,1.5,0.9,2.6v4.6h-1.9v-4.3c0-0.7-0.2-1.2-0.5-1.6c-0.3-0.4-0.8-0.5-1.4-0.5
		c-0.7,0-1.2,0.2-1.6,0.6c-0.4,0.4-0.6,1-0.6,1.8v4h-1.9v-8h1.8v1c0.3-0.4,0.7-0.7,1.2-0.8c0.5-0.2,1-0.3,1.6-0.3
		C77.6,22.8,78.4,23.1,79,23.7z"/>
	<path class="st10" d="M89.9,27.5h-6.3c0.1,0.6,0.4,1.1,0.9,1.4c0.5,0.3,1,0.5,1.7,0.5c0.9,0,1.6-0.3,2.2-0.9l1,1.2
		c-0.4,0.4-0.8,0.8-1.4,1c-0.6,0.2-1.2,0.3-1.9,0.3c-0.9,0-1.7-0.2-2.3-0.5s-1.2-0.8-1.6-1.5c-0.4-0.6-0.5-1.3-0.5-2.1
		c0-0.8,0.2-1.5,0.5-2.1s0.8-1.1,1.5-1.5c0.6-0.3,1.3-0.5,2.1-0.5c0.8,0,1.5,0.2,2.1,0.5c0.6,0.3,1.1,0.8,1.4,1.5
		c0.3,0.6,0.5,1.3,0.5,2.2C90,27.1,89.9,27.3,89.9,27.5z M84.4,24.9c-0.4,0.4-0.7,0.8-0.8,1.4h4.5c-0.1-0.6-0.3-1-0.7-1.4
		c-0.4-0.4-0.9-0.5-1.5-0.5C85.3,24.3,84.8,24.5,84.4,24.9z"/>
	<path class="st10" d="M99.6,19.8v11.1h-1.8v-1c-0.3,0.4-0.7,0.7-1.1,0.9c-0.5,0.2-1,0.3-1.5,0.3c-0.8,0-1.5-0.2-2.1-0.5
		c-0.6-0.3-1.1-0.8-1.4-1.4c-0.4-0.6-0.5-1.3-0.5-2.2c0-0.8,0.2-1.5,0.5-2.1c0.3-0.6,0.8-1.1,1.4-1.4c0.6-0.3,1.3-0.5,2.1-0.5
		c0.5,0,1,0.1,1.5,0.3c0.4,0.2,0.8,0.5,1.1,0.8v-4.1H99.6z M96.6,29.1c0.4-0.2,0.6-0.5,0.9-0.9s0.3-0.8,0.3-1.3s-0.1-0.9-0.3-1.3
		s-0.5-0.7-0.9-0.9s-0.8-0.3-1.2-0.3c-0.5,0-0.9,0.1-1.2,0.3c-0.4,0.2-0.6,0.5-0.9,0.9S93,26.4,93,26.9s0.1,0.9,0.3,1.3
		s0.5,0.7,0.9,0.9c0.4,0.2,0.8,0.3,1.2,0.3C95.8,29.4,96.2,29.3,96.6,29.1z"/>
	<path class="st10" d="M114.3,31.1l-1.3-1.3c-1,0.8-2.2,1.3-3.5,1.3c-0.7,0-1.4-0.1-2-0.4c-0.6-0.2-1-0.6-1.4-1
		c-0.3-0.4-0.5-0.9-0.5-1.4c0-0.6,0.2-1.2,0.6-1.7c0.4-0.5,1-1,1.9-1.5c-0.4-0.4-0.7-0.8-0.9-1.2c-0.2-0.4-0.3-0.7-0.3-1.1
		c0-0.7,0.3-1.3,0.8-1.8s1.3-0.7,2.2-0.7c0.9,0,1.5,0.2,2,0.6c0.5,0.4,0.8,1,0.8,1.7c0,0.5-0.2,1-0.5,1.4c-0.3,0.4-0.9,0.8-1.6,1.3
		l2.3,2.2c0.2-0.5,0.4-1.1,0.6-1.8l1.5,0.5c-0.2,0.9-0.5,1.7-0.9,2.4l1.3,1.3L114.3,31.1z M111.8,28.8l-2.8-2.7
		c-0.6,0.3-1,0.6-1.3,1c-0.2,0.3-0.4,0.6-0.4,1c0,0.4,0.2,0.8,0.6,1.1c0.4,0.3,0.9,0.4,1.5,0.4C110.4,29.5,111.2,29.3,111.8,28.8z
		 M108.9,21.9c-0.2,0.2-0.4,0.5-0.4,0.8c0,0.2,0.1,0.5,0.2,0.7s0.4,0.5,0.8,0.9c0.6-0.3,1-0.6,1.3-0.9c0.2-0.2,0.4-0.5,0.4-0.8
		c0-0.3-0.1-0.6-0.3-0.7c-0.2-0.2-0.5-0.3-0.9-0.3C109.5,21.6,109.2,21.7,108.9,21.9z"/>
	<path class="st10" d="M122.4,30.5c-0.7-0.3-1.2-0.8-1.5-1.5c-0.4-0.6-0.6-1.3-0.6-2.1s0.2-1.5,0.6-2.1c0.4-0.6,0.9-1.1,1.5-1.5
		c0.7-0.3,1.4-0.5,2.2-0.5c0.8,0,1.5,0.2,2.1,0.5c0.6,0.3,1,0.8,1.3,1.4l-1.4,0.8c-0.2-0.4-0.5-0.6-0.9-0.8
		c-0.3-0.2-0.7-0.3-1.1-0.3c-0.7,0-1.3,0.2-1.7,0.7s-0.7,1.1-0.7,1.8s0.2,1.4,0.7,1.8s1,0.7,1.7,0.7c0.4,0,0.8-0.1,1.1-0.3
		c0.3-0.2,0.6-0.5,0.9-0.8l1.4,0.8c-0.3,0.6-0.8,1.1-1.4,1.4c-0.6,0.3-1.3,0.5-2.1,0.5C123.8,31,123,30.9,122.4,30.5z"/>
	<path class="st10" d="M130.9,30.5c-0.7-0.3-1.2-0.8-1.5-1.5c-0.4-0.6-0.5-1.3-0.5-2.1s0.2-1.5,0.5-2.1c0.4-0.6,0.9-1.1,1.5-1.5
		c0.6-0.3,1.4-0.5,2.2-0.5c0.8,0,1.6,0.2,2.2,0.5c0.6,0.4,1.2,0.8,1.5,1.5c0.4,0.6,0.5,1.3,0.5,2.1s-0.2,1.5-0.5,2.1
		c-0.4,0.6-0.9,1.1-1.5,1.5c-0.7,0.3-1.4,0.5-2.2,0.5C132.3,31,131.6,30.9,130.9,30.5z M134.8,28.7c0.5-0.5,0.7-1.1,0.7-1.8
		s-0.2-1.4-0.7-1.8s-1-0.7-1.7-0.7s-1.3,0.2-1.7,0.7s-0.7,1.1-0.7,1.8s0.2,1.4,0.7,1.8c0.4,0.5,1,0.7,1.7,0.7S134.4,29.2,134.8,28.7
		z"/>
	<path class="st10" d="M147,19.8v11.1h-1.8v-1c-0.3,0.4-0.7,0.7-1.1,0.9c-0.5,0.2-1,0.3-1.5,0.3c-0.8,0-1.5-0.2-2.1-0.5
		c-0.6-0.3-1.1-0.8-1.4-1.4c-0.4-0.6-0.5-1.3-0.5-2.2c0-0.8,0.2-1.5,0.5-2.1c0.3-0.6,0.8-1.1,1.4-1.4c0.6-0.3,1.3-0.5,2.1-0.5
		c0.5,0,1,0.1,1.5,0.3c0.4,0.2,0.8,0.5,1.1,0.8v-4.1H147z M144,29.1c0.4-0.2,0.6-0.5,0.9-0.9s0.3-0.8,0.3-1.3s-0.1-0.9-0.3-1.3
		s-0.5-0.7-0.9-0.9s-0.8-0.3-1.2-0.3c-0.5,0-0.9,0.1-1.2,0.3c-0.4,0.2-0.6,0.5-0.9,0.9s-0.3,0.8-0.3,1.3s0.1,0.9,0.3,1.3
		s0.5,0.7,0.9,0.9c0.4,0.2,0.8,0.3,1.2,0.3C143.3,29.4,143.7,29.3,144,29.1z"/>
	<path class="st10" d="M157,27.5h-6.3c0.1,0.6,0.4,1.1,0.9,1.4c0.5,0.3,1,0.5,1.7,0.5c0.9,0,1.6-0.3,2.2-0.9l1,1.2
		c-0.4,0.4-0.8,0.8-1.4,1c-0.6,0.2-1.2,0.3-1.9,0.3c-0.9,0-1.7-0.2-2.3-0.5s-1.2-0.8-1.6-1.5c-0.4-0.6-0.5-1.3-0.5-2.1
		c0-0.8,0.2-1.5,0.5-2.1s0.8-1.1,1.5-1.5c0.6-0.3,1.3-0.5,2.1-0.5c0.8,0,1.5,0.2,2.1,0.5c0.6,0.3,1.1,0.8,1.4,1.5
		c0.3,0.6,0.5,1.3,0.5,2.2C157,27.1,157,27.3,157,27.5z M151.5,24.9c-0.4,0.4-0.7,0.8-0.8,1.4h4.5c-0.1-0.6-0.3-1-0.7-1.4
		c-0.4-0.4-0.9-0.5-1.5-0.5C152.4,24.3,151.9,24.5,151.5,24.9z"/>
	<path class="st10" d="M166.7,19.8v11.1h-1.8v-1c-0.3,0.4-0.7,0.7-1.1,0.9c-0.5,0.2-1,0.3-1.5,0.3c-0.8,0-1.5-0.2-2.1-0.5
		c-0.6-0.3-1.1-0.8-1.4-1.4c-0.4-0.6-0.5-1.3-0.5-2.2c0-0.8,0.2-1.5,0.5-2.1c0.3-0.6,0.8-1.1,1.4-1.4c0.6-0.3,1.3-0.5,2.1-0.5
		c0.5,0,1,0.1,1.5,0.3c0.4,0.2,0.8,0.5,1.1,0.8v-4.1H166.7z M163.7,29.1c0.4-0.2,0.6-0.5,0.9-0.9s0.3-0.8,0.3-1.3s-0.1-0.9-0.3-1.3
		s-0.5-0.7-0.9-0.9s-0.8-0.3-1.2-0.3c-0.5,0-0.9,0.1-1.2,0.3c-0.4,0.2-0.6,0.5-0.9,0.9s-0.3,0.8-0.3,1.3s0.1,0.9,0.3,1.3
		s0.5,0.7,0.9,0.9c0.4,0.2,0.8,0.3,1.2,0.3C162.9,29.4,163.3,29.3,163.7,29.1z"/>
</g>
<g class="st9">
	<path class="st10" d="M245,23.3c0.6,0.3,1.1,0.8,1.4,1.4c0.4,0.6,0.5,1.3,0.5,2.1c0,0.8-0.2,1.5-0.5,2.2c-0.3,0.6-0.8,1.1-1.4,1.4
		c-0.6,0.3-1.3,0.5-2.1,0.5c-0.5,0-1.1-0.1-1.5-0.3c-0.5-0.2-0.8-0.5-1.1-0.9v1h-1.8V19.8h1.9v4.1c0.3-0.3,0.7-0.6,1.1-0.8
		c0.4-0.2,0.9-0.3,1.4-0.3C243.7,22.8,244.4,23,245,23.3z M244.4,28.7c0.4-0.5,0.7-1.1,0.7-1.8s-0.2-1.4-0.7-1.8
		c-0.4-0.5-1-0.7-1.7-0.7c-0.5,0-0.9,0.1-1.2,0.3s-0.6,0.5-0.9,0.9s-0.3,0.8-0.3,1.3s0.1,0.9,0.3,1.3s0.5,0.7,0.9,0.9
		s0.8,0.3,1.2,0.3C243.4,29.4,244,29.2,244.4,28.7z"/>
	<path class="st10" d="M256,22.9l-3.8,8.7c-0.3,0.9-0.8,1.5-1.3,1.8c-0.5,0.4-1.1,0.5-1.8,0.5c-0.4,0-0.8-0.1-1.2-0.2
		c-0.4-0.1-0.7-0.3-1-0.5l0.8-1.4c0.2,0.2,0.4,0.3,0.6,0.4c0.2,0.1,0.5,0.2,0.7,0.2c0.3,0,0.6-0.1,0.8-0.3c0.2-0.2,0.4-0.5,0.6-0.9
		l0.1-0.3l-3.5-8h2l2.5,5.9l2.5-5.9H256z"/>
	<path class="st10" d="M273.9,23.7c0.6,0.6,0.9,1.5,0.9,2.6v4.6h-1.9v-4.3c0-0.7-0.2-1.2-0.5-1.6c-0.3-0.4-0.8-0.5-1.3-0.5
		c-0.6,0-1.1,0.2-1.5,0.6s-0.6,1-0.6,1.8v4.1h-1.9v-4.3c0-0.7-0.2-1.2-0.5-1.6c-0.3-0.4-0.8-0.5-1.3-0.5c-0.6,0-1.1,0.2-1.5,0.6
		s-0.6,1-0.6,1.8v4.1h-1.9v-8h1.8v1c0.3-0.4,0.7-0.6,1.1-0.8c0.5-0.2,1-0.3,1.5-0.3c0.6,0,1.1,0.1,1.6,0.3c0.5,0.2,0.8,0.6,1.1,1
		c0.3-0.4,0.8-0.7,1.3-1c0.5-0.2,1.1-0.4,1.7-0.4C272.5,22.8,273.3,23.1,273.9,23.7z"/>
	<path class="st10" d="M284.7,27.5h-6.3c0.1,0.6,0.4,1.1,0.9,1.4c0.5,0.3,1,0.5,1.7,0.5c0.9,0,1.6-0.3,2.2-0.9l1,1.2
		c-0.4,0.4-0.8,0.8-1.4,1c-0.6,0.2-1.2,0.3-1.9,0.3c-0.9,0-1.7-0.2-2.3-0.5s-1.2-0.8-1.6-1.5c-0.4-0.6-0.5-1.3-0.5-2.1
		c0-0.8,0.2-1.5,0.5-2.1c0.4-0.6,0.8-1.1,1.5-1.5c0.6-0.3,1.3-0.5,2.1-0.5c0.8,0,1.5,0.2,2.1,0.5c0.6,0.3,1.1,0.8,1.4,1.5
		c0.3,0.6,0.5,1.3,0.5,2.2C284.7,27.1,284.7,27.3,284.7,27.5z M279.2,24.9c-0.4,0.4-0.7,0.8-0.8,1.4h4.5c-0.1-0.6-0.3-1-0.7-1.4
		c-0.4-0.4-0.9-0.5-1.5-0.5C280.1,24.3,279.6,24.5,279.2,24.9z"/>
</g>
<g class="st9">
	<path class="st10" d="M185.6,22.9l-3,8h-1.8l-2.1-5.5l-2.1,5.5h-1.8l-2.9-8h1.8l2.1,5.9l2.2-5.9h1.6l2.2,5.9l2.2-5.9H185.6z"/>
	<path class="st10" d="M187,21.3c-0.2-0.2-0.3-0.5-0.3-0.8s0.1-0.6,0.3-0.8c0.2-0.2,0.5-0.3,0.9-0.3s0.6,0.1,0.9,0.3
		s0.3,0.5,0.3,0.8c0,0.3-0.1,0.6-0.3,0.8c-0.2,0.2-0.5,0.3-0.9,0.3C187.5,21.6,187.2,21.5,187,21.3z M186.9,22.9h1.9v8h-1.9V22.9z"
		/>
	<path class="st10" d="M196.1,30.5c-0.2,0.2-0.5,0.3-0.8,0.4s-0.6,0.1-1,0.1c-0.9,0-1.6-0.2-2-0.7s-0.7-1.1-0.7-2v-3.9h-1.3V23h1.3
		v-1.8h1.9V23h2.1v1.5h-2.1v3.8c0,0.4,0.1,0.7,0.3,0.9s0.5,0.3,0.8,0.3c0.4,0,0.8-0.1,1-0.3L196.1,30.5z"/>
	<path class="st10" d="M204.6,23.7c0.6,0.6,0.9,1.5,0.9,2.6v4.6h-1.9v-4.3c0-0.7-0.2-1.2-0.5-1.6c-0.3-0.4-0.8-0.5-1.4-0.5
		c-0.7,0-1.2,0.2-1.6,0.6c-0.4,0.4-0.6,1-0.6,1.8v4h-1.9V19.8h1.9v4c0.3-0.3,0.7-0.6,1.1-0.8c0.5-0.2,1-0.3,1.5-0.3
		C203.2,22.8,204,23.1,204.6,23.7z"/>
</g>
<path id="heart" class="st11" d="M218,18.4c-1.1,0-2.1,0.4-2.8,1.2c-0.8,0.9-1.2,2-1.1,3.1c0,1.4,0.6,2.7,1.5,3.7
	c1.3,1.5,2.8,2.8,4.3,4.1l0,0c0.6,0.5,1.3,1.1,2.1,1.8c0.7-0.6,1.4-1.2,2.1-1.8c1.6-1.2,3-2.6,4.3-4.1c1-1,1.5-2.3,1.5-3.7
	c0-1.2-0.4-2.3-1.1-3.1c-0.7-0.8-1.8-1.2-2.8-1.2c-0.8,0-1.6,0.3-2.2,0.8c-0.5,0.4-0.9,0.9-1.2,1.4c-0.2,0.3-0.6,0.4-0.9,0.2
	c-0.1-0.1-0.2-0.1-0.2-0.2c-0.3-0.5-0.7-1-1.2-1.4C219.5,18.7,218.8,18.4,218,18.4z"/>
</svg>
