<?xml version="1.0" encoding="utf-8"?>
<!-- Generator: Adobe Illustrator 24.1.0, SVG Export Plug-In . SVG Version: 6.00 Build 0)  -->
<svg version="1.1" id="Layer_1" xmlns="http://www.w3.org/2000/svg" xmlns:xlink="http://www.w3.org/1999/xlink" x="0px" y="0px"
	 viewBox="0 0 597.6 633.6" style="enable-background:new 0 0 597.6 633.6;" xml:space="preserve">
<style type="text/css">
	.st0{fill:#F0A160;}
	.st1{fill:#F0A160;stroke:#F0A160;stroke-width:3.3187;stroke-miterlimit:10;}
	.st2{fill:#F0A160;stroke:#F0A160;stroke-width:3.6779;stroke-miterlimit:10;}
</style>
<g>
	<path class="st2" d="M473.8,95.5c3.2,15.2,6.4,30.5,9.8,45.7c0.2,1,1.8,2.3,2.9,2.5c13.8,3.1,27.7,6.1,41.6,9.1
		c0.9,0.2,1.8,0.5,3.4,0.9c-1.2,1.3-2.1,2.3-3,3.2c-19.2,19.2-38.3,38.3-57.4,57.5c-2,2-4,2.9-6.9,2.9c-11.1-0.2-22.1-0.2-33.2,0
		c-1.9,0-4.3,1-5.7,2.3c-8.7,8.4-17.2,17.1-25.9,25.8c31.3,39.3,43,83.5,32.5,132.6C423.5,417,402.4,448,370,471
		c-63.4,45.1-151.2,34.9-203.3-23.4c-52.5-58.8-52.4-146.5,0.3-205.6c52.6-58.9,147-71.1,214.7-14.2c5.7-5.7,11-12.1,17.3-17.1
		c8.9-7.1,12.6-15.4,11.1-26.8c-0.9-7.1-0.4-14.4-0.1-21.5c0.1-2.1,1.1-4.5,2.5-6c19.1-19.4,38.4-38.6,57.7-57.8c1-1,1.8-2,2.7-3.1
		C473.2,95.5,473.5,95.5,473.8,95.5z M355.5,254c-53.3-42.2-125.5-30.4-164.2,16.3c-38,45.8-35.5,112.6,6.3,156.4
		c40.2,42.1,107.6,47,154.2,12.1c48.3-36.1,65.5-110.9,21.1-167.5c8.5-8.5,17.2-17,26.2-25.9c-6-5.9-11.7-11.6-17.7-17.5
		C372.6,236.8,364.1,245.3,355.5,254z"/>
	<path class="st2" d="M396.2,482.5c5.7-5.4,11.5-10.9,16.9-16.1c12.2,12.2,24.4,24.4,36.2,36.3c-5.2,5.2-11,10.9-16.5,16.5
		C421.1,507.3,408.7,495,396.2,482.5z"/>
	<path class="st2" d="M149.7,466.2c5.6,5.4,11.4,10.9,16.8,16c-12.3,12.3-24.7,24.6-36.7,36.6c-5-5-10.8-10.8-16.4-16.3
		C125.1,490.8,137.3,478.6,149.7,466.2z"/>
	<path class="st2" d="M337.3,271.8c-8.8,8.7-17.6,17.5-26.1,25.9c-6.6-2.2-13-5.1-19.8-6.5c-29.9-6.2-60,15.2-64.2,45.3
		c-4.9,34.8,21.1,64.2,56.2,63.6c29.4-0.5,53.6-26.2,53-55.9c-0.2-9-2.4-17.4-6.5-25.4c-0.5-1-0.7-3.1,0-3.8
		c8.3-8.5,16.7-16.8,25.1-25.3c25.4,31,27.8,84.7-8.2,120.7c-36,36-93.7,36.1-130.2,0.4C181.1,376,180,318,213.9,282.1
		C249.3,244.5,304.3,245,337.3,271.8z"/>
	<path class="st2" d="M292.7,317.4c-6.6,6.5-12.8,12.5-18.8,18.4c5.9,5.8,11.5,11.4,17.3,17.1c5.6-5.7,11.7-11.8,17.9-18
		c5.7,8.9,1.7,25.1-7.9,33.2c-11.4,9.6-28.1,9.6-39.5-0.3c-11.3-9.8-13.6-26.6-5.5-39.1C263.9,316.6,279.7,311.4,292.7,317.4z"/>
</g>
</svg>
