<?xml version="1.0" encoding="utf-8"?>
<!-- Generator: Adobe Illustrator 24.1.0, SVG Export Plug-In . SVG Version: 6.00 Build 0)  -->
<svg version="1.1" id="Layer_1" xmlns="http://www.w3.org/2000/svg" xmlns:xlink="http://www.w3.org/1999/xlink" x="0px" y="0px"
	 viewBox="0 0 597.6 633.6" style="enable-background:new 0 0 597.6 633.6;" xml:space="preserve">
<style type="text/css">
	.st0{fill:#F0A160;}
</style>
<g>
	<path class="st0" d="M451.5,125.5c3.2,1,6.4,1.8,9.5,2.9c17.1,6.3,29.1,22.4,29.2,40.6c0.2,56.1,0.1,112.3,0.1,168.4
		c0,0.6-0.1,1.2-0.2,2c-9.9,0-19.5,0-29.7,0c0-1.5,0-2.9,0-4.4c0-53.9,0-107.8,0-161.6c0-12.2-5.6-17.9-17.8-17.9
		c-96,0-192.1,0-288.1,0c-11.7,0-17.4,5.7-17.4,17.4c0,96.2,0,192.3,0,288.5c0,11.6,5.8,17.4,17.5,17.4c55.1,0,110.3,0,165.4,0
		c1.5,0,3,0,4.7,0c0,10,0,19.8,0,29.9c-1.6,0-3,0-4.5,0c-55,0-110-0.3-165,0.1c-26.4,0.2-44.6-18-47.4-38.1c0-0.3-0.4-0.6-0.6-0.9
		c0-101.8,0-203.6,0-305.4c0.2-0.7,0.6-1.3,0.7-2c2.4-12,8.2-22,18.6-28.5c11.3-7.1,21.2-8.3,34.2-8.3c15.6,0,31.3,0,46.9,0
		c31.3,0,62.6,0,93.8,0c25,0,50,0,75.1,0c12.5,0,25,0,37.5,0c6.3,0,12.5,0,18.8,0C438.2,125.5,446.4,123.9,451.5,125.5z"/>
	<path class="st0" d="M461.2,458.3c9.7,9.7,19.4,19.2,28.7,28.5c-7.1,7.1-14.1,14-21,21c-9.3-9.4-19.1-19.2-29-29.1
		c-18.4,10.2-37.2,12.6-56.7,6c-15.4-5.2-27.4-15-35.9-29c-16.9-27.9-11.2-64.1,13.3-85.3c24.9-21.6,61.5-22.3,86.7-1.8
		C472.2,388.9,481.5,426.1,461.2,458.3z M367.7,420.9c0,20.6,16.6,37.4,37.1,37.6c20.6,0.2,37.7-16.9,37.7-37.5
		c0-20.5-16.8-37.3-37.4-37.3C384.5,383.7,367.7,400.4,367.7,420.9z"/>
	<path class="st0" d="M257,239.7c0-9.8,0-19.4,0-29.3c50.2,0,100.4,0,150.8,0c0,9.6,0,19.3,0,29.3
		C357.7,239.7,307.5,239.7,257,239.7z"/>
	<path class="st0" d="M408,300.1c0,9.9,0,19.5,0,29.4c-50.3,0-100.5,0-150.9,0c0-9.8,0-19.4,0-29.4
		C307.3,300.1,357.5,300.1,408,300.1z"/>
	<path class="st0" d="M307.6,395.1c0,9.9,0,19.6,0,29.7c-8.5,0-16.8,0-25.1,0c-8.3,0-16.7,0-25.3,0c0-10,0-19.7,0-29.7
		C273.9,395.1,290.5,395.1,307.6,395.1z"/>
	<path class="st0" d="M219.5,225c0,10.3-8.5,18.8-18.8,18.7c-10.3,0-18.7-8.5-18.6-18.9c0.1-10.2,8.4-18.5,18.6-18.5
		C211,206.3,219.4,214.6,219.5,225z"/>
	<path class="st0" d="M182.1,315c-0.1-10.4,8.2-18.8,18.6-18.8c10.4,0,18.8,8.3,18.8,18.7c0,10.2-8.3,18.6-18.4,18.7
		C190.7,333.7,182.1,325.3,182.1,315z"/>
	<path class="st0" d="M201,391.2c10.3,0.1,18.6,8.6,18.5,19c-0.2,10.1-8.6,18.4-18.7,18.4c-10.3,0-18.7-8.5-18.6-18.9
		C182.1,399.3,190.5,391.1,201,391.2z"/>
</g>
</svg>
