<svg width="1440" height="1024" viewBox="0 0 1440 1024" fill="none" xmlns="http://www.w3.org/2000/svg">
<rect width="1440" height="1024" fill="#C4C4C4"/>
<rect width="1440" height="1024" fill="#C4C4C4"/>
<rect y="268" width="1440" height="756" fill="white"/>
<path d="M569.629 125.024H586.765C589.213 125.024 591.565 125.264 593.821 125.744C596.125 126.224 598.141 127.04 599.869 128.192C601.597 129.296 602.965 130.808 603.973 132.728C605.029 134.6 605.557 136.952 605.557 139.784C605.557 143 605.005 145.592 603.901 147.56C602.797 149.528 601.309 151.064 599.437 152.168C597.565 153.224 595.381 153.944 592.885 154.328C590.437 154.712 587.869 154.904 585.181 154.904H578.701V176H569.629V125.024ZM584.173 147.128C585.469 147.128 586.813 147.08 588.205 146.984C589.597 146.888 590.869 146.6 592.021 146.12C593.221 145.64 594.181 144.92 594.901 143.96C595.669 143 596.053 141.656 596.053 139.928C596.053 138.344 595.717 137.096 595.045 136.184C594.373 135.224 593.509 134.504 592.453 134.024C591.397 133.496 590.221 133.16 588.925 133.016C587.629 132.872 586.381 132.8 585.181 132.8H578.701V147.128H584.173ZM634.453 171.248H634.237C632.989 173.216 631.405 174.656 629.485 175.568C627.565 176.432 625.453 176.864 623.149 176.864C621.565 176.864 620.005 176.648 618.469 176.216C616.981 175.784 615.637 175.136 614.437 174.272C613.285 173.408 612.349 172.328 611.629 171.032C610.909 169.736 610.549 168.224 610.549 166.496C610.549 164.624 610.885 163.04 611.557 161.744C612.229 160.4 613.117 159.296 614.221 158.432C615.373 157.52 616.693 156.8 618.181 156.272C619.669 155.744 621.205 155.36 622.789 155.12C624.421 154.832 626.053 154.664 627.685 154.616C629.317 154.52 630.853 154.472 632.293 154.472H634.453V153.536C634.453 151.376 633.709 149.768 632.221 148.712C630.733 147.608 628.837 147.056 626.533 147.056C624.709 147.056 623.005 147.392 621.421 148.064C619.837 148.688 618.469 149.552 617.317 150.656L612.781 146.12C614.701 144.152 616.933 142.736 619.477 141.872C622.069 141.008 624.733 140.576 627.469 140.576C629.917 140.576 631.981 140.864 633.661 141.44C635.341 141.968 636.733 142.664 637.837 143.528C638.941 144.392 639.781 145.4 640.357 146.552C640.981 147.656 641.413 148.784 641.653 149.936C641.941 151.088 642.109 152.216 642.157 153.32C642.205 154.376 642.229 155.312 642.229 156.128V176H634.453V171.248ZM633.949 160.52H632.149C630.949 160.52 629.605 160.568 628.117 160.664C626.629 160.76 625.213 161 623.869 161.384C622.573 161.72 621.469 162.248 620.557 162.968C619.645 163.64 619.189 164.6 619.189 165.848C619.189 166.664 619.357 167.36 619.693 167.936C620.077 168.464 620.557 168.92 621.133 169.304C621.709 169.688 622.357 169.976 623.077 170.168C623.797 170.312 624.517 170.384 625.237 170.384C628.213 170.384 630.397 169.688 631.789 168.296C633.229 166.856 633.949 164.912 633.949 162.464V160.52ZM646.845 141.44H656.349L665.997 165.416H666.141L674.781 141.44H683.781L667.437 183.416C666.813 185.048 666.117 186.464 665.349 187.664C664.629 188.912 663.765 189.944 662.757 190.76C661.749 191.624 660.549 192.248 659.157 192.632C657.813 193.064 656.181 193.28 654.261 193.28C652.005 193.28 649.797 192.992 647.637 192.416L648.717 184.64C649.389 184.88 650.085 185.072 650.805 185.216C651.573 185.408 652.341 185.504 653.109 185.504C654.165 185.504 655.053 185.408 655.773 185.216C656.493 185.024 657.093 184.712 657.573 184.28C658.101 183.896 658.533 183.368 658.869 182.696C659.205 182.072 659.565 181.304 659.949 180.392L661.605 176.288L646.845 141.44ZM707.293 151.016C705.613 148.664 703.357 147.488 700.525 147.488C699.373 147.488 698.245 147.776 697.141 148.352C696.037 148.928 695.485 149.864 695.485 151.16C695.485 152.216 695.941 152.984 696.853 153.464C697.765 153.944 698.917 154.352 700.309 154.688C701.701 155.024 703.189 155.384 704.773 155.768C706.405 156.104 707.917 156.656 709.309 157.424C710.701 158.144 711.853 159.152 712.765 160.448C713.677 161.744 714.133 163.52 714.133 165.776C714.133 167.84 713.677 169.592 712.765 171.032C711.901 172.424 710.749 173.552 709.309 174.416C707.917 175.28 706.333 175.904 704.557 176.288C702.781 176.672 701.005 176.864 699.229 176.864C696.541 176.864 694.069 176.48 691.813 175.712C689.557 174.944 687.541 173.552 685.765 171.536L691.525 166.136C692.629 167.384 693.805 168.416 695.053 169.232C696.349 170 697.909 170.384 699.733 170.384C700.357 170.384 701.005 170.312 701.677 170.168C702.349 170.024 702.973 169.784 703.549 169.448C704.125 169.112 704.581 168.704 704.917 168.224C705.301 167.696 705.493 167.096 705.493 166.424C705.493 165.224 705.037 164.336 704.125 163.76C703.213 163.184 702.061 162.728 700.669 162.392C699.277 162.008 697.765 161.672 696.133 161.384C694.549 161.048 693.061 160.544 691.669 159.872C690.277 159.152 689.125 158.168 688.213 156.92C687.301 155.672 686.845 153.944 686.845 151.736C686.845 149.816 687.229 148.16 687.997 146.768C688.813 145.328 689.869 144.152 691.165 143.24C692.461 142.328 693.949 141.656 695.629 141.224C697.309 140.792 699.013 140.576 700.741 140.576C703.045 140.576 705.325 140.984 707.581 141.8C709.837 142.568 711.661 143.912 713.053 145.832L707.293 151.016ZM744.469 151.808C743.461 150.752 742.405 149.912 741.301 149.288C740.197 148.664 739.069 148.352 737.917 148.352C736.333 148.352 734.917 148.64 733.669 149.216C732.421 149.792 731.341 150.56 730.429 151.52C729.565 152.48 728.893 153.584 728.413 154.832C727.981 156.08 727.765 157.376 727.765 158.72C727.765 160.064 727.981 161.36 728.413 162.608C728.893 163.856 729.565 164.96 730.429 165.92C731.341 166.88 732.421 167.648 733.669 168.224C734.917 168.8 736.333 169.088 737.917 169.088C739.261 169.088 740.509 168.824 741.661 168.296C742.813 167.72 743.797 166.904 744.613 165.848L750.373 172.04C749.509 172.904 748.501 173.648 747.349 174.272C746.245 174.896 745.117 175.4 743.965 175.784C742.813 176.168 741.709 176.432 740.653 176.576C739.597 176.768 738.685 176.864 737.917 176.864C735.325 176.864 732.877 176.432 730.573 175.568C728.269 174.704 726.277 173.48 724.597 171.896C722.917 170.312 721.573 168.416 720.565 166.208C719.605 163.952 719.125 161.456 719.125 158.72C719.125 155.984 719.605 153.512 720.565 151.304C721.573 149.048 722.917 147.128 724.597 145.544C726.277 143.96 728.269 142.736 730.573 141.872C732.877 141.008 735.325 140.576 737.917 140.576C740.125 140.576 742.333 141.008 744.541 141.872C746.797 142.688 748.765 144.008 750.445 145.832L744.469 151.808ZM777.187 171.248H776.971C775.723 173.216 774.139 174.656 772.219 175.568C770.299 176.432 768.187 176.864 765.883 176.864C764.299 176.864 762.739 176.648 761.203 176.216C759.715 175.784 758.371 175.136 757.171 174.272C756.019 173.408 755.083 172.328 754.363 171.032C753.643 169.736 753.283 168.224 753.283 166.496C753.283 164.624 753.619 163.04 754.291 161.744C754.963 160.4 755.851 159.296 756.955 158.432C758.107 157.52 759.427 156.8 760.915 156.272C762.403 155.744 763.939 155.36 765.523 155.12C767.155 154.832 768.787 154.664 770.419 154.616C772.051 154.52 773.587 154.472 775.027 154.472H777.187V153.536C777.187 151.376 776.443 149.768 774.955 148.712C773.467 147.608 771.571 147.056 769.267 147.056C767.443 147.056 765.739 147.392 764.155 148.064C762.571 148.688 761.203 149.552 760.051 150.656L755.515 146.12C757.435 144.152 759.667 142.736 762.211 141.872C764.803 141.008 767.467 140.576 770.203 140.576C772.651 140.576 774.715 140.864 776.395 141.44C778.075 141.968 779.467 142.664 780.571 143.528C781.675 144.392 782.515 145.4 783.091 146.552C783.715 147.656 784.147 148.784 784.387 149.936C784.675 151.088 784.843 152.216 784.891 153.32C784.939 154.376 784.963 155.312 784.963 156.128V176H777.187V171.248ZM776.683 160.52H774.883C773.683 160.52 772.339 160.568 770.851 160.664C769.363 160.76 767.947 161 766.603 161.384C765.307 161.72 764.203 162.248 763.291 162.968C762.379 163.64 761.923 164.6 761.923 165.848C761.923 166.664 762.091 167.36 762.427 167.936C762.811 168.464 763.291 168.92 763.867 169.304C764.443 169.688 765.091 169.976 765.811 170.168C766.531 170.312 767.251 170.384 767.971 170.384C770.947 170.384 773.131 169.688 774.523 168.296C775.963 166.856 776.683 164.912 776.683 162.464V160.52ZM794.259 141.44H802.467V146.624H802.611C803.859 144.512 805.539 142.976 807.651 142.016C809.763 141.056 812.043 140.576 814.491 140.576C817.131 140.576 819.507 141.056 821.619 142.016C823.731 142.928 825.531 144.2 827.019 145.832C828.507 147.464 829.635 149.384 830.403 151.592C831.171 153.8 831.555 156.176 831.555 158.72C831.555 161.264 831.147 163.64 830.331 165.848C829.515 168.056 828.363 169.976 826.875 171.608C825.435 173.24 823.683 174.536 821.619 175.496C819.555 176.408 817.299 176.864 814.851 176.864C813.219 176.864 811.779 176.696 810.531 176.36C809.283 176.024 808.179 175.592 807.219 175.064C806.259 174.536 805.443 173.984 804.771 173.408C804.099 172.784 803.547 172.184 803.115 171.608H802.899V192.416H794.259V141.44ZM822.915 158.72C822.915 157.376 822.675 156.08 822.195 154.832C821.763 153.584 821.091 152.48 820.179 151.52C819.315 150.56 818.259 149.792 817.011 149.216C815.763 148.64 814.347 148.352 812.763 148.352C811.179 148.352 809.763 148.64 808.515 149.216C807.267 149.792 806.187 150.56 805.275 151.52C804.411 152.48 803.739 153.584 803.259 154.832C802.827 156.08 802.611 157.376 802.611 158.72C802.611 160.064 802.827 161.36 803.259 162.608C803.739 163.856 804.411 164.96 805.275 165.92C806.187 166.88 807.267 167.648 808.515 168.224C809.763 168.8 811.179 169.088 812.763 169.088C814.347 169.088 815.763 168.8 817.011 168.224C818.259 167.648 819.315 166.88 820.179 165.92C821.091 164.96 821.763 163.856 822.195 162.608C822.675 161.36 822.915 160.064 822.915 158.72ZM846.523 161.744C846.811 164.336 847.819 166.352 849.547 167.792C851.275 169.232 853.363 169.952 855.811 169.952C857.971 169.952 859.771 169.52 861.211 168.656C862.699 167.744 863.995 166.616 865.099 165.272L871.291 169.952C869.275 172.448 867.019 174.224 864.523 175.28C862.027 176.336 859.411 176.864 856.675 176.864C854.083 176.864 851.635 176.432 849.331 175.568C847.027 174.704 845.035 173.48 843.355 171.896C841.675 170.312 840.331 168.416 839.323 166.208C838.363 163.952 837.883 161.456 837.883 158.72C837.883 155.984 838.363 153.512 839.323 151.304C840.331 149.048 841.675 147.128 843.355 145.544C845.035 143.96 847.027 142.736 849.331 141.872C851.635 141.008 854.083 140.576 856.675 140.576C859.075 140.576 861.259 141.008 863.227 141.872C865.243 142.688 866.947 143.888 868.339 145.472C869.779 147.056 870.883 149.024 871.651 151.376C872.467 153.68 872.875 156.344 872.875 159.368V161.744H846.523ZM864.235 155.264C864.187 152.72 863.395 150.728 861.859 149.288C860.323 147.8 858.187 147.056 855.451 147.056C852.859 147.056 850.795 147.8 849.259 149.288C847.771 150.776 846.859 152.768 846.523 155.264H864.235Z" fill="black"/>
<path d="M351.579 493.28C351.579 494.672 351.399 495.992 351.039 497.24C350.703 498.488 350.151 499.592 349.383 500.552C348.639 501.488 347.655 502.244 346.431 502.82C345.207 503.372 343.719 503.648 341.967 503.648C340.215 503.648 338.727 503.372 337.503 502.82C336.279 502.244 335.283 501.488 334.515 500.552C333.771 499.592 333.219 498.488 332.859 497.24C332.523 495.992 332.355 494.672 332.355 493.28V477.512H335.379V492.848C335.379 493.88 335.487 494.876 335.703 495.836C335.919 496.796 336.279 497.648 336.783 498.392C337.287 499.136 337.959 499.736 338.799 500.192C339.639 500.624 340.695 500.84 341.967 500.84C343.239 500.84 344.295 500.624 345.135 500.192C345.975 499.736 346.647 499.136 347.151 498.392C347.655 497.648 348.015 496.796 348.231 495.836C348.447 494.876 348.555 493.88 348.555 492.848V477.512H351.579V493.28ZM357.667 498.572C358.219 499.268 358.819 499.82 359.467 500.228C360.139 500.636 360.979 500.84 361.987 500.84C362.419 500.84 362.851 500.792 363.283 500.696C363.739 500.6 364.147 500.444 364.507 500.228C364.867 500.012 365.155 499.748 365.371 499.436C365.587 499.1 365.695 498.704 365.695 498.248C365.695 497.792 365.587 497.42 365.371 497.132C365.179 496.844 364.915 496.604 364.579 496.412C364.243 496.196 363.859 496.028 363.427 495.908C362.995 495.788 362.551 495.68 362.095 495.584C361.303 495.416 360.547 495.224 359.827 495.008C359.107 494.792 358.471 494.516 357.919 494.18C357.391 493.82 356.959 493.364 356.623 492.812C356.311 492.26 356.155 491.552 356.155 490.688C356.155 489.872 356.335 489.152 356.695 488.528C357.055 487.904 357.535 487.388 358.135 486.98C358.735 486.572 359.407 486.26 360.151 486.044C360.895 485.828 361.663 485.72 362.455 485.72C363.655 485.72 364.759 485.96 365.767 486.44C366.799 486.92 367.603 487.7 368.179 488.78L365.839 490.328C365.479 489.728 364.999 489.248 364.399 488.888C363.823 488.504 363.115 488.312 362.275 488.312C361.891 488.312 361.495 488.36 361.087 488.456C360.703 488.552 360.355 488.696 360.043 488.888C359.731 489.08 359.467 489.332 359.251 489.644C359.059 489.932 358.963 490.268 358.963 490.652C358.963 491.012 359.071 491.324 359.287 491.588C359.527 491.828 359.839 492.044 360.223 492.236C360.631 492.428 361.087 492.596 361.591 492.74C362.119 492.884 362.659 493.004 363.211 493.1C363.955 493.244 364.663 493.436 365.335 493.676C366.007 493.892 366.595 494.192 367.099 494.576C367.603 494.96 367.999 495.44 368.287 496.016C368.575 496.592 368.719 497.3 368.719 498.14C368.719 499.1 368.527 499.916 368.143 500.588C367.759 501.26 367.243 501.812 366.595 502.244C365.971 502.652 365.251 502.952 364.435 503.144C363.643 503.336 362.827 503.432 361.987 503.432C360.547 503.432 359.299 503.216 358.243 502.784C357.211 502.328 356.275 501.5 355.435 500.3L357.667 498.572ZM387.683 499.94C386.675 501.236 385.571 502.148 384.371 502.676C383.171 503.18 381.779 503.432 380.195 503.432C378.875 503.432 377.687 503.204 376.631 502.748C375.575 502.268 374.675 501.632 373.931 500.84C373.211 500.048 372.647 499.112 372.239 498.032C371.855 496.952 371.663 495.8 371.663 494.576C371.663 493.28 371.879 492.092 372.311 491.012C372.743 489.908 373.343 488.972 374.111 488.204C374.879 487.412 375.791 486.8 376.847 486.368C377.903 485.936 379.055 485.72 380.303 485.72C381.479 485.72 382.559 485.924 383.543 486.332C384.527 486.716 385.367 487.292 386.063 488.06C386.783 488.804 387.335 489.728 387.719 490.832C388.103 491.912 388.295 493.148 388.295 494.54V495.44H374.687C374.735 496.16 374.903 496.856 375.191 497.528C375.503 498.176 375.899 498.752 376.379 499.256C376.859 499.736 377.423 500.12 378.071 500.408C378.719 500.696 379.427 500.84 380.195 500.84C381.419 500.84 382.451 500.624 383.291 500.192C384.131 499.76 384.887 499.124 385.559 498.284L387.683 499.94ZM385.271 493.064C385.223 491.624 384.755 490.472 383.867 489.608C382.979 488.744 381.755 488.312 380.195 488.312C378.635 488.312 377.375 488.744 376.415 489.608C375.455 490.472 374.879 491.624 374.687 493.064H385.271ZM392.639 490.148C392.639 489.38 392.615 488.66 392.567 487.988C392.519 487.316 392.495 486.704 392.495 486.152H395.159C395.159 486.608 395.171 487.064 395.195 487.52C395.219 487.976 395.231 488.444 395.231 488.924H395.303C395.495 488.516 395.759 488.12 396.095 487.736C396.455 487.352 396.875 487.016 397.355 486.728C397.835 486.416 398.375 486.176 398.975 486.008C399.575 485.816 400.223 485.72 400.919 485.72C401.111 485.72 401.303 485.732 401.495 485.756C401.687 485.78 401.879 485.828 402.071 485.9L401.891 488.744C401.411 488.6 400.907 488.528 400.379 488.528C398.651 488.528 397.391 489.092 396.599 490.22C395.831 491.324 395.447 492.848 395.447 494.792V503H392.639V490.148ZM415.818 477.512H418.842V503H415.818V477.512ZM424.702 477.512H434.494C435.334 477.512 436.222 477.608 437.158 477.8C438.094 477.992 439.018 478.304 439.93 478.736C440.866 479.144 441.754 479.684 442.594 480.356C443.458 481.028 444.214 481.844 444.862 482.804C445.51 483.74 446.026 484.832 446.41 486.08C446.794 487.304 446.986 488.696 446.986 490.256C446.986 491.816 446.794 493.22 446.41 494.468C446.026 495.692 445.51 496.784 444.862 497.744C444.214 498.68 443.458 499.484 442.594 500.156C441.754 500.828 440.866 501.38 439.93 501.812C439.018 502.22 438.094 502.52 437.158 502.712C436.222 502.904 435.334 503 434.494 503H424.702V477.512ZM427.726 500.192H433.486C434.95 500.192 436.306 500 437.554 499.616C438.802 499.232 439.882 498.644 440.794 497.852C441.706 497.036 442.426 496.004 442.954 494.756C443.482 493.508 443.746 492.008 443.746 490.256C443.746 488.504 443.482 487.004 442.954 485.756C442.426 484.508 441.706 483.488 440.794 482.696C439.882 481.88 438.802 481.28 437.554 480.896C436.306 480.512 434.95 480.32 433.486 480.32H427.726V500.192ZM453.69 485.72C454.29 485.72 454.794 485.936 455.202 486.368C455.634 486.776 455.85 487.28 455.85 487.88C455.85 488.48 455.622 488.996 455.166 489.428C454.734 489.836 454.242 490.04 453.69 490.04C453.138 490.04 452.634 489.836 452.178 489.428C451.746 488.996 451.53 488.48 451.53 487.88C451.53 487.28 451.734 486.776 452.142 486.368C452.574 485.936 453.09 485.72 453.69 485.72ZM453.69 498.896C454.29 498.896 454.794 499.112 455.202 499.544C455.634 499.952 455.85 500.456 455.85 501.056C455.85 501.656 455.622 502.172 455.166 502.604C454.734 503.012 454.242 503.216 453.69 503.216C453.138 503.216 452.634 503.012 452.178 502.604C451.746 502.172 451.53 501.656 451.53 501.056C451.53 500.456 451.734 499.952 452.142 499.544C452.574 499.112 453.09 498.896 453.69 498.896Z" fill="black"/>
<path d="M332.281 585.512H339.841C341.017 585.512 342.133 585.632 343.189 585.872C344.269 586.088 345.217 586.472 346.033 587.024C346.873 587.552 347.533 588.272 348.013 589.184C348.517 590.072 348.769 591.176 348.769 592.496C348.769 593.888 348.505 595.04 347.977 595.952C347.449 596.864 346.765 597.584 345.925 598.112C345.109 598.64 344.209 599.012 343.225 599.228C342.241 599.444 341.305 599.552 340.417 599.552H335.305V611H332.281V585.512ZM335.305 596.744H340.417C341.929 596.744 343.153 596.408 344.089 595.736C345.049 595.04 345.529 593.972 345.529 592.532C345.529 591.092 345.049 590.036 344.089 589.364C343.153 588.668 341.929 588.32 340.417 588.32H335.305V596.744ZM352.901 596.312C353.765 595.424 354.785 594.776 355.961 594.368C357.161 593.936 358.373 593.72 359.597 593.72C362.093 593.72 363.893 594.308 364.997 595.484C366.101 596.66 366.653 598.448 366.653 600.848V608.084C366.653 608.564 366.677 609.068 366.725 609.596C366.773 610.1 366.833 610.568 366.905 611H364.205C364.109 610.616 364.049 610.196 364.025 609.74C364.025 609.26 364.025 608.84 364.025 608.48H363.953C363.401 609.344 362.657 610.052 361.721 610.604C360.809 611.156 359.705 611.432 358.409 611.432C357.545 611.432 356.729 611.324 355.961 611.108C355.217 610.892 354.557 610.58 353.981 610.172C353.429 609.74 352.985 609.212 352.649 608.588C352.313 607.964 352.145 607.244 352.145 606.428C352.145 605.036 352.505 603.944 353.225 603.152C353.945 602.36 354.833 601.772 355.889 601.388C356.969 601.004 358.121 600.764 359.345 600.668C360.593 600.572 361.733 600.524 362.765 600.524H363.845V600.02C363.845 598.796 363.473 597.872 362.729 597.248C362.009 596.624 360.989 596.312 359.669 596.312C358.757 596.312 357.857 596.468 356.969 596.78C356.105 597.068 355.337 597.524 354.665 598.148L352.901 596.312ZM361.037 602.9C359.237 602.9 357.809 603.152 356.753 603.656C355.697 604.16 355.169 604.988 355.169 606.14C355.169 607.196 355.517 607.952 356.213 608.408C356.933 608.84 357.821 609.056 358.877 609.056C359.693 609.056 360.401 608.924 361.001 608.66C361.625 608.372 362.141 608 362.549 607.544C362.957 607.088 363.269 606.56 363.485 605.96C363.701 605.336 363.821 604.676 363.845 603.98V602.9H361.037ZM372.145 606.572C372.697 607.268 373.297 607.82 373.945 608.228C374.617 608.636 375.457 608.84 376.465 608.84C376.897 608.84 377.329 608.792 377.761 608.696C378.217 608.6 378.625 608.444 378.985 608.228C379.345 608.012 379.633 607.748 379.849 607.436C380.065 607.1 380.173 606.704 380.173 606.248C380.173 605.792 380.065 605.42 379.849 605.132C379.657 604.844 379.393 604.604 379.057 604.412C378.721 604.196 378.337 604.028 377.905 603.908C377.473 603.788 377.029 603.68 376.573 603.584C375.781 603.416 375.025 603.224 374.305 603.008C373.585 602.792 372.949 602.516 372.397 602.18C371.869 601.82 371.437 601.364 371.101 600.812C370.789 600.26 370.633 599.552 370.633 598.688C370.633 597.872 370.813 597.152 371.173 596.528C371.533 595.904 372.013 595.388 372.613 594.98C373.213 594.572 373.885 594.26 374.629 594.044C375.373 593.828 376.141 593.72 376.933 593.72C378.133 593.72 379.237 593.96 380.245 594.44C381.277 594.92 382.081 595.7 382.657 596.78L380.317 598.328C379.957 597.728 379.477 597.248 378.877 596.888C378.301 596.504 377.593 596.312 376.753 596.312C376.369 596.312 375.973 596.36 375.565 596.456C375.181 596.552 374.833 596.696 374.521 596.888C374.209 597.08 373.945 597.332 373.729 597.644C373.537 597.932 373.441 598.268 373.441 598.652C373.441 599.012 373.549 599.324 373.765 599.588C374.005 599.828 374.317 600.044 374.701 600.236C375.109 600.428 375.565 600.596 376.069 600.74C376.597 600.884 377.137 601.004 377.689 601.1C378.433 601.244 379.141 601.436 379.813 601.676C380.485 601.892 381.073 602.192 381.577 602.576C382.081 602.96 382.477 603.44 382.765 604.016C383.053 604.592 383.197 605.3 383.197 606.14C383.197 607.1 383.005 607.916 382.621 608.588C382.237 609.26 381.721 609.812 381.073 610.244C380.449 610.652 379.729 610.952 378.913 611.144C378.121 611.336 377.305 611.432 376.465 611.432C375.025 611.432 373.777 611.216 372.721 610.784C371.689 610.328 370.753 609.5 369.913 608.3L372.145 606.572ZM387.473 606.572C388.025 607.268 388.625 607.82 389.273 608.228C389.945 608.636 390.785 608.84 391.793 608.84C392.225 608.84 392.657 608.792 393.089 608.696C393.545 608.6 393.953 608.444 394.313 608.228C394.673 608.012 394.961 607.748 395.177 607.436C395.393 607.1 395.501 606.704 395.501 606.248C395.501 605.792 395.393 605.42 395.177 605.132C394.985 604.844 394.721 604.604 394.385 604.412C394.049 604.196 393.665 604.028 393.233 603.908C392.801 603.788 392.357 603.68 391.901 603.584C391.109 603.416 390.353 603.224 389.633 603.008C388.913 602.792 388.277 602.516 387.725 602.18C387.197 601.82 386.765 601.364 386.429 600.812C386.117 600.26 385.961 599.552 385.961 598.688C385.961 597.872 386.141 597.152 386.501 596.528C386.861 595.904 387.341 595.388 387.941 594.98C388.541 594.572 389.213 594.26 389.957 594.044C390.701 593.828 391.469 593.72 392.261 593.72C393.461 593.72 394.565 593.96 395.573 594.44C396.605 594.92 397.409 595.7 397.985 596.78L395.645 598.328C395.285 597.728 394.805 597.248 394.205 596.888C393.629 596.504 392.921 596.312 392.081 596.312C391.697 596.312 391.301 596.36 390.893 596.456C390.509 596.552 390.161 596.696 389.849 596.888C389.537 597.08 389.273 597.332 389.057 597.644C388.865 597.932 388.769 598.268 388.769 598.652C388.769 599.012 388.877 599.324 389.093 599.588C389.333 599.828 389.645 600.044 390.029 600.236C390.437 600.428 390.893 600.596 391.397 600.74C391.925 600.884 392.465 601.004 393.017 601.1C393.761 601.244 394.469 601.436 395.141 601.676C395.813 601.892 396.401 602.192 396.905 602.576C397.409 602.96 397.805 603.44 398.093 604.016C398.381 604.592 398.525 605.3 398.525 606.14C398.525 607.1 398.333 607.916 397.949 608.588C397.565 609.26 397.049 609.812 396.401 610.244C395.777 610.652 395.057 610.952 394.241 611.144C393.449 611.336 392.633 611.432 391.793 611.432C390.353 611.432 389.105 611.216 388.049 610.784C387.017 610.328 386.081 609.5 385.241 608.3L387.473 606.572ZM420.513 611H417.741L412.953 598.04H412.881L408.633 611H405.753L400.281 594.152H403.377L407.229 607.112H407.301L411.657 594.152H414.609L419.037 607.112H419.109L422.925 594.152H425.949L420.513 611ZM428.153 602.576C428.153 601.256 428.381 600.056 428.837 598.976C429.293 597.896 429.917 596.972 430.709 596.204C431.501 595.412 432.449 594.8 433.553 594.368C434.657 593.936 435.857 593.72 437.153 593.72C438.449 593.72 439.649 593.936 440.753 594.368C441.857 594.8 442.805 595.412 443.597 596.204C444.389 596.972 445.013 597.896 445.469 598.976C445.925 600.056 446.153 601.256 446.153 602.576C446.153 603.896 445.925 605.096 445.469 606.176C445.013 607.256 444.389 608.192 443.597 608.984C442.805 609.752 441.857 610.352 440.753 610.784C439.649 611.216 438.449 611.432 437.153 611.432C435.857 611.432 434.657 611.216 433.553 610.784C432.449 610.352 431.501 609.752 430.709 608.984C429.917 608.192 429.293 607.256 428.837 606.176C428.381 605.096 428.153 603.896 428.153 602.576ZM431.177 602.576C431.177 603.464 431.309 604.292 431.573 605.06C431.861 605.804 432.269 606.464 432.797 607.04C433.325 607.592 433.949 608.036 434.669 608.372C435.413 608.684 436.241 608.84 437.153 608.84C438.065 608.84 438.881 608.684 439.601 608.372C440.345 608.036 440.981 607.592 441.509 607.04C442.037 606.464 442.433 605.804 442.697 605.06C442.985 604.292 443.129 603.464 443.129 602.576C443.129 601.688 442.985 600.872 442.697 600.128C442.433 599.36 442.037 598.7 441.509 598.148C440.981 597.572 440.345 597.128 439.601 596.816C438.881 596.48 438.065 596.312 437.153 596.312C436.241 596.312 435.413 596.48 434.669 596.816C433.949 597.128 433.325 597.572 432.797 598.148C432.269 598.7 431.861 599.36 431.573 600.128C431.309 600.872 431.177 601.688 431.177 602.576ZM450.5 598.148C450.5 597.38 450.476 596.66 450.428 595.988C450.38 595.316 450.356 594.704 450.356 594.152H453.02C453.02 594.608 453.032 595.064 453.056 595.52C453.08 595.976 453.092 596.444 453.092 596.924H453.164C453.356 596.516 453.62 596.12 453.956 595.736C454.316 595.352 454.736 595.016 455.216 594.728C455.696 594.416 456.236 594.176 456.836 594.008C457.436 593.816 458.084 593.72 458.78 593.72C458.972 593.72 459.164 593.732 459.356 593.756C459.548 593.78 459.74 593.828 459.932 593.9L459.752 596.744C459.272 596.6 458.768 596.528 458.24 596.528C456.512 596.528 455.252 597.092 454.46 598.22C453.692 599.324 453.308 600.848 453.308 602.792V611H450.5V598.148ZM476.527 608.012H476.455C475.927 608.972 475.087 609.788 473.935 610.46C472.807 611.108 471.487 611.432 469.975 611.432C468.799 611.432 467.695 611.216 466.663 610.784C465.631 610.328 464.731 609.704 463.963 608.912C463.219 608.12 462.631 607.184 462.199 606.104C461.767 605.024 461.551 603.848 461.551 602.576C461.551 601.304 461.767 600.128 462.199 599.048C462.631 597.968 463.231 597.032 463.999 596.24C464.767 595.448 465.691 594.836 466.771 594.404C467.875 593.948 469.087 593.72 470.407 593.72C471.631 593.72 472.747 593.972 473.755 594.476C474.787 594.98 475.687 595.688 476.455 596.6H476.527V583.784H479.335V611H476.527V608.012ZM476.527 602.576C476.527 601.688 476.383 600.872 476.095 600.128C475.831 599.36 475.435 598.7 474.907 598.148C474.379 597.572 473.743 597.128 472.999 596.816C472.279 596.48 471.463 596.312 470.551 596.312C469.639 596.312 468.811 596.48 468.067 596.816C467.347 597.128 466.723 597.572 466.195 598.148C465.667 598.7 465.259 599.36 464.971 600.128C464.707 600.872 464.575 601.688 464.575 602.576C464.575 603.464 464.707 604.292 464.971 605.06C465.259 605.804 465.667 606.464 466.195 607.04C466.723 607.592 467.347 608.036 468.067 608.372C468.811 608.684 469.639 608.84 470.551 608.84C471.463 608.84 472.279 608.684 472.999 608.372C473.743 608.036 474.379 607.592 474.907 607.04C475.435 606.464 475.831 605.804 476.095 605.06C476.383 604.292 476.527 603.464 476.527 602.576ZM486.871 593.72C487.471 593.72 487.975 593.936 488.383 594.368C488.815 594.776 489.031 595.28 489.031 595.88C489.031 596.48 488.803 596.996 488.347 597.428C487.915 597.836 487.423 598.04 486.871 598.04C486.319 598.04 485.815 597.836 485.359 597.428C484.927 596.996 484.711 596.48 484.711 595.88C484.711 595.28 484.915 594.776 485.323 594.368C485.755 593.936 486.271 593.72 486.871 593.72ZM486.871 606.896C487.471 606.896 487.975 607.112 488.383 607.544C488.815 607.952 489.031 608.456 489.031 609.056C489.031 609.656 488.803 610.172 488.347 610.604C487.915 611.012 487.423 611.216 486.871 611.216C486.319 611.216 485.815 611.012 485.359 610.604C484.927 610.172 484.711 609.656 484.711 609.056C484.711 608.456 484.915 607.952 485.323 607.544C485.755 607.112 486.271 606.896 486.871 606.896Z" fill="black"/>
<rect x="522.5" y="459.5" width="395" height="65" fill="white" stroke="black"/>
<rect x="522.5" y="567.5" width="395" height="65" fill="white" stroke="black"/>
<path d="M333.065 340.016H339.113V368.528H353.561V374H333.065V340.016ZM356.276 362.48C356.276 360.656 356.596 359.008 357.236 357.536C357.908 356.032 358.804 354.752 359.924 353.696C361.044 352.64 362.372 351.824 363.908 351.248C365.444 350.672 367.076 350.384 368.804 350.384C370.532 350.384 372.164 350.672 373.7 351.248C375.236 351.824 376.564 352.64 377.684 353.696C378.804 354.752 379.684 356.032 380.324 357.536C380.996 359.008 381.332 360.656 381.332 362.48C381.332 364.304 380.996 365.968 380.324 367.472C379.684 368.944 378.804 370.208 377.684 371.264C376.564 372.32 375.236 373.136 373.7 373.712C372.164 374.288 370.532 374.576 368.804 374.576C367.076 374.576 365.444 374.288 363.908 373.712C362.372 373.136 361.044 372.32 359.924 371.264C358.804 370.208 357.908 368.944 357.236 367.472C356.596 365.968 356.276 364.304 356.276 362.48ZM362.036 362.48C362.036 363.376 362.18 364.24 362.468 365.072C362.788 365.904 363.236 366.64 363.812 367.28C364.42 367.92 365.14 368.432 365.972 368.816C366.804 369.2 367.748 369.392 368.804 369.392C369.86 369.392 370.804 369.2 371.636 368.816C372.468 368.432 373.172 367.92 373.748 367.28C374.356 366.64 374.804 365.904 375.092 365.072C375.412 364.24 375.572 363.376 375.572 362.48C375.572 361.584 375.412 360.72 375.092 359.888C374.804 359.056 374.356 358.32 373.748 357.68C373.172 357.04 372.468 356.528 371.636 356.144C370.804 355.76 369.86 355.568 368.804 355.568C367.748 355.568 366.804 355.76 365.972 356.144C365.14 356.528 364.42 357.04 363.812 357.68C363.236 358.32 362.788 359.056 362.468 359.888C362.18 360.72 362.036 361.584 362.036 362.48ZM410.437 350.96V371.936C410.437 374.016 410.181 375.888 409.669 377.552C409.157 379.248 408.357 380.672 407.269 381.824C406.213 383.008 404.869 383.92 403.237 384.56C401.605 385.2 399.669 385.52 397.429 385.52C395.285 385.52 393.253 385.248 391.333 384.704C389.413 384.16 387.637 383.168 386.005 381.728L389.461 377.024C390.613 378.08 391.813 378.896 393.061 379.472C394.309 380.048 395.749 380.336 397.381 380.336C398.757 380.336 399.909 380.144 400.837 379.76C401.797 379.376 402.549 378.848 403.093 378.176C403.669 377.504 404.069 376.688 404.293 375.728C404.549 374.8 404.677 373.76 404.677 372.608V370.928H404.581C403.749 372.048 402.645 372.896 401.269 373.472C399.893 374.016 398.485 374.288 397.045 374.288C395.317 374.288 393.749 373.984 392.341 373.376C390.933 372.736 389.717 371.888 388.693 370.832C387.701 369.776 386.933 368.528 386.389 367.088C385.845 365.648 385.573 364.112 385.573 362.48C385.573 360.784 385.829 359.2 386.341 357.728C386.853 356.256 387.605 354.976 388.597 353.888C389.589 352.8 390.773 351.952 392.149 351.344C393.557 350.704 395.157 350.384 396.949 350.384C398.581 350.384 400.101 350.704 401.509 351.344C402.917 351.984 404.037 353.008 404.869 354.416H404.965V350.96H410.437ZM398.149 355.568C397.125 355.568 396.197 355.744 395.365 356.096C394.533 356.416 393.813 356.88 393.205 357.488C392.629 358.064 392.165 358.784 391.813 359.648C391.493 360.48 391.333 361.408 391.333 362.432C391.333 363.36 391.493 364.224 391.813 365.024C392.165 365.824 392.645 366.528 393.253 367.136C393.861 367.744 394.581 368.224 395.413 368.576C396.245 368.928 397.141 369.104 398.101 369.104C399.157 369.104 400.101 368.928 400.933 368.576C401.797 368.224 402.517 367.76 403.093 367.184C403.701 366.576 404.165 365.856 404.485 365.024C404.805 364.192 404.965 363.296 404.965 362.336C404.965 360.32 404.357 358.688 403.141 357.44C401.925 356.192 400.261 355.568 398.149 355.568ZM417.055 350.96H422.815V374H417.055V350.96ZM416.239 343.136C416.239 342.208 416.575 341.408 417.247 340.736C417.951 340.032 418.831 339.68 419.887 339.68C420.943 339.68 421.823 340.016 422.527 340.688C423.263 341.328 423.631 342.144 423.631 343.136C423.631 344.128 423.263 344.96 422.527 345.632C421.823 346.272 420.943 346.592 419.887 346.592C418.831 346.592 417.951 346.256 417.247 345.584C416.575 344.88 416.239 344.064 416.239 343.136ZM429.428 350.96H434.9V354.656H434.996C435.54 353.504 436.372 352.512 437.492 351.68C438.612 350.816 440.132 350.384 442.052 350.384C443.588 350.384 444.884 350.64 445.94 351.152C447.028 351.664 447.908 352.336 448.58 353.168C449.252 354 449.732 354.96 450.02 356.048C450.308 357.136 450.452 358.272 450.452 359.456V374H444.692V362.336C444.692 361.696 444.66 360.992 444.596 360.224C444.532 359.424 444.356 358.688 444.068 358.016C443.812 357.312 443.396 356.736 442.82 356.288C442.244 355.808 441.46 355.568 440.468 355.568C439.508 355.568 438.692 355.728 438.02 356.048C437.38 356.368 436.836 356.8 436.388 357.344C435.972 357.888 435.668 358.512 435.476 359.216C435.284 359.92 435.188 360.656 435.188 361.424V374H429.428V350.96Z" fill="black"/>
<path d="M524.573 663.008H535.109V664.88H526.589V670.496H534.509V672.368H526.589V680H524.573V663.008ZM536.925 674.384C536.925 673.504 537.077 672.704 537.381 671.984C537.685 671.264 538.101 670.648 538.629 670.136C539.157 669.608 539.789 669.2 540.525 668.912C541.261 668.624 542.061 668.48 542.925 668.48C543.789 668.48 544.589 668.624 545.325 668.912C546.061 669.2 546.693 669.608 547.221 670.136C547.749 670.648 548.165 671.264 548.469 671.984C548.773 672.704 548.925 673.504 548.925 674.384C548.925 675.264 548.773 676.064 548.469 676.784C548.165 677.504 547.749 678.128 547.221 678.656C546.693 679.168 546.061 679.568 545.325 679.856C544.589 680.144 543.789 680.288 542.925 680.288C542.061 680.288 541.261 680.144 540.525 679.856C539.789 679.568 539.157 679.168 538.629 678.656C538.101 678.128 537.685 677.504 537.381 676.784C537.077 676.064 536.925 675.264 536.925 674.384ZM538.941 674.384C538.941 674.976 539.029 675.528 539.205 676.04C539.397 676.536 539.669 676.976 540.021 677.36C540.373 677.728 540.789 678.024 541.269 678.248C541.765 678.456 542.317 678.56 542.925 678.56C543.533 678.56 544.077 678.456 544.557 678.248C545.053 678.024 545.477 677.728 545.829 677.36C546.181 676.976 546.445 676.536 546.621 676.04C546.813 675.528 546.909 674.976 546.909 674.384C546.909 673.792 546.813 673.248 546.621 672.752C546.445 672.24 546.181 671.8 545.829 671.432C545.477 671.048 545.053 670.752 544.557 670.544C544.077 670.32 543.533 670.208 542.925 670.208C542.317 670.208 541.765 670.32 541.269 670.544C540.789 670.752 540.373 671.048 540.021 671.432C539.669 671.8 539.397 672.24 539.205 672.752C539.029 673.248 538.941 673.792 538.941 674.384ZM551.823 671.432C551.823 670.92 551.807 670.44 551.775 669.992C551.743 669.544 551.727 669.136 551.727 668.768H553.503C553.503 669.072 553.511 669.376 553.527 669.68C553.543 669.984 553.551 670.296 553.551 670.616H553.599C553.727 670.344 553.903 670.08 554.127 669.824C554.367 669.568 554.647 669.344 554.967 669.152C555.287 668.944 555.647 668.784 556.047 668.672C556.447 668.544 556.879 668.48 557.343 668.48C557.471 668.48 557.599 668.488 557.727 668.504C557.855 668.52 557.983 668.552 558.111 668.6L557.991 670.496C557.671 670.4 557.335 670.352 556.983 670.352C555.831 670.352 554.991 670.728 554.463 671.48C553.951 672.216 553.695 673.232 553.695 674.528V680H551.823V671.432ZM571.047 679.496C571.047 681.544 570.519 683.096 569.463 684.152C568.423 685.224 566.911 685.76 564.927 685.76C563.823 685.76 562.823 685.6 561.927 685.28C561.047 684.96 560.207 684.408 559.407 683.624L560.751 682.088C561.343 682.728 561.967 683.208 562.623 683.528C563.295 683.864 564.063 684.032 564.927 684.032C565.759 684.032 566.447 683.904 566.991 683.648C567.551 683.408 567.991 683.072 568.311 682.64C568.631 682.224 568.855 681.744 568.983 681.2C569.111 680.656 569.175 680.088 569.175 679.496V678.056H569.127C568.679 678.776 568.095 679.304 567.375 679.64C566.655 679.976 565.919 680.144 565.167 680.144C564.287 680.144 563.479 680 562.743 679.712C562.007 679.424 561.375 679.024 560.847 678.512C560.319 678 559.911 677.392 559.623 676.688C559.335 675.984 559.191 675.216 559.191 674.384C559.191 673.472 559.335 672.648 559.623 671.912C559.911 671.176 560.311 670.56 560.823 670.064C561.351 669.552 561.983 669.16 562.719 668.888C563.455 668.616 564.271 668.48 565.167 668.48C565.551 668.48 565.935 668.528 566.319 668.624C566.703 668.704 567.071 668.84 567.423 669.032C567.791 669.208 568.119 669.44 568.407 669.728C568.695 670 568.935 670.32 569.127 670.688H569.175V668.768H571.047V679.496ZM561.207 674.384C561.207 674.96 561.311 675.496 561.519 675.992C561.727 676.472 562.007 676.896 562.359 677.264C562.727 677.616 563.151 677.896 563.631 678.104C564.111 678.312 564.623 678.416 565.167 678.416C565.807 678.416 566.375 678.304 566.871 678.08C567.367 677.856 567.783 677.56 568.119 677.192C568.471 676.808 568.735 676.376 568.911 675.896C569.087 675.4 569.175 674.88 569.175 674.336C569.175 673.728 569.079 673.176 568.887 672.68C568.695 672.168 568.423 671.728 568.071 671.36C567.719 670.992 567.295 670.712 566.799 670.52C566.303 670.312 565.759 670.208 565.167 670.208C564.575 670.208 564.031 670.32 563.535 670.544C563.055 670.752 562.639 671.048 562.287 671.432C561.951 671.8 561.687 672.24 561.495 672.752C561.303 673.248 561.207 673.792 561.207 674.384ZM573.862 674.384C573.862 673.504 574.014 672.704 574.318 671.984C574.622 671.264 575.038 670.648 575.566 670.136C576.094 669.608 576.726 669.2 577.462 668.912C578.198 668.624 578.998 668.48 579.862 668.48C580.726 668.48 581.526 668.624 582.262 668.912C582.998 669.2 583.63 669.608 584.158 670.136C584.686 670.648 585.102 671.264 585.406 671.984C585.71 672.704 585.862 673.504 585.862 674.384C585.862 675.264 585.71 676.064 585.406 676.784C585.102 677.504 584.686 678.128 584.158 678.656C583.63 679.168 582.998 679.568 582.262 679.856C581.526 680.144 580.726 680.288 579.862 680.288C578.998 680.288 578.198 680.144 577.462 679.856C576.726 679.568 576.094 679.168 575.566 678.656C575.038 678.128 574.622 677.504 574.318 676.784C574.014 676.064 573.862 675.264 573.862 674.384ZM575.878 674.384C575.878 674.976 575.966 675.528 576.142 676.04C576.334 676.536 576.606 676.976 576.958 677.36C577.31 677.728 577.726 678.024 578.206 678.248C578.702 678.456 579.254 678.56 579.862 678.56C580.47 678.56 581.014 678.456 581.494 678.248C581.99 678.024 582.414 677.728 582.766 677.36C583.118 676.976 583.382 676.536 583.558 676.04C583.75 675.528 583.846 674.976 583.846 674.384C583.846 673.792 583.75 673.248 583.558 672.752C583.382 672.24 583.118 671.8 582.766 671.432C582.414 671.048 581.99 670.752 581.494 670.544C581.014 670.32 580.47 670.208 579.862 670.208C579.254 670.208 578.702 670.32 578.206 670.544C577.726 670.752 577.31 671.048 576.958 671.432C576.606 671.8 576.334 672.24 576.142 672.752C575.966 673.248 575.878 673.792 575.878 674.384ZM594.904 670.352H591.592V675.968C591.592 676.336 591.6 676.68 591.616 677C591.632 677.304 591.696 677.576 591.808 677.816C591.92 678.04 592.088 678.224 592.312 678.368C592.536 678.496 592.856 678.56 593.272 678.56C593.544 678.56 593.824 678.528 594.112 678.464C594.4 678.4 594.672 678.304 594.928 678.176L595 679.88C594.68 680.024 594.32 680.128 593.92 680.192C593.536 680.256 593.168 680.288 592.816 680.288C592.144 680.288 591.608 680.2 591.208 680.024C590.808 679.848 590.496 679.6 590.272 679.28C590.048 678.96 589.896 678.568 589.816 678.104C589.752 677.624 589.72 677.096 589.72 676.52V670.352H587.272V668.768H589.72V665.576H591.592V668.768H594.904V670.352ZM604.214 663.008H609.254C610.038 663.008 610.782 663.088 611.486 663.248C612.206 663.392 612.838 663.648 613.382 664.016C613.942 664.368 614.382 664.848 614.702 665.456C615.038 666.048 615.206 666.784 615.206 667.664C615.206 668.592 615.03 669.36 614.678 669.968C614.326 670.576 613.87 671.056 613.31 671.408C612.766 671.76 612.166 672.008 611.51 672.152C610.854 672.296 610.23 672.368 609.638 672.368H606.23V680H604.214V663.008ZM606.23 670.496H609.638C610.646 670.496 611.462 670.272 612.086 669.824C612.726 669.36 613.046 668.648 613.046 667.688C613.046 666.728 612.726 666.024 612.086 665.576C611.462 665.112 610.646 664.88 609.638 664.88H606.23V670.496ZM617.96 670.208C618.536 669.616 619.216 669.184 620 668.912C620.8 668.624 621.608 668.48 622.424 668.48C624.088 668.48 625.288 668.872 626.024 669.656C626.76 670.44 627.128 671.632 627.128 673.232V678.056C627.128 678.376 627.144 678.712 627.176 679.064C627.208 679.4 627.248 679.712 627.296 680H625.496C625.432 679.744 625.392 679.464 625.376 679.16C625.376 678.84 625.376 678.56 625.376 678.32H625.328C624.96 678.896 624.464 679.368 623.84 679.736C623.232 680.104 622.496 680.288 621.632 680.288C621.056 680.288 620.512 680.216 620 680.072C619.504 679.928 619.064 679.72 618.68 679.448C618.312 679.16 618.016 678.808 617.792 678.392C617.568 677.976 617.456 677.496 617.456 676.952C617.456 676.024 617.696 675.296 618.176 674.768C618.656 674.24 619.248 673.848 619.952 673.592C620.672 673.336 621.44 673.176 622.256 673.112C623.088 673.048 623.848 673.016 624.536 673.016H625.256V672.68C625.256 671.864 625.008 671.248 624.512 670.832C624.032 670.416 623.352 670.208 622.472 670.208C621.864 670.208 621.264 670.312 620.672 670.52C620.096 670.712 619.584 671.016 619.136 671.432L617.96 670.208ZM623.384 674.6C622.184 674.6 621.232 674.768 620.528 675.104C619.824 675.44 619.472 675.992 619.472 676.76C619.472 677.464 619.704 677.968 620.168 678.272C620.648 678.56 621.24 678.704 621.944 678.704C622.488 678.704 622.96 678.616 623.36 678.44C623.776 678.248 624.12 678 624.392 677.696C624.664 677.392 624.872 677.04 625.016 676.64C625.16 676.224 625.24 675.784 625.256 675.32V674.6H623.384ZM630.789 677.048C631.157 677.512 631.557 677.88 631.989 678.152C632.437 678.424 632.997 678.56 633.669 678.56C633.957 678.56 634.245 678.528 634.533 678.464C634.837 678.4 635.109 678.296 635.349 678.152C635.589 678.008 635.781 677.832 635.925 677.624C636.069 677.4 636.141 677.136 636.141 676.832C636.141 676.528 636.069 676.28 635.925 676.088C635.797 675.896 635.621 675.736 635.397 675.608C635.173 675.464 634.917 675.352 634.629 675.272C634.341 675.192 634.045 675.12 633.741 675.056C633.213 674.944 632.709 674.816 632.229 674.672C631.749 674.528 631.325 674.344 630.957 674.12C630.605 673.88 630.317 673.576 630.093 673.208C629.885 672.84 629.781 672.368 629.781 671.792C629.781 671.248 629.901 670.768 630.141 670.352C630.381 669.936 630.701 669.592 631.101 669.32C631.501 669.048 631.949 668.84 632.445 668.696C632.941 668.552 633.453 668.48 633.981 668.48C634.781 668.48 635.517 668.64 636.189 668.96C636.877 669.28 637.413 669.8 637.797 670.52L636.237 671.552C635.997 671.152 635.677 670.832 635.277 670.592C634.893 670.336 634.421 670.208 633.861 670.208C633.605 670.208 633.341 670.24 633.069 670.304C632.813 670.368 632.581 670.464 632.373 670.592C632.165 670.72 631.989 670.888 631.845 671.096C631.717 671.288 631.653 671.512 631.653 671.768C631.653 672.008 631.725 672.216 631.869 672.392C632.029 672.552 632.237 672.696 632.493 672.824C632.765 672.952 633.069 673.064 633.405 673.16C633.757 673.256 634.117 673.336 634.485 673.4C634.981 673.496 635.453 673.624 635.901 673.784C636.349 673.928 636.741 674.128 637.077 674.384C637.413 674.64 637.677 674.96 637.869 675.344C638.061 675.728 638.157 676.2 638.157 676.76C638.157 677.4 638.029 677.944 637.773 678.392C637.517 678.84 637.173 679.208 636.741 679.496C636.325 679.768 635.845 679.968 635.301 680.096C634.773 680.224 634.229 680.288 633.669 680.288C632.709 680.288 631.877 680.144 631.173 679.856C630.485 679.552 629.861 679 629.301 678.2L630.789 677.048ZM641.008 677.048C641.376 677.512 641.776 677.88 642.208 678.152C642.656 678.424 643.216 678.56 643.888 678.56C644.176 678.56 644.464 678.528 644.752 678.464C645.056 678.4 645.328 678.296 645.568 678.152C645.808 678.008 646 677.832 646.144 677.624C646.288 677.4 646.36 677.136 646.36 676.832C646.36 676.528 646.288 676.28 646.144 676.088C646.016 675.896 645.84 675.736 645.616 675.608C645.392 675.464 645.136 675.352 644.848 675.272C644.56 675.192 644.264 675.12 643.96 675.056C643.432 674.944 642.928 674.816 642.448 674.672C641.968 674.528 641.544 674.344 641.176 674.12C640.824 673.88 640.536 673.576 640.312 673.208C640.104 672.84 640 672.368 640 671.792C640 671.248 640.12 670.768 640.36 670.352C640.6 669.936 640.92 669.592 641.32 669.32C641.72 669.048 642.168 668.84 642.664 668.696C643.16 668.552 643.672 668.48 644.2 668.48C645 668.48 645.736 668.64 646.408 668.96C647.096 669.28 647.632 669.8 648.016 670.52L646.456 671.552C646.216 671.152 645.896 670.832 645.496 670.592C645.112 670.336 644.64 670.208 644.08 670.208C643.824 670.208 643.56 670.24 643.288 670.304C643.032 670.368 642.8 670.464 642.592 670.592C642.384 670.72 642.208 670.888 642.064 671.096C641.936 671.288 641.872 671.512 641.872 671.768C641.872 672.008 641.944 672.216 642.088 672.392C642.248 672.552 642.456 672.696 642.712 672.824C642.984 672.952 643.288 673.064 643.624 673.16C643.976 673.256 644.336 673.336 644.704 673.4C645.2 673.496 645.672 673.624 646.12 673.784C646.568 673.928 646.96 674.128 647.296 674.384C647.632 674.64 647.896 674.96 648.088 675.344C648.28 675.728 648.376 676.2 648.376 676.76C648.376 677.4 648.248 677.944 647.992 678.392C647.736 678.84 647.392 679.208 646.96 679.496C646.544 679.768 646.064 679.968 645.52 680.096C644.992 680.224 644.448 680.288 643.888 680.288C642.928 680.288 642.096 680.144 641.392 679.856C640.704 679.552 640.08 679 639.52 678.2L641.008 677.048ZM663.035 680H661.187L657.995 671.36H657.947L655.115 680H653.195L649.547 668.768H651.611L654.179 677.408H654.227L657.131 668.768H659.099L662.051 677.408H662.099L664.643 668.768H666.659L663.035 680ZM668.128 674.384C668.128 673.504 668.28 672.704 668.584 671.984C668.888 671.264 669.304 670.648 669.832 670.136C670.36 669.608 670.992 669.2 671.728 668.912C672.464 668.624 673.264 668.48 674.128 668.48C674.992 668.48 675.792 668.624 676.528 668.912C677.264 669.2 677.896 669.608 678.424 670.136C678.952 670.648 679.368 671.264 679.672 671.984C679.976 672.704 680.128 673.504 680.128 674.384C680.128 675.264 679.976 676.064 679.672 676.784C679.368 677.504 678.952 678.128 678.424 678.656C677.896 679.168 677.264 679.568 676.528 679.856C675.792 680.144 674.992 680.288 674.128 680.288C673.264 680.288 672.464 680.144 671.728 679.856C670.992 679.568 670.36 679.168 669.832 678.656C669.304 678.128 668.888 677.504 668.584 676.784C668.28 676.064 668.128 675.264 668.128 674.384ZM670.144 674.384C670.144 674.976 670.232 675.528 670.408 676.04C670.6 676.536 670.872 676.976 671.224 677.36C671.576 677.728 671.992 678.024 672.472 678.248C672.968 678.456 673.52 678.56 674.128 678.56C674.736 678.56 675.28 678.456 675.76 678.248C676.256 678.024 676.68 677.728 677.032 677.36C677.384 676.976 677.648 676.536 677.824 676.04C678.016 675.528 678.112 674.976 678.112 674.384C678.112 673.792 678.016 673.248 677.824 672.752C677.648 672.24 677.384 671.8 677.032 671.432C676.68 671.048 676.256 670.752 675.76 670.544C675.28 670.32 674.736 670.208 674.128 670.208C673.52 670.208 672.968 670.32 672.472 670.544C671.992 670.752 671.576 671.048 671.224 671.432C670.872 671.8 670.6 672.24 670.408 672.752C670.232 673.248 670.144 673.792 670.144 674.384ZM683.026 671.432C683.026 670.92 683.01 670.44 682.978 669.992C682.946 669.544 682.93 669.136 682.93 668.768H684.706C684.706 669.072 684.714 669.376 684.73 669.68C684.746 669.984 684.754 670.296 684.754 670.616H684.802C684.93 670.344 685.106 670.08 685.33 669.824C685.57 669.568 685.85 669.344 686.17 669.152C686.49 668.944 686.85 668.784 687.25 668.672C687.65 668.544 688.082 668.48 688.546 668.48C688.674 668.48 688.802 668.488 688.93 668.504C689.058 668.52 689.186 668.552 689.314 668.6L689.194 670.496C688.874 670.4 688.538 670.352 688.186 670.352C687.034 670.352 686.194 670.728 685.666 671.48C685.154 672.216 684.898 673.232 684.898 674.528V680H683.026V671.432ZM700.378 678.008H700.33C699.978 678.648 699.418 679.192 698.65 679.64C697.898 680.072 697.018 680.288 696.01 680.288C695.226 680.288 694.49 680.144 693.802 679.856C693.114 679.552 692.514 679.136 692.002 678.608C691.506 678.08 691.114 677.456 690.826 676.736C690.538 676.016 690.394 675.232 690.394 674.384C690.394 673.536 690.538 672.752 690.826 672.032C691.114 671.312 691.514 670.688 692.026 670.16C692.538 669.632 693.154 669.224 693.874 668.936C694.61 668.632 695.418 668.48 696.298 668.48C697.114 668.48 697.858 668.648 698.53 668.984C699.218 669.32 699.818 669.792 700.33 670.4H700.378V661.856H702.25V680H700.378V678.008ZM700.378 674.384C700.378 673.792 700.282 673.248 700.09 672.752C699.914 672.24 699.65 671.8 699.298 671.432C698.946 671.048 698.522 670.752 698.026 670.544C697.546 670.32 697.002 670.208 696.394 670.208C695.786 670.208 695.234 670.32 694.738 670.544C694.258 670.752 693.842 671.048 693.49 671.432C693.138 671.8 692.866 672.24 692.674 672.752C692.498 673.248 692.41 673.792 692.41 674.384C692.41 674.976 692.498 675.528 692.674 676.04C692.866 676.536 693.138 676.976 693.49 677.36C693.842 677.728 694.258 678.024 694.738 678.248C695.234 678.456 695.786 678.56 696.394 678.56C697.002 678.56 697.546 678.456 698.026 678.248C698.522 678.024 698.946 677.728 699.298 677.36C699.65 676.976 699.914 676.536 700.09 676.04C700.282 675.528 700.378 674.976 700.378 674.384ZM708.497 673.736C708.497 673.288 708.521 672.92 708.569 672.632C708.633 672.344 708.729 672.088 708.857 671.864C708.985 671.624 709.153 671.392 709.361 671.168C709.569 670.944 709.833 670.672 710.153 670.352C710.393 670.096 710.633 669.848 710.873 669.608C711.129 669.352 711.353 669.088 711.545 668.816C711.753 668.544 711.921 668.256 712.049 667.952C712.177 667.648 712.241 667.304 712.241 666.92C712.241 666.152 712.017 665.528 711.569 665.048C711.121 664.552 710.497 664.304 709.697 664.304C708.881 664.304 708.217 664.544 707.705 665.024C707.209 665.504 706.897 666.136 706.769 666.92L704.609 666.68C704.721 666.024 704.921 665.44 705.209 664.928C705.513 664.416 705.889 663.992 706.337 663.656C706.785 663.304 707.297 663.04 707.873 662.864C708.449 662.672 709.065 662.576 709.721 662.576C710.377 662.576 710.985 662.672 711.545 662.864C712.121 663.04 712.617 663.312 713.033 663.68C713.465 664.032 713.801 664.48 714.041 665.024C714.281 665.552 714.401 666.16 714.401 666.848C714.401 667.376 714.321 667.856 714.161 668.288C714.017 668.704 713.817 669.096 713.561 669.464C713.321 669.816 713.033 670.16 712.697 670.496C712.361 670.816 712.017 671.144 711.665 671.48C711.409 671.72 711.201 671.928 711.041 672.104C710.897 672.28 710.785 672.464 710.705 672.656C710.625 672.848 710.569 673.064 710.537 673.304C710.521 673.528 710.513 673.808 710.513 674.144V675.248H708.497V673.736ZM709.505 677.264C709.905 677.264 710.241 677.408 710.513 677.696C710.801 677.968 710.945 678.304 710.945 678.704C710.945 679.104 710.793 679.448 710.489 679.736C710.201 680.008 709.873 680.144 709.505 680.144C709.137 680.144 708.801 680.008 708.497 679.736C708.209 679.448 708.065 679.104 708.065 678.704C708.065 678.304 708.201 677.968 708.473 677.696C708.761 677.408 709.105 677.264 709.505 677.264Z" fill="black"/>
<rect x="548" y="756" width="305" height="73" rx="15" fill="#C4C4C4"/>
<path d="M636.339 798.672C636.963 799.608 637.755 800.304 638.715 800.76C639.699 801.192 640.707 801.408 641.739 801.408C642.315 801.408 642.903 801.324 643.503 801.156C644.103 800.964 644.643 800.688 645.123 800.328C645.627 799.968 646.035 799.524 646.347 798.996C646.659 798.468 646.815 797.856 646.815 797.16C646.815 796.176 646.503 795.432 645.879 794.928C645.255 794.4 644.475 793.968 643.539 793.632C642.627 793.272 641.619 792.936 640.515 792.624C639.435 792.288 638.427 791.832 637.491 791.256C636.579 790.68 635.811 789.912 635.187 788.952C634.563 787.968 634.251 786.648 634.251 784.992C634.251 784.248 634.407 783.456 634.719 782.616C635.055 781.776 635.571 781.008 636.267 780.312C636.963 779.616 637.851 779.04 638.931 778.584C640.035 778.104 641.355 777.864 642.891 777.864C644.283 777.864 645.615 778.056 646.887 778.44C648.159 778.824 649.275 779.604 650.235 780.78L647.427 783.336C646.995 782.664 646.383 782.124 645.591 781.716C644.799 781.308 643.899 781.104 642.891 781.104C641.931 781.104 641.127 781.236 640.479 781.5C639.855 781.74 639.351 782.064 638.967 782.472C638.583 782.856 638.307 783.276 638.139 783.732C637.995 784.188 637.923 784.608 637.923 784.992C637.923 786.072 638.235 786.9 638.859 787.476C639.483 788.052 640.251 788.52 641.163 788.88C642.099 789.24 643.107 789.564 644.187 789.852C645.291 790.14 646.299 790.548 647.211 791.076C648.147 791.58 648.927 792.276 649.551 793.164C650.175 794.028 650.487 795.228 650.487 796.764C650.487 797.988 650.247 799.092 649.767 800.076C649.311 801.06 648.687 801.888 647.895 802.56C647.103 803.232 646.167 803.748 645.087 804.108C644.007 804.468 642.855 804.648 641.631 804.648C639.999 804.648 638.451 804.36 636.987 803.784C635.523 803.208 634.359 802.32 633.495 801.12L636.339 798.672ZM655.587 778.512H659.043V804H655.587V778.512ZM687.314 789.744V802.308C686.69 802.692 685.982 803.028 685.19 803.316C684.398 803.604 683.57 803.844 682.706 804.036C681.866 804.252 681.002 804.408 680.114 804.504C679.25 804.6 678.434 804.648 677.666 804.648C675.506 804.648 673.574 804.288 671.87 803.568C670.19 802.848 668.762 801.876 667.586 800.652C666.434 799.428 665.546 798.012 664.922 796.404C664.322 794.772 664.022 793.056 664.022 791.256C664.022 789.36 664.346 787.596 664.994 785.964C665.666 784.332 666.578 782.916 667.73 781.716C668.906 780.516 670.31 779.58 671.942 778.908C673.574 778.212 675.362 777.864 677.306 777.864C679.658 777.864 681.578 778.164 683.066 778.764C684.554 779.34 685.802 780.144 686.81 781.176L684.362 783.804C683.306 782.796 682.19 782.1 681.014 781.716C679.838 781.308 678.602 781.104 677.306 781.104C675.842 781.104 674.522 781.38 673.346 781.932C672.17 782.46 671.162 783.18 670.322 784.092C669.482 785.004 668.834 786.084 668.378 787.332C667.922 788.556 667.694 789.864 667.694 791.256C667.694 792.696 667.946 794.04 668.45 795.288C668.954 796.512 669.65 797.58 670.538 798.492C671.426 799.404 672.47 800.124 673.67 800.652C674.87 801.156 676.178 801.408 677.594 801.408C678.818 801.408 679.97 801.3 681.05 801.084C682.154 800.844 683.09 800.508 683.858 800.076V792.984H678.206V789.744H687.314ZM693.626 778.512H698.162L712.202 799.464H712.274V778.512H715.73V804H711.338L697.154 783.048H697.082V804H693.626V778.512ZM732.297 778.512H735.753V804H732.297V778.512ZM742.317 778.512H746.853L760.893 799.464H760.965V778.512H764.421V804H760.029L745.845 783.048H745.773V804H742.317V778.512Z" fill="black"/>
</svg>
