<?xml version="1.0" encoding="utf-8"?>
<!-- Generator: Adobe Illustrator 24.1.0, SVG Export Plug-In . SVG Version: 6.00 Build 0)  -->
<svg version="1.1" xmlns="http://www.w3.org/2000/svg" xmlns:xlink="http://www.w3.org/1999/xlink" x="0px" y="0px"
	 viewBox="0 0 276.95 271.57" style="enable-background:new 0 0 276.95 271.57;" xml:space="preserve">
<style type="text/css">
	.st0{fill:none;stroke:#000000;stroke-width:1.8745;stroke-miterlimit:10;}
	.st1{display:none;fill:none;stroke:#000000;stroke-width:2;stroke-miterlimit:10;}
	.st2{stroke:#000000;stroke-width:2;stroke-miterlimit:10;}
	.st3{display:none;fill:#FFFFFF;stroke:#000000;stroke-width:0.7482;stroke-miterlimit:10;}
	.st4{fill:#FCEE21;}
	.st5{display:none;fill:none;stroke:#000000;stroke-width:1.9973;stroke-miterlimit:10;}
	.st6{fill:none;stroke:#00A651;stroke-width:1.9973;stroke-miterlimit:10;}
	.st7{fill:none;stroke:#00A651;stroke-width:1.6504;stroke-miterlimit:10;}
	.st8{display:none;fill:none;stroke:#00A651;stroke-width:1.9973;stroke-miterlimit:10;}
	.st9{fill:#00A651;}
	.st10{display:none;fill:#00A651;}
	.st11{display:none;fill:none;stroke:#00A651;stroke-miterlimit:10;}
	.st12{fill:none;stroke:#000000;stroke-miterlimit:10;}
	.st13{fill:none;stroke:#000000;stroke-width:1.0597;stroke-miterlimit:10;}
	.st14{fill:none;stroke:#000000;stroke-width:0.8285;stroke-miterlimit:10;}
	.st15{fill:none;stroke:#000000;stroke-width:0.8829;stroke-miterlimit:10;}
	.st16{fill:none;stroke:#000000;stroke-width:0.8203;stroke-miterlimit:10;}
	.st17{display:none;fill:none;stroke:#000000;stroke-miterlimit:10;}
	.st18{fill:none;stroke:#000000;stroke-width:0.9339;stroke-miterlimit:10;}
	.st19{display:none;fill:none;stroke:#000000;stroke-width:0.9339;stroke-miterlimit:10;}
	.st20{fill:none;stroke:#000000;stroke-width:0.75;stroke-miterlimit:10;}
	.st21{display:none;fill:none;stroke:#000000;stroke-width:0.25;stroke-miterlimit:10;}
	.st22{stroke:#000000;stroke-miterlimit:10;}
	.st23{fill:#FFFFFF;stroke:#000000;stroke-width:1.1821;stroke-miterlimit:10;}
	.st24{display:none;fill:#FFFFFF;stroke:#000000;stroke-width:1.0855;stroke-miterlimit:10;}
	.st25{fill:#FFFFFF;stroke:#000000;stroke-width:1.1643;stroke-miterlimit:10;}
	.st26{stroke:#000000;stroke-width:1.5186;stroke-miterlimit:10;}
	.st27{fill:none;stroke:#000000;stroke-width:2.445;stroke-miterlimit:10;}
	.st28{fill:#FFFFFF;stroke:#000000;stroke-miterlimit:10;}
	.st29{fill:#EC008C;}
	.st30{fill:#FBB040;}
	.st31{fill:#F9ED32;}
	.st32{fill:#7A9FBF;}
	.st33{fill:#F1BA52;}
	.st34{fill:#F1AA6B;}
	.st35{fill:#F2784B;}
	.st36{fill:#C05050;}
	.st37{fill:#F8A17D;}
	.st38{fill:#FAF4A2;}
	.st39{fill:#FFFFFF;}
	.st40{fill:#E8A1C7;}
</style>
<g id="Layer_1">
</g>
<g id="Layer_2">
	<g>
		<g>
			<path class="st36" d="M154.62,197.11c-36.76-0.64-65.72-32.83-61.44-70.26c3.74-32.72,32.86-57.2,65.75-55.54
				c3.95,0.2,7.88,0.77,11.72,1.7c1.94,0.47,3.86,1.04,5.75,1.7c1.2,0.42,3.8,0.7,4.3,2.1c0.42,1.19-0.69,2.41-1.26,3.35
				c-0.77,1.28-1.28,2.73-1.88,4.09c-0.48,1.09-0.61,2.46-1.37,3.43c-1.12,1.42-2.75-0.24-4.01-0.68
				c-5.1-1.78-10.47-2.71-15.87-2.77c-25.47-0.31-47.5,19.1-50.25,44.42c-3.22,29.59,19.71,54.97,48.79,55.48
				c5.41,0.09,10.83-0.67,15.98-2.31c4.77-1.51,9.06-4.29,13.42-6.68c0.15-0.08,0.32-0.17,0.49-0.15c0.21,0.03,0.36,0.2,0.5,0.36
				c1.56,1.83,2.92,3.8,4.38,5.7c0.83,1.08,2.8,2.91,2.63,4.42c-0.22,1.95-7.5,4.42-9.06,5.15c-2.62,1.21-5.3,2.59-8.05,3.48
				C168.52,196.22,161.56,197.23,154.62,197.11z"/>
			<path class="st36" d="M78.73,183.26l-0.35-0.49c-0.48-0.68-0.32-1.62,0.36-2.1l14.11-9.99c0.68-0.48,1.62-0.32,2.1,0.36
				l0.35,0.49c0.48,0.68,0.32,1.62-0.36,2.1l-14.11,9.99C80.14,184.1,79.21,183.94,78.73,183.26z"/>
			<path class="st36" d="M84.86,78l0.32-0.5c0.45-0.7,1.38-0.9,2.08-0.45l14.52,9.38c0.7,0.45,0.9,1.38,0.45,2.08l-0.32,0.5
				c-0.45,0.7-1.38,0.9-2.08,0.45l-14.52-9.38C84.61,79.63,84.41,78.7,84.86,78z"/>
			<path class="st36" d="M129.9,49.93l0.55-0.23c0.77-0.32,1.65,0.05,1.96,0.82l6.58,15.98c0.32,0.77-0.05,1.65-0.82,1.96
				l-0.55,0.23c-0.77,0.32-1.65-0.05-1.96-0.82l-6.58-15.98C128.77,51.13,129.13,50.25,129.9,49.93z"/>
			<path class="st36" d="M186.21,49.74L186.21,49.74c0.93,0.36,1.39,1.41,1.03,2.33l-6.05,15.55c-0.36,0.93-1.41,1.39-2.33,1.03l0,0
				c-0.93-0.36-1.39-1.41-1.03-2.33l6.05-15.55C184.24,49.84,185.28,49.38,186.21,49.74z"/>
			<path class="st36" d="M173.3,163.24c-0.49-0.77-1.33-0.75-2.3-0.78c-0.62-0.02-1.41,0.05-2.02,0.08
				c-0.73,0.04-1.46,0.07-2.19,0.11c-2.2,0.11-4.41,0.21-6.61,0.32c-2.57,0.12-5.13,0.25-7.7,0.37c-2.18,0.1-4.35,0.21-6.53,0.31
				c-1.04,0.05-1.52,0.07-2.59,0.12l26.91-69.4c0.36-0.93-0.41-2.3-1.34-2.66c-0.93-0.36-2.4,0.02-2.76,0.95l-27.59,72.04
				c-0.15,0.38-0.13,0.77-0.03,1.13c0,0.07-0.04,0.14-0.03,0.21c0.05,1.13,1.01,2,2.14,1.94c0.66-0.03,1.32-0.06,1.99-0.1
				c1.67-0.08,3.33-0.16,5-0.24c2.2-0.11,4.4-0.21,6.59-0.32c2.25-0.11,4.51-0.22,6.76-0.32c1.76-0.1,3.52-0.22,5.28-0.31
				c1.2-0.06,2.6-0.05,3.77-0.01c1.17,0.04,2.62,0.19,3.28-1.15C173.75,164.73,173.94,164.24,173.3,163.24z"/>
			<path class="st36" d="M127.82,197.85L127.82,197.85c0.93,0.36,1.39,1.41,1.03,2.33l-6.05,15.55c-0.36,0.93-1.41,1.39-2.33,1.03
				l0,0c-0.93-0.36-1.39-1.41-1.03-2.33l6.05-15.55C125.85,197.94,126.89,197.49,127.82,197.85z"/>
			<path class="st36" d="M187.87,218.39l-0.55,0.23c-0.77,0.32-1.65-0.05-1.96-0.82l-6.58-15.98c-0.32-0.77,0.05-1.65,0.82-1.96
				l0.55-0.23c0.77-0.32,1.65,0.05,1.96,0.82l6.58,15.98C189.01,217.19,188.64,218.07,187.87,218.39z"/>
			<path class="st36" d="M65.27,132.66v-0.6c0-0.83,0.67-1.5,1.5-1.5h17.28c0.83,0,1.5,0.67,1.5,1.5v0.6c0,0.83-0.67,1.5-1.5,1.5
				H66.77C65.94,134.16,65.27,133.49,65.27,132.66z"/>
		</g>
		<g>
			<path class="st39" d="M148.78,192c-36.76-0.64-65.72-32.83-61.44-70.26c3.74-32.72,32.86-57.2,65.75-55.54
				c3.95,0.2,7.88,0.77,11.72,1.7c1.94,0.47,3.86,1.04,5.75,1.7c1.2,0.42,3.8,0.7,4.3,2.1c0.42,1.19-0.69,2.41-1.26,3.35
				c-0.77,1.28-1.28,2.73-1.88,4.09c-0.48,1.09-0.61,2.46-1.37,3.43c-1.12,1.42-2.75-0.24-4.01-0.68
				c-5.1-1.78-10.47-2.71-15.87-2.77c-25.47-0.31-47.5,19.1-50.25,44.42C96.99,153.11,119.92,178.5,149,179
				c5.41,0.09,10.83-0.67,15.98-2.31c4.77-1.51,9.06-4.29,13.42-6.68c0.15-0.08,0.32-0.17,0.49-0.15c0.21,0.03,0.36,0.2,0.5,0.36
				c1.56,1.83,2.92,3.8,4.38,5.7c0.83,1.08,2.8,2.91,2.63,4.42c-0.22,1.95-7.5,4.42-9.06,5.15c-2.62,1.21-5.3,2.59-8.05,3.48
				C162.68,191.11,155.72,192.12,148.78,192z"/>
			<path class="st39" d="M72.89,178.14l-0.35-0.49c-0.48-0.68-0.32-1.62,0.36-2.1l14.11-9.99c0.68-0.48,1.62-0.32,2.1,0.36
				l0.35,0.49c0.48,0.68,0.32,1.62-0.36,2.1l-14.11,9.99C74.31,178.98,73.37,178.82,72.89,178.14z"/>
			<path class="st39" d="M79.03,72.88l0.32-0.5c0.45-0.7,1.38-0.9,2.08-0.45l14.52,9.38c0.7,0.45,0.9,1.38,0.45,2.08l-0.32,0.5
				c-0.45,0.7-1.38,0.9-2.08,0.45l-14.52-9.38C78.78,74.51,78.58,73.58,79.03,72.88z"/>
			<path class="st39" d="M124.06,44.81l0.55-0.23c0.77-0.32,1.65,0.05,1.96,0.82l6.58,15.98c0.32,0.77-0.05,1.65-0.82,1.96
				l-0.55,0.23c-0.77,0.32-1.65-0.05-1.96-0.82l-6.58-15.98C122.93,46.01,123.29,45.13,124.06,44.81z"/>
			<path class="st39" d="M180.37,44.63L180.37,44.63c0.93,0.36,1.39,1.41,1.03,2.33l-6.05,15.55c-0.36,0.93-1.41,1.39-2.33,1.03v0
				c-0.93-0.36-1.39-1.41-1.03-2.33l6.05-15.55C178.4,44.73,179.44,44.27,180.37,44.63z"/>
			<path class="st39" d="M167.46,158.12c-0.49-0.77-1.33-0.75-2.3-0.78c-0.62-0.02-1.41,0.05-2.02,0.08
				c-0.73,0.04-1.46,0.07-2.19,0.11c-2.2,0.11-4.41,0.21-6.61,0.32c-2.57,0.12-5.13,0.25-7.7,0.37c-2.18,0.1-4.35,0.21-6.53,0.31
				c-1.04,0.05-1.52,0.07-2.59,0.12l26.91-69.4c0.36-0.93-0.41-2.3-1.33-2.66c-0.93-0.36-2.4,0.02-2.76,0.95l-27.59,72.04
				c-0.15,0.38-0.13,0.77-0.03,1.13c0,0.07-0.04,0.14-0.03,0.21c0.05,1.13,1.01,2,2.14,1.94c0.66-0.03,1.32-0.06,1.99-0.1
				c1.67-0.08,3.33-0.16,5-0.24c2.2-0.11,4.4-0.21,6.59-0.32c2.25-0.11,4.51-0.22,6.76-0.32c1.76-0.1,3.52-0.22,5.28-0.31
				c1.2-0.06,2.6-0.05,3.77-0.01c1.17,0.04,2.62,0.19,3.28-1.15C167.91,159.61,168.1,159.13,167.46,158.12z"/>
			<path class="st39" d="M121.98,192.73L121.98,192.73c0.93,0.36,1.39,1.41,1.03,2.33l-6.05,15.55c-0.36,0.93-1.41,1.39-2.33,1.03h0
				c-0.93-0.36-1.39-1.41-1.03-2.33l6.05-15.55C120.01,192.83,121.05,192.37,121.98,192.73z"/>
			<path class="st39" d="M182.04,213.27l-0.55,0.23c-0.77,0.32-1.65-0.05-1.96-0.82l-6.58-15.98c-0.32-0.77,0.05-1.65,0.82-1.96
				l0.55-0.23c0.77-0.32,1.65,0.05,1.96,0.82l6.58,15.98C183.17,212.08,182.8,212.96,182.04,213.27z"/>
			<path class="st39" d="M59.43,127.54v-0.6c0-0.83,0.67-1.5,1.5-1.5h17.28c0.83,0,1.5,0.67,1.5,1.5v0.6c0,0.83-0.67,1.5-1.5,1.5
				H60.94C60.11,129.05,59.43,128.37,59.43,127.54z"/>
		</g>
	</g>
</g>
</svg>
