<?xml version="1.0" encoding="utf-8"?>
<!-- Generator: Adobe Illustrator 24.1.0, SVG Export Plug-In . SVG Version: 6.00 Build 0)  -->
<svg version="1.1" id="Layer_1" xmlns="http://www.w3.org/2000/svg" xmlns:xlink="http://www.w3.org/1999/xlink" x="0px" y="0px"
	 viewBox="0 0 597.6 633.6" style="enable-background:new 0 0 597.6 633.6;" xml:space="preserve">
<style type="text/css">
	.st0{fill:#F0A160;}
</style>
<g>
	<path class="st0" d="M107.3,465c2.2-12.2,9.9-20.7,18.4-29.1c21.6-21.2,42.9-42.8,64.4-64.2c8.2-8.2,8.8-8.2,17.7-1.3
		c7.6-7.6,15.2-15.1,23-23c-0.4-0.6-0.9-1.6-1.4-2.5C178,265.6,215.9,160,306.1,131.7c9.6-3,19.7-4,29.6-5.9c1-0.2,1.9-0.4,2.9-0.6
		c6.5,0,13,0,19.5,0c7.6,1.3,15.3,2.1,22.8,3.8c54.7,12.3,98.3,58.6,107.5,113.9C501,318.8,452.9,390.4,378,406.3
		c-38.2,8.1-74,1.2-107-19.8c-0.9-0.6-1.9-1.1-2.6-1.6c-7.7,7.7-15.3,15.3-23,23.1c0-0.2-0.1,0.1,0.1,0.3c6.6,7.5,6.6,9.4-0.4,16.4
		c-23.8,23.8-47.6,47.7-71.4,71.4c-15.7,15.7-38.4,16.4-54.1,1.9c-5.9-5.5-9.7-12.3-11.4-20.2c-0.2-0.8-0.5-1.6-0.8-2.4
		C107.3,472,107.3,468.5,107.3,465z M348.5,140.1c-70-0.1-127.1,56.8-127.4,126.8c-0.3,70,56.9,127.5,127,127.6
		c70,0.1,127.1-56.8,127.4-126.9C475.8,197.6,418.7,140.2,348.5,140.1z M198.6,383.8c-0.8,1-1.6,2.2-2.6,3.1
		c-21.6,21.6-43.2,43.2-64.8,64.9c-1,1-1.9,1.9-2.9,3c-8.6,9.6-8,23.9,1.5,32.6c9.4,8.7,23.2,8.2,32.9-1.5
		c22.5-22.5,45-45,67.5-67.5c0.6-0.6,1.1-1.3,1.3-1.6C220.6,405.8,209.9,395,198.6,383.8z M240,360.7c-6.8,6.8-13.9,13.9-20.8,20.7
		c4.9,5,10,10.1,15,15.1c7-7,14.1-14.1,20.8-20.8C250.2,370.8,245,365.7,240,360.7z"/>
	<path class="st0" d="M349.3,160c58.6-0.1,106.4,47.6,106.4,106.2c-0.1,58.6-47.5,106-106.1,106.2c-58.7,0.1-106.4-47.5-106.3-106.2
		C243.3,207.6,290.7,160.2,349.3,160z M349.4,175c-50.3,0-91.1,40.7-91.2,91.1c-0.1,50.4,40.8,91.4,91.3,91.4
		c50.3-0.1,91-40.7,91.2-91.1C440.9,216,399.8,174.9,349.4,175z"/>
	<path class="st0" d="M342.1,286.4c-0.8-14.5,4.9-24.7,16.7-31.9c7.7-4.7,10.6-13.3,7.8-21.4c-2.8-8-10.5-12.9-19-12.1
		c-8.3,0.8-14.9,7.3-16.2,16.1c-0.1,0.4-0.1,0.7-0.1,1.1c-0.6,5.8-3.7,8.7-8.4,8.2c-4.4-0.5-6.9-4.3-6.4-9.7
		c1.7-17.7,15.7-30.7,33.1-30.7c17.2,0,31.4,13,32.8,30.6c1,12.8-4.1,23.3-15.1,30.2c-7.5,4.7-11.1,10.7-10.4,19.5
		c0.2,2.3,0.1,4.7-0.1,7.1c-0.4,4.2-3.6,7-7.4,6.9c-3.9-0.1-6.9-3-7.2-7.1C341.9,290.6,342.1,288.1,342.1,286.4z"/>
	<path class="st0" d="M356.9,321.9c0,4.1-3.3,7.4-7.3,7.5c-4.1,0.1-7.6-3.4-7.5-7.6c0.1-4.1,3.3-7.3,7.4-7.3
		C353.6,314.6,356.8,317.8,356.9,321.9z"/>
</g>
</svg>
