<?xml version="1.0" encoding="utf-8"?>
<!-- Generator: Adobe Illustrator 24.1.0, SVG Export Plug-In . SVG Version: 6.00 Build 0)  -->
<svg version="1.1" id="Capa_1" xmlns="http://www.w3.org/2000/svg" xmlns:xlink="http://www.w3.org/1999/xlink" x="0px" y="0px"
	 viewBox="0 0 512 512" style="enable-background:new 0 0 512 512;" xml:space="preserve">
<style type="text/css">
	.st0{fill:#6D95B7;}
	.st1{fill:#FEFEFE;}
	.st2{fill:none;stroke:#F0A160;stroke-width:17.7633;stroke-miterlimit:10;}
	.st3{fill:#F0A160;}
	.st4{fill:none;stroke:#F0A160;stroke-width:17.3377;stroke-miterlimit:10;}
	.st5{fill:none;stroke:#F0A160;stroke-width:17.9052;stroke-miterlimit:10;}
	.st6{fill:none;stroke:#F0A160;stroke-width:13.9263;stroke-miterlimit:10;}
	.st7{fill:#3B3B3B;}
</style>
<g>
	<path class="st2" d="M408.4,454.3H103.6c-11.2,0-20.2-9.1-20.2-20.2V85.2c0-11.2,9.1-20.2,20.2-20.2h304.9
		c11.2,0,20.2,9.1,20.2,20.2v348.9C428.7,445.3,419.6,454.3,408.4,454.3z"/>
	<path class="st3" d="M371.5,258.4H132.8c-5.9,0-10.7-4.8-10.7-10.7v0c0-5.9,4.8-10.7,10.7-10.7h238.6c5.9,0,10.7,4.8,10.7,10.7v0
		C382.2,253.6,377.4,258.4,371.5,258.4z"/>
	<path class="st3" d="M371.5,309H132.8c-5.9,0-10.7-4.8-10.7-10.7v0c0-5.9,4.8-10.7,10.7-10.7h238.6c5.9,0,10.7,4.8,10.7,10.7v0
		C382.2,304.2,377.4,309,371.5,309z"/>
	<path class="st3" d="M371.5,359.6H132.8c-5.9,0-10.7-4.8-10.7-10.7v0c0-5.9,4.8-10.7,10.7-10.7h238.6c5.9,0,10.7,4.8,10.7,10.7v0
		C382.2,354.8,377.4,359.6,371.5,359.6z"/>
	<path class="st3" d="M227,410.2h-94c-5.9,0-10.7-4.8-10.7-10.7v0c0-5.9,4.8-10.7,10.7-10.7h94c5.9,0,10.7,4.8,10.7,10.7v0
		C237.7,405.4,232.9,410.2,227,410.2z"/>
	<g>
		<path class="st4" d="M219.1,187.3c0-22.9-18.6-40.6-41.7-41c-0.5,0-1.1,0.1-1.6,0.1c-0.4,0-0.8,0-1.1,0
			c-22.2,1-39.8,18.6-40.3,40.7c0,0.4,0.4,0.8,0.8,0.8l1,0c0,0,64.5,0.3,82.9,0C219.2,187.8,219.1,187.3,219.1,187.3z"/>
		<path class="st4" d="M177.4,146.3c12.1-0.8,21.7-10.8,21.7-23c0-12.8-10.5-23.1-23.4-23.1c-12.9,0-23.4,10.3-23.4,23.1
			c0,12.4,9.8,22.5,22.2,23.1c0.7,0,1.4-0.1,2.1-0.1C176.9,146.3,177.2,146.3,177.4,146.3z"/>
	</g>
	<path class="st5" d="M423.5,136.3c0,2.9-2.4,5.3-5.3,5.3h-61.5c-2.9,0-5.3-2.4-5.3-5.3V75.6c0-2.9,2.4-5.3,5.3-5.3L423.5,136.3z"/>
	<line class="st6" x1="353.2" y1="71.8" x2="424.6" y2="142.7"/>
</g>
</svg>
