<?xml version="1.0" encoding="utf-8"?>
<!-- Generator: Adobe Illustrator 24.1.0, SVG Export Plug-In . SVG Version: 6.00 Build 0)  -->
<svg version="1.1" id="Layer_1" xmlns="http://www.w3.org/2000/svg" xmlns:xlink="http://www.w3.org/1999/xlink" x="0px" y="0px"
	 viewBox="0 0 597.6 633.6" style="enable-background:new 0 0 597.6 633.6;" xml:space="preserve">
<style type="text/css">
	.st0{fill:#F0A160;}
</style>
<g>
	<path class="st0" d="M442.5,123.1c6.4,2.1,13.1,3.4,19,6.3c22,11.1,33.1,36.1,27.4,60.3c-5.6,23.6-27.2,41-51.6,41.1
		c-48.4,0.1-96.8,0.2-145.2,0c-27.8-0.1-51.1-22.3-53.1-50c-1.9-27.9,17.8-52.8,45.3-57.1c0.8-0.1,1.7-0.5,2.5-0.7
		C338.7,123.1,390.6,123.1,442.5,123.1z M364.7,147.1c-23.7,0-47.4,0-71.1,0c-7.8,0-14.7,2.4-20.6,7.6c-9.3,8.3-12.5,21.1-8.2,32.7
		c4.3,11.6,15.1,19.5,27.5,19.5c21.5,0.1,42.9,0.1,64.4,0.1c26.6,0,53.1,0.1,79.7,0c16.6-0.1,29.8-13,30.1-29.1
		c0.4-16.9-12.9-30.6-29.9-30.7C412.6,147,388.6,147.1,364.7,147.1z"/>
	<path class="st0" d="M167.1,123.1c6.4,2.1,13.1,3.3,19,6.3c22.7,11.5,33.8,37.9,26.8,62.4c-7,24.5-30.4,40.9-55.8,38.9
		c-24.6-1.9-45-20.5-49.1-44.9c-0.2-1-0.5-1.9-0.7-2.8c0-4,0-8,0-12c0.2-0.9,0.5-1.9,0.7-2.8c4.5-22.4,17.8-36.7,39.6-43.3
		c2.5-0.8,5.1-1.2,7.6-1.7C159.1,123.1,163.1,123.1,167.1,123.1z M191,177.2c0.1-16.5-13.4-30-29.9-30.1c-16.4,0-29.8,13.3-30,29.6
		c-0.1,16.5,13.2,30.2,29.7,30.2C177.4,207.1,191,193.6,191,177.2z"/>
	<path class="st0" d="M107.2,308.8c0.7-2.9,1.3-5.8,2.1-8.7c7-24.6,30.2-40.9,55.7-39.1c25.2,1.7,45.9,21.1,49.4,46.3
		c4.1,28.7-16,56.3-44.2,60.6c-29.9,4.5-57.2-14.8-62.2-43.9c-0.2-1.1-0.5-2.1-0.8-3.2C107.2,316.8,107.2,312.8,107.2,308.8z
		 M161,344.7c16.5,0,30-13.4,30-29.9c0-16.4-13.3-29.8-29.7-29.9c-16.5-0.1-30.1,13.3-30.2,29.8C131.1,331.1,144.5,344.7,161,344.7z
		"/>
	<path class="st0" d="M107.2,446.5c0.7-2.9,1.3-5.8,2.1-8.7c7-24.6,30.2-40.9,55.7-39.1c25.2,1.7,45.9,21.1,49.4,46.3
		c4.1,28.7-16,56.3-44.2,60.6c-29.9,4.5-57.2-14.8-62.2-43.9c-0.2-1.1-0.5-2.1-0.8-3.2C107.2,454.5,107.2,450.5,107.2,446.5z
		 M161.1,422.6c-16.5,0-29.9,13.5-29.9,30.1c0,16.3,13.4,29.7,29.8,29.8c16.5,0.1,30.1-13.4,30.1-29.9
		C191,436,177.6,422.5,161.1,422.6z"/>
	<path class="st0" d="M365.1,260.9c23.7,0,47.4-0.1,71.1,0c31.1,0.1,55.1,24.9,54.3,55.9c-0.8,27.8-24.3,51.5-52,51.7
		c-49.1,0.3-98.3,0.3-147.4,0c-27.2-0.2-50.4-23-52-50.2c-1.6-28,18.4-53,45.7-56.7c3.2-0.4,6.5-0.7,9.7-0.7
		C317.9,260.8,341.5,260.9,365.1,260.9z M364.9,284.8c-24.2,0-48.4-0.1-72.6,0c-16.3,0.1-29.3,13.6-29.4,29.8
		c0,16.2,12.9,29.9,29.2,29.9c48.4,0.2,96.8,0.1,145.2,0c7.8,0,14.6-3.1,20.2-8.5c8.7-8.4,11.3-21.1,6.9-32.4
		c-4.4-11.2-15.1-18.8-27.3-18.8C413,284.7,388.9,284.8,364.9,284.8z"/>
	<path class="st0" d="M365.1,398.6c23.7,0,47.4-0.1,71.1,0c31.1,0.1,55.1,24.9,54.3,55.9c-0.8,27.8-24.3,51.5-52,51.7
		c-49.1,0.3-98.3,0.3-147.4,0c-27.2-0.2-50.4-23-52-50.2c-1.6-28,18.4-53,45.7-56.7c3.2-0.4,6.5-0.7,9.7-0.7
		C317.9,398.6,341.5,398.6,365.1,398.6z M364.5,482.4c24.1,0,48.1,0.1,72.2,0c16.9-0.1,30.1-13.8,29.8-30.5
		c-0.3-16.2-13.4-29.2-29.9-29.3c-26.2-0.1-52.4,0-78.6,0c-21.8,0-43.7-0.1-65.5,0c-16.8,0.1-29.9,13.9-29.6,30.7
		c0.3,16.1,13.5,29,30.1,29.1C316.8,482.5,340.7,482.4,364.5,482.4z"/>
</g>
</svg>
