<?xml version="1.0" encoding="utf-8"?>
<!-- Generator: Adobe Illustrator 24.1.0, SVG Export Plug-In . SVG Version: 6.00 Build 0)  -->
<svg version="1.1" id="Layer_1" xmlns="http://www.w3.org/2000/svg" xmlns:xlink="http://www.w3.org/1999/xlink" x="0px" y="0px"
	 viewBox="0 0 597.6 633.6" style="enable-background:new 0 0 597.6 633.6;" xml:space="preserve">
<style type="text/css">
	.st0{fill:#F0A160;}
</style>
<g>
	<path class="st0" d="M106.8,374.7c1.1-4.2,1.7-8.6,3.3-12.6c8.4-21.2,23.9-33.9,46.7-36.1c11.3-1.1,22.8-0.2,34.1-0.2
		c-1.2,6.5-2.4,13.1-3.4,19.7c-0.4,2.8-0.4,5.7-0.4,8.6c0,35.8-0.1,71.6,0,107.3c0,4.4,0.8,8.9,1.2,13.6c-5.9,0-12,0-18.1,0
		c-9.6,0-19.2,0-28.8,0c-17.5,0-30.1-10.1-34-27.2c-0.1-0.5-0.4-0.9-0.6-1.3C106.8,422.6,106.8,398.7,106.8,374.7z"/>
	<path class="st0" d="M298.2,475.1c-25.3,0-50.6,0-76,0c-8.9,0-13-4.1-13-13c0-36.3,0-72.6,0-108.9c0-32.2,24-56.3,56.2-56.4
		c21.9-0.1,43.9-0.1,65.8,0c32.2,0.1,56.2,24.2,56.2,56.4c0.1,36.3,0,72.6,0,108.9c0,8.9-4.1,13-13,13
		C349.1,475.1,323.7,475.1,298.2,475.1z"/>
	<path class="st0" d="M298.6,283.1c-36.5,0.2-66.6-29.8-66.7-66.6c-0.1-36.3,29.7-66.3,66-66.4c36.8-0.2,66.8,29.3,67.1,65.7
		C365.3,252.8,335.5,282.9,298.6,283.1z"/>
	<path class="st0" d="M408.4,474.9c2.6-15.1,1.2-30.2,1.3-45.2c0.2-20.7,0.1-41.4,0-62.1c0-7,0.2-14-0.4-20.9
		c-0.6-6.9-2.2-13.7-3.4-20.9c-0.2,0.2-0.1-0.1,0.1-0.1c13.3,0.3,26.8-0.7,39.9,1.4c25,3.9,43.7,27,44,52.3c0.2,21,0.2,41.9,0,62.9
		c-0.2,18.3-14.7,32.7-33,32.8c-15.5,0.1-30.9,0-46.4,0C409.9,475.1,409.2,475,408.4,474.9z"/>
	<path class="st0" d="M231.3,262.1c-0.2,27.5-22.7,49.8-50,49.5c-27.4-0.2-49.7-22.8-49.5-50.1c0.2-27.7,22.7-49.7,50.4-49.4
		C209.5,212.4,231.5,234.8,231.3,262.1z"/>
	<path class="st0" d="M465,261.7c0.1,27.3-22.2,49.8-49.6,49.9c-27.3,0.1-49.7-22.2-49.8-49.7c-0.1-27.5,22-49.8,49.6-49.8
		C442.7,212.1,464.9,234.2,465,261.7z"/>
</g>
</svg>
